<?xml version="1.0" encoding="UTF-8" standalone="no"?>
<!DOCTYPE svg PUBLIC "-//W3C//DTD SVG 1.1//EN"
 "http://www.w3.org/Graphics/SVG/1.1/DTD/svg11.dtd">
<!-- Generated by graphviz version 2.36.0 (20140111.2315)
 -->
<!-- Title: CGLObject::getCurrentObject Pages: 1 -->
<svg width="684pt" height="66pt"
 viewBox="0.00 0.00 684.00 66.00" xmlns="http://www.w3.org/2000/svg" xmlns:xlink="http://www.w3.org/1999/xlink">
<g id="graph0" class="graph" transform="scale(1 1) rotate(0) translate(4 62)">
<title>CGLObject::getCurrentObject</title>
<polygon fill="white" stroke="none" points="-4,4 -4,-62 680,-62 680,4 -4,4"/>
<!-- Node1 -->
<g id="node1" class="node"><title>Node1</title>
<polygon fill="#bfbfbf" stroke="black" points="0,-19.5 0,-38.5 146,-38.5 146,-19.5 0,-19.5"/>
<text text-anchor="middle" x="73" y="-26.5" font-family="Helvetica,sans-Serif" font-size="10.00">CGLObject::getCurrentObject</text>
</g>
<!-- Node2 -->
<g id="node2" class="node"><title>Node2</title>
<g id="a_node2"><a xlink:href="../../d9/d85/class_c_g_l_scene.xhtml#ad6c70504f83937f819d08e76d25f05d0" target="_top" xlink:title="CGLScene::draw">
<polygon fill="white" stroke="black" points="212,-38.5 212,-57.5 304,-57.5 304,-38.5 212,-38.5"/>
<text text-anchor="middle" x="258" y="-45.5" font-family="Helvetica,sans-Serif" font-size="10.00">CGLScene::draw</text>
</a>
</g>
</g>
<!-- Node1&#45;&gt;Node2 -->
<g id="edge1" class="edge"><title>Node1&#45;&gt;Node2</title>
<path fill="none" stroke="midnightblue" d="M156.039,-37.5177C175.248,-39.5121 195.019,-41.5648 211.917,-43.3193"/>
<polygon fill="midnightblue" stroke="midnightblue" points="156.372,-34.0335 146.064,-36.482 155.649,-40.9961 156.372,-34.0335"/>
</g>
<!-- Node3 -->
<g id="node3" class="node"><title>Node3</title>
<g id="a_node3"><a xlink:href="../../d9/d85/class_c_g_l_scene.xhtml#afa2e2794f2f8c6b80b293703e411f7fe" target="_top" xlink:title="CGLScene::getCurrentCamera">
<polygon fill="white" stroke="black" points="182.5,-0.5 182.5,-19.5 333.5,-19.5 333.5,-0.5 182.5,-0.5"/>
<text text-anchor="middle" x="258" y="-7.5" font-family="Helvetica,sans-Serif" font-size="10.00">CGLScene::getCurrentCamera</text>
</a>
</g>
</g>
<!-- Node1&#45;&gt;Node3 -->
<g id="edge2" class="edge"><title>Node1&#45;&gt;Node3</title>
<path fill="none" stroke="midnightblue" d="M156.197,-20.4659C164.889,-19.5635 173.694,-18.6493 182.294,-17.7563"/>
<polygon fill="midnightblue" stroke="midnightblue" points="155.649,-17.0039 146.064,-21.518 156.372,-23.9665 155.649,-17.0039"/>
</g>
<!-- Node4 -->
<g id="node4" class="node"><title>Node4</title>
<g id="a_node4"><a xlink:href="../../dd/d40/class_c_g_l_window.xhtml#a87ea72d63fe563266178e72a19722e5d" target="_top" xlink:title="CGLWindow::loop">
<polygon fill="white" stroke="black" points="370,-0.5 370,-19.5 466,-19.5 466,-0.5 370,-0.5"/>
<text text-anchor="middle" x="418" y="-7.5" font-family="Helvetica,sans-Serif" font-size="10.00">CGLWindow::loop</text>
</a>
</g>
</g>
<!-- Node3&#45;&gt;Node4 -->
<g id="edge3" class="edge"><title>Node3&#45;&gt;Node4</title>
<path fill="none" stroke="midnightblue" d="M343.918,-10C352.831,-10 361.643,-10 369.897,-10"/>
<polygon fill="midnightblue" stroke="midnightblue" points="343.836,-6.5001 333.836,-10 343.836,-13.5001 343.836,-6.5001"/>
</g>
<!-- Node5 -->
<g id="node5" class="node"><title>Node5</title>
<g id="a_node5"><a xlink:href="../../dd/d40/class_c_g_l_window.xhtml#acee59c3d1b3a12c43fccf7f225c98dd6" target="_top" xlink:title="CGLWindow::exec">
<polygon fill="white" stroke="black" points="502.5,-0.5 502.5,-19.5 601.5,-19.5 601.5,-0.5 502.5,-0.5"/>
<text text-anchor="middle" x="552" y="-7.5" font-family="Helvetica,sans-Serif" font-size="10.00">CGLWindow::exec</text>
</a>
</g>
</g>
<!-- Node4&#45;&gt;Node5 -->
<g id="edge4" class="edge"><title>Node4&#45;&gt;Node5</title>
<path fill="none" stroke="midnightblue" d="M476.31,-10C484.963,-10 493.819,-10 502.268,-10"/>
<polygon fill="midnightblue" stroke="midnightblue" points="476.282,-6.5001 466.282,-10 476.282,-13.5001 476.282,-6.5001"/>
</g>
<!-- Node6 -->
<g id="node6" class="node"><title>Node6</title>
<g id="a_node6"><a xlink:href="../../db/dec/_damier_g_l_8cpp.xhtml#a0ddf1224851353fc92bfbff6f499fa97" target="_top" xlink:title="main">
<polygon fill="white" stroke="black" points="638,-0.5 638,-19.5 676,-19.5 676,-0.5 638,-0.5"/>
<text text-anchor="middle" x="657" y="-7.5" font-family="Helvetica,sans-Serif" font-size="10.00">main</text>
</a>
</g>
</g>
<!-- Node5&#45;&gt;Node6 -->
<g id="edge5" class="edge"><title>Node5&#45;&gt;Node6</title>
<path fill="none" stroke="midnightblue" d="M612.048,-10C621.439,-10 630.487,-10 637.908,-10"/>
<polygon fill="midnightblue" stroke="midnightblue" points="611.785,-6.5001 601.785,-10 611.785,-13.5001 611.785,-6.5001"/>
</g>
</g>
</svg>
