<?xml version="1.0" encoding="UTF-8" standalone="no"?>
<!DOCTYPE svg PUBLIC "-//W3C//DTD SVG 1.1//EN"
 "http://www.w3.org/Graphics/SVG/1.1/DTD/svg11.dtd">
<!-- Generated by graphviz version 2.36.0 (20140111.2315)
 -->
<!-- Title: CGLObject::draw Pages: 1 -->
<svg width="264pt" height="66pt"
 viewBox="0.00 0.00 264.00 66.00" xmlns="http://www.w3.org/2000/svg" xmlns:xlink="http://www.w3.org/1999/xlink">
<g id="graph0" class="graph" transform="scale(1 1) rotate(0) translate(4 62)">
<title>CGLObject::draw</title>
<polygon fill="white" stroke="none" points="-4,4 -4,-62 260,-62 260,4 -4,4"/>
<!-- Node1 -->
<g id="node1" class="node"><title>Node1</title>
<polygon fill="#bfbfbf" stroke="black" points="0,-19.5 0,-38.5 92,-38.5 92,-19.5 0,-19.5"/>
<text text-anchor="middle" x="46" y="-26.5" font-family="Helvetica,sans-Serif" font-size="10.00">CGLObject::draw</text>
</g>
<!-- Node2 -->
<g id="node2" class="node"><title>Node2</title>
<g id="a_node2"><a xlink:href="../../d2/d76/class_c_g_l_object.xhtml#a6c23675f91b2adc88a95d6da869652d4" target="_top" xlink:title="CGLObject::drawChildren">
<polygon fill="white" stroke="black" points="128,-38.5 128,-57.5 256,-57.5 256,-38.5 128,-38.5"/>
<text text-anchor="middle" x="192" y="-45.5" font-family="Helvetica,sans-Serif" font-size="10.00">CGLObject::drawChildren</text>
</a>
</g>
</g>
<!-- Node1&#45;&gt;Node2 -->
<g id="edge1" class="edge"><title>Node1&#45;&gt;Node2</title>
<path fill="none" stroke="midnightblue" d="M92.1674,-34.9596C100.289,-36.0312 108.943,-37.173 117.623,-38.3183"/>
<polygon fill="midnightblue" stroke="midnightblue" points="117.423,-41.8221 127.794,-39.6604 118.338,-34.8823 117.423,-41.8221"/>
</g>
<!-- Node3 -->
<g id="node3" class="node"><title>Node3</title>
<g id="a_node3"><a xlink:href="../../d2/d76/class_c_g_l_object.xhtml#a2781ec98c37bd209f2382c5130a365b9" target="_top" xlink:title="CGLObject::drawObject">
<polygon fill="white" stroke="black" points="131.5,-0.5 131.5,-19.5 252.5,-19.5 252.5,-0.5 131.5,-0.5"/>
<text text-anchor="middle" x="192" y="-7.5" font-family="Helvetica,sans-Serif" font-size="10.00">CGLObject::drawObject</text>
</a>
</g>
</g>
<!-- Node1&#45;&gt;Node3 -->
<g id="edge2" class="edge"><title>Node1&#45;&gt;Node3</title>
<path fill="none" stroke="midnightblue" d="M92.1674,-23.0404C101.508,-21.8079 111.553,-20.4826 121.532,-19.1659"/>
<polygon fill="midnightblue" stroke="midnightblue" points="122.005,-22.634 131.461,-17.8558 121.089,-15.6941 122.005,-22.634"/>
</g>
</g>
</svg>
