<?xml version="1.0" encoding="UTF-8" standalone="no"?>
<!DOCTYPE svg PUBLIC "-//W3C//DTD SVG 1.1//EN"
 "http://www.w3.org/Graphics/SVG/1.1/DTD/svg11.dtd">
<!-- Generated by graphviz version 2.36.0 (20140111.2315)
 -->
<!-- Title: CGLObject::CGLObject Pages: 1 -->
<svg width="358pt" height="66pt"
 viewBox="0.00 0.00 358.00 66.00" xmlns="http://www.w3.org/2000/svg" xmlns:xlink="http://www.w3.org/1999/xlink">
<g id="graph0" class="graph" transform="scale(1 1) rotate(0) translate(4 62)">
<title>CGLObject::CGLObject</title>
<polygon fill="white" stroke="none" points="-4,4 -4,-62 354,-62 354,4 -4,4"/>
<!-- Node1 -->
<g id="node1" class="node"><title>Node1</title>
<polygon fill="#bfbfbf" stroke="black" points="0,-19.5 0,-38.5 120,-38.5 120,-19.5 0,-19.5"/>
<text text-anchor="middle" x="60" y="-26.5" font-family="Helvetica,sans-Serif" font-size="10.00">CGLObject::CGLObject</text>
</g>
<!-- Node2 -->
<g id="node2" class="node"><title>Node2</title>
<g id="a_node2"><a xlink:href="../../d2/d76/class_c_g_l_object.xhtml#aa08cbbe873bf264dbb34f233bd21844b" target="_top" xlink:title="CGLObject::init">
<polygon fill="white" stroke="black" points="174,-38.5 174,-57.5 258,-57.5 258,-38.5 174,-38.5"/>
<text text-anchor="middle" x="216" y="-45.5" font-family="Helvetica,sans-Serif" font-size="10.00">CGLObject::init</text>
</a>
</g>
</g>
<!-- Node1&#45;&gt;Node2 -->
<g id="edge1" class="edge"><title>Node1&#45;&gt;Node2</title>
<path fill="none" stroke="midnightblue" d="M130.333,-37.554C145.243,-39.3936 160.54,-41.2809 173.958,-42.9364"/>
<polygon fill="midnightblue" stroke="midnightblue" points="130.453,-34.0425 120.1,-36.2916 129.596,-40.9898 130.453,-34.0425"/>
</g>
<!-- Node4 -->
<g id="node4" class="node"><title>Node4</title>
<g id="a_node4"><a xlink:href="../../d9/d85/class_c_g_l_scene.xhtml#aa221e551bb267aca47c05cbb3121ccb6" target="_top" xlink:title="CGLScene::CGLScene">
<polygon fill="white" stroke="black" points="156.5,-0.5 156.5,-19.5 275.5,-19.5 275.5,-0.5 156.5,-0.5"/>
<text text-anchor="middle" x="216" y="-7.5" font-family="Helvetica,sans-Serif" font-size="10.00">CGLScene::CGLScene</text>
</a>
</g>
</g>
<!-- Node1&#45;&gt;Node4 -->
<g id="edge3" class="edge"><title>Node1&#45;&gt;Node4</title>
<path fill="none" stroke="midnightblue" d="M130.235,-20.458C138.944,-19.3835 147.787,-18.2925 156.312,-17.2407"/>
<polygon fill="midnightblue" stroke="midnightblue" points="129.596,-17.0102 120.1,-21.7084 130.453,-23.9575 129.596,-17.0102"/>
</g>
<!-- Node3 -->
<g id="node3" class="node"><title>Node3</title>
<g id="a_node3"><a xlink:href="../../db/dec/_damier_g_l_8cpp.xhtml#a0ddf1224851353fc92bfbff6f499fa97" target="_top" xlink:title="main">
<polygon fill="white" stroke="black" points="312,-38.5 312,-57.5 350,-57.5 350,-38.5 312,-38.5"/>
<text text-anchor="middle" x="331" y="-45.5" font-family="Helvetica,sans-Serif" font-size="10.00">main</text>
</a>
</g>
</g>
<!-- Node2&#45;&gt;Node3 -->
<g id="edge2" class="edge"><title>Node2&#45;&gt;Node3</title>
<path fill="none" stroke="midnightblue" d="M268.227,-48C283.809,-48 299.931,-48 311.796,-48"/>
<polygon fill="midnightblue" stroke="midnightblue" points="268.115,-44.5001 258.115,-48 268.115,-51.5001 268.115,-44.5001"/>
</g>
</g>
</svg>
