<?xml version="1.0" encoding="UTF-8" standalone="no"?>
<!DOCTYPE svg PUBLIC "-//W3C//DTD SVG 1.1//EN"
 "http://www.w3.org/Graphics/SVG/1.1/DTD/svg11.dtd">
<!-- Generated by graphviz version 2.36.0 (20140111.2315)
 -->
<!-- Title: CGLObject::drawChildren Pages: 1 -->
<svg width="424pt" height="66pt"
 viewBox="0.00 0.00 424.00 66.00" xmlns="http://www.w3.org/2000/svg" xmlns:xlink="http://www.w3.org/1999/xlink">
<g id="graph0" class="graph" transform="scale(1 1) rotate(0) translate(4 62)">
<title>CGLObject::drawChildren</title>
<polygon fill="white" stroke="none" points="-4,4 -4,-62 420,-62 420,4 -4,4"/>
<!-- Node1 -->
<g id="node1" class="node"><title>Node1</title>
<polygon fill="#bfbfbf" stroke="black" points="0,-19.5 0,-38.5 128,-38.5 128,-19.5 0,-19.5"/>
<text text-anchor="middle" x="64" y="-26.5" font-family="Helvetica,sans-Serif" font-size="10.00">CGLObject::drawChildren</text>
</g>
<!-- Node2 -->
<g id="node2" class="node"><title>Node2</title>
<g id="a_node2"><a xlink:href="../../d2/d76/class_c_g_l_object.xhtml#a39c4cde56d18140384842d074407c5c4" target="_top" xlink:title="CGLObject::draw">
<polygon fill="white" stroke="black" points="164,-38.5 164,-57.5 256,-57.5 256,-38.5 164,-38.5"/>
<text text-anchor="middle" x="210" y="-45.5" font-family="Helvetica,sans-Serif" font-size="10.00">CGLObject::draw</text>
</a>
</g>
</g>
<!-- Node1&#45;&gt;Node2 -->
<g id="edge1" class="edge"><title>Node1&#45;&gt;Node2</title>
<path fill="none" stroke="midnightblue" d="M138.283,-38.6693C146.922,-39.8091 155.536,-40.9457 163.627,-42.0133"/>
<polygon fill="midnightblue" stroke="midnightblue" points="138.532,-35.1719 128.16,-37.3337 137.617,-42.1118 138.532,-35.1719"/>
</g>
<!-- Node4 -->
<g id="node4" class="node"><title>Node4</title>
<g id="a_node4"><a xlink:href="../../d9/d85/class_c_g_l_scene.xhtml#ad6c70504f83937f819d08e76d25f05d0" target="_top" xlink:title="CGLScene::draw">
<polygon fill="white" stroke="black" points="308,-0.5 308,-19.5 400,-19.5 400,-0.5 308,-0.5"/>
<text text-anchor="middle" x="354" y="-7.5" font-family="Helvetica,sans-Serif" font-size="10.00">CGLScene::draw</text>
</a>
</g>
</g>
<!-- Node1&#45;&gt;Node4 -->
<g id="edge4" class="edge"><title>Node1&#45;&gt;Node4</title>
<path fill="none" stroke="midnightblue" d="M138.306,-24.1639C191.73,-20.6393 262.421,-15.9757 307.812,-12.9812"/>
<polygon fill="midnightblue" stroke="midnightblue" points="137.951,-20.6796 128.203,-24.8304 138.412,-27.6644 137.951,-20.6796"/>
</g>
<!-- Node3 -->
<g id="node3" class="node"><title>Node3</title>
<g id="a_node3"><a xlink:href="../../d8/dbf/class_c_g_l_robot1.xhtml#a050d7fea4097a6634ef5feef26ae7865" target="_top" xlink:title="CGLRobot1::drawObject">
<polygon fill="white" stroke="black" points="292,-38.5 292,-57.5 416,-57.5 416,-38.5 292,-38.5"/>
<text text-anchor="middle" x="354" y="-45.5" font-family="Helvetica,sans-Serif" font-size="10.00">CGLRobot1::drawObject</text>
</a>
</g>
</g>
<!-- Node2&#45;&gt;Node3 -->
<g id="edge2" class="edge"><title>Node2&#45;&gt;Node3</title>
<path fill="none" stroke="midnightblue" d="M266.321,-48C274.671,-48 283.326,-48 291.792,-48"/>
<polygon fill="midnightblue" stroke="midnightblue" points="266.32,-44.5001 256.32,-48 266.32,-51.5001 266.32,-44.5001"/>
</g>
<!-- Node2&#45;&gt;Node4 -->
<g id="edge3" class="edge"><title>Node2&#45;&gt;Node4</title>
<path fill="none" stroke="midnightblue" d="M256.493,-35.8258C276.128,-30.5713 298.766,-24.5134 317.179,-19.5859"/>
<polygon fill="midnightblue" stroke="midnightblue" points="255.588,-32.4448 246.833,-38.411 257.397,-39.2069 255.588,-32.4448"/>
</g>
</g>
</svg>
