<?xml version="1.0" encoding="UTF-8" standalone="no"?>
<!DOCTYPE svg PUBLIC "-//W3C//DTD SVG 1.1//EN"
 "http://www.w3.org/Graphics/SVG/1.1/DTD/svg11.dtd">
<!-- Generated by graphviz version 2.36.0 (20140111.2315)
 -->
<!-- Title: CGLObject::isChild Pages: 1 -->
<svg width="662pt" height="256pt"
 viewBox="0.00 0.00 662.00 256.00" xmlns="http://www.w3.org/2000/svg" xmlns:xlink="http://www.w3.org/1999/xlink">
<g id="graph0" class="graph" transform="scale(1 1) rotate(0) translate(4 252)">
<title>CGLObject::isChild</title>
<polygon fill="white" stroke="none" points="-4,4 -4,-252 658,-252 658,4 -4,4"/>
<!-- Node1 -->
<g id="node1" class="node"><title>Node1</title>
<polygon fill="#bfbfbf" stroke="black" points="0.5,-114.5 0.5,-133.5 101.5,-133.5 101.5,-114.5 0.5,-114.5"/>
<text text-anchor="middle" x="51" y="-121.5" font-family="Helvetica,sans-Serif" font-size="10.00">CGLObject::isChild</text>
</g>
<!-- Node2 -->
<g id="node2" class="node"><title>Node2</title>
<g id="a_node2"><a xlink:href="../../d2/d76/class_c_g_l_object.xhtml#a83b8918905a5449c94e4447791b61abd" target="_top" xlink:title="CGLObject::addObject">
<polygon fill="white" stroke="black" points="138,-114.5 138,-133.5 254,-133.5 254,-114.5 138,-114.5"/>
<text text-anchor="middle" x="196" y="-121.5" font-family="Helvetica,sans-Serif" font-size="10.00">CGLObject::addObject</text>
</a>
</g>
</g>
<!-- Node1&#45;&gt;Node2 -->
<g id="edge1" class="edge"><title>Node1&#45;&gt;Node2</title>
<path fill="none" stroke="midnightblue" d="M111.867,-124C120.392,-124 129.145,-124 137.622,-124"/>
<polygon fill="midnightblue" stroke="midnightblue" points="111.613,-120.5 101.613,-124 111.613,-127.5 111.613,-120.5"/>
</g>
<!-- Node2&#45;&gt;Node2 -->
<g id="edge6" class="edge"><title>Node2&#45;&gt;Node2</title>
<path fill="none" stroke="midnightblue" d="M169.121,-142.654C170.244,-147.937 179.204,-152 196,-152 221.594,-152 228.992,-142.565 218.195,-133.757"/>
<polygon fill="midnightblue" stroke="midnightblue" points="172.243,-144.236 173.805,-133.757 166.049,-140.975 172.243,-144.236"/>
</g>
<!-- Node3 -->
<g id="node3" class="node"><title>Node3</title>
<g id="a_node3"><a xlink:href="../../d2/d76/class_c_g_l_object.xhtml#add00987cd4a5ee06cc4436766392434b" target="_top" xlink:title="CGLObject::CGLObject">
<polygon fill="white" stroke="black" points="297,-228.5 297,-247.5 417,-247.5 417,-228.5 297,-228.5"/>
<text text-anchor="middle" x="357" y="-235.5" font-family="Helvetica,sans-Serif" font-size="10.00">CGLObject::CGLObject</text>
</a>
</g>
</g>
<!-- Node2&#45;&gt;Node3 -->
<g id="edge2" class="edge"><title>Node2&#45;&gt;Node3</title>
<path fill="none" stroke="midnightblue" d="M211.068,-141.498C227.946,-161.48 257.996,-193.985 290,-214 299.51,-219.948 310.709,-224.72 321.154,-228.394"/>
<polygon fill="midnightblue" stroke="midnightblue" points="213.746,-139.245 204.673,-133.774 208.354,-143.708 213.746,-139.245"/>
</g>
<!-- Node5 -->
<g id="node5" class="node"><title>Node5</title>
<g id="a_node5"><a xlink:href="../../db/dec/_damier_g_l_8cpp.xhtml#a0ddf1224851353fc92bfbff6f499fa97" target="_top" xlink:title="main">
<polygon fill="white" stroke="black" points="616,-152.5 616,-171.5 654,-171.5 654,-152.5 616,-152.5"/>
<text text-anchor="middle" x="635" y="-159.5" font-family="Helvetica,sans-Serif" font-size="10.00">main</text>
</a>
</g>
</g>
<!-- Node2&#45;&gt;Node5 -->
<g id="edge13" class="edge"><title>Node2&#45;&gt;Node5</title>
<path fill="none" stroke="midnightblue" d="M246.921,-135.598C260.801,-138.44 275.928,-141.184 290,-143 413.685,-158.963 564.086,-161.527 615.64,-161.929"/>
<polygon fill="midnightblue" stroke="midnightblue" points="247.575,-132.159 237.068,-133.523 246.132,-139.009 247.575,-132.159"/>
</g>
<!-- Node6 -->
<g id="node6" class="node"><title>Node6</title>
<g id="a_node6"><a xlink:href="../../d9/d85/class_c_g_l_scene.xhtml#aa221e551bb267aca47c05cbb3121ccb6" target="_top" xlink:title="CGLScene::CGLScene">
<polygon fill="white" stroke="black" points="460.5,-190.5 460.5,-209.5 579.5,-209.5 579.5,-190.5 460.5,-190.5"/>
<text text-anchor="middle" x="520" y="-197.5" font-family="Helvetica,sans-Serif" font-size="10.00">CGLScene::CGLScene</text>
</a>
</g>
</g>
<!-- Node2&#45;&gt;Node6 -->
<g id="edge7" class="edge"><title>Node2&#45;&gt;Node6</title>
<path fill="none" stroke="midnightblue" d="M218.693,-139.494C236.835,-151.599 263.873,-167.714 290,-176 346.013,-193.765 413.206,-199.042 460.271,-200.314"/>
<polygon fill="midnightblue" stroke="midnightblue" points="220.298,-136.352 210.069,-133.593 216.345,-142.129 220.298,-136.352"/>
</g>
<!-- Node7 -->
<g id="node7" class="node"><title>Node7</title>
<g id="a_node7"><a xlink:href="../../d9/d85/class_c_g_l_scene.xhtml#acb982aaf33d81d1169a0a7844ac2ee6a" target="_top" xlink:title="CGLScene::addCamera">
<polygon fill="white" stroke="black" points="296.5,-114.5 296.5,-133.5 417.5,-133.5 417.5,-114.5 296.5,-114.5"/>
<text text-anchor="middle" x="357" y="-121.5" font-family="Helvetica,sans-Serif" font-size="10.00">CGLScene::addCamera</text>
</a>
</g>
</g>
<!-- Node2&#45;&gt;Node7 -->
<g id="edge8" class="edge"><title>Node2&#45;&gt;Node7</title>
<path fill="none" stroke="midnightblue" d="M264.431,-124C275.01,-124 285.881,-124 296.271,-124"/>
<polygon fill="midnightblue" stroke="midnightblue" points="264.403,-120.5 254.403,-124 264.403,-127.5 264.403,-120.5"/>
</g>
<!-- Node8 -->
<g id="node8" class="node"><title>Node8</title>
<g id="a_node8"><a xlink:href="../../d9/d85/class_c_g_l_scene.xhtml#aca6d85a7e345751c7fa58ca68bde3ea2" target="_top" xlink:title="CGLScene::addItem">
<polygon fill="white" stroke="black" points="467,-95.5 467,-114.5 573,-114.5 573,-95.5 467,-95.5"/>
<text text-anchor="middle" x="520" y="-102.5" font-family="Helvetica,sans-Serif" font-size="10.00">CGLScene::addItem</text>
</a>
</g>
</g>
<!-- Node2&#45;&gt;Node8 -->
<g id="edge9" class="edge"><title>Node2&#45;&gt;Node8</title>
<path fill="none" stroke="midnightblue" d="M244.925,-112.288C259.325,-109.291 275.223,-106.494 290,-105 350.322,-98.9011 420.039,-100.068 466.552,-102.009"/>
<polygon fill="midnightblue" stroke="midnightblue" points="243.777,-108.956 234.743,-114.49 245.257,-115.797 243.777,-108.956"/>
</g>
<!-- Node9 -->
<g id="node9" class="node"><title>Node9</title>
<g id="a_node9"><a xlink:href="../../dd/d40/class_c_g_l_window.xhtml#a7c63367c68554c8d9fc88ed91da270f8" target="_top" xlink:title="CGLWindow::CGLWindow">
<polygon fill="white" stroke="black" points="290,-38.5 290,-57.5 424,-57.5 424,-38.5 290,-38.5"/>
<text text-anchor="middle" x="357" y="-45.5" font-family="Helvetica,sans-Serif" font-size="10.00">CGLWindow::CGLWindow</text>
</a>
</g>
</g>
<!-- Node2&#45;&gt;Node9 -->
<g id="edge11" class="edge"><title>Node2&#45;&gt;Node9</title>
<path fill="none" stroke="midnightblue" d="M221.027,-109.151C239.484,-98.0959 265.827,-83.0659 290,-72 301.751,-66.6206 315.086,-61.5813 326.679,-57.5227"/>
<polygon fill="midnightblue" stroke="midnightblue" points="219.138,-106.204 212.396,-114.376 222.763,-112.192 219.138,-106.204"/>
</g>
<!-- Node10 -->
<g id="node10" class="node"><title>Node10</title>
<g id="a_node10"><a xlink:href="../../db/da4/class_c_g_l_world.xhtml#ad7d5968c14ea7de0e3be65cdeb588eb1" target="_top" xlink:title="CGLWorld::CGLWorld">
<polygon fill="white" stroke="black" points="300,-0.5 300,-19.5 414,-19.5 414,-0.5 300,-0.5"/>
<text text-anchor="middle" x="357" y="-7.5" font-family="Helvetica,sans-Serif" font-size="10.00">CGLWorld::CGLWorld</text>
</a>
</g>
</g>
<!-- Node2&#45;&gt;Node10 -->
<g id="edge12" class="edge"><title>Node2&#45;&gt;Node10</title>
<path fill="none" stroke="midnightblue" d="M209.849,-106.085C226.133,-84.6651 256.185,-49.1853 290,-29 296.45,-25.1497 303.723,-22.0437 311.022,-19.549"/>
<polygon fill="midnightblue" stroke="midnightblue" points="206.888,-104.201 203.742,-114.318 212.51,-108.371 206.888,-104.201"/>
</g>
<!-- Node4 -->
<g id="node4" class="node"><title>Node4</title>
<g id="a_node4"><a xlink:href="../../d2/d76/class_c_g_l_object.xhtml#aa08cbbe873bf264dbb34f233bd21844b" target="_top" xlink:title="CGLObject::init">
<polygon fill="white" stroke="black" points="478,-228.5 478,-247.5 562,-247.5 562,-228.5 478,-228.5"/>
<text text-anchor="middle" x="520" y="-235.5" font-family="Helvetica,sans-Serif" font-size="10.00">CGLObject::init</text>
</a>
</g>
</g>
<!-- Node3&#45;&gt;Node4 -->
<g id="edge3" class="edge"><title>Node3&#45;&gt;Node4</title>
<path fill="none" stroke="midnightblue" d="M427.062,-238C444.27,-238 462.191,-238 477.591,-238"/>
<polygon fill="midnightblue" stroke="midnightblue" points="427.036,-234.5 417.036,-238 427.036,-241.5 427.036,-234.5"/>
</g>
<!-- Node3&#45;&gt;Node6 -->
<g id="edge5" class="edge"><title>Node3&#45;&gt;Node6</title>
<path fill="none" stroke="midnightblue" d="M408.402,-226.104C431.032,-220.763 457.37,-214.546 478.665,-209.52"/>
<polygon fill="midnightblue" stroke="midnightblue" points="407.556,-222.707 398.627,-228.411 409.164,-229.52 407.556,-222.707"/>
</g>
<!-- Node4&#45;&gt;Node5 -->
<g id="edge4" class="edge"><title>Node4&#45;&gt;Node5</title>
<path fill="none" stroke="midnightblue" d="M569.849,-224.464C573.382,-222.827 576.807,-221.011 580,-219 600.071,-206.361 617.805,-184.571 627.106,-171.908"/>
<polygon fill="midnightblue" stroke="midnightblue" points="568.236,-221.343 560.326,-228.392 570.905,-227.815 568.236,-221.343"/>
</g>
<!-- Node8&#45;&gt;Node5 -->
<g id="edge10" class="edge"><title>Node8&#45;&gt;Node5</title>
<path fill="none" stroke="midnightblue" d="M548.942,-119.095C569.804,-129.618 597.713,-143.696 615.774,-152.806"/>
<polygon fill="midnightblue" stroke="midnightblue" points="550.418,-115.919 539.914,-114.541 547.266,-122.169 550.418,-115.919"/>
</g>
</g>
</svg>
