<?xml version="1.0" encoding="UTF-8" standalone="no"?>
<!DOCTYPE svg PUBLIC "-//W3C//DTD SVG 1.1//EN"
 "http://www.w3.org/Graphics/SVG/1.1/DTD/svg11.dtd">
<!-- Generated by graphviz version 2.36.0 (20140111.2315)
 -->
<!-- Title: CGLLight Pages: 1 -->
<svg width="195pt" height="448pt"
 viewBox="0.00 0.00 195.00 448.00" xmlns="http://www.w3.org/2000/svg" xmlns:xlink="http://www.w3.org/1999/xlink">
<g id="graph0" class="graph" transform="scale(1 1) rotate(0) translate(4 444)">
<title>CGLLight</title>
<polygon fill="white" stroke="none" points="-4,4 -4,-444 191,-444 191,4 -4,4"/>
<!-- Node1 -->
<g id="node1" class="node"><title>Node1</title>
<polygon fill="#bfbfbf" stroke="black" points="12.5,-1 12.5,-69 91.5,-69 91.5,-1 12.5,-1"/>
<text text-anchor="middle" x="52" y="-57" font-family="Helvetica,sans-Serif" font-size="10.00">CGLLight</text>
<polyline fill="none" stroke="black" points="12.5,-50 91.5,-50 "/>
<text text-anchor="middle" x="52" y="-38" font-family="Helvetica,sans-Serif" font-size="10.00"> </text>
<polyline fill="none" stroke="black" points="12.5,-31 91.5,-31 "/>
<text text-anchor="start" x="20.5" y="-19" font-family="Helvetica,sans-Serif" font-size="10.00">+ CGLLight()</text>
<text text-anchor="start" x="20.5" y="-8" font-family="Helvetica,sans-Serif" font-size="10.00">+ ~CGLLight()</text>
</g>
<!-- Node2 -->
<g id="node2" class="node"><title>Node2</title>
<g id="a_node2"><a xlink:href="../../d0/d14/class_c_g_l_special.xhtml" target="_top" xlink:title="{CGLSpecial\n||+ CGLSpecial()\l+ ~CGLSpecial()\l}">
<polygon fill="white" stroke="black" points="7,-109 7,-177 97,-177 97,-109 7,-109"/>
<text text-anchor="middle" x="52" y="-165" font-family="Helvetica,sans-Serif" font-size="10.00">CGLSpecial</text>
<polyline fill="none" stroke="black" points="7,-158 97,-158 "/>
<text text-anchor="middle" x="52" y="-146" font-family="Helvetica,sans-Serif" font-size="10.00"> </text>
<polyline fill="none" stroke="black" points="7,-139 97,-139 "/>
<text text-anchor="start" x="15" y="-127" font-family="Helvetica,sans-Serif" font-size="10.00">+ CGLSpecial()</text>
<text text-anchor="start" x="15" y="-116" font-family="Helvetica,sans-Serif" font-size="10.00">+ ~CGLSpecial()</text>
</a>
</g>
</g>
<!-- Node2&#45;&gt;Node1 -->
<g id="edge1" class="edge"><title>Node2&#45;&gt;Node1</title>
<path fill="none" stroke="midnightblue" d="M52,-98.696C52,-88.8277 52,-78.4951 52,-69.1303"/>
<polygon fill="none" stroke="midnightblue" points="48.5001,-98.7517 52,-108.752 55.5001,-98.7518 48.5001,-98.7517"/>
</g>
<!-- Node3 -->
<g id="node3" class="node"><title>Node3</title>
<g id="a_node3"><a xlink:href="../../d2/d76/class_c_g_l_object.xhtml" target="_top" xlink:title="{CGLObject\n|# objectType\l# name\l# matrixSaved\l# children\l# iterCurrentObject\l|+ addObject()\l+ setName()\l+ getName()\l+ getCurrentObject()\l+ isChild()\l+ draw()\l+ drawObject()\l+ drawChildren()\l+ drawCenter()\l+ CGLObject()\l+ ~CGLObject()\l+ init()\l}">
<polygon fill="white" stroke="black" points="-1,-217 -1,-439 105,-439 105,-217 -1,-217"/>
<text text-anchor="middle" x="52" y="-427" font-family="Helvetica,sans-Serif" font-size="10.00">CGLObject</text>
<polyline fill="none" stroke="black" points="-1,-420 105,-420 "/>
<text text-anchor="start" x="7" y="-408" font-family="Helvetica,sans-Serif" font-size="10.00"># objectType</text>
<text text-anchor="start" x="7" y="-397" font-family="Helvetica,sans-Serif" font-size="10.00"># name</text>
<text text-anchor="start" x="7" y="-386" font-family="Helvetica,sans-Serif" font-size="10.00"># matrixSaved</text>
<text text-anchor="start" x="7" y="-375" font-family="Helvetica,sans-Serif" font-size="10.00"># children</text>
<text text-anchor="start" x="7" y="-364" font-family="Helvetica,sans-Serif" font-size="10.00"># iterCurrentObject</text>
<polyline fill="none" stroke="black" points="-1,-357 105,-357 "/>
<text text-anchor="start" x="7" y="-345" font-family="Helvetica,sans-Serif" font-size="10.00">+ addObject()</text>
<text text-anchor="start" x="7" y="-334" font-family="Helvetica,sans-Serif" font-size="10.00">+ setName()</text>
<text text-anchor="start" x="7" y="-323" font-family="Helvetica,sans-Serif" font-size="10.00">+ getName()</text>
<text text-anchor="start" x="7" y="-312" font-family="Helvetica,sans-Serif" font-size="10.00">+ getCurrentObject()</text>
<text text-anchor="start" x="7" y="-301" font-family="Helvetica,sans-Serif" font-size="10.00">+ isChild()</text>
<text text-anchor="start" x="7" y="-290" font-family="Helvetica,sans-Serif" font-size="10.00">+ draw()</text>
<text text-anchor="start" x="7" y="-279" font-family="Helvetica,sans-Serif" font-size="10.00">+ drawObject()</text>
<text text-anchor="start" x="7" y="-268" font-family="Helvetica,sans-Serif" font-size="10.00">+ drawChildren()</text>
<text text-anchor="start" x="7" y="-257" font-family="Helvetica,sans-Serif" font-size="10.00">+ drawCenter()</text>
<text text-anchor="start" x="7" y="-246" font-family="Helvetica,sans-Serif" font-size="10.00">+ CGLObject()</text>
<text text-anchor="start" x="7" y="-235" font-family="Helvetica,sans-Serif" font-size="10.00">+ ~CGLObject()</text>
<text text-anchor="start" x="7" y="-224" font-family="Helvetica,sans-Serif" font-size="10.00">+ init()</text>
</a>
</g>
</g>
<!-- Node3&#45;&gt;Node2 -->
<g id="edge2" class="edge"><title>Node3&#45;&gt;Node2</title>
<path fill="none" stroke="midnightblue" d="M52,-206.537C52,-195.94 52,-185.921 52,-177.135"/>
<polygon fill="none" stroke="midnightblue" points="48.5001,-206.852 52,-216.852 55.5001,-206.852 48.5001,-206.852"/>
</g>
<!-- Node3&#45;&gt;Node3 -->
<g id="edge3" class="edge"><title>Node3&#45;&gt;Node3</title>
<path fill="none" stroke="#404040" d="M105.111,-351.124C115.021,-348.276 122,-340.568 122,-328 122,-320.734 119.667,-315.092 115.784,-311.075"/>
<polygon fill="none" stroke="#404040" points="115.488,-310.903 108.291,-311.349 105.111,-304.876 112.309,-304.431 115.488,-310.903"/>
<text text-anchor="middle" x="154" y="-336.5" font-family="Helvetica,sans-Serif" font-size="10.00"> +garbage</text>
<text text-anchor="middle" x="154" y="-325.5" font-family="Helvetica,sans-Serif" font-size="10.00">#currentObject</text>
<text text-anchor="middle" x="154" y="-314.5" font-family="Helvetica,sans-Serif" font-size="10.00">#parentObject</text>
</g>
</g>
</svg>
