<?xml version="1.0" encoding="UTF-8" standalone="no"?>
<!DOCTYPE svg PUBLIC "-//W3C//DTD SVG 1.1//EN"
 "http://www.w3.org/Graphics/SVG/1.1/DTD/svg11.dtd">
<!-- Generated by graphviz version 2.36.0 (20140111.2315)
 -->
<!-- Title: /home/dagal/git/DamierGL/DamierGL/src/CGL/CGLSpecial.h Pages: 1 -->
<svg width="738pt" height="448pt"
 viewBox="0.00 0.00 738.00 448.00" xmlns="http://www.w3.org/2000/svg" xmlns:xlink="http://www.w3.org/1999/xlink">
<g id="graph0" class="graph" transform="scale(1 1) rotate(0) translate(4 444)">
<title>/home/dagal/git/DamierGL/DamierGL/src/CGL/CGLSpecial.h</title>
<polygon fill="white" stroke="none" points="-4,4 -4,-444 734,-444 734,4 -4,4"/>
<!-- Node1 -->
<g id="node1" class="node"><title>Node1</title>
<polygon fill="#bfbfbf" stroke="black" points="372.5,-409 372.5,-439 539.5,-439 539.5,-409 372.5,-409"/>
<text text-anchor="start" x="380.5" y="-427" font-family="Helvetica,sans-Serif" font-size="10.00">/home/dagal/git/DamierGL</text>
<text text-anchor="middle" x="456" y="-416" font-family="Helvetica,sans-Serif" font-size="10.00">/DamierGL/src/CGL/CGLSpecial.h</text>
</g>
<!-- Node2 -->
<g id="node2" class="node"><title>Node2</title>
<g id="a_node2"><a xlink:href="$df/d5b/_c_g_l_camera_8h.xhtml" xlink:title="/home/dagal/git/DamierGL\l/DamierGL/src/CGL/CGLCamera.h">
<polygon fill="white" stroke="black" points="190,-341 190,-371 360,-371 360,-341 190,-341"/>
<text text-anchor="start" x="198" y="-359" font-family="Helvetica,sans-Serif" font-size="10.00">/home/dagal/git/DamierGL</text>
<text text-anchor="middle" x="275" y="-348" font-family="Helvetica,sans-Serif" font-size="10.00">/DamierGL/src/CGL/CGLCamera.h</text>
</a>
</g>
</g>
<!-- Node1&#45;&gt;Node2 -->
<g id="edge1" class="edge"><title>Node1&#45;&gt;Node2</title>
<path fill="none" stroke="midnightblue" d="M407.492,-405.312C378.013,-394.563 340.897,-381.029 313.454,-371.022"/>
<polygon fill="midnightblue" stroke="midnightblue" points="406.577,-408.704 417.171,-408.841 408.975,-402.127 406.577,-408.704"/>
</g>
<!-- Node13 -->
<g id="node13" class="node"><title>Node13</title>
<g id="a_node13"><a xlink:href="$da/d23/_c_g_l_light_8h.xhtml" xlink:title="/home/dagal/git/DamierGL\l/DamierGL/src/CGL/CGLLight.h">
<polygon fill="white" stroke="black" points="378,-341 378,-371 534,-371 534,-341 378,-341"/>
<text text-anchor="start" x="386" y="-359" font-family="Helvetica,sans-Serif" font-size="10.00">/home/dagal/git/DamierGL</text>
<text text-anchor="middle" x="456" y="-348" font-family="Helvetica,sans-Serif" font-size="10.00">/DamierGL/src/CGL/CGLLight.h</text>
</a>
</g>
</g>
<!-- Node1&#45;&gt;Node13 -->
<g id="edge12" class="edge"><title>Node1&#45;&gt;Node13</title>
<path fill="none" stroke="midnightblue" d="M456,-398.532C456,-389.361 456,-379.245 456,-371.293"/>
<polygon fill="midnightblue" stroke="midnightblue" points="452.5,-398.679 456,-408.679 459.5,-398.679 452.5,-398.679"/>
</g>
<!-- Node15 -->
<g id="node15" class="node"><title>Node15</title>
<g id="a_node15"><a xlink:href="$d7/dcc/_c_g_l_special_8cpp.xhtml" xlink:title="/home/dagal/git/DamierGL\l/DamierGL/src/CGL/CGLSpecial.cpp">
<polygon fill="white" stroke="black" points="552,-341 552,-371 730,-371 730,-341 552,-341"/>
<text text-anchor="start" x="560" y="-359" font-family="Helvetica,sans-Serif" font-size="10.00">/home/dagal/git/DamierGL</text>
<text text-anchor="middle" x="641" y="-348" font-family="Helvetica,sans-Serif" font-size="10.00">/DamierGL/src/CGL/CGLSpecial.cpp</text>
</a>
</g>
</g>
<!-- Node1&#45;&gt;Node15 -->
<g id="edge15" class="edge"><title>Node1&#45;&gt;Node15</title>
<path fill="none" stroke="midnightblue" d="M505.188,-405.452C535.38,-394.68 573.525,-381.072 601.696,-371.022"/>
<polygon fill="midnightblue" stroke="midnightblue" points="503.93,-402.185 495.687,-408.841 506.282,-408.778 503.93,-402.185"/>
</g>
<!-- Node3 -->
<g id="node3" class="node"><title>Node3</title>
<g id="a_node3"><a xlink:href="$dd/d43/_c_g_l_camera_8cpp.xhtml" xlink:title="/home/dagal/git/DamierGL\l/DamierGL/src/CGL/CGLCamera.cpp">
<polygon fill="white" stroke="black" points="0,-273 0,-303 180,-303 180,-273 0,-273"/>
<text text-anchor="start" x="8" y="-291" font-family="Helvetica,sans-Serif" font-size="10.00">/home/dagal/git/DamierGL</text>
<text text-anchor="middle" x="90" y="-280" font-family="Helvetica,sans-Serif" font-size="10.00">/DamierGL/src/CGL/CGLCamera.cpp</text>
</a>
</g>
</g>
<!-- Node2&#45;&gt;Node3 -->
<g id="edge2" class="edge"><title>Node2&#45;&gt;Node3</title>
<path fill="none" stroke="midnightblue" d="M225.812,-337.452C195.62,-326.68 157.475,-313.072 129.304,-303.022"/>
<polygon fill="midnightblue" stroke="midnightblue" points="224.718,-340.778 235.313,-340.841 227.07,-334.185 224.718,-340.778"/>
</g>
<!-- Node4 -->
<g id="node4" class="node"><title>Node4</title>
<g id="a_node4"><a xlink:href="$d5/d86/_c_g_l_camera_list_8h.xhtml" xlink:title="/home/dagal/git/DamierGL\l/DamierGL/src/CGL/CGLCameraList.h">
<polygon fill="white" stroke="black" points="198.5,-273 198.5,-303 383.5,-303 383.5,-273 198.5,-273"/>
<text text-anchor="start" x="206.5" y="-291" font-family="Helvetica,sans-Serif" font-size="10.00">/home/dagal/git/DamierGL</text>
<text text-anchor="middle" x="291" y="-280" font-family="Helvetica,sans-Serif" font-size="10.00">/DamierGL/src/CGL/CGLCameraList.h</text>
</a>
</g>
</g>
<!-- Node2&#45;&gt;Node4 -->
<g id="edge3" class="edge"><title>Node2&#45;&gt;Node4</title>
<path fill="none" stroke="midnightblue" d="M280.859,-330.831C283.102,-321.581 285.586,-311.331 287.535,-303.293"/>
<polygon fill="midnightblue" stroke="midnightblue" points="277.426,-330.136 278.472,-340.679 284.229,-331.785 277.426,-330.136"/>
</g>
<!-- Node5 -->
<g id="node5" class="node"><title>Node5</title>
<g id="a_node5"><a xlink:href="$df/d1a/_c_g_l_camera_list_8cpp.xhtml" xlink:title="/home/dagal/git/DamierGL\l/DamierGL/src/CGL/CGLCameraList.cpp">
<polygon fill="white" stroke="black" points="145,-205 145,-235 341,-235 341,-205 145,-205"/>
<text text-anchor="start" x="153" y="-223" font-family="Helvetica,sans-Serif" font-size="10.00">/home/dagal/git/DamierGL</text>
<text text-anchor="middle" x="243" y="-212" font-family="Helvetica,sans-Serif" font-size="10.00">/DamierGL/src/CGL/CGLCameraList.cpp</text>
</a>
</g>
</g>
<!-- Node4&#45;&gt;Node5 -->
<g id="edge4" class="edge"><title>Node4&#45;&gt;Node5</title>
<path fill="none" stroke="midnightblue" d="M274.501,-264.314C267.501,-254.689 259.555,-243.763 253.395,-235.293"/>
<polygon fill="midnightblue" stroke="midnightblue" points="271.872,-266.65 280.585,-272.679 277.534,-262.533 271.872,-266.65"/>
</g>
<!-- Node6 -->
<g id="node6" class="node"><title>Node6</title>
<g id="a_node6"><a xlink:href="$d0/dc9/_c_g_l_scene_8h.xhtml" xlink:title="/home/dagal/git/DamierGL\l/DamierGL/src/CGL/CGLScene.h">
<polygon fill="white" stroke="black" points="359.5,-205 359.5,-235 522.5,-235 522.5,-205 359.5,-205"/>
<text text-anchor="start" x="367.5" y="-223" font-family="Helvetica,sans-Serif" font-size="10.00">/home/dagal/git/DamierGL</text>
<text text-anchor="middle" x="441" y="-212" font-family="Helvetica,sans-Serif" font-size="10.00">/DamierGL/src/CGL/CGLScene.h</text>
</a>
</g>
</g>
<!-- Node4&#45;&gt;Node6 -->
<g id="edge5" class="edge"><title>Node4&#45;&gt;Node6</title>
<path fill="none" stroke="midnightblue" d="M332.481,-268.749C356.698,-258.093 386.785,-244.855 409.132,-235.022"/>
<polygon fill="midnightblue" stroke="midnightblue" points="330.922,-265.61 323.179,-272.841 333.742,-272.018 330.922,-265.61"/>
</g>
<!-- Node7 -->
<g id="node7" class="node"><title>Node7</title>
<g id="a_node7"><a xlink:href="$d0/d58/_c_g_l_scene_8cpp.xhtml" xlink:title="/home/dagal/git/DamierGL\l/DamierGL/src/CGL/CGLScene.cpp">
<polygon fill="white" stroke="black" points="261.5,-137 261.5,-167 434.5,-167 434.5,-137 261.5,-137"/>
<text text-anchor="start" x="269.5" y="-155" font-family="Helvetica,sans-Serif" font-size="10.00">/home/dagal/git/DamierGL</text>
<text text-anchor="middle" x="348" y="-144" font-family="Helvetica,sans-Serif" font-size="10.00">/DamierGL/src/CGL/CGLScene.cpp</text>
</a>
</g>
</g>
<!-- Node6&#45;&gt;Node7 -->
<g id="edge6" class="edge"><title>Node6&#45;&gt;Node7</title>
<path fill="none" stroke="midnightblue" d="M412.661,-198.888C398.164,-188.6 380.873,-176.329 367.821,-167.066"/>
<polygon fill="midnightblue" stroke="midnightblue" points="410.64,-201.746 420.82,-204.679 414.691,-196.037 410.64,-201.746"/>
</g>
<!-- Node8 -->
<g id="node8" class="node"><title>Node8</title>
<g id="a_node8"><a xlink:href="$d6/d37/_c_g_l_world_8h.xhtml" xlink:title="/home/dagal/git/DamierGL\l/DamierGL/src/CGL/CGLWorld.h">
<polygon fill="white" stroke="black" points="452.5,-137 452.5,-167 613.5,-167 613.5,-137 452.5,-137"/>
<text text-anchor="start" x="460.5" y="-155" font-family="Helvetica,sans-Serif" font-size="10.00">/home/dagal/git/DamierGL</text>
<text text-anchor="middle" x="533" y="-144" font-family="Helvetica,sans-Serif" font-size="10.00">/DamierGL/src/CGL/CGLWorld.h</text>
</a>
</g>
</g>
<!-- Node6&#45;&gt;Node8 -->
<g id="edge7" class="edge"><title>Node6&#45;&gt;Node8</title>
<path fill="none" stroke="midnightblue" d="M469.437,-198.599C483.695,-188.371 500.601,-176.243 513.392,-167.066"/>
<polygon fill="midnightblue" stroke="midnightblue" points="467.048,-196.006 460.963,-204.679 471.128,-201.694 467.048,-196.006"/>
</g>
<!-- Node9 -->
<g id="node9" class="node"><title>Node9</title>
<g id="a_node9"><a xlink:href="$de/d96/_c_g_l_window_8h.xhtml" xlink:title="/home/dagal/git/DamierGL\l/DamierGL/src/CGL/CGLWindow.h">
<polygon fill="white" stroke="black" points="354,-69 354,-99 524,-99 524,-69 354,-69"/>
<text text-anchor="start" x="362" y="-87" font-family="Helvetica,sans-Serif" font-size="10.00">/home/dagal/git/DamierGL</text>
<text text-anchor="middle" x="439" y="-76" font-family="Helvetica,sans-Serif" font-size="10.00">/DamierGL/src/CGL/CGLWindow.h</text>
</a>
</g>
</g>
<!-- Node8&#45;&gt;Node9 -->
<g id="edge8" class="edge"><title>Node8&#45;&gt;Node9</title>
<path fill="none" stroke="midnightblue" d="M504.356,-130.888C489.703,-120.6 472.227,-108.329 459.034,-99.0663"/>
<polygon fill="midnightblue" stroke="midnightblue" points="502.408,-133.797 512.603,-136.679 506.43,-128.068 502.408,-133.797"/>
</g>
<!-- Node12 -->
<g id="node12" class="node"><title>Node12</title>
<g id="a_node12"><a xlink:href="$dd/d05/_c_g_l_world_8cpp.xhtml" xlink:title="/home/dagal/git/DamierGL\l/DamierGL/src/CGL/CGLWorld.cpp">
<polygon fill="white" stroke="black" points="542.5,-69 542.5,-99 713.5,-99 713.5,-69 542.5,-69"/>
<text text-anchor="start" x="550.5" y="-87" font-family="Helvetica,sans-Serif" font-size="10.00">/home/dagal/git/DamierGL</text>
<text text-anchor="middle" x="628" y="-76" font-family="Helvetica,sans-Serif" font-size="10.00">/DamierGL/src/CGL/CGLWorld.cpp</text>
</a>
</g>
</g>
<!-- Node8&#45;&gt;Node12 -->
<g id="edge11" class="edge"><title>Node8&#45;&gt;Node12</title>
<path fill="none" stroke="midnightblue" d="M561.949,-130.888C576.757,-120.6 594.42,-108.329 607.753,-99.0663"/>
<polygon fill="midnightblue" stroke="midnightblue" points="559.829,-128.099 553.614,-136.679 563.823,-133.848 559.829,-128.099"/>
</g>
<!-- Node10 -->
<g id="node10" class="node"><title>Node10</title>
<g id="a_node10"><a xlink:href="$df/d9a/_c_g_l_window_8cpp.xhtml" xlink:title="/home/dagal/git/DamierGL\l/DamierGL/src/CGL/CGLWindow.cpp">
<polygon fill="white" stroke="black" points="257.5,-1 257.5,-31 438.5,-31 438.5,-1 257.5,-1"/>
<text text-anchor="start" x="265.5" y="-19" font-family="Helvetica,sans-Serif" font-size="10.00">/home/dagal/git/DamierGL</text>
<text text-anchor="middle" x="348" y="-8" font-family="Helvetica,sans-Serif" font-size="10.00">/DamierGL/src/CGL/CGLWindow.cpp</text>
</a>
</g>
</g>
<!-- Node9&#45;&gt;Node10 -->
<g id="edge9" class="edge"><title>Node9&#45;&gt;Node10</title>
<path fill="none" stroke="midnightblue" d="M410.872,-62.5994C396.769,-52.3712 380.047,-40.2428 367.394,-31.0663"/>
<polygon fill="midnightblue" stroke="midnightblue" points="409.104,-65.6411 419.254,-68.679 413.214,-59.9745 409.104,-65.6411"/>
</g>
<!-- Node11 -->
<g id="node11" class="node"><title>Node11</title>
<g id="a_node11"><a xlink:href="$db/dec/_damier_g_l_8cpp.xhtml" xlink:title="/home/dagal/git/DamierGL\l/DamierGL/src/DamierGL.cpp">
<polygon fill="white" stroke="black" points="457,-1 457,-31 603,-31 603,-1 457,-1"/>
<text text-anchor="start" x="465" y="-19" font-family="Helvetica,sans-Serif" font-size="10.00">/home/dagal/git/DamierGL</text>
<text text-anchor="middle" x="530" y="-8" font-family="Helvetica,sans-Serif" font-size="10.00">/DamierGL/src/DamierGL.cpp</text>
</a>
</g>
</g>
<!-- Node9&#45;&gt;Node11 -->
<g id="edge10" class="edge"><title>Node9&#45;&gt;Node11</title>
<path fill="none" stroke="midnightblue" d="M467.128,-62.5994C481.231,-52.3712 497.953,-40.2428 510.606,-31.0663"/>
<polygon fill="midnightblue" stroke="midnightblue" points="464.786,-59.9745 458.746,-68.679 468.896,-65.6411 464.786,-59.9745"/>
</g>
<!-- Node13&#45;&gt;Node6 -->
<g id="edge14" class="edge"><title>Node13&#45;&gt;Node6</title>
<path fill="none" stroke="midnightblue" d="M453.26,-330.524C450.136,-302.619 445.135,-257.94 442.594,-235.237"/>
<polygon fill="midnightblue" stroke="midnightblue" points="449.804,-331.111 454.395,-340.66 456.76,-330.332 449.804,-331.111"/>
</g>
<!-- Node14 -->
<g id="node14" class="node"><title>Node14</title>
<g id="a_node14"><a xlink:href="$de/d39/_c_g_l_light_8cpp.xhtml" xlink:title="/home/dagal/git/DamierGL\l/DamierGL/src/CGL/CGLLight.cpp">
<polygon fill="white" stroke="black" points="468.5,-273 468.5,-303 635.5,-303 635.5,-273 468.5,-273"/>
<text text-anchor="start" x="476.5" y="-291" font-family="Helvetica,sans-Serif" font-size="10.00">/home/dagal/git/DamierGL</text>
<text text-anchor="middle" x="552" y="-280" font-family="Helvetica,sans-Serif" font-size="10.00">/DamierGL/src/CGL/CGLLight.cpp</text>
</a>
</g>
</g>
<!-- Node13&#45;&gt;Node14 -->
<g id="edge13" class="edge"><title>Node13&#45;&gt;Node14</title>
<path fill="none" stroke="midnightblue" d="M485.253,-334.888C500.218,-324.6 518.066,-312.329 531.54,-303.066"/>
<polygon fill="midnightblue" stroke="midnightblue" points="483.088,-332.129 476.831,-340.679 487.054,-337.898 483.088,-332.129"/>
</g>
</g>
</svg>
