<?xml version="1.0" encoding="UTF-8" standalone="no"?>
<!DOCTYPE svg PUBLIC "-//W3C//DTD SVG 1.1//EN"
 "http://www.w3.org/Graphics/SVG/1.1/DTD/svg11.dtd">
<!-- Generated by graphviz version 2.36.0 (20140111.2315)
 -->
<!-- Title: /home/dagal/git/DamierGL/DamierGL/src/CGL/CGLEffect.h Pages: 1 -->
<svg width="1015pt" height="176pt"
 viewBox="0.00 0.00 1015.00 176.00" xmlns="http://www.w3.org/2000/svg" xmlns:xlink="http://www.w3.org/1999/xlink">
<g id="graph0" class="graph" transform="scale(1 1) rotate(0) translate(4 172)">
<title>/home/dagal/git/DamierGL/DamierGL/src/CGL/CGLEffect.h</title>
<polygon fill="white" stroke="none" points="-4,4 -4,-172 1011,-172 1011,4 -4,4"/>
<!-- Node1 -->
<g id="node1" class="node"><title>Node1</title>
<polygon fill="#bfbfbf" stroke="black" points="472.5,-137 472.5,-167 633.5,-167 633.5,-137 472.5,-137"/>
<text text-anchor="start" x="480.5" y="-155" font-family="Helvetica,sans-Serif" font-size="10.00">/home/dagal/git/DamierGL</text>
<text text-anchor="middle" x="553" y="-144" font-family="Helvetica,sans-Serif" font-size="10.00">/DamierGL/src/CGL/CGLEffect.h</text>
</g>
<!-- Node2 -->
<g id="node2" class="node"><title>Node2</title>
<g id="a_node2"><a xlink:href="$da/de7/_c_g_l_color_8h.xhtml" xlink:title="/home/dagal/git/DamierGL\l/DamierGL/src/CGL/CGLColor.h">
<polygon fill="white" stroke="black" points="103,-69 103,-99 261,-99 261,-69 103,-69"/>
<text text-anchor="start" x="111" y="-87" font-family="Helvetica,sans-Serif" font-size="10.00">/home/dagal/git/DamierGL</text>
<text text-anchor="middle" x="182" y="-76" font-family="Helvetica,sans-Serif" font-size="10.00">/DamierGL/src/CGL/CGLColor.h</text>
</a>
</g>
</g>
<!-- Node1&#45;&gt;Node2 -->
<g id="edge1" class="edge"><title>Node1&#45;&gt;Node2</title>
<path fill="none" stroke="midnightblue" d="M463.737,-135.12C401.945,-124.128 320.45,-109.63 261.012,-99.0561"/>
<polygon fill="midnightblue" stroke="midnightblue" points="463.408,-138.617 473.866,-136.922 464.634,-131.725 463.408,-138.617"/>
</g>
<!-- Node5 -->
<g id="node5" class="node"><title>Node5</title>
<g id="a_node5"><a xlink:href="$d7/da1/_c_g_l_effect_8cpp.xhtml" xlink:title="/home/dagal/git/DamierGL\l/DamierGL/src/CGL/CGLEffect.cpp">
<polygon fill="white" stroke="black" points="835,-69 835,-99 1007,-99 1007,-69 835,-69"/>
<text text-anchor="start" x="843" y="-87" font-family="Helvetica,sans-Serif" font-size="10.00">/home/dagal/git/DamierGL</text>
<text text-anchor="middle" x="921" y="-76" font-family="Helvetica,sans-Serif" font-size="10.00">/DamierGL/src/CGL/CGLEffect.cpp</text>
</a>
</g>
</g>
<!-- Node1&#45;&gt;Node5 -->
<g id="edge4" class="edge"><title>Node1&#45;&gt;Node5</title>
<path fill="none" stroke="midnightblue" d="M641.541,-135.12C702.833,-124.128 783.669,-109.63 842.627,-99.0561"/>
<polygon fill="midnightblue" stroke="midnightblue" points="640.719,-131.712 631.494,-136.922 641.955,-138.602 640.719,-131.712"/>
</g>
<!-- Node6 -->
<g id="node6" class="node"><title>Node6</title>
<g id="a_node6"><a xlink:href="$db/d5d/_c_g_l_position_8h.xhtml" xlink:title="/home/dagal/git/DamierGL\l/DamierGL/src/CGL/CGLPosition.h">
<polygon fill="white" stroke="black" points="279,-69 279,-99 449,-99 449,-69 279,-69"/>
<text text-anchor="start" x="287" y="-87" font-family="Helvetica,sans-Serif" font-size="10.00">/home/dagal/git/DamierGL</text>
<text text-anchor="middle" x="364" y="-76" font-family="Helvetica,sans-Serif" font-size="10.00">/DamierGL/src/CGL/CGLPosition.h</text>
</a>
</g>
</g>
<!-- Node1&#45;&gt;Node6 -->
<g id="edge5" class="edge"><title>Node1&#45;&gt;Node6</title>
<path fill="none" stroke="midnightblue" d="M502.749,-133.452C471.903,-122.68 432.934,-109.072 404.153,-99.0218"/>
<polygon fill="midnightblue" stroke="midnightblue" points="501.86,-136.849 512.455,-136.841 504.168,-130.24 501.86,-136.849"/>
</g>
<!-- Node8 -->
<g id="node8" class="node"><title>Node8</title>
<g id="a_node8"><a xlink:href="$d5/d65/_c_g_l_rotation_8h.xhtml" xlink:title="/home/dagal/git/DamierGL\l/DamierGL/src/CGL/CGLRotation.h">
<polygon fill="white" stroke="black" points="467,-69 467,-99 639,-99 639,-69 467,-69"/>
<text text-anchor="start" x="475" y="-87" font-family="Helvetica,sans-Serif" font-size="10.00">/home/dagal/git/DamierGL</text>
<text text-anchor="middle" x="553" y="-76" font-family="Helvetica,sans-Serif" font-size="10.00">/DamierGL/src/CGL/CGLRotation.h</text>
</a>
</g>
</g>
<!-- Node1&#45;&gt;Node8 -->
<g id="edge8" class="edge"><title>Node1&#45;&gt;Node8</title>
<path fill="none" stroke="midnightblue" d="M553,-126.532C553,-117.361 553,-107.245 553,-99.2931"/>
<polygon fill="midnightblue" stroke="midnightblue" points="549.5,-126.679 553,-136.679 556.5,-126.679 549.5,-126.679"/>
</g>
<!-- Node10 -->
<g id="node10" class="node"><title>Node10</title>
<g id="a_node10"><a xlink:href="$d2/d1b/_c_g_l_scale_8h.xhtml" xlink:title="/home/dagal/git/DamierGL\l/DamierGL/src/CGL/CGLScale.h">
<polygon fill="white" stroke="black" points="657,-69 657,-99 817,-99 817,-69 657,-69"/>
<text text-anchor="start" x="665" y="-87" font-family="Helvetica,sans-Serif" font-size="10.00">/home/dagal/git/DamierGL</text>
<text text-anchor="middle" x="737" y="-76" font-family="Helvetica,sans-Serif" font-size="10.00">/DamierGL/src/CGL/CGLScale.h</text>
</a>
</g>
</g>
<!-- Node1&#45;&gt;Node10 -->
<g id="edge11" class="edge"><title>Node1&#45;&gt;Node10</title>
<path fill="none" stroke="midnightblue" d="M601.922,-133.452C631.951,-122.68 669.89,-109.072 697.909,-99.0218"/>
<polygon fill="midnightblue" stroke="midnightblue" points="600.704,-130.17 592.473,-136.841 603.067,-136.759 600.704,-130.17"/>
</g>
<!-- Node3 -->
<g id="node3" class="node"><title>Node3</title>
<g id="a_node3"><a xlink:href="$da/d19/_c_g_l_color_8cpp.xhtml" xlink:title="/home/dagal/git/DamierGL\l/DamierGL/src/CGL/CGLColor.cpp">
<polygon fill="white" stroke="black" points="-0.5,-1 -0.5,-31 168.5,-31 168.5,-1 -0.5,-1"/>
<text text-anchor="start" x="7.5" y="-19" font-family="Helvetica,sans-Serif" font-size="10.00">/home/dagal/git/DamierGL</text>
<text text-anchor="middle" x="84" y="-8" font-family="Helvetica,sans-Serif" font-size="10.00">/DamierGL/src/CGL/CGLColor.cpp</text>
</a>
</g>
</g>
<!-- Node2&#45;&gt;Node3 -->
<g id="edge2" class="edge"><title>Node2&#45;&gt;Node3</title>
<path fill="none" stroke="midnightblue" d="M152.137,-62.8884C136.861,-52.6003 118.641,-40.3293 104.886,-31.0663"/>
<polygon fill="midnightblue" stroke="midnightblue" points="150.486,-65.996 160.735,-68.679 154.396,-60.1899 150.486,-65.996"/>
</g>
<!-- Node4 -->
<g id="node4" class="node"><title>Node4</title>
<g id="a_node4"><a xlink:href="$db/dec/_damier_g_l_8cpp.xhtml" xlink:title="/home/dagal/git/DamierGL\l/DamierGL/src/DamierGL.cpp">
<polygon fill="white" stroke="black" points="386,-1 386,-31 532,-31 532,-1 386,-1"/>
<text text-anchor="start" x="394" y="-19" font-family="Helvetica,sans-Serif" font-size="10.00">/home/dagal/git/DamierGL</text>
<text text-anchor="middle" x="459" y="-8" font-family="Helvetica,sans-Serif" font-size="10.00">/DamierGL/src/DamierGL.cpp</text>
</a>
</g>
</g>
<!-- Node2&#45;&gt;Node4 -->
<g id="edge3" class="edge"><title>Node2&#45;&gt;Node4</title>
<path fill="none" stroke="midnightblue" d="M250.941,-66.5735C296.785,-55.6505 356.361,-41.4556 400.007,-31.0561"/>
<polygon fill="midnightblue" stroke="midnightblue" points="250,-63.1997 241.084,-68.9223 251.623,-70.0091 250,-63.1997"/>
</g>
<!-- Node6&#45;&gt;Node4 -->
<g id="edge7" class="edge"><title>Node6&#45;&gt;Node4</title>
<path fill="none" stroke="midnightblue" d="M392.949,-62.8884C407.757,-52.6003 425.42,-40.3293 438.753,-31.0663"/>
<polygon fill="midnightblue" stroke="midnightblue" points="390.829,-60.099 384.614,-68.679 394.823,-65.8478 390.829,-60.099"/>
</g>
<!-- Node7 -->
<g id="node7" class="node"><title>Node7</title>
<g id="a_node7"><a xlink:href="$db/d18/_c_g_l_position_8cpp.xhtml" xlink:title="/home/dagal/git/DamierGL\l/DamierGL/src/CGL/CGLPosition.cpp">
<polygon fill="white" stroke="black" points="186.5,-1 186.5,-31 367.5,-31 367.5,-1 186.5,-1"/>
<text text-anchor="start" x="194.5" y="-19" font-family="Helvetica,sans-Serif" font-size="10.00">/home/dagal/git/DamierGL</text>
<text text-anchor="middle" x="277" y="-8" font-family="Helvetica,sans-Serif" font-size="10.00">/DamierGL/src/CGL/CGLPosition.cpp</text>
</a>
</g>
</g>
<!-- Node6&#45;&gt;Node7 -->
<g id="edge6" class="edge"><title>Node6&#45;&gt;Node7</title>
<path fill="none" stroke="midnightblue" d="M337.108,-62.5994C323.626,-52.3712 307.638,-40.2428 295.542,-31.0663"/>
<polygon fill="midnightblue" stroke="midnightblue" points="335.04,-65.4235 345.122,-68.679 339.271,-59.8467 335.04,-65.4235"/>
</g>
<!-- Node8&#45;&gt;Node4 -->
<g id="edge10" class="edge"><title>Node8&#45;&gt;Node4</title>
<path fill="none" stroke="midnightblue" d="M524.356,-62.8884C509.703,-52.6003 492.227,-40.3293 479.034,-31.0663"/>
<polygon fill="midnightblue" stroke="midnightblue" points="522.408,-65.7971 532.603,-68.679 526.43,-60.0682 522.408,-65.7971"/>
</g>
<!-- Node9 -->
<g id="node9" class="node"><title>Node9</title>
<g id="a_node9"><a xlink:href="$db/d63/_c_g_l_rotation_8cpp.xhtml" xlink:title="/home/dagal/git/DamierGL\l/DamierGL/src/CGL/CGLRotation.cpp">
<polygon fill="white" stroke="black" points="550,-1 550,-31 732,-31 732,-1 550,-1"/>
<text text-anchor="start" x="558" y="-19" font-family="Helvetica,sans-Serif" font-size="10.00">/home/dagal/git/DamierGL</text>
<text text-anchor="middle" x="641" y="-8" font-family="Helvetica,sans-Serif" font-size="10.00">/DamierGL/src/CGL/CGLRotation.cpp</text>
</a>
</g>
</g>
<!-- Node8&#45;&gt;Node9 -->
<g id="edge9" class="edge"><title>Node8&#45;&gt;Node9</title>
<path fill="none" stroke="midnightblue" d="M580.201,-62.5994C593.838,-52.3712 610.01,-40.2428 622.245,-31.0663"/>
<polygon fill="midnightblue" stroke="midnightblue" points="577.995,-59.8789 572.095,-68.679 582.195,-65.479 577.995,-59.8789"/>
</g>
<!-- Node10&#45;&gt;Node4 -->
<g id="edge13" class="edge"><title>Node10&#45;&gt;Node4</title>
<path fill="none" stroke="midnightblue" d="M667.81,-66.5735C621.801,-55.6505 562.01,-41.4556 518.206,-31.0561"/>
<polygon fill="midnightblue" stroke="midnightblue" points="667.165,-70.0177 677.703,-68.9223 668.782,-63.207 667.165,-70.0177"/>
</g>
<!-- Node11 -->
<g id="node11" class="node"><title>Node11</title>
<g id="a_node11"><a xlink:href="$dc/d61/_c_g_l_scale_8cpp.xhtml" xlink:title="/home/dagal/git/DamierGL\l/DamierGL/src/CGL/CGLScale.cpp">
<polygon fill="white" stroke="black" points="750,-1 750,-31 920,-31 920,-1 750,-1"/>
<text text-anchor="start" x="758" y="-19" font-family="Helvetica,sans-Serif" font-size="10.00">/home/dagal/git/DamierGL</text>
<text text-anchor="middle" x="835" y="-8" font-family="Helvetica,sans-Serif" font-size="10.00">/DamierGL/src/CGL/CGLScale.cpp</text>
</a>
</g>
</g>
<!-- Node10&#45;&gt;Node11 -->
<g id="edge12" class="edge"><title>Node10&#45;&gt;Node11</title>
<path fill="none" stroke="midnightblue" d="M766.863,-62.8884C782.139,-52.6003 800.359,-40.3293 814.114,-31.0663"/>
<polygon fill="midnightblue" stroke="midnightblue" points="764.604,-60.1899 758.265,-68.679 768.514,-65.996 764.604,-60.1899"/>
</g>
</g>
</svg>
