<?xml version="1.0" encoding="UTF-8" standalone="no"?>
<!DOCTYPE svg PUBLIC "-//W3C//DTD SVG 1.1//EN"
 "http://www.w3.org/Graphics/SVG/1.1/DTD/svg11.dtd">
<!-- Generated by graphviz version 2.36.0 (20140111.2315)
 -->
<!-- Title: /home/dagal/git/DamierGL/DamierGL/src/CGL/CGLEffect.h Pages: 1 -->
<svg width="1150pt" height="244pt"
 viewBox="0.00 0.00 1150.00 244.00" xmlns="http://www.w3.org/2000/svg" xmlns:xlink="http://www.w3.org/1999/xlink">
<g id="graph0" class="graph" transform="scale(1 1) rotate(0) translate(4 240)">
<title>/home/dagal/git/DamierGL/DamierGL/src/CGL/CGLEffect.h</title>
<polygon fill="white" stroke="none" points="-4,4 -4,-240 1146,-240 1146,4 -4,4"/>
<!-- Node1 -->
<g id="node1" class="node"><title>Node1</title>
<polygon fill="#bfbfbf" stroke="black" points="375.5,-205 375.5,-235 536.5,-235 536.5,-205 375.5,-205"/>
<text text-anchor="start" x="383.5" y="-223" font-family="Helvetica,sans-Serif" font-size="10.00">/home/dagal/git/DamierGL</text>
<text text-anchor="middle" x="456" y="-212" font-family="Helvetica,sans-Serif" font-size="10.00">/DamierGL/src/CGL/CGLEffect.h</text>
</g>
<!-- Node2 -->
<g id="node2" class="node"><title>Node2</title>
<g id="a_node2"><a xlink:href="$da/de7/_c_g_l_color_8h.xhtml" xlink:title="/home/dagal/git/DamierGL\l/DamierGL/src/CGL/CGLColor.h">
<polygon fill="white" stroke="black" points="5,-137 5,-167 163,-167 163,-137 5,-137"/>
<text text-anchor="start" x="13" y="-155" font-family="Helvetica,sans-Serif" font-size="10.00">/home/dagal/git/DamierGL</text>
<text text-anchor="middle" x="84" y="-144" font-family="Helvetica,sans-Serif" font-size="10.00">/DamierGL/src/CGL/CGLColor.h</text>
</a>
</g>
</g>
<!-- Node1&#45;&gt;Node2 -->
<g id="edge1" class="edge"><title>Node1&#45;&gt;Node2</title>
<path fill="none" stroke="midnightblue" d="M366.496,-203.12C304.538,-192.128 222.824,-177.63 163.225,-167.056"/>
<polygon fill="midnightblue" stroke="midnightblue" points="366.195,-206.621 376.653,-204.922 367.418,-199.729 366.195,-206.621"/>
</g>
<!-- Node5 -->
<g id="node5" class="node"><title>Node5</title>
<g id="a_node5"><a xlink:href="$d7/da1/_c_g_l_effect_8cpp.xhtml" xlink:title="/home/dagal/git/DamierGL\l/DamierGL/src/CGL/CGLEffect.cpp">
<polygon fill="white" stroke="black" points="181,-137 181,-167 353,-167 353,-137 181,-137"/>
<text text-anchor="start" x="189" y="-155" font-family="Helvetica,sans-Serif" font-size="10.00">/home/dagal/git/DamierGL</text>
<text text-anchor="middle" x="267" y="-144" font-family="Helvetica,sans-Serif" font-size="10.00">/DamierGL/src/CGL/CGLEffect.cpp</text>
</a>
</g>
</g>
<!-- Node1&#45;&gt;Node5 -->
<g id="edge4" class="edge"><title>Node1&#45;&gt;Node5</title>
<path fill="none" stroke="midnightblue" d="M405.749,-201.452C374.903,-190.68 335.934,-177.072 307.153,-167.022"/>
<polygon fill="midnightblue" stroke="midnightblue" points="404.86,-204.849 415.455,-204.841 407.168,-198.24 404.86,-204.849"/>
</g>
<!-- Node6 -->
<g id="node6" class="node"><title>Node6</title>
<g id="a_node6"><a xlink:href="$db/d5d/_c_g_l_position_8h.xhtml" xlink:title="/home/dagal/git/DamierGL\l/DamierGL/src/CGL/CGLPosition.h">
<polygon fill="white" stroke="black" points="371,-137 371,-167 541,-167 541,-137 371,-137"/>
<text text-anchor="start" x="379" y="-155" font-family="Helvetica,sans-Serif" font-size="10.00">/home/dagal/git/DamierGL</text>
<text text-anchor="middle" x="456" y="-144" font-family="Helvetica,sans-Serif" font-size="10.00">/DamierGL/src/CGL/CGLPosition.h</text>
</a>
</g>
</g>
<!-- Node1&#45;&gt;Node6 -->
<g id="edge5" class="edge"><title>Node1&#45;&gt;Node6</title>
<path fill="none" stroke="midnightblue" d="M456,-194.532C456,-185.361 456,-175.245 456,-167.293"/>
<polygon fill="midnightblue" stroke="midnightblue" points="452.5,-194.679 456,-204.679 459.5,-194.679 452.5,-194.679"/>
</g>
<!-- Node8 -->
<g id="node8" class="node"><title>Node8</title>
<g id="a_node8"><a xlink:href="$d5/d65/_c_g_l_rotation_8h.xhtml" xlink:title="/home/dagal/git/DamierGL\l/DamierGL/src/CGL/CGLRotation.h">
<polygon fill="white" stroke="black" points="742,-137 742,-167 914,-167 914,-137 742,-137"/>
<text text-anchor="start" x="750" y="-155" font-family="Helvetica,sans-Serif" font-size="10.00">/home/dagal/git/DamierGL</text>
<text text-anchor="middle" x="828" y="-144" font-family="Helvetica,sans-Serif" font-size="10.00">/DamierGL/src/CGL/CGLRotation.h</text>
</a>
</g>
</g>
<!-- Node1&#45;&gt;Node8 -->
<g id="edge8" class="edge"><title>Node1&#45;&gt;Node8</title>
<path fill="none" stroke="midnightblue" d="M545.504,-203.12C607.462,-192.128 689.176,-177.63 748.775,-167.056"/>
<polygon fill="midnightblue" stroke="midnightblue" points="544.582,-199.729 535.347,-204.922 545.805,-206.621 544.582,-199.729"/>
</g>
<!-- Node12 -->
<g id="node12" class="node"><title>Node12</title>
<g id="a_node12"><a xlink:href="$d2/d1b/_c_g_l_scale_8h.xhtml" xlink:title="/home/dagal/git/DamierGL\l/DamierGL/src/CGL/CGLScale.h">
<polygon fill="white" stroke="black" points="559,-137 559,-167 719,-167 719,-137 559,-137"/>
<text text-anchor="start" x="567" y="-155" font-family="Helvetica,sans-Serif" font-size="10.00">/home/dagal/git/DamierGL</text>
<text text-anchor="middle" x="639" y="-144" font-family="Helvetica,sans-Serif" font-size="10.00">/DamierGL/src/CGL/CGLScale.h</text>
</a>
</g>
</g>
<!-- Node1&#45;&gt;Node12 -->
<g id="edge13" class="edge"><title>Node1&#45;&gt;Node12</title>
<path fill="none" stroke="midnightblue" d="M505.044,-201.312C534.849,-190.563 572.375,-177.029 600.121,-167.022"/>
<polygon fill="midnightblue" stroke="midnightblue" points="503.478,-198.156 495.258,-204.841 505.852,-204.741 503.478,-198.156"/>
</g>
<!-- Node3 -->
<g id="node3" class="node"><title>Node3</title>
<g id="a_node3"><a xlink:href="$da/d19/_c_g_l_color_8cpp.xhtml" xlink:title="/home/dagal/git/DamierGL\l/DamierGL/src/CGL/CGLColor.cpp">
<polygon fill="white" stroke="black" points="-0.5,-69 -0.5,-99 168.5,-99 168.5,-69 -0.5,-69"/>
<text text-anchor="start" x="7.5" y="-87" font-family="Helvetica,sans-Serif" font-size="10.00">/home/dagal/git/DamierGL</text>
<text text-anchor="middle" x="84" y="-76" font-family="Helvetica,sans-Serif" font-size="10.00">/DamierGL/src/CGL/CGLColor.cpp</text>
</a>
</g>
</g>
<!-- Node2&#45;&gt;Node3 -->
<g id="edge2" class="edge"><title>Node2&#45;&gt;Node3</title>
<path fill="none" stroke="midnightblue" d="M84,-126.532C84,-117.361 84,-107.245 84,-99.2931"/>
<polygon fill="midnightblue" stroke="midnightblue" points="80.5001,-126.679 84,-136.679 87.5001,-126.679 80.5001,-126.679"/>
</g>
<!-- Node4 -->
<g id="node4" class="node"><title>Node4</title>
<g id="a_node4"><a xlink:href="$db/dec/_damier_g_l_8cpp.xhtml" xlink:title="/home/dagal/git/DamierGL\l/DamierGL/src/DamierGL.cpp">
<polygon fill="white" stroke="black" points="429,-1 429,-31 575,-31 575,-1 429,-1"/>
<text text-anchor="start" x="437" y="-19" font-family="Helvetica,sans-Serif" font-size="10.00">/home/dagal/git/DamierGL</text>
<text text-anchor="middle" x="502" y="-8" font-family="Helvetica,sans-Serif" font-size="10.00">/DamierGL/src/DamierGL.cpp</text>
</a>
</g>
</g>
<!-- Node2&#45;&gt;Node4 -->
<g id="edge3" class="edge"><title>Node2&#45;&gt;Node4</title>
<path fill="none" stroke="midnightblue" d="M118.792,-132.145C154.377,-113.539 211.702,-85.4223 264,-68 318.023,-50.0029 381.115,-36.8218 428.761,-28.373"/>
<polygon fill="midnightblue" stroke="midnightblue" points="117.005,-129.13 109.792,-136.89 120.27,-135.322 117.005,-129.13"/>
</g>
<!-- Node6&#45;&gt;Node4 -->
<g id="edge7" class="edge"><title>Node6&#45;&gt;Node4</title>
<path fill="none" stroke="midnightblue" d="M464.275,-126.894C473.846,-99.0151 489.285,-54.0401 497.113,-31.2372"/>
<polygon fill="midnightblue" stroke="midnightblue" points="460.859,-126.065 460.923,-136.66 467.48,-128.338 460.859,-126.065"/>
</g>
<!-- Node7 -->
<g id="node7" class="node"><title>Node7</title>
<g id="a_node7"><a xlink:href="$db/d18/_c_g_l_position_8cpp.xhtml" xlink:title="/home/dagal/git/DamierGL\l/DamierGL/src/CGL/CGLPosition.cpp">
<polygon fill="white" stroke="black" points="273.5,-69 273.5,-99 454.5,-99 454.5,-69 273.5,-69"/>
<text text-anchor="start" x="281.5" y="-87" font-family="Helvetica,sans-Serif" font-size="10.00">/home/dagal/git/DamierGL</text>
<text text-anchor="middle" x="364" y="-76" font-family="Helvetica,sans-Serif" font-size="10.00">/DamierGL/src/CGL/CGLPosition.cpp</text>
</a>
</g>
</g>
<!-- Node6&#45;&gt;Node7 -->
<g id="edge6" class="edge"><title>Node6&#45;&gt;Node7</title>
<path fill="none" stroke="midnightblue" d="M427.563,-130.599C413.305,-120.371 396.399,-108.243 383.608,-99.0663"/>
<polygon fill="midnightblue" stroke="midnightblue" points="425.872,-133.694 436.037,-136.679 429.952,-128.006 425.872,-133.694"/>
</g>
<!-- Node9 -->
<g id="node9" class="node"><title>Node9</title>
<g id="a_node9"><a xlink:href="$db/d63/_c_g_l_rotation_8cpp.xhtml" xlink:title="/home/dagal/git/DamierGL\l/DamierGL/src/CGL/CGLRotation.cpp">
<polygon fill="white" stroke="black" points="737,-69 737,-99 919,-99 919,-69 737,-69"/>
<text text-anchor="start" x="745" y="-87" font-family="Helvetica,sans-Serif" font-size="10.00">/home/dagal/git/DamierGL</text>
<text text-anchor="middle" x="828" y="-76" font-family="Helvetica,sans-Serif" font-size="10.00">/DamierGL/src/CGL/CGLRotation.cpp</text>
</a>
</g>
</g>
<!-- Node8&#45;&gt;Node9 -->
<g id="edge9" class="edge"><title>Node8&#45;&gt;Node9</title>
<path fill="none" stroke="midnightblue" d="M828,-126.532C828,-117.361 828,-107.245 828,-99.2931"/>
<polygon fill="midnightblue" stroke="midnightblue" points="824.5,-126.679 828,-136.679 831.5,-126.679 824.5,-126.679"/>
</g>
<!-- Node10 -->
<g id="node10" class="node"><title>Node10</title>
<g id="a_node10"><a xlink:href="$d4/ddd/_c_g_l_rotation_speed_8h.xhtml" xlink:title="/home/dagal/git/DamierGL\l/DamierGL/src/CGL/CGLRotationSpeed.h">
<polygon fill="white" stroke="black" points="937,-69 937,-99 1137,-99 1137,-69 937,-69"/>
<text text-anchor="start" x="945" y="-87" font-family="Helvetica,sans-Serif" font-size="10.00">/home/dagal/git/DamierGL</text>
<text text-anchor="middle" x="1037" y="-76" font-family="Helvetica,sans-Serif" font-size="10.00">/DamierGL/src/CGL/CGLRotationSpeed.h</text>
</a>
</g>
</g>
<!-- Node8&#45;&gt;Node10 -->
<g id="edge10" class="edge"><title>Node8&#45;&gt;Node10</title>
<path fill="none" stroke="midnightblue" d="M882.426,-133.813C916.673,-122.998 960.317,-109.216 992.489,-99.0561"/>
<polygon fill="midnightblue" stroke="midnightblue" points="881.061,-130.573 872.579,-136.922 883.169,-137.248 881.061,-130.573"/>
</g>
<!-- Node10&#45;&gt;Node4 -->
<g id="edge12" class="edge"><title>Node10&#45;&gt;Node4</title>
<path fill="none" stroke="midnightblue" d="M926.799,-67.8581C796.971,-51.2248 657.914,-34.9104 575.168,-25.3629"/>
<polygon fill="midnightblue" stroke="midnightblue" points="926.561,-71.3563 936.926,-69.1586 927.453,-64.4133 926.561,-71.3563"/>
</g>
<!-- Node11 -->
<g id="node11" class="node"><title>Node11</title>
<g id="a_node11"><a xlink:href="$df/d6d/_c_g_l_rotation_speed_8cpp.xhtml" xlink:title="/home/dagal/git/DamierGL\l/DamierGL/src/CGL/CGLRotationSpeed.cpp">
<polygon fill="white" stroke="black" points="932,-1 932,-31 1142,-31 1142,-1 932,-1"/>
<text text-anchor="start" x="940" y="-19" font-family="Helvetica,sans-Serif" font-size="10.00">/home/dagal/git/DamierGL</text>
<text text-anchor="middle" x="1037" y="-8" font-family="Helvetica,sans-Serif" font-size="10.00">/DamierGL/src/CGL/CGLRotationSpeed.cpp</text>
</a>
</g>
</g>
<!-- Node10&#45;&gt;Node11 -->
<g id="edge11" class="edge"><title>Node10&#45;&gt;Node11</title>
<path fill="none" stroke="midnightblue" d="M1037,-58.5322C1037,-49.3606 1037,-39.2449 1037,-31.2931"/>
<polygon fill="midnightblue" stroke="midnightblue" points="1033.5,-58.6789 1037,-68.679 1040.5,-58.679 1033.5,-58.6789"/>
</g>
<!-- Node12&#45;&gt;Node4 -->
<g id="edge15" class="edge"><title>Node12&#45;&gt;Node4</title>
<path fill="none" stroke="midnightblue" d="M588.167,-132.74C571.22,-124.731 553.292,-113.923 540,-100 521.067,-80.169 510.37,-49.2364 505.423,-31.2631"/>
<polygon fill="midnightblue" stroke="midnightblue" points="586.888,-136.002 597.445,-136.903 589.754,-129.616 586.888,-136.002"/>
</g>
<!-- Node13 -->
<g id="node13" class="node"><title>Node13</title>
<g id="a_node13"><a xlink:href="$dc/d61/_c_g_l_scale_8cpp.xhtml" xlink:title="/home/dagal/git/DamierGL\l/DamierGL/src/CGL/CGLScale.cpp">
<polygon fill="white" stroke="black" points="549,-69 549,-99 719,-99 719,-69 549,-69"/>
<text text-anchor="start" x="557" y="-87" font-family="Helvetica,sans-Serif" font-size="10.00">/home/dagal/git/DamierGL</text>
<text text-anchor="middle" x="634" y="-76" font-family="Helvetica,sans-Serif" font-size="10.00">/DamierGL/src/CGL/CGLScale.cpp</text>
</a>
</g>
</g>
<!-- Node12&#45;&gt;Node13 -->
<g id="edge14" class="edge"><title>Node12&#45;&gt;Node13</title>
<path fill="none" stroke="midnightblue" d="M637.146,-126.532C636.452,-117.361 635.685,-107.245 635.083,-99.2931"/>
<polygon fill="midnightblue" stroke="midnightblue" points="633.67,-126.972 637.915,-136.679 640.65,-126.443 633.67,-126.972"/>
</g>
</g>
</svg>
