<?xml version="1.0" encoding="UTF-8" standalone="no"?>
<!DOCTYPE svg PUBLIC "-//W3C//DTD SVG 1.1//EN"
 "http://www.w3.org/Graphics/SVG/1.1/DTD/svg11.dtd">
<!-- Generated by graphviz version 2.36.0 (20140111.2315)
 -->
<!-- Title: /home/dagal/git/DamierGL/DamierGL/src/CGL/CGLEffect.h Pages: 1 -->
<svg width="1123pt" height="244pt"
 viewBox="0.00 0.00 1123.41 244.00" xmlns="http://www.w3.org/2000/svg" xmlns:xlink="http://www.w3.org/1999/xlink">
<g id="graph0" class="graph" transform="scale(1 1) rotate(0) translate(4 240)">
<title>/home/dagal/git/DamierGL/DamierGL/src/CGL/CGLEffect.h</title>
<polygon fill="white" stroke="none" points="-4,4 -4,-240 1119.41,-240 1119.41,4 -4,4"/>
<!-- Node1 -->
<g id="node1" class="node"><title>Node1</title>
<polygon fill="#bfbfbf" stroke="black" points="505.915,-205 505.915,-235 666.915,-235 666.915,-205 505.915,-205"/>
<text text-anchor="start" x="513.915" y="-223" font-family="Helvetica,sans-Serif" font-size="10.00">/home/dagal/git/DamierGL</text>
<text text-anchor="middle" x="586.415" y="-212" font-family="Helvetica,sans-Serif" font-size="10.00">/DamierGL/src/CGL/CGLEffect.h</text>
</g>
<!-- Node2 -->
<g id="node2" class="node"><title>Node2</title>
<g id="a_node2"><a xlink:href="$da/de7/_c_g_l_color_8h.xhtml" xlink:title="/home/dagal/git/DamierGL\l/DamierGL/src/CGL/CGLColor.h">
<polygon fill="white" stroke="black" points="21.4147,-137 21.4147,-167 179.415,-167 179.415,-137 21.4147,-137"/>
<text text-anchor="start" x="29.4147" y="-155" font-family="Helvetica,sans-Serif" font-size="10.00">/home/dagal/git/DamierGL</text>
<text text-anchor="middle" x="100.415" y="-144" font-family="Helvetica,sans-Serif" font-size="10.00">/DamierGL/src/CGL/CGLColor.h</text>
</a>
</g>
</g>
<!-- Node1&#45;&gt;Node2 -->
<g id="edge1" class="edge"><title>Node1&#45;&gt;Node2</title>
<path fill="none" stroke="midnightblue" d="M495.866,-206.703C404.907,-194.351 266.138,-175.506 179.483,-163.738"/>
<polygon fill="midnightblue" stroke="midnightblue" points="495.509,-210.187 505.889,-208.064 496.451,-203.25 495.509,-210.187"/>
</g>
<!-- Node5 -->
<g id="node5" class="node"><title>Node5</title>
<g id="a_node5"><a xlink:href="$d7/da1/_c_g_l_effect_8cpp.xhtml" xlink:title="/home/dagal/git/DamierGL\l/DamierGL/src/CGL/CGLEffect.cpp">
<polygon fill="white" stroke="black" points="943.415,-137 943.415,-167 1115.41,-167 1115.41,-137 943.415,-137"/>
<text text-anchor="start" x="951.415" y="-155" font-family="Helvetica,sans-Serif" font-size="10.00">/home/dagal/git/DamierGL</text>
<text text-anchor="middle" x="1029.41" y="-144" font-family="Helvetica,sans-Serif" font-size="10.00">/DamierGL/src/CGL/CGLEffect.cpp</text>
</a>
</g>
</g>
<!-- Node1&#45;&gt;Node5 -->
<g id="edge4" class="edge"><title>Node1&#45;&gt;Node5</title>
<path fill="none" stroke="midnightblue" d="M677.114,-205.989C747.365,-195.843 847.102,-181.291 934.415,-168 937.303,-167.56 940.241,-167.111 943.208,-166.654"/>
<polygon fill="midnightblue" stroke="midnightblue" points="676.366,-202.56 666.969,-207.453 677.366,-209.489 676.366,-202.56"/>
</g>
<!-- Node6 -->
<g id="node6" class="node"><title>Node6</title>
<g id="a_node6"><a xlink:href="$db/d5d/_c_g_l_position_8h.xhtml" xlink:title="/home/dagal/git/DamierGL\l/DamierGL/src/CGL/CGLPosition.h">
<polygon fill="white" stroke="black" points="501.415,-137 501.415,-167 671.415,-167 671.415,-137 501.415,-137"/>
<text text-anchor="start" x="509.415" y="-155" font-family="Helvetica,sans-Serif" font-size="10.00">/home/dagal/git/DamierGL</text>
<text text-anchor="middle" x="586.415" y="-144" font-family="Helvetica,sans-Serif" font-size="10.00">/DamierGL/src/CGL/CGLPosition.h</text>
</a>
</g>
</g>
<!-- Node1&#45;&gt;Node6 -->
<g id="edge5" class="edge"><title>Node1&#45;&gt;Node6</title>
<path fill="none" stroke="midnightblue" d="M586.415,-194.532C586.415,-185.361 586.415,-175.245 586.415,-167.293"/>
<polygon fill="midnightblue" stroke="midnightblue" points="582.915,-194.679 586.415,-204.679 589.915,-194.679 582.915,-194.679"/>
</g>
<!-- Node10 -->
<g id="node10" class="node"><title>Node10</title>
<g id="a_node10"><a xlink:href="$d5/d65/_c_g_l_rotation_8h.xhtml" xlink:title="/home/dagal/git/DamierGL\l/DamierGL/src/CGL/CGLRotation.h">
<polygon fill="white" stroke="black" points="311.415,-137 311.415,-167 483.415,-167 483.415,-137 311.415,-137"/>
<text text-anchor="start" x="319.415" y="-155" font-family="Helvetica,sans-Serif" font-size="10.00">/home/dagal/git/DamierGL</text>
<text text-anchor="middle" x="397.415" y="-144" font-family="Helvetica,sans-Serif" font-size="10.00">/DamierGL/src/CGL/CGLRotation.h</text>
</a>
</g>
</g>
<!-- Node1&#45;&gt;Node10 -->
<g id="edge11" class="edge"><title>Node1&#45;&gt;Node10</title>
<path fill="none" stroke="midnightblue" d="M536.163,-201.452C505.318,-190.68 466.349,-177.072 437.568,-167.022"/>
<polygon fill="midnightblue" stroke="midnightblue" points="535.275,-204.849 545.869,-204.841 537.582,-198.24 535.275,-204.849"/>
</g>
<!-- Node12 -->
<g id="node12" class="node"><title>Node12</title>
<g id="a_node12"><a xlink:href="$d2/d1b/_c_g_l_scale_8h.xhtml" xlink:title="/home/dagal/git/DamierGL\l/DamierGL/src/CGL/CGLScale.h">
<polygon fill="white" stroke="black" points="765.415,-137 765.415,-167 925.415,-167 925.415,-137 765.415,-137"/>
<text text-anchor="start" x="773.415" y="-155" font-family="Helvetica,sans-Serif" font-size="10.00">/home/dagal/git/DamierGL</text>
<text text-anchor="middle" x="845.415" y="-144" font-family="Helvetica,sans-Serif" font-size="10.00">/DamierGL/src/CGL/CGLScale.h</text>
</a>
</g>
</g>
<!-- Node1&#45;&gt;Node12 -->
<g id="edge14" class="edge"><title>Node1&#45;&gt;Node12</title>
<path fill="none" stroke="midnightblue" d="M651.416,-202.436C694.208,-191.532 749.616,-177.412 790.255,-167.056"/>
<polygon fill="midnightblue" stroke="midnightblue" points="650.485,-199.061 641.659,-204.922 652.214,-205.844 650.485,-199.061"/>
</g>
<!-- Node3 -->
<g id="node3" class="node"><title>Node3</title>
<g id="a_node3"><a xlink:href="$da/d19/_c_g_l_color_8cpp.xhtml" xlink:title="/home/dagal/git/DamierGL\l/DamierGL/src/CGL/CGLColor.cpp">
<polygon fill="white" stroke="black" points="15.9147,-69 15.9147,-99 184.915,-99 184.915,-69 15.9147,-69"/>
<text text-anchor="start" x="23.9147" y="-87" font-family="Helvetica,sans-Serif" font-size="10.00">/home/dagal/git/DamierGL</text>
<text text-anchor="middle" x="100.415" y="-76" font-family="Helvetica,sans-Serif" font-size="10.00">/DamierGL/src/CGL/CGLColor.cpp</text>
</a>
</g>
</g>
<!-- Node2&#45;&gt;Node3 -->
<g id="edge2" class="edge"><title>Node2&#45;&gt;Node3</title>
<path fill="none" stroke="midnightblue" d="M100.415,-126.532C100.415,-117.361 100.415,-107.245 100.415,-99.2931"/>
<polygon fill="midnightblue" stroke="midnightblue" points="96.9148,-126.679 100.415,-136.679 103.915,-126.679 96.9148,-126.679"/>
</g>
<!-- Node4 -->
<g id="node4" class="node"><title>Node4</title>
<g id="a_node4"><a xlink:href="$db/dec/_damier_g_l_8cpp.xhtml" xlink:title="/home/dagal/git/DamierGL\l/DamierGL/src/DamierGL.cpp">
<polygon fill="white" stroke="black" points="378.415,-1 378.415,-31 524.415,-31 524.415,-1 378.415,-1"/>
<text text-anchor="start" x="386.415" y="-19" font-family="Helvetica,sans-Serif" font-size="10.00">/home/dagal/git/DamierGL</text>
<text text-anchor="middle" x="451.415" y="-8" font-family="Helvetica,sans-Serif" font-size="10.00">/DamierGL/src/DamierGL.cpp</text>
</a>
</g>
</g>
<!-- Node2&#45;&gt;Node4 -->
<g id="edge3" class="edge"><title>Node2&#45;&gt;Node4</title>
<path fill="none" stroke="midnightblue" d="M43.6031,-132.447C28.9391,-124.793 14.9073,-114.27 6.41473,-100 -0.858891,-87.7785 -3.05207,-78.6137 6.41473,-68 30.6779,-40.7972 258.116,-26.0837 378.094,-20.1574"/>
<polygon fill="midnightblue" stroke="midnightblue" points="42.2418,-135.676 52.7714,-136.85 45.2718,-129.366 42.2418,-135.676"/>
</g>
<!-- Node6&#45;&gt;Node4 -->
<g id="edge10" class="edge"><title>Node6&#45;&gt;Node4</title>
<path fill="none" stroke="midnightblue" d="M517.643,-133.039C500.044,-125.447 482.656,-114.807 470.415,-100 454.12,-80.2896 451.172,-49.3146 450.973,-31.3011"/>
<polygon fill="midnightblue" stroke="midnightblue" points="516.826,-136.482 527.41,-136.951 519.428,-129.984 516.826,-136.482"/>
</g>
<!-- Node7 -->
<g id="node7" class="node"><title>Node7</title>
<g id="a_node7"><a xlink:href="$db/d18/_c_g_l_position_8cpp.xhtml" xlink:title="/home/dagal/git/DamierGL\l/DamierGL/src/CGL/CGLPosition.cpp">
<polygon fill="white" stroke="black" points="479.915,-69 479.915,-99 660.915,-99 660.915,-69 479.915,-69"/>
<text text-anchor="start" x="487.915" y="-87" font-family="Helvetica,sans-Serif" font-size="10.00">/home/dagal/git/DamierGL</text>
<text text-anchor="middle" x="570.415" y="-76" font-family="Helvetica,sans-Serif" font-size="10.00">/DamierGL/src/CGL/CGLPosition.cpp</text>
</a>
</g>
</g>
<!-- Node6&#45;&gt;Node7 -->
<g id="edge6" class="edge"><title>Node6&#45;&gt;Node7</title>
<path fill="none" stroke="midnightblue" d="M580.556,-126.831C578.313,-117.581 575.828,-107.331 573.88,-99.2931"/>
<polygon fill="midnightblue" stroke="midnightblue" points="577.185,-127.785 582.943,-136.679 583.988,-126.136 577.185,-127.785"/>
</g>
<!-- Node8 -->
<g id="node8" class="node"><title>Node8</title>
<g id="a_node8"><a xlink:href="$d0/d52/_c_g_l_position_speed_8h.xhtml" xlink:title="/home/dagal/git/DamierGL\l/DamierGL/src/CGL/CGLPositionSpeed.h">
<polygon fill="white" stroke="black" points="679.415,-69 679.415,-99 877.415,-99 877.415,-69 679.415,-69"/>
<text text-anchor="start" x="687.415" y="-87" font-family="Helvetica,sans-Serif" font-size="10.00">/home/dagal/git/DamierGL</text>
<text text-anchor="middle" x="778.415" y="-76" font-family="Helvetica,sans-Serif" font-size="10.00">/DamierGL/src/CGL/CGLPositionSpeed.h</text>
</a>
</g>
</g>
<!-- Node6&#45;&gt;Node8 -->
<g id="edge7" class="edge"><title>Node6&#45;&gt;Node8</title>
<path fill="none" stroke="midnightblue" d="M637.464,-133.452C668.799,-122.68 708.386,-109.072 737.624,-99.0218"/>
<polygon fill="midnightblue" stroke="midnightblue" points="635.923,-130.281 627.604,-136.841 638.198,-136.9 635.923,-130.281"/>
</g>
<!-- Node8&#45;&gt;Node4 -->
<g id="edge9" class="edge"><title>Node8&#45;&gt;Node4</title>
<path fill="none" stroke="midnightblue" d="M698.725,-66.9159C644.387,-55.9485 573.121,-41.5646 521.056,-31.0561"/>
<polygon fill="midnightblue" stroke="midnightblue" points="698.171,-70.3746 708.666,-68.9223 699.556,-63.5129 698.171,-70.3746"/>
</g>
<!-- Node9 -->
<g id="node9" class="node"><title>Node9</title>
<g id="a_node9"><a xlink:href="$de/d6f/_c_g_l_position_speed_8cpp.xhtml" xlink:title="/home/dagal/git/DamierGL\l/DamierGL/src/CGL/CGLPositionSpeed.cpp">
<polygon fill="white" stroke="black" points="673.915,-1 673.915,-31 882.915,-31 882.915,-1 673.915,-1"/>
<text text-anchor="start" x="681.915" y="-19" font-family="Helvetica,sans-Serif" font-size="10.00">/home/dagal/git/DamierGL</text>
<text text-anchor="middle" x="778.415" y="-8" font-family="Helvetica,sans-Serif" font-size="10.00">/DamierGL/src/CGL/CGLPositionSpeed.cpp</text>
</a>
</g>
</g>
<!-- Node8&#45;&gt;Node9 -->
<g id="edge8" class="edge"><title>Node8&#45;&gt;Node9</title>
<path fill="none" stroke="midnightblue" d="M778.415,-58.5322C778.415,-49.3606 778.415,-39.2449 778.415,-31.2931"/>
<polygon fill="midnightblue" stroke="midnightblue" points="774.915,-58.6789 778.415,-68.679 781.915,-58.679 774.915,-58.6789"/>
</g>
<!-- Node10&#45;&gt;Node4 -->
<g id="edge13" class="edge"><title>Node10&#45;&gt;Node4</title>
<path fill="none" stroke="midnightblue" d="M406.981,-127.261C418.204,-99.4118 436.448,-54.1406 445.677,-31.2372"/>
<polygon fill="midnightblue" stroke="midnightblue" points="403.685,-126.076 403.194,-136.66 410.178,-128.693 403.685,-126.076"/>
</g>
<!-- Node11 -->
<g id="node11" class="node"><title>Node11</title>
<g id="a_node11"><a xlink:href="$db/d63/_c_g_l_rotation_8cpp.xhtml" xlink:title="/home/dagal/git/DamierGL\l/DamierGL/src/CGL/CGLRotation.cpp">
<polygon fill="white" stroke="black" points="203.415,-69 203.415,-99 385.415,-99 385.415,-69 203.415,-69"/>
<text text-anchor="start" x="211.415" y="-87" font-family="Helvetica,sans-Serif" font-size="10.00">/home/dagal/git/DamierGL</text>
<text text-anchor="middle" x="294.415" y="-76" font-family="Helvetica,sans-Serif" font-size="10.00">/DamierGL/src/CGL/CGLRotation.cpp</text>
</a>
</g>
</g>
<!-- Node10&#45;&gt;Node11 -->
<g id="edge12" class="edge"><title>Node10&#45;&gt;Node11</title>
<path fill="none" stroke="midnightblue" d="M366.732,-131.339C350.574,-120.986 331.13,-108.526 316.474,-99.1352"/>
<polygon fill="midnightblue" stroke="midnightblue" points="365.011,-134.393 375.319,-136.841 368.787,-128.499 365.011,-134.393"/>
</g>
<!-- Node12&#45;&gt;Node4 -->
<g id="edge16" class="edge"><title>Node12&#45;&gt;Node4</title>
<path fill="none" stroke="midnightblue" d="M868.756,-129.537C885.496,-111.581 902.492,-86.0721 886.415,-68 874.538,-54.6493 645.507,-33.4028 524.672,-23.0576"/>
<polygon fill="midnightblue" stroke="midnightblue" points="866.206,-127.14 861.695,-136.727 871.2,-132.045 866.206,-127.14"/>
</g>
<!-- Node13 -->
<g id="node13" class="node"><title>Node13</title>
<g id="a_node13"><a xlink:href="$dc/d61/_c_g_l_scale_8cpp.xhtml" xlink:title="/home/dagal/git/DamierGL\l/DamierGL/src/CGL/CGLScale.cpp">
<polygon fill="white" stroke="black" points="933.415,-69 933.415,-99 1103.41,-99 1103.41,-69 933.415,-69"/>
<text text-anchor="start" x="941.415" y="-87" font-family="Helvetica,sans-Serif" font-size="10.00">/home/dagal/git/DamierGL</text>
<text text-anchor="middle" x="1018.41" y="-76" font-family="Helvetica,sans-Serif" font-size="10.00">/DamierGL/src/CGL/CGLScale.cpp</text>
</a>
</g>
</g>
<!-- Node12&#45;&gt;Node13 -->
<g id="edge15" class="edge"><title>Node12&#45;&gt;Node13</title>
<path fill="none" stroke="midnightblue" d="M892.147,-133.171C920.263,-122.445 955.544,-108.985 981.661,-99.0218"/>
<polygon fill="midnightblue" stroke="midnightblue" points="890.623,-130.007 882.528,-136.841 893.118,-136.547 890.623,-130.007"/>
</g>
</g>
</svg>
