<?xml version="1.0" encoding="UTF-8" standalone="no"?>
<!DOCTYPE svg PUBLIC "-//W3C//DTD SVG 1.1//EN"
 "http://www.w3.org/Graphics/SVG/1.1/DTD/svg11.dtd">
<!-- Generated by graphviz version 2.36.0 (20140111.2315)
 -->
<!-- Title: /home/dagal/git/DamierGL/DamierGL/src/CGL/CGLEffect.h Pages: 1 -->
<svg width="1284pt" height="244pt"
 viewBox="0.00 0.00 1284.00 244.00" xmlns="http://www.w3.org/2000/svg" xmlns:xlink="http://www.w3.org/1999/xlink">
<g id="graph0" class="graph" transform="scale(1 1) rotate(0) translate(4 240)">
<title>/home/dagal/git/DamierGL/DamierGL/src/CGL/CGLEffect.h</title>
<polygon fill="white" stroke="none" points="-4,4 -4,-240 1280,-240 1280,4 -4,4"/>
<!-- Node1 -->
<g id="node1" class="node"><title>Node1</title>
<polygon fill="#bfbfbf" stroke="black" points="510.5,-205 510.5,-235 671.5,-235 671.5,-205 510.5,-205"/>
<text text-anchor="start" x="518.5" y="-223" font-family="Helvetica,sans-Serif" font-size="10.00">/home/dagal/git/DamierGL</text>
<text text-anchor="middle" x="591" y="-212" font-family="Helvetica,sans-Serif" font-size="10.00">/DamierGL/src/CGL/CGLEffect.h</text>
</g>
<!-- Node2 -->
<g id="node2" class="node"><title>Node2</title>
<g id="a_node2"><a xlink:href="$da/de7/_c_g_l_color_8h.xhtml" xlink:title="/home/dagal/git/DamierGL\l/DamierGL/src/CGL/CGLColor.h">
<polygon fill="white" stroke="black" points="512,-137 512,-167 670,-167 670,-137 512,-137"/>
<text text-anchor="start" x="520" y="-155" font-family="Helvetica,sans-Serif" font-size="10.00">/home/dagal/git/DamierGL</text>
<text text-anchor="middle" x="591" y="-144" font-family="Helvetica,sans-Serif" font-size="10.00">/DamierGL/src/CGL/CGLColor.h</text>
</a>
</g>
</g>
<!-- Node1&#45;&gt;Node2 -->
<g id="edge1" class="edge"><title>Node1&#45;&gt;Node2</title>
<path fill="none" stroke="midnightblue" d="M591,-194.532C591,-185.361 591,-175.245 591,-167.293"/>
<polygon fill="midnightblue" stroke="midnightblue" points="587.5,-194.679 591,-204.679 594.5,-194.679 587.5,-194.679"/>
</g>
<!-- Node5 -->
<g id="node5" class="node"><title>Node5</title>
<g id="a_node5"><a xlink:href="$d7/da1/_c_g_l_effect_8cpp.xhtml" xlink:title="/home/dagal/git/DamierGL\l/DamierGL/src/CGL/CGLEffect.cpp">
<polygon fill="white" stroke="black" points="322,-137 322,-167 494,-167 494,-137 322,-137"/>
<text text-anchor="start" x="330" y="-155" font-family="Helvetica,sans-Serif" font-size="10.00">/home/dagal/git/DamierGL</text>
<text text-anchor="middle" x="408" y="-144" font-family="Helvetica,sans-Serif" font-size="10.00">/DamierGL/src/CGL/CGLEffect.cpp</text>
</a>
</g>
</g>
<!-- Node1&#45;&gt;Node5 -->
<g id="edge4" class="edge"><title>Node1&#45;&gt;Node5</title>
<path fill="none" stroke="midnightblue" d="M541.956,-201.312C512.151,-190.563 474.625,-177.029 446.879,-167.022"/>
<polygon fill="midnightblue" stroke="midnightblue" points="541.148,-204.741 551.742,-204.841 543.522,-198.156 541.148,-204.741"/>
</g>
<!-- Node6 -->
<g id="node6" class="node"><title>Node6</title>
<g id="a_node6"><a xlink:href="$db/d5d/_c_g_l_position_8h.xhtml" xlink:title="/home/dagal/git/DamierGL\l/DamierGL/src/CGL/CGLPosition.h">
<polygon fill="white" stroke="black" points="134,-137 134,-167 304,-167 304,-137 134,-137"/>
<text text-anchor="start" x="142" y="-155" font-family="Helvetica,sans-Serif" font-size="10.00">/home/dagal/git/DamierGL</text>
<text text-anchor="middle" x="219" y="-144" font-family="Helvetica,sans-Serif" font-size="10.00">/DamierGL/src/CGL/CGLPosition.h</text>
</a>
</g>
</g>
<!-- Node1&#45;&gt;Node6 -->
<g id="edge5" class="edge"><title>Node1&#45;&gt;Node6</title>
<path fill="none" stroke="midnightblue" d="M501.496,-203.12C439.538,-192.128 357.824,-177.63 298.225,-167.056"/>
<polygon fill="midnightblue" stroke="midnightblue" points="501.195,-206.621 511.653,-204.922 502.418,-199.729 501.195,-206.621"/>
</g>
<!-- Node10 -->
<g id="node10" class="node"><title>Node10</title>
<g id="a_node10"><a xlink:href="$d5/d65/_c_g_l_rotation_8h.xhtml" xlink:title="/home/dagal/git/DamierGL\l/DamierGL/src/CGL/CGLRotation.h">
<polygon fill="white" stroke="black" points="876,-137 876,-167 1048,-167 1048,-137 876,-137"/>
<text text-anchor="start" x="884" y="-155" font-family="Helvetica,sans-Serif" font-size="10.00">/home/dagal/git/DamierGL</text>
<text text-anchor="middle" x="962" y="-144" font-family="Helvetica,sans-Serif" font-size="10.00">/DamierGL/src/CGL/CGLRotation.h</text>
</a>
</g>
</g>
<!-- Node1&#45;&gt;Node10 -->
<g id="edge10" class="edge"><title>Node1&#45;&gt;Node10</title>
<path fill="none" stroke="midnightblue" d="M680.263,-203.12C742.055,-192.128 823.55,-177.63 882.988,-167.056"/>
<polygon fill="midnightblue" stroke="midnightblue" points="679.366,-199.725 670.134,-204.922 680.592,-206.617 679.366,-199.725"/>
</g>
<!-- Node14 -->
<g id="node14" class="node"><title>Node14</title>
<g id="a_node14"><a xlink:href="$d2/d1b/_c_g_l_scale_8h.xhtml" xlink:title="/home/dagal/git/DamierGL\l/DamierGL/src/CGL/CGLScale.h">
<polygon fill="white" stroke="black" points="688,-137 688,-167 848,-167 848,-137 688,-137"/>
<text text-anchor="start" x="696" y="-155" font-family="Helvetica,sans-Serif" font-size="10.00">/home/dagal/git/DamierGL</text>
<text text-anchor="middle" x="768" y="-144" font-family="Helvetica,sans-Serif" font-size="10.00">/DamierGL/src/CGL/CGLScale.h</text>
</a>
</g>
</g>
<!-- Node1&#45;&gt;Node14 -->
<g id="edge15" class="edge"><title>Node1&#45;&gt;Node14</title>
<path fill="none" stroke="midnightblue" d="M638.436,-201.312C667.264,-190.563 703.559,-177.029 730.396,-167.022"/>
<polygon fill="midnightblue" stroke="midnightblue" points="637.118,-198.068 628.971,-204.841 639.564,-204.627 637.118,-198.068"/>
</g>
<!-- Node3 -->
<g id="node3" class="node"><title>Node3</title>
<g id="a_node3"><a xlink:href="$da/d19/_c_g_l_color_8cpp.xhtml" xlink:title="/home/dagal/git/DamierGL\l/DamierGL/src/CGL/CGLColor.cpp">
<polygon fill="white" stroke="black" points="420.5,-69 420.5,-99 589.5,-99 589.5,-69 420.5,-69"/>
<text text-anchor="start" x="428.5" y="-87" font-family="Helvetica,sans-Serif" font-size="10.00">/home/dagal/git/DamierGL</text>
<text text-anchor="middle" x="505" y="-76" font-family="Helvetica,sans-Serif" font-size="10.00">/DamierGL/src/CGL/CGLColor.cpp</text>
</a>
</g>
</g>
<!-- Node2&#45;&gt;Node3 -->
<g id="edge2" class="edge"><title>Node2&#45;&gt;Node3</title>
<path fill="none" stroke="midnightblue" d="M564.04,-130.309C550.792,-120.143 535.173,-108.156 523.329,-99.0663"/>
<polygon fill="midnightblue" stroke="midnightblue" points="562.275,-133.367 572.339,-136.679 566.537,-127.814 562.275,-133.367"/>
</g>
<!-- Node4 -->
<g id="node4" class="node"><title>Node4</title>
<g id="a_node4"><a xlink:href="$db/dec/_damier_g_l_8cpp.xhtml" xlink:title="/home/dagal/git/DamierGL\l/DamierGL/src/DamierGL.cpp">
<polygon fill="white" stroke="black" points="563,-1 563,-31 709,-31 709,-1 563,-1"/>
<text text-anchor="start" x="571" y="-19" font-family="Helvetica,sans-Serif" font-size="10.00">/home/dagal/git/DamierGL</text>
<text text-anchor="middle" x="636" y="-8" font-family="Helvetica,sans-Serif" font-size="10.00">/DamierGL/src/DamierGL.cpp</text>
</a>
</g>
</g>
<!-- Node2&#45;&gt;Node4 -->
<g id="edge3" class="edge"><title>Node2&#45;&gt;Node4</title>
<path fill="none" stroke="midnightblue" d="M599.095,-126.894C608.458,-99.0151 623.561,-54.0401 631.219,-31.2372"/>
<polygon fill="midnightblue" stroke="midnightblue" points="595.681,-126.066 595.816,-136.66 602.317,-128.294 595.681,-126.066"/>
</g>
<!-- Node7 -->
<g id="node7" class="node"><title>Node7</title>
<g id="a_node7"><a xlink:href="$db/d18/_c_g_l_position_8cpp.xhtml" xlink:title="/home/dagal/git/DamierGL\l/DamierGL/src/CGL/CGLPosition.cpp">
<polygon fill="white" stroke="black" points="221.5,-69 221.5,-99 402.5,-99 402.5,-69 221.5,-69"/>
<text text-anchor="start" x="229.5" y="-87" font-family="Helvetica,sans-Serif" font-size="10.00">/home/dagal/git/DamierGL</text>
<text text-anchor="middle" x="312" y="-76" font-family="Helvetica,sans-Serif" font-size="10.00">/DamierGL/src/CGL/CGLPosition.cpp</text>
</a>
</g>
</g>
<!-- Node6&#45;&gt;Node7 -->
<g id="edge6" class="edge"><title>Node6&#45;&gt;Node7</title>
<path fill="none" stroke="midnightblue" d="M247.339,-130.888C261.836,-120.6 279.127,-108.329 292.179,-99.0663"/>
<polygon fill="midnightblue" stroke="midnightblue" points="245.309,-128.037 239.18,-136.679 249.36,-133.746 245.309,-128.037"/>
</g>
<!-- Node8 -->
<g id="node8" class="node"><title>Node8</title>
<g id="a_node8"><a xlink:href="$d0/d52/_c_g_l_position_speed_8h.xhtml" xlink:title="/home/dagal/git/DamierGL\l/DamierGL/src/CGL/CGLPositionSpeed.h">
<polygon fill="white" stroke="black" points="5,-69 5,-99 203,-99 203,-69 5,-69"/>
<text text-anchor="start" x="13" y="-87" font-family="Helvetica,sans-Serif" font-size="10.00">/home/dagal/git/DamierGL</text>
<text text-anchor="middle" x="104" y="-76" font-family="Helvetica,sans-Serif" font-size="10.00">/DamierGL/src/CGL/CGLPositionSpeed.h</text>
</a>
</g>
</g>
<!-- Node6&#45;&gt;Node8 -->
<g id="edge7" class="edge"><title>Node6&#45;&gt;Node8</title>
<path fill="none" stroke="midnightblue" d="M185.242,-131.626C167.105,-121.217 145.144,-108.613 128.63,-99.1352"/>
<polygon fill="midnightblue" stroke="midnightblue" points="183.914,-134.899 194.33,-136.841 187.399,-128.828 183.914,-134.899"/>
</g>
<!-- Node8&#45;&gt;Node4 -->
<g id="edge9" class="edge"><title>Node8&#45;&gt;Node4</title>
<path fill="none" stroke="midnightblue" d="M213.218,-67.8553C342.211,-51.2129 480.387,-34.935 562.795,-25.3933"/>
<polygon fill="midnightblue" stroke="midnightblue" points="212.624,-64.4028 203.156,-69.1566 213.522,-71.345 212.624,-64.4028"/>
</g>
<!-- Node9 -->
<g id="node9" class="node"><title>Node9</title>
<g id="a_node9"><a xlink:href="$de/d6f/_c_g_l_position_speed_8cpp.xhtml" xlink:title="/home/dagal/git/DamierGL\l/DamierGL/src/CGL/CGLPositionSpeed.cpp">
<polygon fill="white" stroke="black" points="-0.5,-1 -0.5,-31 208.5,-31 208.5,-1 -0.5,-1"/>
<text text-anchor="start" x="7.5" y="-19" font-family="Helvetica,sans-Serif" font-size="10.00">/home/dagal/git/DamierGL</text>
<text text-anchor="middle" x="104" y="-8" font-family="Helvetica,sans-Serif" font-size="10.00">/DamierGL/src/CGL/CGLPositionSpeed.cpp</text>
</a>
</g>
</g>
<!-- Node8&#45;&gt;Node9 -->
<g id="edge8" class="edge"><title>Node8&#45;&gt;Node9</title>
<path fill="none" stroke="midnightblue" d="M104,-58.5322C104,-49.3606 104,-39.2449 104,-31.2931"/>
<polygon fill="midnightblue" stroke="midnightblue" points="100.5,-58.6789 104,-68.679 107.5,-58.679 100.5,-58.6789"/>
</g>
<!-- Node11 -->
<g id="node11" class="node"><title>Node11</title>
<g id="a_node11"><a xlink:href="$db/d63/_c_g_l_rotation_8cpp.xhtml" xlink:title="/home/dagal/git/DamierGL\l/DamierGL/src/CGL/CGLRotation.cpp">
<polygon fill="white" stroke="black" points="871,-69 871,-99 1053,-99 1053,-69 871,-69"/>
<text text-anchor="start" x="879" y="-87" font-family="Helvetica,sans-Serif" font-size="10.00">/home/dagal/git/DamierGL</text>
<text text-anchor="middle" x="962" y="-76" font-family="Helvetica,sans-Serif" font-size="10.00">/DamierGL/src/CGL/CGLRotation.cpp</text>
</a>
</g>
</g>
<!-- Node10&#45;&gt;Node11 -->
<g id="edge11" class="edge"><title>Node10&#45;&gt;Node11</title>
<path fill="none" stroke="midnightblue" d="M962,-126.532C962,-117.361 962,-107.245 962,-99.2931"/>
<polygon fill="midnightblue" stroke="midnightblue" points="958.5,-126.679 962,-136.679 965.5,-126.679 958.5,-126.679"/>
</g>
<!-- Node12 -->
<g id="node12" class="node"><title>Node12</title>
<g id="a_node12"><a xlink:href="$d4/ddd/_c_g_l_rotation_speed_8h.xhtml" xlink:title="/home/dagal/git/DamierGL\l/DamierGL/src/CGL/CGLRotationSpeed.h">
<polygon fill="white" stroke="black" points="1071,-69 1071,-99 1271,-99 1271,-69 1071,-69"/>
<text text-anchor="start" x="1079" y="-87" font-family="Helvetica,sans-Serif" font-size="10.00">/home/dagal/git/DamierGL</text>
<text text-anchor="middle" x="1171" y="-76" font-family="Helvetica,sans-Serif" font-size="10.00">/DamierGL/src/CGL/CGLRotationSpeed.h</text>
</a>
</g>
</g>
<!-- Node10&#45;&gt;Node12 -->
<g id="edge12" class="edge"><title>Node10&#45;&gt;Node12</title>
<path fill="none" stroke="midnightblue" d="M1016.43,-133.813C1050.67,-122.998 1094.32,-109.216 1126.49,-99.0561"/>
<polygon fill="midnightblue" stroke="midnightblue" points="1015.06,-130.573 1006.58,-136.922 1017.17,-137.248 1015.06,-130.573"/>
</g>
<!-- Node12&#45;&gt;Node4 -->
<g id="edge14" class="edge"><title>Node12&#45;&gt;Node4</title>
<path fill="none" stroke="midnightblue" d="M1060.8,-67.8581C930.971,-51.2248 791.914,-34.9104 709.168,-25.3629"/>
<polygon fill="midnightblue" stroke="midnightblue" points="1060.56,-71.3563 1070.93,-69.1586 1061.45,-64.4133 1060.56,-71.3563"/>
</g>
<!-- Node13 -->
<g id="node13" class="node"><title>Node13</title>
<g id="a_node13"><a xlink:href="$df/d6d/_c_g_l_rotation_speed_8cpp.xhtml" xlink:title="/home/dagal/git/DamierGL\l/DamierGL/src/CGL/CGLRotationSpeed.cpp">
<polygon fill="white" stroke="black" points="1066,-1 1066,-31 1276,-31 1276,-1 1066,-1"/>
<text text-anchor="start" x="1074" y="-19" font-family="Helvetica,sans-Serif" font-size="10.00">/home/dagal/git/DamierGL</text>
<text text-anchor="middle" x="1171" y="-8" font-family="Helvetica,sans-Serif" font-size="10.00">/DamierGL/src/CGL/CGLRotationSpeed.cpp</text>
</a>
</g>
</g>
<!-- Node12&#45;&gt;Node13 -->
<g id="edge13" class="edge"><title>Node12&#45;&gt;Node13</title>
<path fill="none" stroke="midnightblue" d="M1171,-58.5322C1171,-49.3606 1171,-39.2449 1171,-31.2931"/>
<polygon fill="midnightblue" stroke="midnightblue" points="1167.5,-58.6789 1171,-68.679 1174.5,-58.679 1167.5,-58.6789"/>
</g>
<!-- Node14&#45;&gt;Node4 -->
<g id="edge17" class="edge"><title>Node14&#45;&gt;Node4</title>
<path fill="none" stroke="midnightblue" d="M720.097,-132.454C703.9,-124.382 686.716,-113.608 674,-100 655.281,-79.9675 644.508,-49.1057 639.49,-31.1995"/>
<polygon fill="midnightblue" stroke="midnightblue" points="718.943,-135.78 729.479,-136.896 721.938,-129.453 718.943,-135.78"/>
</g>
<!-- Node15 -->
<g id="node15" class="node"><title>Node15</title>
<g id="a_node15"><a xlink:href="$dc/d61/_c_g_l_scale_8cpp.xhtml" xlink:title="/home/dagal/git/DamierGL\l/DamierGL/src/CGL/CGLScale.cpp">
<polygon fill="white" stroke="black" points="683,-69 683,-99 853,-99 853,-69 683,-69"/>
<text text-anchor="start" x="691" y="-87" font-family="Helvetica,sans-Serif" font-size="10.00">/home/dagal/git/DamierGL</text>
<text text-anchor="middle" x="768" y="-76" font-family="Helvetica,sans-Serif" font-size="10.00">/DamierGL/src/CGL/CGLScale.cpp</text>
</a>
</g>
</g>
<!-- Node14&#45;&gt;Node15 -->
<g id="edge16" class="edge"><title>Node14&#45;&gt;Node15</title>
<path fill="none" stroke="midnightblue" d="M768,-126.532C768,-117.361 768,-107.245 768,-99.2931"/>
<polygon fill="midnightblue" stroke="midnightblue" points="764.5,-126.679 768,-136.679 771.5,-126.679 764.5,-126.679"/>
</g>
</g>
</svg>
