<?xml version="1.0" encoding="UTF-8" standalone="no"?>
<!DOCTYPE svg PUBLIC "-//W3C//DTD SVG 1.1//EN"
 "http://www.w3.org/Graphics/SVG/1.1/DTD/svg11.dtd">
<!-- Generated by graphviz version 2.36.0 (20140111.2315)
 -->
<!-- Title: /home/dagal/git/DamierGL/DamierGL/src/CGL/CGLVector3D.cpp Pages: 1 -->
<svg width="194pt" height="152pt"
 viewBox="0.00 0.00 194.00 152.00" xmlns="http://www.w3.org/2000/svg" xmlns:xlink="http://www.w3.org/1999/xlink">
<g id="graph0" class="graph" transform="scale(1 1) rotate(0) translate(4 148)">
<title>/home/dagal/git/DamierGL/DamierGL/src/CGL/CGLVector3D.cpp</title>
<polygon fill="white" stroke="none" points="-4,4 -4,-148 190,-148 190,4 -4,4"/>
<!-- Node1 -->
<g id="node1" class="node"><title>Node1</title>
<polygon fill="#bfbfbf" stroke="black" points="-0.5,-113 -0.5,-143 186.5,-143 186.5,-113 -0.5,-113"/>
<text text-anchor="start" x="7.5" y="-131" font-family="Helvetica,sans-Serif" font-size="10.00">/home/dagal/git/DamierGL</text>
<text text-anchor="middle" x="93" y="-120" font-family="Helvetica,sans-Serif" font-size="10.00">/DamierGL/src/CGL/CGLVector3D.cpp</text>
</g>
<!-- Node2 -->
<g id="node2" class="node"><title>Node2</title>
<g id="a_node2"><a xlink:href="../../dd/d83/_c_g_l_vector3_d_8h.xhtml" target="_top" xlink:title="CGLVector3D.h">
<polygon fill="white" stroke="black" points="50,-56.5 50,-75.5 136,-75.5 136,-56.5 50,-56.5"/>
<text text-anchor="middle" x="93" y="-63.5" font-family="Helvetica,sans-Serif" font-size="10.00">CGLVector3D.h</text>
</a>
</g>
</g>
<!-- Node1&#45;&gt;Node2 -->
<g id="edge1" class="edge"><title>Node1&#45;&gt;Node2</title>
<path fill="none" stroke="midnightblue" d="M93,-112.781C93,-104.781 93,-94.6887 93,-86.0168"/>
<polygon fill="midnightblue" stroke="midnightblue" points="96.5001,-85.7305 93,-75.7305 89.5001,-85.7306 96.5001,-85.7305"/>
</g>
<!-- Node3 -->
<g id="node3" class="node"><title>Node3</title>
<g id="a_node3"><a xlink:href="../../dc/dee/_c_g_l_vector2_d_8h.xhtml" target="_top" xlink:title="CGLVector2D.h">
<polygon fill="white" stroke="black" points="50,-0.5 50,-19.5 136,-19.5 136,-0.5 50,-0.5"/>
<text text-anchor="middle" x="93" y="-7.5" font-family="Helvetica,sans-Serif" font-size="10.00">CGLVector2D.h</text>
</a>
</g>
</g>
<!-- Node2&#45;&gt;Node3 -->
<g id="edge2" class="edge"><title>Node2&#45;&gt;Node3</title>
<path fill="none" stroke="midnightblue" d="M93,-56.083C93,-49.0059 93,-38.8611 93,-29.9865"/>
<polygon fill="midnightblue" stroke="midnightblue" points="96.5001,-29.751 93,-19.7511 89.5001,-29.7511 96.5001,-29.751"/>
</g>
</g>
</svg>
