<?xml version="1.0" encoding="UTF-8" standalone="no"?>
<!DOCTYPE svg PUBLIC "-//W3C//DTD SVG 1.1//EN"
 "http://www.w3.org/Graphics/SVG/1.1/DTD/svg11.dtd">
<!-- Generated by graphviz version 2.36.0 (20140111.2315)
 -->
<!-- Title: CGLPositionSpeed Pages: 1 -->
<svg width="231pt" height="646pt"
 viewBox="0.00 0.00 231.00 646.00" xmlns="http://www.w3.org/2000/svg" xmlns:xlink="http://www.w3.org/1999/xlink">
<g id="graph0" class="graph" transform="scale(1 1) rotate(0) translate(4 642)">
<title>CGLPositionSpeed</title>
<polygon fill="white" stroke="none" points="-4,4 -4,-642 227,-642 227,4 -4,4"/>
<!-- Node1 -->
<g id="node1" class="node"><title>Node1</title>
<polygon fill="#bfbfbf" stroke="black" points="52.5,-0.5 52.5,-79.5 173.5,-79.5 173.5,-0.5 52.5,-0.5"/>
<text text-anchor="middle" x="113" y="-67.5" font-family="Helvetica,sans-Serif" font-size="10.00">CGLPositionSpeed</text>
<polyline fill="none" stroke="black" points="52.5,-60.5 173.5,-60.5 "/>
<text text-anchor="start" x="60.5" y="-48.5" font-family="Helvetica,sans-Serif" font-size="10.00"># speed</text>
<polyline fill="none" stroke="black" points="52.5,-41.5 173.5,-41.5 "/>
<text text-anchor="start" x="60.5" y="-29.5" font-family="Helvetica,sans-Serif" font-size="10.00">+ CGLPositionSpeed()</text>
<text text-anchor="start" x="60.5" y="-18.5" font-family="Helvetica,sans-Serif" font-size="10.00">+ ~CGLPositionSpeed()</text>
<text text-anchor="start" x="60.5" y="-7.5" font-family="Helvetica,sans-Serif" font-size="10.00">+ drawObject()</text>
</g>
<!-- Node2 -->
<g id="node2" class="node"><title>Node2</title>
<g id="a_node2"><a xlink:href="$de/d31/class_c_g_l_position.xhtml" xlink:title="{CGLPosition\n||+ CGLPosition()\l+ ~CGLPosition()\l+ drawObject()\l}">
<polygon fill="white" stroke="black" points="66.5,-116.5 66.5,-195.5 159.5,-195.5 159.5,-116.5 66.5,-116.5"/>
<text text-anchor="middle" x="113" y="-183.5" font-family="Helvetica,sans-Serif" font-size="10.00">CGLPosition</text>
<polyline fill="none" stroke="black" points="66.5,-176.5 159.5,-176.5 "/>
<text text-anchor="middle" x="113" y="-164.5" font-family="Helvetica,sans-Serif" font-size="10.00"> </text>
<polyline fill="none" stroke="black" points="66.5,-157.5 159.5,-157.5 "/>
<text text-anchor="start" x="74.5" y="-145.5" font-family="Helvetica,sans-Serif" font-size="10.00">+ CGLPosition()</text>
<text text-anchor="start" x="74.5" y="-134.5" font-family="Helvetica,sans-Serif" font-size="10.00">+ ~CGLPosition()</text>
<text text-anchor="start" x="74.5" y="-123.5" font-family="Helvetica,sans-Serif" font-size="10.00">+ drawObject()</text>
</a>
</g>
</g>
<!-- Node2&#45;&gt;Node1 -->
<g id="edge1" class="edge"><title>Node2&#45;&gt;Node1</title>
<path fill="none" stroke="midnightblue" d="M113,-106.146C113,-97.256 113,-88.0961 113,-79.5555"/>
<polygon fill="none" stroke="midnightblue" points="109.5,-106.405 113,-116.405 116.5,-106.405 109.5,-106.405"/>
</g>
<!-- Node3 -->
<g id="node3" class="node"><title>Node3</title>
<g id="a_node3"><a xlink:href="$dc/d8a/class_c_g_l_effect.xhtml" xlink:title="{CGLEffect\n||+ CGLEffect()\l+ ~CGLEffect()\l}">
<polygon fill="white" stroke="black" points="14,-255 14,-323 98,-323 98,-255 14,-255"/>
<text text-anchor="middle" x="56" y="-311" font-family="Helvetica,sans-Serif" font-size="10.00">CGLEffect</text>
<polyline fill="none" stroke="black" points="14,-304 98,-304 "/>
<text text-anchor="middle" x="56" y="-292" font-family="Helvetica,sans-Serif" font-size="10.00"> </text>
<polyline fill="none" stroke="black" points="14,-285 98,-285 "/>
<text text-anchor="start" x="22" y="-273" font-family="Helvetica,sans-Serif" font-size="10.00">+ CGLEffect()</text>
<text text-anchor="start" x="22" y="-262" font-family="Helvetica,sans-Serif" font-size="10.00">+ ~CGLEffect()</text>
</a>
</g>
</g>
<!-- Node3&#45;&gt;Node2 -->
<g id="edge2" class="edge"><title>Node3&#45;&gt;Node2</title>
<path fill="none" stroke="midnightblue" d="M74.3858,-245.745C81.3934,-229.64 89.3383,-211.38 96.192,-195.629"/>
<polygon fill="none" stroke="midnightblue" points="71.164,-244.377 70.3835,-254.943 77.5827,-247.17 71.164,-244.377"/>
</g>
<!-- Node4 -->
<g id="node4" class="node"><title>Node4</title>
<g id="a_node4"><a xlink:href="$d2/d76/class_c_g_l_object.xhtml" xlink:title="{CGLObject\n|+ garbage\l# objectType\l# name\l# matrixSaved\l# children\l# iterCurrentObject\l# currentObject\l# parentObject\l|+ addObject()\l+ setName()\l+ getName()\l+ getCurrentObject()\l+ isChild()\l+ draw()\l+ drawObject()\l+ drawChildren()\l+ drawCenter()\l+ CGLObject()\l+ ~CGLObject()\l+ init()\l}">
<polygon fill="white" stroke="black" points="0,-382.5 0,-637.5 106,-637.5 106,-382.5 0,-382.5"/>
<text text-anchor="middle" x="53" y="-625.5" font-family="Helvetica,sans-Serif" font-size="10.00">CGLObject</text>
<polyline fill="none" stroke="black" points="0,-618.5 106,-618.5 "/>
<text text-anchor="start" x="8" y="-606.5" font-family="Helvetica,sans-Serif" font-size="10.00">+ garbage</text>
<text text-anchor="start" x="8" y="-595.5" font-family="Helvetica,sans-Serif" font-size="10.00"># objectType</text>
<text text-anchor="start" x="8" y="-584.5" font-family="Helvetica,sans-Serif" font-size="10.00"># name</text>
<text text-anchor="start" x="8" y="-573.5" font-family="Helvetica,sans-Serif" font-size="10.00"># matrixSaved</text>
<text text-anchor="start" x="8" y="-562.5" font-family="Helvetica,sans-Serif" font-size="10.00"># children</text>
<text text-anchor="start" x="8" y="-551.5" font-family="Helvetica,sans-Serif" font-size="10.00"># iterCurrentObject</text>
<text text-anchor="start" x="8" y="-540.5" font-family="Helvetica,sans-Serif" font-size="10.00"># currentObject</text>
<text text-anchor="start" x="8" y="-529.5" font-family="Helvetica,sans-Serif" font-size="10.00"># parentObject</text>
<polyline fill="none" stroke="black" points="0,-522.5 106,-522.5 "/>
<text text-anchor="start" x="8" y="-510.5" font-family="Helvetica,sans-Serif" font-size="10.00">+ addObject()</text>
<text text-anchor="start" x="8" y="-499.5" font-family="Helvetica,sans-Serif" font-size="10.00">+ setName()</text>
<text text-anchor="start" x="8" y="-488.5" font-family="Helvetica,sans-Serif" font-size="10.00">+ getName()</text>
<text text-anchor="start" x="8" y="-477.5" font-family="Helvetica,sans-Serif" font-size="10.00">+ getCurrentObject()</text>
<text text-anchor="start" x="8" y="-466.5" font-family="Helvetica,sans-Serif" font-size="10.00">+ isChild()</text>
<text text-anchor="start" x="8" y="-455.5" font-family="Helvetica,sans-Serif" font-size="10.00">+ draw()</text>
<text text-anchor="start" x="8" y="-444.5" font-family="Helvetica,sans-Serif" font-size="10.00">+ drawObject()</text>
<text text-anchor="start" x="8" y="-433.5" font-family="Helvetica,sans-Serif" font-size="10.00">+ drawChildren()</text>
<text text-anchor="start" x="8" y="-422.5" font-family="Helvetica,sans-Serif" font-size="10.00">+ drawCenter()</text>
<text text-anchor="start" x="8" y="-411.5" font-family="Helvetica,sans-Serif" font-size="10.00">+ CGLObject()</text>
<text text-anchor="start" x="8" y="-400.5" font-family="Helvetica,sans-Serif" font-size="10.00">+ ~CGLObject()</text>
<text text-anchor="start" x="8" y="-389.5" font-family="Helvetica,sans-Serif" font-size="10.00">+ init()</text>
</a>
</g>
</g>
<!-- Node4&#45;&gt;Node3 -->
<g id="edge3" class="edge"><title>Node4&#45;&gt;Node3</title>
<path fill="none" stroke="midnightblue" d="M54.875,-372.125C55.1221,-354.087 55.3547,-337.108 55.5435,-323.323"/>
<polygon fill="none" stroke="midnightblue" points="51.3738,-372.194 54.7364,-382.241 58.3732,-372.29 51.3738,-372.194"/>
</g>
<!-- Node5 -->
<g id="node5" class="node"><title>Node5</title>
<g id="a_node5"><a xlink:href="$d6/df9/class_c_g_l_vector3_d.xhtml" xlink:title="{CGLVector3D\n|# z\l|+ CGLVector3D()\l+ ~CGLVector3D()\l+ isEqualTo()\l+ getZ()\l+ set()\l+ setZ()\l}">
<polygon fill="white" stroke="black" points="121.5,-233 121.5,-345 220.5,-345 220.5,-233 121.5,-233"/>
<text text-anchor="middle" x="171" y="-333" font-family="Helvetica,sans-Serif" font-size="10.00">CGLVector3D</text>
<polyline fill="none" stroke="black" points="121.5,-326 220.5,-326 "/>
<text text-anchor="start" x="129.5" y="-314" font-family="Helvetica,sans-Serif" font-size="10.00"># z</text>
<polyline fill="none" stroke="black" points="121.5,-307 220.5,-307 "/>
<text text-anchor="start" x="129.5" y="-295" font-family="Helvetica,sans-Serif" font-size="10.00">+ CGLVector3D()</text>
<text text-anchor="start" x="129.5" y="-284" font-family="Helvetica,sans-Serif" font-size="10.00">+ ~CGLVector3D()</text>
<text text-anchor="start" x="129.5" y="-273" font-family="Helvetica,sans-Serif" font-size="10.00">+ isEqualTo()</text>
<text text-anchor="start" x="129.5" y="-262" font-family="Helvetica,sans-Serif" font-size="10.00">+ getZ()</text>
<text text-anchor="start" x="129.5" y="-251" font-family="Helvetica,sans-Serif" font-size="10.00">+ set()</text>
<text text-anchor="start" x="129.5" y="-240" font-family="Helvetica,sans-Serif" font-size="10.00">+ setZ()</text>
</a>
</g>
</g>
<!-- Node5&#45;&gt;Node2 -->
<g id="edge4" class="edge"><title>Node5&#45;&gt;Node2</title>
<path fill="none" stroke="midnightblue" d="M142.408,-223.422C138.229,-213.983 134.039,-204.519 130.184,-195.813"/>
<polygon fill="none" stroke="midnightblue" points="139.322,-225.097 146.571,-232.824 145.723,-222.263 139.322,-225.097"/>
</g>
<!-- Node6 -->
<g id="node6" class="node"><title>Node6</title>
<g id="a_node6"><a xlink:href="$d8/d97/class_c_g_l_vector2_d.xhtml" xlink:title="{CGLVector2D\n|# maxX\l# maxY\l# minX\l# minY\l# x\l# y\l|+ CGLVector2D()\l+ ~CGLVector2D()\l+ getMaxX()\l+ getMaxY()\l+ getMinX()\l+ getMinY()\l+ getX()\l+ getY()\l+ isXMax()\l+ isYMax()\let 10 de plus...\l}">
<polygon fill="white" stroke="black" points="124.5,-399 124.5,-621 223.5,-621 223.5,-399 124.5,-399"/>
<text text-anchor="middle" x="174" y="-609" font-family="Helvetica,sans-Serif" font-size="10.00">CGLVector2D</text>
<polyline fill="none" stroke="black" points="124.5,-602 223.5,-602 "/>
<text text-anchor="start" x="132.5" y="-590" font-family="Helvetica,sans-Serif" font-size="10.00"># maxX</text>
<text text-anchor="start" x="132.5" y="-579" font-family="Helvetica,sans-Serif" font-size="10.00"># maxY</text>
<text text-anchor="start" x="132.5" y="-568" font-family="Helvetica,sans-Serif" font-size="10.00"># minX</text>
<text text-anchor="start" x="132.5" y="-557" font-family="Helvetica,sans-Serif" font-size="10.00"># minY</text>
<text text-anchor="start" x="132.5" y="-546" font-family="Helvetica,sans-Serif" font-size="10.00"># x</text>
<text text-anchor="start" x="132.5" y="-535" font-family="Helvetica,sans-Serif" font-size="10.00"># y</text>
<polyline fill="none" stroke="black" points="124.5,-528 223.5,-528 "/>
<text text-anchor="start" x="132.5" y="-516" font-family="Helvetica,sans-Serif" font-size="10.00">+ CGLVector2D()</text>
<text text-anchor="start" x="132.5" y="-505" font-family="Helvetica,sans-Serif" font-size="10.00">+ ~CGLVector2D()</text>
<text text-anchor="start" x="132.5" y="-494" font-family="Helvetica,sans-Serif" font-size="10.00">+ getMaxX()</text>
<text text-anchor="start" x="132.5" y="-483" font-family="Helvetica,sans-Serif" font-size="10.00">+ getMaxY()</text>
<text text-anchor="start" x="132.5" y="-472" font-family="Helvetica,sans-Serif" font-size="10.00">+ getMinX()</text>
<text text-anchor="start" x="132.5" y="-461" font-family="Helvetica,sans-Serif" font-size="10.00">+ getMinY()</text>
<text text-anchor="start" x="132.5" y="-450" font-family="Helvetica,sans-Serif" font-size="10.00">+ getX()</text>
<text text-anchor="start" x="132.5" y="-439" font-family="Helvetica,sans-Serif" font-size="10.00">+ getY()</text>
<text text-anchor="start" x="132.5" y="-428" font-family="Helvetica,sans-Serif" font-size="10.00">+ isXMax()</text>
<text text-anchor="start" x="132.5" y="-417" font-family="Helvetica,sans-Serif" font-size="10.00">+ isYMax()</text>
<text text-anchor="start" x="132.5" y="-406" font-family="Helvetica,sans-Serif" font-size="10.00">et 10 de plus...</text>
</a>
</g>
</g>
<!-- Node6&#45;&gt;Node5 -->
<g id="edge5" class="edge"><title>Node6&#45;&gt;Node5</title>
<path fill="none" stroke="midnightblue" d="M172.354,-388.825C172.145,-373.599 171.94,-358.651 171.756,-345.173"/>
<polygon fill="none" stroke="midnightblue" points="168.854,-388.907 172.491,-398.858 175.854,-388.811 168.854,-388.907"/>
</g>
</g>
</svg>
