<?xml version="1.0" encoding="UTF-8" standalone="no"?>
<!DOCTYPE svg PUBLIC "-//W3C//DTD SVG 1.1//EN"
 "http://www.w3.org/Graphics/SVG/1.1/DTD/svg11.dtd">
<!-- Generated by graphviz version 2.36.0 (20140111.2315)
 -->
<!-- Title: /home/dagal/git/DamierGL/DamierGL/src/DamierGL.cpp Pages: 1 -->
<svg width="887pt" height="488pt"
 viewBox="0.00 0.00 887.00 488.00" xmlns="http://www.w3.org/2000/svg" xmlns:xlink="http://www.w3.org/1999/xlink">
<g id="graph0" class="graph" transform="scale(1 1) rotate(0) translate(4 484)">
<title>/home/dagal/git/DamierGL/DamierGL/src/DamierGL.cpp</title>
<polygon fill="white" stroke="none" points="-4,4 -4,-484 883,-484 883,4 -4,4"/>
<!-- Node1 -->
<g id="node1" class="node"><title>Node1</title>
<polygon fill="#bfbfbf" stroke="black" points="329,-449 329,-479 475,-479 475,-449 329,-449"/>
<text text-anchor="start" x="337" y="-467" font-family="Helvetica,sans-Serif" font-size="10.00">/home/dagal/git/DamierGL</text>
<text text-anchor="middle" x="402" y="-456" font-family="Helvetica,sans-Serif" font-size="10.00">/DamierGL/src/DamierGL.cpp</text>
</g>
<!-- Node2 -->
<g id="node2" class="node"><title>Node2</title>
<g id="a_node2"><a xlink:href="$de/d96/_c_g_l_window_8h.xhtml" xlink:title="CGL/CGLWindow.h">
<polygon fill="white" stroke="black" points="0,-392.5 0,-411.5 104,-411.5 104,-392.5 0,-392.5"/>
<text text-anchor="middle" x="52" y="-399.5" font-family="Helvetica,sans-Serif" font-size="10.00">CGL/CGLWindow.h</text>
</a>
</g>
</g>
<!-- Node1&#45;&gt;Node2 -->
<g id="edge1" class="edge"><title>Node1&#45;&gt;Node2</title>
<path fill="none" stroke="midnightblue" d="M328.629,-450.422C264.202,-439.378 171.653,-423.512 111.677,-413.23"/>
<polygon fill="midnightblue" stroke="midnightblue" points="112.054,-409.744 101.607,-411.504 110.872,-416.643 112.054,-409.744"/>
</g>
<!-- Node16 -->
<g id="node16" class="node"><title>Node16</title>
<g id="a_node16"><a xlink:href="$d2/d91/_c_g_l_quad_8h.xhtml" xlink:title="CGL/CGLQuad.h">
<polygon fill="white" stroke="black" points="200,-336.5 200,-355.5 292,-355.5 292,-336.5 200,-336.5"/>
<text text-anchor="middle" x="246" y="-343.5" font-family="Helvetica,sans-Serif" font-size="10.00">CGL/CGLQuad.h</text>
</a>
</g>
</g>
<!-- Node1&#45;&gt;Node16 -->
<g id="edge15" class="edge"><title>Node1&#45;&gt;Node16</title>
<path fill="none" stroke="midnightblue" d="M328.865,-449.391C305.745,-441.83 281.856,-430.116 265,-412 253.372,-399.503 248.822,-380.274 247.062,-365.969"/>
<polygon fill="midnightblue" stroke="midnightblue" points="250.528,-365.43 246.166,-355.774 243.555,-366.042 250.528,-365.43"/>
</g>
<!-- Node18 -->
<g id="node18" class="node"><title>Node18</title>
<g id="a_node18"><a xlink:href="$d7/df3/_c_g_l_robot1_8h.xhtml" xlink:title="CGL/CGLRobot1.h">
<polygon fill="white" stroke="black" points="274,-392.5 274,-411.5 374,-411.5 374,-392.5 274,-392.5"/>
<text text-anchor="middle" x="324" y="-399.5" font-family="Helvetica,sans-Serif" font-size="10.00">CGL/CGLRobot1.h</text>
</a>
</g>
</g>
<!-- Node1&#45;&gt;Node18 -->
<g id="edge18" class="edge"><title>Node1&#45;&gt;Node18</title>
<path fill="none" stroke="midnightblue" d="M383.515,-448.781C371.48,-439.523 355.8,-427.462 343.557,-418.044"/>
<polygon fill="midnightblue" stroke="midnightblue" points="345.41,-415.053 335.35,-411.731 341.142,-420.602 345.41,-415.053"/>
</g>
<!-- Node20 -->
<g id="node20" class="node"><title>Node20</title>
<g id="a_node20"><a xlink:href="$db/d5d/_c_g_l_position_8h.xhtml" xlink:title="CGL/CGLPosition.h">
<polygon fill="white" stroke="black" points="775,-392.5 775,-411.5 879,-411.5 879,-392.5 775,-392.5"/>
<text text-anchor="middle" x="827" y="-399.5" font-family="Helvetica,sans-Serif" font-size="10.00">CGL/CGLPosition.h</text>
</a>
</g>
</g>
<!-- Node1&#45;&gt;Node20 -->
<g id="edge21" class="edge"><title>Node1&#45;&gt;Node20</title>
<path fill="none" stroke="midnightblue" d="M475.018,-452.841C548.331,-442.618 664.514,-426.352 765,-412 765.101,-411.986 765.202,-411.971 765.303,-411.957"/>
<polygon fill="midnightblue" stroke="midnightblue" points="765.505,-415.464 774.907,-410.579 764.512,-408.534 765.505,-415.464"/>
</g>
<!-- Node23 -->
<g id="node23" class="node"><title>Node23</title>
<g id="a_node23"><a xlink:href="$da/de7/_c_g_l_color_8h.xhtml" xlink:title="CGL/CGLColor.h">
<polygon fill="white" stroke="black" points="430,-392.5 430,-411.5 522,-411.5 522,-392.5 430,-392.5"/>
<text text-anchor="middle" x="476" y="-399.5" font-family="Helvetica,sans-Serif" font-size="10.00">CGL/CGLColor.h</text>
</a>
</g>
</g>
<!-- Node1&#45;&gt;Node23 -->
<g id="edge25" class="edge"><title>Node1&#45;&gt;Node23</title>
<path fill="none" stroke="midnightblue" d="M419.537,-448.781C430.955,-439.523 445.83,-427.462 457.446,-418.044"/>
<polygon fill="midnightblue" stroke="midnightblue" points="459.669,-420.747 465.232,-411.731 455.26,-415.31 459.669,-420.747"/>
</g>
<!-- Node25 -->
<g id="node25" class="node"><title>Node25</title>
<g id="a_node25"><a xlink:href="$d2/d1b/_c_g_l_scale_8h.xhtml" xlink:title="CGL/CGLScale.h">
<polygon fill="white" stroke="black" points="540.5,-392.5 540.5,-411.5 633.5,-411.5 633.5,-392.5 540.5,-392.5"/>
<text text-anchor="middle" x="587" y="-399.5" font-family="Helvetica,sans-Serif" font-size="10.00">CGL/CGLScale.h</text>
</a>
</g>
</g>
<!-- Node1&#45;&gt;Node25 -->
<g id="edge28" class="edge"><title>Node1&#45;&gt;Node25</title>
<path fill="none" stroke="midnightblue" d="M445.374,-448.933C477.518,-438.508 520.811,-424.467 551.038,-414.663"/>
<polygon fill="midnightblue" stroke="midnightblue" points="552.32,-417.927 560.753,-411.513 550.161,-411.269 552.32,-417.927"/>
</g>
<!-- Node26 -->
<g id="node26" class="node"><title>Node26</title>
<g id="a_node26"><a xlink:href="$d5/d65/_c_g_l_rotation_8h.xhtml" xlink:title="CGL/CGLRotation.h">
<polygon fill="white" stroke="black" points="651.5,-392.5 651.5,-411.5 756.5,-411.5 756.5,-392.5 651.5,-392.5"/>
<text text-anchor="middle" x="704" y="-399.5" font-family="Helvetica,sans-Serif" font-size="10.00">CGL/CGLRotation.h</text>
</a>
</g>
</g>
<!-- Node1&#45;&gt;Node26 -->
<g id="edge30" class="edge"><title>Node1&#45;&gt;Node26</title>
<path fill="none" stroke="midnightblue" d="M472.806,-448.933C527.445,-438.077 601.82,-423.301 651.296,-413.471"/>
<polygon fill="midnightblue" stroke="midnightblue" points="652.027,-416.894 661.153,-411.513 650.662,-410.029 652.027,-416.894"/>
</g>
<!-- Node27 -->
<g id="node27" class="node"><title>Node27</title>
<g id="a_node27"><a xlink:href="$d5/d21/_c_g_l_dot_8h.xhtml" xlink:title="CGL/CGLDot.h">
<polygon fill="white" stroke="black" points="98,-336.5 98,-355.5 182,-355.5 182,-336.5 98,-336.5"/>
<text text-anchor="middle" x="140" y="-343.5" font-family="Helvetica,sans-Serif" font-size="10.00">CGL/CGLDot.h</text>
</a>
</g>
</g>
<!-- Node1&#45;&gt;Node27 -->
<g id="edge32" class="edge"><title>Node1&#45;&gt;Node27</title>
<path fill="none" stroke="midnightblue" d="M351.351,-448.925C321.295,-439.859 282.784,-426.984 250,-412 217.519,-397.154 182.385,-375.272 160.783,-361.077"/>
<polygon fill="midnightblue" stroke="midnightblue" points="162.666,-358.126 152.4,-355.506 158.792,-363.956 162.666,-358.126"/>
</g>
<!-- Node28 -->
<g id="node28" class="node"><title>Node28</title>
<g id="a_node28"><a xlink:href="$df/d4a/_c_g_l_line_8h.xhtml" xlink:title="CGL/CGLLine.h">
<polygon fill="white" stroke="black" points="396,-336.5 396,-355.5 482,-355.5 482,-336.5 396,-336.5"/>
<text text-anchor="middle" x="439" y="-343.5" font-family="Helvetica,sans-Serif" font-size="10.00">CGL/CGLLine.h</text>
</a>
</g>
</g>
<!-- Node1&#45;&gt;Node28 -->
<g id="edge34" class="edge"><title>Node1&#45;&gt;Node28</title>
<path fill="none" stroke="midnightblue" d="M405.23,-448.978C408.674,-434.551 414.518,-411.494 421,-392 424.024,-382.905 427.921,-372.995 431.314,-364.795"/>
<polygon fill="midnightblue" stroke="midnightblue" points="434.568,-366.088 435.241,-355.514 428.121,-363.36 434.568,-366.088"/>
</g>
<!-- Node3 -->
<g id="node3" class="node"><title>Node3</title>
<g id="a_node3"><a xlink:href="$d6/d37/_c_g_l_world_8h.xhtml" xlink:title="CGLWorld.h">
<polygon fill="white" stroke="black" points="8.5,-336.5 8.5,-355.5 79.5,-355.5 79.5,-336.5 8.5,-336.5"/>
<text text-anchor="middle" x="44" y="-343.5" font-family="Helvetica,sans-Serif" font-size="10.00">CGLWorld.h</text>
</a>
</g>
</g>
<!-- Node2&#45;&gt;Node3 -->
<g id="edge2" class="edge"><title>Node2&#45;&gt;Node3</title>
<path fill="none" stroke="midnightblue" d="M50.679,-392.083C49.6189,-384.927 48.0941,-374.635 46.7691,-365.691"/>
<polygon fill="midnightblue" stroke="midnightblue" points="50.2242,-365.13 45.2965,-355.751 43.2998,-366.156 50.2242,-365.13"/>
</g>
<!-- Node4 -->
<g id="node4" class="node"><title>Node4</title>
<g id="a_node4"><a xlink:href="$d0/dc9/_c_g_l_scene_8h.xhtml" xlink:title="CGLScene.h">
<polygon fill="white" stroke="black" points="53.5,-280.5 53.5,-299.5 126.5,-299.5 126.5,-280.5 53.5,-280.5"/>
<text text-anchor="middle" x="90" y="-287.5" font-family="Helvetica,sans-Serif" font-size="10.00">CGLScene.h</text>
</a>
</g>
</g>
<!-- Node3&#45;&gt;Node4 -->
<g id="edge3" class="edge"><title>Node3&#45;&gt;Node4</title>
<path fill="none" stroke="midnightblue" d="M51.596,-336.083C58.2275,-328.298 68.021,-316.801 76.0581,-307.367"/>
<polygon fill="midnightblue" stroke="midnightblue" points="78.725,-309.633 82.5454,-299.751 73.3963,-305.094 78.725,-309.633"/>
</g>
<!-- Node5 -->
<g id="node5" class="node"><title>Node5</title>
<g id="a_node5"><a xlink:href="$d5/d86/_c_g_l_camera_list_8h.xhtml" xlink:title="CGLCameraList.h">
<polygon fill="white" stroke="black" points="42.5,-224.5 42.5,-243.5 137.5,-243.5 137.5,-224.5 42.5,-224.5"/>
<text text-anchor="middle" x="90" y="-231.5" font-family="Helvetica,sans-Serif" font-size="10.00">CGLCameraList.h</text>
</a>
</g>
</g>
<!-- Node4&#45;&gt;Node5 -->
<g id="edge4" class="edge"><title>Node4&#45;&gt;Node5</title>
<path fill="none" stroke="midnightblue" d="M90,-280.083C90,-273.006 90,-262.861 90,-253.986"/>
<polygon fill="midnightblue" stroke="midnightblue" points="93.5001,-253.751 90,-243.751 86.5001,-253.751 93.5001,-253.751"/>
</g>
<!-- Node15 -->
<g id="node15" class="node"><title>Node15</title>
<g id="a_node15"><a xlink:href="$da/d23/_c_g_l_light_8h.xhtml" xlink:title="CGLLight.h">
<polygon fill="white" stroke="black" points="156,-224.5 156,-243.5 222,-243.5 222,-224.5 156,-224.5"/>
<text text-anchor="middle" x="189" y="-231.5" font-family="Helvetica,sans-Serif" font-size="10.00">CGLLight.h</text>
</a>
</g>
</g>
<!-- Node4&#45;&gt;Node15 -->
<g id="edge14" class="edge"><title>Node4&#45;&gt;Node15</title>
<path fill="none" stroke="midnightblue" d="M105.906,-280.324C121.638,-271.743 145.942,-258.486 164.209,-248.522"/>
<polygon fill="midnightblue" stroke="midnightblue" points="166.03,-251.516 173.133,-243.655 162.678,-245.37 166.03,-251.516"/>
</g>
<!-- Node6 -->
<g id="node6" class="node"><title>Node6</title>
<g id="a_node6"><a xlink:href="$df/d5b/_c_g_l_camera_8h.xhtml" xlink:title="CGLCamera.h">
<polygon fill="white" stroke="black" points="119,-168.5 119,-187.5 199,-187.5 199,-168.5 119,-168.5"/>
<text text-anchor="middle" x="159" y="-175.5" font-family="Helvetica,sans-Serif" font-size="10.00">CGLCamera.h</text>
</a>
</g>
</g>
<!-- Node5&#45;&gt;Node6 -->
<g id="edge5" class="edge"><title>Node5&#45;&gt;Node6</title>
<path fill="none" stroke="midnightblue" d="M101.086,-224.324C111.486,-216.185 127.261,-203.839 139.722,-194.087"/>
<polygon fill="midnightblue" stroke="midnightblue" points="141.994,-196.753 147.712,-187.834 137.68,-191.241 141.994,-196.753"/>
</g>
<!-- Node7 -->
<g id="node7" class="node"><title>Node7</title>
<g id="a_node7"><a xlink:href="$dc/db8/_c_g_l_special_8h.xhtml" xlink:title="CGLSpecial.h">
<polygon fill="white" stroke="black" points="155.5,-112.5 155.5,-131.5 232.5,-131.5 232.5,-112.5 155.5,-112.5"/>
<text text-anchor="middle" x="194" y="-119.5" font-family="Helvetica,sans-Serif" font-size="10.00">CGLSpecial.h</text>
</a>
</g>
</g>
<!-- Node6&#45;&gt;Node7 -->
<g id="edge6" class="edge"><title>Node6&#45;&gt;Node7</title>
<path fill="none" stroke="midnightblue" d="M164.78,-168.083C169.672,-160.534 176.827,-149.495 182.833,-140.23"/>
<polygon fill="midnightblue" stroke="midnightblue" points="185.826,-142.046 188.328,-131.751 179.952,-138.239 185.826,-142.046"/>
</g>
<!-- Node8 -->
<g id="node8" class="node"><title>Node8</title>
<g id="a_node8"><a xlink:href="$d6/d55/_c_g_l_object_8h.xhtml" xlink:title="CGLObject.h">
<polygon fill="white" stroke="black" points="258,-56.5 258,-75.5 332,-75.5 332,-56.5 258,-56.5"/>
<text text-anchor="middle" x="295" y="-63.5" font-family="Helvetica,sans-Serif" font-size="10.00">CGLObject.h</text>
</a>
</g>
</g>
<!-- Node7&#45;&gt;Node8 -->
<g id="edge7" class="edge"><title>Node7&#45;&gt;Node8</title>
<path fill="none" stroke="midnightblue" d="M210.227,-112.324C226.351,-103.703 251.3,-90.3643 269.964,-80.3855"/>
<polygon fill="midnightblue" stroke="midnightblue" points="271.644,-83.456 278.813,-75.6545 268.344,-77.283 271.644,-83.456"/>
</g>
<!-- Node9 -->
<g id="node9" class="node"><title>Node9</title>
<polygon fill="white" stroke="#bfbfbf" points="91,-0.5 91,-19.5 145,-19.5 145,-0.5 91,-0.5"/>
<text text-anchor="middle" x="118" y="-7.5" font-family="Helvetica,sans-Serif" font-size="10.00">iostream</text>
</g>
<!-- Node8&#45;&gt;Node9 -->
<g id="edge8" class="edge"><title>Node8&#45;&gt;Node9</title>
<path fill="none" stroke="midnightblue" d="M266.954,-56.4435C236.653,-47.1993 188.242,-32.4296 154.878,-22.2511"/>
<polygon fill="midnightblue" stroke="midnightblue" points="155.63,-18.8213 145.044,-19.2508 153.588,-25.5166 155.63,-18.8213"/>
</g>
<!-- Node10 -->
<g id="node10" class="node"><title>Node10</title>
<polygon fill="white" stroke="#bfbfbf" points="163,-0.5 163,-19.5 211,-19.5 211,-0.5 163,-0.5"/>
<text text-anchor="middle" x="187" y="-7.5" font-family="Helvetica,sans-Serif" font-size="10.00">GL/gl.h</text>
</g>
<!-- Node8&#45;&gt;Node10 -->
<g id="edge9" class="edge"><title>Node8&#45;&gt;Node10</title>
<path fill="none" stroke="midnightblue" d="M277.648,-56.324C260.328,-47.6641 233.485,-34.2424 213.498,-24.249"/>
<polygon fill="midnightblue" stroke="midnightblue" points="214.819,-20.9962 204.309,-19.6545 211.688,-27.2572 214.819,-20.9962"/>
</g>
<!-- Node11 -->
<g id="node11" class="node"><title>Node11</title>
<polygon fill="white" stroke="#bfbfbf" points="229.5,-0.5 229.5,-19.5 282.5,-19.5 282.5,-0.5 229.5,-0.5"/>
<text text-anchor="middle" x="256" y="-7.5" font-family="Helvetica,sans-Serif" font-size="10.00">GL/glu.h</text>
</g>
<!-- Node8&#45;&gt;Node11 -->
<g id="edge10" class="edge"><title>Node8&#45;&gt;Node11</title>
<path fill="none" stroke="midnightblue" d="M288.56,-56.083C283.051,-48.4554 274.969,-37.2645 268.235,-27.9408"/>
<polygon fill="midnightblue" stroke="midnightblue" points="271.013,-25.8087 262.32,-19.7511 265.338,-29.9071 271.013,-25.8087"/>
</g>
<!-- Node12 -->
<g id="node12" class="node"><title>Node12</title>
<polygon fill="white" stroke="#bfbfbf" points="300.5,-0.5 300.5,-19.5 367.5,-19.5 367.5,-0.5 300.5,-0.5"/>
<text text-anchor="middle" x="334" y="-7.5" font-family="Helvetica,sans-Serif" font-size="10.00">SDL/SDL.h</text>
</g>
<!-- Node8&#45;&gt;Node12 -->
<g id="edge11" class="edge"><title>Node8&#45;&gt;Node12</title>
<path fill="none" stroke="midnightblue" d="M301.44,-56.083C306.949,-48.4554 315.031,-37.2645 321.765,-27.9408"/>
<polygon fill="midnightblue" stroke="midnightblue" points="324.662,-29.9071 327.68,-19.7511 318.987,-25.8087 324.662,-29.9071"/>
</g>
<!-- Node13 -->
<g id="node13" class="node"><title>Node13</title>
<polygon fill="white" stroke="#bfbfbf" points="385.5,-0.5 385.5,-19.5 426.5,-19.5 426.5,-0.5 385.5,-0.5"/>
<text text-anchor="middle" x="406" y="-7.5" font-family="Helvetica,sans-Serif" font-size="10.00">string</text>
</g>
<!-- Node8&#45;&gt;Node13 -->
<g id="edge12" class="edge"><title>Node8&#45;&gt;Node13</title>
<path fill="none" stroke="midnightblue" d="M312.834,-56.324C330.716,-47.6247 358.475,-34.1202 379.046,-24.113"/>
<polygon fill="midnightblue" stroke="midnightblue" points="380.749,-27.1765 388.21,-19.6545 377.687,-20.8819 380.749,-27.1765"/>
</g>
<!-- Node14 -->
<g id="node14" class="node"><title>Node14</title>
<polygon fill="white" stroke="#bfbfbf" points="444.5,-0.5 444.5,-19.5 473.5,-19.5 473.5,-0.5 444.5,-0.5"/>
<text text-anchor="middle" x="459" y="-7.5" font-family="Helvetica,sans-Serif" font-size="10.00">list</text>
</g>
<!-- Node8&#45;&gt;Node14 -->
<g id="edge13" class="edge"><title>Node8&#45;&gt;Node14</title>
<path fill="none" stroke="midnightblue" d="M323.021,-56.4255C349.495,-48.23 390.512,-35.2901 434.817,-19.9433"/>
<polygon fill="midnightblue" stroke="midnightblue" points="436.026,-23.2285 444.317,-16.6327 433.722,-16.6184 436.026,-23.2285"/>
</g>
<!-- Node17 -->
<g id="node17" class="node"><title>Node17</title>
<g id="a_node17"><a xlink:href="$d2/d5a/_c_g_l_item_8h.xhtml" xlink:title="CGLItem.h">
<polygon fill="white" stroke="black" points="262.5,-280.5 262.5,-299.5 327.5,-299.5 327.5,-280.5 262.5,-280.5"/>
<text text-anchor="middle" x="295" y="-287.5" font-family="Helvetica,sans-Serif" font-size="10.00">CGLItem.h</text>
</a>
</g>
</g>
<!-- Node16&#45;&gt;Node17 -->
<g id="edge16" class="edge"><title>Node16&#45;&gt;Node17</title>
<path fill="none" stroke="midnightblue" d="M254.091,-336.083C261.155,-328.298 271.588,-316.801 280.149,-307.367"/>
<polygon fill="midnightblue" stroke="midnightblue" points="282.931,-309.509 287.059,-299.751 277.747,-304.805 282.931,-309.509"/>
</g>
<!-- Node17&#45;&gt;Node8 -->
<g id="edge17" class="edge"><title>Node17&#45;&gt;Node8</title>
<path fill="none" stroke="midnightblue" d="M295,-280.297C295,-247.633 295,-131.866 295,-85.9573"/>
<polygon fill="midnightblue" stroke="midnightblue" points="298.5,-85.8837 295,-75.8837 291.5,-85.8838 298.5,-85.8837"/>
</g>
<!-- Node19 -->
<g id="node19" class="node"><title>Node19</title>
<g id="a_node19"><a xlink:href="$db/d17/_c_g_l_boite_8h.xhtml" xlink:title="CGLBoite.h">
<polygon fill="white" stroke="black" points="310,-336.5 310,-355.5 378,-355.5 378,-336.5 310,-336.5"/>
<text text-anchor="middle" x="344" y="-343.5" font-family="Helvetica,sans-Serif" font-size="10.00">CGLBoite.h</text>
</a>
</g>
</g>
<!-- Node18&#45;&gt;Node19 -->
<g id="edge19" class="edge"><title>Node18&#45;&gt;Node19</title>
<path fill="none" stroke="midnightblue" d="M327.303,-392.083C329.982,-384.849 333.849,-374.409 337.186,-365.397"/>
<polygon fill="midnightblue" stroke="midnightblue" points="340.568,-366.344 340.759,-355.751 334.004,-363.913 340.568,-366.344"/>
</g>
<!-- Node19&#45;&gt;Node17 -->
<g id="edge20" class="edge"><title>Node19&#45;&gt;Node17</title>
<path fill="none" stroke="midnightblue" d="M335.909,-336.083C328.845,-328.298 318.412,-316.801 309.851,-307.367"/>
<polygon fill="midnightblue" stroke="midnightblue" points="312.253,-304.805 302.941,-299.751 307.069,-309.509 312.253,-304.805"/>
</g>
<!-- Node21 -->
<g id="node21" class="node"><title>Node21</title>
<g id="a_node21"><a xlink:href="$dd/d83/_c_g_l_vector3_d_8h.xhtml" xlink:title="CGLVector3D.h">
<polygon fill="white" stroke="black" points="535,-280.5 535,-299.5 621,-299.5 621,-280.5 535,-280.5"/>
<text text-anchor="middle" x="578" y="-287.5" font-family="Helvetica,sans-Serif" font-size="10.00">CGLVector3D.h</text>
</a>
</g>
</g>
<!-- Node20&#45;&gt;Node21 -->
<g id="edge22" class="edge"><title>Node20&#45;&gt;Node21</title>
<path fill="none" stroke="midnightblue" d="M807.461,-392.368C763.733,-373.051 657.814,-326.259 606.631,-303.648"/>
<polygon fill="midnightblue" stroke="midnightblue" points="608.009,-300.431 597.448,-299.591 605.181,-306.834 608.009,-300.431"/>
</g>
<!-- Node22 -->
<g id="node22" class="node"><title>Node22</title>
<g id="a_node22"><a xlink:href="$d7/d27/_c_g_l_effect_8h.xhtml" xlink:title="CGLEffect.h">
<polygon fill="white" stroke="black" points="378.5,-168.5 378.5,-187.5 449.5,-187.5 449.5,-168.5 378.5,-168.5"/>
<text text-anchor="middle" x="414" y="-175.5" font-family="Helvetica,sans-Serif" font-size="10.00">CGLEffect.h</text>
</a>
</g>
</g>
<!-- Node21&#45;&gt;Node22 -->
<g id="edge23" class="edge"><title>Node21&#45;&gt;Node22</title>
<path fill="none" stroke="midnightblue" d="M565.131,-280.368C536.989,-261.492 469.738,-216.385 435.226,-193.237"/>
<polygon fill="midnightblue" stroke="midnightblue" points="437.064,-190.255 426.809,-187.591 433.164,-196.069 437.064,-190.255"/>
</g>
<!-- Node22&#45;&gt;Node8 -->
<g id="edge24" class="edge"><title>Node22&#45;&gt;Node8</title>
<path fill="none" stroke="midnightblue" d="M404.662,-168.368C384.589,-149.814 337.097,-105.913 311.701,-82.4376"/>
<polygon fill="midnightblue" stroke="midnightblue" points="314.013,-79.8092 304.294,-75.5914 309.262,-84.9495 314.013,-79.8092"/>
</g>
<!-- Node24 -->
<g id="node24" class="node"><title>Node24</title>
<g id="a_node24"><a xlink:href="$df/dcb/_c_g_l_vector4_d_8h.xhtml" xlink:title="CGLVector4D.h">
<polygon fill="white" stroke="black" points="500,-336.5 500,-355.5 586,-355.5 586,-336.5 500,-336.5"/>
<text text-anchor="middle" x="543" y="-343.5" font-family="Helvetica,sans-Serif" font-size="10.00">CGLVector4D.h</text>
</a>
</g>
</g>
<!-- Node23&#45;&gt;Node24 -->
<g id="edge26" class="edge"><title>Node23&#45;&gt;Node24</title>
<path fill="none" stroke="midnightblue" d="M486.765,-392.324C496.766,-384.263 511.887,-372.077 523.93,-362.369"/>
<polygon fill="midnightblue" stroke="midnightblue" points="526.45,-364.834 532.039,-355.834 522.057,-359.384 526.45,-364.834"/>
</g>
<!-- Node24&#45;&gt;Node21 -->
<g id="edge27" class="edge"><title>Node24&#45;&gt;Node21</title>
<path fill="none" stroke="midnightblue" d="M548.78,-336.083C553.672,-328.534 560.827,-317.495 566.833,-308.23"/>
<polygon fill="midnightblue" stroke="midnightblue" points="569.826,-310.046 572.328,-299.751 563.952,-306.239 569.826,-310.046"/>
</g>
<!-- Node25&#45;&gt;Node21 -->
<g id="edge29" class="edge"><title>Node25&#45;&gt;Node21</title>
<path fill="none" stroke="midnightblue" d="M589.788,-392.119C593.348,-379.557 598.635,-355.909 595,-336 593.312,-326.757 589.825,-316.948 586.446,-308.855"/>
<polygon fill="midnightblue" stroke="midnightblue" points="589.631,-307.405 582.366,-299.693 583.237,-310.252 589.631,-307.405"/>
</g>
<!-- Node26&#45;&gt;Node21 -->
<g id="edge31" class="edge"><title>Node26&#45;&gt;Node21</title>
<path fill="none" stroke="midnightblue" d="M694.113,-392.368C672.859,-373.814 622.573,-329.913 595.683,-306.438"/>
<polygon fill="midnightblue" stroke="midnightblue" points="597.676,-303.531 587.841,-299.591 593.072,-308.805 597.676,-303.531"/>
</g>
<!-- Node27&#45;&gt;Node17 -->
<g id="edge33" class="edge"><title>Node27&#45;&gt;Node17</title>
<path fill="none" stroke="midnightblue" d="M164.56,-336.444C190.523,-327.399 231.668,-313.064 260.797,-302.916"/>
<polygon fill="midnightblue" stroke="midnightblue" points="262.263,-306.112 270.555,-299.516 259.96,-299.501 262.263,-306.112"/>
</g>
<!-- Node28&#45;&gt;Node17 -->
<g id="edge35" class="edge"><title>Node28&#45;&gt;Node17</title>
<path fill="none" stroke="midnightblue" d="M416.183,-336.444C392.168,-327.438 354.171,-313.189 327.131,-303.049"/>
<polygon fill="midnightblue" stroke="midnightblue" points="328.303,-299.751 317.71,-299.516 325.845,-306.305 328.303,-299.751"/>
</g>
<!-- Node28&#45;&gt;Node21 -->
<g id="edge36" class="edge"><title>Node28&#45;&gt;Node21</title>
<path fill="none" stroke="midnightblue" d="M461.025,-336.444C484.104,-327.478 520.562,-313.314 546.641,-303.183"/>
<polygon fill="midnightblue" stroke="midnightblue" points="548.024,-306.4 556.078,-299.516 545.489,-299.875 548.024,-306.4"/>
</g>
</g>
</svg>
