<?xml version="1.0" encoding="UTF-8" standalone="no"?>
<!DOCTYPE svg PUBLIC "-//W3C//DTD SVG 1.1//EN"
 "http://www.w3.org/Graphics/SVG/1.1/DTD/svg11.dtd">
<!-- Generated by graphviz version 2.36.0 (20140111.2315)
 -->
<!-- Title: /home/dagal/git/DamierGL/DamierGL/src/DamierGL.cpp Pages: 1 -->
<svg width="1277pt" height="488pt"
 viewBox="0.00 0.00 1277.00 488.00" xmlns="http://www.w3.org/2000/svg" xmlns:xlink="http://www.w3.org/1999/xlink">
<g id="graph0" class="graph" transform="scale(1 1) rotate(0) translate(4 484)">
<title>/home/dagal/git/DamierGL/DamierGL/src/DamierGL.cpp</title>
<polygon fill="white" stroke="none" points="-4,4 -4,-484 1273,-484 1273,4 -4,4"/>
<!-- Node1 -->
<g id="node1" class="node"><title>Node1</title>
<polygon fill="#bfbfbf" stroke="black" points="541,-449 541,-479 687,-479 687,-449 541,-449"/>
<text text-anchor="start" x="549" y="-467" font-family="Helvetica,sans-Serif" font-size="10.00">/home/dagal/git/DamierGL</text>
<text text-anchor="middle" x="614" y="-456" font-family="Helvetica,sans-Serif" font-size="10.00">/DamierGL/src/DamierGL.cpp</text>
</g>
<!-- Node2 -->
<g id="node2" class="node"><title>Node2</title>
<g id="a_node2"><a xlink:href="$de/d96/_c_g_l_window_8h.xhtml" xlink:title="CGL/CGLWindow.h">
<polygon fill="white" stroke="black" points="0,-392.5 0,-411.5 104,-411.5 104,-392.5 0,-392.5"/>
<text text-anchor="middle" x="52" y="-399.5" font-family="Helvetica,sans-Serif" font-size="10.00">CGL/CGLWindow.h</text>
</a>
</g>
</g>
<!-- Node1&#45;&gt;Node2 -->
<g id="edge1" class="edge"><title>Node1&#45;&gt;Node2</title>
<path fill="none" stroke="midnightblue" d="M540.869,-456.596C445.293,-447.993 272.453,-431.64 114.597,-412.151"/>
<polygon fill="midnightblue" stroke="midnightblue" points="114.577,-408.622 104.222,-410.863 113.715,-415.568 114.577,-408.622"/>
</g>
<!-- Node16 -->
<g id="node16" class="node"><title>Node16</title>
<g id="a_node16"><a xlink:href="$d2/d91/_c_g_l_quad_8h.xhtml" xlink:title="CGL/CGLQuad.h">
<polygon fill="white" stroke="black" points="330,-336.5 330,-355.5 422,-355.5 422,-336.5 330,-336.5"/>
<text text-anchor="middle" x="376" y="-343.5" font-family="Helvetica,sans-Serif" font-size="10.00">CGL/CGLQuad.h</text>
</a>
</g>
</g>
<!-- Node1&#45;&gt;Node16 -->
<g id="edge16" class="edge"><title>Node1&#45;&gt;Node16</title>
<path fill="none" stroke="midnightblue" d="M584.817,-448.776C538.213,-426.062 447.671,-381.932 402.691,-360.009"/>
<polygon fill="midnightblue" stroke="midnightblue" points="404.084,-356.794 393.561,-355.559 401.017,-363.087 404.084,-356.794"/>
</g>
<!-- Node19 -->
<g id="node19" class="node"><title>Node19</title>
<g id="a_node19"><a xlink:href="$d7/df3/_c_g_l_robot1_8h.xhtml" xlink:title="CGL/CGLRobot1.h">
<polygon fill="white" stroke="black" points="122,-392.5 122,-411.5 222,-411.5 222,-392.5 122,-392.5"/>
<text text-anchor="middle" x="172" y="-399.5" font-family="Helvetica,sans-Serif" font-size="10.00">CGL/CGLRobot1.h</text>
</a>
</g>
</g>
<!-- Node1&#45;&gt;Node19 -->
<g id="edge20" class="edge"><title>Node1&#45;&gt;Node19</title>
<path fill="none" stroke="midnightblue" d="M540.876,-453.682C465.944,-444.039 345.786,-428.312 232.123,-412.139"/>
<polygon fill="midnightblue" stroke="midnightblue" points="232.597,-408.672 222.202,-410.724 231.608,-415.601 232.597,-408.672"/>
</g>
<!-- Node21 -->
<g id="node21" class="node"><title>Node21</title>
<g id="a_node21"><a xlink:href="$db/d5d/_c_g_l_position_8h.xhtml" xlink:title="CGL/CGLPosition.h">
<polygon fill="white" stroke="black" points="1042,-336.5 1042,-355.5 1146,-355.5 1146,-336.5 1042,-336.5"/>
<text text-anchor="middle" x="1094" y="-343.5" font-family="Helvetica,sans-Serif" font-size="10.00">CGL/CGLPosition.h</text>
</a>
</g>
</g>
<!-- Node1&#45;&gt;Node21 -->
<g id="edge23" class="edge"><title>Node1&#45;&gt;Node21</title>
<path fill="none" stroke="midnightblue" d="M687.285,-459.188C809.326,-452.206 1043.77,-435.858 1073,-412 1086.62,-400.886 1091.51,-380.853 1093.21,-365.954"/>
<polygon fill="midnightblue" stroke="midnightblue" points="1096.71,-366.03 1093.98,-355.794 1089.73,-365.5 1096.71,-366.03"/>
</g>
<!-- Node24 -->
<g id="node24" class="node"><title>Node24</title>
<g id="a_node24"><a xlink:href="$da/de7/_c_g_l_color_8h.xhtml" xlink:title="CGL/CGLColor.h">
<polygon fill="white" stroke="black" points="785,-392.5 785,-411.5 877,-411.5 877,-392.5 785,-392.5"/>
<text text-anchor="middle" x="831" y="-399.5" font-family="Helvetica,sans-Serif" font-size="10.00">CGL/CGLColor.h</text>
</a>
</g>
</g>
<!-- Node1&#45;&gt;Node24 -->
<g id="edge28" class="edge"><title>Node1&#45;&gt;Node24</title>
<path fill="none" stroke="midnightblue" d="M664.877,-448.933C703.072,-438.372 754.689,-424.1 790.197,-414.282"/>
<polygon fill="midnightblue" stroke="midnightblue" points="791.507,-417.551 800.212,-411.513 789.641,-410.804 791.507,-417.551"/>
</g>
<!-- Node26 -->
<g id="node26" class="node"><title>Node26</title>
<g id="a_node26"><a xlink:href="$d2/d1b/_c_g_l_scale_8h.xhtml" xlink:title="CGL/CGLScale.h">
<polygon fill="white" stroke="black" points="930.5,-336.5 930.5,-355.5 1023.5,-355.5 1023.5,-336.5 930.5,-336.5"/>
<text text-anchor="middle" x="977" y="-343.5" font-family="Helvetica,sans-Serif" font-size="10.00">CGL/CGLScale.h</text>
</a>
</g>
</g>
<!-- Node1&#45;&gt;Node26 -->
<g id="edge32" class="edge"><title>Node1&#45;&gt;Node26</title>
<path fill="none" stroke="midnightblue" d="M687.209,-457.922C743.432,-451.999 822.021,-439.261 886,-412 914.55,-399.835 942.925,-377.52 960.213,-362.473"/>
<polygon fill="midnightblue" stroke="midnightblue" points="962.624,-365.013 967.761,-355.747 957.967,-359.787 962.624,-365.013"/>
</g>
<!-- Node27 -->
<g id="node27" class="node"><title>Node27</title>
<g id="a_node27"><a xlink:href="$d5/d65/_c_g_l_rotation_8h.xhtml" xlink:title="CGL/CGLRotation.h">
<polygon fill="white" stroke="black" points="1164.5,-336.5 1164.5,-355.5 1269.5,-355.5 1269.5,-336.5 1164.5,-336.5"/>
<text text-anchor="middle" x="1217" y="-343.5" font-family="Helvetica,sans-Serif" font-size="10.00">CGL/CGLRotation.h</text>
</a>
</g>
</g>
<!-- Node1&#45;&gt;Node27 -->
<g id="edge35" class="edge"><title>Node1&#45;&gt;Node27</title>
<path fill="none" stroke="midnightblue" d="M687.264,-463.746C782.901,-462.809 954.525,-454.534 1094,-412 1132.34,-400.307 1172.67,-376.455 1196.29,-361.125"/>
<polygon fill="midnightblue" stroke="midnightblue" points="1198.36,-363.953 1204.77,-355.519 1194.5,-358.114 1198.36,-363.953"/>
</g>
<!-- Node28 -->
<g id="node28" class="node"><title>Node28</title>
<g id="a_node28"><a xlink:href="$d5/d21/_c_g_l_dot_8h.xhtml" xlink:title="CGL/CGLDot.h">
<polygon fill="white" stroke="black" points="240,-392.5 240,-411.5 324,-411.5 324,-392.5 240,-392.5"/>
<text text-anchor="middle" x="282" y="-399.5" font-family="Helvetica,sans-Serif" font-size="10.00">CGL/CGLDot.h</text>
</a>
</g>
</g>
<!-- Node1&#45;&gt;Node28 -->
<g id="edge38" class="edge"><title>Node1&#45;&gt;Node28</title>
<path fill="none" stroke="midnightblue" d="M540.73,-449.758C478.171,-438.453 389.74,-422.471 334.159,-412.426"/>
<polygon fill="midnightblue" stroke="midnightblue" points="334.64,-408.957 324.177,-410.622 333.395,-415.845 334.64,-408.957"/>
</g>
<!-- Node29 -->
<g id="node29" class="node"><title>Node29</title>
<g id="a_node29"><a xlink:href="$df/d4a/_c_g_l_line_8h.xhtml" xlink:title="CGL/CGLLine.h">
<polygon fill="white" stroke="black" points="684,-336.5 684,-355.5 770,-355.5 770,-336.5 684,-336.5"/>
<text text-anchor="middle" x="727" y="-343.5" font-family="Helvetica,sans-Serif" font-size="10.00">CGL/CGLLine.h</text>
</a>
</g>
</g>
<!-- Node1&#45;&gt;Node29 -->
<g id="edge40" class="edge"><title>Node1&#45;&gt;Node29</title>
<path fill="none" stroke="midnightblue" d="M627.856,-448.776C649.049,-427.021 689.379,-385.62 711.51,-362.901"/>
<polygon fill="midnightblue" stroke="midnightblue" points="714.047,-365.312 718.518,-355.707 709.033,-360.428 714.047,-365.312"/>
</g>
<!-- Node30 -->
<g id="node30" class="node"><title>Node30</title>
<g id="a_node30"><a xlink:href="$d8/d51/_c_g_l_triangle_8h.xhtml" xlink:title="CGL/CGLTriangle.h">
<polygon fill="white" stroke="black" points="440.5,-336.5 440.5,-355.5 543.5,-355.5 543.5,-336.5 440.5,-336.5"/>
<text text-anchor="middle" x="492" y="-343.5" font-family="Helvetica,sans-Serif" font-size="10.00">CGL/CGLTriangle.h</text>
</a>
</g>
</g>
<!-- Node1&#45;&gt;Node30 -->
<g id="edge43" class="edge"><title>Node1&#45;&gt;Node30</title>
<path fill="none" stroke="midnightblue" d="M599.04,-448.776C576.06,-426.926 532.237,-385.258 508.412,-362.604"/>
<polygon fill="midnightblue" stroke="midnightblue" points="510.816,-360.061 501.157,-355.707 505.993,-365.134 510.816,-360.061"/>
</g>
<!-- Node31 -->
<g id="node31" class="node"><title>Node31</title>
<g id="a_node31"><a xlink:href="$d3/dbc/_c_g_l_polygon_8h.xhtml" xlink:title="CGL/CGLPolygon.h">
<polygon fill="white" stroke="black" points="562,-336.5 562,-355.5 666,-355.5 666,-336.5 562,-336.5"/>
<text text-anchor="middle" x="614" y="-343.5" font-family="Helvetica,sans-Serif" font-size="10.00">CGL/CGLPolygon.h</text>
</a>
</g>
</g>
<!-- Node1&#45;&gt;Node31 -->
<g id="edge46" class="edge"><title>Node1&#45;&gt;Node31</title>
<path fill="none" stroke="midnightblue" d="M614,-448.776C614,-427.971 614,-389.198 614,-365.981"/>
<polygon fill="midnightblue" stroke="midnightblue" points="617.5,-365.707 614,-355.707 610.5,-365.707 617.5,-365.707"/>
</g>
<!-- Node32 -->
<g id="node32" class="node"><title>Node32</title>
<g id="a_node32"><a xlink:href="$d7/d91/_c_g_l_circle_8h.xhtml" xlink:title="CGL/CGLCircle.h">
<polygon fill="white" stroke="black" points="342,-392.5 342,-411.5 436,-411.5 436,-392.5 342,-392.5"/>
<text text-anchor="middle" x="389" y="-399.5" font-family="Helvetica,sans-Serif" font-size="10.00">CGL/CGLCircle.h</text>
</a>
</g>
</g>
<!-- Node1&#45;&gt;Node32 -->
<g id="edge49" class="edge"><title>Node1&#45;&gt;Node32</title>
<path fill="none" stroke="midnightblue" d="M561.247,-448.933C521.474,-438.326 467.665,-423.977 430.835,-414.156"/>
<polygon fill="midnightblue" stroke="midnightblue" points="431.487,-410.708 420.923,-411.513 429.683,-417.471 431.487,-410.708"/>
</g>
<!-- Node34 -->
<g id="node34" class="node"><title>Node34</title>
<g id="a_node34"><a xlink:href="$d0/d52/_c_g_l_position_speed_8h.xhtml" xlink:title="CGL/CGLPositionSpeed.h">
<polygon fill="white" stroke="black" points="933.5,-392.5 933.5,-411.5 1064.5,-411.5 1064.5,-392.5 933.5,-392.5"/>
<text text-anchor="middle" x="999" y="-399.5" font-family="Helvetica,sans-Serif" font-size="10.00">CGL/CGLPositionSpeed.h</text>
</a>
</g>
</g>
<!-- Node1&#45;&gt;Node34 -->
<g id="edge52" class="edge"><title>Node1&#45;&gt;Node34</title>
<path fill="none" stroke="midnightblue" d="M687.322,-451.573C758.605,-440.464 865.833,-423.753 934.102,-413.114"/>
<polygon fill="midnightblue" stroke="midnightblue" points="934.956,-416.523 944.298,-411.525 933.878,-409.607 934.956,-416.523"/>
</g>
<!-- Node3 -->
<g id="node3" class="node"><title>Node3</title>
<g id="a_node3"><a xlink:href="$d6/d37/_c_g_l_world_8h.xhtml" xlink:title="CGLWorld.h">
<polygon fill="white" stroke="black" points="16.5,-336.5 16.5,-355.5 87.5,-355.5 87.5,-336.5 16.5,-336.5"/>
<text text-anchor="middle" x="52" y="-343.5" font-family="Helvetica,sans-Serif" font-size="10.00">CGLWorld.h</text>
</a>
</g>
</g>
<!-- Node2&#45;&gt;Node3 -->
<g id="edge2" class="edge"><title>Node2&#45;&gt;Node3</title>
<path fill="none" stroke="midnightblue" d="M52,-392.083C52,-385.006 52,-374.861 52,-365.986"/>
<polygon fill="midnightblue" stroke="midnightblue" points="55.5001,-365.751 52,-355.751 48.5001,-365.751 55.5001,-365.751"/>
</g>
<!-- Node4 -->
<g id="node4" class="node"><title>Node4</title>
<g id="a_node4"><a xlink:href="$d0/dc9/_c_g_l_scene_8h.xhtml" xlink:title="CGLScene.h">
<polygon fill="white" stroke="black" points="175.5,-280.5 175.5,-299.5 248.5,-299.5 248.5,-280.5 175.5,-280.5"/>
<text text-anchor="middle" x="212" y="-287.5" font-family="Helvetica,sans-Serif" font-size="10.00">CGLScene.h</text>
</a>
</g>
</g>
<!-- Node3&#45;&gt;Node4 -->
<g id="edge3" class="edge"><title>Node3&#45;&gt;Node4</title>
<path fill="none" stroke="midnightblue" d="M77.3525,-336.444C104.269,-327.359 146.996,-312.939 177.087,-302.783"/>
<polygon fill="midnightblue" stroke="midnightblue" points="178.41,-306.031 186.766,-299.516 176.172,-299.398 178.41,-306.031"/>
</g>
<!-- Node5 -->
<g id="node5" class="node"><title>Node5</title>
<g id="a_node5"><a xlink:href="$d5/d86/_c_g_l_camera_list_8h.xhtml" xlink:title="CGLCameraList.h">
<polygon fill="white" stroke="black" points="249.5,-224.5 249.5,-243.5 344.5,-243.5 344.5,-224.5 249.5,-224.5"/>
<text text-anchor="middle" x="297" y="-231.5" font-family="Helvetica,sans-Serif" font-size="10.00">CGLCameraList.h</text>
</a>
</g>
</g>
<!-- Node4&#45;&gt;Node5 -->
<g id="edge4" class="edge"><title>Node4&#45;&gt;Node5</title>
<path fill="none" stroke="midnightblue" d="M225.657,-280.324C238.916,-271.9 259.268,-258.971 274.846,-249.074"/>
<polygon fill="midnightblue" stroke="midnightblue" points="276.813,-251.971 283.377,-243.655 273.06,-246.063 276.813,-251.971"/>
</g>
<!-- Node15 -->
<g id="node15" class="node"><title>Node15</title>
<g id="a_node15"><a xlink:href="$da/d23/_c_g_l_light_8h.xhtml" xlink:title="CGLLight.h">
<polygon fill="white" stroke="black" points="179,-168.5 179,-187.5 245,-187.5 245,-168.5 179,-168.5"/>
<text text-anchor="middle" x="212" y="-175.5" font-family="Helvetica,sans-Serif" font-size="10.00">CGLLight.h</text>
</a>
</g>
</g>
<!-- Node4&#45;&gt;Node15 -->
<g id="edge14" class="edge"><title>Node4&#45;&gt;Node15</title>
<path fill="none" stroke="midnightblue" d="M212,-280.368C212,-262.617 212,-221.666 212,-197.597"/>
<polygon fill="midnightblue" stroke="midnightblue" points="215.5,-197.591 212,-187.591 208.5,-197.591 215.5,-197.591"/>
</g>
<!-- Node6 -->
<g id="node6" class="node"><title>Node6</title>
<g id="a_node6"><a xlink:href="$df/d5b/_c_g_l_camera_8h.xhtml" xlink:title="CGLCamera.h">
<polygon fill="white" stroke="black" points="263,-168.5 263,-187.5 343,-187.5 343,-168.5 263,-168.5"/>
<text text-anchor="middle" x="303" y="-175.5" font-family="Helvetica,sans-Serif" font-size="10.00">CGLCamera.h</text>
</a>
</g>
</g>
<!-- Node5&#45;&gt;Node6 -->
<g id="edge5" class="edge"><title>Node5&#45;&gt;Node6</title>
<path fill="none" stroke="midnightblue" d="M297.991,-224.083C298.786,-216.927 299.929,-206.635 300.923,-197.691"/>
<polygon fill="midnightblue" stroke="midnightblue" points="304.402,-198.076 302.028,-187.751 297.445,-197.303 304.402,-198.076"/>
</g>
<!-- Node7 -->
<g id="node7" class="node"><title>Node7</title>
<g id="a_node7"><a xlink:href="$dc/db8/_c_g_l_special_8h.xhtml" xlink:title="CGLSpecial.h">
<polygon fill="white" stroke="black" points="264.5,-112.5 264.5,-131.5 341.5,-131.5 341.5,-112.5 264.5,-112.5"/>
<text text-anchor="middle" x="303" y="-119.5" font-family="Helvetica,sans-Serif" font-size="10.00">CGLSpecial.h</text>
</a>
</g>
</g>
<!-- Node6&#45;&gt;Node7 -->
<g id="edge6" class="edge"><title>Node6&#45;&gt;Node7</title>
<path fill="none" stroke="midnightblue" d="M303,-168.083C303,-161.006 303,-150.861 303,-141.986"/>
<polygon fill="midnightblue" stroke="midnightblue" points="306.5,-141.751 303,-131.751 299.5,-141.751 306.5,-141.751"/>
</g>
<!-- Node8 -->
<g id="node8" class="node"><title>Node8</title>
<g id="a_node8"><a xlink:href="$d6/d55/_c_g_l_object_8h.xhtml" xlink:title="CGLObject.h">
<polygon fill="white" stroke="black" points="339,-56.5 339,-75.5 413,-75.5 413,-56.5 339,-56.5"/>
<text text-anchor="middle" x="376" y="-63.5" font-family="Helvetica,sans-Serif" font-size="10.00">CGLObject.h</text>
</a>
</g>
</g>
<!-- Node7&#45;&gt;Node8 -->
<g id="edge7" class="edge"><title>Node7&#45;&gt;Node8</title>
<path fill="none" stroke="midnightblue" d="M314.729,-112.324C325.837,-104.107 342.742,-91.6017 355.983,-81.8069"/>
<polygon fill="midnightblue" stroke="midnightblue" points="358.1,-84.5948 364.058,-75.8339 353.937,-78.9671 358.1,-84.5948"/>
</g>
<!-- Node9 -->
<g id="node9" class="node"><title>Node9</title>
<polygon fill="white" stroke="#bfbfbf" points="172,-0.5 172,-19.5 226,-19.5 226,-0.5 172,-0.5"/>
<text text-anchor="middle" x="199" y="-7.5" font-family="Helvetica,sans-Serif" font-size="10.00">iostream</text>
</g>
<!-- Node8&#45;&gt;Node9 -->
<g id="edge8" class="edge"><title>Node8&#45;&gt;Node9</title>
<path fill="none" stroke="midnightblue" d="M347.954,-56.4435C317.653,-47.1993 269.242,-32.4296 235.878,-22.2511"/>
<polygon fill="midnightblue" stroke="midnightblue" points="236.63,-18.8213 226.044,-19.2508 234.588,-25.5166 236.63,-18.8213"/>
</g>
<!-- Node10 -->
<g id="node10" class="node"><title>Node10</title>
<polygon fill="white" stroke="#bfbfbf" points="244,-0.5 244,-19.5 292,-19.5 292,-0.5 244,-0.5"/>
<text text-anchor="middle" x="268" y="-7.5" font-family="Helvetica,sans-Serif" font-size="10.00">GL/gl.h</text>
</g>
<!-- Node8&#45;&gt;Node10 -->
<g id="edge9" class="edge"><title>Node8&#45;&gt;Node10</title>
<path fill="none" stroke="midnightblue" d="M358.648,-56.324C341.328,-47.6641 314.485,-34.2424 294.498,-24.249"/>
<polygon fill="midnightblue" stroke="midnightblue" points="295.819,-20.9962 285.309,-19.6545 292.688,-27.2572 295.819,-20.9962"/>
</g>
<!-- Node11 -->
<g id="node11" class="node"><title>Node11</title>
<polygon fill="white" stroke="#bfbfbf" points="310.5,-0.5 310.5,-19.5 363.5,-19.5 363.5,-0.5 310.5,-0.5"/>
<text text-anchor="middle" x="337" y="-7.5" font-family="Helvetica,sans-Serif" font-size="10.00">GL/glu.h</text>
</g>
<!-- Node8&#45;&gt;Node11 -->
<g id="edge10" class="edge"><title>Node8&#45;&gt;Node11</title>
<path fill="none" stroke="midnightblue" d="M369.56,-56.083C364.051,-48.4554 355.969,-37.2645 349.235,-27.9408"/>
<polygon fill="midnightblue" stroke="midnightblue" points="352.013,-25.8087 343.32,-19.7511 346.338,-29.9071 352.013,-25.8087"/>
</g>
<!-- Node12 -->
<g id="node12" class="node"><title>Node12</title>
<polygon fill="white" stroke="#bfbfbf" points="381.5,-0.5 381.5,-19.5 448.5,-19.5 448.5,-0.5 381.5,-0.5"/>
<text text-anchor="middle" x="415" y="-7.5" font-family="Helvetica,sans-Serif" font-size="10.00">SDL/SDL.h</text>
</g>
<!-- Node8&#45;&gt;Node12 -->
<g id="edge11" class="edge"><title>Node8&#45;&gt;Node12</title>
<path fill="none" stroke="midnightblue" d="M382.44,-56.083C387.949,-48.4554 396.031,-37.2645 402.765,-27.9408"/>
<polygon fill="midnightblue" stroke="midnightblue" points="405.662,-29.9071 408.68,-19.7511 399.987,-25.8087 405.662,-29.9071"/>
</g>
<!-- Node13 -->
<g id="node13" class="node"><title>Node13</title>
<polygon fill="white" stroke="#bfbfbf" points="466.5,-0.5 466.5,-19.5 507.5,-19.5 507.5,-0.5 466.5,-0.5"/>
<text text-anchor="middle" x="487" y="-7.5" font-family="Helvetica,sans-Serif" font-size="10.00">string</text>
</g>
<!-- Node8&#45;&gt;Node13 -->
<g id="edge12" class="edge"><title>Node8&#45;&gt;Node13</title>
<path fill="none" stroke="midnightblue" d="M393.834,-56.324C411.716,-47.6247 439.475,-34.1202 460.046,-24.113"/>
<polygon fill="midnightblue" stroke="midnightblue" points="461.749,-27.1765 469.21,-19.6545 458.687,-20.8819 461.749,-27.1765"/>
</g>
<!-- Node14 -->
<g id="node14" class="node"><title>Node14</title>
<polygon fill="white" stroke="#bfbfbf" points="525.5,-0.5 525.5,-19.5 554.5,-19.5 554.5,-0.5 525.5,-0.5"/>
<text text-anchor="middle" x="540" y="-7.5" font-family="Helvetica,sans-Serif" font-size="10.00">list</text>
</g>
<!-- Node8&#45;&gt;Node14 -->
<g id="edge13" class="edge"><title>Node8&#45;&gt;Node14</title>
<path fill="none" stroke="midnightblue" d="M404.021,-56.4255C430.495,-48.23 471.512,-35.2901 515.817,-19.9433"/>
<polygon fill="midnightblue" stroke="midnightblue" points="517.026,-23.2285 525.317,-16.6327 514.722,-16.6184 517.026,-23.2285"/>
</g>
<!-- Node15&#45;&gt;Node7 -->
<g id="edge15" class="edge"><title>Node15&#45;&gt;Node7</title>
<path fill="none" stroke="midnightblue" d="M226.621,-168.324C240.949,-159.822 263.013,-146.729 279.749,-136.797"/>
<polygon fill="midnightblue" stroke="midnightblue" points="281.602,-139.768 288.416,-131.655 278.03,-133.748 281.602,-139.768"/>
</g>
<!-- Node17 -->
<g id="node17" class="node"><title>Node17</title>
<g id="a_node17"><a xlink:href="$d2/d5a/_c_g_l_item_8h.xhtml" xlink:title="CGLItem.h">
<polygon fill="white" stroke="black" points="343.5,-280.5 343.5,-299.5 408.5,-299.5 408.5,-280.5 343.5,-280.5"/>
<text text-anchor="middle" x="376" y="-287.5" font-family="Helvetica,sans-Serif" font-size="10.00">CGLItem.h</text>
</a>
</g>
</g>
<!-- Node16&#45;&gt;Node17 -->
<g id="edge17" class="edge"><title>Node16&#45;&gt;Node17</title>
<path fill="none" stroke="midnightblue" d="M376,-336.083C376,-329.006 376,-318.861 376,-309.986"/>
<polygon fill="midnightblue" stroke="midnightblue" points="379.5,-309.751 376,-299.751 372.5,-309.751 379.5,-309.751"/>
</g>
<!-- Node18 -->
<g id="node18" class="node"><title>Node18</title>
<g id="a_node18"><a xlink:href="$dc/dee/_c_g_l_vector2_d_8h.xhtml" xlink:title="CGLVector2D.h">
<polygon fill="white" stroke="black" points="499,-224.5 499,-243.5 585,-243.5 585,-224.5 499,-224.5"/>
<text text-anchor="middle" x="542" y="-231.5" font-family="Helvetica,sans-Serif" font-size="10.00">CGLVector2D.h</text>
</a>
</g>
</g>
<!-- Node16&#45;&gt;Node18 -->
<g id="edge19" class="edge"><title>Node16&#45;&gt;Node18</title>
<path fill="none" stroke="midnightblue" d="M389.026,-336.368C417.511,-317.492 485.583,-272.385 520.516,-249.237"/>
<polygon fill="midnightblue" stroke="midnightblue" points="522.632,-252.033 529.035,-243.591 518.765,-246.198 522.632,-252.033"/>
</g>
<!-- Node17&#45;&gt;Node8 -->
<g id="edge18" class="edge"><title>Node17&#45;&gt;Node8</title>
<path fill="none" stroke="midnightblue" d="M376,-280.297C376,-247.633 376,-131.866 376,-85.9573"/>
<polygon fill="midnightblue" stroke="midnightblue" points="379.5,-85.8837 376,-75.8837 372.5,-85.8838 379.5,-85.8837"/>
</g>
<!-- Node20 -->
<g id="node20" class="node"><title>Node20</title>
<g id="a_node20"><a xlink:href="$db/d17/_c_g_l_boite_8h.xhtml" xlink:title="CGLBoite.h">
<polygon fill="white" stroke="black" points="106,-336.5 106,-355.5 174,-355.5 174,-336.5 106,-336.5"/>
<text text-anchor="middle" x="140" y="-343.5" font-family="Helvetica,sans-Serif" font-size="10.00">CGLBoite.h</text>
</a>
</g>
</g>
<!-- Node19&#45;&gt;Node20 -->
<g id="edge21" class="edge"><title>Node19&#45;&gt;Node20</title>
<path fill="none" stroke="midnightblue" d="M166.716,-392.083C162.289,-384.613 155.837,-373.724 150.382,-364.52"/>
<polygon fill="midnightblue" stroke="midnightblue" points="153.295,-362.57 145.186,-355.751 147.273,-366.138 153.295,-362.57"/>
</g>
<!-- Node20&#45;&gt;Node17 -->
<g id="edge22" class="edge"><title>Node20&#45;&gt;Node17</title>
<path fill="none" stroke="midnightblue" d="M174.064,-337.206C216.193,-327.566 287.917,-311.155 333.576,-300.707"/>
<polygon fill="midnightblue" stroke="midnightblue" points="334.497,-304.087 343.464,-298.445 332.936,-297.263 334.497,-304.087"/>
</g>
<!-- Node22 -->
<g id="node22" class="node"><title>Node22</title>
<g id="a_node22"><a xlink:href="$d7/d27/_c_g_l_effect_8h.xhtml" xlink:title="CGLEffect.h">
<polygon fill="white" stroke="black" points="941.5,-280.5 941.5,-299.5 1012.5,-299.5 1012.5,-280.5 941.5,-280.5"/>
<text text-anchor="middle" x="977" y="-287.5" font-family="Helvetica,sans-Serif" font-size="10.00">CGLEffect.h</text>
</a>
</g>
</g>
<!-- Node21&#45;&gt;Node22 -->
<g id="edge24" class="edge"><title>Node21&#45;&gt;Node22</title>
<path fill="none" stroke="midnightblue" d="M1075.46,-336.444C1056.38,-327.636 1026.43,-313.812 1004.56,-303.722"/>
<polygon fill="midnightblue" stroke="midnightblue" points="1006,-300.529 995.452,-299.516 1003.07,-306.885 1006,-300.529"/>
</g>
<!-- Node23 -->
<g id="node23" class="node"><title>Node23</title>
<g id="a_node23"><a xlink:href="$dd/d83/_c_g_l_vector3_d_8h.xhtml" xlink:title="CGLVector3D.h">
<polygon fill="white" stroke="black" points="812,-280.5 812,-299.5 898,-299.5 898,-280.5 812,-280.5"/>
<text text-anchor="middle" x="855" y="-287.5" font-family="Helvetica,sans-Serif" font-size="10.00">CGLVector3D.h</text>
</a>
</g>
</g>
<!-- Node21&#45;&gt;Node23 -->
<g id="edge26" class="edge"><title>Node21&#45;&gt;Node23</title>
<path fill="none" stroke="midnightblue" d="M1056.13,-336.444C1014.52,-327.043 947.631,-311.929 902.531,-301.739"/>
<polygon fill="midnightblue" stroke="midnightblue" points="903.219,-298.306 892.693,-299.516 901.676,-305.134 903.219,-298.306"/>
</g>
<!-- Node22&#45;&gt;Node8 -->
<g id="edge25" class="edge"><title>Node22&#45;&gt;Node8</title>
<path fill="none" stroke="midnightblue" d="M953.808,-280.433C861.032,-246.163 516.428,-118.872 408.522,-79.013"/>
<polygon fill="midnightblue" stroke="midnightblue" points="409.716,-75.723 399.123,-75.5411 407.29,-82.2894 409.716,-75.723"/>
</g>
<!-- Node23&#45;&gt;Node18 -->
<g id="edge27" class="edge"><title>Node23&#45;&gt;Node18</title>
<path fill="none" stroke="midnightblue" d="M811.807,-281.548C755.37,-271.811 656.56,-254.764 595.461,-244.223"/>
<polygon fill="midnightblue" stroke="midnightblue" points="595.701,-240.713 585.252,-242.462 594.511,-247.611 595.701,-240.713"/>
</g>
<!-- Node24&#45;&gt;Node22 -->
<g id="edge29" class="edge"><title>Node24&#45;&gt;Node22</title>
<path fill="none" stroke="midnightblue" d="M842.456,-392.368C867.297,-373.653 926.363,-329.151 957.313,-305.832"/>
<polygon fill="midnightblue" stroke="midnightblue" points="959.716,-308.404 965.597,-299.591 955.504,-302.814 959.716,-308.404"/>
</g>
<!-- Node25 -->
<g id="node25" class="node"><title>Node25</title>
<g id="a_node25"><a xlink:href="$df/dcb/_c_g_l_vector4_d_8h.xhtml" xlink:title="CGLVector4D.h">
<polygon fill="white" stroke="black" points="788,-336.5 788,-355.5 874,-355.5 874,-336.5 788,-336.5"/>
<text text-anchor="middle" x="831" y="-343.5" font-family="Helvetica,sans-Serif" font-size="10.00">CGLVector4D.h</text>
</a>
</g>
</g>
<!-- Node24&#45;&gt;Node25 -->
<g id="edge30" class="edge"><title>Node24&#45;&gt;Node25</title>
<path fill="none" stroke="midnightblue" d="M831,-392.083C831,-385.006 831,-374.861 831,-365.986"/>
<polygon fill="midnightblue" stroke="midnightblue" points="834.5,-365.751 831,-355.751 827.5,-365.751 834.5,-365.751"/>
</g>
<!-- Node25&#45;&gt;Node23 -->
<g id="edge31" class="edge"><title>Node25&#45;&gt;Node23</title>
<path fill="none" stroke="midnightblue" d="M834.963,-336.083C838.213,-328.77 842.919,-318.181 846.954,-309.103"/>
<polygon fill="midnightblue" stroke="midnightblue" points="850.248,-310.311 851.111,-299.751 843.851,-307.468 850.248,-310.311"/>
</g>
<!-- Node26&#45;&gt;Node22 -->
<g id="edge33" class="edge"><title>Node26&#45;&gt;Node22</title>
<path fill="none" stroke="midnightblue" d="M977,-336.083C977,-329.006 977,-318.861 977,-309.986"/>
<polygon fill="midnightblue" stroke="midnightblue" points="980.5,-309.751 977,-299.751 973.5,-309.751 980.5,-309.751"/>
</g>
<!-- Node26&#45;&gt;Node23 -->
<g id="edge34" class="edge"><title>Node26&#45;&gt;Node23</title>
<path fill="none" stroke="midnightblue" d="M957.669,-336.444C937.68,-327.596 906.257,-313.687 883.436,-303.586"/>
<polygon fill="midnightblue" stroke="midnightblue" points="884.802,-300.363 874.241,-299.516 881.968,-306.764 884.802,-300.363"/>
</g>
<!-- Node27&#45;&gt;Node22 -->
<g id="edge36" class="edge"><title>Node27&#45;&gt;Node22</title>
<path fill="none" stroke="midnightblue" d="M1178.97,-336.444C1136.45,-326.877 1067.64,-311.394 1022.35,-301.205"/>
<polygon fill="midnightblue" stroke="midnightblue" points="1023.03,-297.769 1012.5,-298.988 1021.49,-304.598 1023.03,-297.769"/>
</g>
<!-- Node27&#45;&gt;Node23 -->
<g id="edge37" class="edge"><title>Node27&#45;&gt;Node23</title>
<path fill="none" stroke="midnightblue" d="M1164.36,-337.148C1095.91,-326.937 976.993,-309.198 908.244,-298.942"/>
<polygon fill="midnightblue" stroke="midnightblue" points="908.474,-295.438 898.067,-297.424 907.441,-302.361 908.474,-295.438"/>
</g>
<!-- Node28&#45;&gt;Node17 -->
<g id="edge39" class="edge"><title>Node28&#45;&gt;Node17</title>
<path fill="none" stroke="midnightblue" d="M271.765,-392.108C258.077,-379.123 236.958,-354.507 250,-336 268.71,-309.451 304.572,-298.479 333.266,-293.988"/>
<polygon fill="midnightblue" stroke="midnightblue" points="334.027,-297.417 343.469,-292.61 333.09,-290.48 334.027,-297.417"/>
</g>
<!-- Node29&#45;&gt;Node17 -->
<g id="edge41" class="edge"><title>Node29&#45;&gt;Node17</title>
<path fill="none" stroke="midnightblue" d="M683.882,-337.462C680.877,-336.96 677.894,-336.468 675,-336 583.829,-321.251 476.75,-305.521 418.691,-297.124"/>
<polygon fill="midnightblue" stroke="midnightblue" points="419.175,-293.657 408.777,-295.692 418.174,-300.585 419.175,-293.657"/>
</g>
<!-- Node29&#45;&gt;Node23 -->
<g id="edge42" class="edge"><title>Node29&#45;&gt;Node23</title>
<path fill="none" stroke="midnightblue" d="M747.282,-336.444C768.347,-327.557 801.517,-313.563 825.486,-303.451"/>
<polygon fill="midnightblue" stroke="midnightblue" points="826.96,-306.628 834.813,-299.516 824.239,-300.179 826.96,-306.628"/>
</g>
<!-- Node30&#45;&gt;Node17 -->
<g id="edge44" class="edge"><title>Node30&#45;&gt;Node17</title>
<path fill="none" stroke="midnightblue" d="M473.619,-336.444C454.784,-327.675 425.269,-313.935 403.621,-303.858"/>
<polygon fill="midnightblue" stroke="midnightblue" points="404.838,-300.564 394.295,-299.516 401.883,-306.91 404.838,-300.564"/>
</g>
<!-- Node30&#45;&gt;Node18 -->
<g id="edge45" class="edge"><title>Node30&#45;&gt;Node18</title>
<path fill="none" stroke="midnightblue" d="M495.923,-336.368C504.065,-318.456 522.944,-276.923 533.842,-252.948"/>
<polygon fill="midnightblue" stroke="midnightblue" points="537.143,-254.143 538.095,-243.591 530.77,-251.247 537.143,-254.143"/>
</g>
<!-- Node31&#45;&gt;Node17 -->
<g id="edge47" class="edge"><title>Node31&#45;&gt;Node17</title>
<path fill="none" stroke="midnightblue" d="M576.288,-336.444C533.363,-326.704 463.407,-310.832 418.562,-300.657"/>
<polygon fill="midnightblue" stroke="midnightblue" points="419.09,-297.188 408.564,-298.388 417.541,-304.014 419.09,-297.188"/>
</g>
<!-- Node31&#45;&gt;Node18 -->
<g id="edge48" class="edge"><title>Node31&#45;&gt;Node18</title>
<path fill="none" stroke="midnightblue" d="M608.35,-336.368C596.468,-318.215 568.706,-275.802 553.121,-251.99"/>
<polygon fill="midnightblue" stroke="midnightblue" points="556.029,-250.042 547.623,-243.591 550.172,-253.875 556.029,-250.042"/>
</g>
<!-- Node32&#45;&gt;Node17 -->
<g id="edge50" class="edge"><title>Node32&#45;&gt;Node17</title>
<path fill="none" stroke="midnightblue" d="M348.944,-392.475C314.836,-384.308 269.702,-371.029 259,-356 236.836,-324.874 291.422,-306.916 333.302,-298.052"/>
<polygon fill="midnightblue" stroke="midnightblue" points="334.233,-301.435 343.352,-296.042 332.86,-294.571 334.233,-301.435"/>
</g>
<!-- Node33 -->
<g id="node33" class="node"><title>Node33</title>
<polygon fill="white" stroke="#bfbfbf" points="268,-336.5 268,-355.5 312,-355.5 312,-336.5 268,-336.5"/>
<text text-anchor="middle" x="290" y="-343.5" font-family="Helvetica,sans-Serif" font-size="10.00">cmath</text>
</g>
<!-- Node32&#45;&gt;Node33 -->
<g id="edge51" class="edge"><title>Node32&#45;&gt;Node33</title>
<path fill="none" stroke="midnightblue" d="M373.094,-392.324C357.362,-383.743 333.058,-370.486 314.791,-360.522"/>
<polygon fill="midnightblue" stroke="midnightblue" points="316.322,-357.37 305.867,-355.655 312.97,-363.516 316.322,-357.37"/>
</g>
<!-- Node34&#45;&gt;Node21 -->
<g id="edge53" class="edge"><title>Node34&#45;&gt;Node21</title>
<path fill="none" stroke="midnightblue" d="M1014.26,-392.324C1029.22,-383.822 1052.25,-370.729 1069.73,-360.797"/>
<polygon fill="midnightblue" stroke="midnightblue" points="1071.81,-363.639 1078.77,-355.655 1068.35,-357.553 1071.81,-363.639"/>
</g>
</g>
</svg>
