<?xml version="1.0" encoding="UTF-8" standalone="no"?>
<!DOCTYPE svg PUBLIC "-//W3C//DTD SVG 1.1//EN"
 "http://www.w3.org/Graphics/SVG/1.1/DTD/svg11.dtd">
<!-- Generated by graphviz version 2.36.0 (20140111.2315)
 -->
<!-- Title: src/DamierGL.cpp Pages: 1 -->
<svg width="1024pt" height="476pt"
 viewBox="0.00 0.00 1024.00 476.00" xmlns="http://www.w3.org/2000/svg" xmlns:xlink="http://www.w3.org/1999/xlink">
<g id="graph0" class="graph" transform="scale(1 1) rotate(0) translate(4 472)">
<title>src/DamierGL.cpp</title>
<polygon fill="white" stroke="none" points="-4,4 -4,-472 1020,-472 1020,4 -4,4"/>
<!-- Node1 -->
<g id="node1" class="node"><title>Node1</title>
<polygon fill="#bfbfbf" stroke="black" points="395,-448.5 395,-467.5 491,-467.5 491,-448.5 395,-448.5"/>
<text text-anchor="middle" x="443" y="-455.5" font-family="Helvetica,sans-Serif" font-size="10.00">src/DamierGL.cpp</text>
</g>
<!-- Node2 -->
<g id="node2" class="node"><title>Node2</title>
<g id="a_node2"><a xlink:href="$de/d42/_window_8h.xhtml" xlink:title="CGL/Window.h">
<polygon fill="white" stroke="black" points="-0.5,-392.5 -0.5,-411.5 82.5,-411.5 82.5,-392.5 -0.5,-392.5"/>
<text text-anchor="middle" x="41" y="-399.5" font-family="Helvetica,sans-Serif" font-size="10.00">CGL/Window.h</text>
</a>
</g>
</g>
<!-- Node1&#45;&gt;Node2 -->
<g id="edge1" class="edge"><title>Node1&#45;&gt;Node2</title>
<path fill="none" stroke="midnightblue" d="M394.821,-450.939C328.577,-442.542 205.668,-426.735 101,-412 98.306,-411.621 95.5449,-411.226 92.7576,-410.824"/>
<polygon fill="midnightblue" stroke="midnightblue" points="93.0244,-407.326 82.6234,-409.343 92.0121,-414.252 93.0244,-407.326"/>
</g>
<!-- Node16 -->
<g id="node16" class="node"><title>Node16</title>
<g id="a_node16"><a xlink:href="$db/dc0/_quad_8h.xhtml" xlink:title="CGL/Quad.h">
<polygon fill="white" stroke="black" points="71.5,-336.5 71.5,-355.5 142.5,-355.5 142.5,-336.5 71.5,-336.5"/>
<text text-anchor="middle" x="107" y="-343.5" font-family="Helvetica,sans-Serif" font-size="10.00">CGL/Quad.h</text>
</a>
</g>
</g>
<!-- Node1&#45;&gt;Node16 -->
<g id="edge16" class="edge"><title>Node1&#45;&gt;Node16</title>
<path fill="none" stroke="midnightblue" d="M394.705,-454.973C320.243,-451 181.824,-439.99 142,-412 126.306,-400.969 116.999,-380.619 111.976,-365.616"/>
<polygon fill="midnightblue" stroke="midnightblue" points="115.271,-364.42 109.045,-355.847 108.566,-366.431 115.271,-364.42"/>
</g>
<!-- Node20 -->
<g id="node20" class="node"><title>Node20</title>
<g id="a_node20"><a xlink:href="$d7/daf/_robot1_8h.xhtml" xlink:title="CGL/Robot1.h">
<polygon fill="white" stroke="black" points="245,-392.5 245,-411.5 325,-411.5 325,-392.5 245,-392.5"/>
<text text-anchor="middle" x="285" y="-399.5" font-family="Helvetica,sans-Serif" font-size="10.00">CGL/Robot1.h</text>
</a>
</g>
</g>
<!-- Node1&#45;&gt;Node20 -->
<g id="edge21" class="edge"><title>Node1&#45;&gt;Node20</title>
<path fill="none" stroke="midnightblue" d="M417.964,-448.444C391.384,-439.359 349.191,-424.939 319.477,-414.783"/>
<polygon fill="midnightblue" stroke="midnightblue" points="320.513,-411.439 309.918,-411.516 318.249,-418.062 320.513,-411.439"/>
</g>
<!-- Node22 -->
<g id="node22" class="node"><title>Node22</title>
<g id="a_node22"><a xlink:href="$d9/df8/_color_8h.xhtml" xlink:title="CGL/Color.h">
<polygon fill="white" stroke="black" points="635.5,-392.5 635.5,-411.5 706.5,-411.5 706.5,-392.5 635.5,-392.5"/>
<text text-anchor="middle" x="671" y="-399.5" font-family="Helvetica,sans-Serif" font-size="10.00">CGL/Color.h</text>
</a>
</g>
</g>
<!-- Node1&#45;&gt;Node22 -->
<g id="edge24" class="edge"><title>Node1&#45;&gt;Node22</title>
<path fill="none" stroke="midnightblue" d="M479.127,-448.444C518.767,-439.055 582.47,-423.968 625.492,-413.778"/>
<polygon fill="midnightblue" stroke="midnightblue" points="626.493,-417.138 635.417,-411.428 624.88,-410.326 626.493,-417.138"/>
</g>
<!-- Node26 -->
<g id="node26" class="node"><title>Node26</title>
<g id="a_node26"><a xlink:href="$d4/d81/_scale_8h.xhtml" xlink:title="CGL/Scale.h">
<polygon fill="white" stroke="black" points="862.5,-336.5 862.5,-355.5 935.5,-355.5 935.5,-336.5 862.5,-336.5"/>
<text text-anchor="middle" x="899" y="-343.5" font-family="Helvetica,sans-Serif" font-size="10.00">CGL/Scale.h</text>
</a>
</g>
</g>
<!-- Node1&#45;&gt;Node26 -->
<g id="edge30" class="edge"><title>Node1&#45;&gt;Node26</title>
<path fill="none" stroke="midnightblue" d="M491.19,-451.625C545.975,-444.917 637.819,-431.853 715,-412 770.634,-397.69 833.29,-373.821 869.26,-359.333"/>
<polygon fill="midnightblue" stroke="midnightblue" points="870.722,-362.517 878.67,-355.512 868.088,-356.032 870.722,-362.517"/>
</g>
<!-- Node27 -->
<g id="node27" class="node"><title>Node27</title>
<g id="a_node27"><a xlink:href="$d3/d94/_dot_8h.xhtml" xlink:title="CGL/Dot.h">
<polygon fill="white" stroke="black" points="151,-392.5 151,-411.5 215,-411.5 215,-392.5 151,-392.5"/>
<text text-anchor="middle" x="183" y="-399.5" font-family="Helvetica,sans-Serif" font-size="10.00">CGL/Dot.h</text>
</a>
</g>
</g>
<!-- Node1&#45;&gt;Node27 -->
<g id="edge33" class="edge"><title>Node1&#45;&gt;Node27</title>
<path fill="none" stroke="midnightblue" d="M401.802,-448.444C353.543,-438.421 274.011,-421.902 225.287,-411.783"/>
<polygon fill="midnightblue" stroke="midnightblue" points="225.883,-408.332 215.38,-409.725 224.459,-415.186 225.883,-408.332"/>
</g>
<!-- Node28 -->
<g id="node28" class="node"><title>Node28</title>
<g id="a_node28"><a xlink:href="$d0/dee/_line_8h.xhtml" xlink:title="CGL/Line.h">
<polygon fill="white" stroke="black" points="554,-336.5 554,-355.5 620,-355.5 620,-336.5 554,-336.5"/>
<text text-anchor="middle" x="587" y="-343.5" font-family="Helvetica,sans-Serif" font-size="10.00">CGL/Line.h</text>
</a>
</g>
</g>
<!-- Node1&#45;&gt;Node28 -->
<g id="edge35" class="edge"><title>Node1&#45;&gt;Node28</title>
<path fill="none" stroke="midnightblue" d="M454.299,-448.368C478.8,-429.653 537.057,-385.151 567.583,-361.832"/>
<polygon fill="midnightblue" stroke="midnightblue" points="569.931,-364.443 575.753,-355.591 565.682,-358.881 569.931,-364.443"/>
</g>
<!-- Node29 -->
<g id="node29" class="node"><title>Node29</title>
<g id="a_node29"><a xlink:href="$db/de5/_triangle_8h.xhtml" xlink:title="CGL/Triangle.h">
<polygon fill="white" stroke="black" points="259.5,-336.5 259.5,-355.5 342.5,-355.5 342.5,-336.5 259.5,-336.5"/>
<text text-anchor="middle" x="301" y="-343.5" font-family="Helvetica,sans-Serif" font-size="10.00">CGL/Triangle.h</text>
</a>
</g>
</g>
<!-- Node1&#45;&gt;Node29 -->
<g id="edge38" class="edge"><title>Node1&#45;&gt;Node29</title>
<path fill="none" stroke="midnightblue" d="M431.857,-448.368C407.698,-429.653 350.249,-385.151 320.147,-361.832"/>
<polygon fill="midnightblue" stroke="midnightblue" points="322.14,-358.949 312.091,-355.591 317.853,-364.482 322.14,-358.949"/>
</g>
<!-- Node30 -->
<g id="node30" class="node"><title>Node30</title>
<g id="a_node30"><a xlink:href="$da/d08/_polygon_8h.xhtml" xlink:title="CGL/Polygon.h">
<polygon fill="white" stroke="black" points="360.5,-336.5 360.5,-355.5 443.5,-355.5 443.5,-336.5 360.5,-336.5"/>
<text text-anchor="middle" x="402" y="-343.5" font-family="Helvetica,sans-Serif" font-size="10.00">CGL/Polygon.h</text>
</a>
</g>
</g>
<!-- Node1&#45;&gt;Node30 -->
<g id="edge41" class="edge"><title>Node1&#45;&gt;Node30</title>
<path fill="none" stroke="midnightblue" d="M439.783,-448.368C433.136,-430.537 417.765,-389.295 408.81,-365.272"/>
<polygon fill="midnightblue" stroke="midnightblue" points="411.974,-363.739 405.202,-355.591 405.415,-366.184 411.974,-363.739"/>
</g>
<!-- Node31 -->
<g id="node31" class="node"><title>Node31</title>
<g id="a_node31"><a xlink:href="$db/d50/_circle_8h.xhtml" xlink:title="CGL/Circle.h">
<polygon fill="white" stroke="black" points="462,-336.5 462,-355.5 536,-355.5 536,-336.5 462,-336.5"/>
<text text-anchor="middle" x="499" y="-343.5" font-family="Helvetica,sans-Serif" font-size="10.00">CGL/Circle.h</text>
</a>
</g>
</g>
<!-- Node1&#45;&gt;Node31 -->
<g id="edge44" class="edge"><title>Node1&#45;&gt;Node31</title>
<path fill="none" stroke="midnightblue" d="M447.394,-448.368C456.554,-430.376 477.847,-388.55 490.026,-364.627"/>
<polygon fill="midnightblue" stroke="midnightblue" points="493.208,-366.091 494.626,-355.591 486.97,-362.915 493.208,-366.091"/>
</g>
<!-- Node32 -->
<g id="node32" class="node"><title>Node32</title>
<g id="a_node32"><a xlink:href="$d4/d51/_position_8h.xhtml" xlink:title="CGL/Position.h">
<polygon fill="white" stroke="black" points="722.5,-336.5 722.5,-355.5 805.5,-355.5 805.5,-336.5 722.5,-336.5"/>
<text text-anchor="middle" x="764" y="-343.5" font-family="Helvetica,sans-Serif" font-size="10.00">CGL/Position.h</text>
</a>
</g>
</g>
<!-- Node1&#45;&gt;Node32 -->
<g id="edge47" class="edge"><title>Node1&#45;&gt;Node32</title>
<path fill="none" stroke="midnightblue" d="M466.331,-448.493C501.045,-435.886 568.393,-411.619 626,-392 660.311,-380.314 699.631,-367.554 727.499,-358.616"/>
<polygon fill="midnightblue" stroke="midnightblue" points="728.761,-361.887 737.218,-355.505 726.627,-355.22 728.761,-361.887"/>
</g>
<!-- Node33 -->
<g id="node33" class="node"><title>Node33</title>
<g id="a_node33"><a xlink:href="$df/dd1/_rotation_speed_8h.xhtml" xlink:title="CGL/RotationSpeed.h">
<polygon fill="white" stroke="black" points="886.5,-392.5 886.5,-411.5 999.5,-411.5 999.5,-392.5 886.5,-392.5"/>
<text text-anchor="middle" x="943" y="-399.5" font-family="Helvetica,sans-Serif" font-size="10.00">CGL/RotationSpeed.h</text>
</a>
</g>
</g>
<!-- Node1&#45;&gt;Node33 -->
<g id="edge50" class="edge"><title>Node1&#45;&gt;Node33</title>
<path fill="none" stroke="midnightblue" d="M491.396,-451.773C581.198,-442.075 773.76,-421.278 876.008,-410.235"/>
<polygon fill="midnightblue" stroke="midnightblue" points="876.649,-413.686 886.215,-409.133 875.897,-406.727 876.649,-413.686"/>
</g>
<!-- Node3 -->
<g id="node3" class="node"><title>Node3</title>
<g id="a_node3"><a xlink:href="$d8/d86/_world_8h.xhtml" xlink:title="World.h">
<polygon fill="white" stroke="black" points="3,-336.5 3,-355.5 53,-355.5 53,-336.5 3,-336.5"/>
<text text-anchor="middle" x="28" y="-343.5" font-family="Helvetica,sans-Serif" font-size="10.00">World.h</text>
</a>
</g>
</g>
<!-- Node2&#45;&gt;Node3 -->
<g id="edge2" class="edge"><title>Node2&#45;&gt;Node3</title>
<path fill="none" stroke="midnightblue" d="M38.8533,-392.083C37.1306,-384.927 34.6529,-374.635 32.4997,-365.691"/>
<polygon fill="midnightblue" stroke="midnightblue" points="35.8501,-364.654 30.1067,-355.751 29.0446,-366.293 35.8501,-364.654"/>
</g>
<!-- Node4 -->
<g id="node4" class="node"><title>Node4</title>
<g id="a_node4"><a xlink:href="$de/d56/_scene_8h.xhtml" xlink:title="Scene.h">
<polygon fill="white" stroke="black" points="83.5,-280.5 83.5,-299.5 136.5,-299.5 136.5,-280.5 83.5,-280.5"/>
<text text-anchor="middle" x="110" y="-287.5" font-family="Helvetica,sans-Serif" font-size="10.00">Scene.h</text>
</a>
</g>
</g>
<!-- Node3&#45;&gt;Node4 -->
<g id="edge3" class="edge"><title>Node3&#45;&gt;Node4</title>
<path fill="none" stroke="midnightblue" d="M41.1747,-336.324C53.8468,-327.979 73.2334,-315.212 88.2056,-305.352"/>
<polygon fill="midnightblue" stroke="midnightblue" points="90.4312,-308.078 96.858,-299.655 86.5813,-302.231 90.4312,-308.078"/>
</g>
<!-- Node5 -->
<g id="node5" class="node"><title>Node5</title>
<g id="a_node5"><a xlink:href="$db/da6/_camera_list_8h.xhtml" xlink:title="CameraList.h">
<polygon fill="white" stroke="black" points="140.5,-224.5 140.5,-243.5 215.5,-243.5 215.5,-224.5 140.5,-224.5"/>
<text text-anchor="middle" x="178" y="-231.5" font-family="Helvetica,sans-Serif" font-size="10.00">CameraList.h</text>
</a>
</g>
</g>
<!-- Node4&#45;&gt;Node5 -->
<g id="edge4" class="edge"><title>Node4&#45;&gt;Node5</title>
<path fill="none" stroke="midnightblue" d="M120.925,-280.324C131.175,-272.185 146.721,-259.839 159.001,-250.087"/>
<polygon fill="midnightblue" stroke="midnightblue" points="161.221,-252.794 166.876,-243.834 156.868,-247.312 161.221,-252.794"/>
</g>
<!-- Node15 -->
<g id="node15" class="node"><title>Node15</title>
<g id="a_node15"><a xlink:href="$d2/d46/_light_8h.xhtml" xlink:title="Light.h">
<polygon fill="white" stroke="black" points="87,-168.5 87,-187.5 133,-187.5 133,-168.5 87,-168.5"/>
<text text-anchor="middle" x="110" y="-175.5" font-family="Helvetica,sans-Serif" font-size="10.00">Light.h</text>
</a>
</g>
</g>
<!-- Node4&#45;&gt;Node15 -->
<g id="edge14" class="edge"><title>Node4&#45;&gt;Node15</title>
<path fill="none" stroke="midnightblue" d="M110,-280.368C110,-262.617 110,-221.666 110,-197.597"/>
<polygon fill="midnightblue" stroke="midnightblue" points="113.5,-197.591 110,-187.591 106.5,-197.591 113.5,-197.591"/>
</g>
<!-- Node6 -->
<g id="node6" class="node"><title>Node6</title>
<g id="a_node6"><a xlink:href="$d5/d91/_camera_8h.xhtml" xlink:title="Camera.h">
<polygon fill="white" stroke="black" points="151.5,-168.5 151.5,-187.5 210.5,-187.5 210.5,-168.5 151.5,-168.5"/>
<text text-anchor="middle" x="181" y="-175.5" font-family="Helvetica,sans-Serif" font-size="10.00">Camera.h</text>
</a>
</g>
</g>
<!-- Node5&#45;&gt;Node6 -->
<g id="edge5" class="edge"><title>Node5&#45;&gt;Node6</title>
<path fill="none" stroke="midnightblue" d="M178.495,-224.083C178.889,-217.006 179.452,-206.861 179.945,-197.986"/>
<polygon fill="midnightblue" stroke="midnightblue" points="183.454,-197.93 180.514,-187.751 176.464,-197.542 183.454,-197.93"/>
</g>
<!-- Node7 -->
<g id="node7" class="node"><title>Node7</title>
<g id="a_node7"><a xlink:href="$dd/da2/_special_8h.xhtml" xlink:title="Special.h">
<polygon fill="white" stroke="black" points="152.5,-112.5 152.5,-131.5 209.5,-131.5 209.5,-112.5 152.5,-112.5"/>
<text text-anchor="middle" x="181" y="-119.5" font-family="Helvetica,sans-Serif" font-size="10.00">Special.h</text>
</a>
</g>
</g>
<!-- Node6&#45;&gt;Node7 -->
<g id="edge6" class="edge"><title>Node6&#45;&gt;Node7</title>
<path fill="none" stroke="midnightblue" d="M181,-168.083C181,-161.006 181,-150.861 181,-141.986"/>
<polygon fill="midnightblue" stroke="midnightblue" points="184.5,-141.751 181,-131.751 177.5,-141.751 184.5,-141.751"/>
</g>
<!-- Node8 -->
<g id="node8" class="node"><title>Node8</title>
<g id="a_node8"><a xlink:href="$df/d30/_object_8h.xhtml" xlink:title="Object.h">
<polygon fill="white" stroke="black" points="274.5,-56.5 274.5,-75.5 327.5,-75.5 327.5,-56.5 274.5,-56.5"/>
<text text-anchor="middle" x="301" y="-63.5" font-family="Helvetica,sans-Serif" font-size="10.00">Object.h</text>
</a>
</g>
</g>
<!-- Node7&#45;&gt;Node8 -->
<g id="edge7" class="edge"><title>Node7&#45;&gt;Node8</title>
<path fill="none" stroke="midnightblue" d="M200.014,-112.444C219.588,-103.636 250.308,-89.8116 272.729,-79.722"/>
<polygon fill="midnightblue" stroke="midnightblue" points="274.392,-82.8119 282.075,-75.5164 271.519,-76.4284 274.392,-82.8119"/>
</g>
<!-- Node9 -->
<g id="node9" class="node"><title>Node9</title>
<polygon fill="white" stroke="#bfbfbf" points="97,-0.5 97,-19.5 151,-19.5 151,-0.5 97,-0.5"/>
<text text-anchor="middle" x="124" y="-7.5" font-family="Helvetica,sans-Serif" font-size="10.00">iostream</text>
</g>
<!-- Node8&#45;&gt;Node9 -->
<g id="edge8" class="edge"><title>Node8&#45;&gt;Node9</title>
<path fill="none" stroke="midnightblue" d="M274.118,-56.7986C243.968,-47.6005 194.879,-32.6241 161.092,-22.3162"/>
<polygon fill="midnightblue" stroke="midnightblue" points="161.722,-18.8491 151.135,-19.2786 159.679,-25.5444 161.722,-18.8491"/>
</g>
<!-- Node10 -->
<g id="node10" class="node"><title>Node10</title>
<polygon fill="white" stroke="#bfbfbf" points="169,-0.5 169,-19.5 217,-19.5 217,-0.5 169,-0.5"/>
<text text-anchor="middle" x="193" y="-7.5" font-family="Helvetica,sans-Serif" font-size="10.00">GL/gl.h</text>
</g>
<!-- Node8&#45;&gt;Node10 -->
<g id="edge9" class="edge"><title>Node8&#45;&gt;Node10</title>
<path fill="none" stroke="midnightblue" d="M283.648,-56.324C266.328,-47.6641 239.485,-34.2424 219.498,-24.249"/>
<polygon fill="midnightblue" stroke="midnightblue" points="220.819,-20.9962 210.309,-19.6545 217.688,-27.2572 220.819,-20.9962"/>
</g>
<!-- Node11 -->
<g id="node11" class="node"><title>Node11</title>
<polygon fill="white" stroke="#bfbfbf" points="235.5,-0.5 235.5,-19.5 288.5,-19.5 288.5,-0.5 235.5,-0.5"/>
<text text-anchor="middle" x="262" y="-7.5" font-family="Helvetica,sans-Serif" font-size="10.00">GL/glu.h</text>
</g>
<!-- Node8&#45;&gt;Node11 -->
<g id="edge10" class="edge"><title>Node8&#45;&gt;Node11</title>
<path fill="none" stroke="midnightblue" d="M294.56,-56.083C289.051,-48.4554 280.969,-37.2645 274.235,-27.9408"/>
<polygon fill="midnightblue" stroke="midnightblue" points="277.013,-25.8087 268.32,-19.7511 271.338,-29.9071 277.013,-25.8087"/>
</g>
<!-- Node12 -->
<g id="node12" class="node"><title>Node12</title>
<polygon fill="white" stroke="#bfbfbf" points="306.5,-0.5 306.5,-19.5 373.5,-19.5 373.5,-0.5 306.5,-0.5"/>
<text text-anchor="middle" x="340" y="-7.5" font-family="Helvetica,sans-Serif" font-size="10.00">SDL/SDL.h</text>
</g>
<!-- Node8&#45;&gt;Node12 -->
<g id="edge11" class="edge"><title>Node8&#45;&gt;Node12</title>
<path fill="none" stroke="midnightblue" d="M307.44,-56.083C312.949,-48.4554 321.031,-37.2645 327.765,-27.9408"/>
<polygon fill="midnightblue" stroke="midnightblue" points="330.662,-29.9071 333.68,-19.7511 324.987,-25.8087 330.662,-29.9071"/>
</g>
<!-- Node13 -->
<g id="node13" class="node"><title>Node13</title>
<polygon fill="white" stroke="#bfbfbf" points="391.5,-0.5 391.5,-19.5 432.5,-19.5 432.5,-0.5 391.5,-0.5"/>
<text text-anchor="middle" x="412" y="-7.5" font-family="Helvetica,sans-Serif" font-size="10.00">string</text>
</g>
<!-- Node8&#45;&gt;Node13 -->
<g id="edge12" class="edge"><title>Node8&#45;&gt;Node13</title>
<path fill="none" stroke="midnightblue" d="M318.834,-56.324C336.716,-47.6247 364.475,-34.1202 385.046,-24.113"/>
<polygon fill="midnightblue" stroke="midnightblue" points="386.749,-27.1765 394.21,-19.6545 383.687,-20.8819 386.749,-27.1765"/>
</g>
<!-- Node14 -->
<g id="node14" class="node"><title>Node14</title>
<polygon fill="white" stroke="#bfbfbf" points="450.5,-0.5 450.5,-19.5 479.5,-19.5 479.5,-0.5 450.5,-0.5"/>
<text text-anchor="middle" x="465" y="-7.5" font-family="Helvetica,sans-Serif" font-size="10.00">list</text>
</g>
<!-- Node8&#45;&gt;Node14 -->
<g id="edge13" class="edge"><title>Node8&#45;&gt;Node14</title>
<path fill="none" stroke="midnightblue" d="M327.704,-56.833C354.092,-48.6722 395.806,-35.5298 440.695,-19.9853"/>
<polygon fill="midnightblue" stroke="midnightblue" points="442.025,-23.228 450.317,-16.6327 439.722,-16.6178 442.025,-23.228"/>
</g>
<!-- Node15&#45;&gt;Node7 -->
<g id="edge15" class="edge"><title>Node15&#45;&gt;Node7</title>
<path fill="none" stroke="midnightblue" d="M121.407,-168.324C132.109,-160.185 148.341,-147.839 161.163,-138.087"/>
<polygon fill="midnightblue" stroke="midnightblue" points="163.544,-140.673 169.385,-131.834 159.307,-135.102 163.544,-140.673"/>
</g>
<!-- Node17 -->
<g id="node17" class="node"><title>Node17</title>
<g id="a_node17"><a xlink:href="$da/d43/_item_8h.xhtml" xlink:title="Item.h">
<polygon fill="white" stroke="black" points="279,-280.5 279,-299.5 323,-299.5 323,-280.5 279,-280.5"/>
<text text-anchor="middle" x="301" y="-287.5" font-family="Helvetica,sans-Serif" font-size="10.00">Item.h</text>
</a>
</g>
</g>
<!-- Node16&#45;&gt;Node17 -->
<g id="edge17" class="edge"><title>Node16&#45;&gt;Node17</title>
<path fill="none" stroke="midnightblue" d="M137.74,-336.444C173.525,-326.483 232.357,-310.107 268.768,-299.972"/>
<polygon fill="midnightblue" stroke="midnightblue" points="270.157,-303.218 278.852,-297.165 268.28,-296.475 270.157,-303.218"/>
</g>
<!-- Node18 -->
<g id="node18" class="node"><title>Node18</title>
<g id="a_node18"><a xlink:href="$d1/dae/_vector2_d_8h.xhtml" xlink:title="Vector2D.h">
<polygon fill="white" stroke="black" points="369,-224.5 369,-243.5 435,-243.5 435,-224.5 369,-224.5"/>
<text text-anchor="middle" x="402" y="-231.5" font-family="Helvetica,sans-Serif" font-size="10.00">Vector2D.h</text>
</a>
</g>
</g>
<!-- Node16&#45;&gt;Node18 -->
<g id="edge19" class="edge"><title>Node16&#45;&gt;Node18</title>
<path fill="none" stroke="midnightblue" d="M127.455,-336.454C158.211,-323.694 218.276,-299.115 270,-280 302.22,-268.092 339.27,-255.562 365.9,-246.756"/>
<polygon fill="midnightblue" stroke="midnightblue" points="367.161,-250.026 375.564,-243.573 364.971,-243.377 367.161,-250.026"/>
</g>
<!-- Node17&#45;&gt;Node8 -->
<g id="edge18" class="edge"><title>Node17&#45;&gt;Node8</title>
<path fill="none" stroke="midnightblue" d="M301,-280.297C301,-247.633 301,-131.866 301,-85.9573"/>
<polygon fill="midnightblue" stroke="midnightblue" points="304.5,-85.8837 301,-75.8837 297.5,-85.8838 304.5,-85.8837"/>
</g>
<!-- Node19 -->
<g id="node19" class="node"><title>Node19</title>
<polygon fill="white" stroke="#bfbfbf" points="419,-168.5 419,-187.5 463,-187.5 463,-168.5 419,-168.5"/>
<text text-anchor="middle" x="441" y="-175.5" font-family="Helvetica,sans-Serif" font-size="10.00">cmath</text>
</g>
<!-- Node18&#45;&gt;Node19 -->
<g id="edge20" class="edge"><title>Node18&#45;&gt;Node19</title>
<path fill="none" stroke="midnightblue" d="M408.44,-224.083C413.949,-216.455 422.031,-205.264 428.765,-195.941"/>
<polygon fill="midnightblue" stroke="midnightblue" points="431.662,-197.907 434.68,-187.751 425.987,-193.809 431.662,-197.907"/>
</g>
<!-- Node21 -->
<g id="node21" class="node"><title>Node21</title>
<g id="a_node21"><a xlink:href="$d0/d5c/_box_8h.xhtml" xlink:title="Box.h">
<polygon fill="white" stroke="black" points="199,-336.5 199,-355.5 241,-355.5 241,-336.5 199,-336.5"/>
<text text-anchor="middle" x="220" y="-343.5" font-family="Helvetica,sans-Serif" font-size="10.00">Box.h</text>
</a>
</g>
</g>
<!-- Node20&#45;&gt;Node21 -->
<g id="edge22" class="edge"><title>Node20&#45;&gt;Node21</title>
<path fill="none" stroke="midnightblue" d="M274.557,-392.324C264.854,-384.263 250.185,-372.077 238.5,-362.369"/>
<polygon fill="midnightblue" stroke="midnightblue" points="240.562,-359.532 230.633,-355.834 236.089,-364.916 240.562,-359.532"/>
</g>
<!-- Node21&#45;&gt;Node17 -->
<g id="edge23" class="edge"><title>Node21&#45;&gt;Node17</title>
<path fill="none" stroke="midnightblue" d="M233.014,-336.324C245.532,-327.979 264.682,-315.212 279.471,-305.352"/>
<polygon fill="midnightblue" stroke="midnightblue" points="281.639,-308.114 288.018,-299.655 277.756,-302.289 281.639,-308.114"/>
</g>
<!-- Node23 -->
<g id="node23" class="node"><title>Node23</title>
<g id="a_node23"><a xlink:href="$dd/d44/_effect_8h.xhtml" xlink:title="Effect.h">
<polygon fill="white" stroke="black" points="808.5,-280.5 808.5,-299.5 859.5,-299.5 859.5,-280.5 808.5,-280.5"/>
<text text-anchor="middle" x="834" y="-287.5" font-family="Helvetica,sans-Serif" font-size="10.00">Effect.h</text>
</a>
</g>
</g>
<!-- Node22&#45;&gt;Node23 -->
<g id="edge25" class="edge"><title>Node22&#45;&gt;Node23</title>
<path fill="none" stroke="midnightblue" d="M706.623,-398.913C738.841,-395.144 785.474,-384.709 814,-356 826.083,-343.84 830.893,-324.566 832.794,-310.158"/>
<polygon fill="midnightblue" stroke="midnightblue" points="836.309,-310.164 833.778,-299.876 829.341,-309.497 836.309,-310.164"/>
</g>
<!-- Node24 -->
<g id="node24" class="node"><title>Node24</title>
<g id="a_node24"><a xlink:href="$da/d5a/_vector4_d_8h.xhtml" xlink:title="Vector4D.h">
<polygon fill="white" stroke="black" points="638,-336.5 638,-355.5 704,-355.5 704,-336.5 638,-336.5"/>
<text text-anchor="middle" x="671" y="-343.5" font-family="Helvetica,sans-Serif" font-size="10.00">Vector4D.h</text>
</a>
</g>
</g>
<!-- Node22&#45;&gt;Node24 -->
<g id="edge27" class="edge"><title>Node22&#45;&gt;Node24</title>
<path fill="none" stroke="midnightblue" d="M671,-392.083C671,-385.006 671,-374.861 671,-365.986"/>
<polygon fill="midnightblue" stroke="midnightblue" points="674.5,-365.751 671,-355.751 667.5,-365.751 674.5,-365.751"/>
</g>
<!-- Node23&#45;&gt;Node8 -->
<g id="edge26" class="edge"><title>Node23&#45;&gt;Node8</title>
<path fill="none" stroke="midnightblue" d="M813.432,-280.433C731.484,-246.301 427.998,-119.896 331.009,-79.4989"/>
<polygon fill="midnightblue" stroke="midnightblue" points="332.083,-76.1551 321.506,-75.5411 329.392,-82.617 332.083,-76.1551"/>
</g>
<!-- Node25 -->
<g id="node25" class="node"><title>Node25</title>
<g id="a_node25"><a xlink:href="$d6/d90/_vector3_d_8h.xhtml" xlink:title="Vector3D.h">
<polygon fill="white" stroke="black" points="681,-280.5 681,-299.5 747,-299.5 747,-280.5 681,-280.5"/>
<text text-anchor="middle" x="714" y="-287.5" font-family="Helvetica,sans-Serif" font-size="10.00">Vector3D.h</text>
</a>
</g>
</g>
<!-- Node24&#45;&gt;Node25 -->
<g id="edge28" class="edge"><title>Node24&#45;&gt;Node25</title>
<path fill="none" stroke="midnightblue" d="M678.101,-336.083C684.237,-328.377 693.27,-317.033 700.739,-307.653"/>
<polygon fill="midnightblue" stroke="midnightblue" points="703.54,-309.754 707.032,-299.751 698.064,-305.394 703.54,-309.754"/>
</g>
<!-- Node25&#45;&gt;Node18 -->
<g id="edge29" class="edge"><title>Node25&#45;&gt;Node18</title>
<path fill="none" stroke="midnightblue" d="M680.906,-283.272C624.156,-273.45 508.31,-253.4 445.247,-242.485"/>
<polygon fill="midnightblue" stroke="midnightblue" points="445.675,-239.007 435.224,-240.75 444.481,-245.905 445.675,-239.007"/>
</g>
<!-- Node26&#45;&gt;Node23 -->
<g id="edge31" class="edge"><title>Node26&#45;&gt;Node23</title>
<path fill="none" stroke="midnightblue" d="M888.557,-336.324C878.854,-328.263 864.185,-316.077 852.5,-306.369"/>
<polygon fill="midnightblue" stroke="midnightblue" points="854.562,-303.532 844.633,-299.834 850.089,-308.916 854.562,-303.532"/>
</g>
<!-- Node26&#45;&gt;Node25 -->
<g id="edge32" class="edge"><title>Node26&#45;&gt;Node25</title>
<path fill="none" stroke="midnightblue" d="M869.686,-336.444C838.158,-327.241 787.869,-312.562 753.014,-302.388"/>
<polygon fill="midnightblue" stroke="midnightblue" points="753.757,-298.959 743.177,-299.516 751.795,-305.678 753.757,-298.959"/>
</g>
<!-- Node27&#45;&gt;Node17 -->
<g id="edge34" class="edge"><title>Node27&#45;&gt;Node17</title>
<path fill="none" stroke="midnightblue" d="M181.364,-392.423C179.308,-378.956 177.42,-352.67 190,-336 208.605,-311.346 242.988,-300.152 268.577,-295.098"/>
<polygon fill="midnightblue" stroke="midnightblue" points="269.345,-298.517 278.588,-293.34 268.134,-291.622 269.345,-298.517"/>
</g>
<!-- Node28&#45;&gt;Node17 -->
<g id="edge36" class="edge"><title>Node28&#45;&gt;Node17</title>
<path fill="none" stroke="midnightblue" d="M553.547,-337.741C550.659,-337.142 547.779,-336.554 545,-336 469.36,-320.924 380.165,-304.923 333.38,-296.666"/>
<polygon fill="midnightblue" stroke="midnightblue" points="333.701,-293.169 323.245,-294.882 332.487,-300.063 333.701,-293.169"/>
</g>
<!-- Node28&#45;&gt;Node25 -->
<g id="edge37" class="edge"><title>Node28&#45;&gt;Node25</title>
<path fill="none" stroke="midnightblue" d="M607.124,-336.444C628.024,-327.557 660.935,-313.563 684.716,-303.451"/>
<polygon fill="midnightblue" stroke="midnightblue" points="686.138,-306.65 693.971,-299.516 683.398,-300.208 686.138,-306.65"/>
</g>
<!-- Node29&#45;&gt;Node17 -->
<g id="edge39" class="edge"><title>Node29&#45;&gt;Node17</title>
<path fill="none" stroke="midnightblue" d="M301,-336.083C301,-329.006 301,-318.861 301,-309.986"/>
<polygon fill="midnightblue" stroke="midnightblue" points="304.5,-309.751 301,-299.751 297.5,-309.751 304.5,-309.751"/>
</g>
<!-- Node29&#45;&gt;Node18 -->
<g id="edge40" class="edge"><title>Node29&#45;&gt;Node18</title>
<path fill="none" stroke="midnightblue" d="M308.925,-336.368C325.814,-317.974 365.575,-274.671 387.261,-251.052"/>
<polygon fill="midnightblue" stroke="midnightblue" points="389.926,-253.325 394.112,-243.591 384.77,-248.59 389.926,-253.325"/>
</g>
<!-- Node30&#45;&gt;Node17 -->
<g id="edge42" class="edge"><title>Node30&#45;&gt;Node17</title>
<path fill="none" stroke="midnightblue" d="M385.773,-336.324C369.649,-327.703 344.7,-314.364 326.036,-304.386"/>
<polygon fill="midnightblue" stroke="midnightblue" points="327.656,-301.283 317.187,-299.655 324.356,-307.456 327.656,-301.283"/>
</g>
<!-- Node30&#45;&gt;Node18 -->
<g id="edge43" class="edge"><title>Node30&#45;&gt;Node18</title>
<path fill="none" stroke="midnightblue" d="M402,-336.368C402,-318.617 402,-277.666 402,-253.597"/>
<polygon fill="midnightblue" stroke="midnightblue" points="405.5,-253.591 402,-243.591 398.5,-253.591 405.5,-253.591"/>
</g>
<!-- Node31&#45;&gt;Node17 -->
<g id="edge45" class="edge"><title>Node31&#45;&gt;Node17</title>
<path fill="none" stroke="midnightblue" d="M467.626,-336.444C430.747,-326.386 369.885,-309.787 332.816,-299.677"/>
<polygon fill="midnightblue" stroke="midnightblue" points="333.599,-296.263 323.031,-297.008 331.758,-303.016 333.599,-296.263"/>
</g>
<!-- Node31&#45;&gt;Node19 -->
<g id="edge46" class="edge"><title>Node31&#45;&gt;Node19</title>
<path fill="none" stroke="midnightblue" d="M495.882,-336.075C486.712,-309.832 459.709,-232.545 447.33,-197.117"/>
<polygon fill="midnightblue" stroke="midnightblue" points="450.596,-195.854 443.994,-187.568 443.988,-198.163 450.596,-195.854"/>
</g>
<!-- Node32&#45;&gt;Node23 -->
<g id="edge48" class="edge"><title>Node32&#45;&gt;Node23</title>
<path fill="none" stroke="midnightblue" d="M775.247,-336.324C785.797,-328.185 801.801,-315.839 814.442,-306.087"/>
<polygon fill="midnightblue" stroke="midnightblue" points="816.769,-308.713 822.549,-299.834 812.493,-303.171 816.769,-308.713"/>
</g>
<!-- Node32&#45;&gt;Node25 -->
<g id="edge49" class="edge"><title>Node32&#45;&gt;Node25</title>
<path fill="none" stroke="midnightblue" d="M755.744,-336.083C748.535,-328.298 737.89,-316.801 729.154,-307.367"/>
<polygon fill="midnightblue" stroke="midnightblue" points="731.465,-304.711 722.103,-299.751 726.329,-309.467 731.465,-304.711"/>
</g>
<!-- Node34 -->
<g id="node34" class="node"><title>Node34</title>
<g id="a_node34"><a xlink:href="$d9/dd4/_rotation_8h.xhtml" xlink:title="Rotation.h">
<polygon fill="white" stroke="black" points="954,-336.5 954,-355.5 1016,-355.5 1016,-336.5 954,-336.5"/>
<text text-anchor="middle" x="985" y="-343.5" font-family="Helvetica,sans-Serif" font-size="10.00">Rotation.h</text>
</a>
</g>
</g>
<!-- Node33&#45;&gt;Node34 -->
<g id="edge51" class="edge"><title>Node33&#45;&gt;Node34</title>
<path fill="none" stroke="midnightblue" d="M949.935,-392.083C955.929,-384.377 964.752,-373.033 972.048,-363.653"/>
<polygon fill="midnightblue" stroke="midnightblue" points="974.817,-365.793 978.194,-355.751 969.291,-361.496 974.817,-365.793"/>
</g>
<!-- Node34&#45;&gt;Node23 -->
<g id="edge52" class="edge"><title>Node34&#45;&gt;Node23</title>
<path fill="none" stroke="midnightblue" d="M961.074,-336.444C935.781,-327.399 895.698,-313.064 867.32,-302.916"/>
<polygon fill="midnightblue" stroke="midnightblue" points="868.409,-299.588 857.814,-299.516 866.052,-306.179 868.409,-299.588"/>
</g>
<!-- Node34&#45;&gt;Node25 -->
<g id="edge53" class="edge"><title>Node34&#45;&gt;Node25</title>
<path fill="none" stroke="midnightblue" d="M953.677,-338.047C950.411,-337.345 947.14,-336.652 944,-336 878.999,-322.509 803.426,-307.935 757.161,-299.139"/>
<polygon fill="midnightblue" stroke="midnightblue" points="757.662,-295.672 747.185,-297.246 756.356,-302.549 757.662,-295.672"/>
</g>
</g>
</svg>
