<?xml version="1.0" encoding="UTF-8" standalone="no"?>
<!DOCTYPE svg PUBLIC "-//W3C//DTD SVG 1.1//EN"
 "http://www.w3.org/Graphics/SVG/1.1/DTD/svg11.dtd">
<!-- Generated by graphviz version 2.36.0 (20140111.2315)
 -->
<!-- Title: /home/dagal/git/DamierGL/DamierGL/src/DamierGL.cpp Pages: 1 -->
<svg width="1249pt" height="488pt"
 viewBox="0.00 0.00 1249.00 488.00" xmlns="http://www.w3.org/2000/svg" xmlns:xlink="http://www.w3.org/1999/xlink">
<g id="graph0" class="graph" transform="scale(1 1) rotate(0) translate(4 484)">
<title>/home/dagal/git/DamierGL/DamierGL/src/DamierGL.cpp</title>
<polygon fill="white" stroke="none" points="-4,4 -4,-484 1245,-484 1245,4 -4,4"/>
<!-- Node1 -->
<g id="node1" class="node"><title>Node1</title>
<polygon fill="#bfbfbf" stroke="black" points="473,-449 473,-479 619,-479 619,-449 473,-449"/>
<text text-anchor="start" x="481" y="-467" font-family="Helvetica,sans-Serif" font-size="10.00">/home/dagal/git/DamierGL</text>
<text text-anchor="middle" x="546" y="-456" font-family="Helvetica,sans-Serif" font-size="10.00">/DamierGL/src/DamierGL.cpp</text>
</g>
<!-- Node2 -->
<g id="node2" class="node"><title>Node2</title>
<g id="a_node2"><a xlink:href="$de/d96/_c_g_l_window_8h.xhtml" xlink:title="CGL/CGLWindow.h">
<polygon fill="white" stroke="black" points="4,-392.5 4,-411.5 108,-411.5 108,-392.5 4,-392.5"/>
<text text-anchor="middle" x="56" y="-399.5" font-family="Helvetica,sans-Serif" font-size="10.00">CGL/CGLWindow.h</text>
</a>
</g>
</g>
<!-- Node1&#45;&gt;Node2 -->
<g id="edge1" class="edge"><title>Node1&#45;&gt;Node2</title>
<path fill="none" stroke="midnightblue" d="M472.907,-454.05C376.573,-442.254 208.761,-421.705 118.203,-410.617"/>
<polygon fill="midnightblue" stroke="midnightblue" points="118.437,-407.119 108.086,-409.378 117.586,-414.067 118.437,-407.119"/>
</g>
<!-- Node16 -->
<g id="node16" class="node"><title>Node16</title>
<g id="a_node16"><a xlink:href="$d2/d91/_c_g_l_quad_8h.xhtml" xlink:title="CGL/CGLQuad.h">
<polygon fill="white" stroke="black" points="89,-336.5 89,-355.5 181,-355.5 181,-336.5 89,-336.5"/>
<text text-anchor="middle" x="135" y="-343.5" font-family="Helvetica,sans-Serif" font-size="10.00">CGL/CGLQuad.h</text>
</a>
</g>
</g>
<!-- Node1&#45;&gt;Node16 -->
<g id="edge16" class="edge"><title>Node1&#45;&gt;Node16</title>
<path fill="none" stroke="midnightblue" d="M472.638,-460.145C379.08,-455.284 223.691,-442.738 176,-412 159.052,-401.077 147.826,-380.398 141.472,-365.289"/>
<polygon fill="midnightblue" stroke="midnightblue" points="144.714,-363.969 137.841,-355.906 138.186,-366.496 144.714,-363.969"/>
</g>
<!-- Node20 -->
<g id="node20" class="node"><title>Node20</title>
<g id="a_node20"><a xlink:href="$d7/df3/_c_g_l_robot1_8h.xhtml" xlink:title="CGL/CGLRobot1.h">
<polygon fill="white" stroke="black" points="305,-392.5 305,-411.5 405,-411.5 405,-392.5 305,-392.5"/>
<text text-anchor="middle" x="355" y="-399.5" font-family="Helvetica,sans-Serif" font-size="10.00">CGL/CGLRobot1.h</text>
</a>
</g>
</g>
<!-- Node1&#45;&gt;Node20 -->
<g id="edge21" class="edge"><title>Node1&#45;&gt;Node20</title>
<path fill="none" stroke="midnightblue" d="M501.219,-448.933C467.889,-438.462 422.947,-424.345 391.722,-414.536"/>
<polygon fill="midnightblue" stroke="midnightblue" points="392.688,-411.171 382.099,-411.513 390.59,-417.849 392.688,-411.171"/>
</g>
<!-- Node22 -->
<g id="node22" class="node"><title>Node22</title>
<g id="a_node22"><a xlink:href="$da/de7/_c_g_l_color_8h.xhtml" xlink:title="CGL/CGLColor.h">
<polygon fill="white" stroke="black" points="780,-392.5 780,-411.5 872,-411.5 872,-392.5 780,-392.5"/>
<text text-anchor="middle" x="826" y="-399.5" font-family="Helvetica,sans-Serif" font-size="10.00">CGL/CGLColor.h</text>
</a>
</g>
</g>
<!-- Node1&#45;&gt;Node22 -->
<g id="edge24" class="edge"><title>Node1&#45;&gt;Node22</title>
<path fill="none" stroke="midnightblue" d="M611.648,-448.933C661.99,-438.145 730.401,-423.486 776.271,-413.656"/>
<polygon fill="midnightblue" stroke="midnightblue" points="777.229,-417.03 786.274,-411.513 775.763,-410.186 777.229,-417.03"/>
</g>
<!-- Node26 -->
<g id="node26" class="node"><title>Node26</title>
<g id="a_node26"><a xlink:href="$d2/d1b/_c_g_l_scale_8h.xhtml" xlink:title="CGL/CGLScale.h">
<polygon fill="white" stroke="black" points="1047.5,-336.5 1047.5,-355.5 1140.5,-355.5 1140.5,-336.5 1047.5,-336.5"/>
<text text-anchor="middle" x="1094" y="-343.5" font-family="Helvetica,sans-Serif" font-size="10.00">CGL/CGLScale.h</text>
</a>
</g>
</g>
<!-- Node1&#45;&gt;Node26 -->
<g id="edge30" class="edge"><title>Node1&#45;&gt;Node26</title>
<path fill="none" stroke="midnightblue" d="M619.108,-454.972C687.36,-446.746 791.798,-432.288 881,-412 945.432,-397.346 1018.77,-373.287 1060.4,-358.913"/>
<polygon fill="midnightblue" stroke="midnightblue" points="1061.73,-362.155 1070.03,-355.566 1059.44,-355.543 1061.73,-362.155"/>
</g>
<!-- Node27 -->
<g id="node27" class="node"><title>Node27</title>
<g id="a_node27"><a xlink:href="$d5/d21/_c_g_l_dot_8h.xhtml" xlink:title="CGL/CGLDot.h">
<polygon fill="white" stroke="black" points="185,-392.5 185,-411.5 269,-411.5 269,-392.5 185,-392.5"/>
<text text-anchor="middle" x="227" y="-399.5" font-family="Helvetica,sans-Serif" font-size="10.00">CGL/CGLDot.h</text>
</a>
</g>
</g>
<!-- Node1&#45;&gt;Node27 -->
<g id="edge33" class="edge"><title>Node1&#45;&gt;Node27</title>
<path fill="none" stroke="midnightblue" d="M472.815,-449.235C413.665,-438.109 331.852,-422.721 279.175,-412.813"/>
<polygon fill="midnightblue" stroke="midnightblue" points="279.518,-409.317 269.043,-410.908 278.224,-416.196 279.518,-409.317"/>
</g>
<!-- Node28 -->
<g id="node28" class="node"><title>Node28</title>
<g id="a_node28"><a xlink:href="$df/d4a/_c_g_l_line_8h.xhtml" xlink:title="CGL/CGLLine.h">
<polygon fill="white" stroke="black" points="679,-336.5 679,-355.5 765,-355.5 765,-336.5 679,-336.5"/>
<text text-anchor="middle" x="722" y="-343.5" font-family="Helvetica,sans-Serif" font-size="10.00">CGL/CGLLine.h</text>
</a>
</g>
</g>
<!-- Node1&#45;&gt;Node28 -->
<g id="edge35" class="edge"><title>Node1&#45;&gt;Node28</title>
<path fill="none" stroke="midnightblue" d="M567.581,-448.776C601.31,-426.546 666.162,-383.802 700.091,-361.44"/>
<polygon fill="midnightblue" stroke="midnightblue" points="702.366,-364.133 708.789,-355.707 698.514,-358.288 702.366,-364.133"/>
</g>
<!-- Node29 -->
<g id="node29" class="node"><title>Node29</title>
<g id="a_node29"><a xlink:href="$d8/d51/_c_g_l_triangle_8h.xhtml" xlink:title="CGL/CGLTriangle.h">
<polygon fill="white" stroke="black" points="323.5,-336.5 323.5,-355.5 426.5,-355.5 426.5,-336.5 323.5,-336.5"/>
<text text-anchor="middle" x="375" y="-343.5" font-family="Helvetica,sans-Serif" font-size="10.00">CGL/CGLTriangle.h</text>
</a>
</g>
</g>
<!-- Node1&#45;&gt;Node29 -->
<g id="edge38" class="edge"><title>Node1&#45;&gt;Node29</title>
<path fill="none" stroke="midnightblue" d="M525.032,-448.776C492.261,-426.546 429.252,-383.802 396.286,-361.44"/>
<polygon fill="midnightblue" stroke="midnightblue" points="398.076,-358.424 387.835,-355.707 394.146,-364.217 398.076,-358.424"/>
</g>
<!-- Node30 -->
<g id="node30" class="node"><title>Node30</title>
<g id="a_node30"><a xlink:href="$d3/dbc/_c_g_l_polygon_8h.xhtml" xlink:title="CGL/CGLPolygon.h">
<polygon fill="white" stroke="black" points="445,-336.5 445,-355.5 549,-355.5 549,-336.5 445,-336.5"/>
<text text-anchor="middle" x="497" y="-343.5" font-family="Helvetica,sans-Serif" font-size="10.00">CGL/CGLPolygon.h</text>
</a>
</g>
</g>
<!-- Node1&#45;&gt;Node30 -->
<g id="edge41" class="edge"><title>Node1&#45;&gt;Node30</title>
<path fill="none" stroke="midnightblue" d="M539.992,-448.776C531.083,-427.686 514.375,-388.132 504.618,-365.036"/>
<polygon fill="midnightblue" stroke="midnightblue" points="507.793,-363.557 500.678,-355.707 501.345,-366.281 507.793,-363.557"/>
</g>
<!-- Node31 -->
<g id="node31" class="node"><title>Node31</title>
<g id="a_node31"><a xlink:href="$d7/d91/_c_g_l_circle_8h.xhtml" xlink:title="CGL/CGLCircle.h">
<polygon fill="white" stroke="black" points="567,-336.5 567,-355.5 661,-355.5 661,-336.5 567,-336.5"/>
<text text-anchor="middle" x="614" y="-343.5" font-family="Helvetica,sans-Serif" font-size="10.00">CGL/CGLCircle.h</text>
</a>
</g>
</g>
<!-- Node1&#45;&gt;Node31 -->
<g id="edge44" class="edge"><title>Node1&#45;&gt;Node31</title>
<path fill="none" stroke="midnightblue" d="M554.338,-448.776C566.813,-427.496 590.307,-387.418 603.791,-364.415"/>
<polygon fill="midnightblue" stroke="midnightblue" points="606.858,-366.104 608.896,-355.707 600.819,-362.564 606.858,-366.104"/>
</g>
<!-- Node32 -->
<g id="node32" class="node"><title>Node32</title>
<g id="a_node32"><a xlink:href="$db/d5d/_c_g_l_position_8h.xhtml" xlink:title="CGL/CGLPosition.h">
<polygon fill="white" stroke="black" points="887,-336.5 887,-355.5 991,-355.5 991,-336.5 887,-336.5"/>
<text text-anchor="middle" x="939" y="-343.5" font-family="Helvetica,sans-Serif" font-size="10.00">CGL/CGLPosition.h</text>
</a>
</g>
</g>
<!-- Node1&#45;&gt;Node32 -->
<g id="edge47" class="edge"><title>Node1&#45;&gt;Node32</title>
<path fill="none" stroke="midnightblue" d="M588.545,-448.961C633.663,-434.217 707.099,-410.631 771,-392 813.033,-379.745 861.347,-366.936 895.343,-358.132"/>
<polygon fill="midnightblue" stroke="midnightblue" points="896.603,-361.422 905.411,-355.533 894.853,-354.644 896.603,-361.422"/>
</g>
<!-- Node33 -->
<g id="node33" class="node"><title>Node33</title>
<g id="a_node33"><a xlink:href="$d4/ddd/_c_g_l_rotation_speed_8h.xhtml" xlink:title="CGL/CGLRotationSpeed.h">
<polygon fill="white" stroke="black" points="1079.5,-392.5 1079.5,-411.5 1212.5,-411.5 1212.5,-392.5 1079.5,-392.5"/>
<text text-anchor="middle" x="1146" y="-399.5" font-family="Helvetica,sans-Serif" font-size="10.00">CGL/CGLRotationSpeed.h</text>
</a>
</g>
</g>
<!-- Node1&#45;&gt;Node33 -->
<g id="edge50" class="edge"><title>Node1&#45;&gt;Node33</title>
<path fill="none" stroke="midnightblue" d="M619.272,-455.673C733.372,-444.263 952.464,-422.354 1068.88,-410.712"/>
<polygon fill="midnightblue" stroke="midnightblue" points="1069.53,-414.165 1079.13,-409.687 1068.83,-407.199 1069.53,-414.165"/>
</g>
<!-- Node3 -->
<g id="node3" class="node"><title>Node3</title>
<g id="a_node3"><a xlink:href="$d6/d37/_c_g_l_world_8h.xhtml" xlink:title="CGLWorld.h">
<polygon fill="white" stroke="black" points="-0.5,-336.5 -0.5,-355.5 70.5,-355.5 70.5,-336.5 -0.5,-336.5"/>
<text text-anchor="middle" x="35" y="-343.5" font-family="Helvetica,sans-Serif" font-size="10.00">CGLWorld.h</text>
</a>
</g>
</g>
<!-- Node2&#45;&gt;Node3 -->
<g id="edge2" class="edge"><title>Node2&#45;&gt;Node3</title>
<path fill="none" stroke="midnightblue" d="M52.5323,-392.083C49.6883,-384.77 45.5705,-374.181 42.0402,-365.103"/>
<polygon fill="midnightblue" stroke="midnightblue" points="45.2897,-363.803 38.4032,-355.751 38.7657,-366.34 45.2897,-363.803"/>
</g>
<!-- Node4 -->
<g id="node4" class="node"><title>Node4</title>
<g id="a_node4"><a xlink:href="$d0/dc9/_c_g_l_scene_8h.xhtml" xlink:title="CGLScene.h">
<polygon fill="white" stroke="black" points="174.5,-280.5 174.5,-299.5 247.5,-299.5 247.5,-280.5 174.5,-280.5"/>
<text text-anchor="middle" x="211" y="-287.5" font-family="Helvetica,sans-Serif" font-size="10.00">CGLScene.h</text>
</a>
</g>
</g>
<!-- Node3&#45;&gt;Node4 -->
<g id="edge3" class="edge"><title>Node3&#45;&gt;Node4</title>
<path fill="none" stroke="midnightblue" d="M62.8877,-336.444C92.7537,-327.28 140.315,-312.688 173.456,-302.519"/>
<polygon fill="midnightblue" stroke="midnightblue" points="174.709,-305.796 183.243,-299.516 172.656,-299.104 174.709,-305.796"/>
</g>
<!-- Node5 -->
<g id="node5" class="node"><title>Node5</title>
<g id="a_node5"><a xlink:href="$d5/d86/_c_g_l_camera_list_8h.xhtml" xlink:title="CGLCameraList.h">
<polygon fill="white" stroke="black" points="248.5,-224.5 248.5,-243.5 343.5,-243.5 343.5,-224.5 248.5,-224.5"/>
<text text-anchor="middle" x="296" y="-231.5" font-family="Helvetica,sans-Serif" font-size="10.00">CGLCameraList.h</text>
</a>
</g>
</g>
<!-- Node4&#45;&gt;Node5 -->
<g id="edge4" class="edge"><title>Node4&#45;&gt;Node5</title>
<path fill="none" stroke="midnightblue" d="M224.657,-280.324C237.916,-271.9 258.268,-258.971 273.846,-249.074"/>
<polygon fill="midnightblue" stroke="midnightblue" points="275.813,-251.971 282.377,-243.655 272.06,-246.063 275.813,-251.971"/>
</g>
<!-- Node15 -->
<g id="node15" class="node"><title>Node15</title>
<g id="a_node15"><a xlink:href="$da/d23/_c_g_l_light_8h.xhtml" xlink:title="CGLLight.h">
<polygon fill="white" stroke="black" points="178,-168.5 178,-187.5 244,-187.5 244,-168.5 178,-168.5"/>
<text text-anchor="middle" x="211" y="-175.5" font-family="Helvetica,sans-Serif" font-size="10.00">CGLLight.h</text>
</a>
</g>
</g>
<!-- Node4&#45;&gt;Node15 -->
<g id="edge14" class="edge"><title>Node4&#45;&gt;Node15</title>
<path fill="none" stroke="midnightblue" d="M211,-280.368C211,-262.617 211,-221.666 211,-197.597"/>
<polygon fill="midnightblue" stroke="midnightblue" points="214.5,-197.591 211,-187.591 207.5,-197.591 214.5,-197.591"/>
</g>
<!-- Node6 -->
<g id="node6" class="node"><title>Node6</title>
<g id="a_node6"><a xlink:href="$df/d5b/_c_g_l_camera_8h.xhtml" xlink:title="CGLCamera.h">
<polygon fill="white" stroke="black" points="262,-168.5 262,-187.5 342,-187.5 342,-168.5 262,-168.5"/>
<text text-anchor="middle" x="302" y="-175.5" font-family="Helvetica,sans-Serif" font-size="10.00">CGLCamera.h</text>
</a>
</g>
</g>
<!-- Node5&#45;&gt;Node6 -->
<g id="edge5" class="edge"><title>Node5&#45;&gt;Node6</title>
<path fill="none" stroke="midnightblue" d="M296.991,-224.083C297.786,-216.927 298.929,-206.635 299.923,-197.691"/>
<polygon fill="midnightblue" stroke="midnightblue" points="303.402,-198.076 301.028,-187.751 296.445,-197.303 303.402,-198.076"/>
</g>
<!-- Node7 -->
<g id="node7" class="node"><title>Node7</title>
<g id="a_node7"><a xlink:href="$dc/db8/_c_g_l_special_8h.xhtml" xlink:title="CGLSpecial.h">
<polygon fill="white" stroke="black" points="263.5,-112.5 263.5,-131.5 340.5,-131.5 340.5,-112.5 263.5,-112.5"/>
<text text-anchor="middle" x="302" y="-119.5" font-family="Helvetica,sans-Serif" font-size="10.00">CGLSpecial.h</text>
</a>
</g>
</g>
<!-- Node6&#45;&gt;Node7 -->
<g id="edge6" class="edge"><title>Node6&#45;&gt;Node7</title>
<path fill="none" stroke="midnightblue" d="M302,-168.083C302,-161.006 302,-150.861 302,-141.986"/>
<polygon fill="midnightblue" stroke="midnightblue" points="305.5,-141.751 302,-131.751 298.5,-141.751 305.5,-141.751"/>
</g>
<!-- Node8 -->
<g id="node8" class="node"><title>Node8</title>
<g id="a_node8"><a xlink:href="$d6/d55/_c_g_l_object_8h.xhtml" xlink:title="CGLObject.h">
<polygon fill="white" stroke="black" points="338,-56.5 338,-75.5 412,-75.5 412,-56.5 338,-56.5"/>
<text text-anchor="middle" x="375" y="-63.5" font-family="Helvetica,sans-Serif" font-size="10.00">CGLObject.h</text>
</a>
</g>
</g>
<!-- Node7&#45;&gt;Node8 -->
<g id="edge7" class="edge"><title>Node7&#45;&gt;Node8</title>
<path fill="none" stroke="midnightblue" d="M313.729,-112.324C324.837,-104.107 341.742,-91.6017 354.983,-81.8069"/>
<polygon fill="midnightblue" stroke="midnightblue" points="357.1,-84.5948 363.058,-75.8339 352.937,-78.9671 357.1,-84.5948"/>
</g>
<!-- Node9 -->
<g id="node9" class="node"><title>Node9</title>
<polygon fill="white" stroke="#bfbfbf" points="171,-0.5 171,-19.5 225,-19.5 225,-0.5 171,-0.5"/>
<text text-anchor="middle" x="198" y="-7.5" font-family="Helvetica,sans-Serif" font-size="10.00">iostream</text>
</g>
<!-- Node8&#45;&gt;Node9 -->
<g id="edge8" class="edge"><title>Node8&#45;&gt;Node9</title>
<path fill="none" stroke="midnightblue" d="M346.954,-56.4435C316.653,-47.1993 268.242,-32.4296 234.878,-22.2511"/>
<polygon fill="midnightblue" stroke="midnightblue" points="235.63,-18.8213 225.044,-19.2508 233.588,-25.5166 235.63,-18.8213"/>
</g>
<!-- Node10 -->
<g id="node10" class="node"><title>Node10</title>
<polygon fill="white" stroke="#bfbfbf" points="243,-0.5 243,-19.5 291,-19.5 291,-0.5 243,-0.5"/>
<text text-anchor="middle" x="267" y="-7.5" font-family="Helvetica,sans-Serif" font-size="10.00">GL/gl.h</text>
</g>
<!-- Node8&#45;&gt;Node10 -->
<g id="edge9" class="edge"><title>Node8&#45;&gt;Node10</title>
<path fill="none" stroke="midnightblue" d="M357.648,-56.324C340.328,-47.6641 313.485,-34.2424 293.498,-24.249"/>
<polygon fill="midnightblue" stroke="midnightblue" points="294.819,-20.9962 284.309,-19.6545 291.688,-27.2572 294.819,-20.9962"/>
</g>
<!-- Node11 -->
<g id="node11" class="node"><title>Node11</title>
<polygon fill="white" stroke="#bfbfbf" points="309.5,-0.5 309.5,-19.5 362.5,-19.5 362.5,-0.5 309.5,-0.5"/>
<text text-anchor="middle" x="336" y="-7.5" font-family="Helvetica,sans-Serif" font-size="10.00">GL/glu.h</text>
</g>
<!-- Node8&#45;&gt;Node11 -->
<g id="edge10" class="edge"><title>Node8&#45;&gt;Node11</title>
<path fill="none" stroke="midnightblue" d="M368.56,-56.083C363.051,-48.4554 354.969,-37.2645 348.235,-27.9408"/>
<polygon fill="midnightblue" stroke="midnightblue" points="351.013,-25.8087 342.32,-19.7511 345.338,-29.9071 351.013,-25.8087"/>
</g>
<!-- Node12 -->
<g id="node12" class="node"><title>Node12</title>
<polygon fill="white" stroke="#bfbfbf" points="380.5,-0.5 380.5,-19.5 447.5,-19.5 447.5,-0.5 380.5,-0.5"/>
<text text-anchor="middle" x="414" y="-7.5" font-family="Helvetica,sans-Serif" font-size="10.00">SDL/SDL.h</text>
</g>
<!-- Node8&#45;&gt;Node12 -->
<g id="edge11" class="edge"><title>Node8&#45;&gt;Node12</title>
<path fill="none" stroke="midnightblue" d="M381.44,-56.083C386.949,-48.4554 395.031,-37.2645 401.765,-27.9408"/>
<polygon fill="midnightblue" stroke="midnightblue" points="404.662,-29.9071 407.68,-19.7511 398.987,-25.8087 404.662,-29.9071"/>
</g>
<!-- Node13 -->
<g id="node13" class="node"><title>Node13</title>
<polygon fill="white" stroke="#bfbfbf" points="465.5,-0.5 465.5,-19.5 506.5,-19.5 506.5,-0.5 465.5,-0.5"/>
<text text-anchor="middle" x="486" y="-7.5" font-family="Helvetica,sans-Serif" font-size="10.00">string</text>
</g>
<!-- Node8&#45;&gt;Node13 -->
<g id="edge12" class="edge"><title>Node8&#45;&gt;Node13</title>
<path fill="none" stroke="midnightblue" d="M392.834,-56.324C410.716,-47.6247 438.475,-34.1202 459.046,-24.113"/>
<polygon fill="midnightblue" stroke="midnightblue" points="460.749,-27.1765 468.21,-19.6545 457.687,-20.8819 460.749,-27.1765"/>
</g>
<!-- Node14 -->
<g id="node14" class="node"><title>Node14</title>
<polygon fill="white" stroke="#bfbfbf" points="524.5,-0.5 524.5,-19.5 553.5,-19.5 553.5,-0.5 524.5,-0.5"/>
<text text-anchor="middle" x="539" y="-7.5" font-family="Helvetica,sans-Serif" font-size="10.00">list</text>
</g>
<!-- Node8&#45;&gt;Node14 -->
<g id="edge13" class="edge"><title>Node8&#45;&gt;Node14</title>
<path fill="none" stroke="midnightblue" d="M403.021,-56.4255C429.495,-48.23 470.512,-35.2901 514.817,-19.9433"/>
<polygon fill="midnightblue" stroke="midnightblue" points="516.026,-23.2285 524.317,-16.6327 513.722,-16.6184 516.026,-23.2285"/>
</g>
<!-- Node15&#45;&gt;Node7 -->
<g id="edge15" class="edge"><title>Node15&#45;&gt;Node7</title>
<path fill="none" stroke="midnightblue" d="M225.621,-168.324C239.949,-159.822 262.013,-146.729 278.749,-136.797"/>
<polygon fill="midnightblue" stroke="midnightblue" points="280.602,-139.768 287.416,-131.655 277.03,-133.748 280.602,-139.768"/>
</g>
<!-- Node17 -->
<g id="node17" class="node"><title>Node17</title>
<g id="a_node17"><a xlink:href="$d2/d5a/_c_g_l_item_8h.xhtml" xlink:title="CGLItem.h">
<polygon fill="white" stroke="black" points="342.5,-280.5 342.5,-299.5 407.5,-299.5 407.5,-280.5 342.5,-280.5"/>
<text text-anchor="middle" x="375" y="-287.5" font-family="Helvetica,sans-Serif" font-size="10.00">CGLItem.h</text>
</a>
</g>
</g>
<!-- Node16&#45;&gt;Node17 -->
<g id="edge17" class="edge"><title>Node16&#45;&gt;Node17</title>
<path fill="none" stroke="midnightblue" d="M173.029,-336.444C216.406,-326.684 287.155,-310.765 332.366,-300.593"/>
<polygon fill="midnightblue" stroke="midnightblue" points="333.175,-303.998 342.163,-298.388 331.638,-297.169 333.175,-303.998"/>
</g>
<!-- Node18 -->
<g id="node18" class="node"><title>Node18</title>
<g id="a_node18"><a xlink:href="$dc/dee/_c_g_l_vector2_d_8h.xhtml" xlink:title="CGLVector2D.h">
<polygon fill="white" stroke="black" points="454,-224.5 454,-243.5 540,-243.5 540,-224.5 454,-224.5"/>
<text text-anchor="middle" x="497" y="-231.5" font-family="Helvetica,sans-Serif" font-size="10.00">CGLVector2D.h</text>
</a>
</g>
</g>
<!-- Node16&#45;&gt;Node18 -->
<g id="edge19" class="edge"><title>Node16&#45;&gt;Node18</title>
<path fill="none" stroke="midnightblue" d="M159.88,-336.394C197.28,-323.557 270.296,-298.883 333,-280 373.864,-267.694 420.867,-254.938 454.048,-246.164"/>
<polygon fill="midnightblue" stroke="midnightblue" points="455.102,-249.506 463.88,-243.574 453.318,-242.737 455.102,-249.506"/>
</g>
<!-- Node17&#45;&gt;Node8 -->
<g id="edge18" class="edge"><title>Node17&#45;&gt;Node8</title>
<path fill="none" stroke="midnightblue" d="M375,-280.297C375,-247.633 375,-131.866 375,-85.9573"/>
<polygon fill="midnightblue" stroke="midnightblue" points="378.5,-85.8837 375,-75.8837 371.5,-85.8838 378.5,-85.8837"/>
</g>
<!-- Node19 -->
<g id="node19" class="node"><title>Node19</title>
<polygon fill="white" stroke="#bfbfbf" points="522,-168.5 522,-187.5 566,-187.5 566,-168.5 522,-168.5"/>
<text text-anchor="middle" x="544" y="-175.5" font-family="Helvetica,sans-Serif" font-size="10.00">cmath</text>
</g>
<!-- Node18&#45;&gt;Node19 -->
<g id="edge20" class="edge"><title>Node18&#45;&gt;Node19</title>
<path fill="none" stroke="midnightblue" d="M504.761,-224.083C511.537,-216.298 521.543,-204.801 529.755,-195.367"/>
<polygon fill="midnightblue" stroke="midnightblue" points="532.458,-197.592 536.383,-187.751 527.178,-192.996 532.458,-197.592"/>
</g>
<!-- Node21 -->
<g id="node21" class="node"><title>Node21</title>
<g id="a_node21"><a xlink:href="$db/d17/_c_g_l_boite_8h.xhtml" xlink:title="CGLBoite.h">
<polygon fill="white" stroke="black" points="237,-336.5 237,-355.5 305,-355.5 305,-336.5 237,-336.5"/>
<text text-anchor="middle" x="271" y="-343.5" font-family="Helvetica,sans-Serif" font-size="10.00">CGLBoite.h</text>
</a>
</g>
</g>
<!-- Node20&#45;&gt;Node21 -->
<g id="edge22" class="edge"><title>Node20&#45;&gt;Node21</title>
<path fill="none" stroke="midnightblue" d="M341.504,-392.324C328.4,-383.9 308.288,-370.971 292.893,-361.074"/>
<polygon fill="midnightblue" stroke="midnightblue" points="294.767,-358.118 284.463,-355.655 290.982,-364.006 294.767,-358.118"/>
</g>
<!-- Node21&#45;&gt;Node17 -->
<g id="edge23" class="edge"><title>Node21&#45;&gt;Node17</title>
<path fill="none" stroke="midnightblue" d="M287.709,-336.324C304.312,-327.703 330.002,-314.364 349.22,-304.386"/>
<polygon fill="midnightblue" stroke="midnightblue" points="351.07,-307.369 358.332,-299.655 347.844,-301.156 351.07,-307.369"/>
</g>
<!-- Node23 -->
<g id="node23" class="node"><title>Node23</title>
<g id="a_node23"><a xlink:href="$d7/d27/_c_g_l_effect_8h.xhtml" xlink:title="CGLEffect.h">
<polygon fill="white" stroke="black" points="983.5,-280.5 983.5,-299.5 1054.5,-299.5 1054.5,-280.5 983.5,-280.5"/>
<text text-anchor="middle" x="1019" y="-287.5" font-family="Helvetica,sans-Serif" font-size="10.00">CGLEffect.h</text>
</a>
</g>
</g>
<!-- Node22&#45;&gt;Node23 -->
<g id="edge25" class="edge"><title>Node22&#45;&gt;Node23</title>
<path fill="none" stroke="midnightblue" d="M872.341,-401.072C911.348,-398.619 966.055,-388.899 1000,-356 1012.39,-343.991 1016.82,-324.388 1018.34,-309.845"/>
<polygon fill="midnightblue" stroke="midnightblue" points="1021.86,-309.721 1019.04,-299.508 1014.87,-309.251 1021.86,-309.721"/>
</g>
<!-- Node24 -->
<g id="node24" class="node"><title>Node24</title>
<g id="a_node24"><a xlink:href="$df/dcb/_c_g_l_vector4_d_8h.xhtml" xlink:title="CGLVector4D.h">
<polygon fill="white" stroke="black" points="783,-336.5 783,-355.5 869,-355.5 869,-336.5 783,-336.5"/>
<text text-anchor="middle" x="826" y="-343.5" font-family="Helvetica,sans-Serif" font-size="10.00">CGLVector4D.h</text>
</a>
</g>
</g>
<!-- Node22&#45;&gt;Node24 -->
<g id="edge27" class="edge"><title>Node22&#45;&gt;Node24</title>
<path fill="none" stroke="midnightblue" d="M826,-392.083C826,-385.006 826,-374.861 826,-365.986"/>
<polygon fill="midnightblue" stroke="midnightblue" points="829.5,-365.751 826,-355.751 822.5,-365.751 829.5,-365.751"/>
</g>
<!-- Node23&#45;&gt;Node8 -->
<g id="edge26" class="edge"><title>Node23&#45;&gt;Node8</title>
<path fill="none" stroke="midnightblue" d="M994.149,-280.433C894.634,-246.129 524.731,-118.615 409.5,-78.8928"/>
<polygon fill="midnightblue" stroke="midnightblue" points="410.372,-75.4913 399.777,-75.5411 408.09,-82.1091 410.372,-75.4913"/>
</g>
<!-- Node25 -->
<g id="node25" class="node"><title>Node25</title>
<g id="a_node25"><a xlink:href="$dd/d83/_c_g_l_vector3_d_8h.xhtml" xlink:title="CGLVector3D.h">
<polygon fill="white" stroke="black" points="831,-280.5 831,-299.5 917,-299.5 917,-280.5 831,-280.5"/>
<text text-anchor="middle" x="874" y="-287.5" font-family="Helvetica,sans-Serif" font-size="10.00">CGLVector3D.h</text>
</a>
</g>
</g>
<!-- Node24&#45;&gt;Node25 -->
<g id="edge28" class="edge"><title>Node24&#45;&gt;Node25</title>
<path fill="none" stroke="midnightblue" d="M833.926,-336.083C840.846,-328.298 851.065,-316.801 859.452,-307.367"/>
<polygon fill="midnightblue" stroke="midnightblue" points="862.194,-309.55 866.221,-299.751 856.962,-304.9 862.194,-309.55"/>
</g>
<!-- Node25&#45;&gt;Node18 -->
<g id="edge29" class="edge"><title>Node25&#45;&gt;Node18</title>
<path fill="none" stroke="midnightblue" d="M830.753,-282.806C761.39,-272.87 625.448,-253.398 550.229,-242.624"/>
<polygon fill="midnightblue" stroke="midnightblue" points="550.427,-239.117 540.031,-241.164 549.434,-246.046 550.427,-239.117"/>
</g>
<!-- Node26&#45;&gt;Node23 -->
<g id="edge31" class="edge"><title>Node26&#45;&gt;Node23</title>
<path fill="none" stroke="midnightblue" d="M1081.95,-336.324C1070.54,-328.107 1053.17,-315.602 1039.57,-305.807"/>
<polygon fill="midnightblue" stroke="midnightblue" points="1041.43,-302.837 1031.27,-299.834 1037.34,-308.517 1041.43,-302.837"/>
</g>
<!-- Node26&#45;&gt;Node25 -->
<g id="edge32" class="edge"><title>Node26&#45;&gt;Node25</title>
<path fill="none" stroke="midnightblue" d="M1059.14,-336.444C1021.08,-327.102 960.042,-312.119 918.54,-301.933"/>
<polygon fill="midnightblue" stroke="midnightblue" points="919.243,-298.501 908.697,-299.516 917.574,-305.299 919.243,-298.501"/>
</g>
<!-- Node27&#45;&gt;Node17 -->
<g id="edge34" class="edge"><title>Node27&#45;&gt;Node17</title>
<path fill="none" stroke="midnightblue" d="M224.232,-392.407C220.465,-378.917 215.523,-352.6 228,-336 240.66,-319.157 293.621,-305.973 332.356,-298.341"/>
<polygon fill="midnightblue" stroke="midnightblue" points="333.195,-301.744 342.36,-296.429 331.881,-294.868 333.195,-301.744"/>
</g>
<!-- Node28&#45;&gt;Node17 -->
<g id="edge36" class="edge"><title>Node28&#45;&gt;Node17</title>
<path fill="none" stroke="midnightblue" d="M678.881,-337.469C675.877,-336.965 672.894,-336.471 670,-336 580.463,-321.424 475.397,-305.735 417.935,-297.274"/>
<polygon fill="midnightblue" stroke="midnightblue" points="418.177,-293.772 407.774,-295.781 417.159,-300.698 418.177,-293.772"/>
</g>
<!-- Node28&#45;&gt;Node25 -->
<g id="edge37" class="edge"><title>Node28&#45;&gt;Node25</title>
<path fill="none" stroke="midnightblue" d="M746.085,-336.444C771.545,-327.399 811.894,-313.064 840.459,-302.916"/>
<polygon fill="midnightblue" stroke="midnightblue" points="841.777,-306.162 850.028,-299.516 839.433,-299.566 841.777,-306.162"/>
</g>
<!-- Node29&#45;&gt;Node17 -->
<g id="edge39" class="edge"><title>Node29&#45;&gt;Node17</title>
<path fill="none" stroke="midnightblue" d="M375,-336.083C375,-329.006 375,-318.861 375,-309.986"/>
<polygon fill="midnightblue" stroke="midnightblue" points="378.5,-309.751 375,-299.751 371.5,-309.751 378.5,-309.751"/>
</g>
<!-- Node29&#45;&gt;Node18 -->
<g id="edge40" class="edge"><title>Node29&#45;&gt;Node18</title>
<path fill="none" stroke="midnightblue" d="M384.573,-336.368C405.152,-317.814 453.842,-273.913 479.878,-250.438"/>
<polygon fill="midnightblue" stroke="midnightblue" points="482.388,-252.887 487.471,-243.591 477.701,-247.688 482.388,-252.887"/>
</g>
<!-- Node30&#45;&gt;Node17 -->
<g id="edge42" class="edge"><title>Node30&#45;&gt;Node17</title>
<path fill="none" stroke="midnightblue" d="M477.669,-336.444C457.68,-327.596 426.257,-313.687 403.436,-303.586"/>
<polygon fill="midnightblue" stroke="midnightblue" points="404.802,-300.363 394.241,-299.516 401.968,-306.764 404.802,-300.363"/>
</g>
<!-- Node30&#45;&gt;Node18 -->
<g id="edge43" class="edge"><title>Node30&#45;&gt;Node18</title>
<path fill="none" stroke="midnightblue" d="M497,-336.368C497,-318.617 497,-277.666 497,-253.597"/>
<polygon fill="midnightblue" stroke="midnightblue" points="500.5,-253.591 497,-243.591 493.5,-253.591 500.5,-253.591"/>
</g>
<!-- Node31&#45;&gt;Node17 -->
<g id="edge45" class="edge"><title>Node31&#45;&gt;Node17</title>
<path fill="none" stroke="midnightblue" d="M576.13,-336.444C532.933,-326.684 462.478,-310.765 417.456,-300.593"/>
<polygon fill="midnightblue" stroke="midnightblue" points="418.226,-297.178 407.701,-298.388 416.683,-304.006 418.226,-297.178"/>
</g>
<!-- Node31&#45;&gt;Node19 -->
<g id="edge46" class="edge"><title>Node31&#45;&gt;Node19</title>
<path fill="none" stroke="midnightblue" d="M610.236,-336.075C599.17,-309.832 566.579,-232.545 551.64,-197.117"/>
<polygon fill="midnightblue" stroke="midnightblue" points="554.724,-195.422 547.613,-187.568 548.274,-198.142 554.724,-195.422"/>
</g>
<!-- Node32&#45;&gt;Node23 -->
<g id="edge48" class="edge"><title>Node32&#45;&gt;Node23</title>
<path fill="none" stroke="midnightblue" d="M951.853,-336.324C964.216,-327.979 983.13,-315.212 997.737,-305.352"/>
<polygon fill="midnightblue" stroke="midnightblue" points="999.848,-308.15 1006.18,-299.655 995.932,-302.348 999.848,-308.15"/>
</g>
<!-- Node32&#45;&gt;Node25 -->
<g id="edge49" class="edge"><title>Node32&#45;&gt;Node25</title>
<path fill="none" stroke="midnightblue" d="M928.557,-336.324C918.854,-328.263 904.185,-316.077 892.5,-306.369"/>
<polygon fill="midnightblue" stroke="midnightblue" points="894.562,-303.532 884.633,-299.834 890.089,-308.916 894.562,-303.532"/>
</g>
<!-- Node34 -->
<g id="node34" class="node"><title>Node34</title>
<g id="a_node34"><a xlink:href="$d5/d65/_c_g_l_rotation_8h.xhtml" xlink:title="CGLRotation.h">
<polygon fill="white" stroke="black" points="1159,-336.5 1159,-355.5 1241,-355.5 1241,-336.5 1159,-336.5"/>
<text text-anchor="middle" x="1200" y="-343.5" font-family="Helvetica,sans-Serif" font-size="10.00">CGLRotation.h</text>
</a>
</g>
</g>
<!-- Node33&#45;&gt;Node34 -->
<g id="edge51" class="edge"><title>Node33&#45;&gt;Node34</title>
<path fill="none" stroke="midnightblue" d="M1154.92,-392.083C1162.78,-384.22 1174.43,-372.569 1183.92,-363.081"/>
<polygon fill="midnightblue" stroke="midnightblue" points="1186.65,-365.297 1191.25,-355.751 1181.7,-360.347 1186.65,-365.297"/>
</g>
<!-- Node34&#45;&gt;Node23 -->
<g id="edge52" class="edge"><title>Node34&#45;&gt;Node23</title>
<path fill="none" stroke="midnightblue" d="M1171.32,-336.444C1140.47,-327.241 1091.27,-312.562 1057.17,-302.388"/>
<polygon fill="midnightblue" stroke="midnightblue" points="1058.13,-299.021 1047.55,-299.516 1056.13,-305.729 1058.13,-299.021"/>
</g>
<!-- Node34&#45;&gt;Node25 -->
<g id="edge53" class="edge"><title>Node34&#45;&gt;Node25</title>
<path fill="none" stroke="midnightblue" d="M1158.81,-337.686C1155.49,-337.111 1152.19,-336.543 1149,-336 1072,-322.906 982.743,-308.43 927.316,-299.522"/>
<polygon fill="midnightblue" stroke="midnightblue" points="927.799,-296.055 917.371,-297.926 926.69,-302.967 927.799,-296.055"/>
</g>
</g>
</svg>
