<?xml version="1.0" encoding="UTF-8" standalone="no"?>
<!DOCTYPE svg PUBLIC "-//W3C//DTD SVG 1.1//EN"
 "http://www.w3.org/Graphics/SVG/1.1/DTD/svg11.dtd">
<!-- Generated by graphviz version 2.36.0 (20140111.2315)
 -->
<!-- Title: /home/dagal/git/DamierGL/DamierGL/src/DamierGL.cpp Pages: 1 -->
<svg width="878pt" height="488pt"
 viewBox="0.00 0.00 878.00 488.00" xmlns="http://www.w3.org/2000/svg" xmlns:xlink="http://www.w3.org/1999/xlink">
<g id="graph0" class="graph" transform="scale(1 1) rotate(0) translate(4 484)">
<title>/home/dagal/git/DamierGL/DamierGL/src/DamierGL.cpp</title>
<polygon fill="white" stroke="none" points="-4,4 -4,-484 874,-484 874,4 -4,4"/>
<!-- Node1 -->
<g id="node1" class="node"><title>Node1</title>
<polygon fill="#bfbfbf" stroke="black" points="320,-449 320,-479 466,-479 466,-449 320,-449"/>
<text text-anchor="start" x="328" y="-467" font-family="Helvetica,sans-Serif" font-size="10.00">/home/dagal/git/DamierGL</text>
<text text-anchor="middle" x="393" y="-456" font-family="Helvetica,sans-Serif" font-size="10.00">/DamierGL/src/DamierGL.cpp</text>
</g>
<!-- Node2 -->
<g id="node2" class="node"><title>Node2</title>
<g id="a_node2"><a xlink:href="$de/d96/_c_g_l_window_8h.xhtml" xlink:title="CGL/CGLWindow.h">
<polygon fill="white" stroke="black" points="25,-392.5 25,-411.5 129,-411.5 129,-392.5 25,-392.5"/>
<text text-anchor="middle" x="77" y="-399.5" font-family="Helvetica,sans-Serif" font-size="10.00">CGL/CGLWindow.h</text>
</a>
</g>
</g>
<!-- Node1&#45;&gt;Node2 -->
<g id="edge1" class="edge"><title>Node1&#45;&gt;Node2</title>
<path fill="none" stroke="midnightblue" d="M319.709,-449.084C262.448,-438.212 184.113,-423.338 132.102,-413.462"/>
<polygon fill="midnightblue" stroke="midnightblue" points="132.543,-409.984 122.065,-411.557 131.237,-416.861 132.543,-409.984"/>
</g>
<!-- Node16 -->
<g id="node16" class="node"><title>Node16</title>
<g id="a_node16"><a xlink:href="$d2/d91/_c_g_l_quad_8h.xhtml" xlink:title="CGL/CGLQuad.h">
<polygon fill="white" stroke="black" points="191,-336.5 191,-355.5 283,-355.5 283,-336.5 191,-336.5"/>
<text text-anchor="middle" x="237" y="-343.5" font-family="Helvetica,sans-Serif" font-size="10.00">CGL/CGLQuad.h</text>
</a>
</g>
</g>
<!-- Node1&#45;&gt;Node16 -->
<g id="edge16" class="edge"><title>Node1&#45;&gt;Node16</title>
<path fill="none" stroke="midnightblue" d="M319.865,-449.391C296.745,-441.83 272.856,-430.116 256,-412 244.372,-399.503 239.822,-380.274 238.062,-365.969"/>
<polygon fill="midnightblue" stroke="midnightblue" points="241.528,-365.43 237.166,-355.774 234.555,-366.042 241.528,-365.43"/>
</g>
<!-- Node18 -->
<g id="node18" class="node"><title>Node18</title>
<g id="a_node18"><a xlink:href="$d7/df3/_c_g_l_robot1_8h.xhtml" xlink:title="CGL/CGLRobot1.h">
<polygon fill="white" stroke="black" points="265,-392.5 265,-411.5 365,-411.5 365,-392.5 265,-392.5"/>
<text text-anchor="middle" x="315" y="-399.5" font-family="Helvetica,sans-Serif" font-size="10.00">CGL/CGLRobot1.h</text>
</a>
</g>
</g>
<!-- Node1&#45;&gt;Node18 -->
<g id="edge19" class="edge"><title>Node1&#45;&gt;Node18</title>
<path fill="none" stroke="midnightblue" d="M374.515,-448.781C362.48,-439.523 346.8,-427.462 334.557,-418.044"/>
<polygon fill="midnightblue" stroke="midnightblue" points="336.41,-415.053 326.35,-411.731 332.142,-420.602 336.41,-415.053"/>
</g>
<!-- Node20 -->
<g id="node20" class="node"><title>Node20</title>
<g id="a_node20"><a xlink:href="$db/d5d/_c_g_l_position_8h.xhtml" xlink:title="CGL/CGLPosition.h">
<polygon fill="white" stroke="black" points="766,-392.5 766,-411.5 870,-411.5 870,-392.5 766,-392.5"/>
<text text-anchor="middle" x="818" y="-399.5" font-family="Helvetica,sans-Serif" font-size="10.00">CGL/CGLPosition.h</text>
</a>
</g>
</g>
<!-- Node1&#45;&gt;Node20 -->
<g id="edge22" class="edge"><title>Node1&#45;&gt;Node20</title>
<path fill="none" stroke="midnightblue" d="M466.018,-452.841C539.331,-442.618 655.514,-426.352 756,-412 756.101,-411.986 756.202,-411.971 756.303,-411.957"/>
<polygon fill="midnightblue" stroke="midnightblue" points="756.505,-415.464 765.907,-410.579 755.512,-408.534 756.505,-415.464"/>
</g>
<!-- Node23 -->
<g id="node23" class="node"><title>Node23</title>
<g id="a_node23"><a xlink:href="$da/de7/_c_g_l_color_8h.xhtml" xlink:title="CGL/CGLColor.h">
<polygon fill="white" stroke="black" points="421,-392.5 421,-411.5 513,-411.5 513,-392.5 421,-392.5"/>
<text text-anchor="middle" x="467" y="-399.5" font-family="Helvetica,sans-Serif" font-size="10.00">CGL/CGLColor.h</text>
</a>
</g>
</g>
<!-- Node1&#45;&gt;Node23 -->
<g id="edge26" class="edge"><title>Node1&#45;&gt;Node23</title>
<path fill="none" stroke="midnightblue" d="M410.537,-448.781C421.955,-439.523 436.83,-427.462 448.446,-418.044"/>
<polygon fill="midnightblue" stroke="midnightblue" points="450.669,-420.747 456.232,-411.731 446.26,-415.31 450.669,-420.747"/>
</g>
<!-- Node25 -->
<g id="node25" class="node"><title>Node25</title>
<g id="a_node25"><a xlink:href="$d2/d1b/_c_g_l_scale_8h.xhtml" xlink:title="CGL/CGLScale.h">
<polygon fill="white" stroke="black" points="531.5,-392.5 531.5,-411.5 624.5,-411.5 624.5,-392.5 531.5,-392.5"/>
<text text-anchor="middle" x="578" y="-399.5" font-family="Helvetica,sans-Serif" font-size="10.00">CGL/CGLScale.h</text>
</a>
</g>
</g>
<!-- Node1&#45;&gt;Node25 -->
<g id="edge29" class="edge"><title>Node1&#45;&gt;Node25</title>
<path fill="none" stroke="midnightblue" d="M436.374,-448.933C468.518,-438.508 511.811,-424.467 542.038,-414.663"/>
<polygon fill="midnightblue" stroke="midnightblue" points="543.32,-417.927 551.753,-411.513 541.161,-411.269 543.32,-417.927"/>
</g>
<!-- Node26 -->
<g id="node26" class="node"><title>Node26</title>
<g id="a_node26"><a xlink:href="$d5/d65/_c_g_l_rotation_8h.xhtml" xlink:title="CGL/CGLRotation.h">
<polygon fill="white" stroke="black" points="642.5,-392.5 642.5,-411.5 747.5,-411.5 747.5,-392.5 642.5,-392.5"/>
<text text-anchor="middle" x="695" y="-399.5" font-family="Helvetica,sans-Serif" font-size="10.00">CGL/CGLRotation.h</text>
</a>
</g>
</g>
<!-- Node1&#45;&gt;Node26 -->
<g id="edge31" class="edge"><title>Node1&#45;&gt;Node26</title>
<path fill="none" stroke="midnightblue" d="M463.806,-448.933C518.445,-438.077 592.82,-423.301 642.296,-413.471"/>
<polygon fill="midnightblue" stroke="midnightblue" points="643.027,-416.894 652.153,-411.513 641.662,-410.029 643.027,-416.894"/>
</g>
<!-- Node27 -->
<g id="node27" class="node"><title>Node27</title>
<g id="a_node27"><a xlink:href="$d5/d21/_c_g_l_dot_8h.xhtml" xlink:title="CGL/CGLDot.h">
<polygon fill="white" stroke="black" points="89,-336.5 89,-355.5 173,-355.5 173,-336.5 89,-336.5"/>
<text text-anchor="middle" x="131" y="-343.5" font-family="Helvetica,sans-Serif" font-size="10.00">CGL/CGLDot.h</text>
</a>
</g>
</g>
<!-- Node1&#45;&gt;Node27 -->
<g id="edge33" class="edge"><title>Node1&#45;&gt;Node27</title>
<path fill="none" stroke="midnightblue" d="M342.351,-448.925C312.295,-439.859 273.784,-426.984 241,-412 208.519,-397.154 173.385,-375.272 151.783,-361.077"/>
<polygon fill="midnightblue" stroke="midnightblue" points="153.666,-358.126 143.4,-355.506 149.792,-363.956 153.666,-358.126"/>
</g>
<!-- Node28 -->
<g id="node28" class="node"><title>Node28</title>
<g id="a_node28"><a xlink:href="$df/d4a/_c_g_l_line_8h.xhtml" xlink:title="CGL/CGLLine.h">
<polygon fill="white" stroke="black" points="387,-336.5 387,-355.5 473,-355.5 473,-336.5 387,-336.5"/>
<text text-anchor="middle" x="430" y="-343.5" font-family="Helvetica,sans-Serif" font-size="10.00">CGL/CGLLine.h</text>
</a>
</g>
</g>
<!-- Node1&#45;&gt;Node28 -->
<g id="edge35" class="edge"><title>Node1&#45;&gt;Node28</title>
<path fill="none" stroke="midnightblue" d="M396.23,-448.978C399.674,-434.551 405.518,-411.494 412,-392 415.024,-382.905 418.921,-372.995 422.314,-364.795"/>
<polygon fill="midnightblue" stroke="midnightblue" points="425.568,-366.088 426.241,-355.514 419.121,-363.36 425.568,-366.088"/>
</g>
<!-- Node3 -->
<g id="node3" class="node"><title>Node3</title>
<g id="a_node3"><a xlink:href="$d6/d37/_c_g_l_world_8h.xhtml" xlink:title="CGLWorld.h">
<polygon fill="white" stroke="black" points="-0.5,-336.5 -0.5,-355.5 70.5,-355.5 70.5,-336.5 -0.5,-336.5"/>
<text text-anchor="middle" x="35" y="-343.5" font-family="Helvetica,sans-Serif" font-size="10.00">CGLWorld.h</text>
</a>
</g>
</g>
<!-- Node2&#45;&gt;Node3 -->
<g id="edge2" class="edge"><title>Node2&#45;&gt;Node3</title>
<path fill="none" stroke="midnightblue" d="M70.0646,-392.083C64.0708,-384.377 55.2482,-373.033 47.9524,-363.653"/>
<polygon fill="midnightblue" stroke="midnightblue" points="50.7086,-361.496 41.8064,-355.751 45.1831,-365.793 50.7086,-361.496"/>
</g>
<!-- Node4 -->
<g id="node4" class="node"><title>Node4</title>
<g id="a_node4"><a xlink:href="$d0/dc9/_c_g_l_scene_8h.xhtml" xlink:title="CGLScene.h">
<polygon fill="white" stroke="black" points="40.5,-280.5 40.5,-299.5 113.5,-299.5 113.5,-280.5 40.5,-280.5"/>
<text text-anchor="middle" x="77" y="-287.5" font-family="Helvetica,sans-Serif" font-size="10.00">CGLScene.h</text>
</a>
</g>
</g>
<!-- Node3&#45;&gt;Node4 -->
<g id="edge3" class="edge"><title>Node3&#45;&gt;Node4</title>
<path fill="none" stroke="midnightblue" d="M41.9354,-336.083C47.9292,-328.377 56.7518,-317.033 64.0476,-307.653"/>
<polygon fill="midnightblue" stroke="midnightblue" points="66.8169,-309.793 70.1936,-299.751 61.2914,-305.496 66.8169,-309.793"/>
</g>
<!-- Node5 -->
<g id="node5" class="node"><title>Node5</title>
<g id="a_node5"><a xlink:href="$d5/d86/_c_g_l_camera_list_8h.xhtml" xlink:title="CGLCameraList.h">
<polygon fill="white" stroke="black" points="29.5,-224.5 29.5,-243.5 124.5,-243.5 124.5,-224.5 29.5,-224.5"/>
<text text-anchor="middle" x="77" y="-231.5" font-family="Helvetica,sans-Serif" font-size="10.00">CGLCameraList.h</text>
</a>
</g>
</g>
<!-- Node4&#45;&gt;Node5 -->
<g id="edge4" class="edge"><title>Node4&#45;&gt;Node5</title>
<path fill="none" stroke="midnightblue" d="M77,-280.083C77,-273.006 77,-262.861 77,-253.986"/>
<polygon fill="midnightblue" stroke="midnightblue" points="80.5001,-253.751 77,-243.751 73.5001,-253.751 80.5001,-253.751"/>
</g>
<!-- Node15 -->
<g id="node15" class="node"><title>Node15</title>
<g id="a_node15"><a xlink:href="$da/d23/_c_g_l_light_8h.xhtml" xlink:title="CGLLight.h">
<polygon fill="white" stroke="black" points="143,-224.5 143,-243.5 209,-243.5 209,-224.5 143,-224.5"/>
<text text-anchor="middle" x="176" y="-231.5" font-family="Helvetica,sans-Serif" font-size="10.00">CGLLight.h</text>
</a>
</g>
</g>
<!-- Node4&#45;&gt;Node15 -->
<g id="edge14" class="edge"><title>Node4&#45;&gt;Node15</title>
<path fill="none" stroke="midnightblue" d="M92.9061,-280.324C108.638,-271.743 132.942,-258.486 151.209,-248.522"/>
<polygon fill="midnightblue" stroke="midnightblue" points="153.03,-251.516 160.133,-243.655 149.678,-245.37 153.03,-251.516"/>
</g>
<!-- Node6 -->
<g id="node6" class="node"><title>Node6</title>
<g id="a_node6"><a xlink:href="$df/d5b/_c_g_l_camera_8h.xhtml" xlink:title="CGLCamera.h">
<polygon fill="white" stroke="black" points="53,-168.5 53,-187.5 133,-187.5 133,-168.5 53,-168.5"/>
<text text-anchor="middle" x="93" y="-175.5" font-family="Helvetica,sans-Serif" font-size="10.00">CGLCamera.h</text>
</a>
</g>
</g>
<!-- Node5&#45;&gt;Node6 -->
<g id="edge5" class="edge"><title>Node5&#45;&gt;Node6</title>
<path fill="none" stroke="midnightblue" d="M79.6421,-224.083C81.7856,-216.849 84.8789,-206.409 87.5491,-197.397"/>
<polygon fill="midnightblue" stroke="midnightblue" points="90.9219,-198.333 90.4071,-187.751 84.2103,-196.345 90.9219,-198.333"/>
</g>
<!-- Node7 -->
<g id="node7" class="node"><title>Node7</title>
<g id="a_node7"><a xlink:href="$dc/db8/_c_g_l_special_8h.xhtml" xlink:title="CGLSpecial.h">
<polygon fill="white" stroke="black" points="137.5,-112.5 137.5,-131.5 214.5,-131.5 214.5,-112.5 137.5,-112.5"/>
<text text-anchor="middle" x="176" y="-119.5" font-family="Helvetica,sans-Serif" font-size="10.00">CGLSpecial.h</text>
</a>
</g>
</g>
<!-- Node6&#45;&gt;Node7 -->
<g id="edge6" class="edge"><title>Node6&#45;&gt;Node7</title>
<path fill="none" stroke="midnightblue" d="M106.335,-168.324C119.162,-159.979 138.785,-147.212 153.94,-137.352"/>
<polygon fill="midnightblue" stroke="midnightblue" points="156.224,-140.042 162.698,-131.655 152.407,-134.174 156.224,-140.042"/>
</g>
<!-- Node8 -->
<g id="node8" class="node"><title>Node8</title>
<g id="a_node8"><a xlink:href="$d6/d55/_c_g_l_object_8h.xhtml" xlink:title="CGLObject.h">
<polygon fill="white" stroke="black" points="247,-56.5 247,-75.5 321,-75.5 321,-56.5 247,-56.5"/>
<text text-anchor="middle" x="284" y="-63.5" font-family="Helvetica,sans-Serif" font-size="10.00">CGLObject.h</text>
</a>
</g>
</g>
<!-- Node7&#45;&gt;Node8 -->
<g id="edge7" class="edge"><title>Node7&#45;&gt;Node8</title>
<path fill="none" stroke="midnightblue" d="M193.352,-112.324C210.672,-103.664 237.515,-90.2424 257.502,-80.249"/>
<polygon fill="midnightblue" stroke="midnightblue" points="259.312,-83.2572 266.691,-75.6545 256.181,-76.9962 259.312,-83.2572"/>
</g>
<!-- Node9 -->
<g id="node9" class="node"><title>Node9</title>
<polygon fill="white" stroke="#bfbfbf" points="80,-0.5 80,-19.5 134,-19.5 134,-0.5 80,-0.5"/>
<text text-anchor="middle" x="107" y="-7.5" font-family="Helvetica,sans-Serif" font-size="10.00">iostream</text>
</g>
<!-- Node8&#45;&gt;Node9 -->
<g id="edge8" class="edge"><title>Node8&#45;&gt;Node9</title>
<path fill="none" stroke="midnightblue" d="M255.954,-56.4435C225.653,-47.1993 177.242,-32.4296 143.878,-22.2511"/>
<polygon fill="midnightblue" stroke="midnightblue" points="144.63,-18.8213 134.044,-19.2508 142.588,-25.5166 144.63,-18.8213"/>
</g>
<!-- Node10 -->
<g id="node10" class="node"><title>Node10</title>
<polygon fill="white" stroke="#bfbfbf" points="152,-0.5 152,-19.5 200,-19.5 200,-0.5 152,-0.5"/>
<text text-anchor="middle" x="176" y="-7.5" font-family="Helvetica,sans-Serif" font-size="10.00">GL/gl.h</text>
</g>
<!-- Node8&#45;&gt;Node10 -->
<g id="edge9" class="edge"><title>Node8&#45;&gt;Node10</title>
<path fill="none" stroke="midnightblue" d="M266.648,-56.324C249.328,-47.6641 222.485,-34.2424 202.498,-24.249"/>
<polygon fill="midnightblue" stroke="midnightblue" points="203.819,-20.9962 193.309,-19.6545 200.688,-27.2572 203.819,-20.9962"/>
</g>
<!-- Node11 -->
<g id="node11" class="node"><title>Node11</title>
<polygon fill="white" stroke="#bfbfbf" points="218.5,-0.5 218.5,-19.5 271.5,-19.5 271.5,-0.5 218.5,-0.5"/>
<text text-anchor="middle" x="245" y="-7.5" font-family="Helvetica,sans-Serif" font-size="10.00">GL/glu.h</text>
</g>
<!-- Node8&#45;&gt;Node11 -->
<g id="edge10" class="edge"><title>Node8&#45;&gt;Node11</title>
<path fill="none" stroke="midnightblue" d="M277.56,-56.083C272.051,-48.4554 263.969,-37.2645 257.235,-27.9408"/>
<polygon fill="midnightblue" stroke="midnightblue" points="260.013,-25.8087 251.32,-19.7511 254.338,-29.9071 260.013,-25.8087"/>
</g>
<!-- Node12 -->
<g id="node12" class="node"><title>Node12</title>
<polygon fill="white" stroke="#bfbfbf" points="289.5,-0.5 289.5,-19.5 356.5,-19.5 356.5,-0.5 289.5,-0.5"/>
<text text-anchor="middle" x="323" y="-7.5" font-family="Helvetica,sans-Serif" font-size="10.00">SDL/SDL.h</text>
</g>
<!-- Node8&#45;&gt;Node12 -->
<g id="edge11" class="edge"><title>Node8&#45;&gt;Node12</title>
<path fill="none" stroke="midnightblue" d="M290.44,-56.083C295.949,-48.4554 304.031,-37.2645 310.765,-27.9408"/>
<polygon fill="midnightblue" stroke="midnightblue" points="313.662,-29.9071 316.68,-19.7511 307.987,-25.8087 313.662,-29.9071"/>
</g>
<!-- Node13 -->
<g id="node13" class="node"><title>Node13</title>
<polygon fill="white" stroke="#bfbfbf" points="374.5,-0.5 374.5,-19.5 415.5,-19.5 415.5,-0.5 374.5,-0.5"/>
<text text-anchor="middle" x="395" y="-7.5" font-family="Helvetica,sans-Serif" font-size="10.00">string</text>
</g>
<!-- Node8&#45;&gt;Node13 -->
<g id="edge12" class="edge"><title>Node8&#45;&gt;Node13</title>
<path fill="none" stroke="midnightblue" d="M301.834,-56.324C319.716,-47.6247 347.475,-34.1202 368.046,-24.113"/>
<polygon fill="midnightblue" stroke="midnightblue" points="369.749,-27.1765 377.21,-19.6545 366.687,-20.8819 369.749,-27.1765"/>
</g>
<!-- Node14 -->
<g id="node14" class="node"><title>Node14</title>
<polygon fill="white" stroke="#bfbfbf" points="433.5,-0.5 433.5,-19.5 462.5,-19.5 462.5,-0.5 433.5,-0.5"/>
<text text-anchor="middle" x="448" y="-7.5" font-family="Helvetica,sans-Serif" font-size="10.00">list</text>
</g>
<!-- Node8&#45;&gt;Node14 -->
<g id="edge13" class="edge"><title>Node8&#45;&gt;Node14</title>
<path fill="none" stroke="midnightblue" d="M312.021,-56.4255C338.495,-48.23 379.512,-35.2901 423.817,-19.9433"/>
<polygon fill="midnightblue" stroke="midnightblue" points="425.026,-23.2285 433.317,-16.6327 422.722,-16.6184 425.026,-23.2285"/>
</g>
<!-- Node15&#45;&gt;Node7 -->
<g id="edge15" class="edge"><title>Node15&#45;&gt;Node7</title>
<path fill="none" stroke="midnightblue" d="M176,-224.368C176,-206.617 176,-165.666 176,-141.597"/>
<polygon fill="midnightblue" stroke="midnightblue" points="179.5,-141.591 176,-131.591 172.5,-141.591 179.5,-141.591"/>
</g>
<!-- Node17 -->
<g id="node17" class="node"><title>Node17</title>
<g id="a_node17"><a xlink:href="$d2/d5a/_c_g_l_item_8h.xhtml" xlink:title="CGLItem.h">
<polygon fill="white" stroke="black" points="251.5,-280.5 251.5,-299.5 316.5,-299.5 316.5,-280.5 251.5,-280.5"/>
<text text-anchor="middle" x="284" y="-287.5" font-family="Helvetica,sans-Serif" font-size="10.00">CGLItem.h</text>
</a>
</g>
</g>
<!-- Node16&#45;&gt;Node17 -->
<g id="edge17" class="edge"><title>Node16&#45;&gt;Node17</title>
<path fill="none" stroke="midnightblue" d="M244.761,-336.083C251.537,-328.298 261.543,-316.801 269.755,-307.367"/>
<polygon fill="midnightblue" stroke="midnightblue" points="272.458,-309.592 276.383,-299.751 267.178,-304.996 272.458,-309.592"/>
</g>
<!-- Node17&#45;&gt;Node8 -->
<g id="edge18" class="edge"><title>Node17&#45;&gt;Node8</title>
<path fill="none" stroke="midnightblue" d="M284,-280.297C284,-247.633 284,-131.866 284,-85.9573"/>
<polygon fill="midnightblue" stroke="midnightblue" points="287.5,-85.8837 284,-75.8837 280.5,-85.8838 287.5,-85.8837"/>
</g>
<!-- Node19 -->
<g id="node19" class="node"><title>Node19</title>
<g id="a_node19"><a xlink:href="$db/d17/_c_g_l_boite_8h.xhtml" xlink:title="CGLBoite.h">
<polygon fill="white" stroke="black" points="301,-336.5 301,-355.5 369,-355.5 369,-336.5 301,-336.5"/>
<text text-anchor="middle" x="335" y="-343.5" font-family="Helvetica,sans-Serif" font-size="10.00">CGLBoite.h</text>
</a>
</g>
</g>
<!-- Node18&#45;&gt;Node19 -->
<g id="edge20" class="edge"><title>Node18&#45;&gt;Node19</title>
<path fill="none" stroke="midnightblue" d="M318.303,-392.083C320.982,-384.849 324.849,-374.409 328.186,-365.397"/>
<polygon fill="midnightblue" stroke="midnightblue" points="331.568,-366.344 331.759,-355.751 325.004,-363.913 331.568,-366.344"/>
</g>
<!-- Node19&#45;&gt;Node17 -->
<g id="edge21" class="edge"><title>Node19&#45;&gt;Node17</title>
<path fill="none" stroke="midnightblue" d="M326.578,-336.083C319.152,-328.22 308.148,-316.569 299.188,-307.081"/>
<polygon fill="midnightblue" stroke="midnightblue" points="301.676,-304.618 292.265,-299.751 296.587,-309.424 301.676,-304.618"/>
</g>
<!-- Node21 -->
<g id="node21" class="node"><title>Node21</title>
<g id="a_node21"><a xlink:href="$dd/d83/_c_g_l_vector3_d_8h.xhtml" xlink:title="CGLVector3D.h">
<polygon fill="white" stroke="black" points="526,-280.5 526,-299.5 612,-299.5 612,-280.5 526,-280.5"/>
<text text-anchor="middle" x="569" y="-287.5" font-family="Helvetica,sans-Serif" font-size="10.00">CGLVector3D.h</text>
</a>
</g>
</g>
<!-- Node20&#45;&gt;Node21 -->
<g id="edge23" class="edge"><title>Node20&#45;&gt;Node21</title>
<path fill="none" stroke="midnightblue" d="M798.461,-392.368C754.733,-373.051 648.814,-326.259 597.631,-303.648"/>
<polygon fill="midnightblue" stroke="midnightblue" points="599.009,-300.431 588.448,-299.591 596.181,-306.834 599.009,-300.431"/>
</g>
<!-- Node22 -->
<g id="node22" class="node"><title>Node22</title>
<g id="a_node22"><a xlink:href="$d7/d27/_c_g_l_effect_8h.xhtml" xlink:title="CGLEffect.h">
<polygon fill="white" stroke="black" points="428.5,-168.5 428.5,-187.5 499.5,-187.5 499.5,-168.5 428.5,-168.5"/>
<text text-anchor="middle" x="464" y="-175.5" font-family="Helvetica,sans-Serif" font-size="10.00">CGLEffect.h</text>
</a>
</g>
</g>
<!-- Node21&#45;&gt;Node22 -->
<g id="edge24" class="edge"><title>Node21&#45;&gt;Node22</title>
<path fill="none" stroke="midnightblue" d="M560.761,-280.368C543.203,-261.974 501.868,-218.671 479.322,-195.052"/>
<polygon fill="midnightblue" stroke="midnightblue" points="481.637,-192.408 472.201,-187.591 476.574,-197.242 481.637,-192.408"/>
</g>
<!-- Node22&#45;&gt;Node8 -->
<g id="edge25" class="edge"><title>Node22&#45;&gt;Node8</title>
<path fill="none" stroke="midnightblue" d="M449.876,-168.368C418.856,-149.412 344.546,-104.001 306.815,-80.9424"/>
<polygon fill="midnightblue" stroke="midnightblue" points="308.417,-77.8195 298.059,-75.5914 304.766,-83.7925 308.417,-77.8195"/>
</g>
<!-- Node24 -->
<g id="node24" class="node"><title>Node24</title>
<g id="a_node24"><a xlink:href="$df/dcb/_c_g_l_vector4_d_8h.xhtml" xlink:title="CGLVector4D.h">
<polygon fill="white" stroke="black" points="491,-336.5 491,-355.5 577,-355.5 577,-336.5 491,-336.5"/>
<text text-anchor="middle" x="534" y="-343.5" font-family="Helvetica,sans-Serif" font-size="10.00">CGLVector4D.h</text>
</a>
</g>
</g>
<!-- Node23&#45;&gt;Node24 -->
<g id="edge27" class="edge"><title>Node23&#45;&gt;Node24</title>
<path fill="none" stroke="midnightblue" d="M477.765,-392.324C487.766,-384.263 502.887,-372.077 514.93,-362.369"/>
<polygon fill="midnightblue" stroke="midnightblue" points="517.45,-364.834 523.039,-355.834 513.057,-359.384 517.45,-364.834"/>
</g>
<!-- Node24&#45;&gt;Node21 -->
<g id="edge28" class="edge"><title>Node24&#45;&gt;Node21</title>
<path fill="none" stroke="midnightblue" d="M539.78,-336.083C544.672,-328.534 551.827,-317.495 557.833,-308.23"/>
<polygon fill="midnightblue" stroke="midnightblue" points="560.826,-310.046 563.328,-299.751 554.952,-306.239 560.826,-310.046"/>
</g>
<!-- Node25&#45;&gt;Node21 -->
<g id="edge30" class="edge"><title>Node25&#45;&gt;Node21</title>
<path fill="none" stroke="midnightblue" d="M580.788,-392.119C584.348,-379.557 589.635,-355.909 586,-336 584.312,-326.757 580.825,-316.948 577.446,-308.855"/>
<polygon fill="midnightblue" stroke="midnightblue" points="580.631,-307.405 573.366,-299.693 574.237,-310.252 580.631,-307.405"/>
</g>
<!-- Node26&#45;&gt;Node21 -->
<g id="edge32" class="edge"><title>Node26&#45;&gt;Node21</title>
<path fill="none" stroke="midnightblue" d="M685.113,-392.368C663.859,-373.814 613.573,-329.913 586.683,-306.438"/>
<polygon fill="midnightblue" stroke="midnightblue" points="588.676,-303.531 578.841,-299.591 584.072,-308.805 588.676,-303.531"/>
</g>
<!-- Node27&#45;&gt;Node17 -->
<g id="edge34" class="edge"><title>Node27&#45;&gt;Node17</title>
<path fill="none" stroke="midnightblue" d="M155.243,-336.444C180.871,-327.399 221.485,-313.064 250.238,-302.916"/>
<polygon fill="midnightblue" stroke="midnightblue" points="251.605,-306.145 259.87,-299.516 249.275,-299.544 251.605,-306.145"/>
</g>
<!-- Node28&#45;&gt;Node17 -->
<g id="edge36" class="edge"><title>Node28&#45;&gt;Node17</title>
<path fill="none" stroke="midnightblue" d="M406.866,-336.444C382.518,-327.438 343.993,-313.189 316.577,-303.049"/>
<polygon fill="midnightblue" stroke="midnightblue" points="317.619,-299.703 307.026,-299.516 315.191,-306.268 317.619,-299.703"/>
</g>
<!-- Node28&#45;&gt;Node21 -->
<g id="edge37" class="edge"><title>Node28&#45;&gt;Node21</title>
<path fill="none" stroke="midnightblue" d="M452.025,-336.444C475.104,-327.478 511.562,-313.314 537.641,-303.183"/>
<polygon fill="midnightblue" stroke="midnightblue" points="539.024,-306.4 547.078,-299.516 536.489,-299.875 539.024,-306.4"/>
</g>
</g>
</svg>
