<?xml version="1.0" encoding="UTF-8" standalone="no"?>
<!DOCTYPE svg PUBLIC "-//W3C//DTD SVG 1.1//EN"
 "http://www.w3.org/Graphics/SVG/1.1/DTD/svg11.dtd">
<!-- Generated by graphviz version 2.36.0 (20140111.2315)
 -->
<!-- Title: CGLVector2D::setX Pages: 1 -->
<svg width="490pt" height="355pt"
 viewBox="0.00 0.00 490.00 355.22" xmlns="http://www.w3.org/2000/svg" xmlns:xlink="http://www.w3.org/1999/xlink">
<g id="graph0" class="graph" transform="scale(1 1) rotate(0) translate(4 351.219)">
<title>CGLVector2D::setX</title>
<polygon fill="white" stroke="none" points="-4,4 -4,-351.219 486,-351.219 486,4 -4,4"/>
<!-- Node1 -->
<g id="node1" class="node"><title>Node1</title>
<polygon fill="#bfbfbf" stroke="black" points="0,-232.719 0,-251.719 104,-251.719 104,-232.719 0,-232.719"/>
<text text-anchor="middle" x="52" y="-239.719" font-family="Helvetica,sans-Serif" font-size="10.00">CGLVector2D::setX</text>
</g>
<!-- Node2 -->
<g id="node2" class="node"><title>Node2</title>
<g id="a_node2"><a xlink:href="$d7/dd6/class_c_g_l_color.xhtml#af025a76284d339268246c03a929f27f4" xlink:title="CGLColor::setR">
<polygon fill="white" stroke="black" points="145.5,-327.719 145.5,-346.719 232.5,-346.719 232.5,-327.719 145.5,-327.719"/>
<text text-anchor="middle" x="189" y="-334.719" font-family="Helvetica,sans-Serif" font-size="10.00">CGLColor::setR</text>
</a>
</g>
</g>
<!-- Node1&#45;&gt;Node2 -->
<g id="edge1" class="edge"><title>Node1&#45;&gt;Node2</title>
<path fill="none" stroke="midnightblue" d="M69.0167,-259.268C85.5192,-276.054 112.628,-301.532 140,-318.219 145.969,-321.858 152.757,-325.043 159.31,-327.713"/>
<polygon fill="midnightblue" stroke="midnightblue" points="71.2753,-256.569 61.8127,-251.803 66.2382,-261.429 71.2753,-256.569"/>
</g>
<!-- Node3 -->
<g id="node3" class="node"><title>Node3</title>
<g id="a_node3"><a xlink:href="$de/d31/class_c_g_l_position.xhtml#a439ae873ba7ef56826a27eb7b15b0b6f" xlink:title="CGLPosition::drawObject">
<polygon fill="white" stroke="black" points="277,-213.719 277,-232.719 405,-232.719 405,-213.719 277,-213.719"/>
<text text-anchor="middle" x="341" y="-220.719" font-family="Helvetica,sans-Serif" font-size="10.00">CGLPosition::drawObject</text>
</a>
</g>
</g>
<!-- Node1&#45;&gt;Node3 -->
<g id="edge2" class="edge"><title>Node1&#45;&gt;Node3</title>
<path fill="none" stroke="midnightblue" d="M114.537,-238.145C162.407,-234.976 228.584,-230.595 276.857,-227.399"/>
<polygon fill="midnightblue" stroke="midnightblue" points="114.057,-234.669 104.31,-238.822 114.519,-241.654 114.057,-234.669"/>
</g>
<!-- Node4 -->
<g id="node4" class="node"><title>Node4</title>
<g id="a_node4"><a xlink:href="$d4/dd5/class_c_g_l_rotation.xhtml#a2b767e088f36ceef91e7259c76f7390e" xlink:title="CGLRotation::set">
<polygon fill="white" stroke="black" points="142.5,-289.719 142.5,-308.719 235.5,-308.719 235.5,-289.719 142.5,-289.719"/>
<text text-anchor="middle" x="189" y="-296.719" font-family="Helvetica,sans-Serif" font-size="10.00">CGLRotation::set</text>
</a>
</g>
</g>
<!-- Node1&#45;&gt;Node4 -->
<g id="edge3" class="edge"><title>Node1&#45;&gt;Node4</title>
<path fill="none" stroke="midnightblue" d="M83.6016,-255.896C100.225,-263.247 121.174,-272.384 140,-280.219 147.613,-283.387 155.953,-286.732 163.515,-289.717"/>
<polygon fill="midnightblue" stroke="midnightblue" points="84.9231,-252.654 74.3628,-251.798 82.0846,-259.052 84.9231,-252.654"/>
</g>
<!-- Node6 -->
<g id="node6" class="node"><title>Node6</title>
<g id="a_node6"><a xlink:href="$d8/d97/class_c_g_l_vector2_d.xhtml#a37b79a5ca7b3445df956e177f7c436fc" xlink:title="CGLVector2D::set">
<polygon fill="white" stroke="black" points="140,-251.719 140,-270.719 238,-270.719 238,-251.719 140,-251.719"/>
<text text-anchor="middle" x="189" y="-258.719" font-family="Helvetica,sans-Serif" font-size="10.00">CGLVector2D::set</text>
</a>
</g>
</g>
<!-- Node1&#45;&gt;Node6 -->
<g id="edge5" class="edge"><title>Node1&#45;&gt;Node6</title>
<path fill="none" stroke="midnightblue" d="M113.998,-250.804C122.566,-252.01 131.275,-253.235 139.566,-254.402"/>
<polygon fill="midnightblue" stroke="midnightblue" points="114.428,-247.33 104.038,-249.402 113.452,-254.262 114.428,-247.33"/>
</g>
<!-- Node9 -->
<g id="node9" class="node"><title>Node9</title>
<g id="a_node9"><a xlink:href="$d6/df9/class_c_g_l_vector3_d.xhtml#a15014f4427c214f64699590591cacc8f" xlink:title="CGLVector3D::set">
<polygon fill="white" stroke="black" points="140,-137.719 140,-156.719 238,-156.719 238,-137.719 140,-137.719"/>
<text text-anchor="middle" x="189" y="-144.719" font-family="Helvetica,sans-Serif" font-size="10.00">CGLVector3D::set</text>
</a>
</g>
</g>
<!-- Node1&#45;&gt;Node9 -->
<g id="edge8" class="edge"><title>Node1&#45;&gt;Node9</title>
<path fill="none" stroke="midnightblue" d="M75.0687,-226.689C103.178,-206.909 150.903,-173.324 174.276,-156.876"/>
<polygon fill="midnightblue" stroke="midnightblue" points="72.8513,-223.97 66.6874,-232.587 76.8798,-229.694 72.8513,-223.97"/>
</g>
<!-- Node14 -->
<g id="node14" class="node"><title>Node14</title>
<g id="a_node14"><a xlink:href="$db/d79/class_c_g_l_vector4_d.xhtml#a9f4c89b5e30ad2cfb18327e5e17257ab" xlink:title="CGLVector4D::set">
<polygon fill="white" stroke="black" points="140,-42.719 140,-61.719 238,-61.719 238,-42.719 140,-42.719"/>
<text text-anchor="middle" x="189" y="-49.719" font-family="Helvetica,sans-Serif" font-size="10.00">CGLVector4D::set</text>
</a>
</g>
</g>
<!-- Node1&#45;&gt;Node14 -->
<g id="edge17" class="edge"><title>Node1&#45;&gt;Node14</title>
<path fill="none" stroke="midnightblue" d="M65.8346,-224.155C93.7848,-184.818 159.38,-92.4996 180.972,-62.1107"/>
<polygon fill="midnightblue" stroke="midnightblue" points="62.8192,-222.357 59.8803,-232.536 68.5255,-226.411 62.8192,-222.357"/>
</g>
<!-- Node5 -->
<g id="node5" class="node"><title>Node5</title>
<g id="a_node5"><a xlink:href="$db/dec/_damier_g_l_8cpp.xhtml#a0ddf1224851353fc92bfbff6f499fa97" xlink:title="main">
<polygon fill="white" stroke="black" points="444,-61.719 444,-80.719 482,-80.719 482,-61.719 444,-61.719"/>
<text text-anchor="middle" x="463" y="-68.719" font-family="Helvetica,sans-Serif" font-size="10.00">main</text>
</a>
</g>
</g>
<!-- Node4&#45;&gt;Node5 -->
<g id="edge4" class="edge"><title>Node4&#45;&gt;Node5</title>
<path fill="none" stroke="midnightblue" d="M238.836,-311.083C295.045,-323.459 382.857,-338.459 408,-318.219 446.125,-287.529 458.804,-122.882 461.44,-80.944"/>
<polygon fill="midnightblue" stroke="midnightblue" points="239.255,-307.59 228.731,-308.812 237.72,-314.42 239.255,-307.59"/>
</g>
<!-- Node7 -->
<g id="node7" class="node"><title>Node7</title>
<g id="a_node7"><a xlink:href="$df/d41/class_c_g_l_quad.xhtml#a95b07c1605f65de30cb47b65fa364294" xlink:title="CGLQuad::CGLQuad">
<polygon fill="white" stroke="black" points="286,-289.719 286,-308.719 396,-308.719 396,-289.719 286,-289.719"/>
<text text-anchor="middle" x="341" y="-296.719" font-family="Helvetica,sans-Serif" font-size="10.00">CGLQuad::CGLQuad</text>
</a>
</g>
</g>
<!-- Node6&#45;&gt;Node7 -->
<g id="edge6" class="edge"><title>Node6&#45;&gt;Node7</title>
<path fill="none" stroke="midnightblue" d="M237.811,-273.331C258.702,-278.623 282.847,-284.74 302.421,-289.699"/>
<polygon fill="midnightblue" stroke="midnightblue" points="238.405,-269.871 227.851,-270.808 236.686,-276.657 238.405,-269.871"/>
</g>
<!-- Node8 -->
<g id="node8" class="node"><title>Node8</title>
<g id="a_node8"><a xlink:href="$d1/d68/class_c_g_l_triangle.xhtml#a4b704efe008da14c3fc290ca86dc4b8c" xlink:title="CGLTriangle::CGLTriangle">
<polygon fill="white" stroke="black" points="275,-251.719 275,-270.719 407,-270.719 407,-251.719 275,-251.719"/>
<text text-anchor="middle" x="341" y="-258.719" font-family="Helvetica,sans-Serif" font-size="10.00">CGLTriangle::CGLTriangle</text>
</a>
</g>
</g>
<!-- Node6&#45;&gt;Node8 -->
<g id="edge7" class="edge"><title>Node6&#45;&gt;Node8</title>
<path fill="none" stroke="midnightblue" d="M248.319,-261.219C257.014,-261.219 266.024,-261.219 274.849,-261.219"/>
<polygon fill="midnightblue" stroke="midnightblue" points="248.287,-257.719 238.287,-261.219 248.287,-264.719 248.287,-257.719"/>
</g>
<!-- Node9&#45;&gt;Node3 -->
<g id="edge15" class="edge"><title>Node9&#45;&gt;Node3</title>
<path fill="none" stroke="midnightblue" d="M211.893,-162.509C228.442,-173.631 251.994,-188.547 274,-199.219 285.3,-204.699 298.191,-209.654 309.563,-213.62"/>
<polygon fill="midnightblue" stroke="midnightblue" points="213.709,-159.511 203.474,-156.772 209.767,-165.295 213.709,-159.511"/>
</g>
<!-- Node9&#45;&gt;Node5 -->
<g id="edge16" class="edge"><title>Node9&#45;&gt;Node5</title>
<path fill="none" stroke="midnightblue" d="M221.029,-160.502C265.66,-177.392 349.081,-200.501 408,-166.219 440.467,-147.328 455.015,-100.83 459.94,-80.7295"/>
<polygon fill="midnightblue" stroke="midnightblue" points="222.183,-157.195 211.595,-156.804 219.628,-163.713 222.183,-157.195"/>
</g>
<!-- Node10 -->
<g id="node10" class="node"><title>Node10</title>
<g id="a_node10"><a xlink:href="$d9/dfe/class_c_g_l_line.xhtml#ab220112ce9d381cc057e6cff09fd95a7" xlink:title="CGLLine::CGLLine">
<polygon fill="white" stroke="black" points="291.5,-137.719 291.5,-156.719 390.5,-156.719 390.5,-137.719 291.5,-137.719"/>
<text text-anchor="middle" x="341" y="-144.719" font-family="Helvetica,sans-Serif" font-size="10.00">CGLLine::CGLLine</text>
</a>
</g>
</g>
<!-- Node9&#45;&gt;Node10 -->
<g id="edge9" class="edge"><title>Node9&#45;&gt;Node10</title>
<path fill="none" stroke="midnightblue" d="M248.432,-147.219C262.608,-147.219 277.616,-147.219 291.29,-147.219"/>
<polygon fill="midnightblue" stroke="midnightblue" points="248.287,-143.719 238.287,-147.219 248.287,-150.719 248.287,-143.719"/>
</g>
<!-- Node11 -->
<g id="node11" class="node"><title>Node11</title>
<g id="a_node11"><a xlink:href="$de/d31/class_c_g_l_position.xhtml#ab32bdd49fc31414e874917568e5d37d2" xlink:title="CGLPosition::CGLPosition">
<polygon fill="white" stroke="black" points="274,-99.719 274,-118.719 408,-118.719 408,-99.719 274,-99.719"/>
<text text-anchor="middle" x="341" y="-106.719" font-family="Helvetica,sans-Serif" font-size="10.00">CGLPosition::CGLPosition</text>
</a>
</g>
</g>
<!-- Node9&#45;&gt;Node11 -->
<g id="edge10" class="edge"><title>Node9&#45;&gt;Node11</title>
<path fill="none" stroke="midnightblue" d="M237.811,-135.107C258.702,-129.815 282.847,-123.698 302.421,-118.739"/>
<polygon fill="midnightblue" stroke="midnightblue" points="236.686,-131.781 227.851,-137.63 238.405,-138.567 236.686,-131.781"/>
</g>
<!-- Node12 -->
<g id="node12" class="node"><title>Node12</title>
<g id="a_node12"><a xlink:href="$de/d31/class_c_g_l_position.xhtml#a729e7b3f01b8c735d60d8c51b6610eef" xlink:title="CGLPosition::setSpeed">
<polygon fill="white" stroke="black" points="281.5,-61.719 281.5,-80.719 400.5,-80.719 400.5,-61.719 281.5,-61.719"/>
<text text-anchor="middle" x="341" y="-68.719" font-family="Helvetica,sans-Serif" font-size="10.00">CGLPosition::setSpeed</text>
</a>
</g>
</g>
<!-- Node9&#45;&gt;Node12 -->
<g id="edge11" class="edge"><title>Node9&#45;&gt;Node12</title>
<path fill="none" stroke="midnightblue" d="M209.74,-131.166C226.11,-118.529 250.436,-101.262 274,-90.219 281.882,-86.5253 290.635,-83.3932 299.122,-80.8027"/>
<polygon fill="midnightblue" stroke="midnightblue" points="207.209,-128.704 201.519,-137.642 211.541,-134.203 207.209,-128.704"/>
</g>
<!-- Node13 -->
<g id="node13" class="node"><title>Node13</title>
<g id="a_node13"><a xlink:href="$de/d31/class_c_g_l_position.xhtml#a5a43a8991d3d8ca645edbcfb0e97db20" xlink:title="CGLPosition::setAccel">
<polygon fill="white" stroke="black" points="283,-23.719 283,-42.719 399,-42.719 399,-23.719 283,-23.719"/>
<text text-anchor="middle" x="341" y="-30.719" font-family="Helvetica,sans-Serif" font-size="10.00">CGLPosition::setAccel</text>
</a>
</g>
</g>
<!-- Node9&#45;&gt;Node13 -->
<g id="edge13" class="edge"><title>Node9&#45;&gt;Node13</title>
<path fill="none" stroke="midnightblue" d="M201.393,-128.976C215.743,-107.488 242.386,-72.1955 274,-52.219 280.149,-48.3336 287.115,-45.2211 294.159,-42.7338"/>
<polygon fill="midnightblue" stroke="midnightblue" points="198.36,-127.22 195.853,-137.514 204.232,-131.03 198.36,-127.22"/>
</g>
<!-- Node12&#45;&gt;Node5 -->
<g id="edge12" class="edge"><title>Node12&#45;&gt;Node5</title>
<path fill="none" stroke="midnightblue" d="M410.875,-71.219C423.028,-71.219 434.685,-71.219 443.791,-71.219"/>
<polygon fill="midnightblue" stroke="midnightblue" points="410.594,-67.7191 400.594,-71.219 410.594,-74.7191 410.594,-67.7191"/>
</g>
<!-- Node13&#45;&gt;Node5 -->
<g id="edge14" class="edge"><title>Node13&#45;&gt;Node5</title>
<path fill="none" stroke="midnightblue" d="M386.418,-45.6233C393.653,-47.7534 401.05,-49.9981 408,-52.219 419.928,-56.0308 433.196,-60.6931 443.595,-64.4453"/>
<polygon fill="midnightblue" stroke="midnightblue" points="387.29,-42.232 376.71,-42.8024 385.336,-48.9539 387.29,-42.232"/>
</g>
<!-- Node14&#45;&gt;Node5 -->
<g id="edge18" class="edge"><title>Node14&#45;&gt;Node5</title>
<path fill="none" stroke="midnightblue" d="M214.551,-37.7487C230.809,-29.0296 252.942,-18.7605 274,-14.219 332.217,-1.66333 353.291,9.31322 408,-14.219 430.54,-23.9142 448.08,-48.1554 456.508,-61.6942"/>
<polygon fill="midnightblue" stroke="midnightblue" points="212.761,-34.7396 205.711,-42.6483 216.154,-40.8622 212.761,-34.7396"/>
</g>
</g>
</svg>
