<?xml version="1.0" encoding="UTF-8" standalone="no"?>
<!DOCTYPE svg PUBLIC "-//W3C//DTD SVG 1.1//EN"
 "http://www.w3.org/Graphics/SVG/1.1/DTD/svg11.dtd">
<!-- Generated by graphviz version 2.36.0 (20140111.2315)
 -->
<!-- Title: CGLVector2D::setY Pages: 1 -->
<svg width="414pt" height="66pt"
 viewBox="0.00 0.00 414.00 66.00" xmlns="http://www.w3.org/2000/svg" xmlns:xlink="http://www.w3.org/1999/xlink">
<g id="graph0" class="graph" transform="scale(1 1) rotate(0) translate(4 62)">
<title>CGLVector2D::setY</title>
<polygon fill="white" stroke="none" points="-4,4 -4,-62 410,-62 410,4 -4,4"/>
<!-- Node1 -->
<g id="node1" class="node"><title>Node1</title>
<polygon fill="#bfbfbf" stroke="black" points="0,-19.5 0,-38.5 104,-38.5 104,-19.5 0,-19.5"/>
<text text-anchor="middle" x="52" y="-26.5" font-family="Helvetica,sans-Serif" font-size="10.00">CGLVector2D::setY</text>
</g>
<!-- Node2 -->
<g id="node2" class="node"><title>Node2</title>
<g id="a_node2"><a xlink:href="$d8/d97/class_c_g_l_vector2_d.xhtml#a37b79a5ca7b3445df956e177f7c436fc" xlink:title="CGLVector2D::set">
<polygon fill="white" stroke="black" points="140,-19.5 140,-38.5 238,-38.5 238,-19.5 140,-19.5"/>
<text text-anchor="middle" x="189" y="-26.5" font-family="Helvetica,sans-Serif" font-size="10.00">CGLVector2D::set</text>
</a>
</g>
</g>
<!-- Node1&#45;&gt;Node2 -->
<g id="edge1" class="edge"><title>Node1&#45;&gt;Node2</title>
<path fill="none" stroke="midnightblue" d="M114.277,-29C122.755,-29 131.365,-29 139.566,-29"/>
<polygon fill="midnightblue" stroke="midnightblue" points="114.038,-25.5001 104.038,-29 114.038,-32.5001 114.038,-25.5001"/>
</g>
<!-- Node3 -->
<g id="node3" class="node"><title>Node3</title>
<g id="a_node3"><a xlink:href="$df/d41/class_c_g_l_quad.xhtml#a95b07c1605f65de30cb47b65fa364294" xlink:title="CGLQuad::CGLQuad">
<polygon fill="white" stroke="black" points="285,-38.5 285,-57.5 395,-57.5 395,-38.5 285,-38.5"/>
<text text-anchor="middle" x="340" y="-45.5" font-family="Helvetica,sans-Serif" font-size="10.00">CGLQuad::CGLQuad</text>
</a>
</g>
</g>
<!-- Node2&#45;&gt;Node3 -->
<g id="edge2" class="edge"><title>Node2&#45;&gt;Node3</title>
<path fill="none" stroke="midnightblue" d="M248.334,-36.4385C260.389,-37.9758 273.038,-39.5887 284.934,-41.1056"/>
<polygon fill="midnightblue" stroke="midnightblue" points="248.738,-32.9619 238.376,-35.1688 247.853,-39.9057 248.738,-32.9619"/>
</g>
<!-- Node4 -->
<g id="node4" class="node"><title>Node4</title>
<g id="a_node4"><a xlink:href="$d1/d68/class_c_g_l_triangle.xhtml#a4b704efe008da14c3fc290ca86dc4b8c" xlink:title="CGLTriangle::CGLTriangle">
<polygon fill="white" stroke="black" points="274,-0.5 274,-19.5 406,-19.5 406,-0.5 274,-0.5"/>
<text text-anchor="middle" x="340" y="-7.5" font-family="Helvetica,sans-Serif" font-size="10.00">CGLTriangle::CGLTriangle</text>
</a>
</g>
</g>
<!-- Node2&#45;&gt;Node4 -->
<g id="edge3" class="edge"><title>Node2&#45;&gt;Node4</title>
<path fill="none" stroke="midnightblue" d="M248.377,-21.556C256.716,-20.4927 265.337,-19.3933 273.796,-18.3146"/>
<polygon fill="midnightblue" stroke="midnightblue" points="247.853,-18.0943 238.376,-22.8312 248.738,-25.0381 247.853,-18.0943"/>
</g>
</g>
</svg>
