<?xml version="1.0" encoding="UTF-8" standalone="no"?>
<!DOCTYPE svg PUBLIC "-//W3C//DTD SVG 1.1//EN"
 "http://www.w3.org/Graphics/SVG/1.1/DTD/svg11.dtd">
<!-- Generated by graphviz version 2.36.0 (20140111.2315)
 -->
<!-- Title: CGLVector2D::getY Pages: 1 -->
<svg width="404pt" height="104pt"
 viewBox="0.00 0.00 404.00 104.00" xmlns="http://www.w3.org/2000/svg" xmlns:xlink="http://www.w3.org/1999/xlink">
<g id="graph0" class="graph" transform="scale(1 1) rotate(0) translate(4 100)">
<title>CGLVector2D::getY</title>
<polygon fill="white" stroke="none" points="-4,4 -4,-100 400,-100 400,4 -4,4"/>
<!-- Node1 -->
<g id="node1" class="node"><title>Node1</title>
<polygon fill="#bfbfbf" stroke="black" points="0,-38.5 0,-57.5 104,-57.5 104,-38.5 0,-38.5"/>
<text text-anchor="middle" x="52" y="-45.5" font-family="Helvetica,sans-Serif" font-size="10.00">CGLVector2D::getY</text>
</g>
<!-- Node2 -->
<g id="node2" class="node"><title>Node2</title>
<g id="a_node2"><a xlink:href="$d9/dfe/class_c_g_l_line.xhtml#a9621fa37a8b87f06e2a67aa8bf17d957" xlink:title="CGLLine::drawObject">
<polygon fill="white" stroke="black" points="163,-76.5 163,-95.5 273,-95.5 273,-76.5 163,-76.5"/>
<text text-anchor="middle" x="218" y="-83.5" font-family="Helvetica,sans-Serif" font-size="10.00">CGLLine::drawObject</text>
</a>
</g>
</g>
<!-- Node1&#45;&gt;Node2 -->
<g id="edge1" class="edge"><title>Node1&#45;&gt;Node2</title>
<path fill="none" stroke="midnightblue" d="M104.341,-59.8961C127.393,-65.2374 154.221,-71.4537 175.913,-76.4799"/>
<polygon fill="midnightblue" stroke="midnightblue" points="104.916,-56.4367 94.3841,-57.589 103.336,-63.256 104.916,-56.4367"/>
</g>
<!-- Node3 -->
<g id="node3" class="node"><title>Node3</title>
<g id="a_node3"><a xlink:href="$d7/dc4/class_c_g_l_position_speed.xhtml#ac2a548b1df4418be822a62d623fdd1ec" xlink:title="CGLPositionSpeed::drawObject">
<polygon fill="white" stroke="black" points="140.5,-38.5 140.5,-57.5 295.5,-57.5 295.5,-38.5 140.5,-38.5"/>
<text text-anchor="middle" x="218" y="-45.5" font-family="Helvetica,sans-Serif" font-size="10.00">CGLPositionSpeed::drawObject</text>
</a>
</g>
</g>
<!-- Node1&#45;&gt;Node3 -->
<g id="edge2" class="edge"><title>Node1&#45;&gt;Node3</title>
<path fill="none" stroke="midnightblue" d="M114.501,-48C122.894,-48 131.593,-48 140.215,-48"/>
<polygon fill="midnightblue" stroke="midnightblue" points="114.441,-44.5001 104.441,-48 114.441,-51.5001 114.441,-44.5001"/>
</g>
<!-- Node4 -->
<g id="node4" class="node"><title>Node4</title>
<g id="a_node4"><a xlink:href="$d6/df9/class_c_g_l_vector3_d.xhtml#a339da32afa5a535aec027aba6b92e9b5" xlink:title="CGLVector3D::isEqualTo">
<polygon fill="white" stroke="black" points="154,-0.5 154,-19.5 282,-19.5 282,-0.5 154,-0.5"/>
<text text-anchor="middle" x="218" y="-7.5" font-family="Helvetica,sans-Serif" font-size="10.00">CGLVector3D::isEqualTo</text>
</a>
</g>
</g>
<!-- Node1&#45;&gt;Node4 -->
<g id="edge3" class="edge"><title>Node1&#45;&gt;Node4</title>
<path fill="none" stroke="midnightblue" d="M104.341,-36.1039C127.393,-30.7626 154.221,-24.5463 175.913,-19.5201"/>
<polygon fill="midnightblue" stroke="midnightblue" points="103.336,-32.744 94.3841,-38.411 104.916,-39.5633 103.336,-32.744"/>
</g>
<!-- Node5 -->
<g id="node5" class="node"><title>Node5</title>
<g id="a_node5"><a xlink:href="$dd/d83/_c_g_l_vector3_d_8h.xhtml#a2f5d20f2c4f87eb1c2e00a7b9537c13e" xlink:title="operator==">
<polygon fill="white" stroke="black" points="332,-0.5 332,-19.5 396,-19.5 396,-0.5 332,-0.5"/>
<text text-anchor="middle" x="364" y="-7.5" font-family="Helvetica,sans-Serif" font-size="10.00">operator==</text>
</a>
</g>
</g>
<!-- Node4&#45;&gt;Node5 -->
<g id="edge4" class="edge"><title>Node4&#45;&gt;Node5</title>
<path fill="none" stroke="midnightblue" d="M292.304,-10C306.261,-10 320.152,-10 331.879,-10"/>
<polygon fill="midnightblue" stroke="midnightblue" points="292.161,-6.5001 282.16,-10 292.16,-13.5001 292.161,-6.5001"/>
</g>
</g>
</svg>
