<?xml version="1.0" encoding="UTF-8" standalone="no"?>
<!DOCTYPE svg PUBLIC "-//W3C//DTD SVG 1.1//EN"
 "http://www.w3.org/Graphics/SVG/1.1/DTD/svg11.dtd">
<!-- Generated by graphviz version 2.36.0 (20140111.2315)
 -->
<!-- Title: /home/dagal/git/DamierGL/DamierGL/src/CGL/CGLVector4D.cpp Pages: 1 -->
<svg width="194pt" height="264pt"
 viewBox="0.00 0.00 194.00 264.00" xmlns="http://www.w3.org/2000/svg" xmlns:xlink="http://www.w3.org/1999/xlink">
<g id="graph0" class="graph" transform="scale(1 1) rotate(0) translate(4 260)">
<title>/home/dagal/git/DamierGL/DamierGL/src/CGL/CGLVector4D.cpp</title>
<polygon fill="white" stroke="none" points="-4,4 -4,-260 190,-260 190,4 -4,4"/>
<!-- Node1 -->
<g id="node1" class="node"><title>Node1</title>
<polygon fill="#bfbfbf" stroke="black" points="-0.5,-225 -0.5,-255 186.5,-255 186.5,-225 -0.5,-225"/>
<text text-anchor="start" x="7.5" y="-243" font-family="Helvetica,sans-Serif" font-size="10.00">/home/dagal/git/DamierGL</text>
<text text-anchor="middle" x="93" y="-232" font-family="Helvetica,sans-Serif" font-size="10.00">/DamierGL/src/CGL/CGLVector4D.cpp</text>
</g>
<!-- Node2 -->
<g id="node2" class="node"><title>Node2</title>
<g id="a_node2"><a xlink:href="../../df/dcb/_c_g_l_vector4_d_8h.xhtml" target="_top" xlink:title="CGLVector4D.h">
<polygon fill="white" stroke="black" points="50,-168.5 50,-187.5 136,-187.5 136,-168.5 50,-168.5"/>
<text text-anchor="middle" x="93" y="-175.5" font-family="Helvetica,sans-Serif" font-size="10.00">CGLVector4D.h</text>
</a>
</g>
</g>
<!-- Node1&#45;&gt;Node2 -->
<g id="edge1" class="edge"><title>Node1&#45;&gt;Node2</title>
<path fill="none" stroke="midnightblue" d="M93,-224.781C93,-216.781 93,-206.689 93,-198.017"/>
<polygon fill="midnightblue" stroke="midnightblue" points="96.5001,-197.73 93,-187.731 89.5001,-197.731 96.5001,-197.73"/>
</g>
<!-- Node3 -->
<g id="node3" class="node"><title>Node3</title>
<g id="a_node3"><a xlink:href="../../dd/d83/_c_g_l_vector3_d_8h.xhtml" target="_top" xlink:title="CGLVector3D.h">
<polygon fill="white" stroke="black" points="50,-112.5 50,-131.5 136,-131.5 136,-112.5 50,-112.5"/>
<text text-anchor="middle" x="93" y="-119.5" font-family="Helvetica,sans-Serif" font-size="10.00">CGLVector3D.h</text>
</a>
</g>
</g>
<!-- Node2&#45;&gt;Node3 -->
<g id="edge2" class="edge"><title>Node2&#45;&gt;Node3</title>
<path fill="none" stroke="midnightblue" d="M93,-168.083C93,-161.006 93,-150.861 93,-141.986"/>
<polygon fill="midnightblue" stroke="midnightblue" points="96.5001,-141.751 93,-131.751 89.5001,-141.751 96.5001,-141.751"/>
</g>
<!-- Node4 -->
<g id="node4" class="node"><title>Node4</title>
<g id="a_node4"><a xlink:href="../../dc/dee/_c_g_l_vector2_d_8h.xhtml" target="_top" xlink:title="CGLVector2D.h">
<polygon fill="white" stroke="black" points="50,-56.5 50,-75.5 136,-75.5 136,-56.5 50,-56.5"/>
<text text-anchor="middle" x="93" y="-63.5" font-family="Helvetica,sans-Serif" font-size="10.00">CGLVector2D.h</text>
</a>
</g>
</g>
<!-- Node3&#45;&gt;Node4 -->
<g id="edge3" class="edge"><title>Node3&#45;&gt;Node4</title>
<path fill="none" stroke="midnightblue" d="M93,-112.083C93,-105.006 93,-94.8611 93,-85.9865"/>
<polygon fill="midnightblue" stroke="midnightblue" points="96.5001,-85.751 93,-75.7511 89.5001,-85.7511 96.5001,-85.751"/>
</g>
<!-- Node5 -->
<g id="node5" class="node"><title>Node5</title>
<polygon fill="white" stroke="#bfbfbf" points="71,-0.5 71,-19.5 115,-19.5 115,-0.5 71,-0.5"/>
<text text-anchor="middle" x="93" y="-7.5" font-family="Helvetica,sans-Serif" font-size="10.00">cmath</text>
</g>
<!-- Node4&#45;&gt;Node5 -->
<g id="edge4" class="edge"><title>Node4&#45;&gt;Node5</title>
<path fill="none" stroke="midnightblue" d="M93,-56.083C93,-49.0059 93,-38.8611 93,-29.9865"/>
<polygon fill="midnightblue" stroke="midnightblue" points="96.5001,-29.751 93,-19.7511 89.5001,-29.7511 96.5001,-29.751"/>
</g>
</g>
</svg>
