<?xml version="1.0" encoding="UTF-8" standalone="no"?>
<!DOCTYPE svg PUBLIC "-//W3C//DTD SVG 1.1//EN"
 "http://www.w3.org/Graphics/SVG/1.1/DTD/svg11.dtd">
<!-- Generated by graphviz version 2.36.0 (20140111.2315)
 -->
<!-- Title: /home/dagal/git/DamierGL/DamierGL/src/CGL/CGLColor.h Pages: 1 -->
<svg width="495pt" height="264pt"
 viewBox="0.00 0.00 495.00 264.00" xmlns="http://www.w3.org/2000/svg" xmlns:xlink="http://www.w3.org/1999/xlink">
<g id="graph0" class="graph" transform="scale(1 1) rotate(0) translate(4 260)">
<title>/home/dagal/git/DamierGL/DamierGL/src/CGL/CGLColor.h</title>
<polygon fill="white" stroke="none" points="-4,4 -4,-260 491,-260 491,4 -4,4"/>
<!-- Node1 -->
<g id="node1" class="node"><title>Node1</title>
<polygon fill="#bfbfbf" stroke="black" points="245,-225 245,-255 403,-255 403,-225 245,-225"/>
<text text-anchor="start" x="253" y="-243" font-family="Helvetica,sans-Serif" font-size="10.00">/home/dagal/git/DamierGL</text>
<text text-anchor="middle" x="324" y="-232" font-family="Helvetica,sans-Serif" font-size="10.00">/DamierGL/src/CGL/CGLColor.h</text>
</g>
<!-- Node2 -->
<g id="node2" class="node"><title>Node2</title>
<g id="a_node2"><a xlink:href="$d7/d27/_c_g_l_effect_8h.xhtml" xlink:title="CGLEffect.h">
<polygon fill="white" stroke="black" points="233.5,-168.5 233.5,-187.5 304.5,-187.5 304.5,-168.5 233.5,-168.5"/>
<text text-anchor="middle" x="269" y="-175.5" font-family="Helvetica,sans-Serif" font-size="10.00">CGLEffect.h</text>
</a>
</g>
</g>
<!-- Node1&#45;&gt;Node2 -->
<g id="edge1" class="edge"><title>Node1&#45;&gt;Node2</title>
<path fill="none" stroke="midnightblue" d="M310.966,-224.781C302.809,-215.882 292.278,-204.394 283.806,-195.152"/>
<polygon fill="midnightblue" stroke="midnightblue" points="286.34,-192.737 277.003,-187.731 281.18,-197.467 286.34,-192.737"/>
</g>
<!-- Node10 -->
<g id="node10" class="node"><title>Node10</title>
<g id="a_node10"><a xlink:href="$df/dcb/_c_g_l_vector4_d_8h.xhtml" xlink:title="CGLVector4D.h">
<polygon fill="white" stroke="black" points="336,-168.5 336,-187.5 422,-187.5 422,-168.5 336,-168.5"/>
<text text-anchor="middle" x="379" y="-175.5" font-family="Helvetica,sans-Serif" font-size="10.00">CGLVector4D.h</text>
</a>
</g>
</g>
<!-- Node1&#45;&gt;Node10 -->
<g id="edge9" class="edge"><title>Node1&#45;&gt;Node10</title>
<path fill="none" stroke="midnightblue" d="M337.034,-224.781C345.191,-215.882 355.722,-204.394 364.194,-195.152"/>
<polygon fill="midnightblue" stroke="midnightblue" points="366.82,-197.467 370.997,-187.731 361.66,-192.737 366.82,-197.467"/>
</g>
<!-- Node3 -->
<g id="node3" class="node"><title>Node3</title>
<g id="a_node3"><a xlink:href="$d6/d55/_c_g_l_object_8h.xhtml" xlink:title="CGLObject.h">
<polygon fill="white" stroke="black" points="206,-112.5 206,-131.5 280,-131.5 280,-112.5 206,-112.5"/>
<text text-anchor="middle" x="243" y="-119.5" font-family="Helvetica,sans-Serif" font-size="10.00">CGLObject.h</text>
</a>
</g>
</g>
<!-- Node2&#45;&gt;Node3 -->
<g id="edge2" class="edge"><title>Node2&#45;&gt;Node3</title>
<path fill="none" stroke="midnightblue" d="M264.707,-168.083C261.148,-160.691 255.978,-149.953 251.576,-140.811"/>
<polygon fill="midnightblue" stroke="midnightblue" points="254.705,-139.243 247.213,-131.751 248.398,-142.279 254.705,-139.243"/>
</g>
<!-- Node4 -->
<g id="node4" class="node"><title>Node4</title>
<polygon fill="white" stroke="#bfbfbf" points="0,-56.5 0,-75.5 54,-75.5 54,-56.5 0,-56.5"/>
<text text-anchor="middle" x="27" y="-63.5" font-family="Helvetica,sans-Serif" font-size="10.00">iostream</text>
</g>
<!-- Node3&#45;&gt;Node4 -->
<g id="edge3" class="edge"><title>Node3&#45;&gt;Node4</title>
<path fill="none" stroke="midnightblue" d="M208.774,-112.444C169.295,-102.574 104.623,-86.4057 64.005,-76.2512"/>
<polygon fill="midnightblue" stroke="midnightblue" points="64.7769,-72.8366 54.2266,-73.8067 63.0791,-79.6276 64.7769,-72.8366"/>
</g>
<!-- Node5 -->
<g id="node5" class="node"><title>Node5</title>
<polygon fill="white" stroke="#bfbfbf" points="72,-56.5 72,-75.5 120,-75.5 120,-56.5 72,-56.5"/>
<text text-anchor="middle" x="96" y="-63.5" font-family="Helvetica,sans-Serif" font-size="10.00">GL/gl.h</text>
</g>
<!-- Node3&#45;&gt;Node5 -->
<g id="edge4" class="edge"><title>Node3&#45;&gt;Node5</title>
<path fill="none" stroke="midnightblue" d="M219.707,-112.444C195.193,-103.438 156.404,-89.1891 128.8,-79.049"/>
<polygon fill="midnightblue" stroke="midnightblue" points="129.777,-75.6793 119.184,-75.5164 127.363,-82.25 129.777,-75.6793"/>
</g>
<!-- Node6 -->
<g id="node6" class="node"><title>Node6</title>
<polygon fill="white" stroke="#bfbfbf" points="138.5,-56.5 138.5,-75.5 191.5,-75.5 191.5,-56.5 138.5,-56.5"/>
<text text-anchor="middle" x="165" y="-63.5" font-family="Helvetica,sans-Serif" font-size="10.00">GL/glu.h</text>
</g>
<!-- Node3&#45;&gt;Node6 -->
<g id="edge5" class="edge"><title>Node3&#45;&gt;Node6</title>
<path fill="none" stroke="midnightblue" d="M230.468,-112.324C218.414,-103.979 199.973,-91.2122 185.731,-81.3524"/>
<polygon fill="midnightblue" stroke="midnightblue" points="187.715,-78.469 177.501,-75.6545 183.731,-84.2243 187.715,-78.469"/>
</g>
<!-- Node7 -->
<g id="node7" class="node"><title>Node7</title>
<polygon fill="white" stroke="#bfbfbf" points="209.5,-56.5 209.5,-75.5 276.5,-75.5 276.5,-56.5 209.5,-56.5"/>
<text text-anchor="middle" x="243" y="-63.5" font-family="Helvetica,sans-Serif" font-size="10.00">SDL/SDL.h</text>
</g>
<!-- Node3&#45;&gt;Node7 -->
<g id="edge6" class="edge"><title>Node3&#45;&gt;Node7</title>
<path fill="none" stroke="midnightblue" d="M243,-112.083C243,-105.006 243,-94.8611 243,-85.9865"/>
<polygon fill="midnightblue" stroke="midnightblue" points="246.5,-85.751 243,-75.7511 239.5,-85.7511 246.5,-85.751"/>
</g>
<!-- Node8 -->
<g id="node8" class="node"><title>Node8</title>
<polygon fill="white" stroke="#bfbfbf" points="294.5,-56.5 294.5,-75.5 335.5,-75.5 335.5,-56.5 294.5,-56.5"/>
<text text-anchor="middle" x="315" y="-63.5" font-family="Helvetica,sans-Serif" font-size="10.00">string</text>
</g>
<!-- Node3&#45;&gt;Node8 -->
<g id="edge7" class="edge"><title>Node3&#45;&gt;Node8</title>
<path fill="none" stroke="midnightblue" d="M254.568,-112.324C265.42,-104.185 281.881,-91.8395 294.883,-82.0874"/>
<polygon fill="midnightblue" stroke="midnightblue" points="297.321,-84.6339 303.221,-75.8339 293.121,-79.0339 297.321,-84.6339"/>
</g>
<!-- Node9 -->
<g id="node9" class="node"><title>Node9</title>
<polygon fill="white" stroke="#bfbfbf" points="353.5,-56.5 353.5,-75.5 382.5,-75.5 382.5,-56.5 353.5,-56.5"/>
<text text-anchor="middle" x="368" y="-63.5" font-family="Helvetica,sans-Serif" font-size="10.00">list</text>
</g>
<!-- Node3&#45;&gt;Node9 -->
<g id="edge8" class="edge"><title>Node3&#45;&gt;Node9</title>
<path fill="none" stroke="midnightblue" d="M262.807,-112.444C284.853,-102.92 320.475,-87.5307 344.065,-77.3399"/>
<polygon fill="midnightblue" stroke="midnightblue" points="345.572,-80.5018 353.363,-73.323 342.795,-74.0758 345.572,-80.5018"/>
</g>
<!-- Node11 -->
<g id="node11" class="node"><title>Node11</title>
<g id="a_node11"><a xlink:href="$dd/d83/_c_g_l_vector3_d_8h.xhtml" xlink:title="CGLVector3D.h">
<polygon fill="white" stroke="black" points="349,-112.5 349,-131.5 435,-131.5 435,-112.5 349,-112.5"/>
<text text-anchor="middle" x="392" y="-119.5" font-family="Helvetica,sans-Serif" font-size="10.00">CGLVector3D.h</text>
</a>
</g>
</g>
<!-- Node10&#45;&gt;Node11 -->
<g id="edge10" class="edge"><title>Node10&#45;&gt;Node11</title>
<path fill="none" stroke="midnightblue" d="M381.147,-168.083C382.869,-160.927 385.347,-150.635 387.5,-141.691"/>
<polygon fill="midnightblue" stroke="midnightblue" points="390.955,-142.293 389.893,-131.751 384.15,-140.654 390.955,-142.293"/>
</g>
<!-- Node12 -->
<g id="node12" class="node"><title>Node12</title>
<g id="a_node12"><a xlink:href="$dc/dee/_c_g_l_vector2_d_8h.xhtml" xlink:title="CGLVector2D.h">
<polygon fill="white" stroke="black" points="401,-56.5 401,-75.5 487,-75.5 487,-56.5 401,-56.5"/>
<text text-anchor="middle" x="444" y="-63.5" font-family="Helvetica,sans-Serif" font-size="10.00">CGLVector2D.h</text>
</a>
</g>
</g>
<!-- Node11&#45;&gt;Node12 -->
<g id="edge11" class="edge"><title>Node11&#45;&gt;Node12</title>
<path fill="none" stroke="midnightblue" d="M400.587,-112.083C408.159,-104.22 419.378,-92.5688 428.514,-83.0813"/>
<polygon fill="midnightblue" stroke="midnightblue" points="431.158,-85.3821 435.573,-75.7511 426.115,-80.5266 431.158,-85.3821"/>
</g>
<!-- Node13 -->
<g id="node13" class="node"><title>Node13</title>
<polygon fill="white" stroke="#bfbfbf" points="422,-0.5 422,-19.5 466,-19.5 466,-0.5 422,-0.5"/>
<text text-anchor="middle" x="444" y="-7.5" font-family="Helvetica,sans-Serif" font-size="10.00">cmath</text>
</g>
<!-- Node12&#45;&gt;Node13 -->
<g id="edge12" class="edge"><title>Node12&#45;&gt;Node13</title>
<path fill="none" stroke="midnightblue" d="M444,-56.083C444,-49.0059 444,-38.8611 444,-29.9865"/>
<polygon fill="midnightblue" stroke="midnightblue" points="447.5,-29.751 444,-19.7511 440.5,-29.7511 447.5,-29.751"/>
</g>
</g>
</svg>
