<?xml version="1.0" encoding="UTF-8" standalone="no"?>
<!DOCTYPE svg PUBLIC "-//W3C//DTD SVG 1.1//EN"
 "http://www.w3.org/Graphics/SVG/1.1/DTD/svg11.dtd">
<!-- Generated by graphviz version 2.36.0 (20140111.2315)
 -->
<!-- Title: /home/dagal/git/DamierGL/DamierGL/src/CGL/CGLCameraList.h Pages: 1 -->
<svg width="575pt" height="312pt"
 viewBox="0.00 0.00 575.00 312.00" xmlns="http://www.w3.org/2000/svg" xmlns:xlink="http://www.w3.org/1999/xlink">
<g id="graph0" class="graph" transform="scale(1 1) rotate(0) translate(4 308)">
<title>/home/dagal/git/DamierGL/DamierGL/src/CGL/CGLCameraList.h</title>
<polygon fill="white" stroke="none" points="-4,4 -4,-308 571,-308 571,4 -4,4"/>
<!-- Node1 -->
<g id="node1" class="node"><title>Node1</title>
<polygon fill="#bfbfbf" stroke="black" points="103.5,-273 103.5,-303 288.5,-303 288.5,-273 103.5,-273"/>
<text text-anchor="start" x="111.5" y="-291" font-family="Helvetica,sans-Serif" font-size="10.00">/home/dagal/git/DamierGL</text>
<text text-anchor="middle" x="196" y="-280" font-family="Helvetica,sans-Serif" font-size="10.00">/DamierGL/src/CGL/CGLCameraList.h</text>
</g>
<!-- Node2 -->
<g id="node2" class="node"><title>Node2</title>
<g id="a_node2"><a xlink:href="../../df/d1a/_c_g_l_camera_list_8cpp.xhtml" target="_top" xlink:title="/home/dagal/git/DamierGL\l/DamierGL/src/CGL/CGLCameraList.cpp">
<polygon fill="white" stroke="black" points="-1,-205 -1,-235 195,-235 195,-205 -1,-205"/>
<text text-anchor="start" x="7" y="-223" font-family="Helvetica,sans-Serif" font-size="10.00">/home/dagal/git/DamierGL</text>
<text text-anchor="middle" x="97" y="-212" font-family="Helvetica,sans-Serif" font-size="10.00">/DamierGL/src/CGL/CGLCameraList.cpp</text>
</a>
</g>
</g>
<!-- Node1&#45;&gt;Node2 -->
<g id="edge1" class="edge"><title>Node1&#45;&gt;Node2</title>
<path fill="none" stroke="midnightblue" d="M165.833,-266.888C150.4,-256.6 131.994,-244.329 118.099,-235.066"/>
<polygon fill="midnightblue" stroke="midnightblue" points="164.256,-270.044 174.518,-272.679 168.139,-264.22 164.256,-270.044"/>
</g>
<!-- Node3 -->
<g id="node3" class="node"><title>Node3</title>
<g id="a_node3"><a xlink:href="../../d0/dc9/_c_g_l_scene_8h.xhtml" target="_top" xlink:title="/home/dagal/git/DamierGL\l/DamierGL/src/CGL/CGLScene.h">
<polygon fill="white" stroke="black" points="213.5,-205 213.5,-235 376.5,-235 376.5,-205 213.5,-205"/>
<text text-anchor="start" x="221.5" y="-223" font-family="Helvetica,sans-Serif" font-size="10.00">/home/dagal/git/DamierGL</text>
<text text-anchor="middle" x="295" y="-212" font-family="Helvetica,sans-Serif" font-size="10.00">/DamierGL/src/CGL/CGLScene.h</text>
</a>
</g>
</g>
<!-- Node1&#45;&gt;Node3 -->
<g id="edge2" class="edge"><title>Node1&#45;&gt;Node3</title>
<path fill="none" stroke="midnightblue" d="M226.167,-266.888C241.6,-256.6 260.006,-244.329 273.901,-235.066"/>
<polygon fill="midnightblue" stroke="midnightblue" points="223.861,-264.22 217.482,-272.679 227.744,-270.044 223.861,-264.22"/>
</g>
<!-- Node4 -->
<g id="node4" class="node"><title>Node4</title>
<g id="a_node4"><a xlink:href="../../d0/d58/_c_g_l_scene_8cpp.xhtml" target="_top" xlink:title="/home/dagal/git/DamierGL\l/DamierGL/src/CGL/CGLScene.cpp">
<polygon fill="white" stroke="black" points="115.5,-137 115.5,-167 288.5,-167 288.5,-137 115.5,-137"/>
<text text-anchor="start" x="123.5" y="-155" font-family="Helvetica,sans-Serif" font-size="10.00">/home/dagal/git/DamierGL</text>
<text text-anchor="middle" x="202" y="-144" font-family="Helvetica,sans-Serif" font-size="10.00">/DamierGL/src/CGL/CGLScene.cpp</text>
</a>
</g>
</g>
<!-- Node3&#45;&gt;Node4 -->
<g id="edge3" class="edge"><title>Node3&#45;&gt;Node4</title>
<path fill="none" stroke="midnightblue" d="M266.661,-198.888C252.164,-188.6 234.873,-176.329 221.821,-167.066"/>
<polygon fill="midnightblue" stroke="midnightblue" points="264.64,-201.746 274.82,-204.679 268.691,-196.037 264.64,-201.746"/>
</g>
<!-- Node5 -->
<g id="node5" class="node"><title>Node5</title>
<g id="a_node5"><a xlink:href="../../d6/d37/_c_g_l_world_8h.xhtml" target="_top" xlink:title="/home/dagal/git/DamierGL\l/DamierGL/src/CGL/CGLWorld.h">
<polygon fill="white" stroke="black" points="306.5,-137 306.5,-167 467.5,-167 467.5,-137 306.5,-137"/>
<text text-anchor="start" x="314.5" y="-155" font-family="Helvetica,sans-Serif" font-size="10.00">/home/dagal/git/DamierGL</text>
<text text-anchor="middle" x="387" y="-144" font-family="Helvetica,sans-Serif" font-size="10.00">/DamierGL/src/CGL/CGLWorld.h</text>
</a>
</g>
</g>
<!-- Node3&#45;&gt;Node5 -->
<g id="edge4" class="edge"><title>Node3&#45;&gt;Node5</title>
<path fill="none" stroke="midnightblue" d="M323.437,-198.599C337.695,-188.371 354.601,-176.243 367.392,-167.066"/>
<polygon fill="midnightblue" stroke="midnightblue" points="321.048,-196.006 314.963,-204.679 325.128,-201.694 321.048,-196.006"/>
</g>
<!-- Node6 -->
<g id="node6" class="node"><title>Node6</title>
<g id="a_node6"><a xlink:href="../../de/d96/_c_g_l_window_8h.xhtml" target="_top" xlink:title="/home/dagal/git/DamierGL\l/DamierGL/src/CGL/CGLWindow.h">
<polygon fill="white" stroke="black" points="208,-69 208,-99 378,-99 378,-69 208,-69"/>
<text text-anchor="start" x="216" y="-87" font-family="Helvetica,sans-Serif" font-size="10.00">/home/dagal/git/DamierGL</text>
<text text-anchor="middle" x="293" y="-76" font-family="Helvetica,sans-Serif" font-size="10.00">/DamierGL/src/CGL/CGLWindow.h</text>
</a>
</g>
</g>
<!-- Node5&#45;&gt;Node6 -->
<g id="edge5" class="edge"><title>Node5&#45;&gt;Node6</title>
<path fill="none" stroke="midnightblue" d="M358.356,-130.888C343.703,-120.6 326.227,-108.329 313.034,-99.0663"/>
<polygon fill="midnightblue" stroke="midnightblue" points="356.408,-133.797 366.603,-136.679 360.43,-128.068 356.408,-133.797"/>
</g>
<!-- Node9 -->
<g id="node9" class="node"><title>Node9</title>
<g id="a_node9"><a xlink:href="../../dd/d05/_c_g_l_world_8cpp.xhtml" target="_top" xlink:title="/home/dagal/git/DamierGL\l/DamierGL/src/CGL/CGLWorld.cpp">
<polygon fill="white" stroke="black" points="396.5,-69 396.5,-99 567.5,-99 567.5,-69 396.5,-69"/>
<text text-anchor="start" x="404.5" y="-87" font-family="Helvetica,sans-Serif" font-size="10.00">/home/dagal/git/DamierGL</text>
<text text-anchor="middle" x="482" y="-76" font-family="Helvetica,sans-Serif" font-size="10.00">/DamierGL/src/CGL/CGLWorld.cpp</text>
</a>
</g>
</g>
<!-- Node5&#45;&gt;Node9 -->
<g id="edge8" class="edge"><title>Node5&#45;&gt;Node9</title>
<path fill="none" stroke="midnightblue" d="M415.949,-130.888C430.757,-120.6 448.42,-108.329 461.753,-99.0663"/>
<polygon fill="midnightblue" stroke="midnightblue" points="413.829,-128.099 407.614,-136.679 417.823,-133.848 413.829,-128.099"/>
</g>
<!-- Node7 -->
<g id="node7" class="node"><title>Node7</title>
<g id="a_node7"><a xlink:href="../../df/d9a/_c_g_l_window_8cpp.xhtml" target="_top" xlink:title="/home/dagal/git/DamierGL\l/DamierGL/src/CGL/CGLWindow.cpp">
<polygon fill="white" stroke="black" points="111.5,-1 111.5,-31 292.5,-31 292.5,-1 111.5,-1"/>
<text text-anchor="start" x="119.5" y="-19" font-family="Helvetica,sans-Serif" font-size="10.00">/home/dagal/git/DamierGL</text>
<text text-anchor="middle" x="202" y="-8" font-family="Helvetica,sans-Serif" font-size="10.00">/DamierGL/src/CGL/CGLWindow.cpp</text>
</a>
</g>
</g>
<!-- Node6&#45;&gt;Node7 -->
<g id="edge6" class="edge"><title>Node6&#45;&gt;Node7</title>
<path fill="none" stroke="midnightblue" d="M264.872,-62.5994C250.769,-52.3712 234.047,-40.2428 221.394,-31.0663"/>
<polygon fill="midnightblue" stroke="midnightblue" points="263.104,-65.6411 273.254,-68.679 267.214,-59.9745 263.104,-65.6411"/>
</g>
<!-- Node8 -->
<g id="node8" class="node"><title>Node8</title>
<g id="a_node8"><a xlink:href="../../db/dec/_damier_g_l_8cpp.xhtml" target="_top" xlink:title="/home/dagal/git/DamierGL\l/DamierGL/src/DamierGL.cpp">
<polygon fill="white" stroke="black" points="311,-1 311,-31 457,-31 457,-1 311,-1"/>
<text text-anchor="start" x="319" y="-19" font-family="Helvetica,sans-Serif" font-size="10.00">/home/dagal/git/DamierGL</text>
<text text-anchor="middle" x="384" y="-8" font-family="Helvetica,sans-Serif" font-size="10.00">/DamierGL/src/DamierGL.cpp</text>
</a>
</g>
</g>
<!-- Node6&#45;&gt;Node8 -->
<g id="edge7" class="edge"><title>Node6&#45;&gt;Node8</title>
<path fill="none" stroke="midnightblue" d="M321.128,-62.5994C335.231,-52.3712 351.953,-40.2428 364.606,-31.0663"/>
<polygon fill="midnightblue" stroke="midnightblue" points="318.786,-59.9745 312.746,-68.679 322.896,-65.6411 318.786,-59.9745"/>
</g>
</g>
</svg>
