<?xml version="1.0" encoding="UTF-8" standalone="no"?>
<!DOCTYPE svg PUBLIC "-//W3C//DTD SVG 1.1//EN"
 "http://www.w3.org/Graphics/SVG/1.1/DTD/svg11.dtd">
<!-- Generated by graphviz version 2.36.0 (20140111.2315)
 -->
<!-- Title: CGLVector2D::setX Pages: 1 -->
<svg width="478pt" height="134pt"
 viewBox="0.00 0.00 478.00 134.00" xmlns="http://www.w3.org/2000/svg" xmlns:xlink="http://www.w3.org/1999/xlink">
<g id="graph0" class="graph" transform="scale(1 1) rotate(0) translate(4 130)">
<title>CGLVector2D::setX</title>
<polygon fill="white" stroke="none" points="-4,4 -4,-130 474,-130 474,4 -4,4"/>
<!-- Node1 -->
<g id="node1" class="node"><title>Node1</title>
<polygon fill="#bfbfbf" stroke="black" points="0,-57.5 0,-76.5 104,-76.5 104,-57.5 0,-57.5"/>
<text text-anchor="middle" x="52" y="-64.5" font-family="Helvetica,sans-Serif" font-size="10.00">CGLVector2D::setX</text>
</g>
<!-- Node2 -->
<g id="node2" class="node"><title>Node2</title>
<g id="a_node2"><a xlink:href="../../d7/dc4/class_c_g_l_position_speed.xhtml#a05d2476423f84d0a64ecec45fd7009ab" target="_top" xlink:title="CGLPositionSpeed::CGLPosition\lSpeed">
<polygon fill="white" stroke="black" points="140.5,-96 140.5,-126 301.5,-126 301.5,-96 140.5,-96"/>
<text text-anchor="start" x="148.5" y="-114" font-family="Helvetica,sans-Serif" font-size="10.00">CGLPositionSpeed::CGLPosition</text>
<text text-anchor="middle" x="221" y="-103" font-family="Helvetica,sans-Serif" font-size="10.00">Speed</text>
</a>
</g>
</g>
<!-- Node1&#45;&gt;Node2 -->
<g id="edge1" class="edge"><title>Node1&#45;&gt;Node2</title>
<path fill="none" stroke="midnightblue" d="M98.915,-79.0974C118.666,-84.3013 141.963,-90.4395 162.82,-95.9346"/>
<polygon fill="midnightblue" stroke="midnightblue" points="99.7983,-75.7107 89.2365,-76.5473 98.0148,-82.4797 99.7983,-75.7107"/>
</g>
<!-- Node3 -->
<g id="node3" class="node"><title>Node3</title>
<g id="a_node3"><a xlink:href="../../d7/dc4/class_c_g_l_position_speed.xhtml#ac2a548b1df4418be822a62d623fdd1ec" target="_top" xlink:title="CGLPositionSpeed::drawObject">
<polygon fill="white" stroke="black" points="143.5,-57.5 143.5,-76.5 298.5,-76.5 298.5,-57.5 143.5,-57.5"/>
<text text-anchor="middle" x="221" y="-64.5" font-family="Helvetica,sans-Serif" font-size="10.00">CGLPositionSpeed::drawObject</text>
</a>
</g>
</g>
<!-- Node1&#45;&gt;Node3 -->
<g id="edge2" class="edge"><title>Node1&#45;&gt;Node3</title>
<path fill="none" stroke="midnightblue" d="M114.166,-67C123.699,-67 133.65,-67 143.472,-67"/>
<polygon fill="midnightblue" stroke="midnightblue" points="114.013,-63.5001 104.013,-67 114.013,-70.5001 114.013,-63.5001"/>
</g>
<!-- Node4 -->
<g id="node4" class="node"><title>Node4</title>
<g id="a_node4"><a xlink:href="../../d8/d97/class_c_g_l_vector2_d.xhtml#a37b79a5ca7b3445df956e177f7c436fc" target="_top" xlink:title="CGLVector2D::set">
<polygon fill="white" stroke="black" points="172,-19.5 172,-38.5 270,-38.5 270,-19.5 172,-19.5"/>
<text text-anchor="middle" x="221" y="-26.5" font-family="Helvetica,sans-Serif" font-size="10.00">CGLVector2D::set</text>
</a>
</g>
</g>
<!-- Node1&#45;&gt;Node4 -->
<g id="edge3" class="edge"><title>Node1&#45;&gt;Node4</title>
<path fill="none" stroke="midnightblue" d="M104.965,-55.1757C128.509,-49.8184 155.974,-43.5689 178.162,-38.5201"/>
<polygon fill="midnightblue" stroke="midnightblue" points="104.115,-51.7794 95.1412,-57.411 105.668,-58.6049 104.115,-51.7794"/>
</g>
<!-- Node5 -->
<g id="node5" class="node"><title>Node5</title>
<g id="a_node5"><a xlink:href="../../df/d41/class_c_g_l_quad.xhtml#a95b07c1605f65de30cb47b65fa364294" target="_top" xlink:title="CGLQuad::CGLQuad">
<polygon fill="white" stroke="black" points="349,-38.5 349,-57.5 459,-57.5 459,-38.5 349,-38.5"/>
<text text-anchor="middle" x="404" y="-45.5" font-family="Helvetica,sans-Serif" font-size="10.00">CGLQuad::CGLQuad</text>
</a>
</g>
</g>
<!-- Node4&#45;&gt;Node5 -->
<g id="edge4" class="edge"><title>Node4&#45;&gt;Node5</title>
<path fill="none" stroke="midnightblue" d="M280.266,-35.1164C302.331,-37.4326 327.336,-40.0574 348.993,-42.3307"/>
<polygon fill="midnightblue" stroke="midnightblue" points="280.34,-31.605 270.029,-34.0418 279.609,-38.5667 280.34,-31.605"/>
</g>
<!-- Node6 -->
<g id="node6" class="node"><title>Node6</title>
<g id="a_node6"><a xlink:href="../../d1/d68/class_c_g_l_triangle.xhtml#a4b704efe008da14c3fc290ca86dc4b8c" target="_top" xlink:title="CGLTriangle::CGLTriangle">
<polygon fill="white" stroke="black" points="338,-0.5 338,-19.5 470,-19.5 470,-0.5 338,-0.5"/>
<text text-anchor="middle" x="404" y="-7.5" font-family="Helvetica,sans-Serif" font-size="10.00">CGLTriangle::CGLTriangle</text>
</a>
</g>
</g>
<!-- Node4&#45;&gt;Node6 -->
<g id="edge5" class="edge"><title>Node4&#45;&gt;Node6</title>
<path fill="none" stroke="midnightblue" d="M280.008,-22.9107C298.394,-20.9807 318.843,-18.8341 337.705,-16.8542"/>
<polygon fill="midnightblue" stroke="midnightblue" points="279.609,-19.4333 270.029,-23.9582 280.34,-26.395 279.609,-19.4333"/>
</g>
</g>
</svg>
