<?xml version="1.0" encoding="UTF-8" standalone="no"?>
<!DOCTYPE svg PUBLIC "-//W3C//DTD SVG 1.1//EN"
 "http://www.w3.org/Graphics/SVG/1.1/DTD/svg11.dtd">
<!-- Generated by graphviz version 2.36.0 (20140111.2315)
 -->
<!-- Title: CGLVector2D::setMaxX Pages: 1 -->
<svg width="374pt" height="28pt"
 viewBox="0.00 0.00 374.00 28.00" xmlns="http://www.w3.org/2000/svg" xmlns:xlink="http://www.w3.org/1999/xlink">
<g id="graph0" class="graph" transform="scale(1 1) rotate(0) translate(4 24)">
<title>CGLVector2D::setMaxX</title>
<polygon fill="white" stroke="none" points="-4,4 -4,-24 370,-24 370,4 -4,4"/>
<!-- Node1 -->
<g id="node1" class="node"><title>Node1</title>
<polygon fill="#bfbfbf" stroke="black" points="0.5,-0.5 0.5,-19.5 123.5,-19.5 123.5,-0.5 0.5,-0.5"/>
<text text-anchor="middle" x="62" y="-7.5" font-family="Helvetica,sans-Serif" font-size="10.00">CGLVector2D::setMaxX</text>
</g>
<!-- Node2 -->
<g id="node2" class="node"><title>Node2</title>
<g id="a_node2"><a xlink:href="../../d8/d97/class_c_g_l_vector2_d.xhtml#ad3830da7d5449a24927930329d3304dd" target="_top" xlink:title="CGLVector2D::setMinMax">
<polygon fill="white" stroke="black" points="160,-0.5 160,-19.5 292,-19.5 292,-0.5 160,-0.5"/>
<text text-anchor="middle" x="226" y="-7.5" font-family="Helvetica,sans-Serif" font-size="10.00">CGLVector2D::setMinMax</text>
</a>
</g>
</g>
<!-- Node1&#45;&gt;Node2 -->
<g id="edge1" class="edge"><title>Node1&#45;&gt;Node2</title>
<path fill="none" stroke="midnightblue" d="M133.828,-10C142.465,-10 151.26,-10 159.81,-10"/>
<polygon fill="midnightblue" stroke="midnightblue" points="133.784,-6.5001 123.784,-10 133.784,-13.5001 133.784,-6.5001"/>
</g>
<!-- Node3 -->
<g id="node3" class="node"><title>Node3</title>
<g id="a_node3"><a xlink:href="../../db/dec/_damier_g_l_8cpp.xhtml#a0ddf1224851353fc92bfbff6f499fa97" target="_top" xlink:title="main">
<polygon fill="white" stroke="black" points="328,-0.5 328,-19.5 366,-19.5 366,-0.5 328,-0.5"/>
<text text-anchor="middle" x="347" y="-7.5" font-family="Helvetica,sans-Serif" font-size="10.00">main</text>
</a>
</g>
</g>
<!-- Node2&#45;&gt;Node3 -->
<g id="edge2" class="edge"><title>Node2&#45;&gt;Node3</title>
<path fill="none" stroke="midnightblue" d="M302.325,-10C311.618,-10 320.355,-10 327.537,-10"/>
<polygon fill="midnightblue" stroke="midnightblue" points="302.071,-6.5001 292.071,-10 302.071,-13.5001 302.071,-6.5001"/>
</g>
</g>
</svg>
