<?xml version="1.0" encoding="UTF-8" standalone="no"?>
<!DOCTYPE svg PUBLIC "-//W3C//DTD SVG 1.1//EN"
 "http://www.w3.org/Graphics/SVG/1.1/DTD/svg11.dtd">
<!-- Generated by graphviz version 2.36.0 (20140111.2315)
 -->
<!-- Title: CGLVector2D::getX Pages: 1 -->
<svg width="406pt" height="294pt"
 viewBox="0.00 0.00 406.00 294.00" xmlns="http://www.w3.org/2000/svg" xmlns:xlink="http://www.w3.org/1999/xlink">
<g id="graph0" class="graph" transform="scale(1 1) rotate(0) translate(4 290)">
<title>CGLVector2D::getX</title>
<polygon fill="white" stroke="none" points="-4,4 -4,-290 402,-290 402,4 -4,4"/>
<!-- Node1 -->
<g id="node1" class="node"><title>Node1</title>
<polygon fill="#bfbfbf" stroke="black" points="0,-133.5 0,-152.5 104,-152.5 104,-133.5 0,-133.5"/>
<text text-anchor="middle" x="52" y="-140.5" font-family="Helvetica,sans-Serif" font-size="10.00">CGLVector2D::getX</text>
</g>
<!-- Node2 -->
<g id="node2" class="node"><title>Node2</title>
<g id="a_node2"><a xlink:href="../../d7/dd6/class_c_g_l_color.xhtml#ac6d5a5366ee03d2061d6c79981d322c4" target="_top" xlink:title="CGLColor::getR">
<polygon fill="white" stroke="black" points="175.5,-266.5 175.5,-285.5 262.5,-285.5 262.5,-266.5 175.5,-266.5"/>
<text text-anchor="middle" x="219" y="-273.5" font-family="Helvetica,sans-Serif" font-size="10.00">CGLColor::getR</text>
</a>
</g>
</g>
<!-- Node1&#45;&gt;Node2 -->
<g id="edge1" class="edge"><title>Node1&#45;&gt;Node2</title>
<path fill="none" stroke="midnightblue" d="M62.1024,-161.787C75.5064,-187.395 103.021,-232.829 140,-257 150.5,-263.863 163.257,-268.249 175.388,-271.051"/>
<polygon fill="midnightblue" stroke="midnightblue" points="65.1593,-160.076 57.5213,-152.734 58.9133,-163.237 65.1593,-160.076"/>
</g>
<!-- Node3 -->
<g id="node3" class="node"><title>Node3</title>
<g id="a_node3"><a xlink:href="../../d7/dd6/class_c_g_l_color.xhtml#a69d92c401c12b7846c458c41a564b3ae" target="_top" xlink:title="CGLColor::drawObject">
<polygon fill="white" stroke="black" points="161,-228.5 161,-247.5 277,-247.5 277,-228.5 161,-228.5"/>
<text text-anchor="middle" x="219" y="-235.5" font-family="Helvetica,sans-Serif" font-size="10.00">CGLColor::drawObject</text>
</a>
</g>
</g>
<!-- Node1&#45;&gt;Node3 -->
<g id="edge2" class="edge"><title>Node1&#45;&gt;Node3</title>
<path fill="none" stroke="midnightblue" d="M68.0403,-160.306C84.1271,-177.723 111.236,-204.081 140,-219 147.423,-222.85 155.652,-225.94 163.9,-228.413"/>
<polygon fill="midnightblue" stroke="midnightblue" points="70.3617,-157.653 61.0696,-152.564 65.1594,-162.337 70.3617,-157.653"/>
</g>
<!-- Node4 -->
<g id="node4" class="node"><title>Node4</title>
<g id="a_node4"><a xlink:href="../../d9/dfe/class_c_g_l_line.xhtml#a9621fa37a8b87f06e2a67aa8bf17d957" target="_top" xlink:title="CGLLine::drawObject">
<polygon fill="white" stroke="black" points="164,-190.5 164,-209.5 274,-209.5 274,-190.5 164,-190.5"/>
<text text-anchor="middle" x="219" y="-197.5" font-family="Helvetica,sans-Serif" font-size="10.00">CGLLine::drawObject</text>
</a>
</g>
</g>
<!-- Node1&#45;&gt;Node4 -->
<g id="edge3" class="edge"><title>Node1&#45;&gt;Node4</title>
<path fill="none" stroke="midnightblue" d="M81.5473,-156.961C98.2944,-164.771 120.026,-174.261 140,-181 150.565,-184.564 162.144,-187.756 173.072,-190.461"/>
<polygon fill="midnightblue" stroke="midnightblue" points="82.8497,-153.705 72.3138,-152.59 79.8546,-160.032 82.8497,-153.705"/>
</g>
<!-- Node5 -->
<g id="node5" class="node"><title>Node5</title>
<g id="a_node5"><a xlink:href="../../de/d31/class_c_g_l_position.xhtml#a439ae873ba7ef56826a27eb7b15b0b6f" target="_top" xlink:title="CGLPosition::drawObject">
<polygon fill="white" stroke="black" points="155,-152.5 155,-171.5 283,-171.5 283,-152.5 155,-152.5"/>
<text text-anchor="middle" x="219" y="-159.5" font-family="Helvetica,sans-Serif" font-size="10.00">CGLPosition::drawObject</text>
</a>
</g>
</g>
<!-- Node1&#45;&gt;Node5 -->
<g id="edge4" class="edge"><title>Node1&#45;&gt;Node5</title>
<path fill="none" stroke="midnightblue" d="M114.247,-150.053C127.484,-151.577 141.504,-153.191 154.813,-154.724"/>
<polygon fill="midnightblue" stroke="midnightblue" points="114.637,-146.575 104.303,-148.908 113.837,-153.529 114.637,-146.575"/>
</g>
<!-- Node6 -->
<g id="node6" class="node"><title>Node6</title>
<g id="a_node6"><a xlink:href="../../d4/dd5/class_c_g_l_rotation.xhtml#a94be2c089fbe52d0f8cb33ee98f8de74" target="_top" xlink:title="CGLRotation::drawObject">
<polygon fill="white" stroke="black" points="154.5,-114.5 154.5,-133.5 283.5,-133.5 283.5,-114.5 154.5,-114.5"/>
<text text-anchor="middle" x="219" y="-121.5" font-family="Helvetica,sans-Serif" font-size="10.00">CGLRotation::drawObject</text>
</a>
</g>
</g>
<!-- Node1&#45;&gt;Node6 -->
<g id="edge5" class="edge"><title>Node1&#45;&gt;Node6</title>
<path fill="none" stroke="midnightblue" d="M114.512,-135.917C127.474,-134.424 141.176,-132.846 154.22,-131.344"/>
<polygon fill="midnightblue" stroke="midnightblue" points="113.837,-132.471 104.303,-137.092 114.637,-139.425 113.837,-132.471"/>
</g>
<!-- Node7 -->
<g id="node7" class="node"><title>Node7</title>
<g id="a_node7"><a xlink:href="../../d4/d9e/class_c_g_l_rotation_speed.xhtml#a6549d856fc0ad620fd1507744104797f" target="_top" xlink:title="CGLRotationSpeed::drawObject">
<polygon fill="white" stroke="black" points="140.5,-76.5 140.5,-95.5 297.5,-95.5 297.5,-76.5 140.5,-76.5"/>
<text text-anchor="middle" x="219" y="-83.5" font-family="Helvetica,sans-Serif" font-size="10.00">CGLRotationSpeed::drawObject</text>
</a>
</g>
</g>
<!-- Node1&#45;&gt;Node7 -->
<g id="edge6" class="edge"><title>Node1&#45;&gt;Node7</title>
<path fill="none" stroke="midnightblue" d="M81.5473,-129.039C98.2944,-121.229 120.026,-111.739 140,-105 150.565,-101.436 162.144,-98.2437 173.072,-95.5393"/>
<polygon fill="midnightblue" stroke="midnightblue" points="79.8546,-125.968 72.3138,-133.41 82.8497,-132.295 79.8546,-125.968"/>
</g>
<!-- Node8 -->
<g id="node8" class="node"><title>Node8</title>
<g id="a_node8"><a xlink:href="../../dd/dd7/class_c_g_l_scale.xhtml#a27939db2fb5f900800f391bb06a387a4" target="_top" xlink:title="CGLScale::drawObject">
<polygon fill="white" stroke="black" points="160.5,-38.5 160.5,-57.5 277.5,-57.5 277.5,-38.5 160.5,-38.5"/>
<text text-anchor="middle" x="219" y="-45.5" font-family="Helvetica,sans-Serif" font-size="10.00">CGLScale::drawObject</text>
</a>
</g>
</g>
<!-- Node1&#45;&gt;Node8 -->
<g id="edge7" class="edge"><title>Node1&#45;&gt;Node8</title>
<path fill="none" stroke="midnightblue" d="M68.0403,-125.694C84.1271,-108.277 111.236,-81.9189 140,-67 147.423,-63.1496 155.652,-60.0604 163.9,-57.5871"/>
<polygon fill="midnightblue" stroke="midnightblue" points="65.1594,-123.663 61.0696,-133.436 70.3617,-128.347 65.1594,-123.663"/>
</g>
<!-- Node9 -->
<g id="node9" class="node"><title>Node9</title>
<g id="a_node9"><a xlink:href="../../d6/df9/class_c_g_l_vector3_d.xhtml#a339da32afa5a535aec027aba6b92e9b5" target="_top" xlink:title="CGLVector3D::isEqualTo">
<polygon fill="white" stroke="black" points="155,-0.5 155,-19.5 283,-19.5 283,-0.5 155,-0.5"/>
<text text-anchor="middle" x="219" y="-7.5" font-family="Helvetica,sans-Serif" font-size="10.00">CGLVector3D::isEqualTo</text>
</a>
</g>
</g>
<!-- Node1&#45;&gt;Node9 -->
<g id="edge8" class="edge"><title>Node1&#45;&gt;Node9</title>
<path fill="none" stroke="midnightblue" d="M62.1024,-124.213C75.5064,-98.6054 103.021,-53.1711 140,-29 145.95,-25.1109 152.625,-22.0173 159.5,-19.5566"/>
<polygon fill="midnightblue" stroke="midnightblue" points="58.9133,-122.763 57.5213,-133.266 65.1593,-125.924 58.9133,-122.763"/>
</g>
<!-- Node10 -->
<g id="node10" class="node"><title>Node10</title>
<g id="a_node10"><a xlink:href="../../dd/d83/_c_g_l_vector3_d_8h.xhtml#a2f5d20f2c4f87eb1c2e00a7b9537c13e" target="_top" xlink:title="operator==">
<polygon fill="white" stroke="black" points="334,-0.5 334,-19.5 398,-19.5 398,-0.5 334,-0.5"/>
<text text-anchor="middle" x="366" y="-7.5" font-family="Helvetica,sans-Serif" font-size="10.00">operator==</text>
</a>
</g>
</g>
<!-- Node9&#45;&gt;Node10 -->
<g id="edge9" class="edge"><title>Node9&#45;&gt;Node10</title>
<path fill="none" stroke="midnightblue" d="M293.516,-10C307.744,-10 321.921,-10 333.852,-10"/>
<polygon fill="midnightblue" stroke="midnightblue" points="293.177,-6.5001 283.177,-10 293.177,-13.5001 293.177,-6.5001"/>
</g>
</g>
</svg>
