<?xml version="1.0" encoding="UTF-8" standalone="no"?>
<!DOCTYPE svg PUBLIC "-//W3C//DTD SVG 1.1//EN"
 "http://www.w3.org/Graphics/SVG/1.1/DTD/svg11.dtd">
<!-- Generated by graphviz version 2.36.0 (20140111.2315)
 -->
<!-- Title: CGLVector2D::setY Pages: 1 -->
<svg width="472pt" height="85pt"
 viewBox="0.00 0.00 472.00 85.00" xmlns="http://www.w3.org/2000/svg" xmlns:xlink="http://www.w3.org/1999/xlink">
<g id="graph0" class="graph" transform="scale(1 1) rotate(0) translate(4 81)">
<title>CGLVector2D::setY</title>
<polygon fill="white" stroke="none" points="-4,4 -4,-81 468,-81 468,4 -4,4"/>
<!-- Node1 -->
<g id="node1" class="node"><title>Node1</title>
<polygon fill="#bfbfbf" stroke="black" points="0,-38.5 0,-57.5 104,-57.5 104,-38.5 0,-38.5"/>
<text text-anchor="middle" x="52" y="-45.5" font-family="Helvetica,sans-Serif" font-size="10.00">CGLVector2D::setY</text>
</g>
<!-- Node2 -->
<g id="node2" class="node"><title>Node2</title>
<g id="a_node2"><a xlink:href="../../d7/dc4/class_c_g_l_position_speed.xhtml#ac2a548b1df4418be822a62d623fdd1ec" target="_top" xlink:title="CGLPositionSpeed::drawObject">
<polygon fill="white" stroke="black" points="140.5,-57.5 140.5,-76.5 295.5,-76.5 295.5,-57.5 140.5,-57.5"/>
<text text-anchor="middle" x="218" y="-64.5" font-family="Helvetica,sans-Serif" font-size="10.00">CGLPositionSpeed::drawObject</text>
</a>
</g>
</g>
<!-- Node1&#45;&gt;Node2 -->
<g id="edge1" class="edge"><title>Node1&#45;&gt;Node2</title>
<path fill="none" stroke="midnightblue" d="M114.501,-55.1251C122.894,-56.0975 131.593,-57.1053 140.215,-58.1042"/>
<polygon fill="midnightblue" stroke="midnightblue" points="114.777,-51.6338 104.441,-53.9596 113.971,-58.5873 114.777,-51.6338"/>
</g>
<!-- Node3 -->
<g id="node3" class="node"><title>Node3</title>
<g id="a_node3"><a xlink:href="../../d8/d97/class_c_g_l_vector2_d.xhtml#a37b79a5ca7b3445df956e177f7c436fc" target="_top" xlink:title="CGLVector2D::set">
<polygon fill="white" stroke="black" points="169,-19.5 169,-38.5 267,-38.5 267,-19.5 169,-19.5"/>
<text text-anchor="middle" x="218" y="-26.5" font-family="Helvetica,sans-Serif" font-size="10.00">CGLVector2D::set</text>
</a>
</g>
</g>
<!-- Node1&#45;&gt;Node3 -->
<g id="edge2" class="edge"><title>Node1&#45;&gt;Node3</title>
<path fill="none" stroke="midnightblue" d="M114.529,-40.8716C132.476,-38.7924 151.821,-36.5513 168.816,-34.5823"/>
<polygon fill="midnightblue" stroke="midnightblue" points="113.971,-37.4127 104.441,-42.0404 114.777,-44.3662 113.971,-37.4127"/>
</g>
<!-- Node4 -->
<g id="node4" class="node"><title>Node4</title>
<g id="a_node4"><a xlink:href="../../df/d41/class_c_g_l_quad.xhtml#a95b07c1605f65de30cb47b65fa364294" target="_top" xlink:title="CGLQuad::CGLQuad">
<polygon fill="white" stroke="black" points="343,-38.5 343,-57.5 453,-57.5 453,-38.5 343,-38.5"/>
<text text-anchor="middle" x="398" y="-45.5" font-family="Helvetica,sans-Serif" font-size="10.00">CGLQuad::CGLQuad</text>
</a>
</g>
</g>
<!-- Node3&#45;&gt;Node4 -->
<g id="edge3" class="edge"><title>Node3&#45;&gt;Node4</title>
<path fill="none" stroke="midnightblue" d="M277.289,-35.2219C298.383,-37.4735 322.101,-40.0051 342.827,-42.2174"/>
<polygon fill="midnightblue" stroke="midnightblue" points="277.484,-31.7229 267.169,-34.1417 276.741,-38.6834 277.484,-31.7229"/>
</g>
<!-- Node5 -->
<g id="node5" class="node"><title>Node5</title>
<g id="a_node5"><a xlink:href="../../d1/d68/class_c_g_l_triangle.xhtml#a4b704efe008da14c3fc290ca86dc4b8c" target="_top" xlink:title="CGLTriangle::CGLTriangle">
<polygon fill="white" stroke="black" points="332,-0.5 332,-19.5 464,-19.5 464,-0.5 332,-0.5"/>
<text text-anchor="middle" x="398" y="-7.5" font-family="Helvetica,sans-Serif" font-size="10.00">CGLTriangle::CGLTriangle</text>
</a>
</g>
</g>
<!-- Node3&#45;&gt;Node5 -->
<g id="edge4" class="edge"><title>Node3&#45;&gt;Node5</title>
<path fill="none" stroke="midnightblue" d="M277.206,-22.787C294.645,-20.9255 313.885,-18.8719 331.747,-16.9652"/>
<polygon fill="midnightblue" stroke="midnightblue" points="276.741,-19.3166 267.169,-23.8583 277.484,-26.2771 276.741,-19.3166"/>
</g>
</g>
</svg>
