<?xml version="1.0" encoding="UTF-8" standalone="no"?>
<!DOCTYPE svg PUBLIC "-//W3C//DTD SVG 1.1//EN"
 "http://www.w3.org/Graphics/SVG/1.1/DTD/svg11.dtd">
<!-- Generated by graphviz version 2.36.0 (20140111.2315)
 -->
<!-- Title: CGLVector2D::set Pages: 1 -->
<svg width="274pt" height="66pt"
 viewBox="0.00 0.00 274.00 66.00" xmlns="http://www.w3.org/2000/svg" xmlns:xlink="http://www.w3.org/1999/xlink">
<g id="graph0" class="graph" transform="scale(1 1) rotate(0) translate(4 62)">
<title>CGLVector2D::set</title>
<polygon fill="white" stroke="none" points="-4,4 -4,-62 270,-62 270,4 -4,4"/>
<!-- Node1 -->
<g id="node1" class="node"><title>Node1</title>
<polygon fill="#bfbfbf" stroke="black" points="0,-19.5 0,-38.5 98,-38.5 98,-19.5 0,-19.5"/>
<text text-anchor="middle" x="49" y="-26.5" font-family="Helvetica,sans-Serif" font-size="10.00">CGLVector2D::set</text>
</g>
<!-- Node2 -->
<g id="node2" class="node"><title>Node2</title>
<g id="a_node2"><a xlink:href="../../df/d41/class_c_g_l_quad.xhtml#a95b07c1605f65de30cb47b65fa364294" target="_top" xlink:title="CGLQuad::CGLQuad">
<polygon fill="white" stroke="black" points="145,-38.5 145,-57.5 255,-57.5 255,-38.5 145,-38.5"/>
<text text-anchor="middle" x="200" y="-45.5" font-family="Helvetica,sans-Serif" font-size="10.00">CGLQuad::CGLQuad</text>
</a>
</g>
</g>
<!-- Node1&#45;&gt;Node2 -->
<g id="edge1" class="edge"><title>Node1&#45;&gt;Node2</title>
<path fill="none" stroke="midnightblue" d="M108.334,-36.4385C120.389,-37.9758 133.038,-39.5887 144.934,-41.1056"/>
<polygon fill="midnightblue" stroke="midnightblue" points="108.738,-32.9619 98.376,-35.1688 107.853,-39.9057 108.738,-32.9619"/>
</g>
<!-- Node3 -->
<g id="node3" class="node"><title>Node3</title>
<g id="a_node3"><a xlink:href="../../d1/d68/class_c_g_l_triangle.xhtml#a4b704efe008da14c3fc290ca86dc4b8c" target="_top" xlink:title="CGLTriangle::CGLTriangle">
<polygon fill="white" stroke="black" points="134,-0.5 134,-19.5 266,-19.5 266,-0.5 134,-0.5"/>
<text text-anchor="middle" x="200" y="-7.5" font-family="Helvetica,sans-Serif" font-size="10.00">CGLTriangle::CGLTriangle</text>
</a>
</g>
</g>
<!-- Node1&#45;&gt;Node3 -->
<g id="edge2" class="edge"><title>Node1&#45;&gt;Node3</title>
<path fill="none" stroke="midnightblue" d="M108.377,-21.556C116.716,-20.4927 125.337,-19.3933 133.796,-18.3146"/>
<polygon fill="midnightblue" stroke="midnightblue" points="107.853,-18.0943 98.376,-22.8312 108.738,-25.0381 107.853,-18.0943"/>
</g>
</g>
</svg>
