<?xml version="1.0" encoding="UTF-8" standalone="no"?>
<!DOCTYPE svg PUBLIC "-//W3C//DTD SVG 1.1//EN"
 "http://www.w3.org/Graphics/SVG/1.1/DTD/svg11.dtd">
<!-- Generated by graphviz version 2.36.0 (20140111.2315)
 -->
<!-- Title: CGLPosition Pages: 1 -->
<svg width="167pt" height="216pt"
 viewBox="0.00 0.00 167.00 216.00" xmlns="http://www.w3.org/2000/svg" xmlns:xlink="http://www.w3.org/1999/xlink">
<g id="graph0" class="graph" transform="scale(1 1) rotate(0) translate(4 212)">
<title>CGLPosition</title>
<polygon fill="white" stroke="none" points="-4,4 -4,-212 163,-212 163,4 -4,4"/>
<!-- Node1 -->
<g id="node1" class="node"><title>Node1</title>
<polygon fill="#bfbfbf" stroke="black" points="28.5,-1 28.5,-113 121.5,-113 121.5,-1 28.5,-1"/>
<text text-anchor="middle" x="75" y="-101" font-family="Helvetica,sans-Serif" font-size="10.00">CGLPosition</text>
<polyline fill="none" stroke="black" points="28.5,-94 121.5,-94 "/>
<text text-anchor="start" x="36.5" y="-82" font-family="Helvetica,sans-Serif" font-size="10.00"># speed</text>
<text text-anchor="start" x="36.5" y="-71" font-family="Helvetica,sans-Serif" font-size="10.00"># accel</text>
<polyline fill="none" stroke="black" points="28.5,-64 121.5,-64 "/>
<text text-anchor="start" x="36.5" y="-52" font-family="Helvetica,sans-Serif" font-size="10.00">+ CGLPosition()</text>
<text text-anchor="start" x="36.5" y="-41" font-family="Helvetica,sans-Serif" font-size="10.00">+ ~CGLPosition()</text>
<text text-anchor="start" x="36.5" y="-30" font-family="Helvetica,sans-Serif" font-size="10.00">+ drawObject()</text>
<text text-anchor="start" x="36.5" y="-19" font-family="Helvetica,sans-Serif" font-size="10.00">+ setSpeed()</text>
<text text-anchor="start" x="36.5" y="-8" font-family="Helvetica,sans-Serif" font-size="10.00">+ setAccel()</text>
</g>
<!-- Node2 -->
<g id="node2" class="node"><title>Node2</title>
<polygon fill="white" stroke="#bfbfbf" points="-0.5,-150.5 -0.5,-207.5 62.5,-207.5 62.5,-150.5 -0.5,-150.5"/>
<text text-anchor="middle" x="31" y="-195.5" font-family="Helvetica,sans-Serif" font-size="10.00">CGLEffect</text>
<polyline fill="none" stroke="#bfbfbf" points="-0.5,-188.5 62.5,-188.5 "/>
<text text-anchor="middle" x="31" y="-176.5" font-family="Helvetica,sans-Serif" font-size="10.00"> </text>
<polyline fill="none" stroke="#bfbfbf" points="-0.5,-169.5 62.5,-169.5 "/>
<text text-anchor="middle" x="31" y="-157.5" font-family="Helvetica,sans-Serif" font-size="10.00"> </text>
</g>
<!-- Node2&#45;&gt;Node1 -->
<g id="edge1" class="edge"><title>Node2&#45;&gt;Node1</title>
<path fill="none" stroke="midnightblue" d="M44.5801,-140.963C47.7893,-132.211 51.2799,-122.691 54.7145,-113.324"/>
<polygon fill="none" stroke="midnightblue" points="41.251,-139.876 41.0945,-150.47 47.8232,-142.286 41.251,-139.876"/>
</g>
<!-- Node3 -->
<g id="node3" class="node"><title>Node3</title>
<polygon fill="white" stroke="#bfbfbf" points="81,-150.5 81,-207.5 159,-207.5 159,-150.5 81,-150.5"/>
<text text-anchor="middle" x="120" y="-195.5" font-family="Helvetica,sans-Serif" font-size="10.00">CGLVector3D</text>
<polyline fill="none" stroke="#bfbfbf" points="81,-188.5 159,-188.5 "/>
<text text-anchor="middle" x="120" y="-176.5" font-family="Helvetica,sans-Serif" font-size="10.00"> </text>
<polyline fill="none" stroke="#bfbfbf" points="81,-169.5 159,-169.5 "/>
<text text-anchor="middle" x="120" y="-157.5" font-family="Helvetica,sans-Serif" font-size="10.00"> </text>
</g>
<!-- Node3&#45;&gt;Node1 -->
<g id="edge2" class="edge"><title>Node3&#45;&gt;Node1</title>
<path fill="none" stroke="midnightblue" d="M106.111,-140.963C102.829,-132.211 99.2592,-122.691 95.7465,-113.324"/>
<polygon fill="none" stroke="midnightblue" points="102.888,-142.335 109.676,-150.47 109.442,-139.877 102.888,-142.335"/>
</g>
</g>
</svg>
