<?xml version="1.0" encoding="UTF-8" standalone="no"?>
<!DOCTYPE svg PUBLIC "-//W3C//DTD SVG 1.1//EN"
 "http://www.w3.org/Graphics/SVG/1.1/DTD/svg11.dtd">
<!-- Generated by graphviz version 2.36.0 (20140111.2315)
 -->
<!-- Title: CGLWorld Pages: 1 -->
<svg width="112pt" height="498pt"
 viewBox="0.00 0.00 112.00 498.00" xmlns="http://www.w3.org/2000/svg" xmlns:xlink="http://www.w3.org/1999/xlink">
<g id="graph0" class="graph" transform="scale(1 1) rotate(0) translate(4 494)">
<title>CGLWorld</title>
<polygon fill="white" stroke="none" points="-4,4 -4,-494 108,-494 108,4 -4,4"/>
<!-- Node1 -->
<g id="node1" class="node"><title>Node1</title>
<polygon fill="#bfbfbf" stroke="black" points="-0.5,-1 -0.5,-91 104.5,-91 104.5,-1 -0.5,-1"/>
<text text-anchor="middle" x="52" y="-79" font-family="Helvetica,sans-Serif" font-size="10.00">CGLWorld</text>
<polyline fill="none" stroke="black" points="-0.5,-72 104.5,-72 "/>
<text text-anchor="middle" x="52" y="-60" font-family="Helvetica,sans-Serif" font-size="10.00"> </text>
<polyline fill="none" stroke="black" points="-0.5,-53 104.5,-53 "/>
<text text-anchor="start" x="7.5" y="-41" font-family="Helvetica,sans-Serif" font-size="10.00">+ CGLWorld()</text>
<text text-anchor="start" x="7.5" y="-30" font-family="Helvetica,sans-Serif" font-size="10.00">+ ~CGLWorld()</text>
<text text-anchor="start" x="7.5" y="-19" font-family="Helvetica,sans-Serif" font-size="10.00">+ draw()</text>
<text text-anchor="start" x="7.5" y="-8" font-family="Helvetica,sans-Serif" font-size="10.00">+ getCurrentScene()</text>
</g>
<!-- Node2 -->
<g id="node2" class="node"><title>Node2</title>
<g id="a_node2"><a xlink:href="../../d0/d14/class_c_g_l_special.xhtml" target="_top" xlink:title="{CGLSpecial\n||+ CGLSpecial()\l+ ~CGLSpecial()\l}">
<polygon fill="white" stroke="black" points="7,-129 7,-197 97,-197 97,-129 7,-129"/>
<text text-anchor="middle" x="52" y="-185" font-family="Helvetica,sans-Serif" font-size="10.00">CGLSpecial</text>
<polyline fill="none" stroke="black" points="7,-178 97,-178 "/>
<text text-anchor="middle" x="52" y="-166" font-family="Helvetica,sans-Serif" font-size="10.00"> </text>
<polyline fill="none" stroke="black" points="7,-159 97,-159 "/>
<text text-anchor="start" x="15" y="-147" font-family="Helvetica,sans-Serif" font-size="10.00">+ CGLSpecial()</text>
<text text-anchor="start" x="15" y="-136" font-family="Helvetica,sans-Serif" font-size="10.00">+ ~CGLSpecial()</text>
</a>
</g>
</g>
<!-- Node2&#45;&gt;Node1 -->
<g id="edge1" class="edge"><title>Node2&#45;&gt;Node1</title>
<path fill="none" stroke="midnightblue" d="M52,-118.555C52,-109.646 52,-100.257 52,-91.3181"/>
<polygon fill="none" stroke="midnightblue" points="48.5001,-118.737 52,-128.737 55.5001,-118.737 48.5001,-118.737"/>
</g>
<!-- Node3 -->
<g id="node3" class="node"><title>Node3</title>
<g id="a_node3"><a xlink:href="../../d2/d76/class_c_g_l_object.xhtml" target="_top" xlink:title="{CGLObject\n|+ garbage\l# objectType\l# name\l# matrixSaved\l# children\l# iterCurrentObject\l# currentObject\l# parentObject\l|+ addObject()\l+ setName()\l+ getName()\l+ getCurrentObject()\l+ isChild()\l+ draw()\l+ drawObject()\l+ drawChildren()\l+ drawCenter()\l+ CGLObject()\l+ ~CGLObject()\l+ init()\l}">
<polygon fill="white" stroke="black" points="-1,-234.5 -1,-489.5 105,-489.5 105,-234.5 -1,-234.5"/>
<text text-anchor="middle" x="52" y="-477.5" font-family="Helvetica,sans-Serif" font-size="10.00">CGLObject</text>
<polyline fill="none" stroke="black" points="-1,-470.5 105,-470.5 "/>
<text text-anchor="start" x="7" y="-458.5" font-family="Helvetica,sans-Serif" font-size="10.00">+ garbage</text>
<text text-anchor="start" x="7" y="-447.5" font-family="Helvetica,sans-Serif" font-size="10.00"># objectType</text>
<text text-anchor="start" x="7" y="-436.5" font-family="Helvetica,sans-Serif" font-size="10.00"># name</text>
<text text-anchor="start" x="7" y="-425.5" font-family="Helvetica,sans-Serif" font-size="10.00"># matrixSaved</text>
<text text-anchor="start" x="7" y="-414.5" font-family="Helvetica,sans-Serif" font-size="10.00"># children</text>
<text text-anchor="start" x="7" y="-403.5" font-family="Helvetica,sans-Serif" font-size="10.00"># iterCurrentObject</text>
<text text-anchor="start" x="7" y="-392.5" font-family="Helvetica,sans-Serif" font-size="10.00"># currentObject</text>
<text text-anchor="start" x="7" y="-381.5" font-family="Helvetica,sans-Serif" font-size="10.00"># parentObject</text>
<polyline fill="none" stroke="black" points="-1,-374.5 105,-374.5 "/>
<text text-anchor="start" x="7" y="-362.5" font-family="Helvetica,sans-Serif" font-size="10.00">+ addObject()</text>
<text text-anchor="start" x="7" y="-351.5" font-family="Helvetica,sans-Serif" font-size="10.00">+ setName()</text>
<text text-anchor="start" x="7" y="-340.5" font-family="Helvetica,sans-Serif" font-size="10.00">+ getName()</text>
<text text-anchor="start" x="7" y="-329.5" font-family="Helvetica,sans-Serif" font-size="10.00">+ getCurrentObject()</text>
<text text-anchor="start" x="7" y="-318.5" font-family="Helvetica,sans-Serif" font-size="10.00">+ isChild()</text>
<text text-anchor="start" x="7" y="-307.5" font-family="Helvetica,sans-Serif" font-size="10.00">+ draw()</text>
<text text-anchor="start" x="7" y="-296.5" font-family="Helvetica,sans-Serif" font-size="10.00">+ drawObject()</text>
<text text-anchor="start" x="7" y="-285.5" font-family="Helvetica,sans-Serif" font-size="10.00">+ drawChildren()</text>
<text text-anchor="start" x="7" y="-274.5" font-family="Helvetica,sans-Serif" font-size="10.00">+ drawCenter()</text>
<text text-anchor="start" x="7" y="-263.5" font-family="Helvetica,sans-Serif" font-size="10.00">+ CGLObject()</text>
<text text-anchor="start" x="7" y="-252.5" font-family="Helvetica,sans-Serif" font-size="10.00">+ ~CGLObject()</text>
<text text-anchor="start" x="7" y="-241.5" font-family="Helvetica,sans-Serif" font-size="10.00">+ init()</text>
</a>
</g>
</g>
<!-- Node3&#45;&gt;Node2 -->
<g id="edge2" class="edge"><title>Node3&#45;&gt;Node2</title>
<path fill="none" stroke="midnightblue" d="M52,-224.257C52,-214.41 52,-205.166 52,-197.016"/>
<polygon fill="none" stroke="midnightblue" points="48.5001,-224.287 52,-234.287 55.5001,-224.287 48.5001,-224.287"/>
</g>
</g>
</svg>
