<?xml version="1.0" encoding="UTF-8" standalone="no"?>
<!DOCTYPE svg PUBLIC "-//W3C//DTD SVG 1.1//EN"
 "http://www.w3.org/Graphics/SVG/1.1/DTD/svg11.dtd">
<!-- Generated by graphviz version 2.36.0 (20140111.2315)
 -->
<!-- Title: CGLRotation Pages: 1 -->
<svg width="231pt" height="680pt"
 viewBox="0.00 0.00 231.00 680.00" xmlns="http://www.w3.org/2000/svg" xmlns:xlink="http://www.w3.org/1999/xlink">
<g id="graph0" class="graph" transform="scale(1 1) rotate(0) translate(4 676)">
<title>CGLRotation</title>
<polygon fill="white" stroke="none" points="-4,4 -4,-676 227,-676 227,4 -4,4"/>
<!-- Node1 -->
<g id="node1" class="node"><title>Node1</title>
<polygon fill="#bfbfbf" stroke="black" points="65.5,-117 65.5,-229 160.5,-229 160.5,-117 65.5,-117"/>
<text text-anchor="middle" x="113" y="-217" font-family="Helvetica,sans-Serif" font-size="10.00">CGLRotation</text>
<polyline fill="none" stroke="black" points="65.5,-210 160.5,-210 "/>
<text text-anchor="start" x="73.5" y="-198" font-family="Helvetica,sans-Serif" font-size="10.00"># a</text>
<polyline fill="none" stroke="black" points="65.5,-191 160.5,-191 "/>
<text text-anchor="start" x="73.5" y="-179" font-family="Helvetica,sans-Serif" font-size="10.00">+ CGLRotation()</text>
<text text-anchor="start" x="73.5" y="-168" font-family="Helvetica,sans-Serif" font-size="10.00">+ ~CGLRotation()</text>
<text text-anchor="start" x="73.5" y="-157" font-family="Helvetica,sans-Serif" font-size="10.00">+ setA()</text>
<text text-anchor="start" x="73.5" y="-146" font-family="Helvetica,sans-Serif" font-size="10.00">+ getA()</text>
<text text-anchor="start" x="73.5" y="-135" font-family="Helvetica,sans-Serif" font-size="10.00">+ set()</text>
<text text-anchor="start" x="73.5" y="-124" font-family="Helvetica,sans-Serif" font-size="10.00">+ drawObject()</text>
</g>
<!-- Node6 -->
<g id="node6" class="node"><title>Node6</title>
<g id="a_node6"><a xlink:href="../../d4/d9e/class_c_g_l_rotation_speed.xhtml" target="_top" xlink:title="{CGLRotationSpeed\n|# speed\l|+ CGLRotationSpeed()\l+ ~CGLRotationSpeed()\l+ drawObject()\l}">
<polygon fill="white" stroke="black" points="52,-0.5 52,-79.5 174,-79.5 174,-0.5 52,-0.5"/>
<text text-anchor="middle" x="113" y="-67.5" font-family="Helvetica,sans-Serif" font-size="10.00">CGLRotationSpeed</text>
<polyline fill="none" stroke="black" points="52,-60.5 174,-60.5 "/>
<text text-anchor="start" x="60" y="-48.5" font-family="Helvetica,sans-Serif" font-size="10.00"># speed</text>
<polyline fill="none" stroke="black" points="52,-41.5 174,-41.5 "/>
<text text-anchor="start" x="60" y="-29.5" font-family="Helvetica,sans-Serif" font-size="10.00">+ CGLRotationSpeed()</text>
<text text-anchor="start" x="60" y="-18.5" font-family="Helvetica,sans-Serif" font-size="10.00">+ ~CGLRotationSpeed()</text>
<text text-anchor="start" x="60" y="-7.5" font-family="Helvetica,sans-Serif" font-size="10.00">+ drawObject()</text>
</a>
</g>
</g>
<!-- Node1&#45;&gt;Node6 -->
<g id="edge5" class="edge"><title>Node1&#45;&gt;Node6</title>
<path fill="none" stroke="midnightblue" d="M113,-106.537C113,-97.3924 113,-88.2465 113,-79.8127"/>
<polygon fill="none" stroke="midnightblue" points="109.5,-106.824 113,-116.824 116.5,-106.824 109.5,-106.824"/>
</g>
<!-- Node2 -->
<g id="node2" class="node"><title>Node2</title>
<g id="a_node2"><a xlink:href="../../dc/d8a/class_c_g_l_effect.xhtml" target="_top" xlink:title="{CGLEffect\n||+ CGLEffect()\l+ ~CGLEffect()\l}">
<polygon fill="white" stroke="black" points="14,-289 14,-357 98,-357 98,-289 14,-289"/>
<text text-anchor="middle" x="56" y="-345" font-family="Helvetica,sans-Serif" font-size="10.00">CGLEffect</text>
<polyline fill="none" stroke="black" points="14,-338 98,-338 "/>
<text text-anchor="middle" x="56" y="-326" font-family="Helvetica,sans-Serif" font-size="10.00"> </text>
<polyline fill="none" stroke="black" points="14,-319 98,-319 "/>
<text text-anchor="start" x="22" y="-307" font-family="Helvetica,sans-Serif" font-size="10.00">+ CGLEffect()</text>
<text text-anchor="start" x="22" y="-296" font-family="Helvetica,sans-Serif" font-size="10.00">+ ~CGLEffect()</text>
</a>
</g>
</g>
<!-- Node2&#45;&gt;Node1 -->
<g id="edge1" class="edge"><title>Node2&#45;&gt;Node1</title>
<path fill="none" stroke="midnightblue" d="M72.4178,-279.371C78.445,-263.722 85.357,-245.775 91.7481,-229.18"/>
<polygon fill="none" stroke="midnightblue" points="69.1198,-278.196 68.7919,-288.786 75.6521,-280.712 69.1198,-278.196"/>
</g>
<!-- Node3 -->
<g id="node3" class="node"><title>Node3</title>
<g id="a_node3"><a xlink:href="../../d2/d76/class_c_g_l_object.xhtml" target="_top" xlink:title="{CGLObject\n|+ garbage\l# objectType\l# name\l# matrixSaved\l# children\l# iterCurrentObject\l# currentObject\l# parentObject\l|+ addObject()\l+ setName()\l+ getName()\l+ getCurrentObject()\l+ isChild()\l+ draw()\l+ drawObject()\l+ drawChildren()\l+ drawCenter()\l+ CGLObject()\l+ ~CGLObject()\l+ init()\l}">
<polygon fill="white" stroke="black" points="0,-416.5 0,-671.5 106,-671.5 106,-416.5 0,-416.5"/>
<text text-anchor="middle" x="53" y="-659.5" font-family="Helvetica,sans-Serif" font-size="10.00">CGLObject</text>
<polyline fill="none" stroke="black" points="0,-652.5 106,-652.5 "/>
<text text-anchor="start" x="8" y="-640.5" font-family="Helvetica,sans-Serif" font-size="10.00">+ garbage</text>
<text text-anchor="start" x="8" y="-629.5" font-family="Helvetica,sans-Serif" font-size="10.00"># objectType</text>
<text text-anchor="start" x="8" y="-618.5" font-family="Helvetica,sans-Serif" font-size="10.00"># name</text>
<text text-anchor="start" x="8" y="-607.5" font-family="Helvetica,sans-Serif" font-size="10.00"># matrixSaved</text>
<text text-anchor="start" x="8" y="-596.5" font-family="Helvetica,sans-Serif" font-size="10.00"># children</text>
<text text-anchor="start" x="8" y="-585.5" font-family="Helvetica,sans-Serif" font-size="10.00"># iterCurrentObject</text>
<text text-anchor="start" x="8" y="-574.5" font-family="Helvetica,sans-Serif" font-size="10.00"># currentObject</text>
<text text-anchor="start" x="8" y="-563.5" font-family="Helvetica,sans-Serif" font-size="10.00"># parentObject</text>
<polyline fill="none" stroke="black" points="0,-556.5 106,-556.5 "/>
<text text-anchor="start" x="8" y="-544.5" font-family="Helvetica,sans-Serif" font-size="10.00">+ addObject()</text>
<text text-anchor="start" x="8" y="-533.5" font-family="Helvetica,sans-Serif" font-size="10.00">+ setName()</text>
<text text-anchor="start" x="8" y="-522.5" font-family="Helvetica,sans-Serif" font-size="10.00">+ getName()</text>
<text text-anchor="start" x="8" y="-511.5" font-family="Helvetica,sans-Serif" font-size="10.00">+ getCurrentObject()</text>
<text text-anchor="start" x="8" y="-500.5" font-family="Helvetica,sans-Serif" font-size="10.00">+ isChild()</text>
<text text-anchor="start" x="8" y="-489.5" font-family="Helvetica,sans-Serif" font-size="10.00">+ draw()</text>
<text text-anchor="start" x="8" y="-478.5" font-family="Helvetica,sans-Serif" font-size="10.00">+ drawObject()</text>
<text text-anchor="start" x="8" y="-467.5" font-family="Helvetica,sans-Serif" font-size="10.00">+ drawChildren()</text>
<text text-anchor="start" x="8" y="-456.5" font-family="Helvetica,sans-Serif" font-size="10.00">+ drawCenter()</text>
<text text-anchor="start" x="8" y="-445.5" font-family="Helvetica,sans-Serif" font-size="10.00">+ CGLObject()</text>
<text text-anchor="start" x="8" y="-434.5" font-family="Helvetica,sans-Serif" font-size="10.00">+ ~CGLObject()</text>
<text text-anchor="start" x="8" y="-423.5" font-family="Helvetica,sans-Serif" font-size="10.00">+ init()</text>
</a>
</g>
</g>
<!-- Node3&#45;&gt;Node2 -->
<g id="edge2" class="edge"><title>Node3&#45;&gt;Node2</title>
<path fill="none" stroke="midnightblue" d="M54.875,-406.125C55.1221,-388.087 55.3547,-371.108 55.5435,-357.323"/>
<polygon fill="none" stroke="midnightblue" points="51.3738,-406.194 54.7364,-416.241 58.3732,-406.29 51.3738,-406.194"/>
</g>
<!-- Node4 -->
<g id="node4" class="node"><title>Node4</title>
<g id="a_node4"><a xlink:href="../../d6/df9/class_c_g_l_vector3_d.xhtml" target="_top" xlink:title="{CGLVector3D\n|# z\l|+ CGLVector3D()\l+ ~CGLVector3D()\l+ isEqualTo()\l+ getZ()\l+ set()\l+ setZ()\l}">
<polygon fill="white" stroke="black" points="121.5,-267 121.5,-379 220.5,-379 220.5,-267 121.5,-267"/>
<text text-anchor="middle" x="171" y="-367" font-family="Helvetica,sans-Serif" font-size="10.00">CGLVector3D</text>
<polyline fill="none" stroke="black" points="121.5,-360 220.5,-360 "/>
<text text-anchor="start" x="129.5" y="-348" font-family="Helvetica,sans-Serif" font-size="10.00"># z</text>
<polyline fill="none" stroke="black" points="121.5,-341 220.5,-341 "/>
<text text-anchor="start" x="129.5" y="-329" font-family="Helvetica,sans-Serif" font-size="10.00">+ CGLVector3D()</text>
<text text-anchor="start" x="129.5" y="-318" font-family="Helvetica,sans-Serif" font-size="10.00">+ ~CGLVector3D()</text>
<text text-anchor="start" x="129.5" y="-307" font-family="Helvetica,sans-Serif" font-size="10.00">+ isEqualTo()</text>
<text text-anchor="start" x="129.5" y="-296" font-family="Helvetica,sans-Serif" font-size="10.00">+ getZ()</text>
<text text-anchor="start" x="129.5" y="-285" font-family="Helvetica,sans-Serif" font-size="10.00">+ set()</text>
<text text-anchor="start" x="129.5" y="-274" font-family="Helvetica,sans-Serif" font-size="10.00">+ setZ()</text>
</a>
</g>
</g>
<!-- Node4&#45;&gt;Node1 -->
<g id="edge3" class="edge"><title>Node4&#45;&gt;Node1</title>
<path fill="none" stroke="midnightblue" d="M145.734,-257.527C142.028,-248.071 138.239,-238.403 134.615,-229.156"/>
<polygon fill="none" stroke="midnightblue" points="142.495,-258.857 149.403,-266.89 149.013,-256.303 142.495,-258.857"/>
</g>
<!-- Node5 -->
<g id="node5" class="node"><title>Node5</title>
<g id="a_node5"><a xlink:href="../../d8/d97/class_c_g_l_vector2_d.xhtml" target="_top" xlink:title="{CGLVector2D\n||+ CGLVector2D()\l+ ~CGLVector2D()\l+ getMaxX()\l+ getMaxY()\l+ getMinX()\l+ getMinY()\l+ getX()\l+ getY()\l+ isXMax()\l+ isYMax()\let 11 de plus...\l}">
<polygon fill="white" stroke="black" points="124.5,-460.5 124.5,-627.5 223.5,-627.5 223.5,-460.5 124.5,-460.5"/>
<text text-anchor="middle" x="174" y="-615.5" font-family="Helvetica,sans-Serif" font-size="10.00">CGLVector2D</text>
<polyline fill="none" stroke="black" points="124.5,-608.5 223.5,-608.5 "/>
<text text-anchor="middle" x="174" y="-596.5" font-family="Helvetica,sans-Serif" font-size="10.00"> </text>
<polyline fill="none" stroke="black" points="124.5,-589.5 223.5,-589.5 "/>
<text text-anchor="start" x="132.5" y="-577.5" font-family="Helvetica,sans-Serif" font-size="10.00">+ CGLVector2D()</text>
<text text-anchor="start" x="132.5" y="-566.5" font-family="Helvetica,sans-Serif" font-size="10.00">+ ~CGLVector2D()</text>
<text text-anchor="start" x="132.5" y="-555.5" font-family="Helvetica,sans-Serif" font-size="10.00">+ getMaxX()</text>
<text text-anchor="start" x="132.5" y="-544.5" font-family="Helvetica,sans-Serif" font-size="10.00">+ getMaxY()</text>
<text text-anchor="start" x="132.5" y="-533.5" font-family="Helvetica,sans-Serif" font-size="10.00">+ getMinX()</text>
<text text-anchor="start" x="132.5" y="-522.5" font-family="Helvetica,sans-Serif" font-size="10.00">+ getMinY()</text>
<text text-anchor="start" x="132.5" y="-511.5" font-family="Helvetica,sans-Serif" font-size="10.00">+ getX()</text>
<text text-anchor="start" x="132.5" y="-500.5" font-family="Helvetica,sans-Serif" font-size="10.00">+ getY()</text>
<text text-anchor="start" x="132.5" y="-489.5" font-family="Helvetica,sans-Serif" font-size="10.00">+ isXMax()</text>
<text text-anchor="start" x="132.5" y="-478.5" font-family="Helvetica,sans-Serif" font-size="10.00">+ isYMax()</text>
<text text-anchor="start" x="132.5" y="-467.5" font-family="Helvetica,sans-Serif" font-size="10.00">et 11 de plus...</text>
</a>
</g>
</g>
<!-- Node5&#45;&gt;Node4 -->
<g id="edge4" class="edge"><title>Node5&#45;&gt;Node4</title>
<path fill="none" stroke="midnightblue" d="M172.725,-449.936C172.394,-425.784 172.049,-400.541 171.754,-379.051"/>
<polygon fill="none" stroke="midnightblue" points="169.229,-450.254 172.866,-460.205 176.228,-450.158 169.229,-450.254"/>
</g>
</g>
</svg>
