<?xml version="1.0" encoding="UTF-8" standalone="no"?>
<!DOCTYPE svg PUBLIC "-//W3C//DTD SVG 1.1//EN"
 "http://www.w3.org/Graphics/SVG/1.1/DTD/svg11.dtd">
<!-- Generated by graphviz version 2.36.0 (20140111.2315)
 -->
<!-- Title: /home/dagal/git/DamierGL/DamierGL/src/CGL/CGLLight.h Pages: 1 -->
<svg width="547pt" height="312pt"
 viewBox="0.00 0.00 547.00 312.00" xmlns="http://www.w3.org/2000/svg" xmlns:xlink="http://www.w3.org/1999/xlink">
<g id="graph0" class="graph" transform="scale(1 1) rotate(0) translate(4 308)">
<title>/home/dagal/git/DamierGL/DamierGL/src/CGL/CGLLight.h</title>
<polygon fill="white" stroke="none" points="-4,4 -4,-308 543,-308 543,4 -4,4"/>
<!-- Node1 -->
<g id="node1" class="node"><title>Node1</title>
<polygon fill="#bfbfbf" stroke="black" points="96,-273 96,-303 252,-303 252,-273 96,-273"/>
<text text-anchor="start" x="104" y="-291" font-family="Helvetica,sans-Serif" font-size="10.00">/home/dagal/git/DamierGL</text>
<text text-anchor="middle" x="174" y="-280" font-family="Helvetica,sans-Serif" font-size="10.00">/DamierGL/src/CGL/CGLLight.h</text>
</g>
<!-- Node2 -->
<g id="node2" class="node"><title>Node2</title>
<g id="a_node2"><a xlink:href="$de/d39/_c_g_l_light_8cpp.xhtml" xlink:title="/home/dagal/git/DamierGL\l/DamierGL/src/CGL/CGLLight.cpp">
<polygon fill="white" stroke="black" points="-0.5,-205 -0.5,-235 166.5,-235 166.5,-205 -0.5,-205"/>
<text text-anchor="start" x="7.5" y="-223" font-family="Helvetica,sans-Serif" font-size="10.00">/home/dagal/git/DamierGL</text>
<text text-anchor="middle" x="83" y="-212" font-family="Helvetica,sans-Serif" font-size="10.00">/DamierGL/src/CGL/CGLLight.cpp</text>
</a>
</g>
</g>
<!-- Node1&#45;&gt;Node2 -->
<g id="edge1" class="edge"><title>Node1&#45;&gt;Node2</title>
<path fill="none" stroke="midnightblue" d="M145.872,-266.599C131.769,-256.371 115.047,-244.243 102.394,-235.066"/>
<polygon fill="midnightblue" stroke="midnightblue" points="144.104,-269.641 154.254,-272.679 148.214,-263.975 144.104,-269.641"/>
</g>
<!-- Node3 -->
<g id="node3" class="node"><title>Node3</title>
<g id="a_node3"><a xlink:href="$d0/dc9/_c_g_l_scene_8h.xhtml" xlink:title="/home/dagal/git/DamierGL\l/DamierGL/src/CGL/CGLScene.h">
<polygon fill="white" stroke="black" points="184.5,-205 184.5,-235 347.5,-235 347.5,-205 184.5,-205"/>
<text text-anchor="start" x="192.5" y="-223" font-family="Helvetica,sans-Serif" font-size="10.00">/home/dagal/git/DamierGL</text>
<text text-anchor="middle" x="266" y="-212" font-family="Helvetica,sans-Serif" font-size="10.00">/DamierGL/src/CGL/CGLScene.h</text>
</a>
</g>
</g>
<!-- Node1&#45;&gt;Node3 -->
<g id="edge2" class="edge"><title>Node1&#45;&gt;Node3</title>
<path fill="none" stroke="midnightblue" d="M202.437,-266.599C216.695,-256.371 233.601,-244.243 246.392,-235.066"/>
<polygon fill="midnightblue" stroke="midnightblue" points="200.048,-264.006 193.963,-272.679 204.128,-269.694 200.048,-264.006"/>
</g>
<!-- Node4 -->
<g id="node4" class="node"><title>Node4</title>
<g id="a_node4"><a xlink:href="$d0/d58/_c_g_l_scene_8cpp.xhtml" xlink:title="/home/dagal/git/DamierGL\l/DamierGL/src/CGL/CGLScene.cpp">
<polygon fill="white" stroke="black" points="87.5,-137 87.5,-167 260.5,-167 260.5,-137 87.5,-137"/>
<text text-anchor="start" x="95.5" y="-155" font-family="Helvetica,sans-Serif" font-size="10.00">/home/dagal/git/DamierGL</text>
<text text-anchor="middle" x="174" y="-144" font-family="Helvetica,sans-Serif" font-size="10.00">/DamierGL/src/CGL/CGLScene.cpp</text>
</a>
</g>
</g>
<!-- Node3&#45;&gt;Node4 -->
<g id="edge3" class="edge"><title>Node3&#45;&gt;Node4</title>
<path fill="none" stroke="midnightblue" d="M237.563,-198.599C223.305,-188.371 206.399,-176.243 193.608,-167.066"/>
<polygon fill="midnightblue" stroke="midnightblue" points="235.872,-201.694 246.037,-204.679 239.952,-196.006 235.872,-201.694"/>
</g>
<!-- Node5 -->
<g id="node5" class="node"><title>Node5</title>
<g id="a_node5"><a xlink:href="$d6/d37/_c_g_l_world_8h.xhtml" xlink:title="/home/dagal/git/DamierGL\l/DamierGL/src/CGL/CGLWorld.h">
<polygon fill="white" stroke="black" points="278.5,-137 278.5,-167 439.5,-167 439.5,-137 278.5,-137"/>
<text text-anchor="start" x="286.5" y="-155" font-family="Helvetica,sans-Serif" font-size="10.00">/home/dagal/git/DamierGL</text>
<text text-anchor="middle" x="359" y="-144" font-family="Helvetica,sans-Serif" font-size="10.00">/DamierGL/src/CGL/CGLWorld.h</text>
</a>
</g>
</g>
<!-- Node3&#45;&gt;Node5 -->
<g id="edge4" class="edge"><title>Node3&#45;&gt;Node5</title>
<path fill="none" stroke="midnightblue" d="M294.339,-198.888C308.836,-188.6 326.127,-176.329 339.179,-167.066"/>
<polygon fill="midnightblue" stroke="midnightblue" points="292.309,-196.037 286.18,-204.679 296.36,-201.746 292.309,-196.037"/>
</g>
<!-- Node6 -->
<g id="node6" class="node"><title>Node6</title>
<g id="a_node6"><a xlink:href="$de/d96/_c_g_l_window_8h.xhtml" xlink:title="/home/dagal/git/DamierGL\l/DamierGL/src/CGL/CGLWindow.h">
<polygon fill="white" stroke="black" points="180,-69 180,-99 350,-99 350,-69 180,-69"/>
<text text-anchor="start" x="188" y="-87" font-family="Helvetica,sans-Serif" font-size="10.00">/home/dagal/git/DamierGL</text>
<text text-anchor="middle" x="265" y="-76" font-family="Helvetica,sans-Serif" font-size="10.00">/DamierGL/src/CGL/CGLWindow.h</text>
</a>
</g>
</g>
<!-- Node5&#45;&gt;Node6 -->
<g id="edge5" class="edge"><title>Node5&#45;&gt;Node6</title>
<path fill="none" stroke="midnightblue" d="M330.356,-130.888C315.703,-120.6 298.227,-108.329 285.034,-99.0663"/>
<polygon fill="midnightblue" stroke="midnightblue" points="328.408,-133.797 338.603,-136.679 332.43,-128.068 328.408,-133.797"/>
</g>
<!-- Node9 -->
<g id="node9" class="node"><title>Node9</title>
<g id="a_node9"><a xlink:href="$dd/d05/_c_g_l_world_8cpp.xhtml" xlink:title="/home/dagal/git/DamierGL\l/DamierGL/src/CGL/CGLWorld.cpp">
<polygon fill="white" stroke="black" points="368.5,-69 368.5,-99 539.5,-99 539.5,-69 368.5,-69"/>
<text text-anchor="start" x="376.5" y="-87" font-family="Helvetica,sans-Serif" font-size="10.00">/home/dagal/git/DamierGL</text>
<text text-anchor="middle" x="454" y="-76" font-family="Helvetica,sans-Serif" font-size="10.00">/DamierGL/src/CGL/CGLWorld.cpp</text>
</a>
</g>
</g>
<!-- Node5&#45;&gt;Node9 -->
<g id="edge8" class="edge"><title>Node5&#45;&gt;Node9</title>
<path fill="none" stroke="midnightblue" d="M387.949,-130.888C402.757,-120.6 420.42,-108.329 433.753,-99.0663"/>
<polygon fill="midnightblue" stroke="midnightblue" points="385.829,-128.099 379.614,-136.679 389.823,-133.848 385.829,-128.099"/>
</g>
<!-- Node7 -->
<g id="node7" class="node"><title>Node7</title>
<g id="a_node7"><a xlink:href="$df/d9a/_c_g_l_window_8cpp.xhtml" xlink:title="/home/dagal/git/DamierGL\l/DamierGL/src/CGL/CGLWindow.cpp">
<polygon fill="white" stroke="black" points="83.5,-1 83.5,-31 264.5,-31 264.5,-1 83.5,-1"/>
<text text-anchor="start" x="91.5" y="-19" font-family="Helvetica,sans-Serif" font-size="10.00">/home/dagal/git/DamierGL</text>
<text text-anchor="middle" x="174" y="-8" font-family="Helvetica,sans-Serif" font-size="10.00">/DamierGL/src/CGL/CGLWindow.cpp</text>
</a>
</g>
</g>
<!-- Node6&#45;&gt;Node7 -->
<g id="edge6" class="edge"><title>Node6&#45;&gt;Node7</title>
<path fill="none" stroke="midnightblue" d="M236.872,-62.5994C222.769,-52.3712 206.047,-40.2428 193.394,-31.0663"/>
<polygon fill="midnightblue" stroke="midnightblue" points="235.104,-65.6411 245.254,-68.679 239.214,-59.9745 235.104,-65.6411"/>
</g>
<!-- Node8 -->
<g id="node8" class="node"><title>Node8</title>
<g id="a_node8"><a xlink:href="$db/dec/_damier_g_l_8cpp.xhtml" xlink:title="/home/dagal/git/DamierGL\l/DamierGL/src/DamierGL.cpp">
<polygon fill="white" stroke="black" points="283,-1 283,-31 429,-31 429,-1 283,-1"/>
<text text-anchor="start" x="291" y="-19" font-family="Helvetica,sans-Serif" font-size="10.00">/home/dagal/git/DamierGL</text>
<text text-anchor="middle" x="356" y="-8" font-family="Helvetica,sans-Serif" font-size="10.00">/DamierGL/src/DamierGL.cpp</text>
</a>
</g>
</g>
<!-- Node6&#45;&gt;Node8 -->
<g id="edge7" class="edge"><title>Node6&#45;&gt;Node8</title>
<path fill="none" stroke="midnightblue" d="M293.128,-62.5994C307.231,-52.3712 323.953,-40.2428 336.606,-31.0663"/>
<polygon fill="midnightblue" stroke="midnightblue" points="290.786,-59.9745 284.746,-68.679 294.896,-65.6411 290.786,-59.9745"/>
</g>
</g>
</svg>
