<?xml version="1.0" encoding="UTF-8" standalone="no"?>
<!DOCTYPE svg PUBLIC "-//W3C//DTD SVG 1.1//EN"
 "http://www.w3.org/Graphics/SVG/1.1/DTD/svg11.dtd">
<!-- Generated by graphviz version 2.36.0 (20140111.2315)
 -->
<!-- Title: CGLPositionSpeedLimited Pages: 1 -->
<svg width="352pt" height="780pt"
 viewBox="0.00 0.00 352.00 780.00" xmlns="http://www.w3.org/2000/svg" xmlns:xlink="http://www.w3.org/1999/xlink">
<g id="graph0" class="graph" transform="scale(1 1) rotate(0) translate(4 776)">
<title>CGLPositionSpeedLimited</title>
<polygon fill="white" stroke="none" points="-4,4 -4,-776 348,-776 348,4 -4,4"/>
<!-- Node1 -->
<g id="node1" class="node"><title>Node1</title>
<polygon fill="#bfbfbf" stroke="black" points="0,-0.5 0,-101.5 152,-101.5 152,-0.5 0,-0.5"/>
<text text-anchor="middle" x="76" y="-89.5" font-family="Helvetica,sans-Serif" font-size="10.00">CGLPositionSpeedLimited</text>
<polyline fill="none" stroke="black" points="0,-82.5 152,-82.5 "/>
<text text-anchor="middle" x="76" y="-70.5" font-family="Helvetica,sans-Serif" font-size="10.00"> </text>
<polyline fill="none" stroke="black" points="0,-63.5 152,-63.5 "/>
<text text-anchor="start" x="8" y="-51.5" font-family="Helvetica,sans-Serif" font-size="10.00">+ CGLPositionSpeedLimited()</text>
<text text-anchor="start" x="8" y="-40.5" font-family="Helvetica,sans-Serif" font-size="10.00">+ ~CGLPositionSpeedLimited()</text>
<text text-anchor="start" x="8" y="-29.5" font-family="Helvetica,sans-Serif" font-size="10.00">+ getMin()</text>
<text text-anchor="start" x="8" y="-18.5" font-family="Helvetica,sans-Serif" font-size="10.00">+ getMax()</text>
<text text-anchor="start" x="8" y="-7.5" font-family="Helvetica,sans-Serif" font-size="10.00">+ drawObject()</text>
</g>
<!-- Node2 -->
<g id="node2" class="node"><title>Node2</title>
<g id="a_node2"><a xlink:href="$d7/dc4/class_c_g_l_position_speed.xhtml" xlink:title="{CGLPositionSpeed\n||+ CGLPositionSpeed()\l+ ~CGLPositionSpeed()\l+ drawObject()\l}">
<polygon fill="white" stroke="black" points="76.5,-140.5 76.5,-219.5 197.5,-219.5 197.5,-140.5 76.5,-140.5"/>
<text text-anchor="middle" x="137" y="-207.5" font-family="Helvetica,sans-Serif" font-size="10.00">CGLPositionSpeed</text>
<polyline fill="none" stroke="black" points="76.5,-200.5 197.5,-200.5 "/>
<text text-anchor="middle" x="137" y="-188.5" font-family="Helvetica,sans-Serif" font-size="10.00"> </text>
<polyline fill="none" stroke="black" points="76.5,-181.5 197.5,-181.5 "/>
<text text-anchor="start" x="84.5" y="-169.5" font-family="Helvetica,sans-Serif" font-size="10.00">+ CGLPositionSpeed()</text>
<text text-anchor="start" x="84.5" y="-158.5" font-family="Helvetica,sans-Serif" font-size="10.00">+ ~CGLPositionSpeed()</text>
<text text-anchor="start" x="84.5" y="-147.5" font-family="Helvetica,sans-Serif" font-size="10.00">+ drawObject()</text>
</a>
</g>
</g>
<!-- Node2&#45;&gt;Node1 -->
<g id="edge1" class="edge"><title>Node2&#45;&gt;Node1</title>
<path fill="none" stroke="midnightblue" d="M114.036,-131.189C109.425,-121.589 104.568,-111.478 99.9255,-101.812"/>
<polygon fill="none" stroke="midnightblue" points="110.882,-132.707 118.367,-140.206 117.192,-129.676 110.882,-132.707"/>
</g>
<!-- Node3 -->
<g id="node3" class="node"><title>Node3</title>
<g id="a_node3"><a xlink:href="$de/d31/class_c_g_l_position.xhtml" xlink:title="{CGLPosition\n||+ CGLPosition()\l+ ~CGLPosition()\l+ drawObject()\l}">
<polygon fill="white" stroke="black" points="147.5,-278.5 147.5,-357.5 240.5,-357.5 240.5,-278.5 147.5,-278.5"/>
<text text-anchor="middle" x="194" y="-345.5" font-family="Helvetica,sans-Serif" font-size="10.00">CGLPosition</text>
<polyline fill="none" stroke="black" points="147.5,-338.5 240.5,-338.5 "/>
<text text-anchor="middle" x="194" y="-326.5" font-family="Helvetica,sans-Serif" font-size="10.00"> </text>
<polyline fill="none" stroke="black" points="147.5,-319.5 240.5,-319.5 "/>
<text text-anchor="start" x="155.5" y="-307.5" font-family="Helvetica,sans-Serif" font-size="10.00">+ CGLPosition()</text>
<text text-anchor="start" x="155.5" y="-296.5" font-family="Helvetica,sans-Serif" font-size="10.00">+ ~CGLPosition()</text>
<text text-anchor="start" x="155.5" y="-285.5" font-family="Helvetica,sans-Serif" font-size="10.00">+ drawObject()</text>
</a>
</g>
</g>
<!-- Node3&#45;&gt;Node2 -->
<g id="edge2" class="edge"><title>Node3&#45;&gt;Node2</title>
<path fill="none" stroke="midnightblue" d="M173.921,-269.092C167.142,-252.917 159.664,-235.077 153.222,-219.705"/>
<polygon fill="none" stroke="midnightblue" points="170.725,-270.522 177.819,-278.392 177.181,-267.816 170.725,-270.522"/>
</g>
<!-- Node4 -->
<g id="node4" class="node"><title>Node4</title>
<g id="a_node4"><a xlink:href="$dc/d8a/class_c_g_l_effect.xhtml" xlink:title="{CGLEffect\n||+ CGLEffect()\l+ ~CGLEffect()\l}">
<polygon fill="white" stroke="black" points="161,-419 161,-487 245,-487 245,-419 161,-419"/>
<text text-anchor="middle" x="203" y="-475" font-family="Helvetica,sans-Serif" font-size="10.00">CGLEffect</text>
<polyline fill="none" stroke="black" points="161,-468 245,-468 "/>
<text text-anchor="middle" x="203" y="-456" font-family="Helvetica,sans-Serif" font-size="10.00"> </text>
<polyline fill="none" stroke="black" points="161,-449 245,-449 "/>
<text text-anchor="start" x="169" y="-437" font-family="Helvetica,sans-Serif" font-size="10.00">+ CGLEffect()</text>
<text text-anchor="start" x="169" y="-426" font-family="Helvetica,sans-Serif" font-size="10.00">+ ~CGLEffect()</text>
</a>
</g>
</g>
<!-- Node4&#45;&gt;Node3 -->
<g id="edge3" class="edge"><title>Node4&#45;&gt;Node3</title>
<path fill="none" stroke="midnightblue" d="M200.052,-408.429C198.95,-392.144 197.706,-373.767 196.634,-357.927"/>
<polygon fill="none" stroke="midnightblue" points="196.585,-409.041 200.752,-418.782 203.569,-408.568 196.585,-409.041"/>
</g>
<!-- Node5 -->
<g id="node5" class="node"><title>Node5</title>
<g id="a_node5"><a xlink:href="$d2/d76/class_c_g_l_object.xhtml" xlink:title="{CGLObject\n|# objectType\l# name\l# matrixSaved\l# children\l# iterCurrentObject\l|+ addObject()\l+ setName()\l+ getName()\l+ getCurrentObject()\l+ isChild()\l+ draw()\l+ drawObject()\l+ drawChildren()\l+ drawCenter()\l+ CGLObject()\l+ ~CGLObject()\l+ init()\l}">
<polygon fill="white" stroke="black" points="156,-549 156,-771 262,-771 262,-549 156,-549"/>
<text text-anchor="middle" x="209" y="-759" font-family="Helvetica,sans-Serif" font-size="10.00">CGLObject</text>
<polyline fill="none" stroke="black" points="156,-752 262,-752 "/>
<text text-anchor="start" x="164" y="-740" font-family="Helvetica,sans-Serif" font-size="10.00"># objectType</text>
<text text-anchor="start" x="164" y="-729" font-family="Helvetica,sans-Serif" font-size="10.00"># name</text>
<text text-anchor="start" x="164" y="-718" font-family="Helvetica,sans-Serif" font-size="10.00"># matrixSaved</text>
<text text-anchor="start" x="164" y="-707" font-family="Helvetica,sans-Serif" font-size="10.00"># children</text>
<text text-anchor="start" x="164" y="-696" font-family="Helvetica,sans-Serif" font-size="10.00"># iterCurrentObject</text>
<polyline fill="none" stroke="black" points="156,-689 262,-689 "/>
<text text-anchor="start" x="164" y="-677" font-family="Helvetica,sans-Serif" font-size="10.00">+ addObject()</text>
<text text-anchor="start" x="164" y="-666" font-family="Helvetica,sans-Serif" font-size="10.00">+ setName()</text>
<text text-anchor="start" x="164" y="-655" font-family="Helvetica,sans-Serif" font-size="10.00">+ getName()</text>
<text text-anchor="start" x="164" y="-644" font-family="Helvetica,sans-Serif" font-size="10.00">+ getCurrentObject()</text>
<text text-anchor="start" x="164" y="-633" font-family="Helvetica,sans-Serif" font-size="10.00">+ isChild()</text>
<text text-anchor="start" x="164" y="-622" font-family="Helvetica,sans-Serif" font-size="10.00">+ draw()</text>
<text text-anchor="start" x="164" y="-611" font-family="Helvetica,sans-Serif" font-size="10.00">+ drawObject()</text>
<text text-anchor="start" x="164" y="-600" font-family="Helvetica,sans-Serif" font-size="10.00">+ drawChildren()</text>
<text text-anchor="start" x="164" y="-589" font-family="Helvetica,sans-Serif" font-size="10.00">+ drawCenter()</text>
<text text-anchor="start" x="164" y="-578" font-family="Helvetica,sans-Serif" font-size="10.00">+ CGLObject()</text>
<text text-anchor="start" x="164" y="-567" font-family="Helvetica,sans-Serif" font-size="10.00">+ ~CGLObject()</text>
<text text-anchor="start" x="164" y="-556" font-family="Helvetica,sans-Serif" font-size="10.00">+ init()</text>
</a>
</g>
</g>
<!-- Node5&#45;&gt;Node4 -->
<g id="edge4" class="edge"><title>Node5&#45;&gt;Node4</title>
<path fill="none" stroke="midnightblue" d="M205.487,-538.979C204.93,-519.935 204.397,-501.723 203.968,-487.078"/>
<polygon fill="none" stroke="midnightblue" points="201.989,-539.105 205.78,-548.999 208.986,-538.9 201.989,-539.105"/>
</g>
<!-- Node5&#45;&gt;Node5 -->
<g id="edge5" class="edge"><title>Node5&#45;&gt;Node5</title>
<path fill="none" stroke="#404040" d="M262.111,-683.124C272.021,-680.276 279,-672.568 279,-660 279,-652.734 276.667,-647.092 272.784,-643.075"/>
<polygon fill="none" stroke="#404040" points="272.488,-642.903 265.291,-643.349 262.111,-636.876 269.309,-636.431 272.488,-642.903"/>
<text text-anchor="middle" x="311" y="-668.5" font-family="Helvetica,sans-Serif" font-size="10.00"> +garbage</text>
<text text-anchor="middle" x="311" y="-657.5" font-family="Helvetica,sans-Serif" font-size="10.00">#currentObject</text>
<text text-anchor="middle" x="311" y="-646.5" font-family="Helvetica,sans-Serif" font-size="10.00">#parentObject</text>
</g>
<!-- Node6 -->
<g id="node6" class="node"><title>Node6</title>
<g id="a_node6"><a xlink:href="$d6/df9/class_c_g_l_vector3_d.xhtml" xlink:title="{CGLVector3D\n|# z\l|+ CGLVector3D()\l+ ~CGLVector3D()\l+ isEqualTo()\l+ getZ()\l+ set()\l+ setZ()\l}">
<polygon fill="white" stroke="black" points="41.5,-397 41.5,-509 140.5,-509 140.5,-397 41.5,-397"/>
<text text-anchor="middle" x="91" y="-497" font-family="Helvetica,sans-Serif" font-size="10.00">CGLVector3D</text>
<polyline fill="none" stroke="black" points="41.5,-490 140.5,-490 "/>
<text text-anchor="start" x="49.5" y="-478" font-family="Helvetica,sans-Serif" font-size="10.00"># z</text>
<polyline fill="none" stroke="black" points="41.5,-471 140.5,-471 "/>
<text text-anchor="start" x="49.5" y="-459" font-family="Helvetica,sans-Serif" font-size="10.00">+ CGLVector3D()</text>
<text text-anchor="start" x="49.5" y="-448" font-family="Helvetica,sans-Serif" font-size="10.00">+ ~CGLVector3D()</text>
<text text-anchor="start" x="49.5" y="-437" font-family="Helvetica,sans-Serif" font-size="10.00">+ isEqualTo()</text>
<text text-anchor="start" x="49.5" y="-426" font-family="Helvetica,sans-Serif" font-size="10.00">+ getZ()</text>
<text text-anchor="start" x="49.5" y="-415" font-family="Helvetica,sans-Serif" font-size="10.00">+ set()</text>
<text text-anchor="start" x="49.5" y="-404" font-family="Helvetica,sans-Serif" font-size="10.00">+ setZ()</text>
</a>
</g>
</g>
<!-- Node6&#45;&gt;Node1 -->
<g id="edge9" class="edge"><title>Node6&#45;&gt;Node1</title>
<path fill="none" stroke="#404040" d="M82.4835,-396.823C73.8614,-334.514 62.4064,-230.065 67,-140 67.4307,-131.556 68.0924,-122.674 68.8658,-113.933"/>
<polygon fill="none" stroke="#404040" points="68.89,-113.675 65.4734,-107.325 70.0212,-101.729 73.4378,-108.079 68.89,-113.675"/>
<text text-anchor="middle" x="81.5" y="-252" font-family="Helvetica,sans-Serif" font-size="10.00"> #min</text>
<text text-anchor="middle" x="81.5" y="-241" font-family="Helvetica,sans-Serif" font-size="10.00">#max</text>
</g>
<!-- Node6&#45;&gt;Node2 -->
<g id="edge8" class="edge"><title>Node6&#45;&gt;Node2</title>
<path fill="none" stroke="#404040" d="M91.5695,-396.653C92.8005,-362.216 96.0071,-317.179 104,-278 107.17,-262.459 112.136,-245.977 117.261,-231.094"/>
<polygon fill="none" stroke="#404040" points="117.346,-230.854 115.592,-223.86 121.374,-219.55 123.128,-226.545 117.346,-230.854"/>
<text text-anchor="middle" x="121.5" y="-315.5" font-family="Helvetica,sans-Serif" font-size="10.00"> #speed</text>
</g>
<!-- Node6&#45;&gt;Node3 -->
<g id="edge6" class="edge"><title>Node6&#45;&gt;Node3</title>
<path fill="none" stroke="midnightblue" d="M140.028,-388.692C148.229,-378.102 156.514,-367.404 164.048,-357.676"/>
<polygon fill="none" stroke="midnightblue" points="137.142,-386.702 133.786,-396.751 142.677,-390.988 137.142,-386.702"/>
</g>
<!-- Node7 -->
<g id="node7" class="node"><title>Node7</title>
<g id="a_node7"><a xlink:href="$d8/d97/class_c_g_l_vector2_d.xhtml" xlink:title="{CGLVector2D\n|# x\l# y\l# minX\l# maxX\l# minY\l# maxY\l|+ CGLVector2D()\l+ ~CGLVector2D()\l+ set()\l+ setX()\l+ getX()\l+ setMinX()\l+ getMinX()\l+ setMaxX()\l+ getMaxX()\l+ setY()\let 9 de plus...\l}">
<polygon fill="white" stroke="black" points="38.5,-549 38.5,-771 137.5,-771 137.5,-549 38.5,-549"/>
<text text-anchor="middle" x="88" y="-759" font-family="Helvetica,sans-Serif" font-size="10.00">CGLVector2D</text>
<polyline fill="none" stroke="black" points="38.5,-752 137.5,-752 "/>
<text text-anchor="start" x="46.5" y="-740" font-family="Helvetica,sans-Serif" font-size="10.00"># x</text>
<text text-anchor="start" x="46.5" y="-729" font-family="Helvetica,sans-Serif" font-size="10.00"># y</text>
<text text-anchor="start" x="46.5" y="-718" font-family="Helvetica,sans-Serif" font-size="10.00"># minX</text>
<text text-anchor="start" x="46.5" y="-707" font-family="Helvetica,sans-Serif" font-size="10.00"># maxX</text>
<text text-anchor="start" x="46.5" y="-696" font-family="Helvetica,sans-Serif" font-size="10.00"># minY</text>
<text text-anchor="start" x="46.5" y="-685" font-family="Helvetica,sans-Serif" font-size="10.00"># maxY</text>
<polyline fill="none" stroke="black" points="38.5,-678 137.5,-678 "/>
<text text-anchor="start" x="46.5" y="-666" font-family="Helvetica,sans-Serif" font-size="10.00">+ CGLVector2D()</text>
<text text-anchor="start" x="46.5" y="-655" font-family="Helvetica,sans-Serif" font-size="10.00">+ ~CGLVector2D()</text>
<text text-anchor="start" x="46.5" y="-644" font-family="Helvetica,sans-Serif" font-size="10.00">+ set()</text>
<text text-anchor="start" x="46.5" y="-633" font-family="Helvetica,sans-Serif" font-size="10.00">+ setX()</text>
<text text-anchor="start" x="46.5" y="-622" font-family="Helvetica,sans-Serif" font-size="10.00">+ getX()</text>
<text text-anchor="start" x="46.5" y="-611" font-family="Helvetica,sans-Serif" font-size="10.00">+ setMinX()</text>
<text text-anchor="start" x="46.5" y="-600" font-family="Helvetica,sans-Serif" font-size="10.00">+ getMinX()</text>
<text text-anchor="start" x="46.5" y="-589" font-family="Helvetica,sans-Serif" font-size="10.00">+ setMaxX()</text>
<text text-anchor="start" x="46.5" y="-578" font-family="Helvetica,sans-Serif" font-size="10.00">+ getMaxX()</text>
<text text-anchor="start" x="46.5" y="-567" font-family="Helvetica,sans-Serif" font-size="10.00">+ setY()</text>
<text text-anchor="start" x="46.5" y="-556" font-family="Helvetica,sans-Serif" font-size="10.00">et 9 de plus...</text>
</a>
</g>
</g>
<!-- Node7&#45;&gt;Node6 -->
<g id="edge7" class="edge"><title>Node7&#45;&gt;Node6</title>
<path fill="none" stroke="midnightblue" d="M89.7602,-538.719C89.9097,-528.505 90.0556,-518.533 90.1918,-509.228"/>
<polygon fill="none" stroke="midnightblue" points="86.2566,-538.948 89.6098,-548.999 93.2558,-539.051 86.2566,-538.948"/>
</g>
</g>
</svg>
