<?xml version="1.0" encoding="UTF-8" standalone="no"?>
<!DOCTYPE svg PUBLIC "-//W3C//DTD SVG 1.1//EN"
 "http://www.w3.org/Graphics/SVG/1.1/DTD/svg11.dtd">
<!-- Generated by graphviz version 2.36.0 (20140111.2315)
 -->
<!-- Title: CGLRotation Pages: 1 -->
<svg width="313pt" height="536pt"
 viewBox="0.00 0.00 313.00 536.00" xmlns="http://www.w3.org/2000/svg" xmlns:xlink="http://www.w3.org/1999/xlink">
<g id="graph0" class="graph" transform="scale(1 1) rotate(0) translate(4 532)">
<title>CGLRotation</title>
<polygon fill="white" stroke="none" points="-4,4 -4,-532 309,-532 309,4 -4,4"/>
<!-- Node1 -->
<g id="node1" class="node"><title>Node1</title>
<polygon fill="#bfbfbf" stroke="black" points="134.5,-1 134.5,-113 229.5,-113 229.5,-1 134.5,-1"/>
<text text-anchor="middle" x="182" y="-101" font-family="Helvetica,sans-Serif" font-size="10.00">CGLRotation</text>
<polyline fill="none" stroke="black" points="134.5,-94 229.5,-94 "/>
<text text-anchor="middle" x="182" y="-82" font-family="Helvetica,sans-Serif" font-size="10.00"> </text>
<polyline fill="none" stroke="black" points="134.5,-75 229.5,-75 "/>
<text text-anchor="start" x="142.5" y="-63" font-family="Helvetica,sans-Serif" font-size="10.00">+ CGLRotation()</text>
<text text-anchor="start" x="142.5" y="-52" font-family="Helvetica,sans-Serif" font-size="10.00">+ ~CGLRotation()</text>
<text text-anchor="start" x="142.5" y="-41" font-family="Helvetica,sans-Serif" font-size="10.00">+ setA()</text>
<text text-anchor="start" x="142.5" y="-30" font-family="Helvetica,sans-Serif" font-size="10.00">+ getA()</text>
<text text-anchor="start" x="142.5" y="-19" font-family="Helvetica,sans-Serif" font-size="10.00">+ set()</text>
<text text-anchor="start" x="142.5" y="-8" font-family="Helvetica,sans-Serif" font-size="10.00">+ drawObject()</text>
</g>
<!-- Node2 -->
<g id="node2" class="node"><title>Node2</title>
<g id="a_node2"><a xlink:href="$dc/d8a/class_c_g_l_effect.xhtml" xlink:title="{CGLEffect\n||+ CGLEffect()\l+ ~CGLEffect()\l}">
<polygon fill="white" stroke="black" points="46,-175 46,-243 130,-243 130,-175 46,-175"/>
<text text-anchor="middle" x="88" y="-231" font-family="Helvetica,sans-Serif" font-size="10.00">CGLEffect</text>
<polyline fill="none" stroke="black" points="46,-224 130,-224 "/>
<text text-anchor="middle" x="88" y="-212" font-family="Helvetica,sans-Serif" font-size="10.00"> </text>
<polyline fill="none" stroke="black" points="46,-205 130,-205 "/>
<text text-anchor="start" x="54" y="-193" font-family="Helvetica,sans-Serif" font-size="10.00">+ CGLEffect()</text>
<text text-anchor="start" x="54" y="-182" font-family="Helvetica,sans-Serif" font-size="10.00">+ ~CGLEffect()</text>
</a>
</g>
</g>
<!-- Node2&#45;&gt;Node1 -->
<g id="edge1" class="edge"><title>Node2&#45;&gt;Node1</title>
<path fill="none" stroke="midnightblue" d="M114.361,-165.935C124.59,-149.611 136.448,-130.69 147.35,-113.292"/>
<polygon fill="none" stroke="midnightblue" points="111.206,-164.378 108.862,-174.71 117.138,-168.095 111.206,-164.378"/>
</g>
<!-- Node3 -->
<g id="node3" class="node"><title>Node3</title>
<g id="a_node3"><a xlink:href="$d2/d76/class_c_g_l_object.xhtml" xlink:title="{CGLObject\n|# objectType\l# name\l# matrixSaved\l# children\l# iterCurrentObject\l|+ addObject()\l+ setName()\l+ getName()\l+ getCurrentObject()\l+ isChild()\l+ draw()\l+ drawObject()\l+ drawChildren()\l+ drawCenter()\l+ CGLObject()\l+ ~CGLObject()\l+ init()\l}">
<polygon fill="white" stroke="black" points="0,-305 0,-527 106,-527 106,-305 0,-305"/>
<text text-anchor="middle" x="53" y="-515" font-family="Helvetica,sans-Serif" font-size="10.00">CGLObject</text>
<polyline fill="none" stroke="black" points="0,-508 106,-508 "/>
<text text-anchor="start" x="8" y="-496" font-family="Helvetica,sans-Serif" font-size="10.00"># objectType</text>
<text text-anchor="start" x="8" y="-485" font-family="Helvetica,sans-Serif" font-size="10.00"># name</text>
<text text-anchor="start" x="8" y="-474" font-family="Helvetica,sans-Serif" font-size="10.00"># matrixSaved</text>
<text text-anchor="start" x="8" y="-463" font-family="Helvetica,sans-Serif" font-size="10.00"># children</text>
<text text-anchor="start" x="8" y="-452" font-family="Helvetica,sans-Serif" font-size="10.00"># iterCurrentObject</text>
<polyline fill="none" stroke="black" points="0,-445 106,-445 "/>
<text text-anchor="start" x="8" y="-433" font-family="Helvetica,sans-Serif" font-size="10.00">+ addObject()</text>
<text text-anchor="start" x="8" y="-422" font-family="Helvetica,sans-Serif" font-size="10.00">+ setName()</text>
<text text-anchor="start" x="8" y="-411" font-family="Helvetica,sans-Serif" font-size="10.00">+ getName()</text>
<text text-anchor="start" x="8" y="-400" font-family="Helvetica,sans-Serif" font-size="10.00">+ getCurrentObject()</text>
<text text-anchor="start" x="8" y="-389" font-family="Helvetica,sans-Serif" font-size="10.00">+ isChild()</text>
<text text-anchor="start" x="8" y="-378" font-family="Helvetica,sans-Serif" font-size="10.00">+ draw()</text>
<text text-anchor="start" x="8" y="-367" font-family="Helvetica,sans-Serif" font-size="10.00">+ drawObject()</text>
<text text-anchor="start" x="8" y="-356" font-family="Helvetica,sans-Serif" font-size="10.00">+ drawChildren()</text>
<text text-anchor="start" x="8" y="-345" font-family="Helvetica,sans-Serif" font-size="10.00">+ drawCenter()</text>
<text text-anchor="start" x="8" y="-334" font-family="Helvetica,sans-Serif" font-size="10.00">+ CGLObject()</text>
<text text-anchor="start" x="8" y="-323" font-family="Helvetica,sans-Serif" font-size="10.00">+ ~CGLObject()</text>
<text text-anchor="start" x="8" y="-312" font-family="Helvetica,sans-Serif" font-size="10.00">+ init()</text>
</a>
</g>
</g>
<!-- Node3&#45;&gt;Node2 -->
<g id="edge2" class="edge"><title>Node3&#45;&gt;Node2</title>
<path fill="none" stroke="midnightblue" d="M73.4914,-294.979C76.7428,-275.935 79.8521,-257.723 82.3525,-243.078"/>
<polygon fill="none" stroke="midnightblue" points="70.0137,-294.552 71.7807,-304.999 76.9138,-295.73 70.0137,-294.552"/>
</g>
<!-- Node3&#45;&gt;Node3 -->
<g id="edge3" class="edge"><title>Node3&#45;&gt;Node3</title>
<path fill="none" stroke="#404040" d="M106.111,-439.124C116.021,-436.276 123,-428.568 123,-416 123,-408.734 120.667,-403.092 116.784,-399.075"/>
<polygon fill="none" stroke="#404040" points="116.488,-398.903 109.291,-399.349 106.111,-392.876 113.309,-392.431 116.488,-398.903"/>
<text text-anchor="middle" x="155" y="-424.5" font-family="Helvetica,sans-Serif" font-size="10.00"> +garbage</text>
<text text-anchor="middle" x="155" y="-413.5" font-family="Helvetica,sans-Serif" font-size="10.00">#currentObject</text>
<text text-anchor="middle" x="155" y="-402.5" font-family="Helvetica,sans-Serif" font-size="10.00">#parentObject</text>
</g>
<!-- Node4 -->
<g id="node4" class="node"><title>Node4</title>
<g id="a_node4"><a xlink:href="$d6/df9/class_c_g_l_vector3_d.xhtml" xlink:title="{CGLVector3D\n|# z\l|+ CGLVector3D()\l+ ~CGLVector3D()\l+ isEqualTo()\l+ getZ()\l+ set()\l+ setZ()\l}">
<polygon fill="white" stroke="black" points="194.5,-153 194.5,-265 293.5,-265 293.5,-153 194.5,-153"/>
<text text-anchor="middle" x="244" y="-253" font-family="Helvetica,sans-Serif" font-size="10.00">CGLVector3D</text>
<polyline fill="none" stroke="black" points="194.5,-246 293.5,-246 "/>
<text text-anchor="start" x="202.5" y="-234" font-family="Helvetica,sans-Serif" font-size="10.00"># z</text>
<polyline fill="none" stroke="black" points="194.5,-227 293.5,-227 "/>
<text text-anchor="start" x="202.5" y="-215" font-family="Helvetica,sans-Serif" font-size="10.00">+ CGLVector3D()</text>
<text text-anchor="start" x="202.5" y="-204" font-family="Helvetica,sans-Serif" font-size="10.00">+ ~CGLVector3D()</text>
<text text-anchor="start" x="202.5" y="-193" font-family="Helvetica,sans-Serif" font-size="10.00">+ isEqualTo()</text>
<text text-anchor="start" x="202.5" y="-182" font-family="Helvetica,sans-Serif" font-size="10.00">+ getZ()</text>
<text text-anchor="start" x="202.5" y="-171" font-family="Helvetica,sans-Serif" font-size="10.00">+ set()</text>
<text text-anchor="start" x="202.5" y="-160" font-family="Helvetica,sans-Serif" font-size="10.00">+ setZ()</text>
</a>
</g>
</g>
<!-- Node4&#45;&gt;Node1 -->
<g id="edge4" class="edge"><title>Node4&#45;&gt;Node1</title>
<path fill="none" stroke="midnightblue" d="M217.321,-143.454C213.163,-133.393 208.898,-123.076 204.835,-113.247"/>
<polygon fill="none" stroke="midnightblue" points="214.211,-145.093 221.266,-152.997 220.68,-142.419 214.211,-145.093"/>
</g>
<!-- Node5 -->
<g id="node5" class="node"><title>Node5</title>
<g id="a_node5"><a xlink:href="$d8/d97/class_c_g_l_vector2_d.xhtml" xlink:title="{CGLVector2D\n|# x\l# y\l|+ CGLVector2D()\l+ ~CGLVector2D()\l+ set()\l+ setX()\l+ getX()\l+ setY()\l+ getY()\l}">
<polygon fill="white" stroke="black" points="206.5,-349 206.5,-483 305.5,-483 305.5,-349 206.5,-349"/>
<text text-anchor="middle" x="256" y="-471" font-family="Helvetica,sans-Serif" font-size="10.00">CGLVector2D</text>
<polyline fill="none" stroke="black" points="206.5,-464 305.5,-464 "/>
<text text-anchor="start" x="214.5" y="-452" font-family="Helvetica,sans-Serif" font-size="10.00"># x</text>
<text text-anchor="start" x="214.5" y="-441" font-family="Helvetica,sans-Serif" font-size="10.00"># y</text>
<polyline fill="none" stroke="black" points="206.5,-434 305.5,-434 "/>
<text text-anchor="start" x="214.5" y="-422" font-family="Helvetica,sans-Serif" font-size="10.00">+ CGLVector2D()</text>
<text text-anchor="start" x="214.5" y="-411" font-family="Helvetica,sans-Serif" font-size="10.00">+ ~CGLVector2D()</text>
<text text-anchor="start" x="214.5" y="-400" font-family="Helvetica,sans-Serif" font-size="10.00">+ set()</text>
<text text-anchor="start" x="214.5" y="-389" font-family="Helvetica,sans-Serif" font-size="10.00">+ setX()</text>
<text text-anchor="start" x="214.5" y="-378" font-family="Helvetica,sans-Serif" font-size="10.00">+ getX()</text>
<text text-anchor="start" x="214.5" y="-367" font-family="Helvetica,sans-Serif" font-size="10.00">+ setY()</text>
<text text-anchor="start" x="214.5" y="-356" font-family="Helvetica,sans-Serif" font-size="10.00">+ getY()</text>
</a>
</g>
</g>
<!-- Node5&#45;&gt;Node4 -->
<g id="edge5" class="edge"><title>Node5&#45;&gt;Node4</title>
<path fill="none" stroke="midnightblue" d="M251.518,-338.429C250.092,-314.064 248.543,-287.607 247.224,-265.073"/>
<polygon fill="none" stroke="midnightblue" points="248.042,-338.947 252.121,-348.725 255.03,-338.538 248.042,-338.947"/>
</g>
</g>
</svg>
