<?xml version="1.0" encoding="UTF-8" standalone="no"?>
<!DOCTYPE svg PUBLIC "-//W3C//DTD SVG 1.1//EN"
 "http://www.w3.org/Graphics/SVG/1.1/DTD/svg11.dtd">
<!-- Generated by graphviz version 2.36.0 (20140111.2315)
 -->
<!-- Title: CGLRotationSpeed Pages: 1 -->
<svg width="167pt" height="332pt"
 viewBox="0.00 0.00 167.00 332.00" xmlns="http://www.w3.org/2000/svg" xmlns:xlink="http://www.w3.org/1999/xlink">
<g id="graph0" class="graph" transform="scale(1 1) rotate(0) translate(4 328)">
<title>CGLRotationSpeed</title>
<polygon fill="white" stroke="none" points="-4,4 -4,-328 163,-328 163,4 -4,4"/>
<!-- Node1 -->
<g id="node1" class="node"><title>Node1</title>
<polygon fill="#bfbfbf" stroke="black" points="14,-0.5 14,-79.5 136,-79.5 136,-0.5 14,-0.5"/>
<text text-anchor="middle" x="75" y="-67.5" font-family="Helvetica,sans-Serif" font-size="10.00">CGLRotationSpeed</text>
<polyline fill="none" stroke="black" points="14,-60.5 136,-60.5 "/>
<text text-anchor="start" x="22" y="-48.5" font-family="Helvetica,sans-Serif" font-size="10.00"># speed</text>
<polyline fill="none" stroke="black" points="14,-41.5 136,-41.5 "/>
<text text-anchor="start" x="22" y="-29.5" font-family="Helvetica,sans-Serif" font-size="10.00">+ CGLRotationSpeed()</text>
<text text-anchor="start" x="22" y="-18.5" font-family="Helvetica,sans-Serif" font-size="10.00">+ ~CGLRotationSpeed()</text>
<text text-anchor="start" x="22" y="-7.5" font-family="Helvetica,sans-Serif" font-size="10.00">+ drawObject()</text>
</g>
<!-- Node2 -->
<g id="node2" class="node"><title>Node2</title>
<g id="a_node2"><a xlink:href="../../d4/dd5/class_c_g_l_rotation.xhtml" target="_top" xlink:title="{CGLRotation\n|# a\l|+ CGLRotation()\l+ ~CGLRotation()\l+ setA()\l+ getA()\l+ set()\l+ drawObject()\l}">
<polygon fill="white" stroke="black" points="27.5,-117 27.5,-229 122.5,-229 122.5,-117 27.5,-117"/>
<text text-anchor="middle" x="75" y="-217" font-family="Helvetica,sans-Serif" font-size="10.00">CGLRotation</text>
<polyline fill="none" stroke="black" points="27.5,-210 122.5,-210 "/>
<text text-anchor="start" x="35.5" y="-198" font-family="Helvetica,sans-Serif" font-size="10.00"># a</text>
<polyline fill="none" stroke="black" points="27.5,-191 122.5,-191 "/>
<text text-anchor="start" x="35.5" y="-179" font-family="Helvetica,sans-Serif" font-size="10.00">+ CGLRotation()</text>
<text text-anchor="start" x="35.5" y="-168" font-family="Helvetica,sans-Serif" font-size="10.00">+ ~CGLRotation()</text>
<text text-anchor="start" x="35.5" y="-157" font-family="Helvetica,sans-Serif" font-size="10.00">+ setA()</text>
<text text-anchor="start" x="35.5" y="-146" font-family="Helvetica,sans-Serif" font-size="10.00">+ getA()</text>
<text text-anchor="start" x="35.5" y="-135" font-family="Helvetica,sans-Serif" font-size="10.00">+ set()</text>
<text text-anchor="start" x="35.5" y="-124" font-family="Helvetica,sans-Serif" font-size="10.00">+ drawObject()</text>
</a>
</g>
</g>
<!-- Node2&#45;&gt;Node1 -->
<g id="edge1" class="edge"><title>Node2&#45;&gt;Node1</title>
<path fill="none" stroke="midnightblue" d="M75,-106.537C75,-97.3924 75,-88.2465 75,-79.8127"/>
<polygon fill="none" stroke="midnightblue" points="71.5001,-106.824 75,-116.824 78.5001,-106.824 71.5001,-106.824"/>
</g>
<!-- Node3 -->
<g id="node3" class="node"><title>Node3</title>
<polygon fill="white" stroke="#bfbfbf" points="-0.5,-266.5 -0.5,-323.5 62.5,-323.5 62.5,-266.5 -0.5,-266.5"/>
<text text-anchor="middle" x="31" y="-311.5" font-family="Helvetica,sans-Serif" font-size="10.00">CGLEffect</text>
<polyline fill="none" stroke="#bfbfbf" points="-0.5,-304.5 62.5,-304.5 "/>
<text text-anchor="middle" x="31" y="-292.5" font-family="Helvetica,sans-Serif" font-size="10.00"> </text>
<polyline fill="none" stroke="#bfbfbf" points="-0.5,-285.5 62.5,-285.5 "/>
<text text-anchor="middle" x="31" y="-273.5" font-family="Helvetica,sans-Serif" font-size="10.00"> </text>
</g>
<!-- Node3&#45;&gt;Node2 -->
<g id="edge2" class="edge"><title>Node3&#45;&gt;Node2</title>
<path fill="none" stroke="midnightblue" d="M44.5801,-256.963C47.7893,-248.211 51.2799,-238.691 54.7145,-229.324"/>
<polygon fill="none" stroke="midnightblue" points="41.251,-255.876 41.0945,-266.47 47.8232,-258.286 41.251,-255.876"/>
</g>
<!-- Node4 -->
<g id="node4" class="node"><title>Node4</title>
<polygon fill="white" stroke="#bfbfbf" points="81,-266.5 81,-323.5 159,-323.5 159,-266.5 81,-266.5"/>
<text text-anchor="middle" x="120" y="-311.5" font-family="Helvetica,sans-Serif" font-size="10.00">CGLVector3D</text>
<polyline fill="none" stroke="#bfbfbf" points="81,-304.5 159,-304.5 "/>
<text text-anchor="middle" x="120" y="-292.5" font-family="Helvetica,sans-Serif" font-size="10.00"> </text>
<polyline fill="none" stroke="#bfbfbf" points="81,-285.5 159,-285.5 "/>
<text text-anchor="middle" x="120" y="-273.5" font-family="Helvetica,sans-Serif" font-size="10.00"> </text>
</g>
<!-- Node4&#45;&gt;Node2 -->
<g id="edge3" class="edge"><title>Node4&#45;&gt;Node2</title>
<path fill="none" stroke="midnightblue" d="M106.111,-256.963C102.829,-248.211 99.2592,-238.691 95.7465,-229.324"/>
<polygon fill="none" stroke="midnightblue" points="102.888,-258.335 109.676,-266.47 109.442,-255.877 102.888,-258.335"/>
</g>
</g>
</svg>
