<?xml version="1.0" encoding="UTF-8" standalone="no"?>
<!DOCTYPE svg PUBLIC "-//W3C//DTD SVG 1.1//EN"
 "http://www.w3.org/Graphics/SVG/1.1/DTD/svg11.dtd">
<!-- Generated by graphviz version 2.36.0 (20140111.2315)
 -->
<!-- Title: CGLPositionSpeed::drawObject Pages: 1 -->
<svg width="304pt" height="104pt"
 viewBox="0.00 0.00 304.00 104.00" xmlns="http://www.w3.org/2000/svg" xmlns:xlink="http://www.w3.org/1999/xlink">
<g id="graph0" class="graph" transform="scale(1 1) rotate(0) translate(4 100)">
<title>CGLPositionSpeed::drawObject</title>
<polygon fill="white" stroke="none" points="-4,4 -4,-100 300,-100 300,4 -4,4"/>
<!-- Node1 -->
<g id="node1" class="node"><title>Node1</title>
<polygon fill="#bfbfbf" stroke="black" points="0.5,-38.5 0.5,-57.5 155.5,-57.5 155.5,-38.5 0.5,-38.5"/>
<text text-anchor="middle" x="78" y="-45.5" font-family="Helvetica,sans-Serif" font-size="10.00">CGLPositionSpeed::drawObject</text>
</g>
<!-- Node2 -->
<g id="node2" class="node"><title>Node2</title>
<g id="a_node2"><a xlink:href="../../d8/d97/class_c_g_l_vector2_d.xhtml#a5f25e872259c579251336dfe0faf8701" target="_top" xlink:title="CGLVector2D::getX">
<polygon fill="white" stroke="black" points="192,-76.5 192,-95.5 296,-95.5 296,-76.5 192,-76.5"/>
<text text-anchor="middle" x="244" y="-83.5" font-family="Helvetica,sans-Serif" font-size="10.00">CGLVector2D::getX</text>
</a>
</g>
</g>
<!-- Node1&#45;&gt;Node2 -->
<g id="edge1" class="edge"><title>Node1&#45;&gt;Node2</title>
<path fill="none" stroke="midnightblue" d="M120.384,-57.589C142.123,-62.6261 168.957,-68.8438 191.975,-74.1771"/>
<polygon fill="midnightblue" stroke="midnightblue" points="191.381,-77.6323 201.913,-76.4799 192.962,-70.8129 191.381,-77.6323"/>
</g>
<!-- Node3 -->
<g id="node3" class="node"><title>Node3</title>
<g id="a_node3"><a xlink:href="../../d8/d97/class_c_g_l_vector2_d.xhtml#ad279638b74a0caac60632b169136688c" target="_top" xlink:title="CGLVector2D::getY">
<polygon fill="white" stroke="black" points="192,-38.5 192,-57.5 296,-57.5 296,-38.5 192,-38.5"/>
<text text-anchor="middle" x="244" y="-45.5" font-family="Helvetica,sans-Serif" font-size="10.00">CGLVector2D::getY</text>
</a>
</g>
</g>
<!-- Node1&#45;&gt;Node3 -->
<g id="edge2" class="edge"><title>Node1&#45;&gt;Node3</title>
<path fill="none" stroke="midnightblue" d="M155.718,-48C164.371,-48 173.103,-48 181.526,-48"/>
<polygon fill="midnightblue" stroke="midnightblue" points="181.621,-51.5001 191.621,-48 181.621,-44.5001 181.621,-51.5001"/>
</g>
<!-- Node4 -->
<g id="node4" class="node"><title>Node4</title>
<g id="a_node4"><a xlink:href="../../d6/df9/class_c_g_l_vector3_d.xhtml#a374bca193aae71220f1349a6ab0778ee" target="_top" xlink:title="CGLVector3D::getZ">
<polygon fill="white" stroke="black" points="192,-0.5 192,-19.5 296,-19.5 296,-0.5 192,-0.5"/>
<text text-anchor="middle" x="244" y="-7.5" font-family="Helvetica,sans-Serif" font-size="10.00">CGLVector3D::getZ</text>
</a>
</g>
</g>
<!-- Node1&#45;&gt;Node4 -->
<g id="edge3" class="edge"><title>Node1&#45;&gt;Node4</title>
<path fill="none" stroke="midnightblue" d="M120.384,-38.411C142.123,-33.3739 168.957,-27.1562 191.975,-21.8229"/>
<polygon fill="midnightblue" stroke="midnightblue" points="192.962,-25.1871 201.913,-19.5201 191.381,-18.3677 192.962,-25.1871"/>
</g>
</g>
</svg>
