<?xml version="1.0" encoding="UTF-8" standalone="no"?>
<!DOCTYPE svg PUBLIC "-//W3C//DTD SVG 1.1//EN"
 "http://www.w3.org/Graphics/SVG/1.1/DTD/svg11.dtd">
<!-- Generated by graphviz version 2.36.0 (20140111.2315)
 -->
<!-- Title: CGLColor Pages: 1 -->
<svg width="231pt" height="810pt"
 viewBox="0.00 0.00 231.00 810.00" xmlns="http://www.w3.org/2000/svg" xmlns:xlink="http://www.w3.org/1999/xlink">
<g id="graph0" class="graph" transform="scale(1 1) rotate(0) translate(4 806)">
<title>CGLColor</title>
<polygon fill="white" stroke="none" points="-4,4 -4,-806 227,-806 227,4 -4,4"/>
<!-- Node1 -->
<g id="node1" class="node"><title>Node1</title>
<polygon fill="#bfbfbf" stroke="black" points="73.5,-0.5 73.5,-167.5 154.5,-167.5 154.5,-0.5 73.5,-0.5"/>
<text text-anchor="middle" x="114" y="-155.5" font-family="Helvetica,sans-Serif" font-size="10.00">CGLColor</text>
<polyline fill="none" stroke="black" points="73.5,-148.5 154.5,-148.5 "/>
<text text-anchor="middle" x="114" y="-136.5" font-family="Helvetica,sans-Serif" font-size="10.00"> </text>
<polyline fill="none" stroke="black" points="73.5,-129.5 154.5,-129.5 "/>
<text text-anchor="start" x="81.5" y="-117.5" font-family="Helvetica,sans-Serif" font-size="10.00">+ CGLColor()</text>
<text text-anchor="start" x="81.5" y="-106.5" font-family="Helvetica,sans-Serif" font-size="10.00">+ ~CGLColor()</text>
<text text-anchor="start" x="81.5" y="-95.5" font-family="Helvetica,sans-Serif" font-size="10.00">+ setR()</text>
<text text-anchor="start" x="81.5" y="-84.5" font-family="Helvetica,sans-Serif" font-size="10.00">+ setG()</text>
<text text-anchor="start" x="81.5" y="-73.5" font-family="Helvetica,sans-Serif" font-size="10.00">+ setB()</text>
<text text-anchor="start" x="81.5" y="-62.5" font-family="Helvetica,sans-Serif" font-size="10.00">+ setA()</text>
<text text-anchor="start" x="81.5" y="-51.5" font-family="Helvetica,sans-Serif" font-size="10.00">+ getR()</text>
<text text-anchor="start" x="81.5" y="-40.5" font-family="Helvetica,sans-Serif" font-size="10.00">+ getG()</text>
<text text-anchor="start" x="81.5" y="-29.5" font-family="Helvetica,sans-Serif" font-size="10.00">+ getB()</text>
<text text-anchor="start" x="81.5" y="-18.5" font-family="Helvetica,sans-Serif" font-size="10.00">+ getA()</text>
<text text-anchor="start" x="81.5" y="-7.5" font-family="Helvetica,sans-Serif" font-size="10.00">+ drawObject()</text>
</g>
<!-- Node2 -->
<g id="node2" class="node"><title>Node2</title>
<g id="a_node2"><a xlink:href="$dc/d8a/class_c_g_l_effect.xhtml" xlink:title="{CGLEffect\n||+ CGLEffect()\l+ ~CGLEffect()\l}">
<polygon fill="white" stroke="black" points="16,-221 16,-289 100,-289 100,-221 16,-221"/>
<text text-anchor="middle" x="58" y="-277" font-family="Helvetica,sans-Serif" font-size="10.00">CGLEffect</text>
<polyline fill="none" stroke="black" points="16,-270 100,-270 "/>
<text text-anchor="middle" x="58" y="-258" font-family="Helvetica,sans-Serif" font-size="10.00"> </text>
<polyline fill="none" stroke="black" points="16,-251 100,-251 "/>
<text text-anchor="start" x="24" y="-239" font-family="Helvetica,sans-Serif" font-size="10.00">+ CGLEffect()</text>
<text text-anchor="start" x="24" y="-228" font-family="Helvetica,sans-Serif" font-size="10.00">+ ~CGLEffect()</text>
</a>
</g>
</g>
<!-- Node2&#45;&gt;Node1 -->
<g id="edge1" class="edge"><title>Node2&#45;&gt;Node1</title>
<path fill="none" stroke="midnightblue" d="M72.2887,-210.879C76.671,-197.654 81.6483,-182.633 86.6005,-167.688"/>
<polygon fill="none" stroke="midnightblue" points="68.8869,-210.018 69.0638,-220.611 75.5316,-212.22 68.8869,-210.018"/>
</g>
<!-- Node3 -->
<g id="node3" class="node"><title>Node3</title>
<g id="a_node3"><a xlink:href="$d2/d76/class_c_g_l_object.xhtml" xlink:title="{CGLObject\n|+ garbage\l# objectType\l# name\l# matrixSaved\l# children\l# iterCurrentObject\l# currentObject\l# parentObject\l|+ addObject()\l+ setName()\l+ getName()\l+ getCurrentObject()\l+ isChild()\l+ draw()\l+ drawObject()\l+ drawChildren()\l+ drawCenter()\l+ CGLObject()\l+ ~CGLObject()\l+ init()\l}">
<polygon fill="white" stroke="black" points="0,-342.5 0,-597.5 106,-597.5 106,-342.5 0,-342.5"/>
<text text-anchor="middle" x="53" y="-585.5" font-family="Helvetica,sans-Serif" font-size="10.00">CGLObject</text>
<polyline fill="none" stroke="black" points="0,-578.5 106,-578.5 "/>
<text text-anchor="start" x="8" y="-566.5" font-family="Helvetica,sans-Serif" font-size="10.00">+ garbage</text>
<text text-anchor="start" x="8" y="-555.5" font-family="Helvetica,sans-Serif" font-size="10.00"># objectType</text>
<text text-anchor="start" x="8" y="-544.5" font-family="Helvetica,sans-Serif" font-size="10.00"># name</text>
<text text-anchor="start" x="8" y="-533.5" font-family="Helvetica,sans-Serif" font-size="10.00"># matrixSaved</text>
<text text-anchor="start" x="8" y="-522.5" font-family="Helvetica,sans-Serif" font-size="10.00"># children</text>
<text text-anchor="start" x="8" y="-511.5" font-family="Helvetica,sans-Serif" font-size="10.00"># iterCurrentObject</text>
<text text-anchor="start" x="8" y="-500.5" font-family="Helvetica,sans-Serif" font-size="10.00"># currentObject</text>
<text text-anchor="start" x="8" y="-489.5" font-family="Helvetica,sans-Serif" font-size="10.00"># parentObject</text>
<polyline fill="none" stroke="black" points="0,-482.5 106,-482.5 "/>
<text text-anchor="start" x="8" y="-470.5" font-family="Helvetica,sans-Serif" font-size="10.00">+ addObject()</text>
<text text-anchor="start" x="8" y="-459.5" font-family="Helvetica,sans-Serif" font-size="10.00">+ setName()</text>
<text text-anchor="start" x="8" y="-448.5" font-family="Helvetica,sans-Serif" font-size="10.00">+ getName()</text>
<text text-anchor="start" x="8" y="-437.5" font-family="Helvetica,sans-Serif" font-size="10.00">+ getCurrentObject()</text>
<text text-anchor="start" x="8" y="-426.5" font-family="Helvetica,sans-Serif" font-size="10.00">+ isChild()</text>
<text text-anchor="start" x="8" y="-415.5" font-family="Helvetica,sans-Serif" font-size="10.00">+ draw()</text>
<text text-anchor="start" x="8" y="-404.5" font-family="Helvetica,sans-Serif" font-size="10.00">+ drawObject()</text>
<text text-anchor="start" x="8" y="-393.5" font-family="Helvetica,sans-Serif" font-size="10.00">+ drawChildren()</text>
<text text-anchor="start" x="8" y="-382.5" font-family="Helvetica,sans-Serif" font-size="10.00">+ drawCenter()</text>
<text text-anchor="start" x="8" y="-371.5" font-family="Helvetica,sans-Serif" font-size="10.00">+ CGLObject()</text>
<text text-anchor="start" x="8" y="-360.5" font-family="Helvetica,sans-Serif" font-size="10.00">+ ~CGLObject()</text>
<text text-anchor="start" x="8" y="-349.5" font-family="Helvetica,sans-Serif" font-size="10.00">+ init()</text>
</a>
</g>
</g>
<!-- Node3&#45;&gt;Node2 -->
<g id="edge2" class="edge"><title>Node3&#45;&gt;Node2</title>
<path fill="none" stroke="midnightblue" d="M56.2091,-332.293C56.5832,-316.356 56.9342,-301.403 57.2246,-289.031"/>
<polygon fill="none" stroke="midnightblue" points="52.7093,-332.249 55.9735,-342.328 59.7073,-332.413 52.7093,-332.249"/>
</g>
<!-- Node4 -->
<g id="node4" class="node"><title>Node4</title>
<g id="a_node4"><a xlink:href="$db/d79/class_c_g_l_vector4_d.xhtml" xlink:title="{CGLVector4D\n|# w\l|+ CGLVector4D()\l+ ~CGLVector4D()\l+ getW()\l+ setW()\l+ set()\l}">
<polygon fill="white" stroke="black" points="121.5,-204.5 121.5,-305.5 220.5,-305.5 220.5,-204.5 121.5,-204.5"/>
<text text-anchor="middle" x="171" y="-293.5" font-family="Helvetica,sans-Serif" font-size="10.00">CGLVector4D</text>
<polyline fill="none" stroke="black" points="121.5,-286.5 220.5,-286.5 "/>
<text text-anchor="start" x="129.5" y="-274.5" font-family="Helvetica,sans-Serif" font-size="10.00"># w</text>
<polyline fill="none" stroke="black" points="121.5,-267.5 220.5,-267.5 "/>
<text text-anchor="start" x="129.5" y="-255.5" font-family="Helvetica,sans-Serif" font-size="10.00">+ CGLVector4D()</text>
<text text-anchor="start" x="129.5" y="-244.5" font-family="Helvetica,sans-Serif" font-size="10.00">+ ~CGLVector4D()</text>
<text text-anchor="start" x="129.5" y="-233.5" font-family="Helvetica,sans-Serif" font-size="10.00">+ getW()</text>
<text text-anchor="start" x="129.5" y="-222.5" font-family="Helvetica,sans-Serif" font-size="10.00">+ setW()</text>
<text text-anchor="start" x="129.5" y="-211.5" font-family="Helvetica,sans-Serif" font-size="10.00">+ set()</text>
</a>
</g>
</g>
<!-- Node4&#45;&gt;Node1 -->
<g id="edge3" class="edge"><title>Node4&#45;&gt;Node1</title>
<path fill="none" stroke="midnightblue" d="M150.957,-194.574C148.022,-185.874 144.957,-176.784 141.9,-167.721"/>
<polygon fill="none" stroke="midnightblue" points="147.694,-195.852 154.206,-204.208 154.327,-193.614 147.694,-195.852"/>
</g>
<!-- Node5 -->
<g id="node5" class="node"><title>Node5</title>
<g id="a_node5"><a xlink:href="$d6/df9/class_c_g_l_vector3_d.xhtml" xlink:title="{CGLVector3D\n|# z\l|+ CGLVector3D()\l+ ~CGLVector3D()\l+ isEqualTo()\l+ getZ()\l+ set()\l+ setZ()\l}">
<polygon fill="white" stroke="black" points="124.5,-414 124.5,-526 223.5,-526 223.5,-414 124.5,-414"/>
<text text-anchor="middle" x="174" y="-514" font-family="Helvetica,sans-Serif" font-size="10.00">CGLVector3D</text>
<polyline fill="none" stroke="black" points="124.5,-507 223.5,-507 "/>
<text text-anchor="start" x="132.5" y="-495" font-family="Helvetica,sans-Serif" font-size="10.00"># z</text>
<polyline fill="none" stroke="black" points="124.5,-488 223.5,-488 "/>
<text text-anchor="start" x="132.5" y="-476" font-family="Helvetica,sans-Serif" font-size="10.00">+ CGLVector3D()</text>
<text text-anchor="start" x="132.5" y="-465" font-family="Helvetica,sans-Serif" font-size="10.00">+ ~CGLVector3D()</text>
<text text-anchor="start" x="132.5" y="-454" font-family="Helvetica,sans-Serif" font-size="10.00">+ isEqualTo()</text>
<text text-anchor="start" x="132.5" y="-443" font-family="Helvetica,sans-Serif" font-size="10.00">+ getZ()</text>
<text text-anchor="start" x="132.5" y="-432" font-family="Helvetica,sans-Serif" font-size="10.00">+ set()</text>
<text text-anchor="start" x="132.5" y="-421" font-family="Helvetica,sans-Serif" font-size="10.00">+ setZ()</text>
</a>
</g>
</g>
<!-- Node5&#45;&gt;Node4 -->
<g id="edge4" class="edge"><title>Node5&#45;&gt;Node4</title>
<path fill="none" stroke="midnightblue" d="M173.082,-403.848C172.638,-372.304 172.113,-335.031 171.701,-305.802"/>
<polygon fill="none" stroke="midnightblue" points="169.583,-403.921 173.224,-413.87 176.582,-403.822 169.583,-403.921"/>
</g>
<!-- Node6 -->
<g id="node6" class="node"><title>Node6</title>
<g id="a_node6"><a xlink:href="$d8/d97/class_c_g_l_vector2_d.xhtml" xlink:title="{CGLVector2D\n||+ CGLVector2D()\l+ ~CGLVector2D()\l+ getMaxX()\l+ getMaxY()\l+ getMinX()\l+ getMinY()\l+ getX()\l+ getY()\l+ isXMax()\l+ isYMax()\let 11 de plus...\l}">
<polygon fill="white" stroke="black" points="124.5,-634.5 124.5,-801.5 223.5,-801.5 223.5,-634.5 124.5,-634.5"/>
<text text-anchor="middle" x="174" y="-789.5" font-family="Helvetica,sans-Serif" font-size="10.00">CGLVector2D</text>
<polyline fill="none" stroke="black" points="124.5,-782.5 223.5,-782.5 "/>
<text text-anchor="middle" x="174" y="-770.5" font-family="Helvetica,sans-Serif" font-size="10.00"> </text>
<polyline fill="none" stroke="black" points="124.5,-763.5 223.5,-763.5 "/>
<text text-anchor="start" x="132.5" y="-751.5" font-family="Helvetica,sans-Serif" font-size="10.00">+ CGLVector2D()</text>
<text text-anchor="start" x="132.5" y="-740.5" font-family="Helvetica,sans-Serif" font-size="10.00">+ ~CGLVector2D()</text>
<text text-anchor="start" x="132.5" y="-729.5" font-family="Helvetica,sans-Serif" font-size="10.00">+ getMaxX()</text>
<text text-anchor="start" x="132.5" y="-718.5" font-family="Helvetica,sans-Serif" font-size="10.00">+ getMaxY()</text>
<text text-anchor="start" x="132.5" y="-707.5" font-family="Helvetica,sans-Serif" font-size="10.00">+ getMinX()</text>
<text text-anchor="start" x="132.5" y="-696.5" font-family="Helvetica,sans-Serif" font-size="10.00">+ getMinY()</text>
<text text-anchor="start" x="132.5" y="-685.5" font-family="Helvetica,sans-Serif" font-size="10.00">+ getX()</text>
<text text-anchor="start" x="132.5" y="-674.5" font-family="Helvetica,sans-Serif" font-size="10.00">+ getY()</text>
<text text-anchor="start" x="132.5" y="-663.5" font-family="Helvetica,sans-Serif" font-size="10.00">+ isXMax()</text>
<text text-anchor="start" x="132.5" y="-652.5" font-family="Helvetica,sans-Serif" font-size="10.00">+ isYMax()</text>
<text text-anchor="start" x="132.5" y="-641.5" font-family="Helvetica,sans-Serif" font-size="10.00">et 11 de plus...</text>
</a>
</g>
</g>
<!-- Node6&#45;&gt;Node5 -->
<g id="edge5" class="edge"><title>Node6&#45;&gt;Node5</title>
<path fill="none" stroke="midnightblue" d="M174,-624.268C174,-591.26 174,-555.15 174,-526.275"/>
<polygon fill="none" stroke="midnightblue" points="170.5,-624.401 174,-634.401 177.5,-624.401 170.5,-624.401"/>
</g>
</g>
</svg>
