<?xml version="1.0" encoding="UTF-8" standalone="no"?>
<!DOCTYPE svg PUBLIC "-//W3C//DTD SVG 1.1//EN"
 "http://www.w3.org/Graphics/SVG/1.1/DTD/svg11.dtd">
<!-- Generated by graphviz version 2.36.0 (20140111.2315)
 -->
<!-- Title: /home/dagal/git/DamierGL/DamierGL/src/CGL/CGLBoite.cpp Pages: 1 -->
<svg width="390pt" height="264pt"
 viewBox="0.00 0.00 390.00 264.00" xmlns="http://www.w3.org/2000/svg" xmlns:xlink="http://www.w3.org/1999/xlink">
<g id="graph0" class="graph" transform="scale(1 1) rotate(0) translate(4 260)">
<title>/home/dagal/git/DamierGL/DamierGL/src/CGL/CGLBoite.cpp</title>
<polygon fill="white" stroke="none" points="-4,4 -4,-260 386,-260 386,4 -4,4"/>
<!-- Node1 -->
<g id="node1" class="node"><title>Node1</title>
<polygon fill="#bfbfbf" stroke="black" points="120,-225 120,-255 288,-255 288,-225 120,-225"/>
<text text-anchor="start" x="128" y="-243" font-family="Helvetica,sans-Serif" font-size="10.00">/home/dagal/git/DamierGL</text>
<text text-anchor="middle" x="204" y="-232" font-family="Helvetica,sans-Serif" font-size="10.00">/DamierGL/src/CGL/CGLBoite.cpp</text>
</g>
<!-- Node2 -->
<g id="node2" class="node"><title>Node2</title>
<g id="a_node2"><a xlink:href="../../db/d17/_c_g_l_boite_8h.xhtml" target="_top" xlink:title="CGLBoite.h">
<polygon fill="white" stroke="black" points="170,-168.5 170,-187.5 238,-187.5 238,-168.5 170,-168.5"/>
<text text-anchor="middle" x="204" y="-175.5" font-family="Helvetica,sans-Serif" font-size="10.00">CGLBoite.h</text>
</a>
</g>
</g>
<!-- Node1&#45;&gt;Node2 -->
<g id="edge1" class="edge"><title>Node1&#45;&gt;Node2</title>
<path fill="none" stroke="midnightblue" d="M204,-224.781C204,-216.781 204,-206.689 204,-198.017"/>
<polygon fill="midnightblue" stroke="midnightblue" points="207.5,-197.73 204,-187.731 200.5,-197.731 207.5,-197.73"/>
</g>
<!-- Node3 -->
<g id="node3" class="node"><title>Node3</title>
<g id="a_node3"><a xlink:href="../../d2/d5a/_c_g_l_item_8h.xhtml" target="_top" xlink:title="CGLItem.h">
<polygon fill="white" stroke="black" points="171.5,-112.5 171.5,-131.5 236.5,-131.5 236.5,-112.5 171.5,-112.5"/>
<text text-anchor="middle" x="204" y="-119.5" font-family="Helvetica,sans-Serif" font-size="10.00">CGLItem.h</text>
</a>
</g>
</g>
<!-- Node2&#45;&gt;Node3 -->
<g id="edge2" class="edge"><title>Node2&#45;&gt;Node3</title>
<path fill="none" stroke="midnightblue" d="M204,-168.083C204,-161.006 204,-150.861 204,-141.986"/>
<polygon fill="midnightblue" stroke="midnightblue" points="207.5,-141.751 204,-131.751 200.5,-141.751 207.5,-141.751"/>
</g>
<!-- Node4 -->
<g id="node4" class="node"><title>Node4</title>
<g id="a_node4"><a xlink:href="../../d6/d55/_c_g_l_object_8h.xhtml" target="_top" xlink:title="CGLObject.h">
<polygon fill="white" stroke="black" points="167,-56.5 167,-75.5 241,-75.5 241,-56.5 167,-56.5"/>
<text text-anchor="middle" x="204" y="-63.5" font-family="Helvetica,sans-Serif" font-size="10.00">CGLObject.h</text>
</a>
</g>
</g>
<!-- Node3&#45;&gt;Node4 -->
<g id="edge3" class="edge"><title>Node3&#45;&gt;Node4</title>
<path fill="none" stroke="midnightblue" d="M204,-112.083C204,-105.006 204,-94.8611 204,-85.9865"/>
<polygon fill="midnightblue" stroke="midnightblue" points="207.5,-85.751 204,-75.7511 200.5,-85.7511 207.5,-85.751"/>
</g>
<!-- Node5 -->
<g id="node5" class="node"><title>Node5</title>
<polygon fill="white" stroke="#bfbfbf" points="0,-0.5 0,-19.5 54,-19.5 54,-0.5 0,-0.5"/>
<text text-anchor="middle" x="27" y="-7.5" font-family="Helvetica,sans-Serif" font-size="10.00">iostream</text>
</g>
<!-- Node4&#45;&gt;Node5 -->
<g id="edge4" class="edge"><title>Node4&#45;&gt;Node5</title>
<path fill="none" stroke="midnightblue" d="M175.954,-56.4435C145.653,-47.1993 97.2415,-32.4296 63.8785,-22.2511"/>
<polygon fill="midnightblue" stroke="midnightblue" points="64.6304,-18.8213 54.0443,-19.2508 62.5877,-25.5166 64.6304,-18.8213"/>
</g>
<!-- Node6 -->
<g id="node6" class="node"><title>Node6</title>
<polygon fill="white" stroke="#bfbfbf" points="72,-0.5 72,-19.5 120,-19.5 120,-0.5 72,-0.5"/>
<text text-anchor="middle" x="96" y="-7.5" font-family="Helvetica,sans-Serif" font-size="10.00">GL/gl.h</text>
</g>
<!-- Node4&#45;&gt;Node6 -->
<g id="edge5" class="edge"><title>Node4&#45;&gt;Node6</title>
<path fill="none" stroke="midnightblue" d="M186.648,-56.324C169.328,-47.6641 142.485,-34.2424 122.498,-24.249"/>
<polygon fill="midnightblue" stroke="midnightblue" points="123.819,-20.9962 113.309,-19.6545 120.688,-27.2572 123.819,-20.9962"/>
</g>
<!-- Node7 -->
<g id="node7" class="node"><title>Node7</title>
<polygon fill="white" stroke="#bfbfbf" points="138.5,-0.5 138.5,-19.5 191.5,-19.5 191.5,-0.5 138.5,-0.5"/>
<text text-anchor="middle" x="165" y="-7.5" font-family="Helvetica,sans-Serif" font-size="10.00">GL/glu.h</text>
</g>
<!-- Node4&#45;&gt;Node7 -->
<g id="edge6" class="edge"><title>Node4&#45;&gt;Node7</title>
<path fill="none" stroke="midnightblue" d="M197.56,-56.083C192.051,-48.4554 183.969,-37.2645 177.235,-27.9408"/>
<polygon fill="midnightblue" stroke="midnightblue" points="180.013,-25.8087 171.32,-19.7511 174.338,-29.9071 180.013,-25.8087"/>
</g>
<!-- Node8 -->
<g id="node8" class="node"><title>Node8</title>
<polygon fill="white" stroke="#bfbfbf" points="209.5,-0.5 209.5,-19.5 276.5,-19.5 276.5,-0.5 209.5,-0.5"/>
<text text-anchor="middle" x="243" y="-7.5" font-family="Helvetica,sans-Serif" font-size="10.00">SDL/SDL.h</text>
</g>
<!-- Node4&#45;&gt;Node8 -->
<g id="edge7" class="edge"><title>Node4&#45;&gt;Node8</title>
<path fill="none" stroke="midnightblue" d="M210.44,-56.083C215.949,-48.4554 224.031,-37.2645 230.765,-27.9408"/>
<polygon fill="midnightblue" stroke="midnightblue" points="233.662,-29.9071 236.68,-19.7511 227.987,-25.8087 233.662,-29.9071"/>
</g>
<!-- Node9 -->
<g id="node9" class="node"><title>Node9</title>
<polygon fill="white" stroke="#bfbfbf" points="294.5,-0.5 294.5,-19.5 335.5,-19.5 335.5,-0.5 294.5,-0.5"/>
<text text-anchor="middle" x="315" y="-7.5" font-family="Helvetica,sans-Serif" font-size="10.00">string</text>
</g>
<!-- Node4&#45;&gt;Node9 -->
<g id="edge8" class="edge"><title>Node4&#45;&gt;Node9</title>
<path fill="none" stroke="midnightblue" d="M221.834,-56.324C239.716,-47.6247 267.475,-34.1202 288.046,-24.113"/>
<polygon fill="midnightblue" stroke="midnightblue" points="289.749,-27.1765 297.21,-19.6545 286.687,-20.8819 289.749,-27.1765"/>
</g>
<!-- Node10 -->
<g id="node10" class="node"><title>Node10</title>
<polygon fill="white" stroke="#bfbfbf" points="353.5,-0.5 353.5,-19.5 382.5,-19.5 382.5,-0.5 353.5,-0.5"/>
<text text-anchor="middle" x="368" y="-7.5" font-family="Helvetica,sans-Serif" font-size="10.00">list</text>
</g>
<!-- Node4&#45;&gt;Node10 -->
<g id="edge9" class="edge"><title>Node4&#45;&gt;Node10</title>
<path fill="none" stroke="midnightblue" d="M232.021,-56.4255C258.495,-48.23 299.512,-35.2901 343.817,-19.9433"/>
<polygon fill="midnightblue" stroke="midnightblue" points="345.026,-23.2285 353.317,-16.6327 342.722,-16.6184 345.026,-23.2285"/>
</g>
</g>
</svg>
