<?xml version="1.0" encoding="UTF-8" standalone="no"?>
<!DOCTYPE svg PUBLIC "-//W3C//DTD SVG 1.1//EN"
 "http://www.w3.org/Graphics/SVG/1.1/DTD/svg11.dtd">
<!-- Generated by graphviz version 2.36.0 (20140111.2315)
 -->
<!-- Title: /home/dagal/git/DamierGL/DamierGL/src/DamierGL.cpp Pages: 1 -->
<svg width="924pt" height="488pt"
 viewBox="0.00 0.00 924.00 488.00" xmlns="http://www.w3.org/2000/svg" xmlns:xlink="http://www.w3.org/1999/xlink">
<g id="graph0" class="graph" transform="scale(1 1) rotate(0) translate(4 484)">
<title>/home/dagal/git/DamierGL/DamierGL/src/DamierGL.cpp</title>
<polygon fill="white" stroke="none" points="-4,4 -4,-484 920,-484 920,4 -4,4"/>
<!-- Node1 -->
<g id="node1" class="node"><title>Node1</title>
<polygon fill="#bfbfbf" stroke="black" points="347,-449 347,-479 493,-479 493,-449 347,-449"/>
<text text-anchor="start" x="355" y="-467" font-family="Helvetica,sans-Serif" font-size="10.00">/home/dagal/git/DamierGL</text>
<text text-anchor="middle" x="420" y="-456" font-family="Helvetica,sans-Serif" font-size="10.00">/DamierGL/src/DamierGL.cpp</text>
</g>
<!-- Node2 -->
<g id="node2" class="node"><title>Node2</title>
<g id="a_node2"><a xlink:href="../../de/d96/_c_g_l_window_8h.xhtml" target="_top" xlink:title="CGL/CGLWindow.h">
<polygon fill="white" stroke="black" points="0,-392.5 0,-411.5 104,-411.5 104,-392.5 0,-392.5"/>
<text text-anchor="middle" x="52" y="-399.5" font-family="Helvetica,sans-Serif" font-size="10.00">CGL/CGLWindow.h</text>
</a>
</g>
</g>
<!-- Node1&#45;&gt;Node2 -->
<g id="edge1" class="edge"><title>Node1&#45;&gt;Node2</title>
<path fill="none" stroke="midnightblue" d="M346.855,-451.074C278.809,-439.98 178.515,-423.627 114.222,-413.145"/>
<polygon fill="midnightblue" stroke="midnightblue" points="114.656,-409.67 104.223,-411.515 113.53,-416.578 114.656,-409.67"/>
</g>
<!-- Node16 -->
<g id="node16" class="node"><title>Node16</title>
<g id="a_node16"><a xlink:href="../../d2/d91/_c_g_l_quad_8h.xhtml" target="_top" xlink:title="CGL/CGLQuad.h">
<polygon fill="white" stroke="black" points="95,-336.5 95,-355.5 187,-355.5 187,-336.5 95,-336.5"/>
<text text-anchor="middle" x="141" y="-343.5" font-family="Helvetica,sans-Serif" font-size="10.00">CGL/CGLQuad.h</text>
</a>
</g>
</g>
<!-- Node1&#45;&gt;Node16 -->
<g id="edge16" class="edge"><title>Node1&#45;&gt;Node16</title>
<path fill="none" stroke="midnightblue" d="M346.741,-456.77C280.335,-449.688 188.872,-435.89 162,-412 148.864,-400.321 143.899,-380.377 142.047,-365.653"/>
<polygon fill="midnightblue" stroke="midnightblue" points="145.528,-365.284 141.154,-355.635 138.556,-365.906 145.528,-365.284"/>
</g>
<!-- Node18 -->
<g id="node18" class="node"><title>Node18</title>
<g id="a_node18"><a xlink:href="../../d7/df3/_c_g_l_robot1_8h.xhtml" target="_top" xlink:title="CGL/CGLRobot1.h">
<polygon fill="white" stroke="black" points="171,-392.5 171,-411.5 271,-411.5 271,-392.5 171,-392.5"/>
<text text-anchor="middle" x="221" y="-399.5" font-family="Helvetica,sans-Serif" font-size="10.00">CGL/CGLRobot1.h</text>
</a>
</g>
</g>
<!-- Node1&#45;&gt;Node18 -->
<g id="edge19" class="edge"><title>Node1&#45;&gt;Node18</title>
<path fill="none" stroke="midnightblue" d="M373.343,-448.933C338.467,-438.417 291.387,-424.222 258.839,-414.409"/>
<polygon fill="midnightblue" stroke="midnightblue" points="259.818,-411.048 249.234,-411.513 257.798,-417.75 259.818,-411.048"/>
</g>
<!-- Node20 -->
<g id="node20" class="node"><title>Node20</title>
<g id="a_node20"><a xlink:href="../../db/d5d/_c_g_l_position_8h.xhtml" target="_top" xlink:title="CGL/CGLPosition.h">
<polygon fill="white" stroke="black" points="467,-392.5 467,-411.5 571,-411.5 571,-392.5 467,-392.5"/>
<text text-anchor="middle" x="519" y="-399.5" font-family="Helvetica,sans-Serif" font-size="10.00">CGL/CGLPosition.h</text>
</a>
</g>
</g>
<!-- Node1&#45;&gt;Node20 -->
<g id="edge22" class="edge"><title>Node1&#45;&gt;Node20</title>
<path fill="none" stroke="midnightblue" d="M443.211,-448.933C459.168,-439.262 480.259,-426.479 496.14,-416.855"/>
<polygon fill="midnightblue" stroke="midnightblue" points="498.072,-419.776 504.81,-411.6 494.444,-413.79 498.072,-419.776"/>
</g>
<!-- Node24 -->
<g id="node24" class="node"><title>Node24</title>
<g id="a_node24"><a xlink:href="../../da/de7/_c_g_l_color_8h.xhtml" target="_top" xlink:title="CGL/CGLColor.h">
<polygon fill="white" stroke="black" points="589,-392.5 589,-411.5 681,-411.5 681,-392.5 589,-392.5"/>
<text text-anchor="middle" x="635" y="-399.5" font-family="Helvetica,sans-Serif" font-size="10.00">CGL/CGLColor.h</text>
</a>
</g>
</g>
<!-- Node1&#45;&gt;Node24 -->
<g id="edge27" class="edge"><title>Node1&#45;&gt;Node24</title>
<path fill="none" stroke="midnightblue" d="M470.408,-448.933C508.251,-438.372 559.392,-424.1 594.573,-414.282"/>
<polygon fill="midnightblue" stroke="midnightblue" points="595.805,-417.572 604.496,-411.513 593.923,-410.83 595.805,-417.572"/>
</g>
<!-- Node26 -->
<g id="node26" class="node"><title>Node26</title>
<g id="a_node26"><a xlink:href="../../d2/d1b/_c_g_l_scale_8h.xhtml" target="_top" xlink:title="CGL/CGLScale.h">
<polygon fill="white" stroke="black" points="699.5,-392.5 699.5,-411.5 792.5,-411.5 792.5,-392.5 699.5,-392.5"/>
<text text-anchor="middle" x="746" y="-399.5" font-family="Helvetica,sans-Serif" font-size="10.00">CGL/CGLScale.h</text>
</a>
</g>
</g>
<!-- Node1&#45;&gt;Node26 -->
<g id="edge31" class="edge"><title>Node1&#45;&gt;Node26</title>
<path fill="none" stroke="midnightblue" d="M493.161,-449.535C552.594,-438.596 635.201,-423.392 689.598,-413.381"/>
<polygon fill="midnightblue" stroke="midnightblue" points="690.549,-416.765 699.75,-411.512 689.282,-409.88 690.549,-416.765"/>
</g>
<!-- Node27 -->
<g id="node27" class="node"><title>Node27</title>
<g id="a_node27"><a xlink:href="../../d5/d65/_c_g_l_rotation_8h.xhtml" target="_top" xlink:title="CGL/CGLRotation.h">
<polygon fill="white" stroke="black" points="810.5,-392.5 810.5,-411.5 915.5,-411.5 915.5,-392.5 810.5,-392.5"/>
<text text-anchor="middle" x="863" y="-399.5" font-family="Helvetica,sans-Serif" font-size="10.00">CGL/CGLRotation.h</text>
</a>
</g>
</g>
<!-- Node1&#45;&gt;Node27 -->
<g id="edge34" class="edge"><title>Node1&#45;&gt;Node27</title>
<path fill="none" stroke="midnightblue" d="M493.073,-453.463C567.547,-443.688 686.692,-427.896 799.999,-412.127"/>
<polygon fill="midnightblue" stroke="midnightblue" points="800.819,-415.546 810.24,-410.699 799.853,-408.613 800.819,-415.546"/>
</g>
<!-- Node28 -->
<g id="node28" class="node"><title>Node28</title>
<g id="a_node28"><a xlink:href="../../d5/d21/_c_g_l_dot_8h.xhtml" target="_top" xlink:title="CGL/CGLDot.h">
<polygon fill="white" stroke="black" points="289,-392.5 289,-411.5 373,-411.5 373,-392.5 289,-392.5"/>
<text text-anchor="middle" x="331" y="-399.5" font-family="Helvetica,sans-Serif" font-size="10.00">CGL/CGLDot.h</text>
</a>
</g>
</g>
<!-- Node1&#45;&gt;Node28 -->
<g id="edge37" class="edge"><title>Node1&#45;&gt;Node28</title>
<path fill="none" stroke="midnightblue" d="M398.908,-448.781C384.825,-439.286 366.368,-426.843 352.251,-417.327"/>
<polygon fill="midnightblue" stroke="midnightblue" points="353.939,-414.244 343.691,-411.556 350.026,-420.048 353.939,-414.244"/>
</g>
<!-- Node29 -->
<g id="node29" class="node"><title>Node29</title>
<g id="a_node29"><a xlink:href="../../df/d4a/_c_g_l_line_8h.xhtml" target="_top" xlink:title="CGL/CGLLine.h">
<polygon fill="white" stroke="black" points="451,-336.5 451,-355.5 537,-355.5 537,-336.5 451,-336.5"/>
<text text-anchor="middle" x="494" y="-343.5" font-family="Helvetica,sans-Serif" font-size="10.00">CGL/CGLLine.h</text>
</a>
</g>
</g>
<!-- Node1&#45;&gt;Node29 -->
<g id="edge39" class="edge"><title>Node1&#45;&gt;Node29</title>
<path fill="none" stroke="midnightblue" d="M426.564,-448.959C433.625,-434.317 445.53,-410.907 458,-392 464.542,-382.082 472.76,-371.683 479.693,-363.382"/>
<polygon fill="midnightblue" stroke="midnightblue" points="482.503,-365.481 486.328,-355.601 477.176,-360.94 482.503,-365.481"/>
</g>
<!-- Node30 -->
<g id="node30" class="node"><title>Node30</title>
<g id="a_node30"><a xlink:href="../../d8/d51/_c_g_l_triangle_8h.xhtml" target="_top" xlink:title="CGL/CGLTriangle.h">
<polygon fill="white" stroke="black" points="329.5,-336.5 329.5,-355.5 432.5,-355.5 432.5,-336.5 329.5,-336.5"/>
<text text-anchor="middle" x="381" y="-343.5" font-family="Helvetica,sans-Serif" font-size="10.00">CGL/CGLTriangle.h</text>
</a>
</g>
</g>
<!-- Node1&#45;&gt;Node30 -->
<g id="edge42" class="edge"><title>Node1&#45;&gt;Node30</title>
<path fill="none" stroke="midnightblue" d="M415.218,-448.776C408.159,-427.781 394.949,-388.488 387.169,-365.349"/>
<polygon fill="midnightblue" stroke="midnightblue" points="390.432,-364.07 383.927,-355.707 383.797,-366.301 390.432,-364.07"/>
</g>
<!-- Node3 -->
<g id="node3" class="node"><title>Node3</title>
<g id="a_node3"><a xlink:href="../../d6/d37/_c_g_l_world_8h.xhtml" target="_top" xlink:title="CGLWorld.h">
<polygon fill="white" stroke="black" points="5.5,-336.5 5.5,-355.5 76.5,-355.5 76.5,-336.5 5.5,-336.5"/>
<text text-anchor="middle" x="41" y="-343.5" font-family="Helvetica,sans-Serif" font-size="10.00">CGLWorld.h</text>
</a>
</g>
</g>
<!-- Node2&#45;&gt;Node3 -->
<g id="edge2" class="edge"><title>Node2&#45;&gt;Node3</title>
<path fill="none" stroke="midnightblue" d="M50.1836,-392.083C48.7259,-384.927 46.6294,-374.635 44.8075,-365.691"/>
<polygon fill="midnightblue" stroke="midnightblue" points="48.2083,-364.851 42.7826,-355.751 41.3492,-366.248 48.2083,-364.851"/>
</g>
<!-- Node4 -->
<g id="node4" class="node"><title>Node4</title>
<g id="a_node4"><a xlink:href="../../d0/dc9/_c_g_l_scene_8h.xhtml" target="_top" xlink:title="CGLScene.h">
<polygon fill="white" stroke="black" points="100.5,-280.5 100.5,-299.5 173.5,-299.5 173.5,-280.5 100.5,-280.5"/>
<text text-anchor="middle" x="137" y="-287.5" font-family="Helvetica,sans-Serif" font-size="10.00">CGLScene.h</text>
</a>
</g>
</g>
<!-- Node3&#45;&gt;Node4 -->
<g id="edge3" class="edge"><title>Node3&#45;&gt;Node4</title>
<path fill="none" stroke="midnightblue" d="M56.4241,-336.324C71.5395,-327.822 94.8154,-314.729 112.471,-304.797"/>
<polygon fill="midnightblue" stroke="midnightblue" points="114.614,-307.608 121.614,-299.655 111.183,-301.507 114.614,-307.608"/>
</g>
<!-- Node5 -->
<g id="node5" class="node"><title>Node5</title>
<g id="a_node5"><a xlink:href="../../d5/d86/_c_g_l_camera_list_8h.xhtml" target="_top" xlink:title="CGLCameraList.h">
<polygon fill="white" stroke="black" points="174.5,-224.5 174.5,-243.5 269.5,-243.5 269.5,-224.5 174.5,-224.5"/>
<text text-anchor="middle" x="222" y="-231.5" font-family="Helvetica,sans-Serif" font-size="10.00">CGLCameraList.h</text>
</a>
</g>
</g>
<!-- Node4&#45;&gt;Node5 -->
<g id="edge4" class="edge"><title>Node4&#45;&gt;Node5</title>
<path fill="none" stroke="midnightblue" d="M150.657,-280.324C163.916,-271.9 184.268,-258.971 199.846,-249.074"/>
<polygon fill="midnightblue" stroke="midnightblue" points="201.813,-251.971 208.377,-243.655 198.06,-246.063 201.813,-251.971"/>
</g>
<!-- Node15 -->
<g id="node15" class="node"><title>Node15</title>
<g id="a_node15"><a xlink:href="../../da/d23/_c_g_l_light_8h.xhtml" target="_top" xlink:title="CGLLight.h">
<polygon fill="white" stroke="black" points="104,-168.5 104,-187.5 170,-187.5 170,-168.5 104,-168.5"/>
<text text-anchor="middle" x="137" y="-175.5" font-family="Helvetica,sans-Serif" font-size="10.00">CGLLight.h</text>
</a>
</g>
</g>
<!-- Node4&#45;&gt;Node15 -->
<g id="edge14" class="edge"><title>Node4&#45;&gt;Node15</title>
<path fill="none" stroke="midnightblue" d="M137,-280.368C137,-262.617 137,-221.666 137,-197.597"/>
<polygon fill="midnightblue" stroke="midnightblue" points="140.5,-197.591 137,-187.591 133.5,-197.591 140.5,-197.591"/>
</g>
<!-- Node6 -->
<g id="node6" class="node"><title>Node6</title>
<g id="a_node6"><a xlink:href="../../df/d5b/_c_g_l_camera_8h.xhtml" target="_top" xlink:title="CGLCamera.h">
<polygon fill="white" stroke="black" points="188,-168.5 188,-187.5 268,-187.5 268,-168.5 188,-168.5"/>
<text text-anchor="middle" x="228" y="-175.5" font-family="Helvetica,sans-Serif" font-size="10.00">CGLCamera.h</text>
</a>
</g>
</g>
<!-- Node5&#45;&gt;Node6 -->
<g id="edge5" class="edge"><title>Node5&#45;&gt;Node6</title>
<path fill="none" stroke="midnightblue" d="M222.991,-224.083C223.786,-216.927 224.929,-206.635 225.923,-197.691"/>
<polygon fill="midnightblue" stroke="midnightblue" points="229.402,-198.076 227.028,-187.751 222.445,-197.303 229.402,-198.076"/>
</g>
<!-- Node7 -->
<g id="node7" class="node"><title>Node7</title>
<g id="a_node7"><a xlink:href="../../dc/db8/_c_g_l_special_8h.xhtml" target="_top" xlink:title="CGLSpecial.h">
<polygon fill="white" stroke="black" points="189.5,-112.5 189.5,-131.5 266.5,-131.5 266.5,-112.5 189.5,-112.5"/>
<text text-anchor="middle" x="228" y="-119.5" font-family="Helvetica,sans-Serif" font-size="10.00">CGLSpecial.h</text>
</a>
</g>
</g>
<!-- Node6&#45;&gt;Node7 -->
<g id="edge6" class="edge"><title>Node6&#45;&gt;Node7</title>
<path fill="none" stroke="midnightblue" d="M228,-168.083C228,-161.006 228,-150.861 228,-141.986"/>
<polygon fill="midnightblue" stroke="midnightblue" points="231.5,-141.751 228,-131.751 224.5,-141.751 231.5,-141.751"/>
</g>
<!-- Node8 -->
<g id="node8" class="node"><title>Node8</title>
<g id="a_node8"><a xlink:href="../../d6/d55/_c_g_l_object_8h.xhtml" target="_top" xlink:title="CGLObject.h">
<polygon fill="white" stroke="black" points="264,-56.5 264,-75.5 338,-75.5 338,-56.5 264,-56.5"/>
<text text-anchor="middle" x="301" y="-63.5" font-family="Helvetica,sans-Serif" font-size="10.00">CGLObject.h</text>
</a>
</g>
</g>
<!-- Node7&#45;&gt;Node8 -->
<g id="edge7" class="edge"><title>Node7&#45;&gt;Node8</title>
<path fill="none" stroke="midnightblue" d="M239.729,-112.324C250.837,-104.107 267.742,-91.6017 280.983,-81.8069"/>
<polygon fill="midnightblue" stroke="midnightblue" points="283.1,-84.5948 289.058,-75.8339 278.937,-78.9671 283.1,-84.5948"/>
</g>
<!-- Node9 -->
<g id="node9" class="node"><title>Node9</title>
<polygon fill="white" stroke="#bfbfbf" points="97,-0.5 97,-19.5 151,-19.5 151,-0.5 97,-0.5"/>
<text text-anchor="middle" x="124" y="-7.5" font-family="Helvetica,sans-Serif" font-size="10.00">iostream</text>
</g>
<!-- Node8&#45;&gt;Node9 -->
<g id="edge8" class="edge"><title>Node8&#45;&gt;Node9</title>
<path fill="none" stroke="midnightblue" d="M272.954,-56.4435C242.653,-47.1993 194.242,-32.4296 160.878,-22.2511"/>
<polygon fill="midnightblue" stroke="midnightblue" points="161.63,-18.8213 151.044,-19.2508 159.588,-25.5166 161.63,-18.8213"/>
</g>
<!-- Node10 -->
<g id="node10" class="node"><title>Node10</title>
<polygon fill="white" stroke="#bfbfbf" points="169,-0.5 169,-19.5 217,-19.5 217,-0.5 169,-0.5"/>
<text text-anchor="middle" x="193" y="-7.5" font-family="Helvetica,sans-Serif" font-size="10.00">GL/gl.h</text>
</g>
<!-- Node8&#45;&gt;Node10 -->
<g id="edge9" class="edge"><title>Node8&#45;&gt;Node10</title>
<path fill="none" stroke="midnightblue" d="M283.648,-56.324C266.328,-47.6641 239.485,-34.2424 219.498,-24.249"/>
<polygon fill="midnightblue" stroke="midnightblue" points="220.819,-20.9962 210.309,-19.6545 217.688,-27.2572 220.819,-20.9962"/>
</g>
<!-- Node11 -->
<g id="node11" class="node"><title>Node11</title>
<polygon fill="white" stroke="#bfbfbf" points="235.5,-0.5 235.5,-19.5 288.5,-19.5 288.5,-0.5 235.5,-0.5"/>
<text text-anchor="middle" x="262" y="-7.5" font-family="Helvetica,sans-Serif" font-size="10.00">GL/glu.h</text>
</g>
<!-- Node8&#45;&gt;Node11 -->
<g id="edge10" class="edge"><title>Node8&#45;&gt;Node11</title>
<path fill="none" stroke="midnightblue" d="M294.56,-56.083C289.051,-48.4554 280.969,-37.2645 274.235,-27.9408"/>
<polygon fill="midnightblue" stroke="midnightblue" points="277.013,-25.8087 268.32,-19.7511 271.338,-29.9071 277.013,-25.8087"/>
</g>
<!-- Node12 -->
<g id="node12" class="node"><title>Node12</title>
<polygon fill="white" stroke="#bfbfbf" points="306.5,-0.5 306.5,-19.5 373.5,-19.5 373.5,-0.5 306.5,-0.5"/>
<text text-anchor="middle" x="340" y="-7.5" font-family="Helvetica,sans-Serif" font-size="10.00">SDL/SDL.h</text>
</g>
<!-- Node8&#45;&gt;Node12 -->
<g id="edge11" class="edge"><title>Node8&#45;&gt;Node12</title>
<path fill="none" stroke="midnightblue" d="M307.44,-56.083C312.949,-48.4554 321.031,-37.2645 327.765,-27.9408"/>
<polygon fill="midnightblue" stroke="midnightblue" points="330.662,-29.9071 333.68,-19.7511 324.987,-25.8087 330.662,-29.9071"/>
</g>
<!-- Node13 -->
<g id="node13" class="node"><title>Node13</title>
<polygon fill="white" stroke="#bfbfbf" points="391.5,-0.5 391.5,-19.5 432.5,-19.5 432.5,-0.5 391.5,-0.5"/>
<text text-anchor="middle" x="412" y="-7.5" font-family="Helvetica,sans-Serif" font-size="10.00">string</text>
</g>
<!-- Node8&#45;&gt;Node13 -->
<g id="edge12" class="edge"><title>Node8&#45;&gt;Node13</title>
<path fill="none" stroke="midnightblue" d="M318.834,-56.324C336.716,-47.6247 364.475,-34.1202 385.046,-24.113"/>
<polygon fill="midnightblue" stroke="midnightblue" points="386.749,-27.1765 394.21,-19.6545 383.687,-20.8819 386.749,-27.1765"/>
</g>
<!-- Node14 -->
<g id="node14" class="node"><title>Node14</title>
<polygon fill="white" stroke="#bfbfbf" points="450.5,-0.5 450.5,-19.5 479.5,-19.5 479.5,-0.5 450.5,-0.5"/>
<text text-anchor="middle" x="465" y="-7.5" font-family="Helvetica,sans-Serif" font-size="10.00">list</text>
</g>
<!-- Node8&#45;&gt;Node14 -->
<g id="edge13" class="edge"><title>Node8&#45;&gt;Node14</title>
<path fill="none" stroke="midnightblue" d="M329.021,-56.4255C355.495,-48.23 396.512,-35.2901 440.817,-19.9433"/>
<polygon fill="midnightblue" stroke="midnightblue" points="442.026,-23.2285 450.317,-16.6327 439.722,-16.6184 442.026,-23.2285"/>
</g>
<!-- Node15&#45;&gt;Node7 -->
<g id="edge15" class="edge"><title>Node15&#45;&gt;Node7</title>
<path fill="none" stroke="midnightblue" d="M151.621,-168.324C165.949,-159.822 188.013,-146.729 204.749,-136.797"/>
<polygon fill="midnightblue" stroke="midnightblue" points="206.602,-139.768 213.416,-131.655 203.03,-133.748 206.602,-139.768"/>
</g>
<!-- Node17 -->
<g id="node17" class="node"><title>Node17</title>
<g id="a_node17"><a xlink:href="../../d2/d5a/_c_g_l_item_8h.xhtml" target="_top" xlink:title="CGLItem.h">
<polygon fill="white" stroke="black" points="268.5,-280.5 268.5,-299.5 333.5,-299.5 333.5,-280.5 268.5,-280.5"/>
<text text-anchor="middle" x="301" y="-287.5" font-family="Helvetica,sans-Serif" font-size="10.00">CGLItem.h</text>
</a>
</g>
</g>
<!-- Node16&#45;&gt;Node17 -->
<g id="edge17" class="edge"><title>Node16&#45;&gt;Node17</title>
<path fill="none" stroke="midnightblue" d="M166.352,-336.444C193.269,-327.359 235.996,-312.939 266.087,-302.783"/>
<polygon fill="midnightblue" stroke="midnightblue" points="267.41,-306.031 275.766,-299.516 265.172,-299.398 267.41,-306.031"/>
</g>
<!-- Node17&#45;&gt;Node8 -->
<g id="edge18" class="edge"><title>Node17&#45;&gt;Node8</title>
<path fill="none" stroke="midnightblue" d="M301,-280.297C301,-247.633 301,-131.866 301,-85.9573"/>
<polygon fill="midnightblue" stroke="midnightblue" points="304.5,-85.8837 301,-75.8837 297.5,-85.8838 304.5,-85.8837"/>
</g>
<!-- Node19 -->
<g id="node19" class="node"><title>Node19</title>
<g id="a_node19"><a xlink:href="../../db/d17/_c_g_l_boite_8h.xhtml" target="_top" xlink:title="CGLBoite.h">
<polygon fill="white" stroke="black" points="205,-336.5 205,-355.5 273,-355.5 273,-336.5 205,-336.5"/>
<text text-anchor="middle" x="239" y="-343.5" font-family="Helvetica,sans-Serif" font-size="10.00">CGLBoite.h</text>
</a>
</g>
</g>
<!-- Node18&#45;&gt;Node19 -->
<g id="edge20" class="edge"><title>Node18&#45;&gt;Node19</title>
<path fill="none" stroke="midnightblue" d="M223.972,-392.083C226.384,-384.849 229.864,-374.409 232.868,-365.397"/>
<polygon fill="midnightblue" stroke="midnightblue" points="236.241,-366.345 236.083,-355.751 229.6,-364.131 236.241,-366.345"/>
</g>
<!-- Node19&#45;&gt;Node17 -->
<g id="edge21" class="edge"><title>Node19&#45;&gt;Node17</title>
<path fill="none" stroke="midnightblue" d="M248.961,-336.324C258.127,-328.341 271.937,-316.313 283.028,-306.653"/>
<polygon fill="midnightblue" stroke="midnightblue" points="285.615,-309.041 290.857,-299.834 281.018,-303.762 285.615,-309.041"/>
</g>
<!-- Node21 -->
<g id="node21" class="node"><title>Node21</title>
<g id="a_node21"><a xlink:href="../../d7/d27/_c_g_l_effect_8h.xhtml" target="_top" xlink:title="CGLEffect.h">
<polygon fill="white" stroke="black" points="697.5,-336.5 697.5,-355.5 768.5,-355.5 768.5,-336.5 697.5,-336.5"/>
<text text-anchor="middle" x="733" y="-343.5" font-family="Helvetica,sans-Serif" font-size="10.00">CGLEffect.h</text>
</a>
</g>
</g>
<!-- Node20&#45;&gt;Node21 -->
<g id="edge23" class="edge"><title>Node20&#45;&gt;Node21</title>
<path fill="none" stroke="midnightblue" d="M552.909,-392.444C589.849,-383.122 649.054,-368.183 689.418,-357.997"/>
<polygon fill="midnightblue" stroke="midnightblue" points="690.41,-361.357 699.25,-355.516 688.697,-354.57 690.41,-361.357"/>
</g>
<!-- Node22 -->
<g id="node22" class="node"><title>Node22</title>
<g id="a_node22"><a xlink:href="../../dd/d83/_c_g_l_vector3_d_8h.xhtml" target="_top" xlink:title="CGLVector3D.h">
<polygon fill="white" stroke="black" points="546,-280.5 546,-299.5 632,-299.5 632,-280.5 546,-280.5"/>
<text text-anchor="middle" x="589" y="-287.5" font-family="Helvetica,sans-Serif" font-size="10.00">CGLVector3D.h</text>
</a>
</g>
</g>
<!-- Node20&#45;&gt;Node22 -->
<g id="edge25" class="edge"><title>Node20&#45;&gt;Node22</title>
<path fill="none" stroke="midnightblue" d="M524.493,-392.368C535.994,-374.296 562.797,-332.176 577.986,-308.307"/>
<polygon fill="midnightblue" stroke="midnightblue" points="581.117,-309.907 583.533,-299.591 575.211,-306.149 581.117,-309.907"/>
</g>
<!-- Node21&#45;&gt;Node8 -->
<g id="edge24" class="edge"><title>Node21&#45;&gt;Node8</title>
<path fill="none" stroke="midnightblue" d="M729.628,-336.313C722.804,-317.923 708,-273.581 708,-235 708,-235 708,-235 708,-177 708,-103.242 455.75,-77.4418 348.423,-69.8025"/>
<polygon fill="midnightblue" stroke="midnightblue" points="348.414,-66.2937 338.197,-69.0987 347.933,-73.2772 348.414,-66.2937"/>
</g>
<!-- Node23 -->
<g id="node23" class="node"><title>Node23</title>
<g id="a_node23"><a xlink:href="../../dc/dee/_c_g_l_vector2_d_8h.xhtml" target="_top" xlink:title="CGLVector2D.h">
<polygon fill="white" stroke="black" points="482,-224.5 482,-243.5 568,-243.5 568,-224.5 482,-224.5"/>
<text text-anchor="middle" x="525" y="-231.5" font-family="Helvetica,sans-Serif" font-size="10.00">CGLVector2D.h</text>
</a>
</g>
</g>
<!-- Node22&#45;&gt;Node23 -->
<g id="edge26" class="edge"><title>Node22&#45;&gt;Node23</title>
<path fill="none" stroke="midnightblue" d="M578.717,-280.324C569.164,-272.263 554.72,-260.077 543.216,-250.369"/>
<polygon fill="midnightblue" stroke="midnightblue" points="545.37,-247.608 535.47,-243.834 540.856,-252.958 545.37,-247.608"/>
</g>
<!-- Node24&#45;&gt;Node21 -->
<g id="edge28" class="edge"><title>Node24&#45;&gt;Node21</title>
<path fill="none" stroke="midnightblue" d="M650.745,-392.324C666.319,-383.743 690.377,-370.486 708.459,-360.522"/>
<polygon fill="midnightblue" stroke="midnightblue" points="710.224,-363.546 717.294,-355.655 706.846,-357.415 710.224,-363.546"/>
</g>
<!-- Node25 -->
<g id="node25" class="node"><title>Node25</title>
<g id="a_node25"><a xlink:href="../../df/dcb/_c_g_l_vector4_d_8h.xhtml" target="_top" xlink:title="CGLVector4D.h">
<polygon fill="white" stroke="black" points="593,-336.5 593,-355.5 679,-355.5 679,-336.5 593,-336.5"/>
<text text-anchor="middle" x="636" y="-343.5" font-family="Helvetica,sans-Serif" font-size="10.00">CGLVector4D.h</text>
</a>
</g>
</g>
<!-- Node24&#45;&gt;Node25 -->
<g id="edge29" class="edge"><title>Node24&#45;&gt;Node25</title>
<path fill="none" stroke="midnightblue" d="M635.165,-392.083C635.296,-385.006 635.484,-374.861 635.648,-365.986"/>
<polygon fill="midnightblue" stroke="midnightblue" points="639.152,-365.814 635.838,-355.751 632.153,-365.685 639.152,-365.814"/>
</g>
<!-- Node25&#45;&gt;Node22 -->
<g id="edge30" class="edge"><title>Node25&#45;&gt;Node22</title>
<path fill="none" stroke="midnightblue" d="M628.239,-336.083C621.463,-328.298 611.457,-316.801 603.245,-307.367"/>
<polygon fill="midnightblue" stroke="midnightblue" points="605.822,-304.996 596.617,-299.751 600.542,-309.592 605.822,-304.996"/>
</g>
<!-- Node26&#45;&gt;Node21 -->
<g id="edge32" class="edge"><title>Node26&#45;&gt;Node21</title>
<path fill="none" stroke="midnightblue" d="M743.853,-392.083C742.131,-384.927 739.653,-374.635 737.5,-365.691"/>
<polygon fill="midnightblue" stroke="midnightblue" points="740.85,-364.654 735.107,-355.751 734.045,-366.293 740.85,-364.654"/>
</g>
<!-- Node26&#45;&gt;Node22 -->
<g id="edge33" class="edge"><title>Node26&#45;&gt;Node22</title>
<path fill="none" stroke="midnightblue" d="M755.806,-392.324C769.479,-379.181 791.093,-353.865 777,-336 760.47,-315.047 691.918,-302.76 642.362,-296.459"/>
<polygon fill="midnightblue" stroke="midnightblue" points="642.764,-292.982 632.413,-295.241 641.913,-299.93 642.764,-292.982"/>
</g>
<!-- Node27&#45;&gt;Node21 -->
<g id="edge35" class="edge"><title>Node27&#45;&gt;Node21</title>
<path fill="none" stroke="midnightblue" d="M842.401,-392.444C821.007,-383.557 787.319,-369.563 762.976,-359.451"/>
<polygon fill="midnightblue" stroke="midnightblue" points="764.08,-356.12 753.503,-355.516 761.395,-362.585 764.08,-356.12"/>
</g>
<!-- Node27&#45;&gt;Node22 -->
<g id="edge36" class="edge"><title>Node27&#45;&gt;Node22</title>
<path fill="none" stroke="midnightblue" d="M856.416,-392.284C845.228,-378.13 821.069,-350.293 794,-336 746.272,-310.798 685.143,-299.695 642.101,-294.812"/>
<polygon fill="midnightblue" stroke="midnightblue" points="642.427,-291.327 632.114,-293.754 641.689,-298.288 642.427,-291.327"/>
</g>
<!-- Node28&#45;&gt;Node17 -->
<g id="edge38" class="edge"><title>Node28&#45;&gt;Node17</title>
<path fill="none" stroke="midnightblue" d="M328.646,-392.368C323.783,-374.537 312.535,-333.295 305.983,-309.272"/>
<polygon fill="midnightblue" stroke="midnightblue" points="309.351,-308.318 303.343,-299.591 302.598,-310.16 309.351,-308.318"/>
</g>
<!-- Node29&#45;&gt;Node17 -->
<g id="edge40" class="edge"><title>Node29&#45;&gt;Node17</title>
<path fill="none" stroke="midnightblue" d="M463.419,-336.444C430.385,-327.201 377.612,-312.436 341.234,-302.257"/>
<polygon fill="midnightblue" stroke="midnightblue" points="342.012,-298.84 331.438,-299.516 340.125,-305.582 342.012,-298.84"/>
</g>
<!-- Node29&#45;&gt;Node22 -->
<g id="edge41" class="edge"><title>Node29&#45;&gt;Node22</title>
<path fill="none" stroke="midnightblue" d="M509.263,-336.324C524.221,-327.822 547.255,-314.729 564.727,-304.797"/>
<polygon fill="midnightblue" stroke="midnightblue" points="566.81,-307.639 573.774,-299.655 563.351,-301.553 566.81,-307.639"/>
</g>
<!-- Node30&#45;&gt;Node17 -->
<g id="edge43" class="edge"><title>Node30&#45;&gt;Node17</title>
<path fill="none" stroke="midnightblue" d="M368.147,-336.324C355.784,-327.979 336.87,-315.212 322.263,-305.352"/>
<polygon fill="midnightblue" stroke="midnightblue" points="324.068,-302.348 313.821,-299.655 320.152,-308.15 324.068,-302.348"/>
</g>
<!-- Node30&#45;&gt;Node23 -->
<g id="edge44" class="edge"><title>Node30&#45;&gt;Node23</title>
<path fill="none" stroke="midnightblue" d="M392.299,-336.368C416.8,-317.653 475.057,-273.151 505.583,-249.832"/>
<polygon fill="midnightblue" stroke="midnightblue" points="507.931,-252.443 513.753,-243.591 503.682,-246.881 507.931,-252.443"/>
</g>
</g>
</svg>
