<?xml version="1.0" encoding="UTF-8" standalone="no"?>
<!DOCTYPE svg PUBLIC "-//W3C//DTD SVG 1.1//EN"
 "http://www.w3.org/Graphics/SVG/1.1/DTD/svg11.dtd">
<!-- Generated by graphviz version 2.36.0 (20140111.2315)
 -->
<!-- Title: /home/dagal/git/DGL/DamierGL/src/DamierGL.cpp Pages: 1 -->
<svg width="1538pt" height="488pt"
 viewBox="0.00 0.00 1538.00 488.00" xmlns="http://www.w3.org/2000/svg" xmlns:xlink="http://www.w3.org/1999/xlink">
<g id="graph0" class="graph" transform="scale(1 1) rotate(0) translate(4 484)">
<title>/home/dagal/git/DGL/DamierGL/src/DamierGL.cpp</title>
<polygon fill="white" stroke="none" points="-4,4 -4,-484 1534,-484 1534,4 -4,4"/>
<!-- Node1 -->
<g id="node1" class="node"><title>Node1</title>
<polygon fill="#bfbfbf" stroke="black" points="733,-449 733,-479 879,-479 879,-449 733,-449"/>
<text text-anchor="start" x="741" y="-467" font-family="Helvetica,sans-Serif" font-size="10.00">/home/dagal/git/DGL</text>
<text text-anchor="middle" x="806" y="-456" font-family="Helvetica,sans-Serif" font-size="10.00">/DamierGL/src/DamierGL.cpp</text>
</g>
<!-- Node2 -->
<g id="node2" class="node"><title>Node2</title>
<g id="a_node2"><a xlink:href="../../de/d42/_window_8h.xhtml" target="_top" xlink:title="CGL/Window.h">
<polygon fill="white" stroke="black" points="162.5,-392.5 162.5,-411.5 245.5,-411.5 245.5,-392.5 162.5,-392.5"/>
<text text-anchor="middle" x="204" y="-399.5" font-family="Helvetica,sans-Serif" font-size="10.00">CGL/Window.h</text>
</a>
</g>
</g>
<!-- Node1&#45;&gt;Node2 -->
<g id="edge1" class="edge"><title>Node1&#45;&gt;Node2</title>
<path fill="none" stroke="midnightblue" d="M732.698,-458.145C628.877,-450.84 432.877,-435.47 255.731,-411.989"/>
<polygon fill="midnightblue" stroke="midnightblue" points="256.081,-408.504 245.705,-410.648 255.153,-415.442 256.081,-408.504"/>
</g>
<!-- Node16 -->
<g id="node16" class="node"><title>Node16</title>
<polygon fill="white" stroke="#bfbfbf" points="264,-392.5 264,-411.5 356,-411.5 356,-392.5 264,-392.5"/>
<text text-anchor="middle" x="310" y="-399.5" font-family="Helvetica,sans-Serif" font-size="10.00">CGL/CGLQuad.h</text>
</g>
<!-- Node1&#45;&gt;Node16 -->
<g id="edge16" class="edge"><title>Node1&#45;&gt;Node16</title>
<path fill="none" stroke="midnightblue" d="M732.906,-455.611C647.457,-446.734 501.535,-430.831 366.32,-412.129"/>
<polygon fill="midnightblue" stroke="midnightblue" points="366.576,-408.631 356.19,-410.72 365.612,-415.565 366.576,-408.631"/>
</g>
<!-- Node17 -->
<g id="node17" class="node"><title>Node17</title>
<polygon fill="white" stroke="#bfbfbf" points="374,-392.5 374,-411.5 474,-411.5 474,-392.5 374,-392.5"/>
<text text-anchor="middle" x="424" y="-399.5" font-family="Helvetica,sans-Serif" font-size="10.00">CGL/CGLRobot1.h</text>
</g>
<!-- Node1&#45;&gt;Node17 -->
<g id="edge17" class="edge"><title>Node1&#45;&gt;Node17</title>
<path fill="none" stroke="midnightblue" d="M732.799,-451.502C660.574,-440.158 551.479,-423.023 484.153,-412.448"/>
<polygon fill="midnightblue" stroke="midnightblue" points="484.547,-408.967 474.125,-410.873 483.461,-415.882 484.547,-408.967"/>
</g>
<!-- Node18 -->
<g id="node18" class="node"><title>Node18</title>
<polygon fill="white" stroke="#bfbfbf" points="492,-392.5 492,-411.5 584,-411.5 584,-392.5 492,-392.5"/>
<text text-anchor="middle" x="538" y="-399.5" font-family="Helvetica,sans-Serif" font-size="10.00">CGL/CGLColor.h</text>
</g>
<!-- Node1&#45;&gt;Node18 -->
<g id="edge18" class="edge"><title>Node1&#45;&gt;Node18</title>
<path fill="none" stroke="midnightblue" d="M743.166,-448.933C695.083,-438.168 629.777,-423.547 585.875,-413.718"/>
<polygon fill="midnightblue" stroke="midnightblue" points="586.546,-410.282 576.023,-411.513 585.017,-417.113 586.546,-410.282"/>
</g>
<!-- Node19 -->
<g id="node19" class="node"><title>Node19</title>
<polygon fill="white" stroke="#bfbfbf" points="602.5,-392.5 602.5,-411.5 695.5,-411.5 695.5,-392.5 602.5,-392.5"/>
<text text-anchor="middle" x="649" y="-399.5" font-family="Helvetica,sans-Serif" font-size="10.00">CGL/CGLScale.h</text>
</g>
<!-- Node1&#45;&gt;Node19 -->
<g id="edge19" class="edge"><title>Node1&#45;&gt;Node19</title>
<path fill="none" stroke="midnightblue" d="M769.19,-448.933C742.466,-438.72 706.661,-425.036 681.097,-415.266"/>
<polygon fill="midnightblue" stroke="midnightblue" points="682.094,-411.901 671.503,-411.6 679.595,-418.439 682.094,-411.901"/>
</g>
<!-- Node20 -->
<g id="node20" class="node"><title>Node20</title>
<polygon fill="white" stroke="#bfbfbf" points="713,-392.5 713,-411.5 797,-411.5 797,-392.5 713,-392.5"/>
<text text-anchor="middle" x="755" y="-399.5" font-family="Helvetica,sans-Serif" font-size="10.00">CGL/CGLDot.h</text>
</g>
<!-- Node1&#45;&gt;Node20 -->
<g id="edge20" class="edge"><title>Node1&#45;&gt;Node20</title>
<path fill="none" stroke="midnightblue" d="M793.914,-448.781C786.426,-439.972 776.782,-428.626 768.968,-419.433"/>
<polygon fill="midnightblue" stroke="midnightblue" points="771.564,-417.083 762.421,-411.731 766.231,-421.617 771.564,-417.083"/>
</g>
<!-- Node21 -->
<g id="node21" class="node"><title>Node21</title>
<polygon fill="white" stroke="#bfbfbf" points="815,-392.5 815,-411.5 901,-411.5 901,-392.5 815,-392.5"/>
<text text-anchor="middle" x="858" y="-399.5" font-family="Helvetica,sans-Serif" font-size="10.00">CGL/CGLLine.h</text>
</g>
<!-- Node1&#45;&gt;Node21 -->
<g id="edge21" class="edge"><title>Node1&#45;&gt;Node21</title>
<path fill="none" stroke="midnightblue" d="M818.323,-448.781C825.957,-439.972 835.791,-428.626 843.758,-419.433"/>
<polygon fill="midnightblue" stroke="midnightblue" points="846.529,-421.58 850.434,-411.731 841.239,-416.995 846.529,-421.58"/>
</g>
<!-- Node22 -->
<g id="node22" class="node"><title>Node22</title>
<polygon fill="white" stroke="#bfbfbf" points="919.5,-392.5 919.5,-411.5 1022.5,-411.5 1022.5,-392.5 919.5,-392.5"/>
<text text-anchor="middle" x="971" y="-399.5" font-family="Helvetica,sans-Serif" font-size="10.00">CGL/CGLTriangle.h</text>
</g>
<!-- Node1&#45;&gt;Node22 -->
<g id="edge22" class="edge"><title>Node1&#45;&gt;Node22</title>
<path fill="none" stroke="midnightblue" d="M844.685,-448.933C872.895,-438.674 910.734,-424.915 937.623,-415.137"/>
<polygon fill="midnightblue" stroke="midnightblue" points="939.148,-418.307 947.35,-411.6 936.756,-411.728 939.148,-418.307"/>
</g>
<!-- Node23 -->
<g id="node23" class="node"><title>Node23</title>
<polygon fill="white" stroke="#bfbfbf" points="1041,-392.5 1041,-411.5 1145,-411.5 1145,-392.5 1041,-392.5"/>
<text text-anchor="middle" x="1093" y="-399.5" font-family="Helvetica,sans-Serif" font-size="10.00">CGL/CGLPolygon.h</text>
</g>
<!-- Node1&#45;&gt;Node23 -->
<g id="edge23" class="edge"><title>Node1&#45;&gt;Node23</title>
<path fill="none" stroke="midnightblue" d="M873.289,-448.933C924.998,-438.122 995.305,-423.424 1042.32,-413.594"/>
<polygon fill="midnightblue" stroke="midnightblue" points="1043.21,-416.985 1052.28,-411.513 1041.78,-410.133 1043.21,-416.985"/>
</g>
<!-- Node24 -->
<g id="node24" class="node"><title>Node24</title>
<polygon fill="white" stroke="#bfbfbf" points="1163,-392.5 1163,-411.5 1257,-411.5 1257,-392.5 1163,-392.5"/>
<text text-anchor="middle" x="1210" y="-399.5" font-family="Helvetica,sans-Serif" font-size="10.00">CGL/CGLCircle.h</text>
</g>
<!-- Node1&#45;&gt;Node24 -->
<g id="edge24" class="edge"><title>Node1&#45;&gt;Node24</title>
<path fill="none" stroke="midnightblue" d="M879.03,-452.597C947.206,-442.817 1052.07,-427.6 1152.9,-412.153"/>
<polygon fill="midnightblue" stroke="midnightblue" points="1153.6,-415.586 1162.95,-410.609 1152.54,-408.667 1153.6,-415.586"/>
</g>
<!-- Node25 -->
<g id="node25" class="node"><title>Node25</title>
<polygon fill="white" stroke="#bfbfbf" points="1275,-392.5 1275,-411.5 1379,-411.5 1379,-392.5 1275,-392.5"/>
<text text-anchor="middle" x="1327" y="-399.5" font-family="Helvetica,sans-Serif" font-size="10.00">CGL/CGLPosition.h</text>
</g>
<!-- Node1&#45;&gt;Node25 -->
<g id="edge25" class="edge"><title>Node1&#45;&gt;Node25</title>
<path fill="none" stroke="midnightblue" d="M879.393,-455.687C968.136,-446.66 1122.3,-430.386 1264.55,-412.148"/>
<polygon fill="midnightblue" stroke="midnightblue" points="1265.3,-415.581 1274.77,-410.832 1264.41,-408.638 1265.3,-415.581"/>
</g>
<!-- Node26 -->
<g id="node26" class="node"><title>Node26</title>
<polygon fill="white" stroke="#bfbfbf" points="1397.5,-392.5 1397.5,-411.5 1530.5,-411.5 1530.5,-392.5 1397.5,-392.5"/>
<text text-anchor="middle" x="1464" y="-399.5" font-family="Helvetica,sans-Serif" font-size="10.00">CGL/CGLRotationSpeed.h</text>
</g>
<!-- Node1&#45;&gt;Node26 -->
<g id="edge26" class="edge"><title>Node1&#45;&gt;Node26</title>
<path fill="none" stroke="midnightblue" d="M879.11,-457.312C987.524,-448.719 1197.58,-431.457 1387.13,-412.06"/>
<polygon fill="midnightblue" stroke="midnightblue" points="1387.69,-415.521 1397.28,-411.017 1386.98,-408.557 1387.69,-415.521"/>
</g>
<!-- Node3 -->
<g id="node3" class="node"><title>Node3</title>
<g id="a_node3"><a xlink:href="../../d8/d86/_world_8h.xhtml" target="_top" xlink:title="World.h">
<polygon fill="white" stroke="black" points="179,-336.5 179,-355.5 229,-355.5 229,-336.5 179,-336.5"/>
<text text-anchor="middle" x="204" y="-343.5" font-family="Helvetica,sans-Serif" font-size="10.00">World.h</text>
</a>
</g>
</g>
<!-- Node2&#45;&gt;Node3 -->
<g id="edge2" class="edge"><title>Node2&#45;&gt;Node3</title>
<path fill="none" stroke="midnightblue" d="M204,-392.083C204,-385.006 204,-374.861 204,-365.986"/>
<polygon fill="midnightblue" stroke="midnightblue" points="207.5,-365.751 204,-355.751 200.5,-365.751 207.5,-365.751"/>
</g>
<!-- Node4 -->
<g id="node4" class="node"><title>Node4</title>
<g id="a_node4"><a xlink:href="../../de/d56/_scene_8h.xhtml" target="_top" xlink:title="Scene.h">
<polygon fill="white" stroke="black" points="177.5,-280.5 177.5,-299.5 230.5,-299.5 230.5,-280.5 177.5,-280.5"/>
<text text-anchor="middle" x="204" y="-287.5" font-family="Helvetica,sans-Serif" font-size="10.00">Scene.h</text>
</a>
</g>
</g>
<!-- Node3&#45;&gt;Node4 -->
<g id="edge3" class="edge"><title>Node3&#45;&gt;Node4</title>
<path fill="none" stroke="midnightblue" d="M204,-336.083C204,-329.006 204,-318.861 204,-309.986"/>
<polygon fill="midnightblue" stroke="midnightblue" points="207.5,-309.751 204,-299.751 200.5,-309.751 207.5,-309.751"/>
</g>
<!-- Node5 -->
<g id="node5" class="node"><title>Node5</title>
<g id="a_node5"><a xlink:href="../../db/da6/_camera_list_8h.xhtml" target="_top" xlink:title="CameraList.h">
<polygon fill="white" stroke="black" points="132.5,-224.5 132.5,-243.5 207.5,-243.5 207.5,-224.5 132.5,-224.5"/>
<text text-anchor="middle" x="170" y="-231.5" font-family="Helvetica,sans-Serif" font-size="10.00">CameraList.h</text>
</a>
</g>
</g>
<!-- Node4&#45;&gt;Node5 -->
<g id="edge4" class="edge"><title>Node4&#45;&gt;Node5</title>
<path fill="none" stroke="midnightblue" d="M198.386,-280.083C193.633,-272.534 186.682,-261.495 180.848,-252.23"/>
<polygon fill="midnightblue" stroke="midnightblue" points="183.8,-250.349 175.51,-243.751 177.876,-254.078 183.8,-250.349"/>
</g>
<!-- Node15 -->
<g id="node15" class="node"><title>Node15</title>
<g id="a_node15"><a xlink:href="../../d2/d46/_light_8h.xhtml" target="_top" xlink:title="Light.h">
<polygon fill="white" stroke="black" points="217,-168.5 217,-187.5 263,-187.5 263,-168.5 217,-168.5"/>
<text text-anchor="middle" x="240" y="-175.5" font-family="Helvetica,sans-Serif" font-size="10.00">Light.h</text>
</a>
</g>
</g>
<!-- Node4&#45;&gt;Node15 -->
<g id="edge14" class="edge"><title>Node4&#45;&gt;Node15</title>
<path fill="none" stroke="midnightblue" d="M206.825,-280.368C212.661,-262.537 226.158,-221.295 234.02,-197.272"/>
<polygon fill="midnightblue" stroke="midnightblue" points="237.404,-198.184 237.188,-187.591 230.751,-196.007 237.404,-198.184"/>
</g>
<!-- Node6 -->
<g id="node6" class="node"><title>Node6</title>
<g id="a_node6"><a xlink:href="../../d5/d91/_camera_8h.xhtml" target="_top" xlink:title="Camera.h">
<polygon fill="white" stroke="black" points="139.5,-168.5 139.5,-187.5 198.5,-187.5 198.5,-168.5 139.5,-168.5"/>
<text text-anchor="middle" x="169" y="-175.5" font-family="Helvetica,sans-Serif" font-size="10.00">Camera.h</text>
</a>
</g>
</g>
<!-- Node5&#45;&gt;Node6 -->
<g id="edge5" class="edge"><title>Node5&#45;&gt;Node6</title>
<path fill="none" stroke="midnightblue" d="M169.835,-224.083C169.704,-217.006 169.516,-206.861 169.352,-197.986"/>
<polygon fill="midnightblue" stroke="midnightblue" points="172.847,-197.685 169.162,-187.751 165.848,-197.814 172.847,-197.685"/>
</g>
<!-- Node7 -->
<g id="node7" class="node"><title>Node7</title>
<g id="a_node7"><a xlink:href="../../dd/da2/_special_8h.xhtml" target="_top" xlink:title="Special.h">
<polygon fill="white" stroke="black" points="175.5,-112.5 175.5,-131.5 232.5,-131.5 232.5,-112.5 175.5,-112.5"/>
<text text-anchor="middle" x="204" y="-119.5" font-family="Helvetica,sans-Serif" font-size="10.00">Special.h</text>
</a>
</g>
</g>
<!-- Node6&#45;&gt;Node7 -->
<g id="edge6" class="edge"><title>Node6&#45;&gt;Node7</title>
<path fill="none" stroke="midnightblue" d="M174.78,-168.083C179.672,-160.534 186.827,-149.495 192.833,-140.23"/>
<polygon fill="midnightblue" stroke="midnightblue" points="195.826,-142.046 198.328,-131.751 189.952,-138.239 195.826,-142.046"/>
</g>
<!-- Node8 -->
<g id="node8" class="node"><title>Node8</title>
<g id="a_node8"><a xlink:href="../../df/d30/_object_8h.xhtml" target="_top" xlink:title="Object.h">
<polygon fill="white" stroke="black" points="177.5,-56.5 177.5,-75.5 230.5,-75.5 230.5,-56.5 177.5,-56.5"/>
<text text-anchor="middle" x="204" y="-63.5" font-family="Helvetica,sans-Serif" font-size="10.00">Object.h</text>
</a>
</g>
</g>
<!-- Node7&#45;&gt;Node8 -->
<g id="edge7" class="edge"><title>Node7&#45;&gt;Node8</title>
<path fill="none" stroke="midnightblue" d="M204,-112.083C204,-105.006 204,-94.8611 204,-85.9865"/>
<polygon fill="midnightblue" stroke="midnightblue" points="207.5,-85.751 204,-75.7511 200.5,-85.7511 207.5,-85.751"/>
</g>
<!-- Node9 -->
<g id="node9" class="node"><title>Node9</title>
<polygon fill="white" stroke="#bfbfbf" points="0,-0.5 0,-19.5 54,-19.5 54,-0.5 0,-0.5"/>
<text text-anchor="middle" x="27" y="-7.5" font-family="Helvetica,sans-Serif" font-size="10.00">iostream</text>
</g>
<!-- Node8&#45;&gt;Node9 -->
<g id="edge8" class="edge"><title>Node8&#45;&gt;Node9</title>
<path fill="none" stroke="midnightblue" d="M177.118,-56.7986C146.968,-47.6005 97.879,-32.6241 64.0919,-22.3162"/>
<polygon fill="midnightblue" stroke="midnightblue" points="64.7216,-18.8491 54.1355,-19.2786 62.6789,-25.5444 64.7216,-18.8491"/>
</g>
<!-- Node10 -->
<g id="node10" class="node"><title>Node10</title>
<polygon fill="white" stroke="#bfbfbf" points="72,-0.5 72,-19.5 120,-19.5 120,-0.5 72,-0.5"/>
<text text-anchor="middle" x="96" y="-7.5" font-family="Helvetica,sans-Serif" font-size="10.00">GL/gl.h</text>
</g>
<!-- Node8&#45;&gt;Node10 -->
<g id="edge9" class="edge"><title>Node8&#45;&gt;Node10</title>
<path fill="none" stroke="midnightblue" d="M186.648,-56.324C169.328,-47.6641 142.485,-34.2424 122.498,-24.249"/>
<polygon fill="midnightblue" stroke="midnightblue" points="123.819,-20.9962 113.309,-19.6545 120.688,-27.2572 123.819,-20.9962"/>
</g>
<!-- Node11 -->
<g id="node11" class="node"><title>Node11</title>
<polygon fill="white" stroke="#bfbfbf" points="138.5,-0.5 138.5,-19.5 191.5,-19.5 191.5,-0.5 138.5,-0.5"/>
<text text-anchor="middle" x="165" y="-7.5" font-family="Helvetica,sans-Serif" font-size="10.00">GL/glu.h</text>
</g>
<!-- Node8&#45;&gt;Node11 -->
<g id="edge10" class="edge"><title>Node8&#45;&gt;Node11</title>
<path fill="none" stroke="midnightblue" d="M197.56,-56.083C192.051,-48.4554 183.969,-37.2645 177.235,-27.9408"/>
<polygon fill="midnightblue" stroke="midnightblue" points="180.013,-25.8087 171.32,-19.7511 174.338,-29.9071 180.013,-25.8087"/>
</g>
<!-- Node12 -->
<g id="node12" class="node"><title>Node12</title>
<polygon fill="white" stroke="#bfbfbf" points="209.5,-0.5 209.5,-19.5 276.5,-19.5 276.5,-0.5 209.5,-0.5"/>
<text text-anchor="middle" x="243" y="-7.5" font-family="Helvetica,sans-Serif" font-size="10.00">SDL/SDL.h</text>
</g>
<!-- Node8&#45;&gt;Node12 -->
<g id="edge11" class="edge"><title>Node8&#45;&gt;Node12</title>
<path fill="none" stroke="midnightblue" d="M210.44,-56.083C215.949,-48.4554 224.031,-37.2645 230.765,-27.9408"/>
<polygon fill="midnightblue" stroke="midnightblue" points="233.662,-29.9071 236.68,-19.7511 227.987,-25.8087 233.662,-29.9071"/>
</g>
<!-- Node13 -->
<g id="node13" class="node"><title>Node13</title>
<polygon fill="white" stroke="#bfbfbf" points="294.5,-0.5 294.5,-19.5 335.5,-19.5 335.5,-0.5 294.5,-0.5"/>
<text text-anchor="middle" x="315" y="-7.5" font-family="Helvetica,sans-Serif" font-size="10.00">string</text>
</g>
<!-- Node8&#45;&gt;Node13 -->
<g id="edge12" class="edge"><title>Node8&#45;&gt;Node13</title>
<path fill="none" stroke="midnightblue" d="M221.834,-56.324C239.716,-47.6247 267.475,-34.1202 288.046,-24.113"/>
<polygon fill="midnightblue" stroke="midnightblue" points="289.749,-27.1765 297.21,-19.6545 286.687,-20.8819 289.749,-27.1765"/>
</g>
<!-- Node14 -->
<g id="node14" class="node"><title>Node14</title>
<polygon fill="white" stroke="#bfbfbf" points="353.5,-0.5 353.5,-19.5 382.5,-19.5 382.5,-0.5 353.5,-0.5"/>
<text text-anchor="middle" x="368" y="-7.5" font-family="Helvetica,sans-Serif" font-size="10.00">list</text>
</g>
<!-- Node8&#45;&gt;Node14 -->
<g id="edge13" class="edge"><title>Node8&#45;&gt;Node14</title>
<path fill="none" stroke="midnightblue" d="M230.704,-56.833C257.092,-48.6722 298.806,-35.5298 343.695,-19.9853"/>
<polygon fill="midnightblue" stroke="midnightblue" points="345.025,-23.228 353.317,-16.6327 342.722,-16.6178 345.025,-23.228"/>
</g>
<!-- Node15&#45;&gt;Node7 -->
<g id="edge15" class="edge"><title>Node15&#45;&gt;Node7</title>
<path fill="none" stroke="midnightblue" d="M234.055,-168.083C229.023,-160.534 221.663,-149.495 215.487,-140.23"/>
<polygon fill="midnightblue" stroke="midnightblue" points="218.293,-138.13 209.834,-131.751 212.469,-142.013 218.293,-138.13"/>
</g>
</g>
</svg>
