<?xml version="1.0" encoding="UTF-8" standalone="no"?>
<!DOCTYPE svg PUBLIC "-//W3C//DTD SVG 1.1//EN"
 "http://www.w3.org/Graphics/SVG/1.1/DTD/svg11.dtd">
<!-- Generated by graphviz version 2.36.0 (20140111.2315)
 -->
<!-- Title: /home/dagal/git/DamierGL/DamierGL/src/DamierGL.cpp Pages: 1 -->
<svg width="1226pt" height="488pt"
 viewBox="0.00 0.00 1226.00 488.00" xmlns="http://www.w3.org/2000/svg" xmlns:xlink="http://www.w3.org/1999/xlink">
<g id="graph0" class="graph" transform="scale(1 1) rotate(0) translate(4 484)">
<title>/home/dagal/git/DamierGL/DamierGL/src/DamierGL.cpp</title>
<polygon fill="white" stroke="none" points="-4,4 -4,-484 1222,-484 1222,4 -4,4"/>
<!-- Node1 -->
<g id="node1" class="node"><title>Node1</title>
<polygon fill="#bfbfbf" stroke="black" points="447,-449 447,-479 593,-479 593,-449 447,-449"/>
<text text-anchor="start" x="455" y="-467" font-family="Helvetica,sans-Serif" font-size="10.00">/home/dagal/git/DamierGL</text>
<text text-anchor="middle" x="520" y="-456" font-family="Helvetica,sans-Serif" font-size="10.00">/DamierGL/src/DamierGL.cpp</text>
</g>
<!-- Node2 -->
<g id="node2" class="node"><title>Node2</title>
<g id="a_node2"><a xlink:href="../../de/d96/_c_g_l_window_8h.xhtml" target="_top" xlink:title="CGL/CGLWindow.h">
<polygon fill="white" stroke="black" points="0,-392.5 0,-411.5 104,-411.5 104,-392.5 0,-392.5"/>
<text text-anchor="middle" x="52" y="-399.5" font-family="Helvetica,sans-Serif" font-size="10.00">CGL/CGLWindow.h</text>
</a>
</g>
</g>
<!-- Node1&#45;&gt;Node2 -->
<g id="edge1" class="edge"><title>Node1&#45;&gt;Node2</title>
<path fill="none" stroke="midnightblue" d="M446.875,-453.625C355.471,-441.907 200.594,-422.05 114.476,-411.01"/>
<polygon fill="midnightblue" stroke="midnightblue" points="114.687,-407.508 104.323,-409.708 113.797,-414.451 114.687,-407.508"/>
</g>
<!-- Node16 -->
<g id="node16" class="node"><title>Node16</title>
<g id="a_node16"><a xlink:href="../../d2/d91/_c_g_l_quad_8h.xhtml" target="_top" xlink:title="CGL/CGLQuad.h">
<polygon fill="white" stroke="black" points="90,-336.5 90,-355.5 182,-355.5 182,-336.5 90,-336.5"/>
<text text-anchor="middle" x="136" y="-343.5" font-family="Helvetica,sans-Serif" font-size="10.00">CGL/CGLQuad.h</text>
</a>
</g>
</g>
<!-- Node1&#45;&gt;Node16 -->
<g id="edge16" class="edge"><title>Node1&#45;&gt;Node16</title>
<path fill="none" stroke="midnightblue" d="M446.613,-460.298C356.766,-455.657 211.203,-443.408 168,-412 152.773,-400.93 144.413,-380.586 140.095,-365.596"/>
<polygon fill="midnightblue" stroke="midnightblue" points="143.471,-364.672 137.625,-355.836 136.685,-366.389 143.471,-364.672"/>
</g>
<!-- Node20 -->
<g id="node20" class="node"><title>Node20</title>
<g id="a_node20"><a xlink:href="../../d7/df3/_c_g_l_robot1_8h.xhtml" target="_top" xlink:title="CGL/CGLRobot1.h">
<polygon fill="white" stroke="black" points="288,-392.5 288,-411.5 388,-411.5 388,-392.5 288,-392.5"/>
<text text-anchor="middle" x="338" y="-399.5" font-family="Helvetica,sans-Serif" font-size="10.00">CGL/CGLRobot1.h</text>
</a>
</g>
</g>
<!-- Node1&#45;&gt;Node20 -->
<g id="edge21" class="edge"><title>Node1&#45;&gt;Node20</title>
<path fill="none" stroke="midnightblue" d="M477.329,-448.933C445.707,-438.508 403.116,-424.467 373.379,-414.663"/>
<polygon fill="midnightblue" stroke="midnightblue" points="374.415,-411.32 363.822,-411.513 372.223,-417.968 374.415,-411.32"/>
</g>
<!-- Node22 -->
<g id="node22" class="node"><title>Node22</title>
<g id="a_node22"><a xlink:href="../../da/de7/_c_g_l_color_8h.xhtml" target="_top" xlink:title="CGL/CGLColor.h">
<polygon fill="white" stroke="black" points="781,-392.5 781,-411.5 873,-411.5 873,-392.5 781,-392.5"/>
<text text-anchor="middle" x="827" y="-399.5" font-family="Helvetica,sans-Serif" font-size="10.00">CGL/CGLColor.h</text>
</a>
</g>
</g>
<!-- Node1&#45;&gt;Node22 -->
<g id="edge24" class="edge"><title>Node1&#45;&gt;Node22</title>
<path fill="none" stroke="midnightblue" d="M591.978,-448.933C647.522,-438.077 723.128,-423.301 773.424,-413.471"/>
<polygon fill="midnightblue" stroke="midnightblue" points="774.3,-416.866 783.443,-411.513 772.958,-409.996 774.3,-416.866"/>
</g>
<!-- Node26 -->
<g id="node26" class="node"><title>Node26</title>
<g id="a_node26"><a xlink:href="../../d2/d1b/_c_g_l_scale_8h.xhtml" target="_top" xlink:title="CGL/CGLScale.h">
<polygon fill="white" stroke="black" points="1024.5,-336.5 1024.5,-355.5 1117.5,-355.5 1117.5,-336.5 1024.5,-336.5"/>
<text text-anchor="middle" x="1071" y="-343.5" font-family="Helvetica,sans-Serif" font-size="10.00">CGL/CGLScale.h</text>
</a>
</g>
</g>
<!-- Node1&#45;&gt;Node26 -->
<g id="edge30" class="edge"><title>Node1&#45;&gt;Node26</title>
<path fill="none" stroke="midnightblue" d="M593.227,-456.83C666.901,-449.656 783.411,-435.667 882,-412 939.364,-398.229 1003.89,-374.081 1040.77,-359.412"/>
<polygon fill="midnightblue" stroke="midnightblue" points="1042.43,-362.516 1050.41,-355.543 1039.83,-356.02 1042.43,-362.516"/>
</g>
<!-- Node27 -->
<g id="node27" class="node"><title>Node27</title>
<g id="a_node27"><a xlink:href="../../d5/d21/_c_g_l_dot_8h.xhtml" target="_top" xlink:title="CGL/CGLDot.h">
<polygon fill="white" stroke="black" points="177,-392.5 177,-411.5 261,-411.5 261,-392.5 177,-392.5"/>
<text text-anchor="middle" x="219" y="-399.5" font-family="Helvetica,sans-Serif" font-size="10.00">CGL/CGLDot.h</text>
</a>
</g>
</g>
<!-- Node1&#45;&gt;Node27 -->
<g id="edge33" class="edge"><title>Node1&#45;&gt;Node27</title>
<path fill="none" stroke="midnightblue" d="M449.429,-448.933C394.808,-438.045 320.399,-423.212 271.088,-413.383"/>
<polygon fill="midnightblue" stroke="midnightblue" points="271.76,-409.948 261.269,-411.426 270.392,-416.813 271.76,-409.948"/>
</g>
<!-- Node28 -->
<g id="node28" class="node"><title>Node28</title>
<g id="a_node28"><a xlink:href="../../df/d4a/_c_g_l_line_8h.xhtml" target="_top" xlink:title="CGL/CGLLine.h">
<polygon fill="white" stroke="black" points="680,-336.5 680,-355.5 766,-355.5 766,-336.5 680,-336.5"/>
<text text-anchor="middle" x="723" y="-343.5" font-family="Helvetica,sans-Serif" font-size="10.00">CGL/CGLLine.h</text>
</a>
</g>
</g>
<!-- Node1&#45;&gt;Node28 -->
<g id="edge35" class="edge"><title>Node1&#45;&gt;Node28</title>
<path fill="none" stroke="midnightblue" d="M536.915,-448.947C555.851,-433.654 587.846,-409.102 618,-392 640.935,-378.992 668.366,-367.359 689.439,-359.18"/>
<polygon fill="midnightblue" stroke="midnightblue" points="690.831,-362.395 698.929,-355.563 688.338,-355.854 690.831,-362.395"/>
</g>
<!-- Node29 -->
<g id="node29" class="node"><title>Node29</title>
<g id="a_node29"><a xlink:href="../../d8/d51/_c_g_l_triangle_8h.xhtml" target="_top" xlink:title="CGL/CGLTriangle.h">
<polygon fill="white" stroke="black" points="324.5,-336.5 324.5,-355.5 427.5,-355.5 427.5,-336.5 324.5,-336.5"/>
<text text-anchor="middle" x="376" y="-343.5" font-family="Helvetica,sans-Serif" font-size="10.00">CGL/CGLTriangle.h</text>
</a>
</g>
</g>
<!-- Node1&#45;&gt;Node29 -->
<g id="edge38" class="edge"><title>Node1&#45;&gt;Node29</title>
<path fill="none" stroke="midnightblue" d="M502.343,-448.776C474.982,-426.736 422.591,-384.532 394.643,-362.018"/>
<polygon fill="midnightblue" stroke="midnightblue" points="396.792,-359.255 386.809,-355.707 392.401,-364.706 396.792,-359.255"/>
</g>
<!-- Node30 -->
<g id="node30" class="node"><title>Node30</title>
<g id="a_node30"><a xlink:href="../../d3/dbc/_c_g_l_polygon_8h.xhtml" target="_top" xlink:title="CGL/CGLPolygon.h">
<polygon fill="white" stroke="black" points="446,-336.5 446,-355.5 550,-355.5 550,-336.5 446,-336.5"/>
<text text-anchor="middle" x="498" y="-343.5" font-family="Helvetica,sans-Serif" font-size="10.00">CGL/CGLPolygon.h</text>
</a>
</g>
</g>
<!-- Node1&#45;&gt;Node30 -->
<g id="edge41" class="edge"><title>Node1&#45;&gt;Node30</title>
<path fill="none" stroke="midnightblue" d="M517.302,-448.776C513.338,-427.876 505.936,-388.844 501.54,-365.664"/>
<polygon fill="midnightblue" stroke="midnightblue" points="504.953,-364.88 499.651,-355.707 498.076,-366.184 504.953,-364.88"/>
</g>
<!-- Node31 -->
<g id="node31" class="node"><title>Node31</title>
<g id="a_node31"><a xlink:href="../../d7/d91/_c_g_l_circle_8h.xhtml" target="_top" xlink:title="CGL/CGLCircle.h">
<polygon fill="white" stroke="black" points="568,-336.5 568,-355.5 662,-355.5 662,-336.5 568,-336.5"/>
<text text-anchor="middle" x="615" y="-343.5" font-family="Helvetica,sans-Serif" font-size="10.00">CGL/CGLCircle.h</text>
</a>
</g>
</g>
<!-- Node1&#45;&gt;Node31 -->
<g id="edge44" class="edge"><title>Node1&#45;&gt;Node31</title>
<path fill="none" stroke="midnightblue" d="M531.541,-448.845C543.237,-434.507 561.858,-411.697 578,-392 585.79,-382.495 594.52,-371.876 601.543,-363.342"/>
<polygon fill="midnightblue" stroke="midnightblue" points="604.245,-365.565 607.899,-355.62 598.841,-361.116 604.245,-365.565"/>
</g>
<!-- Node32 -->
<g id="node32" class="node"><title>Node32</title>
<g id="a_node32"><a xlink:href="../../d0/d52/_c_g_l_position_speed_8h.xhtml" target="_top" xlink:title="CGL/CGLPositionSpeed.h">
<polygon fill="white" stroke="black" points="627.5,-392.5 627.5,-411.5 758.5,-411.5 758.5,-392.5 627.5,-392.5"/>
<text text-anchor="middle" x="693" y="-399.5" font-family="Helvetica,sans-Serif" font-size="10.00">CGL/CGLPositionSpeed.h</text>
</a>
</g>
</g>
<!-- Node1&#45;&gt;Node32 -->
<g id="edge47" class="edge"><title>Node1&#45;&gt;Node32</title>
<path fill="none" stroke="midnightblue" d="M560.561,-448.933C590.489,-438.553 630.752,-424.589 659.001,-414.792"/>
<polygon fill="midnightblue" stroke="midnightblue" points="660.154,-418.096 668.455,-411.513 657.86,-411.483 660.154,-418.096"/>
</g>
<!-- Node34 -->
<g id="node34" class="node"><title>Node34</title>
<g id="a_node34"><a xlink:href="../../d4/ddd/_c_g_l_rotation_speed_8h.xhtml" target="_top" xlink:title="CGL/CGLRotationSpeed.h">
<polygon fill="white" stroke="black" points="1062.5,-392.5 1062.5,-411.5 1195.5,-411.5 1195.5,-392.5 1062.5,-392.5"/>
<text text-anchor="middle" x="1129" y="-399.5" font-family="Helvetica,sans-Serif" font-size="10.00">CGL/CGLRotationSpeed.h</text>
</a>
</g>
</g>
<!-- Node1&#45;&gt;Node34 -->
<g id="edge51" class="edge"><title>Node1&#45;&gt;Node34</title>
<path fill="none" stroke="midnightblue" d="M593.157,-455.792C709.083,-444.371 933.933,-422.218 1052.14,-410.573"/>
<polygon fill="midnightblue" stroke="midnightblue" points="1052.58,-414.046 1062.19,-409.582 1051.9,-407.079 1052.58,-414.046"/>
</g>
<!-- Node3 -->
<g id="node3" class="node"><title>Node3</title>
<g id="a_node3"><a xlink:href="../../d6/d37/_c_g_l_world_8h.xhtml" target="_top" xlink:title="CGLWorld.h">
<polygon fill="white" stroke="black" points="0.5,-336.5 0.5,-355.5 71.5,-355.5 71.5,-336.5 0.5,-336.5"/>
<text text-anchor="middle" x="36" y="-343.5" font-family="Helvetica,sans-Serif" font-size="10.00">CGLWorld.h</text>
</a>
</g>
</g>
<!-- Node2&#45;&gt;Node3 -->
<g id="edge2" class="edge"><title>Node2&#45;&gt;Node3</title>
<path fill="none" stroke="midnightblue" d="M49.3579,-392.083C47.2144,-384.849 44.1211,-374.409 41.4509,-365.397"/>
<polygon fill="midnightblue" stroke="midnightblue" points="44.7897,-364.345 38.5929,-355.751 38.0781,-366.333 44.7897,-364.345"/>
</g>
<!-- Node4 -->
<g id="node4" class="node"><title>Node4</title>
<g id="a_node4"><a xlink:href="../../d0/dc9/_c_g_l_scene_8h.xhtml" target="_top" xlink:title="CGLScene.h">
<polygon fill="white" stroke="black" points="175.5,-280.5 175.5,-299.5 248.5,-299.5 248.5,-280.5 175.5,-280.5"/>
<text text-anchor="middle" x="212" y="-287.5" font-family="Helvetica,sans-Serif" font-size="10.00">CGLScene.h</text>
</a>
</g>
</g>
<!-- Node3&#45;&gt;Node4 -->
<g id="edge3" class="edge"><title>Node3&#45;&gt;Node4</title>
<path fill="none" stroke="midnightblue" d="M63.8877,-336.444C93.7537,-327.28 141.315,-312.688 174.456,-302.519"/>
<polygon fill="midnightblue" stroke="midnightblue" points="175.709,-305.796 184.243,-299.516 173.656,-299.104 175.709,-305.796"/>
</g>
<!-- Node5 -->
<g id="node5" class="node"><title>Node5</title>
<g id="a_node5"><a xlink:href="../../d5/d86/_c_g_l_camera_list_8h.xhtml" target="_top" xlink:title="CGLCameraList.h">
<polygon fill="white" stroke="black" points="249.5,-224.5 249.5,-243.5 344.5,-243.5 344.5,-224.5 249.5,-224.5"/>
<text text-anchor="middle" x="297" y="-231.5" font-family="Helvetica,sans-Serif" font-size="10.00">CGLCameraList.h</text>
</a>
</g>
</g>
<!-- Node4&#45;&gt;Node5 -->
<g id="edge4" class="edge"><title>Node4&#45;&gt;Node5</title>
<path fill="none" stroke="midnightblue" d="M225.657,-280.324C238.916,-271.9 259.268,-258.971 274.846,-249.074"/>
<polygon fill="midnightblue" stroke="midnightblue" points="276.813,-251.971 283.377,-243.655 273.06,-246.063 276.813,-251.971"/>
</g>
<!-- Node15 -->
<g id="node15" class="node"><title>Node15</title>
<g id="a_node15"><a xlink:href="../../da/d23/_c_g_l_light_8h.xhtml" target="_top" xlink:title="CGLLight.h">
<polygon fill="white" stroke="black" points="179,-168.5 179,-187.5 245,-187.5 245,-168.5 179,-168.5"/>
<text text-anchor="middle" x="212" y="-175.5" font-family="Helvetica,sans-Serif" font-size="10.00">CGLLight.h</text>
</a>
</g>
</g>
<!-- Node4&#45;&gt;Node15 -->
<g id="edge14" class="edge"><title>Node4&#45;&gt;Node15</title>
<path fill="none" stroke="midnightblue" d="M212,-280.368C212,-262.617 212,-221.666 212,-197.597"/>
<polygon fill="midnightblue" stroke="midnightblue" points="215.5,-197.591 212,-187.591 208.5,-197.591 215.5,-197.591"/>
</g>
<!-- Node6 -->
<g id="node6" class="node"><title>Node6</title>
<g id="a_node6"><a xlink:href="../../df/d5b/_c_g_l_camera_8h.xhtml" target="_top" xlink:title="CGLCamera.h">
<polygon fill="white" stroke="black" points="263,-168.5 263,-187.5 343,-187.5 343,-168.5 263,-168.5"/>
<text text-anchor="middle" x="303" y="-175.5" font-family="Helvetica,sans-Serif" font-size="10.00">CGLCamera.h</text>
</a>
</g>
</g>
<!-- Node5&#45;&gt;Node6 -->
<g id="edge5" class="edge"><title>Node5&#45;&gt;Node6</title>
<path fill="none" stroke="midnightblue" d="M297.991,-224.083C298.786,-216.927 299.929,-206.635 300.923,-197.691"/>
<polygon fill="midnightblue" stroke="midnightblue" points="304.402,-198.076 302.028,-187.751 297.445,-197.303 304.402,-198.076"/>
</g>
<!-- Node7 -->
<g id="node7" class="node"><title>Node7</title>
<g id="a_node7"><a xlink:href="../../dc/db8/_c_g_l_special_8h.xhtml" target="_top" xlink:title="CGLSpecial.h">
<polygon fill="white" stroke="black" points="264.5,-112.5 264.5,-131.5 341.5,-131.5 341.5,-112.5 264.5,-112.5"/>
<text text-anchor="middle" x="303" y="-119.5" font-family="Helvetica,sans-Serif" font-size="10.00">CGLSpecial.h</text>
</a>
</g>
</g>
<!-- Node6&#45;&gt;Node7 -->
<g id="edge6" class="edge"><title>Node6&#45;&gt;Node7</title>
<path fill="none" stroke="midnightblue" d="M303,-168.083C303,-161.006 303,-150.861 303,-141.986"/>
<polygon fill="midnightblue" stroke="midnightblue" points="306.5,-141.751 303,-131.751 299.5,-141.751 306.5,-141.751"/>
</g>
<!-- Node8 -->
<g id="node8" class="node"><title>Node8</title>
<g id="a_node8"><a xlink:href="../../d6/d55/_c_g_l_object_8h.xhtml" target="_top" xlink:title="CGLObject.h">
<polygon fill="white" stroke="black" points="339,-56.5 339,-75.5 413,-75.5 413,-56.5 339,-56.5"/>
<text text-anchor="middle" x="376" y="-63.5" font-family="Helvetica,sans-Serif" font-size="10.00">CGLObject.h</text>
</a>
</g>
</g>
<!-- Node7&#45;&gt;Node8 -->
<g id="edge7" class="edge"><title>Node7&#45;&gt;Node8</title>
<path fill="none" stroke="midnightblue" d="M314.729,-112.324C325.837,-104.107 342.742,-91.6017 355.983,-81.8069"/>
<polygon fill="midnightblue" stroke="midnightblue" points="358.1,-84.5948 364.058,-75.8339 353.937,-78.9671 358.1,-84.5948"/>
</g>
<!-- Node9 -->
<g id="node9" class="node"><title>Node9</title>
<polygon fill="white" stroke="#bfbfbf" points="172,-0.5 172,-19.5 226,-19.5 226,-0.5 172,-0.5"/>
<text text-anchor="middle" x="199" y="-7.5" font-family="Helvetica,sans-Serif" font-size="10.00">iostream</text>
</g>
<!-- Node8&#45;&gt;Node9 -->
<g id="edge8" class="edge"><title>Node8&#45;&gt;Node9</title>
<path fill="none" stroke="midnightblue" d="M347.954,-56.4435C317.653,-47.1993 269.242,-32.4296 235.878,-22.2511"/>
<polygon fill="midnightblue" stroke="midnightblue" points="236.63,-18.8213 226.044,-19.2508 234.588,-25.5166 236.63,-18.8213"/>
</g>
<!-- Node10 -->
<g id="node10" class="node"><title>Node10</title>
<polygon fill="white" stroke="#bfbfbf" points="244,-0.5 244,-19.5 292,-19.5 292,-0.5 244,-0.5"/>
<text text-anchor="middle" x="268" y="-7.5" font-family="Helvetica,sans-Serif" font-size="10.00">GL/gl.h</text>
</g>
<!-- Node8&#45;&gt;Node10 -->
<g id="edge9" class="edge"><title>Node8&#45;&gt;Node10</title>
<path fill="none" stroke="midnightblue" d="M358.648,-56.324C341.328,-47.6641 314.485,-34.2424 294.498,-24.249"/>
<polygon fill="midnightblue" stroke="midnightblue" points="295.819,-20.9962 285.309,-19.6545 292.688,-27.2572 295.819,-20.9962"/>
</g>
<!-- Node11 -->
<g id="node11" class="node"><title>Node11</title>
<polygon fill="white" stroke="#bfbfbf" points="310.5,-0.5 310.5,-19.5 363.5,-19.5 363.5,-0.5 310.5,-0.5"/>
<text text-anchor="middle" x="337" y="-7.5" font-family="Helvetica,sans-Serif" font-size="10.00">GL/glu.h</text>
</g>
<!-- Node8&#45;&gt;Node11 -->
<g id="edge10" class="edge"><title>Node8&#45;&gt;Node11</title>
<path fill="none" stroke="midnightblue" d="M369.56,-56.083C364.051,-48.4554 355.969,-37.2645 349.235,-27.9408"/>
<polygon fill="midnightblue" stroke="midnightblue" points="352.013,-25.8087 343.32,-19.7511 346.338,-29.9071 352.013,-25.8087"/>
</g>
<!-- Node12 -->
<g id="node12" class="node"><title>Node12</title>
<polygon fill="white" stroke="#bfbfbf" points="381.5,-0.5 381.5,-19.5 448.5,-19.5 448.5,-0.5 381.5,-0.5"/>
<text text-anchor="middle" x="415" y="-7.5" font-family="Helvetica,sans-Serif" font-size="10.00">SDL/SDL.h</text>
</g>
<!-- Node8&#45;&gt;Node12 -->
<g id="edge11" class="edge"><title>Node8&#45;&gt;Node12</title>
<path fill="none" stroke="midnightblue" d="M382.44,-56.083C387.949,-48.4554 396.031,-37.2645 402.765,-27.9408"/>
<polygon fill="midnightblue" stroke="midnightblue" points="405.662,-29.9071 408.68,-19.7511 399.987,-25.8087 405.662,-29.9071"/>
</g>
<!-- Node13 -->
<g id="node13" class="node"><title>Node13</title>
<polygon fill="white" stroke="#bfbfbf" points="466.5,-0.5 466.5,-19.5 507.5,-19.5 507.5,-0.5 466.5,-0.5"/>
<text text-anchor="middle" x="487" y="-7.5" font-family="Helvetica,sans-Serif" font-size="10.00">string</text>
</g>
<!-- Node8&#45;&gt;Node13 -->
<g id="edge12" class="edge"><title>Node8&#45;&gt;Node13</title>
<path fill="none" stroke="midnightblue" d="M393.834,-56.324C411.716,-47.6247 439.475,-34.1202 460.046,-24.113"/>
<polygon fill="midnightblue" stroke="midnightblue" points="461.749,-27.1765 469.21,-19.6545 458.687,-20.8819 461.749,-27.1765"/>
</g>
<!-- Node14 -->
<g id="node14" class="node"><title>Node14</title>
<polygon fill="white" stroke="#bfbfbf" points="525.5,-0.5 525.5,-19.5 554.5,-19.5 554.5,-0.5 525.5,-0.5"/>
<text text-anchor="middle" x="540" y="-7.5" font-family="Helvetica,sans-Serif" font-size="10.00">list</text>
</g>
<!-- Node8&#45;&gt;Node14 -->
<g id="edge13" class="edge"><title>Node8&#45;&gt;Node14</title>
<path fill="none" stroke="midnightblue" d="M404.021,-56.4255C430.495,-48.23 471.512,-35.2901 515.817,-19.9433"/>
<polygon fill="midnightblue" stroke="midnightblue" points="517.026,-23.2285 525.317,-16.6327 514.722,-16.6184 517.026,-23.2285"/>
</g>
<!-- Node15&#45;&gt;Node7 -->
<g id="edge15" class="edge"><title>Node15&#45;&gt;Node7</title>
<path fill="none" stroke="midnightblue" d="M226.621,-168.324C240.949,-159.822 263.013,-146.729 279.749,-136.797"/>
<polygon fill="midnightblue" stroke="midnightblue" points="281.602,-139.768 288.416,-131.655 278.03,-133.748 281.602,-139.768"/>
</g>
<!-- Node17 -->
<g id="node17" class="node"><title>Node17</title>
<g id="a_node17"><a xlink:href="../../d2/d5a/_c_g_l_item_8h.xhtml" target="_top" xlink:title="CGLItem.h">
<polygon fill="white" stroke="black" points="343.5,-280.5 343.5,-299.5 408.5,-299.5 408.5,-280.5 343.5,-280.5"/>
<text text-anchor="middle" x="376" y="-287.5" font-family="Helvetica,sans-Serif" font-size="10.00">CGLItem.h</text>
</a>
</g>
</g>
<!-- Node16&#45;&gt;Node17 -->
<g id="edge17" class="edge"><title>Node16&#45;&gt;Node17</title>
<path fill="none" stroke="midnightblue" d="M174.029,-336.444C217.406,-326.684 288.155,-310.765 333.366,-300.593"/>
<polygon fill="midnightblue" stroke="midnightblue" points="334.175,-303.998 343.163,-298.388 332.638,-297.169 334.175,-303.998"/>
</g>
<!-- Node18 -->
<g id="node18" class="node"><title>Node18</title>
<g id="a_node18"><a xlink:href="../../dc/dee/_c_g_l_vector2_d_8h.xhtml" target="_top" xlink:title="CGLVector2D.h">
<polygon fill="white" stroke="black" points="455,-224.5 455,-243.5 541,-243.5 541,-224.5 455,-224.5"/>
<text text-anchor="middle" x="498" y="-231.5" font-family="Helvetica,sans-Serif" font-size="10.00">CGLVector2D.h</text>
</a>
</g>
</g>
<!-- Node16&#45;&gt;Node18 -->
<g id="edge19" class="edge"><title>Node16&#45;&gt;Node18</title>
<path fill="none" stroke="midnightblue" d="M160.88,-336.394C198.28,-323.557 271.296,-298.883 334,-280 374.864,-267.694 421.867,-254.938 455.048,-246.164"/>
<polygon fill="midnightblue" stroke="midnightblue" points="456.102,-249.506 464.88,-243.574 454.318,-242.737 456.102,-249.506"/>
</g>
<!-- Node17&#45;&gt;Node8 -->
<g id="edge18" class="edge"><title>Node17&#45;&gt;Node8</title>
<path fill="none" stroke="midnightblue" d="M376,-280.297C376,-247.633 376,-131.866 376,-85.9573"/>
<polygon fill="midnightblue" stroke="midnightblue" points="379.5,-85.8837 376,-75.8837 372.5,-85.8838 379.5,-85.8837"/>
</g>
<!-- Node19 -->
<g id="node19" class="node"><title>Node19</title>
<polygon fill="white" stroke="#bfbfbf" points="523,-168.5 523,-187.5 567,-187.5 567,-168.5 523,-168.5"/>
<text text-anchor="middle" x="545" y="-175.5" font-family="Helvetica,sans-Serif" font-size="10.00">cmath</text>
</g>
<!-- Node18&#45;&gt;Node19 -->
<g id="edge20" class="edge"><title>Node18&#45;&gt;Node19</title>
<path fill="none" stroke="midnightblue" d="M505.761,-224.083C512.537,-216.298 522.543,-204.801 530.755,-195.367"/>
<polygon fill="midnightblue" stroke="midnightblue" points="533.458,-197.592 537.383,-187.751 528.178,-192.996 533.458,-197.592"/>
</g>
<!-- Node21 -->
<g id="node21" class="node"><title>Node21</title>
<g id="a_node21"><a xlink:href="../../db/d17/_c_g_l_boite_8h.xhtml" target="_top" xlink:title="CGLBoite.h">
<polygon fill="white" stroke="black" points="238,-336.5 238,-355.5 306,-355.5 306,-336.5 238,-336.5"/>
<text text-anchor="middle" x="272" y="-343.5" font-family="Helvetica,sans-Serif" font-size="10.00">CGLBoite.h</text>
</a>
</g>
</g>
<!-- Node20&#45;&gt;Node21 -->
<g id="edge22" class="edge"><title>Node20&#45;&gt;Node21</title>
<path fill="none" stroke="midnightblue" d="M327.396,-392.324C317.544,-384.263 302.649,-372.077 290.785,-362.369"/>
<polygon fill="midnightblue" stroke="midnightblue" points="292.753,-359.457 282.797,-355.834 288.32,-364.875 292.753,-359.457"/>
</g>
<!-- Node21&#45;&gt;Node17 -->
<g id="edge23" class="edge"><title>Node21&#45;&gt;Node17</title>
<path fill="none" stroke="midnightblue" d="M288.709,-336.324C305.312,-327.703 331.002,-314.364 350.22,-304.386"/>
<polygon fill="midnightblue" stroke="midnightblue" points="352.07,-307.369 359.332,-299.655 348.844,-301.156 352.07,-307.369"/>
</g>
<!-- Node23 -->
<g id="node23" class="node"><title>Node23</title>
<g id="a_node23"><a xlink:href="../../d7/d27/_c_g_l_effect_8h.xhtml" target="_top" xlink:title="CGLEffect.h">
<polygon fill="white" stroke="black" points="960.5,-280.5 960.5,-299.5 1031.5,-299.5 1031.5,-280.5 960.5,-280.5"/>
<text text-anchor="middle" x="996" y="-287.5" font-family="Helvetica,sans-Serif" font-size="10.00">CGLEffect.h</text>
</a>
</g>
</g>
<!-- Node22&#45;&gt;Node23 -->
<g id="edge25" class="edge"><title>Node22&#45;&gt;Node23</title>
<path fill="none" stroke="midnightblue" d="M873.212,-398.519C906.316,-394.321 949.701,-383.492 977,-356 989.027,-343.887 993.524,-324.607 995.163,-310.185"/>
<polygon fill="midnightblue" stroke="midnightblue" points="998.677,-310.129 995.954,-299.89 991.698,-309.592 998.677,-310.129"/>
</g>
<!-- Node24 -->
<g id="node24" class="node"><title>Node24</title>
<g id="a_node24"><a xlink:href="../../df/dcb/_c_g_l_vector4_d_8h.xhtml" target="_top" xlink:title="CGLVector4D.h">
<polygon fill="white" stroke="black" points="784,-336.5 784,-355.5 870,-355.5 870,-336.5 784,-336.5"/>
<text text-anchor="middle" x="827" y="-343.5" font-family="Helvetica,sans-Serif" font-size="10.00">CGLVector4D.h</text>
</a>
</g>
</g>
<!-- Node22&#45;&gt;Node24 -->
<g id="edge27" class="edge"><title>Node22&#45;&gt;Node24</title>
<path fill="none" stroke="midnightblue" d="M827,-392.083C827,-385.006 827,-374.861 827,-365.986"/>
<polygon fill="midnightblue" stroke="midnightblue" points="830.5,-365.751 827,-355.751 823.5,-365.751 830.5,-365.751"/>
</g>
<!-- Node23&#45;&gt;Node8 -->
<g id="edge26" class="edge"><title>Node23&#45;&gt;Node8</title>
<path fill="none" stroke="midnightblue" d="M972.075,-280.433C876.366,-246.163 520.867,-118.872 409.55,-79.013"/>
<polygon fill="midnightblue" stroke="midnightblue" points="410.448,-75.6171 399.854,-75.5411 408.088,-82.2074 410.448,-75.6171"/>
</g>
<!-- Node25 -->
<g id="node25" class="node"><title>Node25</title>
<g id="a_node25"><a xlink:href="../../dd/d83/_c_g_l_vector3_d_8h.xhtml" target="_top" xlink:title="CGLVector3D.h">
<polygon fill="white" stroke="black" points="820,-280.5 820,-299.5 906,-299.5 906,-280.5 820,-280.5"/>
<text text-anchor="middle" x="863" y="-287.5" font-family="Helvetica,sans-Serif" font-size="10.00">CGLVector3D.h</text>
</a>
</g>
</g>
<!-- Node24&#45;&gt;Node25 -->
<g id="edge28" class="edge"><title>Node24&#45;&gt;Node25</title>
<path fill="none" stroke="midnightblue" d="M832.945,-336.083C837.977,-328.534 845.337,-317.495 851.513,-308.23"/>
<polygon fill="midnightblue" stroke="midnightblue" points="854.531,-310.013 857.166,-299.751 848.707,-306.13 854.531,-310.013"/>
</g>
<!-- Node25&#45;&gt;Node18 -->
<g id="edge29" class="edge"><title>Node25&#45;&gt;Node18</title>
<path fill="none" stroke="midnightblue" d="M819.696,-282.593C752.742,-272.688 624.246,-253.678 551.554,-242.923"/>
<polygon fill="midnightblue" stroke="midnightblue" points="551.652,-239.4 541.247,-241.398 550.627,-246.324 551.652,-239.4"/>
</g>
<!-- Node26&#45;&gt;Node23 -->
<g id="edge31" class="edge"><title>Node26&#45;&gt;Node23</title>
<path fill="none" stroke="midnightblue" d="M1058.95,-336.324C1047.54,-328.107 1030.17,-315.602 1016.57,-305.807"/>
<polygon fill="midnightblue" stroke="midnightblue" points="1018.43,-302.837 1008.27,-299.834 1014.34,-308.517 1018.43,-302.837"/>
</g>
<!-- Node26&#45;&gt;Node25 -->
<g id="edge32" class="edge"><title>Node26&#45;&gt;Node25</title>
<path fill="none" stroke="midnightblue" d="M1038.04,-336.444C1002.21,-327.142 944.837,-312.246 905.609,-302.062"/>
<polygon fill="midnightblue" stroke="midnightblue" points="906.363,-298.642 895.804,-299.516 904.604,-305.417 906.363,-298.642"/>
</g>
<!-- Node27&#45;&gt;Node17 -->
<g id="edge34" class="edge"><title>Node27&#45;&gt;Node17</title>
<path fill="none" stroke="midnightblue" d="M217.666,-392.238C216.103,-378.516 215.255,-351.888 229,-336 242.745,-320.111 295.178,-306.746 333.517,-298.81"/>
<polygon fill="midnightblue" stroke="midnightblue" points="334.308,-302.221 343.42,-296.814 332.925,-295.359 334.308,-302.221"/>
</g>
<!-- Node28&#45;&gt;Node17 -->
<g id="edge36" class="edge"><title>Node28&#45;&gt;Node17</title>
<path fill="none" stroke="midnightblue" d="M679.881,-337.469C676.877,-336.965 673.894,-336.471 671,-336 581.463,-321.424 476.397,-305.735 418.935,-297.274"/>
<polygon fill="midnightblue" stroke="midnightblue" points="419.177,-293.772 408.774,-295.781 418.159,-300.698 419.177,-293.772"/>
</g>
<!-- Node28&#45;&gt;Node25 -->
<g id="edge37" class="edge"><title>Node28&#45;&gt;Node25</title>
<path fill="none" stroke="midnightblue" d="M745.183,-336.444C768.428,-327.478 805.149,-313.314 831.415,-303.183"/>
<polygon fill="midnightblue" stroke="midnightblue" points="832.85,-306.381 840.92,-299.516 830.331,-299.85 832.85,-306.381"/>
</g>
<!-- Node29&#45;&gt;Node17 -->
<g id="edge39" class="edge"><title>Node29&#45;&gt;Node17</title>
<path fill="none" stroke="midnightblue" d="M376,-336.083C376,-329.006 376,-318.861 376,-309.986"/>
<polygon fill="midnightblue" stroke="midnightblue" points="379.5,-309.751 376,-299.751 372.5,-309.751 379.5,-309.751"/>
</g>
<!-- Node29&#45;&gt;Node18 -->
<g id="edge40" class="edge"><title>Node29&#45;&gt;Node18</title>
<path fill="none" stroke="midnightblue" d="M385.573,-336.368C406.152,-317.814 454.842,-273.913 480.878,-250.438"/>
<polygon fill="midnightblue" stroke="midnightblue" points="483.388,-252.887 488.471,-243.591 478.701,-247.688 483.388,-252.887"/>
</g>
<!-- Node30&#45;&gt;Node17 -->
<g id="edge42" class="edge"><title>Node30&#45;&gt;Node17</title>
<path fill="none" stroke="midnightblue" d="M478.669,-336.444C458.68,-327.596 427.257,-313.687 404.436,-303.586"/>
<polygon fill="midnightblue" stroke="midnightblue" points="405.802,-300.363 395.241,-299.516 402.968,-306.764 405.802,-300.363"/>
</g>
<!-- Node30&#45;&gt;Node18 -->
<g id="edge43" class="edge"><title>Node30&#45;&gt;Node18</title>
<path fill="none" stroke="midnightblue" d="M498,-336.368C498,-318.617 498,-277.666 498,-253.597"/>
<polygon fill="midnightblue" stroke="midnightblue" points="501.5,-253.591 498,-243.591 494.5,-253.591 501.5,-253.591"/>
</g>
<!-- Node31&#45;&gt;Node17 -->
<g id="edge45" class="edge"><title>Node31&#45;&gt;Node17</title>
<path fill="none" stroke="midnightblue" d="M577.13,-336.444C533.933,-326.684 463.478,-310.765 418.456,-300.593"/>
<polygon fill="midnightblue" stroke="midnightblue" points="419.226,-297.178 408.701,-298.388 417.683,-304.006 419.226,-297.178"/>
</g>
<!-- Node31&#45;&gt;Node19 -->
<g id="edge46" class="edge"><title>Node31&#45;&gt;Node19</title>
<path fill="none" stroke="midnightblue" d="M611.236,-336.075C600.17,-309.832 567.579,-232.545 552.64,-197.117"/>
<polygon fill="midnightblue" stroke="midnightblue" points="555.724,-195.422 548.613,-187.568 549.274,-198.142 555.724,-195.422"/>
</g>
<!-- Node33 -->
<g id="node33" class="node"><title>Node33</title>
<g id="a_node33"><a xlink:href="../../db/d5d/_c_g_l_position_8h.xhtml" target="_top" xlink:title="CGLPosition.h">
<polygon fill="white" stroke="black" points="888,-336.5 888,-355.5 968,-355.5 968,-336.5 888,-336.5"/>
<text text-anchor="middle" x="928" y="-343.5" font-family="Helvetica,sans-Serif" font-size="10.00">CGLPosition.h</text>
</a>
</g>
</g>
<!-- Node32&#45;&gt;Node33 -->
<g id="edge48" class="edge"><title>Node32&#45;&gt;Node33</title>
<path fill="none" stroke="midnightblue" d="M730.236,-392.444C771.06,-383.063 836.643,-367.993 880.984,-357.804"/>
<polygon fill="midnightblue" stroke="midnightblue" points="881.976,-361.167 890.938,-355.516 880.408,-354.345 881.976,-361.167"/>
</g>
<!-- Node33&#45;&gt;Node23 -->
<g id="edge49" class="edge"><title>Node33&#45;&gt;Node23</title>
<path fill="none" stroke="midnightblue" d="M938.925,-336.324C949.175,-328.185 964.721,-315.839 977.001,-306.087"/>
<polygon fill="midnightblue" stroke="midnightblue" points="979.221,-308.794 984.876,-299.834 974.868,-303.312 979.221,-308.794"/>
</g>
<!-- Node33&#45;&gt;Node25 -->
<g id="edge50" class="edge"><title>Node33&#45;&gt;Node25</title>
<path fill="none" stroke="midnightblue" d="M917.557,-336.324C907.854,-328.263 893.185,-316.077 881.5,-306.369"/>
<polygon fill="midnightblue" stroke="midnightblue" points="883.562,-303.532 873.633,-299.834 879.089,-308.916 883.562,-303.532"/>
</g>
<!-- Node35 -->
<g id="node35" class="node"><title>Node35</title>
<g id="a_node35"><a xlink:href="../../d5/d65/_c_g_l_rotation_8h.xhtml" target="_top" xlink:title="CGLRotation.h">
<polygon fill="white" stroke="black" points="1136,-336.5 1136,-355.5 1218,-355.5 1218,-336.5 1136,-336.5"/>
<text text-anchor="middle" x="1177" y="-343.5" font-family="Helvetica,sans-Serif" font-size="10.00">CGLRotation.h</text>
</a>
</g>
</g>
<!-- Node34&#45;&gt;Node35 -->
<g id="edge52" class="edge"><title>Node34&#45;&gt;Node35</title>
<path fill="none" stroke="midnightblue" d="M1136.93,-392.083C1143.85,-384.298 1154.07,-372.801 1162.45,-363.367"/>
<polygon fill="midnightblue" stroke="midnightblue" points="1165.19,-365.55 1169.22,-355.751 1159.96,-360.9 1165.19,-365.55"/>
</g>
<!-- Node35&#45;&gt;Node23 -->
<g id="edge53" class="edge"><title>Node35&#45;&gt;Node23</title>
<path fill="none" stroke="midnightblue" d="M1148.32,-336.444C1117.47,-327.241 1068.27,-312.562 1034.17,-302.388"/>
<polygon fill="midnightblue" stroke="midnightblue" points="1035.13,-299.021 1024.55,-299.516 1033.13,-305.729 1035.13,-299.021"/>
</g>
<!-- Node35&#45;&gt;Node25 -->
<g id="edge54" class="edge"><title>Node35&#45;&gt;Node25</title>
<path fill="none" stroke="midnightblue" d="M1135.81,-337.712C1132.49,-337.13 1129.19,-336.554 1126,-336 1053.33,-323.37 969.304,-309.041 916.17,-300.014"/>
<polygon fill="midnightblue" stroke="midnightblue" points="916.738,-296.56 906.293,-298.336 915.565,-303.461 916.738,-296.56"/>
</g>
</g>
</svg>
