<?xml version="1.0" encoding="UTF-8" standalone="no"?>
<!DOCTYPE svg PUBLIC "-//W3C//DTD SVG 1.1//EN"
 "http://www.w3.org/Graphics/SVG/1.1/DTD/svg11.dtd">
<!-- Generated by graphviz version 2.36.0 (20140111.2315)
 -->
<!-- Title: CGLSpecial Pages: 1 -->
<svg width="612pt" height="530pt"
 viewBox="0.00 0.00 612.00 530.00" xmlns="http://www.w3.org/2000/svg" xmlns:xlink="http://www.w3.org/1999/xlink">
<g id="graph0" class="graph" transform="scale(1 1) rotate(0) translate(4 526)">
<title>CGLSpecial</title>
<polygon fill="white" stroke="none" points="-4,4 -4,-526 608,-526 608,4 -4,4"/>
<!-- Node1 -->
<g id="node1" class="node"><title>Node1</title>
<polygon fill="#bfbfbf" stroke="black" points="259,-161 259,-229 349,-229 349,-161 259,-161"/>
<text text-anchor="middle" x="304" y="-217" font-family="Helvetica,sans-Serif" font-size="10.00">CGLSpecial</text>
<polyline fill="none" stroke="black" points="259,-210 349,-210 "/>
<text text-anchor="middle" x="304" y="-198" font-family="Helvetica,sans-Serif" font-size="10.00"> </text>
<polyline fill="none" stroke="black" points="259,-191 349,-191 "/>
<text text-anchor="start" x="267" y="-179" font-family="Helvetica,sans-Serif" font-size="10.00">+ CGLSpecial()</text>
<text text-anchor="start" x="267" y="-168" font-family="Helvetica,sans-Serif" font-size="10.00">+ ~CGLSpecial()</text>
</g>
<!-- Node3 -->
<g id="node3" class="node"><title>Node3</title>
<g id="a_node3"><a xlink:href="../../de/dee/class_c_g_l_camera.xhtml" target="_top" xlink:title="{CGLCamera\n||+ CGLCamera()\l+ ~CGLCamera()\l+ draw()\l+ drawObject()\l+ onMouseButton()\l}">
<polygon fill="white" stroke="black" points="0,-11.5 0,-112.5 100,-112.5 100,-11.5 0,-11.5"/>
<text text-anchor="middle" x="50" y="-100.5" font-family="Helvetica,sans-Serif" font-size="10.00">CGLCamera</text>
<polyline fill="none" stroke="black" points="0,-93.5 100,-93.5 "/>
<text text-anchor="middle" x="50" y="-81.5" font-family="Helvetica,sans-Serif" font-size="10.00"> </text>
<polyline fill="none" stroke="black" points="0,-74.5 100,-74.5 "/>
<text text-anchor="start" x="8" y="-62.5" font-family="Helvetica,sans-Serif" font-size="10.00">+ CGLCamera()</text>
<text text-anchor="start" x="8" y="-51.5" font-family="Helvetica,sans-Serif" font-size="10.00">+ ~CGLCamera()</text>
<text text-anchor="start" x="8" y="-40.5" font-family="Helvetica,sans-Serif" font-size="10.00">+ draw()</text>
<text text-anchor="start" x="8" y="-29.5" font-family="Helvetica,sans-Serif" font-size="10.00">+ drawObject()</text>
<text text-anchor="start" x="8" y="-18.5" font-family="Helvetica,sans-Serif" font-size="10.00">+ onMouseButton()</text>
</a>
</g>
</g>
<!-- Node1&#45;&gt;Node3 -->
<g id="edge2" class="edge"><title>Node1&#45;&gt;Node3</title>
<path fill="none" stroke="midnightblue" d="M248.983,-181.478C208.143,-170.524 152.269,-151.939 109,-124 103.802,-120.643 98.7207,-116.746 93.8589,-112.576"/>
<polygon fill="none" stroke="midnightblue" points="248.203,-184.891 258.763,-184.032 249.973,-178.119 248.203,-184.891"/>
</g>
<!-- Node4 -->
<g id="node4" class="node"><title>Node4</title>
<g id="a_node4"><a xlink:href="../../d4/dad/class_c_g_l_camera_list.xhtml" target="_top" xlink:title="{CGLCameraList\n||+ CGLCameraList()\l+ ~CGLCameraList()\l+ getCurrentCamera()\l}">
<polygon fill="white" stroke="black" points="118,-22.5 118,-101.5 230,-101.5 230,-22.5 118,-22.5"/>
<text text-anchor="middle" x="174" y="-89.5" font-family="Helvetica,sans-Serif" font-size="10.00">CGLCameraList</text>
<polyline fill="none" stroke="black" points="118,-82.5 230,-82.5 "/>
<text text-anchor="middle" x="174" y="-70.5" font-family="Helvetica,sans-Serif" font-size="10.00"> </text>
<polyline fill="none" stroke="black" points="118,-63.5 230,-63.5 "/>
<text text-anchor="start" x="126" y="-51.5" font-family="Helvetica,sans-Serif" font-size="10.00">+ CGLCameraList()</text>
<text text-anchor="start" x="126" y="-40.5" font-family="Helvetica,sans-Serif" font-size="10.00">+ ~CGLCameraList()</text>
<text text-anchor="start" x="126" y="-29.5" font-family="Helvetica,sans-Serif" font-size="10.00">+ getCurrentCamera()</text>
</a>
</g>
</g>
<!-- Node1&#45;&gt;Node4 -->
<g id="edge3" class="edge"><title>Node1&#45;&gt;Node4</title>
<path fill="none" stroke="midnightblue" d="M263.851,-153.542C247.444,-137.008 228.55,-117.969 212.334,-101.629"/>
<polygon fill="none" stroke="midnightblue" points="261.667,-156.31 271.196,-160.943 266.636,-151.38 261.667,-156.31"/>
</g>
<!-- Node5 -->
<g id="node5" class="node"><title>Node5</title>
<g id="a_node5"><a xlink:href="../../d9/d85/class_c_g_l_scene.xhtml" target="_top" xlink:title="{CGLScene\n|# cameras\l# objects\l|+ CGLScene()\l+ ~CGLScene()\l+ draw()\l+ getCurrentCamera()\l+ addCamera()\l+ addItem()\l}">
<polygon fill="white" stroke="black" points="248,-0.5 248,-123.5 360,-123.5 360,-0.5 248,-0.5"/>
<text text-anchor="middle" x="304" y="-111.5" font-family="Helvetica,sans-Serif" font-size="10.00">CGLScene</text>
<polyline fill="none" stroke="black" points="248,-104.5 360,-104.5 "/>
<text text-anchor="start" x="256" y="-92.5" font-family="Helvetica,sans-Serif" font-size="10.00"># cameras</text>
<text text-anchor="start" x="256" y="-81.5" font-family="Helvetica,sans-Serif" font-size="10.00"># objects</text>
<polyline fill="none" stroke="black" points="248,-74.5 360,-74.5 "/>
<text text-anchor="start" x="256" y="-62.5" font-family="Helvetica,sans-Serif" font-size="10.00">+ CGLScene()</text>
<text text-anchor="start" x="256" y="-51.5" font-family="Helvetica,sans-Serif" font-size="10.00">+ ~CGLScene()</text>
<text text-anchor="start" x="256" y="-40.5" font-family="Helvetica,sans-Serif" font-size="10.00">+ draw()</text>
<text text-anchor="start" x="256" y="-29.5" font-family="Helvetica,sans-Serif" font-size="10.00">+ getCurrentCamera()</text>
<text text-anchor="start" x="256" y="-18.5" font-family="Helvetica,sans-Serif" font-size="10.00">+ addCamera()</text>
<text text-anchor="start" x="256" y="-7.5" font-family="Helvetica,sans-Serif" font-size="10.00">+ addItem()</text>
</a>
</g>
</g>
<!-- Node1&#45;&gt;Node5 -->
<g id="edge4" class="edge"><title>Node1&#45;&gt;Node5</title>
<path fill="none" stroke="midnightblue" d="M304,-150.695C304,-142.013 304,-132.742 304,-123.599"/>
<polygon fill="none" stroke="midnightblue" points="300.5,-150.943 304,-160.943 307.5,-150.943 300.5,-150.943"/>
</g>
<!-- Node6 -->
<g id="node6" class="node"><title>Node6</title>
<g id="a_node6"><a xlink:href="../../dd/d40/class_c_g_l_window.xhtml" target="_top" xlink:title="{CGLWindow\n||+ CGLWindow()\l+ ~CGLWindow()\l+ loop()\l+ exec()\l+ onResize()\l+ draw()\l+ getCurrentWorld()\l}">
<polygon fill="white" stroke="black" points="378.5,-0.5 378.5,-123.5 481.5,-123.5 481.5,-0.5 378.5,-0.5"/>
<text text-anchor="middle" x="430" y="-111.5" font-family="Helvetica,sans-Serif" font-size="10.00">CGLWindow</text>
<polyline fill="none" stroke="black" points="378.5,-104.5 481.5,-104.5 "/>
<text text-anchor="middle" x="430" y="-92.5" font-family="Helvetica,sans-Serif" font-size="10.00"> </text>
<polyline fill="none" stroke="black" points="378.5,-85.5 481.5,-85.5 "/>
<text text-anchor="start" x="386.5" y="-73.5" font-family="Helvetica,sans-Serif" font-size="10.00">+ CGLWindow()</text>
<text text-anchor="start" x="386.5" y="-62.5" font-family="Helvetica,sans-Serif" font-size="10.00">+ ~CGLWindow()</text>
<text text-anchor="start" x="386.5" y="-51.5" font-family="Helvetica,sans-Serif" font-size="10.00">+ loop()</text>
<text text-anchor="start" x="386.5" y="-40.5" font-family="Helvetica,sans-Serif" font-size="10.00">+ exec()</text>
<text text-anchor="start" x="386.5" y="-29.5" font-family="Helvetica,sans-Serif" font-size="10.00">+ onResize()</text>
<text text-anchor="start" x="386.5" y="-18.5" font-family="Helvetica,sans-Serif" font-size="10.00">+ draw()</text>
<text text-anchor="start" x="386.5" y="-7.5" font-family="Helvetica,sans-Serif" font-size="10.00">+ getCurrentWorld()</text>
</a>
</g>
</g>
<!-- Node1&#45;&gt;Node6 -->
<g id="edge5" class="edge"><title>Node1&#45;&gt;Node6</title>
<path fill="none" stroke="midnightblue" d="M342.959,-153.495C354.15,-141.86 366.531,-128.988 378.359,-116.69"/>
<polygon fill="none" stroke="midnightblue" points="340.205,-151.31 335.795,-160.943 345.25,-156.162 340.205,-151.31"/>
</g>
<!-- Node7 -->
<g id="node7" class="node"><title>Node7</title>
<g id="a_node7"><a xlink:href="../../db/da4/class_c_g_l_world.xhtml" target="_top" xlink:title="{CGLWorld\n||+ CGLWorld()\l+ ~CGLWorld()\l+ draw()\l+ getCurrentScene()\l}">
<polygon fill="white" stroke="black" points="499.5,-17 499.5,-107 604.5,-107 604.5,-17 499.5,-17"/>
<text text-anchor="middle" x="552" y="-95" font-family="Helvetica,sans-Serif" font-size="10.00">CGLWorld</text>
<polyline fill="none" stroke="black" points="499.5,-88 604.5,-88 "/>
<text text-anchor="middle" x="552" y="-76" font-family="Helvetica,sans-Serif" font-size="10.00"> </text>
<polyline fill="none" stroke="black" points="499.5,-69 604.5,-69 "/>
<text text-anchor="start" x="507.5" y="-57" font-family="Helvetica,sans-Serif" font-size="10.00">+ CGLWorld()</text>
<text text-anchor="start" x="507.5" y="-46" font-family="Helvetica,sans-Serif" font-size="10.00">+ ~CGLWorld()</text>
<text text-anchor="start" x="507.5" y="-35" font-family="Helvetica,sans-Serif" font-size="10.00">+ draw()</text>
<text text-anchor="start" x="507.5" y="-24" font-family="Helvetica,sans-Serif" font-size="10.00">+ getCurrentScene()</text>
</a>
</g>
</g>
<!-- Node1&#45;&gt;Node7 -->
<g id="edge6" class="edge"><title>Node1&#45;&gt;Node7</title>
<path fill="none" stroke="midnightblue" d="M359.276,-179.814C397.832,-168.382 449.433,-149.923 490,-124 497.507,-119.203 504.847,-113.377 511.699,-107.251"/>
<polygon fill="none" stroke="midnightblue" points="357.902,-176.568 349.27,-182.71 359.849,-183.292 357.902,-176.568"/>
</g>
<!-- Node2 -->
<g id="node2" class="node"><title>Node2</title>
<g id="a_node2"><a xlink:href="../../d2/d76/class_c_g_l_object.xhtml" target="_top" xlink:title="{CGLObject\n|+ garbage\l# objectType\l# name\l# matrixSaved\l# children\l# iterCurrentObject\l# currentObject\l# parentObject\l|+ addObject()\l+ setName()\l+ getName()\l+ getCurrentObject()\l+ isChild()\l+ draw()\l+ drawObject()\l+ drawChildren()\l+ drawCenter()\l+ CGLObject()\l+ ~CGLObject()\l+ init()\l}">
<polygon fill="white" stroke="black" points="251,-266.5 251,-521.5 357,-521.5 357,-266.5 251,-266.5"/>
<text text-anchor="middle" x="304" y="-509.5" font-family="Helvetica,sans-Serif" font-size="10.00">CGLObject</text>
<polyline fill="none" stroke="black" points="251,-502.5 357,-502.5 "/>
<text text-anchor="start" x="259" y="-490.5" font-family="Helvetica,sans-Serif" font-size="10.00">+ garbage</text>
<text text-anchor="start" x="259" y="-479.5" font-family="Helvetica,sans-Serif" font-size="10.00"># objectType</text>
<text text-anchor="start" x="259" y="-468.5" font-family="Helvetica,sans-Serif" font-size="10.00"># name</text>
<text text-anchor="start" x="259" y="-457.5" font-family="Helvetica,sans-Serif" font-size="10.00"># matrixSaved</text>
<text text-anchor="start" x="259" y="-446.5" font-family="Helvetica,sans-Serif" font-size="10.00"># children</text>
<text text-anchor="start" x="259" y="-435.5" font-family="Helvetica,sans-Serif" font-size="10.00"># iterCurrentObject</text>
<text text-anchor="start" x="259" y="-424.5" font-family="Helvetica,sans-Serif" font-size="10.00"># currentObject</text>
<text text-anchor="start" x="259" y="-413.5" font-family="Helvetica,sans-Serif" font-size="10.00"># parentObject</text>
<polyline fill="none" stroke="black" points="251,-406.5 357,-406.5 "/>
<text text-anchor="start" x="259" y="-394.5" font-family="Helvetica,sans-Serif" font-size="10.00">+ addObject()</text>
<text text-anchor="start" x="259" y="-383.5" font-family="Helvetica,sans-Serif" font-size="10.00">+ setName()</text>
<text text-anchor="start" x="259" y="-372.5" font-family="Helvetica,sans-Serif" font-size="10.00">+ getName()</text>
<text text-anchor="start" x="259" y="-361.5" font-family="Helvetica,sans-Serif" font-size="10.00">+ getCurrentObject()</text>
<text text-anchor="start" x="259" y="-350.5" font-family="Helvetica,sans-Serif" font-size="10.00">+ isChild()</text>
<text text-anchor="start" x="259" y="-339.5" font-family="Helvetica,sans-Serif" font-size="10.00">+ draw()</text>
<text text-anchor="start" x="259" y="-328.5" font-family="Helvetica,sans-Serif" font-size="10.00">+ drawObject()</text>
<text text-anchor="start" x="259" y="-317.5" font-family="Helvetica,sans-Serif" font-size="10.00">+ drawChildren()</text>
<text text-anchor="start" x="259" y="-306.5" font-family="Helvetica,sans-Serif" font-size="10.00">+ drawCenter()</text>
<text text-anchor="start" x="259" y="-295.5" font-family="Helvetica,sans-Serif" font-size="10.00">+ CGLObject()</text>
<text text-anchor="start" x="259" y="-284.5" font-family="Helvetica,sans-Serif" font-size="10.00">+ ~CGLObject()</text>
<text text-anchor="start" x="259" y="-273.5" font-family="Helvetica,sans-Serif" font-size="10.00">+ init()</text>
</a>
</g>
</g>
<!-- Node2&#45;&gt;Node1 -->
<g id="edge1" class="edge"><title>Node2&#45;&gt;Node1</title>
<path fill="none" stroke="midnightblue" d="M304,-256.257C304,-246.41 304,-237.166 304,-229.016"/>
<polygon fill="none" stroke="midnightblue" points="300.5,-256.287 304,-266.287 307.5,-256.287 300.5,-256.287"/>
</g>
</g>
</svg>
