<?xml version="1.0" encoding="UTF-8" standalone="no"?>
<!DOCTYPE svg PUBLIC "-//W3C//DTD SVG 1.1//EN"
 "http://www.w3.org/Graphics/SVG/1.1/DTD/svg11.dtd">
<!-- Generated by graphviz version 2.36.0 (20140111.2315)
 -->
<!-- Title: CGLScene Pages: 1 -->
<svg width="231pt" height="630pt"
 viewBox="0.00 0.00 231.00 630.00" xmlns="http://www.w3.org/2000/svg" xmlns:xlink="http://www.w3.org/1999/xlink">
<g id="graph0" class="graph" transform="scale(1 1) rotate(0) translate(4 626)">
<title>CGLScene</title>
<polygon fill="white" stroke="none" points="-4,4 -4,-626 227,-626 227,4 -4,4"/>
<!-- Node1 -->
<g id="node1" class="node"><title>Node1</title>
<polygon fill="#bfbfbf" stroke="black" points="27,-1 27,-113 139,-113 139,-1 27,-1"/>
<text text-anchor="middle" x="83" y="-101" font-family="Helvetica,sans-Serif" font-size="10.00">CGLScene</text>
<polyline fill="none" stroke="black" points="27,-94 139,-94 "/>
<text text-anchor="middle" x="83" y="-82" font-family="Helvetica,sans-Serif" font-size="10.00"> </text>
<polyline fill="none" stroke="black" points="27,-75 139,-75 "/>
<text text-anchor="start" x="35" y="-63" font-family="Helvetica,sans-Serif" font-size="10.00">+ CGLScene()</text>
<text text-anchor="start" x="35" y="-52" font-family="Helvetica,sans-Serif" font-size="10.00">+ ~CGLScene()</text>
<text text-anchor="start" x="35" y="-41" font-family="Helvetica,sans-Serif" font-size="10.00">+ draw()</text>
<text text-anchor="start" x="35" y="-30" font-family="Helvetica,sans-Serif" font-size="10.00">+ getCurrentCamera()</text>
<text text-anchor="start" x="35" y="-19" font-family="Helvetica,sans-Serif" font-size="10.00">+ addCamera()</text>
<text text-anchor="start" x="35" y="-8" font-family="Helvetica,sans-Serif" font-size="10.00">+ addItem()</text>
</g>
<!-- Node2 -->
<g id="node2" class="node"><title>Node2</title>
<g id="a_node2"><a xlink:href="$d0/d14/class_c_g_l_special.xhtml" xlink:title="{CGLSpecial\n||+ CGLSpecial()\l+ ~CGLSpecial()\l}">
<polygon fill="white" stroke="black" points="56,-291 56,-359 146,-359 146,-291 56,-291"/>
<text text-anchor="middle" x="101" y="-347" font-family="Helvetica,sans-Serif" font-size="10.00">CGLSpecial</text>
<polyline fill="none" stroke="black" points="56,-340 146,-340 "/>
<text text-anchor="middle" x="101" y="-328" font-family="Helvetica,sans-Serif" font-size="10.00"> </text>
<polyline fill="none" stroke="black" points="56,-321 146,-321 "/>
<text text-anchor="start" x="64" y="-309" font-family="Helvetica,sans-Serif" font-size="10.00">+ CGLSpecial()</text>
<text text-anchor="start" x="64" y="-298" font-family="Helvetica,sans-Serif" font-size="10.00">+ ~CGLSpecial()</text>
</a>
</g>
</g>
<!-- Node2&#45;&gt;Node1 -->
<g id="edge1" class="edge"><title>Node2&#45;&gt;Node1</title>
<path fill="none" stroke="midnightblue" d="M98.0682,-280.675C94.976,-234.978 90.0947,-162.844 86.7303,-113.125"/>
<polygon fill="none" stroke="midnightblue" points="94.5894,-281.108 98.7567,-290.849 101.573,-280.635 94.5894,-281.108"/>
</g>
<!-- Node4 -->
<g id="node4" class="node"><title>Node4</title>
<g id="a_node4"><a xlink:href="$d4/dad/class_c_g_l_camera_list.xhtml" xlink:title="{CGLCameraList\n||+ CGLCameraList()\l+ ~CGLCameraList()\l+ getCurrentCamera()\l}">
<polygon fill="white" stroke="black" points="111,-162.5 111,-241.5 223,-241.5 223,-162.5 111,-162.5"/>
<text text-anchor="middle" x="167" y="-229.5" font-family="Helvetica,sans-Serif" font-size="10.00">CGLCameraList</text>
<polyline fill="none" stroke="black" points="111,-222.5 223,-222.5 "/>
<text text-anchor="middle" x="167" y="-210.5" font-family="Helvetica,sans-Serif" font-size="10.00"> </text>
<polyline fill="none" stroke="black" points="111,-203.5 223,-203.5 "/>
<text text-anchor="start" x="119" y="-191.5" font-family="Helvetica,sans-Serif" font-size="10.00">+ CGLCameraList()</text>
<text text-anchor="start" x="119" y="-180.5" font-family="Helvetica,sans-Serif" font-size="10.00">+ ~CGLCameraList()</text>
<text text-anchor="start" x="119" y="-169.5" font-family="Helvetica,sans-Serif" font-size="10.00">+ getCurrentCamera()</text>
</a>
</g>
</g>
<!-- Node2&#45;&gt;Node4 -->
<g id="edge5" class="edge"><title>Node2&#45;&gt;Node4</title>
<path fill="none" stroke="midnightblue" d="M123.866,-282.079C131.035,-268.937 138.91,-254.499 145.947,-241.597"/>
<polygon fill="none" stroke="midnightblue" points="120.751,-280.481 119.035,-290.936 126.896,-283.833 120.751,-280.481"/>
</g>
<!-- Node3 -->
<g id="node3" class="node"><title>Node3</title>
<g id="a_node3"><a xlink:href="$d2/d76/class_c_g_l_object.xhtml" xlink:title="{CGLObject\n|# objectType\l# name\l# matrixSaved\l# children\l# iterCurrentObject\l|+ addObject()\l+ setName()\l+ getName()\l+ getCurrentObject()\l+ isChild()\l+ draw()\l+ drawObject()\l+ drawChildren()\l+ drawCenter()\l+ CGLObject()\l+ ~CGLObject()\l+ init()\l}">
<polygon fill="white" stroke="black" points="-1,-399 -1,-621 105,-621 105,-399 -1,-399"/>
<text text-anchor="middle" x="52" y="-609" font-family="Helvetica,sans-Serif" font-size="10.00">CGLObject</text>
<polyline fill="none" stroke="black" points="-1,-602 105,-602 "/>
<text text-anchor="start" x="7" y="-590" font-family="Helvetica,sans-Serif" font-size="10.00"># objectType</text>
<text text-anchor="start" x="7" y="-579" font-family="Helvetica,sans-Serif" font-size="10.00"># name</text>
<text text-anchor="start" x="7" y="-568" font-family="Helvetica,sans-Serif" font-size="10.00"># matrixSaved</text>
<text text-anchor="start" x="7" y="-557" font-family="Helvetica,sans-Serif" font-size="10.00"># children</text>
<text text-anchor="start" x="7" y="-546" font-family="Helvetica,sans-Serif" font-size="10.00"># iterCurrentObject</text>
<polyline fill="none" stroke="black" points="-1,-539 105,-539 "/>
<text text-anchor="start" x="7" y="-527" font-family="Helvetica,sans-Serif" font-size="10.00">+ addObject()</text>
<text text-anchor="start" x="7" y="-516" font-family="Helvetica,sans-Serif" font-size="10.00">+ setName()</text>
<text text-anchor="start" x="7" y="-505" font-family="Helvetica,sans-Serif" font-size="10.00">+ getName()</text>
<text text-anchor="start" x="7" y="-494" font-family="Helvetica,sans-Serif" font-size="10.00">+ getCurrentObject()</text>
<text text-anchor="start" x="7" y="-483" font-family="Helvetica,sans-Serif" font-size="10.00">+ isChild()</text>
<text text-anchor="start" x="7" y="-472" font-family="Helvetica,sans-Serif" font-size="10.00">+ draw()</text>
<text text-anchor="start" x="7" y="-461" font-family="Helvetica,sans-Serif" font-size="10.00">+ drawObject()</text>
<text text-anchor="start" x="7" y="-450" font-family="Helvetica,sans-Serif" font-size="10.00">+ drawChildren()</text>
<text text-anchor="start" x="7" y="-439" font-family="Helvetica,sans-Serif" font-size="10.00">+ drawCenter()</text>
<text text-anchor="start" x="7" y="-428" font-family="Helvetica,sans-Serif" font-size="10.00">+ CGLObject()</text>
<text text-anchor="start" x="7" y="-417" font-family="Helvetica,sans-Serif" font-size="10.00">+ ~CGLObject()</text>
<text text-anchor="start" x="7" y="-406" font-family="Helvetica,sans-Serif" font-size="10.00">+ init()</text>
</a>
</g>
</g>
<!-- Node3&#45;&gt;Node1 -->
<g id="edge6" class="edge"><title>Node3&#45;&gt;Node1</title>
<path fill="none" stroke="#404040" d="M47.8853,-398.756C47.5208,-385.695 47.2105,-372.551 47,-360 46.4782,-328.893 44.6077,-321.019 47,-290 51.3158,-234.042 61.4039,-171.161 69.8062,-124.994"/>
<polygon fill="none" stroke="#404040" points="69.8354,-124.835 66.9907,-118.209 72.0131,-113.035 74.8578,-119.661 69.8354,-124.835"/>
<text text-anchor="middle" x="69" y="-263.5" font-family="Helvetica,sans-Serif" font-size="10.00"> #objects</text>
</g>
<!-- Node3&#45;&gt;Node2 -->
<g id="edge2" class="edge"><title>Node3&#45;&gt;Node2</title>
<path fill="none" stroke="midnightblue" d="M84.1674,-388.865C87.0372,-378.147 89.7509,-368.012 92.1278,-359.135"/>
<polygon fill="none" stroke="midnightblue" points="80.6988,-388.287 81.4931,-398.852 87.4606,-390.098 80.6988,-388.287"/>
</g>
<!-- Node3&#45;&gt;Node3 -->
<g id="edge3" class="edge"><title>Node3&#45;&gt;Node3</title>
<path fill="none" stroke="#404040" d="M105.111,-533.124C115.021,-530.276 122,-522.568 122,-510 122,-502.734 119.667,-497.092 115.784,-493.075"/>
<polygon fill="none" stroke="#404040" points="115.488,-492.903 108.291,-493.349 105.111,-486.876 112.309,-486.431 115.488,-492.903"/>
<text text-anchor="middle" x="154" y="-518.5" font-family="Helvetica,sans-Serif" font-size="10.00"> +garbage</text>
<text text-anchor="middle" x="154" y="-507.5" font-family="Helvetica,sans-Serif" font-size="10.00">#currentObject</text>
<text text-anchor="middle" x="154" y="-496.5" font-family="Helvetica,sans-Serif" font-size="10.00">#parentObject</text>
</g>
<!-- Node4&#45;&gt;Node1 -->
<g id="edge4" class="edge"><title>Node4&#45;&gt;Node1</title>
<path fill="none" stroke="#404040" d="M144.268,-162.302C137.252,-150.358 129.321,-136.855 121.547,-123.622"/>
<polygon fill="none" stroke="#404040" points="121.446,-123.45 114.958,-120.302 115.368,-113.103 121.856,-116.25 121.446,-123.45"/>
<text text-anchor="middle" x="155" y="-135.5" font-family="Helvetica,sans-Serif" font-size="10.00"> #cameras</text>
</g>
</g>
</svg>
