<?xml version="1.0" encoding="UTF-8" standalone="no"?>
<!DOCTYPE svg PUBLIC "-//W3C//DTD SVG 1.1//EN"
 "http://www.w3.org/Graphics/SVG/1.1/DTD/svg11.dtd">
<!-- Generated by graphviz version 2.36.0 (20140111.2315)
 -->
<!-- Title: /home/dagal/git/DamierGL/DamierGL/src/CGL/CGLObject.h Pages: 1 -->
<svg width="2674pt" height="516pt"
 viewBox="0.00 0.00 2674.00 516.00" xmlns="http://www.w3.org/2000/svg" xmlns:xlink="http://www.w3.org/1999/xlink">
<g id="graph0" class="graph" transform="scale(1 1) rotate(0) translate(4 512)">
<title>/home/dagal/git/DamierGL/DamierGL/src/CGL/CGLObject.h</title>
<polygon fill="white" stroke="none" points="-4,4 -4,-512 2670,-512 2670,4 -4,4"/>
<!-- Node1 -->
<g id="node1" class="node"><title>Node1</title>
<polygon fill="#bfbfbf" stroke="black" points="1058,-477 1058,-507 1222,-507 1222,-477 1058,-477"/>
<text text-anchor="start" x="1066" y="-495" font-family="Helvetica,sans-Serif" font-size="10.00">/home/dagal/git/DamierGL</text>
<text text-anchor="middle" x="1140" y="-484" font-family="Helvetica,sans-Serif" font-size="10.00">/DamierGL/src/CGL/CGLObject.h</text>
</g>
<!-- Node2 -->
<g id="node2" class="node"><title>Node2</title>
<g id="a_node2"><a xlink:href="../../d2/d5a/_c_g_l_item_8h.xhtml" target="_top" xlink:title="/home/dagal/git/DamierGL\l/DamierGL/src/CGL/CGLItem.h">
<polygon fill="white" stroke="black" points="600.5,-205 600.5,-235 755.5,-235 755.5,-205 600.5,-205"/>
<text text-anchor="start" x="608.5" y="-223" font-family="Helvetica,sans-Serif" font-size="10.00">/home/dagal/git/DamierGL</text>
<text text-anchor="middle" x="678" y="-212" font-family="Helvetica,sans-Serif" font-size="10.00">/DamierGL/src/CGL/CGLItem.h</text>
</a>
</g>
</g>
<!-- Node1&#45;&gt;Node2 -->
<g id="edge1" class="edge"><title>Node1&#45;&gt;Node2</title>
<path fill="none" stroke="midnightblue" d="M1049.66,-474.727C976.109,-458.142 872.338,-426.857 796,-372 742.775,-333.752 701.589,-264.951 685.433,-235.27"/>
<polygon fill="midnightblue" stroke="midnightblue" points="1049.31,-478.234 1059.83,-476.97 1050.82,-471.399 1049.31,-478.234"/>
</g>
<!-- Node16 -->
<g id="node16" class="node"><title>Node16</title>
<g id="a_node16"><a xlink:href="../../dc/db8/_c_g_l_special_8h.xhtml" target="_top" xlink:title="/home/dagal/git/DamierGL\l/DamierGL/src/CGL/CGLSpecial.h">
<polygon fill="white" stroke="black" points="998.5,-409 998.5,-439 1165.5,-439 1165.5,-409 998.5,-409"/>
<text text-anchor="start" x="1006.5" y="-427" font-family="Helvetica,sans-Serif" font-size="10.00">/home/dagal/git/DamierGL</text>
<text text-anchor="middle" x="1082" y="-416" font-family="Helvetica,sans-Serif" font-size="10.00">/DamierGL/src/CGL/CGLSpecial.h</text>
</a>
</g>
</g>
<!-- Node1&#45;&gt;Node16 -->
<g id="edge18" class="edge"><title>Node1&#45;&gt;Node16</title>
<path fill="none" stroke="midnightblue" d="M1120.58,-468.901C1112,-459.136 1102.16,-447.936 1094.56,-439.293"/>
<polygon fill="midnightblue" stroke="midnightblue" points="1118.18,-471.478 1127.41,-476.679 1123.44,-466.857 1118.18,-471.478"/>
</g>
<!-- Node27 -->
<g id="node27" class="node"><title>Node27</title>
<g id="a_node27"><a xlink:href="../../d7/d27/_c_g_l_effect_8h.xhtml" target="_top" xlink:title="/home/dagal/git/DamierGL\l/DamierGL/src/CGL/CGLEffect.h">
<polygon fill="white" stroke="black" points="1396.5,-273 1396.5,-303 1557.5,-303 1557.5,-273 1396.5,-273"/>
<text text-anchor="start" x="1404.5" y="-291" font-family="Helvetica,sans-Serif" font-size="10.00">/home/dagal/git/DamierGL</text>
<text text-anchor="middle" x="1477" y="-280" font-family="Helvetica,sans-Serif" font-size="10.00">/DamierGL/src/CGL/CGLEffect.h</text>
</a>
</g>
</g>
<!-- Node1&#45;&gt;Node27 -->
<g id="edge31" class="edge"><title>Node1&#45;&gt;Node27</title>
<path fill="none" stroke="midnightblue" d="M1157.05,-468.518C1171.68,-450.388 1194.13,-425.167 1218,-408 1286.89,-358.444 1379.72,-321.879 1433.49,-303.139"/>
<polygon fill="midnightblue" stroke="midnightblue" points="1153.97,-466.766 1150.52,-476.783 1159.47,-471.104 1153.97,-466.766"/>
</g>
<!-- Node41 -->
<g id="node41" class="node"><title>Node41</title>
<g id="a_node41"><a xlink:href="../../da/d25/_c_g_l_object_8cpp.xhtml" target="_top" xlink:title="/home/dagal/git/DamierGL\l/DamierGL/src/CGL/CGLObject.cpp">
<polygon fill="white" stroke="black" points="1227,-409 1227,-439 1401,-439 1401,-409 1227,-409"/>
<text text-anchor="start" x="1235" y="-427" font-family="Helvetica,sans-Serif" font-size="10.00">/home/dagal/git/DamierGL</text>
<text text-anchor="middle" x="1314" y="-416" font-family="Helvetica,sans-Serif" font-size="10.00">/DamierGL/src/CGL/CGLObject.cpp</text>
</a>
</g>
</g>
<!-- Node1&#45;&gt;Node41 -->
<g id="edge50" class="edge"><title>Node1&#45;&gt;Node41</title>
<path fill="none" stroke="midnightblue" d="M1187,-473.171C1215.28,-462.445 1250.77,-448.985 1277.03,-439.022"/>
<polygon fill="midnightblue" stroke="midnightblue" points="1185.44,-470.022 1177.33,-476.841 1187.92,-476.567 1185.44,-470.022"/>
</g>
<!-- Node3 -->
<g id="node3" class="node"><title>Node3</title>
<g id="a_node3"><a xlink:href="../../db/d17/_c_g_l_boite_8h.xhtml" target="_top" xlink:title="/home/dagal/git/DamierGL\l/DamierGL/src/CGL/CGLBoite.h">
<polygon fill="white" stroke="black" points="589,-137 589,-167 747,-167 747,-137 589,-137"/>
<text text-anchor="start" x="597" y="-155" font-family="Helvetica,sans-Serif" font-size="10.00">/home/dagal/git/DamierGL</text>
<text text-anchor="middle" x="668" y="-144" font-family="Helvetica,sans-Serif" font-size="10.00">/DamierGL/src/CGL/CGLBoite.h</text>
</a>
</g>
</g>
<!-- Node2&#45;&gt;Node3 -->
<g id="edge2" class="edge"><title>Node2&#45;&gt;Node3</title>
<path fill="none" stroke="midnightblue" d="M674.293,-194.532C672.903,-185.361 671.37,-175.245 670.166,-167.293"/>
<polygon fill="midnightblue" stroke="midnightblue" points="670.872,-195.316 675.83,-204.679 677.793,-194.267 670.872,-195.316"/>
</g>
<!-- Node9 -->
<g id="node9" class="node"><title>Node9</title>
<g id="a_node9"><a xlink:href="../../d5/d21/_c_g_l_dot_8h.xhtml" target="_top" xlink:title="/home/dagal/git/DamierGL\l/DamierGL/src/CGL/CGLDot.h">
<polygon fill="white" stroke="black" points="1168.5,-137 1168.5,-167 1319.5,-167 1319.5,-137 1168.5,-137"/>
<text text-anchor="start" x="1176.5" y="-155" font-family="Helvetica,sans-Serif" font-size="10.00">/home/dagal/git/DamierGL</text>
<text text-anchor="middle" x="1244" y="-144" font-family="Helvetica,sans-Serif" font-size="10.00">/DamierGL/src/CGL/CGLDot.h</text>
</a>
</g>
</g>
<!-- Node2&#45;&gt;Node9 -->
<g id="edge8" class="edge"><title>Node2&#45;&gt;Node9</title>
<path fill="none" stroke="midnightblue" d="M765.59,-206.275C771.479,-205.485 777.324,-204.719 783,-204 918.604,-186.818 1077.07,-169.998 1168.45,-160.615"/>
<polygon fill="midnightblue" stroke="midnightblue" points="765.097,-202.81 755.659,-207.624 766.039,-209.746 765.097,-202.81"/>
</g>
<!-- Node11 -->
<g id="node11" class="node"><title>Node11</title>
<g id="a_node11"><a xlink:href="../../da/dcb/_c_g_l_item_8cpp.xhtml" target="_top" xlink:title="/home/dagal/git/DamierGL\l/DamierGL/src/CGL/CGLItem.cpp">
<polygon fill="white" stroke="black" points="405.5,-137 405.5,-167 570.5,-167 570.5,-137 405.5,-137"/>
<text text-anchor="start" x="413.5" y="-155" font-family="Helvetica,sans-Serif" font-size="10.00">/home/dagal/git/DamierGL</text>
<text text-anchor="middle" x="488" y="-144" font-family="Helvetica,sans-Serif" font-size="10.00">/DamierGL/src/CGL/CGLItem.cpp</text>
</a>
</g>
</g>
<!-- Node2&#45;&gt;Node11 -->
<g id="edge11" class="edge"><title>Node2&#45;&gt;Node11</title>
<path fill="none" stroke="midnightblue" d="M627.483,-201.452C596.474,-190.68 557.299,-177.072 528.366,-167.022"/>
<polygon fill="midnightblue" stroke="midnightblue" points="626.645,-204.866 637.24,-204.841 628.942,-198.254 626.645,-204.866"/>
</g>
<!-- Node12 -->
<g id="node12" class="node"><title>Node12</title>
<g id="a_node12"><a xlink:href="../../df/d4a/_c_g_l_line_8h.xhtml" target="_top" xlink:title="/home/dagal/git/DamierGL\l/DamierGL/src/CGL/CGLLine.h">
<polygon fill="white" stroke="black" points="1372.5,-137 1372.5,-167 1525.5,-167 1525.5,-137 1372.5,-137"/>
<text text-anchor="start" x="1380.5" y="-155" font-family="Helvetica,sans-Serif" font-size="10.00">/home/dagal/git/DamierGL</text>
<text text-anchor="middle" x="1449" y="-144" font-family="Helvetica,sans-Serif" font-size="10.00">/DamierGL/src/CGL/CGLLine.h</text>
</a>
</g>
</g>
<!-- Node2&#45;&gt;Node12 -->
<g id="edge12" class="edge"><title>Node2&#45;&gt;Node12</title>
<path fill="none" stroke="midnightblue" d="M765.556,-205.984C771.454,-205.264 777.31,-204.594 783,-204 1024.44,-178.817 1086.34,-190.942 1328,-168 1342.33,-166.64 1357.58,-164.944 1372.26,-163.186"/>
<polygon fill="midnightblue" stroke="midnightblue" points="765.098,-202.514 755.614,-207.237 765.974,-209.459 765.098,-202.514"/>
</g>
<!-- Node14 -->
<g id="node14" class="node"><title>Node14</title>
<g id="a_node14"><a xlink:href="../../d2/d91/_c_g_l_quad_8h.xhtml" target="_top" xlink:title="/home/dagal/git/DamierGL\l/DamierGL/src/CGL/CGLQuad.h">
<polygon fill="white" stroke="black" points="117,-137 117,-167 275,-167 275,-137 117,-137"/>
<text text-anchor="start" x="125" y="-155" font-family="Helvetica,sans-Serif" font-size="10.00">/home/dagal/git/DamierGL</text>
<text text-anchor="middle" x="196" y="-144" font-family="Helvetica,sans-Serif" font-size="10.00">/DamierGL/src/CGL/CGLQuad.h</text>
</a>
</g>
</g>
<!-- Node2&#45;&gt;Node14 -->
<g id="edge15" class="edge"><title>Node2&#45;&gt;Node14</title>
<path fill="none" stroke="midnightblue" d="M590.117,-206.966C500.207,-194.655 361.764,-175.698 275.16,-163.839"/>
<polygon fill="midnightblue" stroke="midnightblue" points="589.908,-210.47 600.291,-208.359 590.858,-203.535 589.908,-210.47"/>
</g>
<!-- Node4 -->
<g id="node4" class="node"><title>Node4</title>
<g id="a_node4"><a xlink:href="../../da/d3e/_c_g_l_boite_8cpp.xhtml" target="_top" xlink:title="/home/dagal/git/DamierGL\l/DamierGL/src/CGL/CGLBoite.cpp">
<polygon fill="white" stroke="black" points="408,-69 408,-99 576,-99 576,-69 408,-69"/>
<text text-anchor="start" x="416" y="-87" font-family="Helvetica,sans-Serif" font-size="10.00">/home/dagal/git/DamierGL</text>
<text text-anchor="middle" x="492" y="-76" font-family="Helvetica,sans-Serif" font-size="10.00">/DamierGL/src/CGL/CGLBoite.cpp</text>
</a>
</g>
</g>
<!-- Node3&#45;&gt;Node4 -->
<g id="edge3" class="edge"><title>Node3&#45;&gt;Node4</title>
<path fill="none" stroke="midnightblue" d="M620.832,-133.312C592.167,-122.563 556.077,-109.029 529.392,-99.0218"/>
<polygon fill="midnightblue" stroke="midnightblue" points="619.651,-136.607 630.244,-136.841 622.109,-130.053 619.651,-136.607"/>
</g>
<!-- Node5 -->
<g id="node5" class="node"><title>Node5</title>
<g id="a_node5"><a xlink:href="../../d7/df3/_c_g_l_robot1_8h.xhtml" target="_top" xlink:title="/home/dagal/git/DamierGL\l/DamierGL/src/CGL/CGLRobot1.h">
<polygon fill="white" stroke="black" points="223.5,-69 223.5,-99 390.5,-99 390.5,-69 223.5,-69"/>
<text text-anchor="start" x="231.5" y="-87" font-family="Helvetica,sans-Serif" font-size="10.00">/home/dagal/git/DamierGL</text>
<text text-anchor="middle" x="307" y="-76" font-family="Helvetica,sans-Serif" font-size="10.00">/DamierGL/src/CGL/CGLRobot1.h</text>
</a>
</g>
</g>
<!-- Node3&#45;&gt;Node5 -->
<g id="edge4" class="edge"><title>Node3&#45;&gt;Node5</title>
<path fill="none" stroke="midnightblue" d="M581.143,-135.12C521.017,-124.128 441.719,-109.63 383.882,-99.0561"/>
<polygon fill="midnightblue" stroke="midnightblue" points="580.533,-138.567 590.999,-136.922 581.792,-131.681 580.533,-138.567"/>
</g>
<!-- Node8 -->
<g id="node8" class="node"><title>Node8</title>
<g id="a_node8"><a xlink:href="../../d0/d58/_c_g_l_scene_8cpp.xhtml" target="_top" xlink:title="/home/dagal/git/DamierGL\l/DamierGL/src/CGL/CGLScene.cpp">
<polygon fill="white" stroke="black" points="594.5,-69 594.5,-99 767.5,-99 767.5,-69 594.5,-69"/>
<text text-anchor="start" x="602.5" y="-87" font-family="Helvetica,sans-Serif" font-size="10.00">/home/dagal/git/DamierGL</text>
<text text-anchor="middle" x="681" y="-76" font-family="Helvetica,sans-Serif" font-size="10.00">/DamierGL/src/CGL/CGLScene.cpp</text>
</a>
</g>
</g>
<!-- Node3&#45;&gt;Node8 -->
<g id="edge7" class="edge"><title>Node3&#45;&gt;Node8</title>
<path fill="none" stroke="midnightblue" d="M672.761,-126.831C674.583,-117.581 676.601,-107.331 678.185,-99.2931"/>
<polygon fill="midnightblue" stroke="midnightblue" points="669.319,-126.191 670.821,-136.679 676.187,-127.544 669.319,-126.191"/>
</g>
<!-- Node6 -->
<g id="node6" class="node"><title>Node6</title>
<g id="a_node6"><a xlink:href="../../dc/d01/_c_g_l_robot1_8cpp.xhtml" target="_top" xlink:title="/home/dagal/git/DamierGL\l/DamierGL/src/CGL/CGLRobot1.cpp">
<polygon fill="white" stroke="black" points="218.5,-1 218.5,-31 395.5,-31 395.5,-1 218.5,-1"/>
<text text-anchor="start" x="226.5" y="-19" font-family="Helvetica,sans-Serif" font-size="10.00">/home/dagal/git/DamierGL</text>
<text text-anchor="middle" x="307" y="-8" font-family="Helvetica,sans-Serif" font-size="10.00">/DamierGL/src/CGL/CGLRobot1.cpp</text>
</a>
</g>
</g>
<!-- Node5&#45;&gt;Node6 -->
<g id="edge5" class="edge"><title>Node5&#45;&gt;Node6</title>
<path fill="none" stroke="midnightblue" d="M307,-58.5322C307,-49.3606 307,-39.2449 307,-31.2931"/>
<polygon fill="midnightblue" stroke="midnightblue" points="303.5,-58.6789 307,-68.679 310.5,-58.679 303.5,-58.6789"/>
</g>
<!-- Node7 -->
<g id="node7" class="node"><title>Node7</title>
<g id="a_node7"><a xlink:href="../../db/dec/_damier_g_l_8cpp.xhtml" target="_top" xlink:title="/home/dagal/git/DamierGL\l/DamierGL/src/DamierGL.cpp">
<polygon fill="white" stroke="black" points="1318,-1 1318,-31 1464,-31 1464,-1 1318,-1"/>
<text text-anchor="start" x="1326" y="-19" font-family="Helvetica,sans-Serif" font-size="10.00">/home/dagal/git/DamierGL</text>
<text text-anchor="middle" x="1391" y="-8" font-family="Helvetica,sans-Serif" font-size="10.00">/DamierGL/src/DamierGL.cpp</text>
</a>
</g>
</g>
<!-- Node5&#45;&gt;Node7 -->
<g id="edge6" class="edge"><title>Node5&#45;&gt;Node7</title>
<path fill="none" stroke="midnightblue" d="M400.847,-67.8978C596.203,-48.1883 1123.57,-27.0776 1317.91,-19.7095"/>
<polygon fill="midnightblue" stroke="midnightblue" points="400.268,-64.439 390.684,-68.9543 400.992,-71.4015 400.268,-64.439"/>
</g>
<!-- Node9&#45;&gt;Node7 -->
<g id="edge10" class="edge"><title>Node9&#45;&gt;Node7</title>
<path fill="none" stroke="midnightblue" d="M1285.44,-132.149C1301.36,-123.704 1319.05,-112.757 1333,-100 1355.45,-79.4795 1374.04,-48.7893 1383.74,-31.0456"/>
<polygon fill="midnightblue" stroke="midnightblue" points="1283.61,-129.151 1276.31,-136.826 1286.8,-135.381 1283.61,-129.151"/>
</g>
<!-- Node10 -->
<g id="node10" class="node"><title>Node10</title>
<g id="a_node10"><a xlink:href="../../d2/d5a/_c_g_l_dot_8cpp.xhtml" target="_top" xlink:title="/home/dagal/git/DamierGL\l/DamierGL/src/CGL/CGLDot.cpp">
<polygon fill="white" stroke="black" points="1163.5,-69 1163.5,-99 1324.5,-99 1324.5,-69 1163.5,-69"/>
<text text-anchor="start" x="1171.5" y="-87" font-family="Helvetica,sans-Serif" font-size="10.00">/home/dagal/git/DamierGL</text>
<text text-anchor="middle" x="1244" y="-76" font-family="Helvetica,sans-Serif" font-size="10.00">/DamierGL/src/CGL/CGLDot.cpp</text>
</a>
</g>
</g>
<!-- Node9&#45;&gt;Node10 -->
<g id="edge9" class="edge"><title>Node9&#45;&gt;Node10</title>
<path fill="none" stroke="midnightblue" d="M1244,-126.532C1244,-117.361 1244,-107.245 1244,-99.2931"/>
<polygon fill="midnightblue" stroke="midnightblue" points="1240.5,-126.679 1244,-136.679 1247.5,-126.679 1240.5,-126.679"/>
</g>
<!-- Node12&#45;&gt;Node7 -->
<g id="edge14" class="edge"><title>Node12&#45;&gt;Node7</title>
<path fill="none" stroke="midnightblue" d="M1429.1,-129.276C1422.15,-120.691 1414.88,-110.399 1410,-100 1399.32,-77.2521 1394.45,-48.115 1392.38,-31.1057"/>
<polygon fill="midnightblue" stroke="midnightblue" points="1426.44,-131.555 1435.57,-136.933 1431.79,-127.036 1426.44,-131.555"/>
</g>
<!-- Node13 -->
<g id="node13" class="node"><title>Node13</title>
<g id="a_node13"><a xlink:href="../../df/de2/_c_g_l_line_8cpp.xhtml" target="_top" xlink:title="/home/dagal/git/DamierGL\l/DamierGL/src/CGL/CGLLine.cpp">
<polygon fill="white" stroke="black" points="1419,-69 1419,-99 1583,-99 1583,-69 1419,-69"/>
<text text-anchor="start" x="1427" y="-87" font-family="Helvetica,sans-Serif" font-size="10.00">/home/dagal/git/DamierGL</text>
<text text-anchor="middle" x="1501" y="-76" font-family="Helvetica,sans-Serif" font-size="10.00">/DamierGL/src/CGL/CGLLine.cpp</text>
</a>
</g>
</g>
<!-- Node12&#45;&gt;Node13 -->
<g id="edge13" class="edge"><title>Node12&#45;&gt;Node13</title>
<path fill="none" stroke="midnightblue" d="M1466.64,-128.608C1474.28,-118.912 1483,-107.85 1489.74,-99.2931"/>
<polygon fill="midnightblue" stroke="midnightblue" points="1463.72,-126.658 1460.28,-136.679 1469.22,-130.99 1463.72,-126.658"/>
</g>
<!-- Node14&#45;&gt;Node7 -->
<g id="edge17" class="edge"><title>Node14&#45;&gt;Node7</title>
<path fill="none" stroke="midnightblue" d="M194,-126.908C193.875,-107.832 197.24,-82.1247 214,-68 224.6,-59.0671 1061.97,-28.6672 1317.67,-19.5836"/>
<polygon fill="midnightblue" stroke="midnightblue" points="190.505,-127.111 194.383,-136.971 197.5,-126.845 190.505,-127.111"/>
</g>
<!-- Node15 -->
<g id="node15" class="node"><title>Node15</title>
<g id="a_node15"><a xlink:href="../../d4/d6e/_c_g_l_quad_8cpp.xhtml" target="_top" xlink:title="/home/dagal/git/DamierGL\l/DamierGL/src/CGL/CGLQuad.cpp">
<polygon fill="white" stroke="black" points="-0.5,-69 -0.5,-99 168.5,-99 168.5,-69 -0.5,-69"/>
<text text-anchor="start" x="7.5" y="-87" font-family="Helvetica,sans-Serif" font-size="10.00">/home/dagal/git/DamierGL</text>
<text text-anchor="middle" x="84" y="-76" font-family="Helvetica,sans-Serif" font-size="10.00">/DamierGL/src/CGL/CGLQuad.cpp</text>
</a>
</g>
</g>
<!-- Node14&#45;&gt;Node15 -->
<g id="edge16" class="edge"><title>Node14&#45;&gt;Node15</title>
<path fill="none" stroke="midnightblue" d="M163.123,-131.626C145.458,-121.217 124.07,-108.613 107.987,-99.1352"/>
<polygon fill="midnightblue" stroke="midnightblue" points="161.581,-134.78 171.973,-136.841 165.135,-128.749 161.581,-134.78"/>
</g>
<!-- Node17 -->
<g id="node17" class="node"><title>Node17</title>
<g id="a_node17"><a xlink:href="../../df/d5b/_c_g_l_camera_8h.xhtml" target="_top" xlink:title="/home/dagal/git/DamierGL\l/DamierGL/src/CGL/CGLCamera.h">
<polygon fill="white" stroke="black" points="805,-341 805,-371 975,-371 975,-341 805,-341"/>
<text text-anchor="start" x="813" y="-359" font-family="Helvetica,sans-Serif" font-size="10.00">/home/dagal/git/DamierGL</text>
<text text-anchor="middle" x="890" y="-348" font-family="Helvetica,sans-Serif" font-size="10.00">/DamierGL/src/CGL/CGLCamera.h</text>
</a>
</g>
</g>
<!-- Node16&#45;&gt;Node17 -->
<g id="edge19" class="edge"><title>Node16&#45;&gt;Node17</title>
<path fill="none" stroke="midnightblue" d="M1030.95,-405.452C999.616,-394.68 960.028,-381.072 930.791,-371.022"/>
<polygon fill="midnightblue" stroke="midnightblue" points="1030.22,-408.9 1040.81,-408.841 1032.49,-402.281 1030.22,-408.9"/>
</g>
<!-- Node26 -->
<g id="node26" class="node"><title>Node26</title>
<g id="a_node26"><a xlink:href="../../d7/dcc/_c_g_l_special_8cpp.xhtml" target="_top" xlink:title="/home/dagal/git/DamierGL\l/DamierGL/src/CGL/CGLSpecial.cpp">
<polygon fill="white" stroke="black" points="993,-341 993,-371 1171,-371 1171,-341 993,-341"/>
<text text-anchor="start" x="1001" y="-359" font-family="Helvetica,sans-Serif" font-size="10.00">/home/dagal/git/DamierGL</text>
<text text-anchor="middle" x="1082" y="-348" font-family="Helvetica,sans-Serif" font-size="10.00">/DamierGL/src/CGL/CGLSpecial.cpp</text>
</a>
</g>
</g>
<!-- Node16&#45;&gt;Node26 -->
<g id="edge30" class="edge"><title>Node16&#45;&gt;Node26</title>
<path fill="none" stroke="midnightblue" d="M1082,-398.532C1082,-389.361 1082,-379.245 1082,-371.293"/>
<polygon fill="midnightblue" stroke="midnightblue" points="1078.5,-398.679 1082,-408.679 1085.5,-398.679 1078.5,-398.679"/>
</g>
<!-- Node18 -->
<g id="node18" class="node"><title>Node18</title>
<g id="a_node18"><a xlink:href="../../dd/d43/_c_g_l_camera_8cpp.xhtml" target="_top" xlink:title="/home/dagal/git/DamierGL\l/DamierGL/src/CGL/CGLCamera.cpp">
<polygon fill="white" stroke="black" points="753,-273 753,-303 933,-303 933,-273 753,-273"/>
<text text-anchor="start" x="761" y="-291" font-family="Helvetica,sans-Serif" font-size="10.00">/home/dagal/git/DamierGL</text>
<text text-anchor="middle" x="843" y="-280" font-family="Helvetica,sans-Serif" font-size="10.00">/DamierGL/src/CGL/CGLCamera.cpp</text>
</a>
</g>
</g>
<!-- Node17&#45;&gt;Node18 -->
<g id="edge20" class="edge"><title>Node17&#45;&gt;Node18</title>
<path fill="none" stroke="midnightblue" d="M873.845,-332.314C866.991,-322.689 859.21,-311.763 853.178,-303.293"/>
<polygon fill="midnightblue" stroke="midnightblue" points="871.15,-334.564 879.802,-340.679 876.852,-330.503 871.15,-334.564"/>
</g>
<!-- Node19 -->
<g id="node19" class="node"><title>Node19</title>
<g id="a_node19"><a xlink:href="../../d5/d86/_c_g_l_camera_list_8h.xhtml" target="_top" xlink:title="/home/dagal/git/DamierGL\l/DamierGL/src/CGL/CGLCameraList.h">
<polygon fill="white" stroke="black" points="951.5,-273 951.5,-303 1136.5,-303 1136.5,-273 951.5,-273"/>
<text text-anchor="start" x="959.5" y="-291" font-family="Helvetica,sans-Serif" font-size="10.00">/home/dagal/git/DamierGL</text>
<text text-anchor="middle" x="1044" y="-280" font-family="Helvetica,sans-Serif" font-size="10.00">/DamierGL/src/CGL/CGLCameraList.h</text>
</a>
</g>
</g>
<!-- Node17&#45;&gt;Node19 -->
<g id="edge21" class="edge"><title>Node17&#45;&gt;Node19</title>
<path fill="none" stroke="midnightblue" d="M932.257,-336.89C957.176,-326.21 988.238,-312.898 1011.28,-303.022"/>
<polygon fill="midnightblue" stroke="midnightblue" points="930.85,-333.685 923.037,-340.841 933.607,-340.119 930.85,-333.685"/>
</g>
<!-- Node20 -->
<g id="node20" class="node"><title>Node20</title>
<g id="a_node20"><a xlink:href="../../df/d1a/_c_g_l_camera_list_8cpp.xhtml" target="_top" xlink:title="/home/dagal/git/DamierGL\l/DamierGL/src/CGL/CGLCameraList.cpp">
<polygon fill="white" stroke="black" points="974,-205 974,-235 1170,-235 1170,-205 974,-205"/>
<text text-anchor="start" x="982" y="-223" font-family="Helvetica,sans-Serif" font-size="10.00">/home/dagal/git/DamierGL</text>
<text text-anchor="middle" x="1072" y="-212" font-family="Helvetica,sans-Serif" font-size="10.00">/DamierGL/src/CGL/CGLCameraList.cpp</text>
</a>
</g>
</g>
<!-- Node19&#45;&gt;Node20 -->
<g id="edge22" class="edge"><title>Node19&#45;&gt;Node20</title>
<path fill="none" stroke="midnightblue" d="M1054,-263.426C1057.99,-254.023 1062.45,-243.504 1065.94,-235.293"/>
<polygon fill="midnightblue" stroke="midnightblue" points="1050.76,-262.106 1050.08,-272.679 1057.2,-264.84 1050.76,-262.106"/>
</g>
<!-- Node21 -->
<g id="node21" class="node"><title>Node21</title>
<g id="a_node21"><a xlink:href="../../d0/dc9/_c_g_l_scene_8h.xhtml" target="_top" xlink:title="/home/dagal/git/DamierGL\l/DamierGL/src/CGL/CGLScene.h">
<polygon fill="white" stroke="black" points="792.5,-205 792.5,-235 955.5,-235 955.5,-205 792.5,-205"/>
<text text-anchor="start" x="800.5" y="-223" font-family="Helvetica,sans-Serif" font-size="10.00">/home/dagal/git/DamierGL</text>
<text text-anchor="middle" x="874" y="-212" font-family="Helvetica,sans-Serif" font-size="10.00">/DamierGL/src/CGL/CGLScene.h</text>
</a>
</g>
</g>
<!-- Node19&#45;&gt;Node21 -->
<g id="edge23" class="edge"><title>Node19&#45;&gt;Node21</title>
<path fill="none" stroke="midnightblue" d="M998.078,-269.171C970.45,-258.445 935.78,-244.985 910.117,-235.022"/>
<polygon fill="midnightblue" stroke="midnightblue" points="996.942,-272.485 1007.53,-272.841 999.475,-265.959 996.942,-272.485"/>
</g>
<!-- Node21&#45;&gt;Node8 -->
<g id="edge24" class="edge"><title>Node21&#45;&gt;Node8</title>
<path fill="none" stroke="midnightblue" d="M841.605,-199.574C826.815,-190.397 809.239,-179.049 794,-168 775.848,-154.839 772.913,-149.485 755,-136 737.673,-122.956 717.346,-109.042 702.384,-99.0475"/>
<polygon fill="midnightblue" stroke="midnightblue" points="840.055,-202.731 850.407,-204.986 843.722,-196.767 840.055,-202.731"/>
</g>
<!-- Node22 -->
<g id="node22" class="node"><title>Node22</title>
<g id="a_node22"><a xlink:href="../../d6/d37/_c_g_l_world_8h.xhtml" target="_top" xlink:title="/home/dagal/git/DamierGL\l/DamierGL/src/CGL/CGLWorld.h">
<polygon fill="white" stroke="black" points="803.5,-137 803.5,-167 964.5,-167 964.5,-137 803.5,-137"/>
<text text-anchor="start" x="811.5" y="-155" font-family="Helvetica,sans-Serif" font-size="10.00">/home/dagal/git/DamierGL</text>
<text text-anchor="middle" x="884" y="-144" font-family="Helvetica,sans-Serif" font-size="10.00">/DamierGL/src/CGL/CGLWorld.h</text>
</a>
</g>
</g>
<!-- Node21&#45;&gt;Node22 -->
<g id="edge25" class="edge"><title>Node21&#45;&gt;Node22</title>
<path fill="none" stroke="midnightblue" d="M877.707,-194.532C879.097,-185.361 880.63,-175.245 881.834,-167.293"/>
<polygon fill="midnightblue" stroke="midnightblue" points="874.207,-194.267 876.17,-204.679 881.128,-195.316 874.207,-194.267"/>
</g>
<!-- Node23 -->
<g id="node23" class="node"><title>Node23</title>
<g id="a_node23"><a xlink:href="../../de/d96/_c_g_l_window_8h.xhtml" target="_top" xlink:title="/home/dagal/git/DamierGL\l/DamierGL/src/CGL/CGLWindow.h">
<polygon fill="white" stroke="black" points="786,-69 786,-99 956,-99 956,-69 786,-69"/>
<text text-anchor="start" x="794" y="-87" font-family="Helvetica,sans-Serif" font-size="10.00">/home/dagal/git/DamierGL</text>
<text text-anchor="middle" x="871" y="-76" font-family="Helvetica,sans-Serif" font-size="10.00">/DamierGL/src/CGL/CGLWindow.h</text>
</a>
</g>
</g>
<!-- Node22&#45;&gt;Node23 -->
<g id="edge26" class="edge"><title>Node22&#45;&gt;Node23</title>
<path fill="none" stroke="midnightblue" d="M879.239,-126.831C877.417,-117.581 875.399,-107.331 873.815,-99.2931"/>
<polygon fill="midnightblue" stroke="midnightblue" points="875.813,-127.544 881.179,-136.679 882.681,-126.191 875.813,-127.544"/>
</g>
<!-- Node25 -->
<g id="node25" class="node"><title>Node25</title>
<g id="a_node25"><a xlink:href="../../dd/d05/_c_g_l_world_8cpp.xhtml" target="_top" xlink:title="/home/dagal/git/DamierGL\l/DamierGL/src/CGL/CGLWorld.cpp">
<polygon fill="white" stroke="black" points="974.5,-69 974.5,-99 1145.5,-99 1145.5,-69 974.5,-69"/>
<text text-anchor="start" x="982.5" y="-87" font-family="Helvetica,sans-Serif" font-size="10.00">/home/dagal/git/DamierGL</text>
<text text-anchor="middle" x="1060" y="-76" font-family="Helvetica,sans-Serif" font-size="10.00">/DamierGL/src/CGL/CGLWorld.cpp</text>
</a>
</g>
</g>
<!-- Node22&#45;&gt;Node25 -->
<g id="edge29" class="edge"><title>Node22&#45;&gt;Node25</title>
<path fill="none" stroke="midnightblue" d="M931.168,-133.312C959.833,-122.563 995.923,-109.029 1022.61,-99.0218"/>
<polygon fill="midnightblue" stroke="midnightblue" points="929.891,-130.053 921.756,-136.841 932.349,-136.607 929.891,-130.053"/>
</g>
<!-- Node23&#45;&gt;Node7 -->
<g id="edge28" class="edge"><title>Node23&#45;&gt;Node7</title>
<path fill="none" stroke="midnightblue" d="M966.149,-67.8711C1095.85,-49.9173 1234.96,-34.0032 1317.77,-24.8867"/>
<polygon fill="midnightblue" stroke="midnightblue" points="965.454,-64.4339 956.032,-69.2784 966.419,-71.3672 965.454,-64.4339"/>
</g>
<!-- Node24 -->
<g id="node24" class="node"><title>Node24</title>
<g id="a_node24"><a xlink:href="../../df/d9a/_c_g_l_window_8cpp.xhtml" target="_top" xlink:title="/home/dagal/git/DamierGL\l/DamierGL/src/CGL/CGLWindow.cpp">
<polygon fill="white" stroke="black" points="780.5,-1 780.5,-31 961.5,-31 961.5,-1 780.5,-1"/>
<text text-anchor="start" x="788.5" y="-19" font-family="Helvetica,sans-Serif" font-size="10.00">/home/dagal/git/DamierGL</text>
<text text-anchor="middle" x="871" y="-8" font-family="Helvetica,sans-Serif" font-size="10.00">/DamierGL/src/CGL/CGLWindow.cpp</text>
</a>
</g>
</g>
<!-- Node23&#45;&gt;Node24 -->
<g id="edge27" class="edge"><title>Node23&#45;&gt;Node24</title>
<path fill="none" stroke="midnightblue" d="M871,-58.5322C871,-49.3606 871,-39.2449 871,-31.2931"/>
<polygon fill="midnightblue" stroke="midnightblue" points="867.5,-58.6789 871,-68.679 874.5,-58.679 867.5,-58.6789"/>
</g>
<!-- Node28 -->
<g id="node28" class="node"><title>Node28</title>
<g id="a_node28"><a xlink:href="../../dd/d83/_c_g_l_vector3_d_8h.xhtml" target="_top" xlink:title="/home/dagal/git/DamierGL\l/DamierGL/src/CGL/CGLVector3D.h">
<polygon fill="white" stroke="black" points="1761,-205 1761,-235 1937,-235 1937,-205 1761,-205"/>
<text text-anchor="start" x="1769" y="-223" font-family="Helvetica,sans-Serif" font-size="10.00">/home/dagal/git/DamierGL</text>
<text text-anchor="middle" x="1849" y="-212" font-family="Helvetica,sans-Serif" font-size="10.00">/DamierGL/src/CGL/CGLVector3D.h</text>
</a>
</g>
</g>
<!-- Node27&#45;&gt;Node28 -->
<g id="edge32" class="edge"><title>Node27&#45;&gt;Node28</title>
<path fill="none" stroke="midnightblue" d="M1566.5,-271.12C1628.46,-260.128 1710.18,-245.63 1769.77,-235.056"/>
<polygon fill="midnightblue" stroke="midnightblue" points="1565.58,-267.729 1556.35,-272.922 1566.8,-274.621 1565.58,-267.729"/>
</g>
<!-- Node40 -->
<g id="node40" class="node"><title>Node40</title>
<g id="a_node40"><a xlink:href="../../d7/da1/_c_g_l_effect_8cpp.xhtml" target="_top" xlink:title="/home/dagal/git/DamierGL\l/DamierGL/src/CGL/CGLEffect.cpp">
<polygon fill="white" stroke="black" points="1391,-205 1391,-235 1563,-235 1563,-205 1391,-205"/>
<text text-anchor="start" x="1399" y="-223" font-family="Helvetica,sans-Serif" font-size="10.00">/home/dagal/git/DamierGL</text>
<text text-anchor="middle" x="1477" y="-212" font-family="Helvetica,sans-Serif" font-size="10.00">/DamierGL/src/CGL/CGLEffect.cpp</text>
</a>
</g>
</g>
<!-- Node27&#45;&gt;Node40 -->
<g id="edge49" class="edge"><title>Node27&#45;&gt;Node40</title>
<path fill="none" stroke="midnightblue" d="M1477,-262.532C1477,-253.361 1477,-243.245 1477,-235.293"/>
<polygon fill="midnightblue" stroke="midnightblue" points="1473.5,-262.679 1477,-272.679 1480.5,-262.679 1473.5,-262.679"/>
</g>
<!-- Node28&#45;&gt;Node12 -->
<g id="edge38" class="edge"><title>Node28&#45;&gt;Node12</title>
<path fill="none" stroke="midnightblue" d="M1753.58,-203.255C1683.88,-191.756 1590.62,-176.368 1525.74,-165.661"/>
<polygon fill="midnightblue" stroke="midnightblue" points="1753.24,-206.748 1763.68,-204.922 1754.38,-199.841 1753.24,-206.748"/>
</g>
<!-- Node29 -->
<g id="node29" class="node"><title>Node29</title>
<g id="a_node29"><a xlink:href="../../df/dcb/_c_g_l_vector4_d_8h.xhtml" target="_top" xlink:title="/home/dagal/git/DamierGL\l/DamierGL/src/CGL/CGLVector4D.h">
<polygon fill="white" stroke="black" points="2152,-137 2152,-167 2328,-167 2328,-137 2152,-137"/>
<text text-anchor="start" x="2160" y="-155" font-family="Helvetica,sans-Serif" font-size="10.00">/home/dagal/git/DamierGL</text>
<text text-anchor="middle" x="2240" y="-144" font-family="Helvetica,sans-Serif" font-size="10.00">/DamierGL/src/CGL/CGLVector4D.h</text>
</a>
</g>
</g>
<!-- Node28&#45;&gt;Node29 -->
<g id="edge33" class="edge"><title>Node28&#45;&gt;Node29</title>
<path fill="none" stroke="midnightblue" d="M1942.27,-203.256C2007.49,-192.247 2093.83,-177.674 2156.73,-167.056"/>
<polygon fill="midnightblue" stroke="midnightblue" points="1941.68,-199.807 1932.4,-204.922 1942.84,-206.709 1941.68,-199.807"/>
</g>
<!-- Node33 -->
<g id="node33" class="node"><title>Node33</title>
<g id="a_node33"><a xlink:href="../../db/d5d/_c_g_l_position_8h.xhtml" target="_top" xlink:title="/home/dagal/git/DamierGL\l/DamierGL/src/CGL/CGLPosition.h">
<polygon fill="white" stroke="black" points="2371,-137 2371,-167 2541,-167 2541,-137 2371,-137"/>
<text text-anchor="start" x="2379" y="-155" font-family="Helvetica,sans-Serif" font-size="10.00">/home/dagal/git/DamierGL</text>
<text text-anchor="middle" x="2456" y="-144" font-family="Helvetica,sans-Serif" font-size="10.00">/DamierGL/src/CGL/CGLPosition.h</text>
</a>
</g>
</g>
<!-- Node28&#45;&gt;Node33 -->
<g id="edge39" class="edge"><title>Node28&#45;&gt;Node33</title>
<path fill="none" stroke="midnightblue" d="M1947.26,-209.292C2045.67,-199.433 2201.41,-183.458 2336,-168 2347.26,-166.706 2359.11,-165.291 2370.8,-163.863"/>
<polygon fill="midnightblue" stroke="midnightblue" points="1946.64,-205.837 1937.04,-210.316 1947.33,-212.803 1946.64,-205.837"/>
</g>
<!-- Node35 -->
<g id="node35" class="node"><title>Node35</title>
<g id="a_node35"><a xlink:href="../../d5/d65/_c_g_l_rotation_8h.xhtml" target="_top" xlink:title="/home/dagal/git/DamierGL\l/DamierGL/src/CGL/CGLRotation.h">
<polygon fill="white" stroke="black" points="1579,-137 1579,-167 1751,-167 1751,-137 1579,-137"/>
<text text-anchor="start" x="1587" y="-155" font-family="Helvetica,sans-Serif" font-size="10.00">/home/dagal/git/DamierGL</text>
<text text-anchor="middle" x="1665" y="-144" font-family="Helvetica,sans-Serif" font-size="10.00">/DamierGL/src/CGL/CGLRotation.h</text>
</a>
</g>
</g>
<!-- Node28&#45;&gt;Node35 -->
<g id="edge42" class="edge"><title>Node28&#45;&gt;Node35</title>
<path fill="none" stroke="midnightblue" d="M1800.08,-201.452C1770.05,-190.68 1732.11,-177.072 1704.09,-167.022"/>
<polygon fill="midnightblue" stroke="midnightblue" points="1798.93,-204.759 1809.53,-204.841 1801.3,-198.17 1798.93,-204.759"/>
</g>
<!-- Node37 -->
<g id="node37" class="node"><title>Node37</title>
<g id="a_node37"><a xlink:href="../../d2/d1b/_c_g_l_scale_8h.xhtml" target="_top" xlink:title="/home/dagal/git/DamierGL\l/DamierGL/src/CGL/CGLScale.h">
<polygon fill="white" stroke="black" points="1769,-137 1769,-167 1929,-167 1929,-137 1769,-137"/>
<text text-anchor="start" x="1777" y="-155" font-family="Helvetica,sans-Serif" font-size="10.00">/home/dagal/git/DamierGL</text>
<text text-anchor="middle" x="1849" y="-144" font-family="Helvetica,sans-Serif" font-size="10.00">/DamierGL/src/CGL/CGLScale.h</text>
</a>
</g>
</g>
<!-- Node28&#45;&gt;Node37 -->
<g id="edge45" class="edge"><title>Node28&#45;&gt;Node37</title>
<path fill="none" stroke="midnightblue" d="M1849,-194.532C1849,-185.361 1849,-175.245 1849,-167.293"/>
<polygon fill="midnightblue" stroke="midnightblue" points="1845.5,-194.679 1849,-204.679 1852.5,-194.679 1845.5,-194.679"/>
</g>
<!-- Node39 -->
<g id="node39" class="node"><title>Node39</title>
<g id="a_node39"><a xlink:href="../../d5/d0d/_c_g_l_vector3_d_8cpp.xhtml" target="_top" xlink:title="/home/dagal/git/DamierGL\l/DamierGL/src/CGL/CGLVector3D.cpp">
<polygon fill="white" stroke="black" points="1947.5,-137 1947.5,-167 2134.5,-167 2134.5,-137 1947.5,-137"/>
<text text-anchor="start" x="1955.5" y="-155" font-family="Helvetica,sans-Serif" font-size="10.00">/home/dagal/git/DamierGL</text>
<text text-anchor="middle" x="2041" y="-144" font-family="Helvetica,sans-Serif" font-size="10.00">/DamierGL/src/CGL/CGLVector3D.cpp</text>
</a>
</g>
</g>
<!-- Node28&#45;&gt;Node39 -->
<g id="edge48" class="edge"><title>Node28&#45;&gt;Node39</title>
<path fill="none" stroke="midnightblue" d="M1900.05,-201.452C1931.38,-190.68 1970.97,-177.072 2000.21,-167.022"/>
<polygon fill="midnightblue" stroke="midnightblue" points="1898.51,-198.281 1890.19,-204.841 1900.78,-204.9 1898.51,-198.281"/>
</g>
<!-- Node30 -->
<g id="node30" class="node"><title>Node30</title>
<g id="a_node30"><a xlink:href="../../da/de7/_c_g_l_color_8h.xhtml" target="_top" xlink:title="/home/dagal/git/DamierGL\l/DamierGL/src/CGL/CGLColor.h">
<polygon fill="white" stroke="black" points="2270,-69 2270,-99 2428,-99 2428,-69 2270,-69"/>
<text text-anchor="start" x="2278" y="-87" font-family="Helvetica,sans-Serif" font-size="10.00">/home/dagal/git/DamierGL</text>
<text text-anchor="middle" x="2349" y="-76" font-family="Helvetica,sans-Serif" font-size="10.00">/DamierGL/src/CGL/CGLColor.h</text>
</a>
</g>
</g>
<!-- Node29&#45;&gt;Node30 -->
<g id="edge34" class="edge"><title>Node29&#45;&gt;Node30</title>
<path fill="none" stroke="midnightblue" d="M2272,-131.626C2289.19,-121.217 2310,-108.613 2325.66,-99.1352"/>
<polygon fill="midnightblue" stroke="midnightblue" points="2270.12,-128.668 2263.38,-136.841 2273.75,-134.656 2270.12,-128.668"/>
</g>
<!-- Node32 -->
<g id="node32" class="node"><title>Node32</title>
<g id="a_node32"><a xlink:href="../../d1/d00/_c_g_l_vector4_d_8cpp.xhtml" target="_top" xlink:title="/home/dagal/git/DamierGL\l/DamierGL/src/CGL/CGLVector4D.cpp">
<polygon fill="white" stroke="black" points="2065.5,-69 2065.5,-99 2252.5,-99 2252.5,-69 2065.5,-69"/>
<text text-anchor="start" x="2073.5" y="-87" font-family="Helvetica,sans-Serif" font-size="10.00">/home/dagal/git/DamierGL</text>
<text text-anchor="middle" x="2159" y="-76" font-family="Helvetica,sans-Serif" font-size="10.00">/DamierGL/src/CGL/CGLVector4D.cpp</text>
</a>
</g>
</g>
<!-- Node29&#45;&gt;Node32 -->
<g id="edge37" class="edge"><title>Node29&#45;&gt;Node32</title>
<path fill="none" stroke="midnightblue" d="M2214.61,-130.309C2202.13,-120.143 2187.42,-108.156 2176.26,-99.0663"/>
<polygon fill="midnightblue" stroke="midnightblue" points="2212.46,-133.076 2222.42,-136.679 2216.88,-127.649 2212.46,-133.076"/>
</g>
<!-- Node30&#45;&gt;Node7 -->
<g id="edge36" class="edge"><title>Node30&#45;&gt;Node7</title>
<path fill="none" stroke="midnightblue" d="M2259.68,-67.9349C1959.03,-34.152 1612.58,-22.3379 1464.28,-18.569"/>
<polygon fill="midnightblue" stroke="midnightblue" points="2259.57,-71.4454 2269.9,-69.0946 2260.36,-64.49 2259.57,-71.4454"/>
</g>
<!-- Node31 -->
<g id="node31" class="node"><title>Node31</title>
<g id="a_node31"><a xlink:href="../../da/d19/_c_g_l_color_8cpp.xhtml" target="_top" xlink:title="/home/dagal/git/DamierGL\l/DamierGL/src/CGL/CGLColor.cpp">
<polygon fill="white" stroke="black" points="2264.5,-1 2264.5,-31 2433.5,-31 2433.5,-1 2264.5,-1"/>
<text text-anchor="start" x="2272.5" y="-19" font-family="Helvetica,sans-Serif" font-size="10.00">/home/dagal/git/DamierGL</text>
<text text-anchor="middle" x="2349" y="-8" font-family="Helvetica,sans-Serif" font-size="10.00">/DamierGL/src/CGL/CGLColor.cpp</text>
</a>
</g>
</g>
<!-- Node30&#45;&gt;Node31 -->
<g id="edge35" class="edge"><title>Node30&#45;&gt;Node31</title>
<path fill="none" stroke="midnightblue" d="M2349,-58.5322C2349,-49.3606 2349,-39.2449 2349,-31.2931"/>
<polygon fill="midnightblue" stroke="midnightblue" points="2345.5,-58.6789 2349,-68.679 2352.5,-58.679 2345.5,-58.6789"/>
</g>
<!-- Node33&#45;&gt;Node7 -->
<g id="edge41" class="edge"><title>Node33&#45;&gt;Node7</title>
<path fill="none" stroke="midnightblue" d="M2457.35,-126.869C2456.98,-107.77 2452.97,-82.0515 2436,-68 2398.64,-37.0677 1695.95,-22.2461 1464.35,-18.1869"/>
<polygon fill="midnightblue" stroke="midnightblue" points="2453.85,-126.906 2457.23,-136.946 2460.85,-126.987 2453.85,-126.906"/>
</g>
<!-- Node34 -->
<g id="node34" class="node"><title>Node34</title>
<g id="a_node34"><a xlink:href="../../db/d18/_c_g_l_position_8cpp.xhtml" target="_top" xlink:title="/home/dagal/git/DamierGL\l/DamierGL/src/CGL/CGLPosition.cpp">
<polygon fill="white" stroke="black" points="2484.5,-69 2484.5,-99 2665.5,-99 2665.5,-69 2484.5,-69"/>
<text text-anchor="start" x="2492.5" y="-87" font-family="Helvetica,sans-Serif" font-size="10.00">/home/dagal/git/DamierGL</text>
<text text-anchor="middle" x="2575" y="-76" font-family="Helvetica,sans-Serif" font-size="10.00">/DamierGL/src/CGL/CGLPosition.cpp</text>
</a>
</g>
</g>
<!-- Node33&#45;&gt;Node34 -->
<g id="edge40" class="edge"><title>Node33&#45;&gt;Node34</title>
<path fill="none" stroke="midnightblue" d="M2490.42,-131.912C2509.28,-121.448 2532.27,-108.7 2549.51,-99.1352"/>
<polygon fill="midnightblue" stroke="midnightblue" points="2488.58,-128.93 2481.53,-136.841 2491.97,-135.052 2488.58,-128.93"/>
</g>
<!-- Node35&#45;&gt;Node7 -->
<g id="edge44" class="edge"><title>Node35&#45;&gt;Node7</title>
<path fill="none" stroke="midnightblue" d="M1650.95,-128.547C1637.94,-109.605 1616.87,-83.2139 1592,-68 1553.46,-44.4244 1504.4,-31.7071 1464.4,-24.8678"/>
<polygon fill="midnightblue" stroke="midnightblue" points="1648.06,-130.522 1656.51,-136.913 1653.89,-126.647 1648.06,-130.522"/>
</g>
<!-- Node36 -->
<g id="node36" class="node"><title>Node36</title>
<g id="a_node36"><a xlink:href="../../db/d63/_c_g_l_rotation_8cpp.xhtml" target="_top" xlink:title="/home/dagal/git/DamierGL\l/DamierGL/src/CGL/CGLRotation.cpp">
<polygon fill="white" stroke="black" points="1639,-69 1639,-99 1821,-99 1821,-69 1639,-69"/>
<text text-anchor="start" x="1647" y="-87" font-family="Helvetica,sans-Serif" font-size="10.00">/home/dagal/git/DamierGL</text>
<text text-anchor="middle" x="1730" y="-76" font-family="Helvetica,sans-Serif" font-size="10.00">/DamierGL/src/CGL/CGLRotation.cpp</text>
</a>
</g>
</g>
<!-- Node35&#45;&gt;Node36 -->
<g id="edge43" class="edge"><title>Node35&#45;&gt;Node36</title>
<path fill="none" stroke="midnightblue" d="M1686.19,-129.485C1695.94,-119.585 1707.24,-108.109 1715.92,-99.2931"/>
<polygon fill="midnightblue" stroke="midnightblue" points="1683.63,-127.098 1679.1,-136.679 1688.61,-132.01 1683.63,-127.098"/>
</g>
<!-- Node37&#45;&gt;Node7 -->
<g id="edge47" class="edge"><title>Node37&#45;&gt;Node7</title>
<path fill="none" stroke="midnightblue" d="M1850.4,-126.608C1850.05,-107.76 1846.2,-82.515 1830,-68 1803.32,-44.0923 1581.95,-27.9255 1464.14,-20.9284"/>
<polygon fill="midnightblue" stroke="midnightblue" points="1846.9,-126.792 1850.27,-136.837 1853.9,-126.883 1846.9,-126.792"/>
</g>
<!-- Node38 -->
<g id="node38" class="node"><title>Node38</title>
<g id="a_node38"><a xlink:href="../../dc/d61/_c_g_l_scale_8cpp.xhtml" target="_top" xlink:title="/home/dagal/git/DamierGL\l/DamierGL/src/CGL/CGLScale.cpp">
<polygon fill="white" stroke="black" points="1877,-69 1877,-99 2047,-99 2047,-69 1877,-69"/>
<text text-anchor="start" x="1885" y="-87" font-family="Helvetica,sans-Serif" font-size="10.00">/home/dagal/git/DamierGL</text>
<text text-anchor="middle" x="1962" y="-76" font-family="Helvetica,sans-Serif" font-size="10.00">/DamierGL/src/CGL/CGLScale.cpp</text>
</a>
</g>
</g>
<!-- Node37&#45;&gt;Node38 -->
<g id="edge46" class="edge"><title>Node37&#45;&gt;Node38</title>
<path fill="none" stroke="midnightblue" d="M1882.17,-131.626C1899.99,-121.217 1921.57,-108.613 1937.8,-99.1352"/>
<polygon fill="midnightblue" stroke="midnightblue" points="1880.11,-128.776 1873.24,-136.841 1883.64,-134.82 1880.11,-128.776"/>
</g>
</g>
</svg>
