<?xml version="1.0" encoding="UTF-8" standalone="no"?>
<!DOCTYPE svg PUBLIC "-//W3C//DTD SVG 1.1//EN"
 "http://www.w3.org/Graphics/SVG/1.1/DTD/svg11.dtd">
<!-- Generated by graphviz version 2.36.0 (20140111.2315)
 -->
<!-- Title: CGLScene::CGLScene Pages: 1 -->
<svg width="574pt" height="104pt"
 viewBox="0.00 0.00 574.00 104.00" xmlns="http://www.w3.org/2000/svg" xmlns:xlink="http://www.w3.org/1999/xlink">
<g id="graph0" class="graph" transform="scale(1 1) rotate(0) translate(4 100)">
<title>CGLScene::CGLScene</title>
<polygon fill="white" stroke="none" points="-4,4 -4,-100 570,-100 570,4 -4,4"/>
<!-- Node1 -->
<g id="node1" class="node"><title>Node1</title>
<polygon fill="#bfbfbf" stroke="black" points="0.5,-38.5 0.5,-57.5 119.5,-57.5 119.5,-38.5 0.5,-38.5"/>
<text text-anchor="middle" x="60" y="-45.5" font-family="Helvetica,sans-Serif" font-size="10.00">CGLScene::CGLScene</text>
</g>
<!-- Node2 -->
<g id="node2" class="node"><title>Node2</title>
<g id="a_node2"><a xlink:href="$d2/d76/class_c_g_l_object.xhtml#aacbe6a176989b2cef7bc2be472d5c512" xlink:title="CGLObject::setName">
<polygon fill="white" stroke="black" points="160.5,-76.5 160.5,-95.5 271.5,-95.5 271.5,-76.5 160.5,-76.5"/>
<text text-anchor="middle" x="216" y="-83.5" font-family="Helvetica,sans-Serif" font-size="10.00">CGLObject::setName</text>
</a>
</g>
</g>
<!-- Node1&#45;&gt;Node2 -->
<g id="edge1" class="edge"><title>Node1&#45;&gt;Node2</title>
<path fill="none" stroke="midnightblue" d="M99.8607,-57.589C120.091,-62.5809 145.021,-68.7324 166.504,-74.0334"/>
<polygon fill="midnightblue" stroke="midnightblue" points="165.871,-77.4823 176.419,-76.4799 167.548,-70.6861 165.871,-77.4823"/>
</g>
<!-- Node3 -->
<g id="node3" class="node"><title>Node3</title>
<g id="a_node3"><a xlink:href="$d2/d76/class_c_g_l_object.xhtml#a83b8918905a5449c94e4447791b61abd" xlink:title="CGLObject::addObject">
<polygon fill="white" stroke="black" points="312,-19.5 312,-38.5 428,-38.5 428,-19.5 312,-19.5"/>
<text text-anchor="middle" x="370" y="-26.5" font-family="Helvetica,sans-Serif" font-size="10.00">CGLObject::addObject</text>
</a>
</g>
</g>
<!-- Node1&#45;&gt;Node3 -->
<g id="edge2" class="edge"><title>Node1&#45;&gt;Node3</title>
<path fill="none" stroke="midnightblue" d="M119.657,-44.3815C171.554,-41.1801 247.266,-36.5096 301.63,-33.1559"/>
<polygon fill="midnightblue" stroke="midnightblue" points="302.098,-36.6338 311.863,-32.5247 301.667,-29.6471 302.098,-36.6338"/>
</g>
<!-- Node5 -->
<g id="node5" class="node"><title>Node5</title>
<g id="a_node5"><a xlink:href="$d2/d76/class_c_g_l_object.xhtml#add00987cd4a5ee06cc4436766392434b" xlink:title="CGLObject::CGLObject">
<polygon fill="white" stroke="black" points="156,-0.5 156,-19.5 276,-19.5 276,-0.5 156,-0.5"/>
<text text-anchor="middle" x="216" y="-7.5" font-family="Helvetica,sans-Serif" font-size="10.00">CGLObject::CGLObject</text>
</a>
</g>
</g>
<!-- Node1&#45;&gt;Node5 -->
<g id="edge5" class="edge"><title>Node1&#45;&gt;Node5</title>
<path fill="none" stroke="midnightblue" d="M99.8607,-38.411C120.091,-33.4191 145.021,-27.2676 166.504,-21.9666"/>
<polygon fill="midnightblue" stroke="midnightblue" points="167.548,-25.3139 176.419,-19.5201 165.871,-18.5177 167.548,-25.3139"/>
</g>
<!-- Node3&#45;&gt;Node3 -->
<g id="edge4" class="edge"><title>Node3&#45;&gt;Node3</title>
<path fill="none" stroke="midnightblue" d="M347.805,-38.7571C337.008,-47.5653 344.406,-57 370,-57 386.796,-57 395.756,-52.9368 396.879,-47.6539"/>
<polygon fill="midnightblue" stroke="midnightblue" points="399.951,-45.9747 392.195,-38.7571 393.757,-49.2361 399.951,-45.9747"/>
</g>
<!-- Node4 -->
<g id="node4" class="node"><title>Node4</title>
<g id="a_node4"><a xlink:href="$d2/d76/class_c_g_l_object.xhtml#a80d01439776edc9443b47a7a9e5b9e94" xlink:title="CGLObject::isChild">
<polygon fill="white" stroke="black" points="464.5,-19.5 464.5,-38.5 565.5,-38.5 565.5,-19.5 464.5,-19.5"/>
<text text-anchor="middle" x="515" y="-26.5" font-family="Helvetica,sans-Serif" font-size="10.00">CGLObject::isChild</text>
</a>
</g>
</g>
<!-- Node3&#45;&gt;Node4 -->
<g id="edge3" class="edge"><title>Node3&#45;&gt;Node4</title>
<path fill="none" stroke="midnightblue" d="M428.34,-29C436.94,-29 445.826,-29 454.471,-29"/>
<polygon fill="midnightblue" stroke="midnightblue" points="454.478,-32.5001 464.478,-29 454.478,-25.5001 454.478,-32.5001"/>
</g>
<!-- Node5&#45;&gt;Node3 -->
<g id="edge6" class="edge"><title>Node5&#45;&gt;Node3</title>
<path fill="none" stroke="midnightblue" d="M276.202,-17.4003C284.499,-18.4374 293.077,-19.5096 301.513,-20.5641"/>
<polygon fill="midnightblue" stroke="midnightblue" points="301.348,-24.0706 311.705,-21.8381 302.216,-17.1247 301.348,-24.0706"/>
</g>
</g>
</svg>
