<?xml version="1.0" encoding="UTF-8" standalone="no"?>
<!DOCTYPE svg PUBLIC "-//W3C//DTD SVG 1.1//EN"
 "http://www.w3.org/Graphics/SVG/1.1/DTD/svg11.dtd">
<!-- Generated by graphviz version 2.36.0 (20140111.2315)
 -->
<!-- Title: CGLEffect Pages: 1 -->
<svg width="414pt" height="690pt"
 viewBox="0.00 0.00 414.00 690.00" xmlns="http://www.w3.org/2000/svg" xmlns:xlink="http://www.w3.org/1999/xlink">
<g id="graph0" class="graph" transform="scale(1 1) rotate(0) translate(4 686)">
<title>CGLEffect</title>
<polygon fill="white" stroke="none" points="-4,4 -4,-686 410,-686 410,4 -4,4"/>
<!-- Node1 -->
<g id="node1" class="node"><title>Node1</title>
<polygon fill="#bfbfbf" stroke="black" points="159,-321 159,-389 243,-389 243,-321 159,-321"/>
<text text-anchor="middle" x="201" y="-377" font-family="Helvetica,sans-Serif" font-size="10.00">CGLEffect</text>
<polyline fill="none" stroke="black" points="159,-370 243,-370 "/>
<text text-anchor="middle" x="201" y="-358" font-family="Helvetica,sans-Serif" font-size="10.00"> </text>
<polyline fill="none" stroke="black" points="159,-351 243,-351 "/>
<text text-anchor="start" x="167" y="-339" font-family="Helvetica,sans-Serif" font-size="10.00">+ CGLEffect()</text>
<text text-anchor="start" x="167" y="-328" font-family="Helvetica,sans-Serif" font-size="10.00">+ ~CGLEffect()</text>
</g>
<!-- Node3 -->
<g id="node3" class="node"><title>Node3</title>
<g id="a_node3"><a xlink:href="$d7/dd6/class_c_g_l_color.xhtml" xlink:title="{CGLColor\n||+ CGLColor()\l+ ~CGLColor()\l+ setR()\l+ setG()\l+ setB()\l+ setA()\l+ getR()\l+ getG()\l+ getB()\l+ getA()\l+ drawObject()\l}">
<polygon fill="white" stroke="black" points="-0.5,-116.5 -0.5,-283.5 80.5,-283.5 80.5,-116.5 -0.5,-116.5"/>
<text text-anchor="middle" x="40" y="-271.5" font-family="Helvetica,sans-Serif" font-size="10.00">CGLColor</text>
<polyline fill="none" stroke="black" points="-0.5,-264.5 80.5,-264.5 "/>
<text text-anchor="middle" x="40" y="-252.5" font-family="Helvetica,sans-Serif" font-size="10.00"> </text>
<polyline fill="none" stroke="black" points="-0.5,-245.5 80.5,-245.5 "/>
<text text-anchor="start" x="7.5" y="-233.5" font-family="Helvetica,sans-Serif" font-size="10.00">+ CGLColor()</text>
<text text-anchor="start" x="7.5" y="-222.5" font-family="Helvetica,sans-Serif" font-size="10.00">+ ~CGLColor()</text>
<text text-anchor="start" x="7.5" y="-211.5" font-family="Helvetica,sans-Serif" font-size="10.00">+ setR()</text>
<text text-anchor="start" x="7.5" y="-200.5" font-family="Helvetica,sans-Serif" font-size="10.00">+ setG()</text>
<text text-anchor="start" x="7.5" y="-189.5" font-family="Helvetica,sans-Serif" font-size="10.00">+ setB()</text>
<text text-anchor="start" x="7.5" y="-178.5" font-family="Helvetica,sans-Serif" font-size="10.00">+ setA()</text>
<text text-anchor="start" x="7.5" y="-167.5" font-family="Helvetica,sans-Serif" font-size="10.00">+ getR()</text>
<text text-anchor="start" x="7.5" y="-156.5" font-family="Helvetica,sans-Serif" font-size="10.00">+ getG()</text>
<text text-anchor="start" x="7.5" y="-145.5" font-family="Helvetica,sans-Serif" font-size="10.00">+ getB()</text>
<text text-anchor="start" x="7.5" y="-134.5" font-family="Helvetica,sans-Serif" font-size="10.00">+ getA()</text>
<text text-anchor="start" x="7.5" y="-123.5" font-family="Helvetica,sans-Serif" font-size="10.00">+ drawObject()</text>
</a>
</g>
</g>
<!-- Node1&#45;&gt;Node3 -->
<g id="edge2" class="edge"><title>Node1&#45;&gt;Node3</title>
<path fill="none" stroke="midnightblue" d="M149.818,-328.929C129.295,-317.21 106.43,-301.877 89,-284 86.0796,-281.005 83.2622,-277.803 80.5557,-274.464"/>
<polygon fill="none" stroke="midnightblue" points="148.309,-332.095 158.75,-333.891 151.708,-325.975 148.309,-332.095"/>
</g>
<!-- Node4 -->
<g id="node4" class="node"><title>Node4</title>
<g id="a_node4"><a xlink:href="$de/d31/class_c_g_l_position.xhtml" xlink:title="{CGLPosition\n|# speed\l# accel\l|+ CGLPosition()\l+ ~CGLPosition()\l+ drawObject()\l+ setSpeed()\l+ setAccel()\l}">
<polygon fill="white" stroke="black" points="98.5,-144 98.5,-256 191.5,-256 191.5,-144 98.5,-144"/>
<text text-anchor="middle" x="145" y="-244" font-family="Helvetica,sans-Serif" font-size="10.00">CGLPosition</text>
<polyline fill="none" stroke="black" points="98.5,-237 191.5,-237 "/>
<text text-anchor="start" x="106.5" y="-225" font-family="Helvetica,sans-Serif" font-size="10.00"># speed</text>
<text text-anchor="start" x="106.5" y="-214" font-family="Helvetica,sans-Serif" font-size="10.00"># accel</text>
<polyline fill="none" stroke="black" points="98.5,-207 191.5,-207 "/>
<text text-anchor="start" x="106.5" y="-195" font-family="Helvetica,sans-Serif" font-size="10.00">+ CGLPosition()</text>
<text text-anchor="start" x="106.5" y="-184" font-family="Helvetica,sans-Serif" font-size="10.00">+ ~CGLPosition()</text>
<text text-anchor="start" x="106.5" y="-173" font-family="Helvetica,sans-Serif" font-size="10.00">+ drawObject()</text>
<text text-anchor="start" x="106.5" y="-162" font-family="Helvetica,sans-Serif" font-size="10.00">+ setSpeed()</text>
<text text-anchor="start" x="106.5" y="-151" font-family="Helvetica,sans-Serif" font-size="10.00">+ setAccel()</text>
</a>
</g>
</g>
<!-- Node1&#45;&gt;Node4 -->
<g id="edge3" class="edge"><title>Node1&#45;&gt;Node4</title>
<path fill="none" stroke="midnightblue" d="M185.302,-311.111C179.057,-294.048 171.792,-274.2 165.165,-256.093"/>
<polygon fill="none" stroke="midnightblue" points="182.125,-312.614 188.849,-320.801 188.698,-310.208 182.125,-312.614"/>
</g>
<!-- Node5 -->
<g id="node5" class="node"><title>Node5</title>
<g id="a_node5"><a xlink:href="$d4/dd5/class_c_g_l_rotation.xhtml" xlink:title="{CGLRotation\n|# a\l|+ CGLRotation()\l+ ~CGLRotation()\l+ setA()\l+ getA()\l+ set()\l+ drawObject()\l}">
<polygon fill="white" stroke="black" points="209.5,-144 209.5,-256 304.5,-256 304.5,-144 209.5,-144"/>
<text text-anchor="middle" x="257" y="-244" font-family="Helvetica,sans-Serif" font-size="10.00">CGLRotation</text>
<polyline fill="none" stroke="black" points="209.5,-237 304.5,-237 "/>
<text text-anchor="start" x="217.5" y="-225" font-family="Helvetica,sans-Serif" font-size="10.00"># a</text>
<polyline fill="none" stroke="black" points="209.5,-218 304.5,-218 "/>
<text text-anchor="start" x="217.5" y="-206" font-family="Helvetica,sans-Serif" font-size="10.00">+ CGLRotation()</text>
<text text-anchor="start" x="217.5" y="-195" font-family="Helvetica,sans-Serif" font-size="10.00">+ ~CGLRotation()</text>
<text text-anchor="start" x="217.5" y="-184" font-family="Helvetica,sans-Serif" font-size="10.00">+ setA()</text>
<text text-anchor="start" x="217.5" y="-173" font-family="Helvetica,sans-Serif" font-size="10.00">+ getA()</text>
<text text-anchor="start" x="217.5" y="-162" font-family="Helvetica,sans-Serif" font-size="10.00">+ set()</text>
<text text-anchor="start" x="217.5" y="-151" font-family="Helvetica,sans-Serif" font-size="10.00">+ drawObject()</text>
</a>
</g>
</g>
<!-- Node1&#45;&gt;Node5 -->
<g id="edge4" class="edge"><title>Node1&#45;&gt;Node5</title>
<path fill="none" stroke="midnightblue" d="M216.698,-311.111C222.943,-294.048 230.208,-274.2 236.835,-256.093"/>
<polygon fill="none" stroke="midnightblue" points="213.302,-310.208 213.151,-320.801 219.875,-312.614 213.302,-310.208"/>
</g>
<!-- Node7 -->
<g id="node7" class="node"><title>Node7</title>
<g id="a_node7"><a xlink:href="$dd/dd7/class_c_g_l_scale.xhtml" xlink:title="{CGLScale\n||+ CGLScale()\l+ ~CGLScale()\l+ drawObject()\l}">
<polygon fill="white" stroke="black" points="322.5,-160.5 322.5,-239.5 405.5,-239.5 405.5,-160.5 322.5,-160.5"/>
<text text-anchor="middle" x="364" y="-227.5" font-family="Helvetica,sans-Serif" font-size="10.00">CGLScale</text>
<polyline fill="none" stroke="black" points="322.5,-220.5 405.5,-220.5 "/>
<text text-anchor="middle" x="364" y="-208.5" font-family="Helvetica,sans-Serif" font-size="10.00"> </text>
<polyline fill="none" stroke="black" points="322.5,-201.5 405.5,-201.5 "/>
<text text-anchor="start" x="330.5" y="-189.5" font-family="Helvetica,sans-Serif" font-size="10.00">+ CGLScale()</text>
<text text-anchor="start" x="330.5" y="-178.5" font-family="Helvetica,sans-Serif" font-size="10.00">+ ~CGLScale()</text>
<text text-anchor="start" x="330.5" y="-167.5" font-family="Helvetica,sans-Serif" font-size="10.00">+ drawObject()</text>
</a>
</g>
</g>
<!-- Node1&#45;&gt;Node7 -->
<g id="edge6" class="edge"><title>Node1&#45;&gt;Node7</title>
<path fill="none" stroke="midnightblue" d="M252.026,-328.776C272.524,-317.032 295.413,-301.722 313,-284 325.747,-271.155 336.748,-254.548 345.236,-239.567"/>
<polygon fill="none" stroke="midnightblue" points="250.135,-325.823 243.108,-333.752 253.546,-331.936 250.135,-325.823"/>
</g>
<!-- Node2 -->
<g id="node2" class="node"><title>Node2</title>
<g id="a_node2"><a xlink:href="$d2/d76/class_c_g_l_object.xhtml" xlink:title="{CGLObject\n|+ garbage\l# objectType\l# name\l# matrixSaved\l# children\l# iterCurrentObject\l# currentObject\l# parentObject\l|+ addObject()\l+ setName()\l+ getName()\l+ getCurrentObject()\l+ isChild()\l+ draw()\l+ drawObject()\l+ drawChildren()\l+ drawCenter()\l+ CGLObject()\l+ ~CGLObject()\l+ init()\l}">
<polygon fill="white" stroke="black" points="148,-426.5 148,-681.5 254,-681.5 254,-426.5 148,-426.5"/>
<text text-anchor="middle" x="201" y="-669.5" font-family="Helvetica,sans-Serif" font-size="10.00">CGLObject</text>
<polyline fill="none" stroke="black" points="148,-662.5 254,-662.5 "/>
<text text-anchor="start" x="156" y="-650.5" font-family="Helvetica,sans-Serif" font-size="10.00">+ garbage</text>
<text text-anchor="start" x="156" y="-639.5" font-family="Helvetica,sans-Serif" font-size="10.00"># objectType</text>
<text text-anchor="start" x="156" y="-628.5" font-family="Helvetica,sans-Serif" font-size="10.00"># name</text>
<text text-anchor="start" x="156" y="-617.5" font-family="Helvetica,sans-Serif" font-size="10.00"># matrixSaved</text>
<text text-anchor="start" x="156" y="-606.5" font-family="Helvetica,sans-Serif" font-size="10.00"># children</text>
<text text-anchor="start" x="156" y="-595.5" font-family="Helvetica,sans-Serif" font-size="10.00"># iterCurrentObject</text>
<text text-anchor="start" x="156" y="-584.5" font-family="Helvetica,sans-Serif" font-size="10.00"># currentObject</text>
<text text-anchor="start" x="156" y="-573.5" font-family="Helvetica,sans-Serif" font-size="10.00"># parentObject</text>
<polyline fill="none" stroke="black" points="148,-566.5 254,-566.5 "/>
<text text-anchor="start" x="156" y="-554.5" font-family="Helvetica,sans-Serif" font-size="10.00">+ addObject()</text>
<text text-anchor="start" x="156" y="-543.5" font-family="Helvetica,sans-Serif" font-size="10.00">+ setName()</text>
<text text-anchor="start" x="156" y="-532.5" font-family="Helvetica,sans-Serif" font-size="10.00">+ getName()</text>
<text text-anchor="start" x="156" y="-521.5" font-family="Helvetica,sans-Serif" font-size="10.00">+ getCurrentObject()</text>
<text text-anchor="start" x="156" y="-510.5" font-family="Helvetica,sans-Serif" font-size="10.00">+ isChild()</text>
<text text-anchor="start" x="156" y="-499.5" font-family="Helvetica,sans-Serif" font-size="10.00">+ draw()</text>
<text text-anchor="start" x="156" y="-488.5" font-family="Helvetica,sans-Serif" font-size="10.00">+ drawObject()</text>
<text text-anchor="start" x="156" y="-477.5" font-family="Helvetica,sans-Serif" font-size="10.00">+ drawChildren()</text>
<text text-anchor="start" x="156" y="-466.5" font-family="Helvetica,sans-Serif" font-size="10.00">+ drawCenter()</text>
<text text-anchor="start" x="156" y="-455.5" font-family="Helvetica,sans-Serif" font-size="10.00">+ CGLObject()</text>
<text text-anchor="start" x="156" y="-444.5" font-family="Helvetica,sans-Serif" font-size="10.00">+ ~CGLObject()</text>
<text text-anchor="start" x="156" y="-433.5" font-family="Helvetica,sans-Serif" font-size="10.00">+ init()</text>
</a>
</g>
</g>
<!-- Node2&#45;&gt;Node1 -->
<g id="edge1" class="edge"><title>Node2&#45;&gt;Node1</title>
<path fill="none" stroke="midnightblue" d="M201,-416.257C201,-406.41 201,-397.166 201,-389.016"/>
<polygon fill="none" stroke="midnightblue" points="197.5,-416.287 201,-426.287 204.5,-416.287 197.5,-416.287"/>
</g>
<!-- Node6 -->
<g id="node6" class="node"><title>Node6</title>
<g id="a_node6"><a xlink:href="$d4/d9e/class_c_g_l_rotation_speed.xhtml" xlink:title="{CGLRotationSpeed\n|# speed\l|+ CGLRotationSpeed()\l+ ~CGLRotationSpeed()\l+ drawObject()\l}">
<polygon fill="white" stroke="black" points="196,-0.5 196,-79.5 318,-79.5 318,-0.5 196,-0.5"/>
<text text-anchor="middle" x="257" y="-67.5" font-family="Helvetica,sans-Serif" font-size="10.00">CGLRotationSpeed</text>
<polyline fill="none" stroke="black" points="196,-60.5 318,-60.5 "/>
<text text-anchor="start" x="204" y="-48.5" font-family="Helvetica,sans-Serif" font-size="10.00"># speed</text>
<polyline fill="none" stroke="black" points="196,-41.5 318,-41.5 "/>
<text text-anchor="start" x="204" y="-29.5" font-family="Helvetica,sans-Serif" font-size="10.00">+ CGLRotationSpeed()</text>
<text text-anchor="start" x="204" y="-18.5" font-family="Helvetica,sans-Serif" font-size="10.00">+ ~CGLRotationSpeed()</text>
<text text-anchor="start" x="204" y="-7.5" font-family="Helvetica,sans-Serif" font-size="10.00">+ drawObject()</text>
</a>
</g>
</g>
<!-- Node5&#45;&gt;Node6 -->
<g id="edge5" class="edge"><title>Node5&#45;&gt;Node6</title>
<path fill="none" stroke="midnightblue" d="M257,-133.654C257,-115.264 257,-95.8568 257,-79.5817"/>
<polygon fill="none" stroke="midnightblue" points="253.5,-133.739 257,-143.739 260.5,-133.739 253.5,-133.739"/>
</g>
</g>
</svg>
