<?xml version="1.0" encoding="UTF-8" standalone="no"?>
<!DOCTYPE svg PUBLIC "-//W3C//DTD SVG 1.1//EN"
 "http://www.w3.org/Graphics/SVG/1.1/DTD/svg11.dtd">
<!-- Generated by graphviz version 2.36.0 (20140111.2315)
 -->
<!-- Title: CGLRobot1::drawObject Pages: 1 -->
<svg width="424pt" height="66pt"
 viewBox="0.00 0.00 424.00 66.00" xmlns="http://www.w3.org/2000/svg" xmlns:xlink="http://www.w3.org/1999/xlink">
<g id="graph0" class="graph" transform="scale(1 1) rotate(0) translate(4 62)">
<title>CGLRobot1::drawObject</title>
<polygon fill="white" stroke="none" points="-4,4 -4,-62 420,-62 420,4 -4,4"/>
<!-- Node1 -->
<g id="node1" class="node"><title>Node1</title>
<polygon fill="#bfbfbf" stroke="black" points="0,-19.5 0,-38.5 124,-38.5 124,-19.5 0,-19.5"/>
<text text-anchor="middle" x="62" y="-26.5" font-family="Helvetica,sans-Serif" font-size="10.00">CGLRobot1::drawObject</text>
</g>
<!-- Node2 -->
<g id="node2" class="node"><title>Node2</title>
<g id="a_node2"><a xlink:href="../../d2/d76/class_c_g_l_object.xhtml#a39c4cde56d18140384842d074407c5c4" target="_top" xlink:title="CGLObject::draw">
<polygon fill="white" stroke="black" points="160,-19.5 160,-38.5 252,-38.5 252,-19.5 160,-19.5"/>
<text text-anchor="middle" x="206" y="-26.5" font-family="Helvetica,sans-Serif" font-size="10.00">CGLObject::draw</text>
</a>
</g>
</g>
<!-- Node1&#45;&gt;Node2 -->
<g id="edge1" class="edge"><title>Node1&#45;&gt;Node2</title>
<path fill="none" stroke="midnightblue" d="M124.045,-29C132.595,-29 141.342,-29 149.777,-29"/>
<polygon fill="midnightblue" stroke="midnightblue" points="149.875,-32.5001 159.875,-29 149.875,-25.5001 149.875,-32.5001"/>
</g>
<!-- Node3 -->
<g id="node3" class="node"><title>Node3</title>
<g id="a_node3"><a xlink:href="../../d2/d76/class_c_g_l_object.xhtml#a6c23675f91b2adc88a95d6da869652d4" target="_top" xlink:title="CGLObject::drawChildren">
<polygon fill="white" stroke="black" points="288,-38.5 288,-57.5 416,-57.5 416,-38.5 288,-38.5"/>
<text text-anchor="middle" x="352" y="-45.5" font-family="Helvetica,sans-Serif" font-size="10.00">CGLObject::drawChildren</text>
</a>
</g>
</g>
<!-- Node2&#45;&gt;Node3 -->
<g id="edge2" class="edge"><title>Node2&#45;&gt;Node3</title>
<path fill="none" stroke="midnightblue" d="M252.167,-34.9596C260.289,-36.0312 268.943,-37.173 277.623,-38.3183"/>
<polygon fill="midnightblue" stroke="midnightblue" points="277.423,-41.8221 287.794,-39.6604 278.338,-34.8823 277.423,-41.8221"/>
</g>
<!-- Node4 -->
<g id="node4" class="node"><title>Node4</title>
<g id="a_node4"><a xlink:href="../../d2/d76/class_c_g_l_object.xhtml#a2781ec98c37bd209f2382c5130a365b9" target="_top" xlink:title="CGLObject::drawObject">
<polygon fill="white" stroke="black" points="291.5,-0.5 291.5,-19.5 412.5,-19.5 412.5,-0.5 291.5,-0.5"/>
<text text-anchor="middle" x="352" y="-7.5" font-family="Helvetica,sans-Serif" font-size="10.00">CGLObject::drawObject</text>
</a>
</g>
</g>
<!-- Node2&#45;&gt;Node4 -->
<g id="edge3" class="edge"><title>Node2&#45;&gt;Node4</title>
<path fill="none" stroke="midnightblue" d="M252.167,-23.0404C261.508,-21.8079 271.553,-20.4826 281.532,-19.1659"/>
<polygon fill="midnightblue" stroke="midnightblue" points="282.005,-22.634 291.461,-17.8558 281.089,-15.6941 282.005,-22.634"/>
</g>
</g>
</svg>
