<?xml version="1.0" encoding="UTF-8" standalone="no"?>
<!DOCTYPE svg PUBLIC "-//W3C//DTD SVG 1.1//EN"
 "http://www.w3.org/Graphics/SVG/1.1/DTD/svg11.dtd">
<!-- Generated by graphviz version 2.36.0 (20140111.2315)
 -->
<!-- Title: /home/dagal/git/DamierGL/DamierGL/src/CGL/CGLBoite.h Pages: 1 -->
<svg width="550pt" height="176pt"
 viewBox="0.00 0.00 550.00 176.00" xmlns="http://www.w3.org/2000/svg" xmlns:xlink="http://www.w3.org/1999/xlink">
<g id="graph0" class="graph" transform="scale(1 1) rotate(0) translate(4 172)">
<title>/home/dagal/git/DamierGL/DamierGL/src/CGL/CGLBoite.h</title>
<polygon fill="white" stroke="none" points="-4,4 -4,-172 546,-172 546,4 -4,4"/>
<!-- Node1 -->
<g id="node1" class="node"><title>Node1</title>
<polygon fill="#bfbfbf" stroke="black" points="189,-137 189,-167 347,-167 347,-137 189,-137"/>
<text text-anchor="start" x="197" y="-155" font-family="Helvetica,sans-Serif" font-size="10.00">/home/dagal/git/DamierGL</text>
<text text-anchor="middle" x="268" y="-144" font-family="Helvetica,sans-Serif" font-size="10.00">/DamierGL/src/CGL/CGLBoite.h</text>
</g>
<!-- Node2 -->
<g id="node2" class="node"><title>Node2</title>
<g id="a_node2"><a xlink:href="../../da/d3e/_c_g_l_boite_8cpp.xhtml" target="_top" xlink:title="/home/dagal/git/DamierGL\l/DamierGL/src/CGL/CGLBoite.cpp">
<polygon fill="white" stroke="black" points="-1,-69 -1,-99 167,-99 167,-69 -1,-69"/>
<text text-anchor="start" x="7" y="-87" font-family="Helvetica,sans-Serif" font-size="10.00">/home/dagal/git/DamierGL</text>
<text text-anchor="middle" x="83" y="-76" font-family="Helvetica,sans-Serif" font-size="10.00">/DamierGL/src/CGL/CGLBoite.cpp</text>
</a>
</g>
</g>
<!-- Node1&#45;&gt;Node2 -->
<g id="edge1" class="edge"><title>Node1&#45;&gt;Node2</title>
<path fill="none" stroke="midnightblue" d="M218.812,-133.452C188.62,-122.68 150.475,-109.072 122.304,-99.0218"/>
<polygon fill="midnightblue" stroke="midnightblue" points="217.718,-136.778 228.313,-136.841 220.07,-130.185 217.718,-136.778"/>
</g>
<!-- Node3 -->
<g id="node3" class="node"><title>Node3</title>
<g id="a_node3"><a xlink:href="../../d7/df3/_c_g_l_robot1_8h.xhtml" target="_top" xlink:title="/home/dagal/git/DamierGL\l/DamierGL/src/CGL/CGLRobot1.h">
<polygon fill="white" stroke="black" points="184.5,-69 184.5,-99 351.5,-99 351.5,-69 184.5,-69"/>
<text text-anchor="start" x="192.5" y="-87" font-family="Helvetica,sans-Serif" font-size="10.00">/home/dagal/git/DamierGL</text>
<text text-anchor="middle" x="268" y="-76" font-family="Helvetica,sans-Serif" font-size="10.00">/DamierGL/src/CGL/CGLRobot1.h</text>
</a>
</g>
</g>
<!-- Node1&#45;&gt;Node3 -->
<g id="edge2" class="edge"><title>Node1&#45;&gt;Node3</title>
<path fill="none" stroke="midnightblue" d="M268,-126.532C268,-117.361 268,-107.245 268,-99.2931"/>
<polygon fill="midnightblue" stroke="midnightblue" points="264.5,-126.679 268,-136.679 271.5,-126.679 264.5,-126.679"/>
</g>
<!-- Node6 -->
<g id="node6" class="node"><title>Node6</title>
<g id="a_node6"><a xlink:href="../../d0/d58/_c_g_l_scene_8cpp.xhtml" target="_top" xlink:title="/home/dagal/git/DamierGL\l/DamierGL/src/CGL/CGLScene.cpp">
<polygon fill="white" stroke="black" points="369.5,-69 369.5,-99 542.5,-99 542.5,-69 369.5,-69"/>
<text text-anchor="start" x="377.5" y="-87" font-family="Helvetica,sans-Serif" font-size="10.00">/home/dagal/git/DamierGL</text>
<text text-anchor="middle" x="456" y="-76" font-family="Helvetica,sans-Serif" font-size="10.00">/DamierGL/src/CGL/CGLScene.cpp</text>
</a>
</g>
</g>
<!-- Node1&#45;&gt;Node6 -->
<g id="edge5" class="edge"><title>Node1&#45;&gt;Node6</title>
<path fill="none" stroke="midnightblue" d="M317.985,-133.452C348.668,-122.68 387.431,-109.072 416.059,-99.0218"/>
<polygon fill="midnightblue" stroke="midnightblue" points="316.607,-130.226 308.331,-136.841 318.926,-136.831 316.607,-130.226"/>
</g>
<!-- Node4 -->
<g id="node4" class="node"><title>Node4</title>
<g id="a_node4"><a xlink:href="../../dc/d01/_c_g_l_robot1_8cpp.xhtml" target="_top" xlink:title="/home/dagal/git/DamierGL\l/DamierGL/src/CGL/CGLRobot1.cpp">
<polygon fill="white" stroke="black" points="89.5,-1 89.5,-31 266.5,-31 266.5,-1 89.5,-1"/>
<text text-anchor="start" x="97.5" y="-19" font-family="Helvetica,sans-Serif" font-size="10.00">/home/dagal/git/DamierGL</text>
<text text-anchor="middle" x="178" y="-8" font-family="Helvetica,sans-Serif" font-size="10.00">/DamierGL/src/CGL/CGLRobot1.cpp</text>
</a>
</g>
</g>
<!-- Node3&#45;&gt;Node4 -->
<g id="edge3" class="edge"><title>Node3&#45;&gt;Node4</title>
<path fill="none" stroke="midnightblue" d="M240.181,-62.5994C226.233,-52.3712 209.695,-40.2428 197.181,-31.0663"/>
<polygon fill="midnightblue" stroke="midnightblue" points="238.337,-65.5877 248.471,-68.679 242.477,-59.9429 238.337,-65.5877"/>
</g>
<!-- Node5 -->
<g id="node5" class="node"><title>Node5</title>
<g id="a_node5"><a xlink:href="../../db/dec/_damier_g_l_8cpp.xhtml" target="_top" xlink:title="/home/dagal/git/DamierGL\l/DamierGL/src/DamierGL.cpp">
<polygon fill="white" stroke="black" points="285,-1 285,-31 431,-31 431,-1 285,-1"/>
<text text-anchor="start" x="293" y="-19" font-family="Helvetica,sans-Serif" font-size="10.00">/home/dagal/git/DamierGL</text>
<text text-anchor="middle" x="358" y="-8" font-family="Helvetica,sans-Serif" font-size="10.00">/DamierGL/src/DamierGL.cpp</text>
</a>
</g>
</g>
<!-- Node3&#45;&gt;Node5 -->
<g id="edge4" class="edge"><title>Node3&#45;&gt;Node5</title>
<path fill="none" stroke="midnightblue" d="M295.819,-62.5994C309.767,-52.3712 326.305,-40.2428 338.819,-31.0663"/>
<polygon fill="midnightblue" stroke="midnightblue" points="293.523,-59.9429 287.529,-68.679 297.663,-65.5877 293.523,-59.9429"/>
</g>
</g>
</svg>
