<?xml version="1.0" encoding="UTF-8" standalone="no"?>
<!DOCTYPE svg PUBLIC "-//W3C//DTD SVG 1.1//EN"
 "http://www.w3.org/Graphics/SVG/1.1/DTD/svg11.dtd">
<!-- Generated by graphviz version 2.36.0 (20140111.2315)
 -->
<!-- Title: /home/dagal/git/DamierGL/DamierGL/src/CGL/CGLVector4D.h Pages: 1 -->
<svg width="182pt" height="208pt"
 viewBox="0.00 0.00 182.00 208.00" xmlns="http://www.w3.org/2000/svg" xmlns:xlink="http://www.w3.org/1999/xlink">
<g id="graph0" class="graph" transform="scale(1 1) rotate(0) translate(4 204)">
<title>/home/dagal/git/DamierGL/DamierGL/src/CGL/CGLVector4D.h</title>
<polygon fill="white" stroke="none" points="-4,4 -4,-204 178,-204 178,4 -4,4"/>
<!-- Node1 -->
<g id="node1" class="node"><title>Node1</title>
<polygon fill="#bfbfbf" stroke="black" points="-1,-169 -1,-199 175,-199 175,-169 -1,-169"/>
<text text-anchor="start" x="7" y="-187" font-family="Helvetica,sans-Serif" font-size="10.00">/home/dagal/git/DamierGL</text>
<text text-anchor="middle" x="87" y="-176" font-family="Helvetica,sans-Serif" font-size="10.00">/DamierGL/src/CGL/CGLVector4D.h</text>
</g>
<!-- Node2 -->
<g id="node2" class="node"><title>Node2</title>
<g id="a_node2"><a xlink:href="../../dd/d83/_c_g_l_vector3_d_8h.xhtml" target="_top" xlink:title="CGLVector3D.h">
<polygon fill="white" stroke="black" points="44,-112.5 44,-131.5 130,-131.5 130,-112.5 44,-112.5"/>
<text text-anchor="middle" x="87" y="-119.5" font-family="Helvetica,sans-Serif" font-size="10.00">CGLVector3D.h</text>
</a>
</g>
</g>
<!-- Node1&#45;&gt;Node2 -->
<g id="edge1" class="edge"><title>Node1&#45;&gt;Node2</title>
<path fill="none" stroke="midnightblue" d="M87,-168.781C87,-160.781 87,-150.689 87,-142.017"/>
<polygon fill="midnightblue" stroke="midnightblue" points="90.5001,-141.73 87,-131.731 83.5001,-141.731 90.5001,-141.73"/>
</g>
<!-- Node3 -->
<g id="node3" class="node"><title>Node3</title>
<g id="a_node3"><a xlink:href="../../dc/dee/_c_g_l_vector2_d_8h.xhtml" target="_top" xlink:title="CGLVector2D.h">
<polygon fill="white" stroke="black" points="44,-56.5 44,-75.5 130,-75.5 130,-56.5 44,-56.5"/>
<text text-anchor="middle" x="87" y="-63.5" font-family="Helvetica,sans-Serif" font-size="10.00">CGLVector2D.h</text>
</a>
</g>
</g>
<!-- Node2&#45;&gt;Node3 -->
<g id="edge2" class="edge"><title>Node2&#45;&gt;Node3</title>
<path fill="none" stroke="midnightblue" d="M87,-112.083C87,-105.006 87,-94.8611 87,-85.9865"/>
<polygon fill="midnightblue" stroke="midnightblue" points="90.5001,-85.751 87,-75.7511 83.5001,-85.7511 90.5001,-85.751"/>
</g>
<!-- Node4 -->
<g id="node4" class="node"><title>Node4</title>
<polygon fill="white" stroke="#bfbfbf" points="65,-0.5 65,-19.5 109,-19.5 109,-0.5 65,-0.5"/>
<text text-anchor="middle" x="87" y="-7.5" font-family="Helvetica,sans-Serif" font-size="10.00">cmath</text>
</g>
<!-- Node3&#45;&gt;Node4 -->
<g id="edge3" class="edge"><title>Node3&#45;&gt;Node4</title>
<path fill="none" stroke="midnightblue" d="M87,-56.083C87,-49.0059 87,-38.8611 87,-29.9865"/>
<polygon fill="midnightblue" stroke="midnightblue" points="90.5001,-29.751 87,-19.7511 83.5001,-29.7511 90.5001,-29.751"/>
</g>
</g>
</svg>
