<?xml version="1.0" encoding="UTF-8" standalone="no"?>
<!DOCTYPE svg PUBLIC "-//W3C//DTD SVG 1.1//EN"
 "http://www.w3.org/Graphics/SVG/1.1/DTD/svg11.dtd">
<!-- Generated by graphviz version 2.36.0 (20140111.2315)
 -->
<!-- Title: CGLLine::CGLLine Pages: 1 -->
<svg width="382pt" height="104pt"
 viewBox="0.00 0.00 382.00 104.00" xmlns="http://www.w3.org/2000/svg" xmlns:xlink="http://www.w3.org/1999/xlink">
<g id="graph0" class="graph" transform="scale(1 1) rotate(0) translate(4 100)">
<title>CGLLine::CGLLine</title>
<polygon fill="white" stroke="none" points="-4,4 -4,-100 378,-100 378,4 -4,4"/>
<!-- Node1 -->
<g id="node1" class="node"><title>Node1</title>
<polygon fill="#bfbfbf" stroke="black" points="0.5,-38.5 0.5,-57.5 99.5,-57.5 99.5,-38.5 0.5,-38.5"/>
<text text-anchor="middle" x="50" y="-45.5" font-family="Helvetica,sans-Serif" font-size="10.00">CGLLine::CGLLine</text>
</g>
<!-- Node2 -->
<g id="node2" class="node"><title>Node2</title>
<g id="a_node2"><a xlink:href="$d6/df9/class_c_g_l_vector3_d.xhtml#a15014f4427c214f64699590591cacc8f" xlink:title="CGLVector3D::set">
<polygon fill="white" stroke="black" points="136,-38.5 136,-57.5 234,-57.5 234,-38.5 136,-38.5"/>
<text text-anchor="middle" x="185" y="-45.5" font-family="Helvetica,sans-Serif" font-size="10.00">CGLVector3D::set</text>
</a>
</g>
</g>
<!-- Node1&#45;&gt;Node2 -->
<g id="edge1" class="edge"><title>Node1&#45;&gt;Node2</title>
<path fill="none" stroke="midnightblue" d="M99.7691,-48C108.188,-48 117.016,-48 125.658,-48"/>
<polygon fill="midnightblue" stroke="midnightblue" points="125.681,-51.5001 135.681,-48 125.681,-44.5001 125.681,-51.5001"/>
</g>
<!-- Node3 -->
<g id="node3" class="node"><title>Node3</title>
<g id="a_node3"><a xlink:href="$d8/d97/class_c_g_l_vector2_d.xhtml#a22db1a511fae81b0d7a6766b6490dd8c" xlink:title="CGLVector2D::setX">
<polygon fill="white" stroke="black" points="270,-76.5 270,-95.5 374,-95.5 374,-76.5 270,-76.5"/>
<text text-anchor="middle" x="322" y="-83.5" font-family="Helvetica,sans-Serif" font-size="10.00">CGLVector2D::setX</text>
</a>
</g>
</g>
<!-- Node2&#45;&gt;Node3 -->
<g id="edge2" class="edge"><title>Node2&#45;&gt;Node3</title>
<path fill="none" stroke="midnightblue" d="M220.066,-57.589C237.413,-62.4719 258.702,-68.4643 277.249,-73.685"/>
<polygon fill="midnightblue" stroke="midnightblue" points="276.37,-77.0735 286.945,-76.4141 278.267,-70.3354 276.37,-77.0735"/>
</g>
<!-- Node4 -->
<g id="node4" class="node"><title>Node4</title>
<g id="a_node4"><a xlink:href="$d8/d97/class_c_g_l_vector2_d.xhtml#a4c89a21e28a86848c6b023ad60baef4c" xlink:title="CGLVector2D::setY">
<polygon fill="white" stroke="black" points="270,-38.5 270,-57.5 374,-57.5 374,-38.5 270,-38.5"/>
<text text-anchor="middle" x="322" y="-45.5" font-family="Helvetica,sans-Serif" font-size="10.00">CGLVector2D::setY</text>
</a>
</g>
</g>
<!-- Node2&#45;&gt;Node4 -->
<g id="edge3" class="edge"><title>Node2&#45;&gt;Node4</title>
<path fill="none" stroke="midnightblue" d="M234.357,-48C242.533,-48 251.117,-48 259.573,-48"/>
<polygon fill="midnightblue" stroke="midnightblue" points="259.788,-51.5001 269.788,-48 259.788,-44.5001 259.788,-51.5001"/>
</g>
<!-- Node5 -->
<g id="node5" class="node"><title>Node5</title>
<g id="a_node5"><a xlink:href="$d6/df9/class_c_g_l_vector3_d.xhtml#afef476ba51f4f45cb9d64e5d6c1592a4" xlink:title="CGLVector3D::setZ">
<polygon fill="white" stroke="black" points="270,-0.5 270,-19.5 374,-19.5 374,-0.5 270,-0.5"/>
<text text-anchor="middle" x="322" y="-7.5" font-family="Helvetica,sans-Serif" font-size="10.00">CGLVector3D::setZ</text>
</a>
</g>
</g>
<!-- Node2&#45;&gt;Node5 -->
<g id="edge4" class="edge"><title>Node2&#45;&gt;Node5</title>
<path fill="none" stroke="midnightblue" d="M220.066,-38.411C237.413,-33.5281 258.702,-27.5357 277.249,-22.315"/>
<polygon fill="midnightblue" stroke="midnightblue" points="278.267,-25.6646 286.945,-19.5859 276.37,-18.9265 278.267,-25.6646"/>
</g>
</g>
</svg>
