<?xml version="1.0" encoding="UTF-8" standalone="no"?>
<!DOCTYPE svg PUBLIC "-//W3C//DTD SVG 1.1//EN"
 "http://www.w3.org/Graphics/SVG/1.1/DTD/svg11.dtd">
<!-- Generated by graphviz version 2.36.0 (20140111.2315)
 -->
<!-- Title: CGLLine::drawObject Pages: 1 -->
<svg width="258pt" height="104pt"
 viewBox="0.00 0.00 258.00 104.00" xmlns="http://www.w3.org/2000/svg" xmlns:xlink="http://www.w3.org/1999/xlink">
<g id="graph0" class="graph" transform="scale(1 1) rotate(0) translate(4 100)">
<title>CGLLine::drawObject</title>
<polygon fill="white" stroke="none" points="-4,4 -4,-100 254,-100 254,4 -4,4"/>
<!-- Node1 -->
<g id="node1" class="node"><title>Node1</title>
<polygon fill="#bfbfbf" stroke="black" points="0,-38.5 0,-57.5 110,-57.5 110,-38.5 0,-38.5"/>
<text text-anchor="middle" x="55" y="-45.5" font-family="Helvetica,sans-Serif" font-size="10.00">CGLLine::drawObject</text>
</g>
<!-- Node2 -->
<g id="node2" class="node"><title>Node2</title>
<g id="a_node2"><a xlink:href="$d6/df9/class_c_g_l_vector3_d.xhtml#ae470e77a525525e5e51b67324c1b1dea" xlink:title="CGLVector3D::getX">
<polygon fill="white" stroke="black" points="146,-76.5 146,-95.5 250,-95.5 250,-76.5 146,-76.5"/>
<text text-anchor="middle" x="198" y="-83.5" font-family="Helvetica,sans-Serif" font-size="10.00">CGLVector3D::getX</text>
</a>
</g>
</g>
<!-- Node1&#45;&gt;Node2 -->
<g id="edge1" class="edge"><title>Node1&#45;&gt;Node2</title>
<path fill="none" stroke="midnightblue" d="M91.5803,-57.589C109.782,-62.4944 132.138,-68.5196 151.572,-73.7571"/>
<polygon fill="midnightblue" stroke="midnightblue" points="150.865,-77.1912 161.431,-76.4141 152.686,-70.4324 150.865,-77.1912"/>
</g>
<!-- Node3 -->
<g id="node3" class="node"><title>Node3</title>
<g id="a_node3"><a xlink:href="$d6/df9/class_c_g_l_vector3_d.xhtml#aee1aa1bba3345d1e1c3983330b66fe4a" xlink:title="CGLVector3D::getY">
<polygon fill="white" stroke="black" points="146,-38.5 146,-57.5 250,-57.5 250,-38.5 146,-38.5"/>
<text text-anchor="middle" x="198" y="-45.5" font-family="Helvetica,sans-Serif" font-size="10.00">CGLVector3D::getY</text>
</a>
</g>
</g>
<!-- Node1&#45;&gt;Node3 -->
<g id="edge2" class="edge"><title>Node1&#45;&gt;Node3</title>
<path fill="none" stroke="midnightblue" d="M110.111,-48C118.393,-48 126.994,-48 135.423,-48"/>
<polygon fill="midnightblue" stroke="midnightblue" points="135.585,-51.5001 145.585,-48 135.585,-44.5001 135.585,-51.5001"/>
</g>
<!-- Node4 -->
<g id="node4" class="node"><title>Node4</title>
<g id="a_node4"><a xlink:href="$d6/df9/class_c_g_l_vector3_d.xhtml#a374bca193aae71220f1349a6ab0778ee" xlink:title="CGLVector3D::getZ">
<polygon fill="white" stroke="black" points="146,-0.5 146,-19.5 250,-19.5 250,-0.5 146,-0.5"/>
<text text-anchor="middle" x="198" y="-7.5" font-family="Helvetica,sans-Serif" font-size="10.00">CGLVector3D::getZ</text>
</a>
</g>
</g>
<!-- Node1&#45;&gt;Node4 -->
<g id="edge3" class="edge"><title>Node1&#45;&gt;Node4</title>
<path fill="none" stroke="midnightblue" d="M91.5803,-38.411C109.782,-33.5056 132.138,-27.4804 151.572,-22.2429"/>
<polygon fill="midnightblue" stroke="midnightblue" points="152.686,-25.5676 161.431,-19.5859 150.865,-18.8088 152.686,-25.5676"/>
</g>
</g>
</svg>
