<?xml version="1.0" encoding="UTF-8" standalone="no"?>
<!DOCTYPE svg PUBLIC "-//W3C//DTD SVG 1.1//EN"
 "http://www.w3.org/Graphics/SVG/1.1/DTD/svg11.dtd">
<!-- Generated by graphviz version 2.36.0 (20140111.2315)
 -->
<!-- Title: CGLWorld Pages: 1 -->
<svg width="195pt" height="470pt"
 viewBox="0.00 0.00 195.00 470.00" xmlns="http://www.w3.org/2000/svg" xmlns:xlink="http://www.w3.org/1999/xlink">
<g id="graph0" class="graph" transform="scale(1 1) rotate(0) translate(4 466)">
<title>CGLWorld</title>
<polygon fill="white" stroke="none" points="-4,4 -4,-466 191,-466 191,4 -4,4"/>
<!-- Node1 -->
<g id="node1" class="node"><title>Node1</title>
<polygon fill="#bfbfbf" stroke="black" points="-0.5,-1 -0.5,-91 104.5,-91 104.5,-1 -0.5,-1"/>
<text text-anchor="middle" x="52" y="-79" font-family="Helvetica,sans-Serif" font-size="10.00">CGLWorld</text>
<polyline fill="none" stroke="black" points="-0.5,-72 104.5,-72 "/>
<text text-anchor="middle" x="52" y="-60" font-family="Helvetica,sans-Serif" font-size="10.00"> </text>
<polyline fill="none" stroke="black" points="-0.5,-53 104.5,-53 "/>
<text text-anchor="start" x="7.5" y="-41" font-family="Helvetica,sans-Serif" font-size="10.00">+ CGLWorld()</text>
<text text-anchor="start" x="7.5" y="-30" font-family="Helvetica,sans-Serif" font-size="10.00">+ ~CGLWorld()</text>
<text text-anchor="start" x="7.5" y="-19" font-family="Helvetica,sans-Serif" font-size="10.00">+ draw()</text>
<text text-anchor="start" x="7.5" y="-8" font-family="Helvetica,sans-Serif" font-size="10.00">+ getCurrentScene()</text>
</g>
<!-- Node2 -->
<g id="node2" class="node"><title>Node2</title>
<g id="a_node2"><a xlink:href="$d0/d14/class_c_g_l_special.xhtml" xlink:title="{CGLSpecial\n||+ CGLSpecial()\l+ ~CGLSpecial()\l}">
<polygon fill="white" stroke="black" points="7,-131 7,-199 97,-199 97,-131 7,-131"/>
<text text-anchor="middle" x="52" y="-187" font-family="Helvetica,sans-Serif" font-size="10.00">CGLSpecial</text>
<polyline fill="none" stroke="black" points="7,-180 97,-180 "/>
<text text-anchor="middle" x="52" y="-168" font-family="Helvetica,sans-Serif" font-size="10.00"> </text>
<polyline fill="none" stroke="black" points="7,-161 97,-161 "/>
<text text-anchor="start" x="15" y="-149" font-family="Helvetica,sans-Serif" font-size="10.00">+ CGLSpecial()</text>
<text text-anchor="start" x="15" y="-138" font-family="Helvetica,sans-Serif" font-size="10.00">+ ~CGLSpecial()</text>
</a>
</g>
</g>
<!-- Node2&#45;&gt;Node1 -->
<g id="edge1" class="edge"><title>Node2&#45;&gt;Node1</title>
<path fill="none" stroke="midnightblue" d="M52,-120.65C52,-111.049 52,-100.863 52,-91.2275"/>
<polygon fill="none" stroke="midnightblue" points="48.5001,-120.785 52,-130.785 55.5001,-120.785 48.5001,-120.785"/>
</g>
<!-- Node3 -->
<g id="node3" class="node"><title>Node3</title>
<g id="a_node3"><a xlink:href="$d2/d76/class_c_g_l_object.xhtml" xlink:title="{CGLObject\n|# objectType\l# name\l# matrixSaved\l# children\l# iterCurrentObject\l|+ addObject()\l+ setName()\l+ getName()\l+ getCurrentObject()\l+ isChild()\l+ draw()\l+ drawObject()\l+ drawChildren()\l+ drawCenter()\l+ CGLObject()\l+ ~CGLObject()\l+ init()\l}">
<polygon fill="white" stroke="black" points="-1,-239 -1,-461 105,-461 105,-239 -1,-239"/>
<text text-anchor="middle" x="52" y="-449" font-family="Helvetica,sans-Serif" font-size="10.00">CGLObject</text>
<polyline fill="none" stroke="black" points="-1,-442 105,-442 "/>
<text text-anchor="start" x="7" y="-430" font-family="Helvetica,sans-Serif" font-size="10.00"># objectType</text>
<text text-anchor="start" x="7" y="-419" font-family="Helvetica,sans-Serif" font-size="10.00"># name</text>
<text text-anchor="start" x="7" y="-408" font-family="Helvetica,sans-Serif" font-size="10.00"># matrixSaved</text>
<text text-anchor="start" x="7" y="-397" font-family="Helvetica,sans-Serif" font-size="10.00"># children</text>
<text text-anchor="start" x="7" y="-386" font-family="Helvetica,sans-Serif" font-size="10.00"># iterCurrentObject</text>
<polyline fill="none" stroke="black" points="-1,-379 105,-379 "/>
<text text-anchor="start" x="7" y="-367" font-family="Helvetica,sans-Serif" font-size="10.00">+ addObject()</text>
<text text-anchor="start" x="7" y="-356" font-family="Helvetica,sans-Serif" font-size="10.00">+ setName()</text>
<text text-anchor="start" x="7" y="-345" font-family="Helvetica,sans-Serif" font-size="10.00">+ getName()</text>
<text text-anchor="start" x="7" y="-334" font-family="Helvetica,sans-Serif" font-size="10.00">+ getCurrentObject()</text>
<text text-anchor="start" x="7" y="-323" font-family="Helvetica,sans-Serif" font-size="10.00">+ isChild()</text>
<text text-anchor="start" x="7" y="-312" font-family="Helvetica,sans-Serif" font-size="10.00">+ draw()</text>
<text text-anchor="start" x="7" y="-301" font-family="Helvetica,sans-Serif" font-size="10.00">+ drawObject()</text>
<text text-anchor="start" x="7" y="-290" font-family="Helvetica,sans-Serif" font-size="10.00">+ drawChildren()</text>
<text text-anchor="start" x="7" y="-279" font-family="Helvetica,sans-Serif" font-size="10.00">+ drawCenter()</text>
<text text-anchor="start" x="7" y="-268" font-family="Helvetica,sans-Serif" font-size="10.00">+ CGLObject()</text>
<text text-anchor="start" x="7" y="-257" font-family="Helvetica,sans-Serif" font-size="10.00">+ ~CGLObject()</text>
<text text-anchor="start" x="7" y="-246" font-family="Helvetica,sans-Serif" font-size="10.00">+ init()</text>
</a>
</g>
</g>
<!-- Node3&#45;&gt;Node2 -->
<g id="edge2" class="edge"><title>Node3&#45;&gt;Node2</title>
<path fill="none" stroke="midnightblue" d="M52,-228.537C52,-217.94 52,-207.921 52,-199.135"/>
<polygon fill="none" stroke="midnightblue" points="48.5001,-228.852 52,-238.852 55.5001,-228.852 48.5001,-228.852"/>
</g>
<!-- Node3&#45;&gt;Node3 -->
<g id="edge3" class="edge"><title>Node3&#45;&gt;Node3</title>
<path fill="none" stroke="#404040" d="M105.111,-373.124C115.021,-370.276 122,-362.568 122,-350 122,-342.734 119.667,-337.092 115.784,-333.075"/>
<polygon fill="none" stroke="#404040" points="115.488,-332.903 108.291,-333.349 105.111,-326.876 112.309,-326.431 115.488,-332.903"/>
<text text-anchor="middle" x="154" y="-358.5" font-family="Helvetica,sans-Serif" font-size="10.00"> +garbage</text>
<text text-anchor="middle" x="154" y="-347.5" font-family="Helvetica,sans-Serif" font-size="10.00">#currentObject</text>
<text text-anchor="middle" x="154" y="-336.5" font-family="Helvetica,sans-Serif" font-size="10.00">#parentObject</text>
</g>
</g>
</svg>
