<?xml version="1.0" encoding="UTF-8" standalone="no"?>
<!DOCTYPE svg PUBLIC "-//W3C//DTD SVG 1.1//EN"
 "http://www.w3.org/Graphics/SVG/1.1/DTD/svg11.dtd">
<!-- Generated by graphviz version 2.36.0 (20140111.2315)
 -->
<!-- Title: CGLPositionSpeedLimited Pages: 1 -->
<svg width="231pt" height="796pt"
 viewBox="0.00 0.00 231.00 796.00" xmlns="http://www.w3.org/2000/svg" xmlns:xlink="http://www.w3.org/1999/xlink">
<g id="graph0" class="graph" transform="scale(1 1) rotate(0) translate(4 792)">
<title>CGLPositionSpeedLimited</title>
<polygon fill="white" stroke="none" points="-4,4 -4,-792 227,-792 227,4 -4,4"/>
<!-- Node1 -->
<g id="node1" class="node"><title>Node1</title>
<polygon fill="#bfbfbf" stroke="black" points="37,-1 37,-113 189,-113 189,-1 37,-1"/>
<text text-anchor="middle" x="113" y="-101" font-family="Helvetica,sans-Serif" font-size="10.00">CGLPositionSpeedLimited</text>
<polyline fill="none" stroke="black" points="37,-94 189,-94 "/>
<text text-anchor="start" x="45" y="-82" font-family="Helvetica,sans-Serif" font-size="10.00"># min</text>
<text text-anchor="start" x="45" y="-71" font-family="Helvetica,sans-Serif" font-size="10.00"># max</text>
<polyline fill="none" stroke="black" points="37,-64 189,-64 "/>
<text text-anchor="start" x="45" y="-52" font-family="Helvetica,sans-Serif" font-size="10.00">+ CGLPositionSpeedLimited()</text>
<text text-anchor="start" x="45" y="-41" font-family="Helvetica,sans-Serif" font-size="10.00">+ ~CGLPositionSpeedLimited()</text>
<text text-anchor="start" x="45" y="-30" font-family="Helvetica,sans-Serif" font-size="10.00">+ getMin()</text>
<text text-anchor="start" x="45" y="-19" font-family="Helvetica,sans-Serif" font-size="10.00">+ getMax()</text>
<text text-anchor="start" x="45" y="-8" font-family="Helvetica,sans-Serif" font-size="10.00">+ drawObject()</text>
</g>
<!-- Node2 -->
<g id="node2" class="node"><title>Node2</title>
<g id="a_node2"><a xlink:href="../../d7/dc4/class_c_g_l_position_speed.xhtml" target="_top" xlink:title="{CGLPositionSpeed\n|# speed\l|+ CGLPositionSpeed()\l+ ~CGLPositionSpeed()\l+ drawObject()\l}">
<polygon fill="white" stroke="black" points="52.5,-150.5 52.5,-229.5 173.5,-229.5 173.5,-150.5 52.5,-150.5"/>
<text text-anchor="middle" x="113" y="-217.5" font-family="Helvetica,sans-Serif" font-size="10.00">CGLPositionSpeed</text>
<polyline fill="none" stroke="black" points="52.5,-210.5 173.5,-210.5 "/>
<text text-anchor="start" x="60.5" y="-198.5" font-family="Helvetica,sans-Serif" font-size="10.00"># speed</text>
<polyline fill="none" stroke="black" points="52.5,-191.5 173.5,-191.5 "/>
<text text-anchor="start" x="60.5" y="-179.5" font-family="Helvetica,sans-Serif" font-size="10.00">+ CGLPositionSpeed()</text>
<text text-anchor="start" x="60.5" y="-168.5" font-family="Helvetica,sans-Serif" font-size="10.00">+ ~CGLPositionSpeed()</text>
<text text-anchor="start" x="60.5" y="-157.5" font-family="Helvetica,sans-Serif" font-size="10.00">+ drawObject()</text>
</a>
</g>
</g>
<!-- Node2&#45;&gt;Node1 -->
<g id="edge1" class="edge"><title>Node2&#45;&gt;Node1</title>
<path fill="none" stroke="midnightblue" d="M113,-140.315C113,-131.514 113,-122.28 113,-113.307"/>
<polygon fill="none" stroke="midnightblue" points="109.5,-140.404 113,-150.404 116.5,-140.404 109.5,-140.404"/>
</g>
<!-- Node3 -->
<g id="node3" class="node"><title>Node3</title>
<g id="a_node3"><a xlink:href="../../de/d31/class_c_g_l_position.xhtml" target="_top" xlink:title="{CGLPosition\n||+ CGLPosition()\l+ ~CGLPosition()\l+ drawObject()\l}">
<polygon fill="white" stroke="black" points="66.5,-266.5 66.5,-345.5 159.5,-345.5 159.5,-266.5 66.5,-266.5"/>
<text text-anchor="middle" x="113" y="-333.5" font-family="Helvetica,sans-Serif" font-size="10.00">CGLPosition</text>
<polyline fill="none" stroke="black" points="66.5,-326.5 159.5,-326.5 "/>
<text text-anchor="middle" x="113" y="-314.5" font-family="Helvetica,sans-Serif" font-size="10.00"> </text>
<polyline fill="none" stroke="black" points="66.5,-307.5 159.5,-307.5 "/>
<text text-anchor="start" x="74.5" y="-295.5" font-family="Helvetica,sans-Serif" font-size="10.00">+ CGLPosition()</text>
<text text-anchor="start" x="74.5" y="-284.5" font-family="Helvetica,sans-Serif" font-size="10.00">+ ~CGLPosition()</text>
<text text-anchor="start" x="74.5" y="-273.5" font-family="Helvetica,sans-Serif" font-size="10.00">+ drawObject()</text>
</a>
</g>
</g>
<!-- Node3&#45;&gt;Node2 -->
<g id="edge2" class="edge"><title>Node3&#45;&gt;Node2</title>
<path fill="none" stroke="midnightblue" d="M113,-256.146C113,-247.256 113,-238.096 113,-229.555"/>
<polygon fill="none" stroke="midnightblue" points="109.5,-256.405 113,-266.405 116.5,-256.405 109.5,-256.405"/>
</g>
<!-- Node4 -->
<g id="node4" class="node"><title>Node4</title>
<g id="a_node4"><a xlink:href="../../dc/d8a/class_c_g_l_effect.xhtml" target="_top" xlink:title="{CGLEffect\n||+ CGLEffect()\l+ ~CGLEffect()\l}">
<polygon fill="white" stroke="black" points="14,-405 14,-473 98,-473 98,-405 14,-405"/>
<text text-anchor="middle" x="56" y="-461" font-family="Helvetica,sans-Serif" font-size="10.00">CGLEffect</text>
<polyline fill="none" stroke="black" points="14,-454 98,-454 "/>
<text text-anchor="middle" x="56" y="-442" font-family="Helvetica,sans-Serif" font-size="10.00"> </text>
<polyline fill="none" stroke="black" points="14,-435 98,-435 "/>
<text text-anchor="start" x="22" y="-423" font-family="Helvetica,sans-Serif" font-size="10.00">+ CGLEffect()</text>
<text text-anchor="start" x="22" y="-412" font-family="Helvetica,sans-Serif" font-size="10.00">+ ~CGLEffect()</text>
</a>
</g>
</g>
<!-- Node4&#45;&gt;Node3 -->
<g id="edge3" class="edge"><title>Node4&#45;&gt;Node3</title>
<path fill="none" stroke="midnightblue" d="M74.3858,-395.745C81.3934,-379.64 89.3383,-361.38 96.192,-345.629"/>
<polygon fill="none" stroke="midnightblue" points="71.164,-394.377 70.3835,-404.943 77.5827,-397.17 71.164,-394.377"/>
</g>
<!-- Node5 -->
<g id="node5" class="node"><title>Node5</title>
<g id="a_node5"><a xlink:href="../../d2/d76/class_c_g_l_object.xhtml" target="_top" xlink:title="{CGLObject\n|+ garbage\l# objectType\l# name\l# matrixSaved\l# children\l# iterCurrentObject\l# currentObject\l# parentObject\l|+ addObject()\l+ setName()\l+ getName()\l+ getCurrentObject()\l+ isChild()\l+ draw()\l+ drawObject()\l+ drawChildren()\l+ drawCenter()\l+ CGLObject()\l+ ~CGLObject()\l+ init()\l}">
<polygon fill="white" stroke="black" points="0,-532.5 0,-787.5 106,-787.5 106,-532.5 0,-532.5"/>
<text text-anchor="middle" x="53" y="-775.5" font-family="Helvetica,sans-Serif" font-size="10.00">CGLObject</text>
<polyline fill="none" stroke="black" points="0,-768.5 106,-768.5 "/>
<text text-anchor="start" x="8" y="-756.5" font-family="Helvetica,sans-Serif" font-size="10.00">+ garbage</text>
<text text-anchor="start" x="8" y="-745.5" font-family="Helvetica,sans-Serif" font-size="10.00"># objectType</text>
<text text-anchor="start" x="8" y="-734.5" font-family="Helvetica,sans-Serif" font-size="10.00"># name</text>
<text text-anchor="start" x="8" y="-723.5" font-family="Helvetica,sans-Serif" font-size="10.00"># matrixSaved</text>
<text text-anchor="start" x="8" y="-712.5" font-family="Helvetica,sans-Serif" font-size="10.00"># children</text>
<text text-anchor="start" x="8" y="-701.5" font-family="Helvetica,sans-Serif" font-size="10.00"># iterCurrentObject</text>
<text text-anchor="start" x="8" y="-690.5" font-family="Helvetica,sans-Serif" font-size="10.00"># currentObject</text>
<text text-anchor="start" x="8" y="-679.5" font-family="Helvetica,sans-Serif" font-size="10.00"># parentObject</text>
<polyline fill="none" stroke="black" points="0,-672.5 106,-672.5 "/>
<text text-anchor="start" x="8" y="-660.5" font-family="Helvetica,sans-Serif" font-size="10.00">+ addObject()</text>
<text text-anchor="start" x="8" y="-649.5" font-family="Helvetica,sans-Serif" font-size="10.00">+ setName()</text>
<text text-anchor="start" x="8" y="-638.5" font-family="Helvetica,sans-Serif" font-size="10.00">+ getName()</text>
<text text-anchor="start" x="8" y="-627.5" font-family="Helvetica,sans-Serif" font-size="10.00">+ getCurrentObject()</text>
<text text-anchor="start" x="8" y="-616.5" font-family="Helvetica,sans-Serif" font-size="10.00">+ isChild()</text>
<text text-anchor="start" x="8" y="-605.5" font-family="Helvetica,sans-Serif" font-size="10.00">+ draw()</text>
<text text-anchor="start" x="8" y="-594.5" font-family="Helvetica,sans-Serif" font-size="10.00">+ drawObject()</text>
<text text-anchor="start" x="8" y="-583.5" font-family="Helvetica,sans-Serif" font-size="10.00">+ drawChildren()</text>
<text text-anchor="start" x="8" y="-572.5" font-family="Helvetica,sans-Serif" font-size="10.00">+ drawCenter()</text>
<text text-anchor="start" x="8" y="-561.5" font-family="Helvetica,sans-Serif" font-size="10.00">+ CGLObject()</text>
<text text-anchor="start" x="8" y="-550.5" font-family="Helvetica,sans-Serif" font-size="10.00">+ ~CGLObject()</text>
<text text-anchor="start" x="8" y="-539.5" font-family="Helvetica,sans-Serif" font-size="10.00">+ init()</text>
</a>
</g>
</g>
<!-- Node5&#45;&gt;Node4 -->
<g id="edge4" class="edge"><title>Node5&#45;&gt;Node4</title>
<path fill="none" stroke="midnightblue" d="M54.875,-522.125C55.1221,-504.087 55.3547,-487.108 55.5435,-473.323"/>
<polygon fill="none" stroke="midnightblue" points="51.3738,-522.194 54.7364,-532.241 58.3732,-522.29 51.3738,-522.194"/>
</g>
<!-- Node6 -->
<g id="node6" class="node"><title>Node6</title>
<g id="a_node6"><a xlink:href="../../d6/df9/class_c_g_l_vector3_d.xhtml" target="_top" xlink:title="{CGLVector3D\n|# z\l|+ CGLVector3D()\l+ ~CGLVector3D()\l+ isEqualTo()\l+ getZ()\l+ set()\l+ setZ()\l}">
<polygon fill="white" stroke="black" points="121.5,-383 121.5,-495 220.5,-495 220.5,-383 121.5,-383"/>
<text text-anchor="middle" x="171" y="-483" font-family="Helvetica,sans-Serif" font-size="10.00">CGLVector3D</text>
<polyline fill="none" stroke="black" points="121.5,-476 220.5,-476 "/>
<text text-anchor="start" x="129.5" y="-464" font-family="Helvetica,sans-Serif" font-size="10.00"># z</text>
<polyline fill="none" stroke="black" points="121.5,-457 220.5,-457 "/>
<text text-anchor="start" x="129.5" y="-445" font-family="Helvetica,sans-Serif" font-size="10.00">+ CGLVector3D()</text>
<text text-anchor="start" x="129.5" y="-434" font-family="Helvetica,sans-Serif" font-size="10.00">+ ~CGLVector3D()</text>
<text text-anchor="start" x="129.5" y="-423" font-family="Helvetica,sans-Serif" font-size="10.00">+ isEqualTo()</text>
<text text-anchor="start" x="129.5" y="-412" font-family="Helvetica,sans-Serif" font-size="10.00">+ getZ()</text>
<text text-anchor="start" x="129.5" y="-401" font-family="Helvetica,sans-Serif" font-size="10.00">+ set()</text>
<text text-anchor="start" x="129.5" y="-390" font-family="Helvetica,sans-Serif" font-size="10.00">+ setZ()</text>
</a>
</g>
</g>
<!-- Node6&#45;&gt;Node3 -->
<g id="edge5" class="edge"><title>Node6&#45;&gt;Node3</title>
<path fill="none" stroke="midnightblue" d="M142.408,-373.422C138.229,-363.983 134.039,-354.519 130.184,-345.813"/>
<polygon fill="none" stroke="midnightblue" points="139.322,-375.097 146.571,-382.824 145.723,-372.263 139.322,-375.097"/>
</g>
<!-- Node7 -->
<g id="node7" class="node"><title>Node7</title>
<g id="a_node7"><a xlink:href="../../d8/d97/class_c_g_l_vector2_d.xhtml" target="_top" xlink:title="{CGLVector2D\n|# x\l# y\l# minX\l# maxX\l# minY\l# maxY\l|+ CGLVector2D()\l+ ~CGLVector2D()\l+ set()\l+ setX()\l+ getX()\l+ setMinX()\l+ getMinX()\l+ setMaxX()\l+ getMaxX()\l+ setY()\let 9 de plus...\l}">
<polygon fill="white" stroke="black" points="124.5,-549 124.5,-771 223.5,-771 223.5,-549 124.5,-549"/>
<text text-anchor="middle" x="174" y="-759" font-family="Helvetica,sans-Serif" font-size="10.00">CGLVector2D</text>
<polyline fill="none" stroke="black" points="124.5,-752 223.5,-752 "/>
<text text-anchor="start" x="132.5" y="-740" font-family="Helvetica,sans-Serif" font-size="10.00"># x</text>
<text text-anchor="start" x="132.5" y="-729" font-family="Helvetica,sans-Serif" font-size="10.00"># y</text>
<text text-anchor="start" x="132.5" y="-718" font-family="Helvetica,sans-Serif" font-size="10.00"># minX</text>
<text text-anchor="start" x="132.5" y="-707" font-family="Helvetica,sans-Serif" font-size="10.00"># maxX</text>
<text text-anchor="start" x="132.5" y="-696" font-family="Helvetica,sans-Serif" font-size="10.00"># minY</text>
<text text-anchor="start" x="132.5" y="-685" font-family="Helvetica,sans-Serif" font-size="10.00"># maxY</text>
<polyline fill="none" stroke="black" points="124.5,-678 223.5,-678 "/>
<text text-anchor="start" x="132.5" y="-666" font-family="Helvetica,sans-Serif" font-size="10.00">+ CGLVector2D()</text>
<text text-anchor="start" x="132.5" y="-655" font-family="Helvetica,sans-Serif" font-size="10.00">+ ~CGLVector2D()</text>
<text text-anchor="start" x="132.5" y="-644" font-family="Helvetica,sans-Serif" font-size="10.00">+ set()</text>
<text text-anchor="start" x="132.5" y="-633" font-family="Helvetica,sans-Serif" font-size="10.00">+ setX()</text>
<text text-anchor="start" x="132.5" y="-622" font-family="Helvetica,sans-Serif" font-size="10.00">+ getX()</text>
<text text-anchor="start" x="132.5" y="-611" font-family="Helvetica,sans-Serif" font-size="10.00">+ setMinX()</text>
<text text-anchor="start" x="132.5" y="-600" font-family="Helvetica,sans-Serif" font-size="10.00">+ getMinX()</text>
<text text-anchor="start" x="132.5" y="-589" font-family="Helvetica,sans-Serif" font-size="10.00">+ setMaxX()</text>
<text text-anchor="start" x="132.5" y="-578" font-family="Helvetica,sans-Serif" font-size="10.00">+ getMaxX()</text>
<text text-anchor="start" x="132.5" y="-567" font-family="Helvetica,sans-Serif" font-size="10.00">+ setY()</text>
<text text-anchor="start" x="132.5" y="-556" font-family="Helvetica,sans-Serif" font-size="10.00">et 9 de plus...</text>
</a>
</g>
</g>
<!-- Node7&#45;&gt;Node6 -->
<g id="edge6" class="edge"><title>Node7&#45;&gt;Node6</title>
<path fill="none" stroke="midnightblue" d="M172.354,-538.825C172.145,-523.599 171.94,-508.651 171.756,-495.173"/>
<polygon fill="none" stroke="midnightblue" points="168.854,-538.907 172.491,-548.858 175.854,-538.811 168.854,-538.907"/>
</g>
</g>
</svg>
