<?xml version="1.0" encoding="UTF-8" standalone="no"?>
<!DOCTYPE svg PUBLIC "-//W3C//DTD SVG 1.1//EN"
 "http://www.w3.org/Graphics/SVG/1.1/DTD/svg11.dtd">
<!-- Generated by graphviz version 2.36.0 (20140111.2315)
 -->
<!-- Title: /home/dagal/git/DamierGL/DamierGL/src/CGL/CGLScene.cpp Pages: 1 -->
<svg width="390pt" height="376pt"
 viewBox="0.00 0.00 390.00 376.00" xmlns="http://www.w3.org/2000/svg" xmlns:xlink="http://www.w3.org/1999/xlink">
<g id="graph0" class="graph" transform="scale(1 1) rotate(0) translate(4 372)">
<title>/home/dagal/git/DamierGL/DamierGL/src/CGL/CGLScene.cpp</title>
<polygon fill="white" stroke="none" points="-4,4 -4,-372 386,-372 386,4 -4,4"/>
<!-- Node1 -->
<g id="node1" class="node"><title>Node1</title>
<polygon fill="#bfbfbf" stroke="black" points="106.5,-337 106.5,-367 279.5,-367 279.5,-337 106.5,-337"/>
<text text-anchor="start" x="114.5" y="-355" font-family="Helvetica,sans-Serif" font-size="10.00">/home/dagal/git/DamierGL</text>
<text text-anchor="middle" x="193" y="-344" font-family="Helvetica,sans-Serif" font-size="10.00">/DamierGL/src/CGL/CGLScene.cpp</text>
</g>
<!-- Node2 -->
<g id="node2" class="node"><title>Node2</title>
<g id="a_node2"><a xlink:href="$d0/dc9/_c_g_l_scene_8h.xhtml" xlink:title="CGLScene.h">
<polygon fill="white" stroke="black" points="112.5,-280.5 112.5,-299.5 185.5,-299.5 185.5,-280.5 112.5,-280.5"/>
<text text-anchor="middle" x="149" y="-287.5" font-family="Helvetica,sans-Serif" font-size="10.00">CGLScene.h</text>
</a>
</g>
</g>
<!-- Node1&#45;&gt;Node2 -->
<g id="edge1" class="edge"><title>Node1&#45;&gt;Node2</title>
<path fill="none" stroke="midnightblue" d="M182.573,-336.781C176.245,-328.152 168.131,-317.088 161.466,-307.999"/>
<polygon fill="midnightblue" stroke="midnightblue" points="164.138,-305.725 155.402,-299.731 158.494,-309.864 164.138,-305.725"/>
</g>
<!-- Node14 -->
<g id="node14" class="node"><title>Node14</title>
<g id="a_node14"><a xlink:href="$db/d17/_c_g_l_boite_8h.xhtml" xlink:title="CGLBoite.h">
<polygon fill="white" stroke="black" points="204,-280.5 204,-299.5 272,-299.5 272,-280.5 204,-280.5"/>
<text text-anchor="middle" x="238" y="-287.5" font-family="Helvetica,sans-Serif" font-size="10.00">CGLBoite.h</text>
</a>
</g>
</g>
<!-- Node1&#45;&gt;Node14 -->
<g id="edge14" class="edge"><title>Node1&#45;&gt;Node14</title>
<path fill="none" stroke="midnightblue" d="M203.664,-336.781C210.136,-328.152 218.434,-317.088 225.251,-307.999"/>
<polygon fill="midnightblue" stroke="midnightblue" points="228.252,-309.831 231.452,-299.731 222.652,-305.631 228.252,-309.831"/>
</g>
<!-- Node3 -->
<g id="node3" class="node"><title>Node3</title>
<g id="a_node3"><a xlink:href="$d5/d86/_c_g_l_camera_list_8h.xhtml" xlink:title="CGLCameraList.h">
<polygon fill="white" stroke="black" points="29.5,-224.5 29.5,-243.5 124.5,-243.5 124.5,-224.5 29.5,-224.5"/>
<text text-anchor="middle" x="77" y="-231.5" font-family="Helvetica,sans-Serif" font-size="10.00">CGLCameraList.h</text>
</a>
</g>
</g>
<!-- Node2&#45;&gt;Node3 -->
<g id="edge2" class="edge"><title>Node2&#45;&gt;Node3</title>
<path fill="none" stroke="midnightblue" d="M137.432,-280.324C126.58,-272.185 110.119,-259.839 97.1166,-250.087"/>
<polygon fill="midnightblue" stroke="midnightblue" points="98.8786,-247.034 88.7785,-243.834 94.6785,-252.634 98.8786,-247.034"/>
</g>
<!-- Node13 -->
<g id="node13" class="node"><title>Node13</title>
<g id="a_node13"><a xlink:href="$da/d23/_c_g_l_light_8h.xhtml" xlink:title="CGLLight.h">
<polygon fill="white" stroke="black" points="143,-224.5 143,-243.5 209,-243.5 209,-224.5 143,-224.5"/>
<text text-anchor="middle" x="176" y="-231.5" font-family="Helvetica,sans-Serif" font-size="10.00">CGLLight.h</text>
</a>
</g>
</g>
<!-- Node2&#45;&gt;Node13 -->
<g id="edge12" class="edge"><title>Node2&#45;&gt;Node13</title>
<path fill="none" stroke="midnightblue" d="M153.459,-280.083C157.154,-272.691 162.523,-261.953 167.094,-252.811"/>
<polygon fill="midnightblue" stroke="midnightblue" points="170.283,-254.261 171.624,-243.751 164.022,-251.13 170.283,-254.261"/>
</g>
<!-- Node4 -->
<g id="node4" class="node"><title>Node4</title>
<g id="a_node4"><a xlink:href="$df/d5b/_c_g_l_camera_8h.xhtml" xlink:title="CGLCamera.h">
<polygon fill="white" stroke="black" points="50,-168.5 50,-187.5 130,-187.5 130,-168.5 50,-168.5"/>
<text text-anchor="middle" x="90" y="-175.5" font-family="Helvetica,sans-Serif" font-size="10.00">CGLCamera.h</text>
</a>
</g>
</g>
<!-- Node3&#45;&gt;Node4 -->
<g id="edge3" class="edge"><title>Node3&#45;&gt;Node4</title>
<path fill="none" stroke="midnightblue" d="M79.1467,-224.083C80.8694,-216.927 83.3471,-206.635 85.5003,-197.691"/>
<polygon fill="midnightblue" stroke="midnightblue" points="88.9554,-198.293 87.8933,-187.751 82.1499,-196.654 88.9554,-198.293"/>
</g>
<!-- Node5 -->
<g id="node5" class="node"><title>Node5</title>
<g id="a_node5"><a xlink:href="$dc/db8/_c_g_l_special_8h.xhtml" xlink:title="CGLSpecial.h">
<polygon fill="white" stroke="black" points="132.5,-112.5 132.5,-131.5 209.5,-131.5 209.5,-112.5 132.5,-112.5"/>
<text text-anchor="middle" x="171" y="-119.5" font-family="Helvetica,sans-Serif" font-size="10.00">CGLSpecial.h</text>
</a>
</g>
</g>
<!-- Node4&#45;&gt;Node5 -->
<g id="edge4" class="edge"><title>Node4&#45;&gt;Node5</title>
<path fill="none" stroke="midnightblue" d="M103.014,-168.324C115.532,-159.979 134.682,-147.212 149.471,-137.352"/>
<polygon fill="midnightblue" stroke="midnightblue" points="151.639,-140.114 158.018,-131.655 147.756,-134.289 151.639,-140.114"/>
</g>
<!-- Node6 -->
<g id="node6" class="node"><title>Node6</title>
<g id="a_node6"><a xlink:href="$d6/d55/_c_g_l_object_8h.xhtml" xlink:title="CGLObject.h">
<polygon fill="white" stroke="black" points="167,-56.5 167,-75.5 241,-75.5 241,-56.5 167,-56.5"/>
<text text-anchor="middle" x="204" y="-63.5" font-family="Helvetica,sans-Serif" font-size="10.00">CGLObject.h</text>
</a>
</g>
</g>
<!-- Node5&#45;&gt;Node6 -->
<g id="edge5" class="edge"><title>Node5&#45;&gt;Node6</title>
<path fill="none" stroke="midnightblue" d="M176.449,-112.083C181.014,-104.613 187.668,-93.7244 193.293,-84.5199"/>
<polygon fill="midnightblue" stroke="midnightblue" points="196.424,-86.109 198.652,-75.7511 190.451,-82.4588 196.424,-86.109"/>
</g>
<!-- Node7 -->
<g id="node7" class="node"><title>Node7</title>
<polygon fill="white" stroke="#bfbfbf" points="0,-0.5 0,-19.5 54,-19.5 54,-0.5 0,-0.5"/>
<text text-anchor="middle" x="27" y="-7.5" font-family="Helvetica,sans-Serif" font-size="10.00">iostream</text>
</g>
<!-- Node6&#45;&gt;Node7 -->
<g id="edge6" class="edge"><title>Node6&#45;&gt;Node7</title>
<path fill="none" stroke="midnightblue" d="M175.954,-56.4435C145.653,-47.1993 97.2415,-32.4296 63.8785,-22.2511"/>
<polygon fill="midnightblue" stroke="midnightblue" points="64.6304,-18.8213 54.0443,-19.2508 62.5877,-25.5166 64.6304,-18.8213"/>
</g>
<!-- Node8 -->
<g id="node8" class="node"><title>Node8</title>
<polygon fill="white" stroke="#bfbfbf" points="72,-0.5 72,-19.5 120,-19.5 120,-0.5 72,-0.5"/>
<text text-anchor="middle" x="96" y="-7.5" font-family="Helvetica,sans-Serif" font-size="10.00">GL/gl.h</text>
</g>
<!-- Node6&#45;&gt;Node8 -->
<g id="edge7" class="edge"><title>Node6&#45;&gt;Node8</title>
<path fill="none" stroke="midnightblue" d="M186.648,-56.324C169.328,-47.6641 142.485,-34.2424 122.498,-24.249"/>
<polygon fill="midnightblue" stroke="midnightblue" points="123.819,-20.9962 113.309,-19.6545 120.688,-27.2572 123.819,-20.9962"/>
</g>
<!-- Node9 -->
<g id="node9" class="node"><title>Node9</title>
<polygon fill="white" stroke="#bfbfbf" points="138.5,-0.5 138.5,-19.5 191.5,-19.5 191.5,-0.5 138.5,-0.5"/>
<text text-anchor="middle" x="165" y="-7.5" font-family="Helvetica,sans-Serif" font-size="10.00">GL/glu.h</text>
</g>
<!-- Node6&#45;&gt;Node9 -->
<g id="edge8" class="edge"><title>Node6&#45;&gt;Node9</title>
<path fill="none" stroke="midnightblue" d="M197.56,-56.083C192.051,-48.4554 183.969,-37.2645 177.235,-27.9408"/>
<polygon fill="midnightblue" stroke="midnightblue" points="180.013,-25.8087 171.32,-19.7511 174.338,-29.9071 180.013,-25.8087"/>
</g>
<!-- Node10 -->
<g id="node10" class="node"><title>Node10</title>
<polygon fill="white" stroke="#bfbfbf" points="209.5,-0.5 209.5,-19.5 276.5,-19.5 276.5,-0.5 209.5,-0.5"/>
<text text-anchor="middle" x="243" y="-7.5" font-family="Helvetica,sans-Serif" font-size="10.00">SDL/SDL.h</text>
</g>
<!-- Node6&#45;&gt;Node10 -->
<g id="edge9" class="edge"><title>Node6&#45;&gt;Node10</title>
<path fill="none" stroke="midnightblue" d="M210.44,-56.083C215.949,-48.4554 224.031,-37.2645 230.765,-27.9408"/>
<polygon fill="midnightblue" stroke="midnightblue" points="233.662,-29.9071 236.68,-19.7511 227.987,-25.8087 233.662,-29.9071"/>
</g>
<!-- Node11 -->
<g id="node11" class="node"><title>Node11</title>
<polygon fill="white" stroke="#bfbfbf" points="294.5,-0.5 294.5,-19.5 335.5,-19.5 335.5,-0.5 294.5,-0.5"/>
<text text-anchor="middle" x="315" y="-7.5" font-family="Helvetica,sans-Serif" font-size="10.00">string</text>
</g>
<!-- Node6&#45;&gt;Node11 -->
<g id="edge10" class="edge"><title>Node6&#45;&gt;Node11</title>
<path fill="none" stroke="midnightblue" d="M221.834,-56.324C239.716,-47.6247 267.475,-34.1202 288.046,-24.113"/>
<polygon fill="midnightblue" stroke="midnightblue" points="289.749,-27.1765 297.21,-19.6545 286.687,-20.8819 289.749,-27.1765"/>
</g>
<!-- Node12 -->
<g id="node12" class="node"><title>Node12</title>
<polygon fill="white" stroke="#bfbfbf" points="353.5,-0.5 353.5,-19.5 382.5,-19.5 382.5,-0.5 353.5,-0.5"/>
<text text-anchor="middle" x="368" y="-7.5" font-family="Helvetica,sans-Serif" font-size="10.00">list</text>
</g>
<!-- Node6&#45;&gt;Node12 -->
<g id="edge11" class="edge"><title>Node6&#45;&gt;Node12</title>
<path fill="none" stroke="midnightblue" d="M232.021,-56.4255C258.495,-48.23 299.512,-35.2901 343.817,-19.9433"/>
<polygon fill="midnightblue" stroke="midnightblue" points="345.026,-23.2285 353.317,-16.6327 342.722,-16.6184 345.026,-23.2285"/>
</g>
<!-- Node13&#45;&gt;Node5 -->
<g id="edge13" class="edge"><title>Node13&#45;&gt;Node5</title>
<path fill="none" stroke="midnightblue" d="M175.608,-224.368C174.801,-206.617 172.939,-165.666 171.845,-141.597"/>
<polygon fill="midnightblue" stroke="midnightblue" points="175.341,-141.422 171.391,-131.591 168.348,-141.74 175.341,-141.422"/>
</g>
<!-- Node15 -->
<g id="node15" class="node"><title>Node15</title>
<g id="a_node15"><a xlink:href="$d2/d5a/_c_g_l_item_8h.xhtml" xlink:title="CGLItem.h">
<polygon fill="white" stroke="black" points="205.5,-168.5 205.5,-187.5 270.5,-187.5 270.5,-168.5 205.5,-168.5"/>
<text text-anchor="middle" x="238" y="-175.5" font-family="Helvetica,sans-Serif" font-size="10.00">CGLItem.h</text>
</a>
</g>
</g>
<!-- Node14&#45;&gt;Node15 -->
<g id="edge15" class="edge"><title>Node14&#45;&gt;Node15</title>
<path fill="none" stroke="midnightblue" d="M238,-280.368C238,-262.617 238,-221.666 238,-197.597"/>
<polygon fill="midnightblue" stroke="midnightblue" points="241.5,-197.591 238,-187.591 234.5,-197.591 241.5,-197.591"/>
</g>
<!-- Node15&#45;&gt;Node6 -->
<g id="edge16" class="edge"><title>Node15&#45;&gt;Node6</title>
<path fill="none" stroke="midnightblue" d="M235.291,-168.166C231.455,-155.659 224.212,-132.077 218,-112 215.276,-103.196 212.239,-93.4271 209.691,-85.2474"/>
<polygon fill="midnightblue" stroke="midnightblue" points="213.009,-84.1299 206.692,-75.6243 206.326,-86.2128 213.009,-84.1299"/>
</g>
</g>
</svg>
