<?xml version="1.0" encoding="UTF-8" standalone="no"?>
<!DOCTYPE svg PUBLIC "-//W3C//DTD SVG 1.1//EN"
 "http://www.w3.org/Graphics/SVG/1.1/DTD/svg11.dtd">
<!-- Generated by graphviz version 2.36.0 (20140111.2315)
 -->
<!-- Title: /home/dagal/git/DamierGL/DamierGL/src/CGL/CGLWindow.h Pages: 1 -->
<svg width="353pt" height="108pt"
 viewBox="0.00 0.00 353.00 108.00" xmlns="http://www.w3.org/2000/svg" xmlns:xlink="http://www.w3.org/1999/xlink">
<g id="graph0" class="graph" transform="scale(1 1) rotate(0) translate(4 104)">
<title>/home/dagal/git/DamierGL/DamierGL/src/CGL/CGLWindow.h</title>
<polygon fill="white" stroke="none" points="-4,4 -4,-104 349,-104 349,4 -4,4"/>
<!-- Node1 -->
<g id="node1" class="node"><title>Node1</title>
<polygon fill="#bfbfbf" stroke="black" points="96,-69 96,-99 266,-99 266,-69 96,-69"/>
<text text-anchor="start" x="104" y="-87" font-family="Helvetica,sans-Serif" font-size="10.00">/home/dagal/git/DamierGL</text>
<text text-anchor="middle" x="181" y="-76" font-family="Helvetica,sans-Serif" font-size="10.00">/DamierGL/src/CGL/CGLWindow.h</text>
</g>
<!-- Node2 -->
<g id="node2" class="node"><title>Node2</title>
<g id="a_node2"><a xlink:href="$df/d9a/_c_g_l_window_8cpp.xhtml" xlink:title="/home/dagal/git/DamierGL\l/DamierGL/src/CGL/CGLWindow.cpp">
<polygon fill="white" stroke="black" points="-0.5,-1 -0.5,-31 180.5,-31 180.5,-1 -0.5,-1"/>
<text text-anchor="start" x="7.5" y="-19" font-family="Helvetica,sans-Serif" font-size="10.00">/home/dagal/git/DamierGL</text>
<text text-anchor="middle" x="90" y="-8" font-family="Helvetica,sans-Serif" font-size="10.00">/DamierGL/src/CGL/CGLWindow.cpp</text>
</a>
</g>
</g>
<!-- Node1&#45;&gt;Node2 -->
<g id="edge1" class="edge"><title>Node1&#45;&gt;Node2</title>
<path fill="none" stroke="midnightblue" d="M152.872,-62.5994C138.769,-52.3712 122.047,-40.2428 109.394,-31.0663"/>
<polygon fill="midnightblue" stroke="midnightblue" points="151.104,-65.6411 161.254,-68.679 155.214,-59.9745 151.104,-65.6411"/>
</g>
<!-- Node3 -->
<g id="node3" class="node"><title>Node3</title>
<g id="a_node3"><a xlink:href="$db/dec/_damier_g_l_8cpp.xhtml" xlink:title="/home/dagal/git/DamierGL\l/DamierGL/src/DamierGL.cpp">
<polygon fill="white" stroke="black" points="199,-1 199,-31 345,-31 345,-1 199,-1"/>
<text text-anchor="start" x="207" y="-19" font-family="Helvetica,sans-Serif" font-size="10.00">/home/dagal/git/DamierGL</text>
<text text-anchor="middle" x="272" y="-8" font-family="Helvetica,sans-Serif" font-size="10.00">/DamierGL/src/DamierGL.cpp</text>
</a>
</g>
</g>
<!-- Node1&#45;&gt;Node3 -->
<g id="edge2" class="edge"><title>Node1&#45;&gt;Node3</title>
<path fill="none" stroke="midnightblue" d="M209.128,-62.5994C223.231,-52.3712 239.953,-40.2428 252.606,-31.0663"/>
<polygon fill="midnightblue" stroke="midnightblue" points="206.786,-59.9745 200.746,-68.679 210.896,-65.6411 206.786,-59.9745"/>
</g>
</g>
</svg>
