<?xml version="1.0" encoding="UTF-8" standalone="no"?>
<!DOCTYPE svg PUBLIC "-//W3C//DTD SVG 1.1//EN"
 "http://www.w3.org/Graphics/SVG/1.1/DTD/svg11.dtd">
<!-- Generated by graphviz version 2.36.0 (20140111.2315)
 -->
<!-- Title: CGLObject Pages: 1 -->
<svg width="1745pt" height="586pt"
 viewBox="0.00 0.00 1745.00 586.00" xmlns="http://www.w3.org/2000/svg" xmlns:xlink="http://www.w3.org/1999/xlink">
<g id="graph0" class="graph" transform="scale(1 1) rotate(0) translate(4 582)">
<title>CGLObject</title>
<polygon fill="white" stroke="none" points="-4,4 -4,-582 1741,-582 1741,4 -4,4"/>
<!-- Node1 -->
<g id="node1" class="node"><title>Node1</title>
<polygon fill="#bfbfbf" stroke="black" points="658,-322.5 658,-577.5 764,-577.5 764,-322.5 658,-322.5"/>
<text text-anchor="middle" x="711" y="-565.5" font-family="Helvetica,sans-Serif" font-size="10.00">CGLObject</text>
<polyline fill="none" stroke="black" points="658,-558.5 764,-558.5 "/>
<text text-anchor="start" x="666" y="-546.5" font-family="Helvetica,sans-Serif" font-size="10.00">+ garbage</text>
<text text-anchor="start" x="666" y="-535.5" font-family="Helvetica,sans-Serif" font-size="10.00"># objectType</text>
<text text-anchor="start" x="666" y="-524.5" font-family="Helvetica,sans-Serif" font-size="10.00"># name</text>
<text text-anchor="start" x="666" y="-513.5" font-family="Helvetica,sans-Serif" font-size="10.00"># matrixSaved</text>
<text text-anchor="start" x="666" y="-502.5" font-family="Helvetica,sans-Serif" font-size="10.00"># children</text>
<text text-anchor="start" x="666" y="-491.5" font-family="Helvetica,sans-Serif" font-size="10.00"># iterCurrentObject</text>
<text text-anchor="start" x="666" y="-480.5" font-family="Helvetica,sans-Serif" font-size="10.00"># currentObject</text>
<text text-anchor="start" x="666" y="-469.5" font-family="Helvetica,sans-Serif" font-size="10.00"># parentObject</text>
<polyline fill="none" stroke="black" points="658,-462.5 764,-462.5 "/>
<text text-anchor="start" x="666" y="-450.5" font-family="Helvetica,sans-Serif" font-size="10.00">+ addObject()</text>
<text text-anchor="start" x="666" y="-439.5" font-family="Helvetica,sans-Serif" font-size="10.00">+ setName()</text>
<text text-anchor="start" x="666" y="-428.5" font-family="Helvetica,sans-Serif" font-size="10.00">+ getName()</text>
<text text-anchor="start" x="666" y="-417.5" font-family="Helvetica,sans-Serif" font-size="10.00">+ getCurrentObject()</text>
<text text-anchor="start" x="666" y="-406.5" font-family="Helvetica,sans-Serif" font-size="10.00">+ isChild()</text>
<text text-anchor="start" x="666" y="-395.5" font-family="Helvetica,sans-Serif" font-size="10.00">+ draw()</text>
<text text-anchor="start" x="666" y="-384.5" font-family="Helvetica,sans-Serif" font-size="10.00">+ drawObject()</text>
<text text-anchor="start" x="666" y="-373.5" font-family="Helvetica,sans-Serif" font-size="10.00">+ drawChildren()</text>
<text text-anchor="start" x="666" y="-362.5" font-family="Helvetica,sans-Serif" font-size="10.00">+ drawCenter()</text>
<text text-anchor="start" x="666" y="-351.5" font-family="Helvetica,sans-Serif" font-size="10.00">+ CGLObject()</text>
<text text-anchor="start" x="666" y="-340.5" font-family="Helvetica,sans-Serif" font-size="10.00">+ ~CGLObject()</text>
<text text-anchor="start" x="666" y="-329.5" font-family="Helvetica,sans-Serif" font-size="10.00">+ init()</text>
</g>
<!-- Node2 -->
<g id="node2" class="node"><title>Node2</title>
<g id="a_node2"><a xlink:href="../../dc/d8a/class_c_g_l_effect.xhtml" target="_top" xlink:title="{CGLEffect\n||+ CGLEffect()\l+ ~CGLEffect()\l}">
<polygon fill="white" stroke="black" points="215,-217 215,-285 299,-285 299,-217 215,-217"/>
<text text-anchor="middle" x="257" y="-273" font-family="Helvetica,sans-Serif" font-size="10.00">CGLEffect</text>
<polyline fill="none" stroke="black" points="215,-266 299,-266 "/>
<text text-anchor="middle" x="257" y="-254" font-family="Helvetica,sans-Serif" font-size="10.00"> </text>
<polyline fill="none" stroke="black" points="215,-247 299,-247 "/>
<text text-anchor="start" x="223" y="-235" font-family="Helvetica,sans-Serif" font-size="10.00">+ CGLEffect()</text>
<text text-anchor="start" x="223" y="-224" font-family="Helvetica,sans-Serif" font-size="10.00">+ ~CGLEffect()</text>
</a>
</g>
</g>
<!-- Node1&#45;&gt;Node2 -->
<g id="edge1" class="edge"><title>Node1&#45;&gt;Node2</title>
<path fill="none" stroke="midnightblue" d="M648.191,-421.746C554.166,-380.947 379.314,-305.075 299.142,-270.286"/>
<polygon fill="none" stroke="midnightblue" points="647.019,-425.052 657.585,-425.822 649.805,-418.631 647.019,-425.052"/>
</g>
<!-- Node7 -->
<g id="node7" class="node"><title>Node7</title>
<g id="a_node7"><a xlink:href="../../d7/d2f/class_c_g_l_item.xhtml" target="_top" xlink:title="{CGLItem\n||+ CGLItem()\l+ ~CGLItem()\l}">
<polygon fill="white" stroke="black" points="672.5,-217 672.5,-285 749.5,-285 749.5,-217 672.5,-217"/>
<text text-anchor="middle" x="711" y="-273" font-family="Helvetica,sans-Serif" font-size="10.00">CGLItem</text>
<polyline fill="none" stroke="black" points="672.5,-266 749.5,-266 "/>
<text text-anchor="middle" x="711" y="-254" font-family="Helvetica,sans-Serif" font-size="10.00"> </text>
<polyline fill="none" stroke="black" points="672.5,-247 749.5,-247 "/>
<text text-anchor="start" x="680.5" y="-235" font-family="Helvetica,sans-Serif" font-size="10.00">+ CGLItem()</text>
<text text-anchor="start" x="680.5" y="-224" font-family="Helvetica,sans-Serif" font-size="10.00">+ ~CGLItem()</text>
</a>
</g>
</g>
<!-- Node1&#45;&gt;Node7 -->
<g id="edge6" class="edge"><title>Node1&#45;&gt;Node7</title>
<path fill="none" stroke="midnightblue" d="M711,-312.257C711,-302.41 711,-293.166 711,-285.016"/>
<polygon fill="none" stroke="midnightblue" points="707.5,-312.287 711,-322.287 714.5,-312.287 707.5,-312.287"/>
</g>
<!-- Node14 -->
<g id="node14" class="node"><title>Node14</title>
<g id="a_node14"><a xlink:href="../../d0/d14/class_c_g_l_special.xhtml" target="_top" xlink:title="{CGLSpecial\n||+ CGLSpecial()\l+ ~CGLSpecial()\l}">
<polygon fill="white" stroke="black" points="1279,-217 1279,-285 1369,-285 1369,-217 1279,-217"/>
<text text-anchor="middle" x="1324" y="-273" font-family="Helvetica,sans-Serif" font-size="10.00">CGLSpecial</text>
<polyline fill="none" stroke="black" points="1279,-266 1369,-266 "/>
<text text-anchor="middle" x="1324" y="-254" font-family="Helvetica,sans-Serif" font-size="10.00"> </text>
<polyline fill="none" stroke="black" points="1279,-247 1369,-247 "/>
<text text-anchor="start" x="1287" y="-235" font-family="Helvetica,sans-Serif" font-size="10.00">+ CGLSpecial()</text>
<text text-anchor="start" x="1287" y="-224" font-family="Helvetica,sans-Serif" font-size="10.00">+ ~CGLSpecial()</text>
</a>
</g>
</g>
<!-- Node1&#45;&gt;Node14 -->
<g id="edge13" class="edge"><title>Node1&#45;&gt;Node14</title>
<path fill="none" stroke="midnightblue" d="M773.788,-428.822C897.642,-389.019 1170.76,-301.246 1278.77,-266.537"/>
<polygon fill="none" stroke="midnightblue" points="772.51,-425.556 764.061,-431.948 774.652,-432.22 772.51,-425.556"/>
</g>
<!-- Node3 -->
<g id="node3" class="node"><title>Node3</title>
<g id="a_node3"><a xlink:href="../../d7/dd6/class_c_g_l_color.xhtml" target="_top" xlink:title="{CGLColor\n||+ CGLColor()\l+ ~CGLColor()\l+ set()\l+ setR()\l+ setG()\l+ setB()\l+ setA()\l+ getR()\l+ getG()\l+ getB()\l+ getA()\l+ drawObject()\l}">
<polygon fill="white" stroke="black" points="-0.5,-1 -0.5,-179 80.5,-179 80.5,-1 -0.5,-1"/>
<text text-anchor="middle" x="40" y="-167" font-family="Helvetica,sans-Serif" font-size="10.00">CGLColor</text>
<polyline fill="none" stroke="black" points="-0.5,-160 80.5,-160 "/>
<text text-anchor="middle" x="40" y="-148" font-family="Helvetica,sans-Serif" font-size="10.00"> </text>
<polyline fill="none" stroke="black" points="-0.5,-141 80.5,-141 "/>
<text text-anchor="start" x="7.5" y="-129" font-family="Helvetica,sans-Serif" font-size="10.00">+ CGLColor()</text>
<text text-anchor="start" x="7.5" y="-118" font-family="Helvetica,sans-Serif" font-size="10.00">+ ~CGLColor()</text>
<text text-anchor="start" x="7.5" y="-107" font-family="Helvetica,sans-Serif" font-size="10.00">+ set()</text>
<text text-anchor="start" x="7.5" y="-96" font-family="Helvetica,sans-Serif" font-size="10.00">+ setR()</text>
<text text-anchor="start" x="7.5" y="-85" font-family="Helvetica,sans-Serif" font-size="10.00">+ setG()</text>
<text text-anchor="start" x="7.5" y="-74" font-family="Helvetica,sans-Serif" font-size="10.00">+ setB()</text>
<text text-anchor="start" x="7.5" y="-63" font-family="Helvetica,sans-Serif" font-size="10.00">+ setA()</text>
<text text-anchor="start" x="7.5" y="-52" font-family="Helvetica,sans-Serif" font-size="10.00">+ getR()</text>
<text text-anchor="start" x="7.5" y="-41" font-family="Helvetica,sans-Serif" font-size="10.00">+ getG()</text>
<text text-anchor="start" x="7.5" y="-30" font-family="Helvetica,sans-Serif" font-size="10.00">+ getB()</text>
<text text-anchor="start" x="7.5" y="-19" font-family="Helvetica,sans-Serif" font-size="10.00">+ getA()</text>
<text text-anchor="start" x="7.5" y="-8" font-family="Helvetica,sans-Serif" font-size="10.00">+ drawObject()</text>
</a>
</g>
</g>
<!-- Node2&#45;&gt;Node3 -->
<g id="edge2" class="edge"><title>Node2&#45;&gt;Node3</title>
<path fill="none" stroke="midnightblue" d="M204.947,-238.069C168.986,-227.665 121.895,-209.507 89,-180 86.1114,-177.409 83.3574,-174.606 80.7362,-171.646"/>
<polygon fill="none" stroke="midnightblue" points="204.201,-241.494 214.773,-240.8 206.076,-234.75 204.201,-241.494"/>
</g>
<!-- Node4 -->
<g id="node4" class="node"><title>Node4</title>
<g id="a_node4"><a xlink:href="../../de/d31/class_c_g_l_position.xhtml" target="_top" xlink:title="{CGLPosition\n||+ CGLPosition()\l+ ~CGLPosition()\l+ drawObject()\l}">
<polygon fill="white" stroke="black" points="98.5,-50.5 98.5,-129.5 191.5,-129.5 191.5,-50.5 98.5,-50.5"/>
<text text-anchor="middle" x="145" y="-117.5" font-family="Helvetica,sans-Serif" font-size="10.00">CGLPosition</text>
<polyline fill="none" stroke="black" points="98.5,-110.5 191.5,-110.5 "/>
<text text-anchor="middle" x="145" y="-98.5" font-family="Helvetica,sans-Serif" font-size="10.00"> </text>
<polyline fill="none" stroke="black" points="98.5,-91.5 191.5,-91.5 "/>
<text text-anchor="start" x="106.5" y="-79.5" font-family="Helvetica,sans-Serif" font-size="10.00">+ CGLPosition()</text>
<text text-anchor="start" x="106.5" y="-68.5" font-family="Helvetica,sans-Serif" font-size="10.00">+ ~CGLPosition()</text>
<text text-anchor="start" x="106.5" y="-57.5" font-family="Helvetica,sans-Serif" font-size="10.00">+ drawObject()</text>
</a>
</g>
</g>
<!-- Node2&#45;&gt;Node4 -->
<g id="edge3" class="edge"><title>Node2&#45;&gt;Node4</title>
<path fill="none" stroke="midnightblue" d="M222.038,-208.875C214.534,-199.557 206.817,-189.58 200,-180 188.626,-164.017 177.061,-145.679 167.489,-129.819"/>
<polygon fill="none" stroke="midnightblue" points="219.519,-211.326 228.549,-216.868 224.946,-206.904 219.519,-211.326"/>
</g>
<!-- Node5 -->
<g id="node5" class="node"><title>Node5</title>
<g id="a_node5"><a xlink:href="../../d4/dd5/class_c_g_l_rotation.xhtml" target="_top" xlink:title="{CGLRotation\n||+ CGLRotation()\l+ ~CGLRotation()\l+ setA()\l+ getA()\l+ set()\l+ drawObject()\l}">
<polygon fill="white" stroke="black" points="209.5,-34 209.5,-146 304.5,-146 304.5,-34 209.5,-34"/>
<text text-anchor="middle" x="257" y="-134" font-family="Helvetica,sans-Serif" font-size="10.00">CGLRotation</text>
<polyline fill="none" stroke="black" points="209.5,-127 304.5,-127 "/>
<text text-anchor="middle" x="257" y="-115" font-family="Helvetica,sans-Serif" font-size="10.00"> </text>
<polyline fill="none" stroke="black" points="209.5,-108 304.5,-108 "/>
<text text-anchor="start" x="217.5" y="-96" font-family="Helvetica,sans-Serif" font-size="10.00">+ CGLRotation()</text>
<text text-anchor="start" x="217.5" y="-85" font-family="Helvetica,sans-Serif" font-size="10.00">+ ~CGLRotation()</text>
<text text-anchor="start" x="217.5" y="-74" font-family="Helvetica,sans-Serif" font-size="10.00">+ setA()</text>
<text text-anchor="start" x="217.5" y="-63" font-family="Helvetica,sans-Serif" font-size="10.00">+ getA()</text>
<text text-anchor="start" x="217.5" y="-52" font-family="Helvetica,sans-Serif" font-size="10.00">+ set()</text>
<text text-anchor="start" x="217.5" y="-41" font-family="Helvetica,sans-Serif" font-size="10.00">+ drawObject()</text>
</a>
</g>
</g>
<!-- Node2&#45;&gt;Node5 -->
<g id="edge4" class="edge"><title>Node2&#45;&gt;Node5</title>
<path fill="none" stroke="midnightblue" d="M257,-206.429C257,-187.829 257,-165.907 257,-146.192"/>
<polygon fill="none" stroke="midnightblue" points="253.5,-206.668 257,-216.668 260.5,-206.668 253.5,-206.668"/>
</g>
<!-- Node6 -->
<g id="node6" class="node"><title>Node6</title>
<g id="a_node6"><a xlink:href="../../dd/dd7/class_c_g_l_scale.xhtml" target="_top" xlink:title="{CGLScale\n||+ CGLScale()\l+ ~CGLScale()\l+ drawObject()\l}">
<polygon fill="white" stroke="black" points="322.5,-50.5 322.5,-129.5 405.5,-129.5 405.5,-50.5 322.5,-50.5"/>
<text text-anchor="middle" x="364" y="-117.5" font-family="Helvetica,sans-Serif" font-size="10.00">CGLScale</text>
<polyline fill="none" stroke="black" points="322.5,-110.5 405.5,-110.5 "/>
<text text-anchor="middle" x="364" y="-98.5" font-family="Helvetica,sans-Serif" font-size="10.00"> </text>
<polyline fill="none" stroke="black" points="322.5,-91.5 405.5,-91.5 "/>
<text text-anchor="start" x="330.5" y="-79.5" font-family="Helvetica,sans-Serif" font-size="10.00">+ CGLScale()</text>
<text text-anchor="start" x="330.5" y="-68.5" font-family="Helvetica,sans-Serif" font-size="10.00">+ ~CGLScale()</text>
<text text-anchor="start" x="330.5" y="-57.5" font-family="Helvetica,sans-Serif" font-size="10.00">+ drawObject()</text>
</a>
</g>
</g>
<!-- Node2&#45;&gt;Node6 -->
<g id="edge5" class="edge"><title>Node2&#45;&gt;Node6</title>
<path fill="none" stroke="midnightblue" d="M291.541,-208.984C298.903,-199.66 306.431,-189.653 313,-180 323.821,-164.1 334.589,-145.775 343.422,-129.902"/>
<polygon fill="none" stroke="midnightblue" points="288.66,-206.983 285.144,-216.977 294.125,-211.357 288.66,-206.983"/>
</g>
<!-- Node8 -->
<g id="node8" class="node"><title>Node8</title>
<g id="a_node8"><a xlink:href="../../dd/daf/class_c_g_l_boite.xhtml" target="_top" xlink:title="{CGLBoite\n||+ CGLBoite()\l+ ~CGLBoite()\l+ setTaille()\l+ drawObject()\l}">
<polygon fill="white" stroke="black" points="423.5,-45 423.5,-135 504.5,-135 504.5,-45 423.5,-45"/>
<text text-anchor="middle" x="464" y="-123" font-family="Helvetica,sans-Serif" font-size="10.00">CGLBoite</text>
<polyline fill="none" stroke="black" points="423.5,-116 504.5,-116 "/>
<text text-anchor="middle" x="464" y="-104" font-family="Helvetica,sans-Serif" font-size="10.00"> </text>
<polyline fill="none" stroke="black" points="423.5,-97 504.5,-97 "/>
<text text-anchor="start" x="431.5" y="-85" font-family="Helvetica,sans-Serif" font-size="10.00">+ CGLBoite()</text>
<text text-anchor="start" x="431.5" y="-74" font-family="Helvetica,sans-Serif" font-size="10.00">+ ~CGLBoite()</text>
<text text-anchor="start" x="431.5" y="-63" font-family="Helvetica,sans-Serif" font-size="10.00">+ setTaille()</text>
<text text-anchor="start" x="431.5" y="-52" font-family="Helvetica,sans-Serif" font-size="10.00">+ drawObject()</text>
</a>
</g>
</g>
<!-- Node7&#45;&gt;Node8 -->
<g id="edge7" class="edge"><title>Node7&#45;&gt;Node8</title>
<path fill="none" stroke="midnightblue" d="M662.259,-242.843C618.884,-234.314 555.851,-216.363 513,-180 499.013,-168.131 488.304,-151.217 480.517,-135.316"/>
<polygon fill="none" stroke="midnightblue" points="661.819,-246.321 672.291,-244.717 663.104,-239.44 661.819,-246.321"/>
</g>
<!-- Node9 -->
<g id="node9" class="node"><title>Node9</title>
<g id="a_node9"><a xlink:href="../../da/d38/class_c_g_l_dot.xhtml" target="_top" xlink:title="{CGLDot\n||+ CGLDot()\l+ ~CGLDot()\l+ drawObject()\l}">
<polygon fill="white" stroke="black" points="522.5,-50.5 522.5,-129.5 603.5,-129.5 603.5,-50.5 522.5,-50.5"/>
<text text-anchor="middle" x="563" y="-117.5" font-family="Helvetica,sans-Serif" font-size="10.00">CGLDot</text>
<polyline fill="none" stroke="black" points="522.5,-110.5 603.5,-110.5 "/>
<text text-anchor="middle" x="563" y="-98.5" font-family="Helvetica,sans-Serif" font-size="10.00"> </text>
<polyline fill="none" stroke="black" points="522.5,-91.5 603.5,-91.5 "/>
<text text-anchor="start" x="530.5" y="-79.5" font-family="Helvetica,sans-Serif" font-size="10.00">+ CGLDot()</text>
<text text-anchor="start" x="530.5" y="-68.5" font-family="Helvetica,sans-Serif" font-size="10.00">+ ~CGLDot()</text>
<text text-anchor="start" x="530.5" y="-57.5" font-family="Helvetica,sans-Serif" font-size="10.00">+ drawObject()</text>
</a>
</g>
</g>
<!-- Node7&#45;&gt;Node9 -->
<g id="edge8" class="edge"><title>Node7&#45;&gt;Node9</title>
<path fill="none" stroke="midnightblue" d="M663.595,-222.817C645.972,-211.174 626.706,-196.456 612,-180 598.836,-165.27 587.812,-146.394 579.574,-129.818"/>
<polygon fill="none" stroke="midnightblue" points="661.784,-225.814 672.088,-228.28 665.571,-219.927 661.784,-225.814"/>
</g>
<!-- Node10 -->
<g id="node10" class="node"><title>Node10</title>
<g id="a_node10"><a xlink:href="../../d9/dfe/class_c_g_l_line.xhtml" target="_top" xlink:title="{CGLLine\n|# endPoint\l|+ CGLLine()\l+ ~CGLLine()\l+ drawObject()\l}">
<polygon fill="white" stroke="black" points="621.5,-50.5 621.5,-129.5 702.5,-129.5 702.5,-50.5 621.5,-50.5"/>
<text text-anchor="middle" x="662" y="-117.5" font-family="Helvetica,sans-Serif" font-size="10.00">CGLLine</text>
<polyline fill="none" stroke="black" points="621.5,-110.5 702.5,-110.5 "/>
<text text-anchor="start" x="629.5" y="-98.5" font-family="Helvetica,sans-Serif" font-size="10.00"># endPoint</text>
<polyline fill="none" stroke="black" points="621.5,-91.5 702.5,-91.5 "/>
<text text-anchor="start" x="629.5" y="-79.5" font-family="Helvetica,sans-Serif" font-size="10.00">+ CGLLine()</text>
<text text-anchor="start" x="629.5" y="-68.5" font-family="Helvetica,sans-Serif" font-size="10.00">+ ~CGLLine()</text>
<text text-anchor="start" x="629.5" y="-57.5" font-family="Helvetica,sans-Serif" font-size="10.00">+ drawObject()</text>
</a>
</g>
</g>
<!-- Node7&#45;&gt;Node10 -->
<g id="edge9" class="edge"><title>Node7&#45;&gt;Node10</title>
<path fill="none" stroke="midnightblue" d="M697.763,-207.047C690.322,-182.901 681.108,-153.005 673.897,-129.604"/>
<polygon fill="none" stroke="midnightblue" points="694.438,-208.143 700.728,-216.668 701.128,-206.081 694.438,-208.143"/>
</g>
<!-- Node11 -->
<g id="node11" class="node"><title>Node11</title>
<g id="a_node11"><a xlink:href="../../df/d41/class_c_g_l_quad.xhtml" target="_top" xlink:title="{CGLQuad\n|# longueur\l|+ CGLQuad()\l+ CGLQuad()\l+ ~CGLQuad()\l+ drawObject()\l}">
<polygon fill="white" stroke="black" points="720.5,-45 720.5,-135 801.5,-135 801.5,-45 720.5,-45"/>
<text text-anchor="middle" x="761" y="-123" font-family="Helvetica,sans-Serif" font-size="10.00">CGLQuad</text>
<polyline fill="none" stroke="black" points="720.5,-116 801.5,-116 "/>
<text text-anchor="start" x="728.5" y="-104" font-family="Helvetica,sans-Serif" font-size="10.00"># longueur</text>
<polyline fill="none" stroke="black" points="720.5,-97 801.5,-97 "/>
<text text-anchor="start" x="728.5" y="-85" font-family="Helvetica,sans-Serif" font-size="10.00">+ CGLQuad()</text>
<text text-anchor="start" x="728.5" y="-74" font-family="Helvetica,sans-Serif" font-size="10.00">+ CGLQuad()</text>
<text text-anchor="start" x="728.5" y="-63" font-family="Helvetica,sans-Serif" font-size="10.00">+ ~CGLQuad()</text>
<text text-anchor="start" x="728.5" y="-52" font-family="Helvetica,sans-Serif" font-size="10.00">+ drawObject()</text>
</a>
</g>
</g>
<!-- Node7&#45;&gt;Node11 -->
<g id="edge10" class="edge"><title>Node7&#45;&gt;Node11</title>
<path fill="none" stroke="midnightblue" d="M724.482,-207.127C731.492,-184.836 740.047,-157.63 747.115,-135.155"/>
<polygon fill="none" stroke="midnightblue" points="721.143,-206.079 721.482,-216.668 727.82,-208.179 721.143,-206.079"/>
</g>
<!-- Node12 -->
<g id="node12" class="node"><title>Node12</title>
<g id="a_node12"><a xlink:href="../../d8/dbf/class_c_g_l_robot1.xhtml" target="_top" xlink:title="{CGLRobot1\n||+ CGLRobot1()\l+ ~CGLRobot1()\l+ drawObject()\l}">
<polygon fill="white" stroke="black" points="819.5,-50.5 819.5,-129.5 908.5,-129.5 908.5,-50.5 819.5,-50.5"/>
<text text-anchor="middle" x="864" y="-117.5" font-family="Helvetica,sans-Serif" font-size="10.00">CGLRobot1</text>
<polyline fill="none" stroke="black" points="819.5,-110.5 908.5,-110.5 "/>
<text text-anchor="middle" x="864" y="-98.5" font-family="Helvetica,sans-Serif" font-size="10.00"> </text>
<polyline fill="none" stroke="black" points="819.5,-91.5 908.5,-91.5 "/>
<text text-anchor="start" x="827.5" y="-79.5" font-family="Helvetica,sans-Serif" font-size="10.00">+ CGLRobot1()</text>
<text text-anchor="start" x="827.5" y="-68.5" font-family="Helvetica,sans-Serif" font-size="10.00">+ ~CGLRobot1()</text>
<text text-anchor="start" x="827.5" y="-57.5" font-family="Helvetica,sans-Serif" font-size="10.00">+ drawObject()</text>
</a>
</g>
</g>
<!-- Node7&#45;&gt;Node12 -->
<g id="edge11" class="edge"><title>Node7&#45;&gt;Node12</title>
<path fill="none" stroke="midnightblue" d="M758.046,-222.49C775.623,-210.804 794.951,-196.143 810,-180 823.803,-165.194 835.864,-146.308 845.066,-129.746"/>
<polygon fill="none" stroke="midnightblue" points="756.067,-219.601 749.584,-227.981 759.878,-225.473 756.067,-219.601"/>
</g>
<!-- Node13 -->
<g id="node13" class="node"><title>Node13</title>
<g id="a_node13"><a xlink:href="../../d1/d68/class_c_g_l_triangle.xhtml" target="_top" xlink:title="{CGLTriangle\n|# points\l|+ CGLTriangle()\l+ ~CGLTriangle()\l+ drawObject()\l}">
<polygon fill="white" stroke="black" points="927,-50.5 927,-129.5 1019,-129.5 1019,-50.5 927,-50.5"/>
<text text-anchor="middle" x="973" y="-117.5" font-family="Helvetica,sans-Serif" font-size="10.00">CGLTriangle</text>
<polyline fill="none" stroke="black" points="927,-110.5 1019,-110.5 "/>
<text text-anchor="start" x="935" y="-98.5" font-family="Helvetica,sans-Serif" font-size="10.00"># points</text>
<polyline fill="none" stroke="black" points="927,-91.5 1019,-91.5 "/>
<text text-anchor="start" x="935" y="-79.5" font-family="Helvetica,sans-Serif" font-size="10.00">+ CGLTriangle()</text>
<text text-anchor="start" x="935" y="-68.5" font-family="Helvetica,sans-Serif" font-size="10.00">+ ~CGLTriangle()</text>
<text text-anchor="start" x="935" y="-57.5" font-family="Helvetica,sans-Serif" font-size="10.00">+ drawObject()</text>
</a>
</g>
</g>
<!-- Node7&#45;&gt;Node13 -->
<g id="edge12" class="edge"><title>Node7&#45;&gt;Node13</title>
<path fill="none" stroke="midnightblue" d="M759.694,-242.994C804.494,-234.489 870.796,-216.483 917,-180 933.763,-166.764 946.901,-147.036 956.226,-129.515"/>
<polygon fill="none" stroke="midnightblue" points="758.853,-239.589 749.635,-244.813 760.099,-246.477 758.853,-239.589"/>
</g>
<!-- Node15 -->
<g id="node15" class="node"><title>Node15</title>
<g id="a_node15"><a xlink:href="../../de/dee/class_c_g_l_camera.xhtml" target="_top" xlink:title="{CGLCamera\n||+ CGLCamera()\l+ ~CGLCamera()\l+ draw()\l+ drawObject()\l+ onMouseButton()\l}">
<polygon fill="white" stroke="black" points="1037,-39.5 1037,-140.5 1137,-140.5 1137,-39.5 1037,-39.5"/>
<text text-anchor="middle" x="1087" y="-128.5" font-family="Helvetica,sans-Serif" font-size="10.00">CGLCamera</text>
<polyline fill="none" stroke="black" points="1037,-121.5 1137,-121.5 "/>
<text text-anchor="middle" x="1087" y="-109.5" font-family="Helvetica,sans-Serif" font-size="10.00"> </text>
<polyline fill="none" stroke="black" points="1037,-102.5 1137,-102.5 "/>
<text text-anchor="start" x="1045" y="-90.5" font-family="Helvetica,sans-Serif" font-size="10.00">+ CGLCamera()</text>
<text text-anchor="start" x="1045" y="-79.5" font-family="Helvetica,sans-Serif" font-size="10.00">+ ~CGLCamera()</text>
<text text-anchor="start" x="1045" y="-68.5" font-family="Helvetica,sans-Serif" font-size="10.00">+ draw()</text>
<text text-anchor="start" x="1045" y="-57.5" font-family="Helvetica,sans-Serif" font-size="10.00">+ drawObject()</text>
<text text-anchor="start" x="1045" y="-46.5" font-family="Helvetica,sans-Serif" font-size="10.00">+ onMouseButton()</text>
</a>
</g>
</g>
<!-- Node14&#45;&gt;Node15 -->
<g id="edge14" class="edge"><title>Node14&#45;&gt;Node15</title>
<path fill="none" stroke="midnightblue" d="M1268.99,-237.705C1231.33,-227.186 1181.91,-209.04 1146,-180 1132.74,-169.275 1121.39,-154.765 1112.29,-140.574"/>
<polygon fill="none" stroke="midnightblue" points="1268.22,-241.122 1278.79,-240.344 1270.04,-234.363 1268.22,-241.122"/>
</g>
<!-- Node16 -->
<g id="node16" class="node"><title>Node16</title>
<g id="a_node16"><a xlink:href="../../d4/dad/class_c_g_l_camera_list.xhtml" target="_top" xlink:title="{CGLCameraList\n||+ CGLCameraList()\l+ ~CGLCameraList()\l+ getCurrentCamera()\l}">
<polygon fill="white" stroke="black" points="1155,-50.5 1155,-129.5 1267,-129.5 1267,-50.5 1155,-50.5"/>
<text text-anchor="middle" x="1211" y="-117.5" font-family="Helvetica,sans-Serif" font-size="10.00">CGLCameraList</text>
<polyline fill="none" stroke="black" points="1155,-110.5 1267,-110.5 "/>
<text text-anchor="middle" x="1211" y="-98.5" font-family="Helvetica,sans-Serif" font-size="10.00"> </text>
<polyline fill="none" stroke="black" points="1155,-91.5 1267,-91.5 "/>
<text text-anchor="start" x="1163" y="-79.5" font-family="Helvetica,sans-Serif" font-size="10.00">+ CGLCameraList()</text>
<text text-anchor="start" x="1163" y="-68.5" font-family="Helvetica,sans-Serif" font-size="10.00">+ ~CGLCameraList()</text>
<text text-anchor="start" x="1163" y="-57.5" font-family="Helvetica,sans-Serif" font-size="10.00">+ getCurrentCamera()</text>
</a>
</g>
</g>
<!-- Node14&#45;&gt;Node16 -->
<g id="edge15" class="edge"><title>Node14&#45;&gt;Node16</title>
<path fill="none" stroke="midnightblue" d="M1294.39,-208.33C1277.07,-183.966 1255.36,-153.421 1238.44,-129.604"/>
<polygon fill="none" stroke="midnightblue" points="1291.67,-210.545 1300.31,-216.668 1297.37,-206.49 1291.67,-210.545"/>
</g>
<!-- Node17 -->
<g id="node17" class="node"><title>Node17</title>
<g id="a_node17"><a xlink:href="../../da/dc8/class_c_g_l_light.xhtml" target="_top" xlink:title="{CGLLight\n||+ CGLLight()\l+ ~CGLLight()\l}">
<polygon fill="white" stroke="black" points="1284.5,-56 1284.5,-124 1363.5,-124 1363.5,-56 1284.5,-56"/>
<text text-anchor="middle" x="1324" y="-112" font-family="Helvetica,sans-Serif" font-size="10.00">CGLLight</text>
<polyline fill="none" stroke="black" points="1284.5,-105 1363.5,-105 "/>
<text text-anchor="middle" x="1324" y="-93" font-family="Helvetica,sans-Serif" font-size="10.00"> </text>
<polyline fill="none" stroke="black" points="1284.5,-86 1363.5,-86 "/>
<text text-anchor="start" x="1292.5" y="-74" font-family="Helvetica,sans-Serif" font-size="10.00">+ CGLLight()</text>
<text text-anchor="start" x="1292.5" y="-63" font-family="Helvetica,sans-Serif" font-size="10.00">+ ~CGLLight()</text>
</a>
</g>
</g>
<!-- Node14&#45;&gt;Node17 -->
<g id="edge16" class="edge"><title>Node14&#45;&gt;Node17</title>
<path fill="none" stroke="midnightblue" d="M1324,-206.33C1324,-180.332 1324,-147.87 1324,-124.015"/>
<polygon fill="none" stroke="midnightblue" points="1320.5,-206.668 1324,-216.668 1327.5,-206.668 1320.5,-206.668"/>
</g>
<!-- Node18 -->
<g id="node18" class="node"><title>Node18</title>
<g id="a_node18"><a xlink:href="../../d9/d85/class_c_g_l_scene.xhtml" target="_top" xlink:title="{CGLScene\n|# cameras\l# objects\l|+ CGLScene()\l+ ~CGLScene()\l+ draw()\l+ getCurrentCamera()\l+ addCamera()\l+ addItem()\l}">
<polygon fill="white" stroke="black" points="1381,-28.5 1381,-151.5 1493,-151.5 1493,-28.5 1381,-28.5"/>
<text text-anchor="middle" x="1437" y="-139.5" font-family="Helvetica,sans-Serif" font-size="10.00">CGLScene</text>
<polyline fill="none" stroke="black" points="1381,-132.5 1493,-132.5 "/>
<text text-anchor="start" x="1389" y="-120.5" font-family="Helvetica,sans-Serif" font-size="10.00"># cameras</text>
<text text-anchor="start" x="1389" y="-109.5" font-family="Helvetica,sans-Serif" font-size="10.00"># objects</text>
<polyline fill="none" stroke="black" points="1381,-102.5 1493,-102.5 "/>
<text text-anchor="start" x="1389" y="-90.5" font-family="Helvetica,sans-Serif" font-size="10.00">+ CGLScene()</text>
<text text-anchor="start" x="1389" y="-79.5" font-family="Helvetica,sans-Serif" font-size="10.00">+ ~CGLScene()</text>
<text text-anchor="start" x="1389" y="-68.5" font-family="Helvetica,sans-Serif" font-size="10.00">+ draw()</text>
<text text-anchor="start" x="1389" y="-57.5" font-family="Helvetica,sans-Serif" font-size="10.00">+ getCurrentCamera()</text>
<text text-anchor="start" x="1389" y="-46.5" font-family="Helvetica,sans-Serif" font-size="10.00">+ addCamera()</text>
<text text-anchor="start" x="1389" y="-35.5" font-family="Helvetica,sans-Serif" font-size="10.00">+ addItem()</text>
</a>
</g>
</g>
<!-- Node14&#45;&gt;Node18 -->
<g id="edge17" class="edge"><title>Node14&#45;&gt;Node18</title>
<path fill="none" stroke="midnightblue" d="M1353.55,-208.422C1365.88,-191.067 1380.45,-170.564 1393.94,-151.587"/>
<polygon fill="none" stroke="midnightblue" points="1350.63,-206.49 1347.69,-216.668 1356.33,-210.545 1350.63,-206.49"/>
</g>
<!-- Node19 -->
<g id="node19" class="node"><title>Node19</title>
<g id="a_node19"><a xlink:href="../../dd/d40/class_c_g_l_window.xhtml" target="_top" xlink:title="{CGLWindow\n||+ CGLWindow()\l+ ~CGLWindow()\l+ loop()\l+ exec()\l+ onResize()\l+ draw()\l+ getCurrentWorld()\l}">
<polygon fill="white" stroke="black" points="1511.5,-28.5 1511.5,-151.5 1614.5,-151.5 1614.5,-28.5 1511.5,-28.5"/>
<text text-anchor="middle" x="1563" y="-139.5" font-family="Helvetica,sans-Serif" font-size="10.00">CGLWindow</text>
<polyline fill="none" stroke="black" points="1511.5,-132.5 1614.5,-132.5 "/>
<text text-anchor="middle" x="1563" y="-120.5" font-family="Helvetica,sans-Serif" font-size="10.00"> </text>
<polyline fill="none" stroke="black" points="1511.5,-113.5 1614.5,-113.5 "/>
<text text-anchor="start" x="1519.5" y="-101.5" font-family="Helvetica,sans-Serif" font-size="10.00">+ CGLWindow()</text>
<text text-anchor="start" x="1519.5" y="-90.5" font-family="Helvetica,sans-Serif" font-size="10.00">+ ~CGLWindow()</text>
<text text-anchor="start" x="1519.5" y="-79.5" font-family="Helvetica,sans-Serif" font-size="10.00">+ loop()</text>
<text text-anchor="start" x="1519.5" y="-68.5" font-family="Helvetica,sans-Serif" font-size="10.00">+ exec()</text>
<text text-anchor="start" x="1519.5" y="-57.5" font-family="Helvetica,sans-Serif" font-size="10.00">+ onResize()</text>
<text text-anchor="start" x="1519.5" y="-46.5" font-family="Helvetica,sans-Serif" font-size="10.00">+ draw()</text>
<text text-anchor="start" x="1519.5" y="-35.5" font-family="Helvetica,sans-Serif" font-size="10.00">+ getCurrentWorld()</text>
</a>
</g>
</g>
<!-- Node14&#45;&gt;Node19 -->
<g id="edge18" class="edge"><title>Node14&#45;&gt;Node19</title>
<path fill="none" stroke="midnightblue" d="M1378.86,-237.273C1416.17,-226.591 1465.08,-208.425 1501,-180 1511.04,-172.054 1520.12,-162.049 1528.05,-151.641"/>
<polygon fill="none" stroke="midnightblue" points="1377.86,-233.919 1369.16,-239.96 1379.73,-240.665 1377.86,-233.919"/>
</g>
<!-- Node20 -->
<g id="node20" class="node"><title>Node20</title>
<g id="a_node20"><a xlink:href="../../db/da4/class_c_g_l_world.xhtml" target="_top" xlink:title="{CGLWorld\n||+ CGLWorld()\l+ ~CGLWorld()\l+ draw()\l+ getCurrentScene()\l}">
<polygon fill="white" stroke="black" points="1632.5,-45 1632.5,-135 1737.5,-135 1737.5,-45 1632.5,-45"/>
<text text-anchor="middle" x="1685" y="-123" font-family="Helvetica,sans-Serif" font-size="10.00">CGLWorld</text>
<polyline fill="none" stroke="black" points="1632.5,-116 1737.5,-116 "/>
<text text-anchor="middle" x="1685" y="-104" font-family="Helvetica,sans-Serif" font-size="10.00"> </text>
<polyline fill="none" stroke="black" points="1632.5,-97 1737.5,-97 "/>
<text text-anchor="start" x="1640.5" y="-85" font-family="Helvetica,sans-Serif" font-size="10.00">+ CGLWorld()</text>
<text text-anchor="start" x="1640.5" y="-74" font-family="Helvetica,sans-Serif" font-size="10.00">+ ~CGLWorld()</text>
<text text-anchor="start" x="1640.5" y="-63" font-family="Helvetica,sans-Serif" font-size="10.00">+ draw()</text>
<text text-anchor="start" x="1640.5" y="-52" font-family="Helvetica,sans-Serif" font-size="10.00">+ getCurrentScene()</text>
</a>
</g>
</g>
<!-- Node14&#45;&gt;Node20 -->
<g id="edge19" class="edge"><title>Node14&#45;&gt;Node20</title>
<path fill="none" stroke="midnightblue" d="M1379.27,-248.709C1443.1,-244.744 1548.82,-230.33 1623,-180 1639.52,-168.793 1652.99,-151.608 1663.1,-135.317"/>
<polygon fill="none" stroke="midnightblue" points="1378.8,-245.229 1369.01,-249.278 1379.19,-252.219 1378.8,-245.229"/>
</g>
</g>
</svg>
