<?xml version="1.0" encoding="UTF-8" standalone="no"?>
<!DOCTYPE svg PUBLIC "-//W3C//DTD SVG 1.1//EN"
 "http://www.w3.org/Graphics/SVG/1.1/DTD/svg11.dtd">
<!-- Generated by graphviz version 2.36.0 (20140111.2315)
 -->
<!-- Title: CGLObject Pages: 1 -->
<svg width="1957pt" height="690pt"
 viewBox="0.00 0.00 1957.00 690.00" xmlns="http://www.w3.org/2000/svg" xmlns:xlink="http://www.w3.org/1999/xlink">
<g id="graph0" class="graph" transform="scale(1 1) rotate(0) translate(4 686)">
<title>CGLObject</title>
<polygon fill="white" stroke="none" points="-4,4 -4,-686 1953,-686 1953,4 -4,4"/>
<!-- Node1 -->
<g id="node1" class="node"><title>Node1</title>
<polygon fill="#bfbfbf" stroke="black" points="762,-426.5 762,-681.5 868,-681.5 868,-426.5 762,-426.5"/>
<text text-anchor="middle" x="815" y="-669.5" font-family="Helvetica,sans-Serif" font-size="10.00">CGLObject</text>
<polyline fill="none" stroke="black" points="762,-662.5 868,-662.5 "/>
<text text-anchor="start" x="770" y="-650.5" font-family="Helvetica,sans-Serif" font-size="10.00">+ garbage</text>
<text text-anchor="start" x="770" y="-639.5" font-family="Helvetica,sans-Serif" font-size="10.00"># objectType</text>
<text text-anchor="start" x="770" y="-628.5" font-family="Helvetica,sans-Serif" font-size="10.00"># name</text>
<text text-anchor="start" x="770" y="-617.5" font-family="Helvetica,sans-Serif" font-size="10.00"># matrixSaved</text>
<text text-anchor="start" x="770" y="-606.5" font-family="Helvetica,sans-Serif" font-size="10.00"># children</text>
<text text-anchor="start" x="770" y="-595.5" font-family="Helvetica,sans-Serif" font-size="10.00"># iterCurrentObject</text>
<text text-anchor="start" x="770" y="-584.5" font-family="Helvetica,sans-Serif" font-size="10.00"># currentObject</text>
<text text-anchor="start" x="770" y="-573.5" font-family="Helvetica,sans-Serif" font-size="10.00"># parentObject</text>
<polyline fill="none" stroke="black" points="762,-566.5 868,-566.5 "/>
<text text-anchor="start" x="770" y="-554.5" font-family="Helvetica,sans-Serif" font-size="10.00">+ addObject()</text>
<text text-anchor="start" x="770" y="-543.5" font-family="Helvetica,sans-Serif" font-size="10.00">+ setName()</text>
<text text-anchor="start" x="770" y="-532.5" font-family="Helvetica,sans-Serif" font-size="10.00">+ getName()</text>
<text text-anchor="start" x="770" y="-521.5" font-family="Helvetica,sans-Serif" font-size="10.00">+ getCurrentObject()</text>
<text text-anchor="start" x="770" y="-510.5" font-family="Helvetica,sans-Serif" font-size="10.00">+ isChild()</text>
<text text-anchor="start" x="770" y="-499.5" font-family="Helvetica,sans-Serif" font-size="10.00">+ draw()</text>
<text text-anchor="start" x="770" y="-488.5" font-family="Helvetica,sans-Serif" font-size="10.00">+ drawObject()</text>
<text text-anchor="start" x="770" y="-477.5" font-family="Helvetica,sans-Serif" font-size="10.00">+ drawChildren()</text>
<text text-anchor="start" x="770" y="-466.5" font-family="Helvetica,sans-Serif" font-size="10.00">+ drawCenter()</text>
<text text-anchor="start" x="770" y="-455.5" font-family="Helvetica,sans-Serif" font-size="10.00">+ CGLObject()</text>
<text text-anchor="start" x="770" y="-444.5" font-family="Helvetica,sans-Serif" font-size="10.00">+ ~CGLObject()</text>
<text text-anchor="start" x="770" y="-433.5" font-family="Helvetica,sans-Serif" font-size="10.00">+ init()</text>
</g>
<!-- Node2 -->
<g id="node2" class="node"><title>Node2</title>
<g id="a_node2"><a xlink:href="../../dc/d8a/class_c_g_l_effect.xhtml" target="_top" xlink:title="{CGLEffect\n||+ CGLEffect()\l+ ~CGLEffect()\l}">
<polygon fill="white" stroke="black" points="215,-321 215,-389 299,-389 299,-321 215,-321"/>
<text text-anchor="middle" x="257" y="-377" font-family="Helvetica,sans-Serif" font-size="10.00">CGLEffect</text>
<polyline fill="none" stroke="black" points="215,-370 299,-370 "/>
<text text-anchor="middle" x="257" y="-358" font-family="Helvetica,sans-Serif" font-size="10.00"> </text>
<polyline fill="none" stroke="black" points="215,-351 299,-351 "/>
<text text-anchor="start" x="223" y="-339" font-family="Helvetica,sans-Serif" font-size="10.00">+ CGLEffect()</text>
<text text-anchor="start" x="223" y="-328" font-family="Helvetica,sans-Serif" font-size="10.00">+ ~CGLEffect()</text>
</a>
</g>
</g>
<!-- Node1&#45;&gt;Node2 -->
<g id="edge1" class="edge"><title>Node1&#45;&gt;Node2</title>
<path fill="none" stroke="midnightblue" d="M752.03,-530.769C637.129,-490.203 396.355,-405.199 299.094,-370.861"/>
<polygon fill="none" stroke="midnightblue" points="751.155,-534.171 761.749,-534.2 753.485,-527.571 751.155,-534.171"/>
</g>
<!-- Node8 -->
<g id="node8" class="node"><title>Node8</title>
<g id="a_node8"><a xlink:href="../../d7/d2f/class_c_g_l_item.xhtml" target="_top" xlink:title="{CGLItem\n||+ CGLItem()\l+ ~CGLItem()\l}">
<polygon fill="white" stroke="black" points="776.5,-321 776.5,-389 853.5,-389 853.5,-321 776.5,-321"/>
<text text-anchor="middle" x="815" y="-377" font-family="Helvetica,sans-Serif" font-size="10.00">CGLItem</text>
<polyline fill="none" stroke="black" points="776.5,-370 853.5,-370 "/>
<text text-anchor="middle" x="815" y="-358" font-family="Helvetica,sans-Serif" font-size="10.00"> </text>
<polyline fill="none" stroke="black" points="776.5,-351 853.5,-351 "/>
<text text-anchor="start" x="784.5" y="-339" font-family="Helvetica,sans-Serif" font-size="10.00">+ CGLItem()</text>
<text text-anchor="start" x="784.5" y="-328" font-family="Helvetica,sans-Serif" font-size="10.00">+ ~CGLItem()</text>
</a>
</g>
</g>
<!-- Node1&#45;&gt;Node8 -->
<g id="edge7" class="edge"><title>Node1&#45;&gt;Node8</title>
<path fill="none" stroke="midnightblue" d="M815,-416.257C815,-406.41 815,-397.166 815,-389.016"/>
<polygon fill="none" stroke="midnightblue" points="811.5,-416.287 815,-426.287 818.5,-416.287 811.5,-416.287"/>
</g>
<!-- Node17 -->
<g id="node17" class="node"><title>Node17</title>
<g id="a_node17"><a xlink:href="../../d0/d14/class_c_g_l_special.xhtml" target="_top" xlink:title="{CGLSpecial\n||+ CGLSpecial()\l+ ~CGLSpecial()\l}">
<polygon fill="white" stroke="black" points="1491,-321 1491,-389 1581,-389 1581,-321 1491,-321"/>
<text text-anchor="middle" x="1536" y="-377" font-family="Helvetica,sans-Serif" font-size="10.00">CGLSpecial</text>
<polyline fill="none" stroke="black" points="1491,-370 1581,-370 "/>
<text text-anchor="middle" x="1536" y="-358" font-family="Helvetica,sans-Serif" font-size="10.00"> </text>
<polyline fill="none" stroke="black" points="1491,-351 1581,-351 "/>
<text text-anchor="start" x="1499" y="-339" font-family="Helvetica,sans-Serif" font-size="10.00">+ CGLSpecial()</text>
<text text-anchor="start" x="1499" y="-328" font-family="Helvetica,sans-Serif" font-size="10.00">+ ~CGLSpecial()</text>
</a>
</g>
</g>
<!-- Node1&#45;&gt;Node17 -->
<g id="edge16" class="edge"><title>Node1&#45;&gt;Node17</title>
<path fill="none" stroke="midnightblue" d="M877.949,-535.8C1020.86,-496.753 1366.99,-402.179 1490.92,-368.317"/>
<polygon fill="none" stroke="midnightblue" points="876.741,-532.502 868.017,-538.514 878.586,-539.255 876.741,-532.502"/>
</g>
<!-- Node3 -->
<g id="node3" class="node"><title>Node3</title>
<g id="a_node3"><a xlink:href="../../d7/dd6/class_c_g_l_color.xhtml" target="_top" xlink:title="{CGLColor\n||+ CGLColor()\l+ ~CGLColor()\l+ setR()\l+ setG()\l+ setB()\l+ setA()\l+ getR()\l+ getG()\l+ getB()\l+ getA()\l+ drawObject()\l}">
<polygon fill="white" stroke="black" points="-0.5,-116.5 -0.5,-283.5 80.5,-283.5 80.5,-116.5 -0.5,-116.5"/>
<text text-anchor="middle" x="40" y="-271.5" font-family="Helvetica,sans-Serif" font-size="10.00">CGLColor</text>
<polyline fill="none" stroke="black" points="-0.5,-264.5 80.5,-264.5 "/>
<text text-anchor="middle" x="40" y="-252.5" font-family="Helvetica,sans-Serif" font-size="10.00"> </text>
<polyline fill="none" stroke="black" points="-0.5,-245.5 80.5,-245.5 "/>
<text text-anchor="start" x="7.5" y="-233.5" font-family="Helvetica,sans-Serif" font-size="10.00">+ CGLColor()</text>
<text text-anchor="start" x="7.5" y="-222.5" font-family="Helvetica,sans-Serif" font-size="10.00">+ ~CGLColor()</text>
<text text-anchor="start" x="7.5" y="-211.5" font-family="Helvetica,sans-Serif" font-size="10.00">+ setR()</text>
<text text-anchor="start" x="7.5" y="-200.5" font-family="Helvetica,sans-Serif" font-size="10.00">+ setG()</text>
<text text-anchor="start" x="7.5" y="-189.5" font-family="Helvetica,sans-Serif" font-size="10.00">+ setB()</text>
<text text-anchor="start" x="7.5" y="-178.5" font-family="Helvetica,sans-Serif" font-size="10.00">+ setA()</text>
<text text-anchor="start" x="7.5" y="-167.5" font-family="Helvetica,sans-Serif" font-size="10.00">+ getR()</text>
<text text-anchor="start" x="7.5" y="-156.5" font-family="Helvetica,sans-Serif" font-size="10.00">+ getG()</text>
<text text-anchor="start" x="7.5" y="-145.5" font-family="Helvetica,sans-Serif" font-size="10.00">+ getB()</text>
<text text-anchor="start" x="7.5" y="-134.5" font-family="Helvetica,sans-Serif" font-size="10.00">+ getA()</text>
<text text-anchor="start" x="7.5" y="-123.5" font-family="Helvetica,sans-Serif" font-size="10.00">+ drawObject()</text>
</a>
</g>
</g>
<!-- Node2&#45;&gt;Node3 -->
<g id="edge2" class="edge"><title>Node2&#45;&gt;Node3</title>
<path fill="none" stroke="midnightblue" d="M204.867,-341.658C169.078,-331.095 122.225,-312.915 89,-284 86.0968,-281.473 83.3197,-278.731 80.6695,-275.832"/>
<polygon fill="none" stroke="midnightblue" points="204.071,-345.07 214.647,-344.438 205.985,-338.337 204.071,-345.07"/>
</g>
<!-- Node4 -->
<g id="node4" class="node"><title>Node4</title>
<g id="a_node4"><a xlink:href="../../de/d31/class_c_g_l_position.xhtml" target="_top" xlink:title="{CGLPosition\n|# speed\l# accel\l|+ CGLPosition()\l+ ~CGLPosition()\l+ drawObject()\l+ setSpeed()\l+ setAccel()\l}">
<polygon fill="white" stroke="black" points="98.5,-144 98.5,-256 191.5,-256 191.5,-144 98.5,-144"/>
<text text-anchor="middle" x="145" y="-244" font-family="Helvetica,sans-Serif" font-size="10.00">CGLPosition</text>
<polyline fill="none" stroke="black" points="98.5,-237 191.5,-237 "/>
<text text-anchor="start" x="106.5" y="-225" font-family="Helvetica,sans-Serif" font-size="10.00"># speed</text>
<text text-anchor="start" x="106.5" y="-214" font-family="Helvetica,sans-Serif" font-size="10.00"># accel</text>
<polyline fill="none" stroke="black" points="98.5,-207 191.5,-207 "/>
<text text-anchor="start" x="106.5" y="-195" font-family="Helvetica,sans-Serif" font-size="10.00">+ CGLPosition()</text>
<text text-anchor="start" x="106.5" y="-184" font-family="Helvetica,sans-Serif" font-size="10.00">+ ~CGLPosition()</text>
<text text-anchor="start" x="106.5" y="-173" font-family="Helvetica,sans-Serif" font-size="10.00">+ drawObject()</text>
<text text-anchor="start" x="106.5" y="-162" font-family="Helvetica,sans-Serif" font-size="10.00">+ setSpeed()</text>
<text text-anchor="start" x="106.5" y="-151" font-family="Helvetica,sans-Serif" font-size="10.00">+ setAccel()</text>
</a>
</g>
</g>
<!-- Node2&#45;&gt;Node4 -->
<g id="edge3" class="edge"><title>Node2&#45;&gt;Node4</title>
<path fill="none" stroke="midnightblue" d="M222.264,-312.711C214.747,-303.402 206.968,-293.471 200,-284 193.546,-275.228 186.938,-265.747 180.642,-256.437"/>
<polygon fill="none" stroke="midnightblue" points="219.745,-315.162 228.775,-320.705 225.173,-310.741 219.745,-315.162"/>
</g>
<!-- Node5 -->
<g id="node5" class="node"><title>Node5</title>
<g id="a_node5"><a xlink:href="../../d4/dd5/class_c_g_l_rotation.xhtml" target="_top" xlink:title="{CGLRotation\n|# a\l|+ CGLRotation()\l+ ~CGLRotation()\l+ setA()\l+ getA()\l+ set()\l+ drawObject()\l}">
<polygon fill="white" stroke="black" points="209.5,-144 209.5,-256 304.5,-256 304.5,-144 209.5,-144"/>
<text text-anchor="middle" x="257" y="-244" font-family="Helvetica,sans-Serif" font-size="10.00">CGLRotation</text>
<polyline fill="none" stroke="black" points="209.5,-237 304.5,-237 "/>
<text text-anchor="start" x="217.5" y="-225" font-family="Helvetica,sans-Serif" font-size="10.00"># a</text>
<polyline fill="none" stroke="black" points="209.5,-218 304.5,-218 "/>
<text text-anchor="start" x="217.5" y="-206" font-family="Helvetica,sans-Serif" font-size="10.00">+ CGLRotation()</text>
<text text-anchor="start" x="217.5" y="-195" font-family="Helvetica,sans-Serif" font-size="10.00">+ ~CGLRotation()</text>
<text text-anchor="start" x="217.5" y="-184" font-family="Helvetica,sans-Serif" font-size="10.00">+ setA()</text>
<text text-anchor="start" x="217.5" y="-173" font-family="Helvetica,sans-Serif" font-size="10.00">+ getA()</text>
<text text-anchor="start" x="217.5" y="-162" font-family="Helvetica,sans-Serif" font-size="10.00">+ set()</text>
<text text-anchor="start" x="217.5" y="-151" font-family="Helvetica,sans-Serif" font-size="10.00">+ drawObject()</text>
</a>
</g>
</g>
<!-- Node2&#45;&gt;Node5 -->
<g id="edge4" class="edge"><title>Node2&#45;&gt;Node5</title>
<path fill="none" stroke="midnightblue" d="M257,-310.632C257,-293.677 257,-274.031 257,-256.093"/>
<polygon fill="none" stroke="midnightblue" points="253.5,-310.801 257,-320.801 260.5,-310.801 253.5,-310.801"/>
</g>
<!-- Node7 -->
<g id="node7" class="node"><title>Node7</title>
<g id="a_node7"><a xlink:href="../../dd/dd7/class_c_g_l_scale.xhtml" target="_top" xlink:title="{CGLScale\n||+ CGLScale()\l+ ~CGLScale()\l+ drawObject()\l}">
<polygon fill="white" stroke="black" points="322.5,-160.5 322.5,-239.5 405.5,-239.5 405.5,-160.5 322.5,-160.5"/>
<text text-anchor="middle" x="364" y="-227.5" font-family="Helvetica,sans-Serif" font-size="10.00">CGLScale</text>
<polyline fill="none" stroke="black" points="322.5,-220.5 405.5,-220.5 "/>
<text text-anchor="middle" x="364" y="-208.5" font-family="Helvetica,sans-Serif" font-size="10.00"> </text>
<polyline fill="none" stroke="black" points="322.5,-201.5 405.5,-201.5 "/>
<text text-anchor="start" x="330.5" y="-189.5" font-family="Helvetica,sans-Serif" font-size="10.00">+ CGLScale()</text>
<text text-anchor="start" x="330.5" y="-178.5" font-family="Helvetica,sans-Serif" font-size="10.00">+ ~CGLScale()</text>
<text text-anchor="start" x="330.5" y="-167.5" font-family="Helvetica,sans-Serif" font-size="10.00">+ drawObject()</text>
</a>
</g>
</g>
<!-- Node2&#45;&gt;Node7 -->
<g id="edge6" class="edge"><title>Node2&#45;&gt;Node7</title>
<path fill="none" stroke="midnightblue" d="M291.321,-312.832C298.695,-303.516 306.284,-293.551 313,-284 322.923,-269.889 333.035,-253.846 341.61,-239.651"/>
<polygon fill="none" stroke="midnightblue" points="288.44,-310.83 284.924,-320.825 293.905,-315.204 288.44,-310.83"/>
</g>
<!-- Node6 -->
<g id="node6" class="node"><title>Node6</title>
<g id="a_node6"><a xlink:href="../../d4/d9e/class_c_g_l_rotation_speed.xhtml" target="_top" xlink:title="{CGLRotationSpeed\n|# speed\l|+ CGLRotationSpeed()\l+ ~CGLRotationSpeed()\l+ drawObject()\l}">
<polygon fill="white" stroke="black" points="196,-0.5 196,-79.5 318,-79.5 318,-0.5 196,-0.5"/>
<text text-anchor="middle" x="257" y="-67.5" font-family="Helvetica,sans-Serif" font-size="10.00">CGLRotationSpeed</text>
<polyline fill="none" stroke="black" points="196,-60.5 318,-60.5 "/>
<text text-anchor="start" x="204" y="-48.5" font-family="Helvetica,sans-Serif" font-size="10.00"># speed</text>
<polyline fill="none" stroke="black" points="196,-41.5 318,-41.5 "/>
<text text-anchor="start" x="204" y="-29.5" font-family="Helvetica,sans-Serif" font-size="10.00">+ CGLRotationSpeed()</text>
<text text-anchor="start" x="204" y="-18.5" font-family="Helvetica,sans-Serif" font-size="10.00">+ ~CGLRotationSpeed()</text>
<text text-anchor="start" x="204" y="-7.5" font-family="Helvetica,sans-Serif" font-size="10.00">+ drawObject()</text>
</a>
</g>
</g>
<!-- Node5&#45;&gt;Node6 -->
<g id="edge5" class="edge"><title>Node5&#45;&gt;Node6</title>
<path fill="none" stroke="midnightblue" d="M257,-133.654C257,-115.264 257,-95.8568 257,-79.5817"/>
<polygon fill="none" stroke="midnightblue" points="253.5,-133.739 257,-143.739 260.5,-133.739 253.5,-133.739"/>
</g>
<!-- Node9 -->
<g id="node9" class="node"><title>Node9</title>
<g id="a_node9"><a xlink:href="../../dd/daf/class_c_g_l_boite.xhtml" target="_top" xlink:title="{CGLBoite\n||+ CGLBoite()\l+ ~CGLBoite()\l+ setTaille()\l+ drawObject()\l}">
<polygon fill="white" stroke="black" points="423.5,-155 423.5,-245 504.5,-245 504.5,-155 423.5,-155"/>
<text text-anchor="middle" x="464" y="-233" font-family="Helvetica,sans-Serif" font-size="10.00">CGLBoite</text>
<polyline fill="none" stroke="black" points="423.5,-226 504.5,-226 "/>
<text text-anchor="middle" x="464" y="-214" font-family="Helvetica,sans-Serif" font-size="10.00"> </text>
<polyline fill="none" stroke="black" points="423.5,-207 504.5,-207 "/>
<text text-anchor="start" x="431.5" y="-195" font-family="Helvetica,sans-Serif" font-size="10.00">+ CGLBoite()</text>
<text text-anchor="start" x="431.5" y="-184" font-family="Helvetica,sans-Serif" font-size="10.00">+ ~CGLBoite()</text>
<text text-anchor="start" x="431.5" y="-173" font-family="Helvetica,sans-Serif" font-size="10.00">+ setTaille()</text>
<text text-anchor="start" x="431.5" y="-162" font-family="Helvetica,sans-Serif" font-size="10.00">+ drawObject()</text>
</a>
</g>
</g>
<!-- Node8&#45;&gt;Node9 -->
<g id="edge8" class="edge"><title>Node8&#45;&gt;Node9</title>
<path fill="none" stroke="midnightblue" d="M765.991,-354.128C701.895,-351.92 588.859,-339.616 513,-284 499.64,-274.205 489.285,-259.573 481.609,-245.31"/>
<polygon fill="none" stroke="midnightblue" points="766.134,-357.633 776.226,-354.409 766.326,-350.636 766.134,-357.633"/>
</g>
<!-- Node10 -->
<g id="node10" class="node"><title>Node10</title>
<g id="a_node10"><a xlink:href="../../d3/d05/class_c_g_l_circle.xhtml" target="_top" xlink:title="{CGLCircle\n|# nbc\l# radius\l|+ CGLCircle()\l+ ~CGLCircle()\l+ drawObject()\l}">
<polygon fill="white" stroke="black" points="522.5,-155 522.5,-245 605.5,-245 605.5,-155 522.5,-155"/>
<text text-anchor="middle" x="564" y="-233" font-family="Helvetica,sans-Serif" font-size="10.00">CGLCircle</text>
<polyline fill="none" stroke="black" points="522.5,-226 605.5,-226 "/>
<text text-anchor="start" x="530.5" y="-214" font-family="Helvetica,sans-Serif" font-size="10.00"># nbc</text>
<text text-anchor="start" x="530.5" y="-203" font-family="Helvetica,sans-Serif" font-size="10.00"># radius</text>
<polyline fill="none" stroke="black" points="522.5,-196 605.5,-196 "/>
<text text-anchor="start" x="530.5" y="-184" font-family="Helvetica,sans-Serif" font-size="10.00">+ CGLCircle()</text>
<text text-anchor="start" x="530.5" y="-173" font-family="Helvetica,sans-Serif" font-size="10.00">+ ~CGLCircle()</text>
<text text-anchor="start" x="530.5" y="-162" font-family="Helvetica,sans-Serif" font-size="10.00">+ drawObject()</text>
</a>
</g>
</g>
<!-- Node8&#45;&gt;Node10 -->
<g id="edge9" class="edge"><title>Node8&#45;&gt;Node10</title>
<path fill="none" stroke="midnightblue" d="M766.534,-346.755C722.716,-338.128 658.448,-320.081 614,-284 601.331,-273.716 591.084,-259.309 583.243,-245.38"/>
<polygon fill="none" stroke="midnightblue" points="765.908,-350.198 776.382,-348.603 767.2,-343.318 765.908,-350.198"/>
</g>
<!-- Node11 -->
<g id="node11" class="node"><title>Node11</title>
<g id="a_node11"><a xlink:href="../../da/d38/class_c_g_l_dot.xhtml" target="_top" xlink:title="{CGLDot\n||+ CGLDot()\l+ ~CGLDot()\l+ drawObject()\l}">
<polygon fill="white" stroke="black" points="623.5,-160.5 623.5,-239.5 704.5,-239.5 704.5,-160.5 623.5,-160.5"/>
<text text-anchor="middle" x="664" y="-227.5" font-family="Helvetica,sans-Serif" font-size="10.00">CGLDot</text>
<polyline fill="none" stroke="black" points="623.5,-220.5 704.5,-220.5 "/>
<text text-anchor="middle" x="664" y="-208.5" font-family="Helvetica,sans-Serif" font-size="10.00"> </text>
<polyline fill="none" stroke="black" points="623.5,-201.5 704.5,-201.5 "/>
<text text-anchor="start" x="631.5" y="-189.5" font-family="Helvetica,sans-Serif" font-size="10.00">+ CGLDot()</text>
<text text-anchor="start" x="631.5" y="-178.5" font-family="Helvetica,sans-Serif" font-size="10.00">+ ~CGLDot()</text>
<text text-anchor="start" x="631.5" y="-167.5" font-family="Helvetica,sans-Serif" font-size="10.00">+ drawObject()</text>
</a>
</g>
</g>
<!-- Node8&#45;&gt;Node11 -->
<g id="edge10" class="edge"><title>Node8&#45;&gt;Node11</title>
<path fill="none" stroke="midnightblue" d="M767.528,-327.547C749.097,-315.791 728.694,-300.801 713,-284 700.892,-271.038 690.41,-254.58 682.284,-239.743"/>
<polygon fill="none" stroke="midnightblue" points="765.77,-330.575 776.11,-332.883 769.466,-324.63 765.77,-330.575"/>
</g>
<!-- Node12 -->
<g id="node12" class="node"><title>Node12</title>
<g id="a_node12"><a xlink:href="../../d9/dfe/class_c_g_l_line.xhtml" target="_top" xlink:title="{CGLLine\n|# endPoint\l|+ CGLLine()\l+ ~CGLLine()\l+ drawObject()\l}">
<polygon fill="white" stroke="black" points="722.5,-160.5 722.5,-239.5 803.5,-239.5 803.5,-160.5 722.5,-160.5"/>
<text text-anchor="middle" x="763" y="-227.5" font-family="Helvetica,sans-Serif" font-size="10.00">CGLLine</text>
<polyline fill="none" stroke="black" points="722.5,-220.5 803.5,-220.5 "/>
<text text-anchor="start" x="730.5" y="-208.5" font-family="Helvetica,sans-Serif" font-size="10.00"># endPoint</text>
<polyline fill="none" stroke="black" points="722.5,-201.5 803.5,-201.5 "/>
<text text-anchor="start" x="730.5" y="-189.5" font-family="Helvetica,sans-Serif" font-size="10.00">+ CGLLine()</text>
<text text-anchor="start" x="730.5" y="-178.5" font-family="Helvetica,sans-Serif" font-size="10.00">+ ~CGLLine()</text>
<text text-anchor="start" x="730.5" y="-167.5" font-family="Helvetica,sans-Serif" font-size="10.00">+ drawObject()</text>
</a>
</g>
</g>
<!-- Node8&#45;&gt;Node12 -->
<g id="edge11" class="edge"><title>Node8&#45;&gt;Node12</title>
<path fill="none" stroke="midnightblue" d="M800.444,-311.171C792.801,-288.685 783.511,-261.35 776.097,-239.534"/>
<polygon fill="none" stroke="midnightblue" points="797.185,-312.459 803.717,-320.801 803.813,-310.207 797.185,-312.459"/>
</g>
<!-- Node13 -->
<g id="node13" class="node"><title>Node13</title>
<g id="a_node13"><a xlink:href="../../d1/db6/class_c_g_l_polygon.xhtml" target="_top" xlink:title="{CGLPolygon\n|# points\l|+ CGLPolygon()\l+ ~CGLPolygon()\l+ drawObject()\l}">
<polygon fill="white" stroke="black" points="821.5,-160.5 821.5,-239.5 914.5,-239.5 914.5,-160.5 821.5,-160.5"/>
<text text-anchor="middle" x="868" y="-227.5" font-family="Helvetica,sans-Serif" font-size="10.00">CGLPolygon</text>
<polyline fill="none" stroke="black" points="821.5,-220.5 914.5,-220.5 "/>
<text text-anchor="start" x="829.5" y="-208.5" font-family="Helvetica,sans-Serif" font-size="10.00"># points</text>
<polyline fill="none" stroke="black" points="821.5,-201.5 914.5,-201.5 "/>
<text text-anchor="start" x="829.5" y="-189.5" font-family="Helvetica,sans-Serif" font-size="10.00">+ CGLPolygon()</text>
<text text-anchor="start" x="829.5" y="-178.5" font-family="Helvetica,sans-Serif" font-size="10.00">+ ~CGLPolygon()</text>
<text text-anchor="start" x="829.5" y="-167.5" font-family="Helvetica,sans-Serif" font-size="10.00">+ drawObject()</text>
</a>
</g>
</g>
<!-- Node8&#45;&gt;Node13 -->
<g id="edge12" class="edge"><title>Node8&#45;&gt;Node13</title>
<path fill="none" stroke="midnightblue" d="M829.836,-311.171C837.625,-288.685 847.094,-261.35 854.652,-239.534"/>
<polygon fill="none" stroke="midnightblue" points="826.466,-310.206 826.5,-320.801 833.081,-312.498 826.466,-310.206"/>
</g>
<!-- Node14 -->
<g id="node14" class="node"><title>Node14</title>
<g id="a_node14"><a xlink:href="../../df/d41/class_c_g_l_quad.xhtml" target="_top" xlink:title="{CGLQuad\n|# points\l|+ CGLQuad()\l+ ~CGLQuad()\l+ drawObject()\l}">
<polygon fill="white" stroke="black" points="932.5,-160.5 932.5,-239.5 1013.5,-239.5 1013.5,-160.5 932.5,-160.5"/>
<text text-anchor="middle" x="973" y="-227.5" font-family="Helvetica,sans-Serif" font-size="10.00">CGLQuad</text>
<polyline fill="none" stroke="black" points="932.5,-220.5 1013.5,-220.5 "/>
<text text-anchor="start" x="940.5" y="-208.5" font-family="Helvetica,sans-Serif" font-size="10.00"># points</text>
<polyline fill="none" stroke="black" points="932.5,-201.5 1013.5,-201.5 "/>
<text text-anchor="start" x="940.5" y="-189.5" font-family="Helvetica,sans-Serif" font-size="10.00">+ CGLQuad()</text>
<text text-anchor="start" x="940.5" y="-178.5" font-family="Helvetica,sans-Serif" font-size="10.00">+ ~CGLQuad()</text>
<text text-anchor="start" x="940.5" y="-167.5" font-family="Helvetica,sans-Serif" font-size="10.00">+ drawObject()</text>
</a>
</g>
</g>
<!-- Node8&#45;&gt;Node14 -->
<g id="edge13" class="edge"><title>Node8&#45;&gt;Node14</title>
<path fill="none" stroke="midnightblue" d="M862.353,-329.661C882.599,-317.734 905.54,-302.044 923,-284 935.4,-271.185 946.104,-254.753 954.39,-239.895"/>
<polygon fill="none" stroke="midnightblue" points="860.499,-326.69 853.568,-334.704 863.984,-332.76 860.499,-326.69"/>
</g>
<!-- Node15 -->
<g id="node15" class="node"><title>Node15</title>
<g id="a_node15"><a xlink:href="../../d8/dbf/class_c_g_l_robot1.xhtml" target="_top" xlink:title="{CGLRobot1\n||+ CGLRobot1()\l+ ~CGLRobot1()\l+ drawObject()\l}">
<polygon fill="white" stroke="black" points="1031.5,-160.5 1031.5,-239.5 1120.5,-239.5 1120.5,-160.5 1031.5,-160.5"/>
<text text-anchor="middle" x="1076" y="-227.5" font-family="Helvetica,sans-Serif" font-size="10.00">CGLRobot1</text>
<polyline fill="none" stroke="black" points="1031.5,-220.5 1120.5,-220.5 "/>
<text text-anchor="middle" x="1076" y="-208.5" font-family="Helvetica,sans-Serif" font-size="10.00"> </text>
<polyline fill="none" stroke="black" points="1031.5,-201.5 1120.5,-201.5 "/>
<text text-anchor="start" x="1039.5" y="-189.5" font-family="Helvetica,sans-Serif" font-size="10.00">+ CGLRobot1()</text>
<text text-anchor="start" x="1039.5" y="-178.5" font-family="Helvetica,sans-Serif" font-size="10.00">+ ~CGLRobot1()</text>
<text text-anchor="start" x="1039.5" y="-167.5" font-family="Helvetica,sans-Serif" font-size="10.00">+ drawObject()</text>
</a>
</g>
</g>
<!-- Node8&#45;&gt;Node15 -->
<g id="edge14" class="edge"><title>Node8&#45;&gt;Node15</title>
<path fill="none" stroke="midnightblue" d="M863.801,-346.889C908.729,-338.31 975.291,-320.254 1022,-284 1036.94,-272.405 1049.01,-255.45 1057.92,-239.882"/>
<polygon fill="none" stroke="midnightblue" points="862.927,-343.49 853.716,-348.725 864.181,-350.377 862.927,-343.49"/>
</g>
<!-- Node16 -->
<g id="node16" class="node"><title>Node16</title>
<g id="a_node16"><a xlink:href="../../d1/d68/class_c_g_l_triangle.xhtml" target="_top" xlink:title="{CGLTriangle\n|# points\l|+ CGLTriangle()\l+ ~CGLTriangle()\l+ drawObject()\l}">
<polygon fill="white" stroke="black" points="1139,-160.5 1139,-239.5 1231,-239.5 1231,-160.5 1139,-160.5"/>
<text text-anchor="middle" x="1185" y="-227.5" font-family="Helvetica,sans-Serif" font-size="10.00">CGLTriangle</text>
<polyline fill="none" stroke="black" points="1139,-220.5 1231,-220.5 "/>
<text text-anchor="start" x="1147" y="-208.5" font-family="Helvetica,sans-Serif" font-size="10.00"># points</text>
<polyline fill="none" stroke="black" points="1139,-201.5 1231,-201.5 "/>
<text text-anchor="start" x="1147" y="-189.5" font-family="Helvetica,sans-Serif" font-size="10.00">+ CGLTriangle()</text>
<text text-anchor="start" x="1147" y="-178.5" font-family="Helvetica,sans-Serif" font-size="10.00">+ ~CGLTriangle()</text>
<text text-anchor="start" x="1147" y="-167.5" font-family="Helvetica,sans-Serif" font-size="10.00">+ drawObject()</text>
</a>
</g>
</g>
<!-- Node8&#45;&gt;Node16 -->
<g id="edge15" class="edge"><title>Node8&#45;&gt;Node16</title>
<path fill="none" stroke="midnightblue" d="M863.675,-353.997C929.395,-351.734 1047.63,-339.466 1129,-284 1145.09,-273.034 1157.82,-255.777 1167.05,-239.832"/>
<polygon fill="none" stroke="midnightblue" points="863.491,-350.501 853.592,-354.28 863.687,-357.498 863.491,-350.501"/>
</g>
<!-- Node18 -->
<g id="node18" class="node"><title>Node18</title>
<g id="a_node18"><a xlink:href="../../de/dee/class_c_g_l_camera.xhtml" target="_top" xlink:title="{CGLCamera\n||+ CGLCamera()\l+ ~CGLCamera()\l+ draw()\l+ drawObject()\l+ onMouseButton()\l}">
<polygon fill="white" stroke="black" points="1249,-149.5 1249,-250.5 1349,-250.5 1349,-149.5 1249,-149.5"/>
<text text-anchor="middle" x="1299" y="-238.5" font-family="Helvetica,sans-Serif" font-size="10.00">CGLCamera</text>
<polyline fill="none" stroke="black" points="1249,-231.5 1349,-231.5 "/>
<text text-anchor="middle" x="1299" y="-219.5" font-family="Helvetica,sans-Serif" font-size="10.00"> </text>
<polyline fill="none" stroke="black" points="1249,-212.5 1349,-212.5 "/>
<text text-anchor="start" x="1257" y="-200.5" font-family="Helvetica,sans-Serif" font-size="10.00">+ CGLCamera()</text>
<text text-anchor="start" x="1257" y="-189.5" font-family="Helvetica,sans-Serif" font-size="10.00">+ ~CGLCamera()</text>
<text text-anchor="start" x="1257" y="-178.5" font-family="Helvetica,sans-Serif" font-size="10.00">+ draw()</text>
<text text-anchor="start" x="1257" y="-167.5" font-family="Helvetica,sans-Serif" font-size="10.00">+ drawObject()</text>
<text text-anchor="start" x="1257" y="-156.5" font-family="Helvetica,sans-Serif" font-size="10.00">+ onMouseButton()</text>
</a>
</g>
</g>
<!-- Node17&#45;&gt;Node18 -->
<g id="edge17" class="edge"><title>Node17&#45;&gt;Node18</title>
<path fill="none" stroke="midnightblue" d="M1480.91,-341.23C1443.44,-330.528 1394.26,-312.357 1358,-284 1346.3,-274.851 1335.93,-262.769 1327.27,-250.665"/>
<polygon fill="none" stroke="midnightblue" points="1480.09,-344.634 1490.66,-343.922 1481.96,-337.887 1480.09,-344.634"/>
</g>
<!-- Node19 -->
<g id="node19" class="node"><title>Node19</title>
<g id="a_node19"><a xlink:href="../../d4/dad/class_c_g_l_camera_list.xhtml" target="_top" xlink:title="{CGLCameraList\n||+ CGLCameraList()\l+ ~CGLCameraList()\l+ getCurrentCamera()\l}">
<polygon fill="white" stroke="black" points="1367,-160.5 1367,-239.5 1479,-239.5 1479,-160.5 1367,-160.5"/>
<text text-anchor="middle" x="1423" y="-227.5" font-family="Helvetica,sans-Serif" font-size="10.00">CGLCameraList</text>
<polyline fill="none" stroke="black" points="1367,-220.5 1479,-220.5 "/>
<text text-anchor="middle" x="1423" y="-208.5" font-family="Helvetica,sans-Serif" font-size="10.00"> </text>
<polyline fill="none" stroke="black" points="1367,-201.5 1479,-201.5 "/>
<text text-anchor="start" x="1375" y="-189.5" font-family="Helvetica,sans-Serif" font-size="10.00">+ CGLCameraList()</text>
<text text-anchor="start" x="1375" y="-178.5" font-family="Helvetica,sans-Serif" font-size="10.00">+ ~CGLCameraList()</text>
<text text-anchor="start" x="1375" y="-167.5" font-family="Helvetica,sans-Serif" font-size="10.00">+ getCurrentCamera()</text>
</a>
</g>
</g>
<!-- Node17&#45;&gt;Node19 -->
<g id="edge18" class="edge"><title>Node17&#45;&gt;Node19</title>
<path fill="none" stroke="midnightblue" d="M1505.48,-312.676C1488.67,-289.913 1467.93,-261.84 1451.46,-239.534"/>
<polygon fill="none" stroke="midnightblue" points="1502.72,-314.837 1511.48,-320.801 1508.36,-310.678 1502.72,-314.837"/>
</g>
<!-- Node20 -->
<g id="node20" class="node"><title>Node20</title>
<g id="a_node20"><a xlink:href="../../da/dc8/class_c_g_l_light.xhtml" target="_top" xlink:title="{CGLLight\n||+ CGLLight()\l+ ~CGLLight()\l}">
<polygon fill="white" stroke="black" points="1496.5,-166 1496.5,-234 1575.5,-234 1575.5,-166 1496.5,-166"/>
<text text-anchor="middle" x="1536" y="-222" font-family="Helvetica,sans-Serif" font-size="10.00">CGLLight</text>
<polyline fill="none" stroke="black" points="1496.5,-215 1575.5,-215 "/>
<text text-anchor="middle" x="1536" y="-203" font-family="Helvetica,sans-Serif" font-size="10.00"> </text>
<polyline fill="none" stroke="black" points="1496.5,-196 1575.5,-196 "/>
<text text-anchor="start" x="1504.5" y="-184" font-family="Helvetica,sans-Serif" font-size="10.00">+ CGLLight()</text>
<text text-anchor="start" x="1504.5" y="-173" font-family="Helvetica,sans-Serif" font-size="10.00">+ ~CGLLight()</text>
</a>
</g>
</g>
<!-- Node17&#45;&gt;Node20 -->
<g id="edge19" class="edge"><title>Node17&#45;&gt;Node20</title>
<path fill="none" stroke="midnightblue" d="M1536,-310.761C1536,-286.45 1536,-256.575 1536,-234.134"/>
<polygon fill="none" stroke="midnightblue" points="1532.5,-310.801 1536,-320.801 1539.5,-310.801 1532.5,-310.801"/>
</g>
<!-- Node21 -->
<g id="node21" class="node"><title>Node21</title>
<g id="a_node21"><a xlink:href="../../d9/d85/class_c_g_l_scene.xhtml" target="_top" xlink:title="{CGLScene\n|# cameras\l# objects\l|+ CGLScene()\l+ ~CGLScene()\l+ draw()\l+ getCurrentCamera()\l+ addCamera()\l+ addItem()\l}">
<polygon fill="white" stroke="black" points="1593,-138.5 1593,-261.5 1705,-261.5 1705,-138.5 1593,-138.5"/>
<text text-anchor="middle" x="1649" y="-249.5" font-family="Helvetica,sans-Serif" font-size="10.00">CGLScene</text>
<polyline fill="none" stroke="black" points="1593,-242.5 1705,-242.5 "/>
<text text-anchor="start" x="1601" y="-230.5" font-family="Helvetica,sans-Serif" font-size="10.00"># cameras</text>
<text text-anchor="start" x="1601" y="-219.5" font-family="Helvetica,sans-Serif" font-size="10.00"># objects</text>
<polyline fill="none" stroke="black" points="1593,-212.5 1705,-212.5 "/>
<text text-anchor="start" x="1601" y="-200.5" font-family="Helvetica,sans-Serif" font-size="10.00">+ CGLScene()</text>
<text text-anchor="start" x="1601" y="-189.5" font-family="Helvetica,sans-Serif" font-size="10.00">+ ~CGLScene()</text>
<text text-anchor="start" x="1601" y="-178.5" font-family="Helvetica,sans-Serif" font-size="10.00">+ draw()</text>
<text text-anchor="start" x="1601" y="-167.5" font-family="Helvetica,sans-Serif" font-size="10.00">+ getCurrentCamera()</text>
<text text-anchor="start" x="1601" y="-156.5" font-family="Helvetica,sans-Serif" font-size="10.00">+ addCamera()</text>
<text text-anchor="start" x="1601" y="-145.5" font-family="Helvetica,sans-Serif" font-size="10.00">+ addItem()</text>
</a>
</g>
</g>
<!-- Node17&#45;&gt;Node21 -->
<g id="edge20" class="edge"><title>Node17&#45;&gt;Node21</title>
<path fill="none" stroke="midnightblue" d="M1566.74,-312.385C1578.29,-296.736 1591.68,-278.608 1604.26,-261.581"/>
<polygon fill="none" stroke="midnightblue" points="1563.64,-310.678 1560.52,-320.801 1569.28,-314.837 1563.64,-310.678"/>
</g>
<!-- Node22 -->
<g id="node22" class="node"><title>Node22</title>
<g id="a_node22"><a xlink:href="../../dd/d40/class_c_g_l_window.xhtml" target="_top" xlink:title="{CGLWindow\n||+ CGLWindow()\l+ ~CGLWindow()\l+ loop()\l+ exec()\l+ onResize()\l+ draw()\l+ getCurrentWorld()\l}">
<polygon fill="white" stroke="black" points="1723.5,-138.5 1723.5,-261.5 1826.5,-261.5 1826.5,-138.5 1723.5,-138.5"/>
<text text-anchor="middle" x="1775" y="-249.5" font-family="Helvetica,sans-Serif" font-size="10.00">CGLWindow</text>
<polyline fill="none" stroke="black" points="1723.5,-242.5 1826.5,-242.5 "/>
<text text-anchor="middle" x="1775" y="-230.5" font-family="Helvetica,sans-Serif" font-size="10.00"> </text>
<polyline fill="none" stroke="black" points="1723.5,-223.5 1826.5,-223.5 "/>
<text text-anchor="start" x="1731.5" y="-211.5" font-family="Helvetica,sans-Serif" font-size="10.00">+ CGLWindow()</text>
<text text-anchor="start" x="1731.5" y="-200.5" font-family="Helvetica,sans-Serif" font-size="10.00">+ ~CGLWindow()</text>
<text text-anchor="start" x="1731.5" y="-189.5" font-family="Helvetica,sans-Serif" font-size="10.00">+ loop()</text>
<text text-anchor="start" x="1731.5" y="-178.5" font-family="Helvetica,sans-Serif" font-size="10.00">+ exec()</text>
<text text-anchor="start" x="1731.5" y="-167.5" font-family="Helvetica,sans-Serif" font-size="10.00">+ onResize()</text>
<text text-anchor="start" x="1731.5" y="-156.5" font-family="Helvetica,sans-Serif" font-size="10.00">+ draw()</text>
<text text-anchor="start" x="1731.5" y="-145.5" font-family="Helvetica,sans-Serif" font-size="10.00">+ getCurrentWorld()</text>
</a>
</g>
</g>
<!-- Node17&#45;&gt;Node22 -->
<g id="edge21" class="edge"><title>Node17&#45;&gt;Node22</title>
<path fill="none" stroke="midnightblue" d="M1590.94,-340.788C1628.06,-329.921 1676.74,-311.734 1713,-284 1721.29,-277.663 1729,-269.936 1735.98,-261.776"/>
<polygon fill="none" stroke="midnightblue" points="1589.94,-337.431 1581.28,-343.527 1591.85,-344.166 1589.94,-337.431"/>
</g>
<!-- Node23 -->
<g id="node23" class="node"><title>Node23</title>
<g id="a_node23"><a xlink:href="../../db/da4/class_c_g_l_world.xhtml" target="_top" xlink:title="{CGLWorld\n||+ CGLWorld()\l+ ~CGLWorld()\l+ draw()\l+ getCurrentScene()\l}">
<polygon fill="white" stroke="black" points="1844.5,-155 1844.5,-245 1949.5,-245 1949.5,-155 1844.5,-155"/>
<text text-anchor="middle" x="1897" y="-233" font-family="Helvetica,sans-Serif" font-size="10.00">CGLWorld</text>
<polyline fill="none" stroke="black" points="1844.5,-226 1949.5,-226 "/>
<text text-anchor="middle" x="1897" y="-214" font-family="Helvetica,sans-Serif" font-size="10.00"> </text>
<polyline fill="none" stroke="black" points="1844.5,-207 1949.5,-207 "/>
<text text-anchor="start" x="1852.5" y="-195" font-family="Helvetica,sans-Serif" font-size="10.00">+ CGLWorld()</text>
<text text-anchor="start" x="1852.5" y="-184" font-family="Helvetica,sans-Serif" font-size="10.00">+ ~CGLWorld()</text>
<text text-anchor="start" x="1852.5" y="-173" font-family="Helvetica,sans-Serif" font-size="10.00">+ draw()</text>
<text text-anchor="start" x="1852.5" y="-162" font-family="Helvetica,sans-Serif" font-size="10.00">+ getCurrentScene()</text>
</a>
</g>
</g>
<!-- Node17&#45;&gt;Node23 -->
<g id="edge22" class="edge"><title>Node17&#45;&gt;Node23</title>
<path fill="none" stroke="midnightblue" d="M1591.25,-352.254C1654.83,-347.854 1760.1,-333.026 1835,-284 1849.9,-274.248 1862.55,-259.625 1872.46,-245.358"/>
<polygon fill="none" stroke="midnightblue" points="1590.79,-348.776 1581.03,-352.896 1591.23,-355.762 1590.79,-348.776"/>
</g>
</g>
</svg>
