<?xml version="1.0" encoding="UTF-8" standalone="no"?>
<!DOCTYPE svg PUBLIC "-//W3C//DTD SVG 1.1//EN"
 "http://www.w3.org/Graphics/SVG/1.1/DTD/svg11.dtd">
<!-- Generated by graphviz version 2.36.0 (20140111.2315)
 -->
<!-- Title: CGLObject Pages: 1 -->
<svg width="1635pt" height="586pt"
 viewBox="0.00 0.00 1635.00 586.00" xmlns="http://www.w3.org/2000/svg" xmlns:xlink="http://www.w3.org/1999/xlink">
<g id="graph0" class="graph" transform="scale(1 1) rotate(0) translate(4 582)">
<title>CGLObject</title>
<polygon fill="white" stroke="none" points="-4,4 -4,-582 1631,-582 1631,4 -4,4"/>
<!-- Node1 -->
<g id="node1" class="node"><title>Node1</title>
<polygon fill="#bfbfbf" stroke="black" points="609,-322.5 609,-577.5 715,-577.5 715,-322.5 609,-322.5"/>
<text text-anchor="middle" x="662" y="-565.5" font-family="Helvetica,sans-Serif" font-size="10.00">CGLObject</text>
<polyline fill="none" stroke="black" points="609,-558.5 715,-558.5 "/>
<text text-anchor="start" x="617" y="-546.5" font-family="Helvetica,sans-Serif" font-size="10.00">+ garbage</text>
<text text-anchor="start" x="617" y="-535.5" font-family="Helvetica,sans-Serif" font-size="10.00"># objectType</text>
<text text-anchor="start" x="617" y="-524.5" font-family="Helvetica,sans-Serif" font-size="10.00"># name</text>
<text text-anchor="start" x="617" y="-513.5" font-family="Helvetica,sans-Serif" font-size="10.00"># matrixSaved</text>
<text text-anchor="start" x="617" y="-502.5" font-family="Helvetica,sans-Serif" font-size="10.00"># children</text>
<text text-anchor="start" x="617" y="-491.5" font-family="Helvetica,sans-Serif" font-size="10.00"># iterCurrentObject</text>
<text text-anchor="start" x="617" y="-480.5" font-family="Helvetica,sans-Serif" font-size="10.00"># currentObject</text>
<text text-anchor="start" x="617" y="-469.5" font-family="Helvetica,sans-Serif" font-size="10.00"># parentObject</text>
<polyline fill="none" stroke="black" points="609,-462.5 715,-462.5 "/>
<text text-anchor="start" x="617" y="-450.5" font-family="Helvetica,sans-Serif" font-size="10.00">+ addObject()</text>
<text text-anchor="start" x="617" y="-439.5" font-family="Helvetica,sans-Serif" font-size="10.00">+ setName()</text>
<text text-anchor="start" x="617" y="-428.5" font-family="Helvetica,sans-Serif" font-size="10.00">+ getName()</text>
<text text-anchor="start" x="617" y="-417.5" font-family="Helvetica,sans-Serif" font-size="10.00">+ getCurrentObject()</text>
<text text-anchor="start" x="617" y="-406.5" font-family="Helvetica,sans-Serif" font-size="10.00">+ isChild()</text>
<text text-anchor="start" x="617" y="-395.5" font-family="Helvetica,sans-Serif" font-size="10.00">+ draw()</text>
<text text-anchor="start" x="617" y="-384.5" font-family="Helvetica,sans-Serif" font-size="10.00">+ drawObject()</text>
<text text-anchor="start" x="617" y="-373.5" font-family="Helvetica,sans-Serif" font-size="10.00">+ drawChildren()</text>
<text text-anchor="start" x="617" y="-362.5" font-family="Helvetica,sans-Serif" font-size="10.00">+ drawCenter()</text>
<text text-anchor="start" x="617" y="-351.5" font-family="Helvetica,sans-Serif" font-size="10.00">+ CGLObject()</text>
<text text-anchor="start" x="617" y="-340.5" font-family="Helvetica,sans-Serif" font-size="10.00">+ ~CGLObject()</text>
<text text-anchor="start" x="617" y="-329.5" font-family="Helvetica,sans-Serif" font-size="10.00">+ init()</text>
</g>
<!-- Node2 -->
<g id="node2" class="node"><title>Node2</title>
<g id="a_node2"><a xlink:href="../../dc/d8a/class_c_g_l_effect.xhtml" target="_top" xlink:title="{CGLEffect\n||+ CGLEffect()\l+ ~CGLEffect()\l}">
<polygon fill="white" stroke="black" points="215,-217 215,-285 299,-285 299,-217 215,-217"/>
<text text-anchor="middle" x="257" y="-273" font-family="Helvetica,sans-Serif" font-size="10.00">CGLEffect</text>
<polyline fill="none" stroke="black" points="215,-266 299,-266 "/>
<text text-anchor="middle" x="257" y="-254" font-family="Helvetica,sans-Serif" font-size="10.00"> </text>
<polyline fill="none" stroke="black" points="215,-247 299,-247 "/>
<text text-anchor="start" x="223" y="-235" font-family="Helvetica,sans-Serif" font-size="10.00">+ CGLEffect()</text>
<text text-anchor="start" x="223" y="-224" font-family="Helvetica,sans-Serif" font-size="10.00">+ ~CGLEffect()</text>
</a>
</g>
</g>
<!-- Node1&#45;&gt;Node2 -->
<g id="edge1" class="edge"><title>Node1&#45;&gt;Node2</title>
<path fill="none" stroke="midnightblue" d="M599.525,-418.611C516.107,-378.035 370.579,-307.247 299.083,-272.47"/>
<polygon fill="none" stroke="midnightblue" points="598.113,-421.816 608.637,-423.043 601.175,-415.521 598.113,-421.816"/>
</g>
<!-- Node7 -->
<g id="node7" class="node"><title>Node7</title>
<g id="a_node7"><a xlink:href="../../d7/d2f/class_c_g_l_item.xhtml" target="_top" xlink:title="{CGLItem\n||+ CGLItem()\l+ ~CGLItem()\l}">
<polygon fill="white" stroke="black" points="623.5,-217 623.5,-285 700.5,-285 700.5,-217 623.5,-217"/>
<text text-anchor="middle" x="662" y="-273" font-family="Helvetica,sans-Serif" font-size="10.00">CGLItem</text>
<polyline fill="none" stroke="black" points="623.5,-266 700.5,-266 "/>
<text text-anchor="middle" x="662" y="-254" font-family="Helvetica,sans-Serif" font-size="10.00"> </text>
<polyline fill="none" stroke="black" points="623.5,-247 700.5,-247 "/>
<text text-anchor="start" x="631.5" y="-235" font-family="Helvetica,sans-Serif" font-size="10.00">+ CGLItem()</text>
<text text-anchor="start" x="631.5" y="-224" font-family="Helvetica,sans-Serif" font-size="10.00">+ ~CGLItem()</text>
</a>
</g>
</g>
<!-- Node1&#45;&gt;Node7 -->
<g id="edge6" class="edge"><title>Node1&#45;&gt;Node7</title>
<path fill="none" stroke="midnightblue" d="M662,-312.257C662,-302.41 662,-293.166 662,-285.016"/>
<polygon fill="none" stroke="midnightblue" points="658.5,-312.287 662,-322.287 665.5,-312.287 658.5,-312.287"/>
</g>
<!-- Node13 -->
<g id="node13" class="node"><title>Node13</title>
<g id="a_node13"><a xlink:href="../../d0/d14/class_c_g_l_special.xhtml" target="_top" xlink:title="{CGLSpecial\n||+ CGLSpecial()\l+ ~CGLSpecial()\l}">
<polygon fill="white" stroke="black" points="1169,-217 1169,-285 1259,-285 1259,-217 1169,-217"/>
<text text-anchor="middle" x="1214" y="-273" font-family="Helvetica,sans-Serif" font-size="10.00">CGLSpecial</text>
<polyline fill="none" stroke="black" points="1169,-266 1259,-266 "/>
<text text-anchor="middle" x="1214" y="-254" font-family="Helvetica,sans-Serif" font-size="10.00"> </text>
<polyline fill="none" stroke="black" points="1169,-247 1259,-247 "/>
<text text-anchor="start" x="1177" y="-235" font-family="Helvetica,sans-Serif" font-size="10.00">+ CGLSpecial()</text>
<text text-anchor="start" x="1177" y="-224" font-family="Helvetica,sans-Serif" font-size="10.00">+ ~CGLSpecial()</text>
</a>
</g>
</g>
<!-- Node1&#45;&gt;Node13 -->
<g id="edge12" class="edge"><title>Node1&#45;&gt;Node13</title>
<path fill="none" stroke="midnightblue" d="M724.694,-426.626C837.11,-386.506 1070.4,-303.25 1168.73,-268.156"/>
<polygon fill="none" stroke="midnightblue" points="723.42,-423.364 715.179,-430.021 725.773,-429.957 723.42,-423.364"/>
</g>
<!-- Node3 -->
<g id="node3" class="node"><title>Node3</title>
<g id="a_node3"><a xlink:href="../../d7/dd6/class_c_g_l_color.xhtml" target="_top" xlink:title="{CGLColor\n||+ CGLColor()\l+ ~CGLColor()\l+ set()\l+ setR()\l+ setG()\l+ setB()\l+ setA()\l+ getR()\l+ getG()\l+ getB()\l+ getA()\l+ drawObject()\l}">
<polygon fill="white" stroke="black" points="-0.5,-1 -0.5,-179 80.5,-179 80.5,-1 -0.5,-1"/>
<text text-anchor="middle" x="40" y="-167" font-family="Helvetica,sans-Serif" font-size="10.00">CGLColor</text>
<polyline fill="none" stroke="black" points="-0.5,-160 80.5,-160 "/>
<text text-anchor="middle" x="40" y="-148" font-family="Helvetica,sans-Serif" font-size="10.00"> </text>
<polyline fill="none" stroke="black" points="-0.5,-141 80.5,-141 "/>
<text text-anchor="start" x="7.5" y="-129" font-family="Helvetica,sans-Serif" font-size="10.00">+ CGLColor()</text>
<text text-anchor="start" x="7.5" y="-118" font-family="Helvetica,sans-Serif" font-size="10.00">+ ~CGLColor()</text>
<text text-anchor="start" x="7.5" y="-107" font-family="Helvetica,sans-Serif" font-size="10.00">+ set()</text>
<text text-anchor="start" x="7.5" y="-96" font-family="Helvetica,sans-Serif" font-size="10.00">+ setR()</text>
<text text-anchor="start" x="7.5" y="-85" font-family="Helvetica,sans-Serif" font-size="10.00">+ setG()</text>
<text text-anchor="start" x="7.5" y="-74" font-family="Helvetica,sans-Serif" font-size="10.00">+ setB()</text>
<text text-anchor="start" x="7.5" y="-63" font-family="Helvetica,sans-Serif" font-size="10.00">+ setA()</text>
<text text-anchor="start" x="7.5" y="-52" font-family="Helvetica,sans-Serif" font-size="10.00">+ getR()</text>
<text text-anchor="start" x="7.5" y="-41" font-family="Helvetica,sans-Serif" font-size="10.00">+ getG()</text>
<text text-anchor="start" x="7.5" y="-30" font-family="Helvetica,sans-Serif" font-size="10.00">+ getB()</text>
<text text-anchor="start" x="7.5" y="-19" font-family="Helvetica,sans-Serif" font-size="10.00">+ getA()</text>
<text text-anchor="start" x="7.5" y="-8" font-family="Helvetica,sans-Serif" font-size="10.00">+ drawObject()</text>
</a>
</g>
</g>
<!-- Node2&#45;&gt;Node3 -->
<g id="edge2" class="edge"><title>Node2&#45;&gt;Node3</title>
<path fill="none" stroke="midnightblue" d="M204.947,-238.069C168.986,-227.665 121.895,-209.507 89,-180 86.1114,-177.409 83.3574,-174.606 80.7362,-171.646"/>
<polygon fill="none" stroke="midnightblue" points="204.201,-241.494 214.773,-240.8 206.076,-234.75 204.201,-241.494"/>
</g>
<!-- Node4 -->
<g id="node4" class="node"><title>Node4</title>
<g id="a_node4"><a xlink:href="../../de/d31/class_c_g_l_position.xhtml" target="_top" xlink:title="{CGLPosition\n||+ CGLPosition()\l+ ~CGLPosition()\l+ drawObject()\l}">
<polygon fill="white" stroke="black" points="98.5,-50.5 98.5,-129.5 191.5,-129.5 191.5,-50.5 98.5,-50.5"/>
<text text-anchor="middle" x="145" y="-117.5" font-family="Helvetica,sans-Serif" font-size="10.00">CGLPosition</text>
<polyline fill="none" stroke="black" points="98.5,-110.5 191.5,-110.5 "/>
<text text-anchor="middle" x="145" y="-98.5" font-family="Helvetica,sans-Serif" font-size="10.00"> </text>
<polyline fill="none" stroke="black" points="98.5,-91.5 191.5,-91.5 "/>
<text text-anchor="start" x="106.5" y="-79.5" font-family="Helvetica,sans-Serif" font-size="10.00">+ CGLPosition()</text>
<text text-anchor="start" x="106.5" y="-68.5" font-family="Helvetica,sans-Serif" font-size="10.00">+ ~CGLPosition()</text>
<text text-anchor="start" x="106.5" y="-57.5" font-family="Helvetica,sans-Serif" font-size="10.00">+ drawObject()</text>
</a>
</g>
</g>
<!-- Node2&#45;&gt;Node4 -->
<g id="edge3" class="edge"><title>Node2&#45;&gt;Node4</title>
<path fill="none" stroke="midnightblue" d="M222.038,-208.875C214.534,-199.557 206.817,-189.58 200,-180 188.626,-164.017 177.061,-145.679 167.489,-129.819"/>
<polygon fill="none" stroke="midnightblue" points="219.519,-211.326 228.549,-216.868 224.946,-206.904 219.519,-211.326"/>
</g>
<!-- Node5 -->
<g id="node5" class="node"><title>Node5</title>
<g id="a_node5"><a xlink:href="../../d4/dd5/class_c_g_l_rotation.xhtml" target="_top" xlink:title="{CGLRotation\n||+ CGLRotation()\l+ ~CGLRotation()\l+ setA()\l+ getA()\l+ set()\l+ drawObject()\l}">
<polygon fill="white" stroke="black" points="209.5,-34 209.5,-146 304.5,-146 304.5,-34 209.5,-34"/>
<text text-anchor="middle" x="257" y="-134" font-family="Helvetica,sans-Serif" font-size="10.00">CGLRotation</text>
<polyline fill="none" stroke="black" points="209.5,-127 304.5,-127 "/>
<text text-anchor="middle" x="257" y="-115" font-family="Helvetica,sans-Serif" font-size="10.00"> </text>
<polyline fill="none" stroke="black" points="209.5,-108 304.5,-108 "/>
<text text-anchor="start" x="217.5" y="-96" font-family="Helvetica,sans-Serif" font-size="10.00">+ CGLRotation()</text>
<text text-anchor="start" x="217.5" y="-85" font-family="Helvetica,sans-Serif" font-size="10.00">+ ~CGLRotation()</text>
<text text-anchor="start" x="217.5" y="-74" font-family="Helvetica,sans-Serif" font-size="10.00">+ setA()</text>
<text text-anchor="start" x="217.5" y="-63" font-family="Helvetica,sans-Serif" font-size="10.00">+ getA()</text>
<text text-anchor="start" x="217.5" y="-52" font-family="Helvetica,sans-Serif" font-size="10.00">+ set()</text>
<text text-anchor="start" x="217.5" y="-41" font-family="Helvetica,sans-Serif" font-size="10.00">+ drawObject()</text>
</a>
</g>
</g>
<!-- Node2&#45;&gt;Node5 -->
<g id="edge4" class="edge"><title>Node2&#45;&gt;Node5</title>
<path fill="none" stroke="midnightblue" d="M257,-206.429C257,-187.829 257,-165.907 257,-146.192"/>
<polygon fill="none" stroke="midnightblue" points="253.5,-206.668 257,-216.668 260.5,-206.668 253.5,-206.668"/>
</g>
<!-- Node6 -->
<g id="node6" class="node"><title>Node6</title>
<g id="a_node6"><a xlink:href="../../dd/dd7/class_c_g_l_scale.xhtml" target="_top" xlink:title="{CGLScale\n||+ CGLScale()\l+ ~CGLScale()\l+ drawObject()\l}">
<polygon fill="white" stroke="black" points="322.5,-50.5 322.5,-129.5 405.5,-129.5 405.5,-50.5 322.5,-50.5"/>
<text text-anchor="middle" x="364" y="-117.5" font-family="Helvetica,sans-Serif" font-size="10.00">CGLScale</text>
<polyline fill="none" stroke="black" points="322.5,-110.5 405.5,-110.5 "/>
<text text-anchor="middle" x="364" y="-98.5" font-family="Helvetica,sans-Serif" font-size="10.00"> </text>
<polyline fill="none" stroke="black" points="322.5,-91.5 405.5,-91.5 "/>
<text text-anchor="start" x="330.5" y="-79.5" font-family="Helvetica,sans-Serif" font-size="10.00">+ CGLScale()</text>
<text text-anchor="start" x="330.5" y="-68.5" font-family="Helvetica,sans-Serif" font-size="10.00">+ ~CGLScale()</text>
<text text-anchor="start" x="330.5" y="-57.5" font-family="Helvetica,sans-Serif" font-size="10.00">+ drawObject()</text>
</a>
</g>
</g>
<!-- Node2&#45;&gt;Node6 -->
<g id="edge5" class="edge"><title>Node2&#45;&gt;Node6</title>
<path fill="none" stroke="midnightblue" d="M291.541,-208.984C298.903,-199.66 306.431,-189.653 313,-180 323.821,-164.1 334.589,-145.775 343.422,-129.902"/>
<polygon fill="none" stroke="midnightblue" points="288.66,-206.983 285.144,-216.977 294.125,-211.357 288.66,-206.983"/>
</g>
<!-- Node8 -->
<g id="node8" class="node"><title>Node8</title>
<g id="a_node8"><a xlink:href="../../dd/daf/class_c_g_l_boite.xhtml" target="_top" xlink:title="{CGLBoite\n||+ CGLBoite()\l+ ~CGLBoite()\l+ setTaille()\l+ drawObject()\l}">
<polygon fill="white" stroke="black" points="423.5,-45 423.5,-135 504.5,-135 504.5,-45 423.5,-45"/>
<text text-anchor="middle" x="464" y="-123" font-family="Helvetica,sans-Serif" font-size="10.00">CGLBoite</text>
<polyline fill="none" stroke="black" points="423.5,-116 504.5,-116 "/>
<text text-anchor="middle" x="464" y="-104" font-family="Helvetica,sans-Serif" font-size="10.00"> </text>
<polyline fill="none" stroke="black" points="423.5,-97 504.5,-97 "/>
<text text-anchor="start" x="431.5" y="-85" font-family="Helvetica,sans-Serif" font-size="10.00">+ CGLBoite()</text>
<text text-anchor="start" x="431.5" y="-74" font-family="Helvetica,sans-Serif" font-size="10.00">+ ~CGLBoite()</text>
<text text-anchor="start" x="431.5" y="-63" font-family="Helvetica,sans-Serif" font-size="10.00">+ setTaille()</text>
<text text-anchor="start" x="431.5" y="-52" font-family="Helvetica,sans-Serif" font-size="10.00">+ drawObject()</text>
</a>
</g>
</g>
<!-- Node7&#45;&gt;Node8 -->
<g id="edge7" class="edge"><title>Node7&#45;&gt;Node8</title>
<path fill="none" stroke="midnightblue" d="M613.75,-236.011C582.131,-224.908 541.527,-206.755 513,-180 499.749,-167.572 489.228,-150.737 481.387,-135.053"/>
<polygon fill="none" stroke="midnightblue" points="612.656,-239.336 623.251,-239.232 614.904,-232.706 612.656,-239.336"/>
</g>
<!-- Node9 -->
<g id="node9" class="node"><title>Node9</title>
<g id="a_node9"><a xlink:href="../../da/d38/class_c_g_l_dot.xhtml" target="_top" xlink:title="{CGLDot\n||+ CGLDot()\l+ ~CGLDot()\l+ drawObject()\l}">
<polygon fill="white" stroke="black" points="522.5,-50.5 522.5,-129.5 603.5,-129.5 603.5,-50.5 522.5,-50.5"/>
<text text-anchor="middle" x="563" y="-117.5" font-family="Helvetica,sans-Serif" font-size="10.00">CGLDot</text>
<polyline fill="none" stroke="black" points="522.5,-110.5 603.5,-110.5 "/>
<text text-anchor="middle" x="563" y="-98.5" font-family="Helvetica,sans-Serif" font-size="10.00"> </text>
<polyline fill="none" stroke="black" points="522.5,-91.5 603.5,-91.5 "/>
<text text-anchor="start" x="530.5" y="-79.5" font-family="Helvetica,sans-Serif" font-size="10.00">+ CGLDot()</text>
<text text-anchor="start" x="530.5" y="-68.5" font-family="Helvetica,sans-Serif" font-size="10.00">+ ~CGLDot()</text>
<text text-anchor="start" x="530.5" y="-57.5" font-family="Helvetica,sans-Serif" font-size="10.00">+ drawObject()</text>
</a>
</g>
</g>
<!-- Node7&#45;&gt;Node9 -->
<g id="edge8" class="edge"><title>Node7&#45;&gt;Node9</title>
<path fill="none" stroke="midnightblue" d="M631.115,-208.447C624.596,-199.218 617.908,-189.387 612,-180 601.853,-163.878 591.546,-145.519 583.021,-129.68"/>
<polygon fill="none" stroke="midnightblue" points="628.365,-210.619 637.026,-216.722 634.061,-206.551 628.365,-210.619"/>
</g>
<!-- Node10 -->
<g id="node10" class="node"><title>Node10</title>
<g id="a_node10"><a xlink:href="../../d9/dfe/class_c_g_l_line.xhtml" target="_top" xlink:title="{CGLLine\n|# endPoint\l|+ CGLLine()\l+ ~CGLLine()\l+ drawObject()\l}">
<polygon fill="white" stroke="black" points="621.5,-50.5 621.5,-129.5 702.5,-129.5 702.5,-50.5 621.5,-50.5"/>
<text text-anchor="middle" x="662" y="-117.5" font-family="Helvetica,sans-Serif" font-size="10.00">CGLLine</text>
<polyline fill="none" stroke="black" points="621.5,-110.5 702.5,-110.5 "/>
<text text-anchor="start" x="629.5" y="-98.5" font-family="Helvetica,sans-Serif" font-size="10.00"># endPoint</text>
<polyline fill="none" stroke="black" points="621.5,-91.5 702.5,-91.5 "/>
<text text-anchor="start" x="629.5" y="-79.5" font-family="Helvetica,sans-Serif" font-size="10.00">+ CGLLine()</text>
<text text-anchor="start" x="629.5" y="-68.5" font-family="Helvetica,sans-Serif" font-size="10.00">+ ~CGLLine()</text>
<text text-anchor="start" x="629.5" y="-57.5" font-family="Helvetica,sans-Serif" font-size="10.00">+ drawObject()</text>
</a>
</g>
</g>
<!-- Node7&#45;&gt;Node10 -->
<g id="edge9" class="edge"><title>Node7&#45;&gt;Node10</title>
<path fill="none" stroke="midnightblue" d="M662,-206.402C662,-182.37 662,-152.797 662,-129.604"/>
<polygon fill="none" stroke="midnightblue" points="658.5,-206.668 662,-216.668 665.5,-206.668 658.5,-206.668"/>
</g>
<!-- Node11 -->
<g id="node11" class="node"><title>Node11</title>
<g id="a_node11"><a xlink:href="../../df/d41/class_c_g_l_quad.xhtml" target="_top" xlink:title="{CGLQuad\n|# longueur\l|+ CGLQuad()\l+ CGLQuad()\l+ ~CGLQuad()\l+ drawObject()\l}">
<polygon fill="white" stroke="black" points="720.5,-45 720.5,-135 801.5,-135 801.5,-45 720.5,-45"/>
<text text-anchor="middle" x="761" y="-123" font-family="Helvetica,sans-Serif" font-size="10.00">CGLQuad</text>
<polyline fill="none" stroke="black" points="720.5,-116 801.5,-116 "/>
<text text-anchor="start" x="728.5" y="-104" font-family="Helvetica,sans-Serif" font-size="10.00"># longueur</text>
<polyline fill="none" stroke="black" points="720.5,-97 801.5,-97 "/>
<text text-anchor="start" x="728.5" y="-85" font-family="Helvetica,sans-Serif" font-size="10.00">+ CGLQuad()</text>
<text text-anchor="start" x="728.5" y="-74" font-family="Helvetica,sans-Serif" font-size="10.00">+ CGLQuad()</text>
<text text-anchor="start" x="728.5" y="-63" font-family="Helvetica,sans-Serif" font-size="10.00">+ ~CGLQuad()</text>
<text text-anchor="start" x="728.5" y="-52" font-family="Helvetica,sans-Serif" font-size="10.00">+ drawObject()</text>
</a>
</g>
</g>
<!-- Node7&#45;&gt;Node11 -->
<g id="edge10" class="edge"><title>Node7&#45;&gt;Node11</title>
<path fill="none" stroke="midnightblue" d="M691.958,-208.641C698.415,-199.335 705.076,-189.423 711,-180 719.962,-165.747 729.158,-149.816 737.18,-135.415"/>
<polygon fill="none" stroke="midnightblue" points="688.984,-206.786 686.113,-216.985 694.717,-210.803 688.984,-206.786"/>
</g>
<!-- Node12 -->
<g id="node12" class="node"><title>Node12</title>
<g id="a_node12"><a xlink:href="../../d8/dbf/class_c_g_l_robot1.xhtml" target="_top" xlink:title="{CGLRobot1\n||+ CGLRobot1()\l+ ~CGLRobot1()\l+ drawObject()\l}">
<polygon fill="white" stroke="black" points="819.5,-50.5 819.5,-129.5 908.5,-129.5 908.5,-50.5 819.5,-50.5"/>
<text text-anchor="middle" x="864" y="-117.5" font-family="Helvetica,sans-Serif" font-size="10.00">CGLRobot1</text>
<polyline fill="none" stroke="black" points="819.5,-110.5 908.5,-110.5 "/>
<text text-anchor="middle" x="864" y="-98.5" font-family="Helvetica,sans-Serif" font-size="10.00"> </text>
<polyline fill="none" stroke="black" points="819.5,-91.5 908.5,-91.5 "/>
<text text-anchor="start" x="827.5" y="-79.5" font-family="Helvetica,sans-Serif" font-size="10.00">+ CGLRobot1()</text>
<text text-anchor="start" x="827.5" y="-68.5" font-family="Helvetica,sans-Serif" font-size="10.00">+ ~CGLRobot1()</text>
<text text-anchor="start" x="827.5" y="-57.5" font-family="Helvetica,sans-Serif" font-size="10.00">+ drawObject()</text>
</a>
</g>
</g>
<!-- Node7&#45;&gt;Node12 -->
<g id="edge11" class="edge"><title>Node7&#45;&gt;Node12</title>
<path fill="none" stroke="midnightblue" d="M710.281,-235.289C741.429,-223.968 781.33,-205.845 810,-180 825.438,-166.084 837.902,-146.711 846.95,-129.591"/>
<polygon fill="none" stroke="midnightblue" points="708.774,-232.108 700.501,-238.727 711.096,-238.712 708.774,-232.108"/>
</g>
<!-- Node14 -->
<g id="node14" class="node"><title>Node14</title>
<g id="a_node14"><a xlink:href="../../de/dee/class_c_g_l_camera.xhtml" target="_top" xlink:title="{CGLCamera\n||+ CGLCamera()\l+ ~CGLCamera()\l+ draw()\l+ drawObject()\l+ onMouseButton()\l}">
<polygon fill="white" stroke="black" points="927,-39.5 927,-140.5 1027,-140.5 1027,-39.5 927,-39.5"/>
<text text-anchor="middle" x="977" y="-128.5" font-family="Helvetica,sans-Serif" font-size="10.00">CGLCamera</text>
<polyline fill="none" stroke="black" points="927,-121.5 1027,-121.5 "/>
<text text-anchor="middle" x="977" y="-109.5" font-family="Helvetica,sans-Serif" font-size="10.00"> </text>
<polyline fill="none" stroke="black" points="927,-102.5 1027,-102.5 "/>
<text text-anchor="start" x="935" y="-90.5" font-family="Helvetica,sans-Serif" font-size="10.00">+ CGLCamera()</text>
<text text-anchor="start" x="935" y="-79.5" font-family="Helvetica,sans-Serif" font-size="10.00">+ ~CGLCamera()</text>
<text text-anchor="start" x="935" y="-68.5" font-family="Helvetica,sans-Serif" font-size="10.00">+ draw()</text>
<text text-anchor="start" x="935" y="-57.5" font-family="Helvetica,sans-Serif" font-size="10.00">+ drawObject()</text>
<text text-anchor="start" x="935" y="-46.5" font-family="Helvetica,sans-Serif" font-size="10.00">+ onMouseButton()</text>
</a>
</g>
</g>
<!-- Node13&#45;&gt;Node14 -->
<g id="edge13" class="edge"><title>Node13&#45;&gt;Node14</title>
<path fill="none" stroke="midnightblue" d="M1158.99,-237.705C1121.33,-227.186 1071.91,-209.04 1036,-180 1022.74,-169.275 1011.39,-154.765 1002.29,-140.574"/>
<polygon fill="none" stroke="midnightblue" points="1158.22,-241.122 1168.79,-240.344 1160.04,-234.363 1158.22,-241.122"/>
</g>
<!-- Node15 -->
<g id="node15" class="node"><title>Node15</title>
<g id="a_node15"><a xlink:href="../../d4/dad/class_c_g_l_camera_list.xhtml" target="_top" xlink:title="{CGLCameraList\n||+ CGLCameraList()\l+ ~CGLCameraList()\l+ getCurrentCamera()\l}">
<polygon fill="white" stroke="black" points="1045,-50.5 1045,-129.5 1157,-129.5 1157,-50.5 1045,-50.5"/>
<text text-anchor="middle" x="1101" y="-117.5" font-family="Helvetica,sans-Serif" font-size="10.00">CGLCameraList</text>
<polyline fill="none" stroke="black" points="1045,-110.5 1157,-110.5 "/>
<text text-anchor="middle" x="1101" y="-98.5" font-family="Helvetica,sans-Serif" font-size="10.00"> </text>
<polyline fill="none" stroke="black" points="1045,-91.5 1157,-91.5 "/>
<text text-anchor="start" x="1053" y="-79.5" font-family="Helvetica,sans-Serif" font-size="10.00">+ CGLCameraList()</text>
<text text-anchor="start" x="1053" y="-68.5" font-family="Helvetica,sans-Serif" font-size="10.00">+ ~CGLCameraList()</text>
<text text-anchor="start" x="1053" y="-57.5" font-family="Helvetica,sans-Serif" font-size="10.00">+ getCurrentCamera()</text>
</a>
</g>
</g>
<!-- Node13&#45;&gt;Node15 -->
<g id="edge14" class="edge"><title>Node13&#45;&gt;Node15</title>
<path fill="none" stroke="midnightblue" d="M1184.39,-208.33C1167.07,-183.966 1145.36,-153.421 1128.44,-129.604"/>
<polygon fill="none" stroke="midnightblue" points="1181.67,-210.545 1190.31,-216.668 1187.37,-206.49 1181.67,-210.545"/>
</g>
<!-- Node16 -->
<g id="node16" class="node"><title>Node16</title>
<g id="a_node16"><a xlink:href="../../da/dc8/class_c_g_l_light.xhtml" target="_top" xlink:title="{CGLLight\n||+ CGLLight()\l+ ~CGLLight()\l}">
<polygon fill="white" stroke="black" points="1174.5,-56 1174.5,-124 1253.5,-124 1253.5,-56 1174.5,-56"/>
<text text-anchor="middle" x="1214" y="-112" font-family="Helvetica,sans-Serif" font-size="10.00">CGLLight</text>
<polyline fill="none" stroke="black" points="1174.5,-105 1253.5,-105 "/>
<text text-anchor="middle" x="1214" y="-93" font-family="Helvetica,sans-Serif" font-size="10.00"> </text>
<polyline fill="none" stroke="black" points="1174.5,-86 1253.5,-86 "/>
<text text-anchor="start" x="1182.5" y="-74" font-family="Helvetica,sans-Serif" font-size="10.00">+ CGLLight()</text>
<text text-anchor="start" x="1182.5" y="-63" font-family="Helvetica,sans-Serif" font-size="10.00">+ ~CGLLight()</text>
</a>
</g>
</g>
<!-- Node13&#45;&gt;Node16 -->
<g id="edge15" class="edge"><title>Node13&#45;&gt;Node16</title>
<path fill="none" stroke="midnightblue" d="M1214,-206.33C1214,-180.332 1214,-147.87 1214,-124.015"/>
<polygon fill="none" stroke="midnightblue" points="1210.5,-206.668 1214,-216.668 1217.5,-206.668 1210.5,-206.668"/>
</g>
<!-- Node17 -->
<g id="node17" class="node"><title>Node17</title>
<g id="a_node17"><a xlink:href="../../d9/d85/class_c_g_l_scene.xhtml" target="_top" xlink:title="{CGLScene\n|# cameras\l# objects\l|+ CGLScene()\l+ ~CGLScene()\l+ draw()\l+ getCurrentCamera()\l+ addCamera()\l+ addItem()\l}">
<polygon fill="white" stroke="black" points="1271,-28.5 1271,-151.5 1383,-151.5 1383,-28.5 1271,-28.5"/>
<text text-anchor="middle" x="1327" y="-139.5" font-family="Helvetica,sans-Serif" font-size="10.00">CGLScene</text>
<polyline fill="none" stroke="black" points="1271,-132.5 1383,-132.5 "/>
<text text-anchor="start" x="1279" y="-120.5" font-family="Helvetica,sans-Serif" font-size="10.00"># cameras</text>
<text text-anchor="start" x="1279" y="-109.5" font-family="Helvetica,sans-Serif" font-size="10.00"># objects</text>
<polyline fill="none" stroke="black" points="1271,-102.5 1383,-102.5 "/>
<text text-anchor="start" x="1279" y="-90.5" font-family="Helvetica,sans-Serif" font-size="10.00">+ CGLScene()</text>
<text text-anchor="start" x="1279" y="-79.5" font-family="Helvetica,sans-Serif" font-size="10.00">+ ~CGLScene()</text>
<text text-anchor="start" x="1279" y="-68.5" font-family="Helvetica,sans-Serif" font-size="10.00">+ draw()</text>
<text text-anchor="start" x="1279" y="-57.5" font-family="Helvetica,sans-Serif" font-size="10.00">+ getCurrentCamera()</text>
<text text-anchor="start" x="1279" y="-46.5" font-family="Helvetica,sans-Serif" font-size="10.00">+ addCamera()</text>
<text text-anchor="start" x="1279" y="-35.5" font-family="Helvetica,sans-Serif" font-size="10.00">+ addItem()</text>
</a>
</g>
</g>
<!-- Node13&#45;&gt;Node17 -->
<g id="edge16" class="edge"><title>Node13&#45;&gt;Node17</title>
<path fill="none" stroke="midnightblue" d="M1243.55,-208.422C1255.88,-191.067 1270.45,-170.564 1283.94,-151.587"/>
<polygon fill="none" stroke="midnightblue" points="1240.63,-206.49 1237.69,-216.668 1246.33,-210.545 1240.63,-206.49"/>
</g>
<!-- Node18 -->
<g id="node18" class="node"><title>Node18</title>
<g id="a_node18"><a xlink:href="../../dd/d40/class_c_g_l_window.xhtml" target="_top" xlink:title="{CGLWindow\n||+ CGLWindow()\l+ ~CGLWindow()\l+ loop()\l+ exec()\l+ onResize()\l+ draw()\l+ getCurrentWorld()\l}">
<polygon fill="white" stroke="black" points="1401.5,-28.5 1401.5,-151.5 1504.5,-151.5 1504.5,-28.5 1401.5,-28.5"/>
<text text-anchor="middle" x="1453" y="-139.5" font-family="Helvetica,sans-Serif" font-size="10.00">CGLWindow</text>
<polyline fill="none" stroke="black" points="1401.5,-132.5 1504.5,-132.5 "/>
<text text-anchor="middle" x="1453" y="-120.5" font-family="Helvetica,sans-Serif" font-size="10.00"> </text>
<polyline fill="none" stroke="black" points="1401.5,-113.5 1504.5,-113.5 "/>
<text text-anchor="start" x="1409.5" y="-101.5" font-family="Helvetica,sans-Serif" font-size="10.00">+ CGLWindow()</text>
<text text-anchor="start" x="1409.5" y="-90.5" font-family="Helvetica,sans-Serif" font-size="10.00">+ ~CGLWindow()</text>
<text text-anchor="start" x="1409.5" y="-79.5" font-family="Helvetica,sans-Serif" font-size="10.00">+ loop()</text>
<text text-anchor="start" x="1409.5" y="-68.5" font-family="Helvetica,sans-Serif" font-size="10.00">+ exec()</text>
<text text-anchor="start" x="1409.5" y="-57.5" font-family="Helvetica,sans-Serif" font-size="10.00">+ onResize()</text>
<text text-anchor="start" x="1409.5" y="-46.5" font-family="Helvetica,sans-Serif" font-size="10.00">+ draw()</text>
<text text-anchor="start" x="1409.5" y="-35.5" font-family="Helvetica,sans-Serif" font-size="10.00">+ getCurrentWorld()</text>
</a>
</g>
</g>
<!-- Node13&#45;&gt;Node18 -->
<g id="edge17" class="edge"><title>Node13&#45;&gt;Node18</title>
<path fill="none" stroke="midnightblue" d="M1268.86,-237.273C1306.17,-226.591 1355.08,-208.425 1391,-180 1401.04,-172.054 1410.12,-162.049 1418.05,-151.641"/>
<polygon fill="none" stroke="midnightblue" points="1267.86,-233.919 1259.16,-239.96 1269.73,-240.665 1267.86,-233.919"/>
</g>
<!-- Node19 -->
<g id="node19" class="node"><title>Node19</title>
<g id="a_node19"><a xlink:href="../../db/da4/class_c_g_l_world.xhtml" target="_top" xlink:title="{CGLWorld\n||+ CGLWorld()\l+ ~CGLWorld()\l+ draw()\l+ getCurrentScene()\l}">
<polygon fill="white" stroke="black" points="1522.5,-45 1522.5,-135 1627.5,-135 1627.5,-45 1522.5,-45"/>
<text text-anchor="middle" x="1575" y="-123" font-family="Helvetica,sans-Serif" font-size="10.00">CGLWorld</text>
<polyline fill="none" stroke="black" points="1522.5,-116 1627.5,-116 "/>
<text text-anchor="middle" x="1575" y="-104" font-family="Helvetica,sans-Serif" font-size="10.00"> </text>
<polyline fill="none" stroke="black" points="1522.5,-97 1627.5,-97 "/>
<text text-anchor="start" x="1530.5" y="-85" font-family="Helvetica,sans-Serif" font-size="10.00">+ CGLWorld()</text>
<text text-anchor="start" x="1530.5" y="-74" font-family="Helvetica,sans-Serif" font-size="10.00">+ ~CGLWorld()</text>
<text text-anchor="start" x="1530.5" y="-63" font-family="Helvetica,sans-Serif" font-size="10.00">+ draw()</text>
<text text-anchor="start" x="1530.5" y="-52" font-family="Helvetica,sans-Serif" font-size="10.00">+ getCurrentScene()</text>
</a>
</g>
</g>
<!-- Node13&#45;&gt;Node19 -->
<g id="edge18" class="edge"><title>Node13&#45;&gt;Node19</title>
<path fill="none" stroke="midnightblue" d="M1269.27,-248.709C1333.1,-244.744 1438.82,-230.33 1513,-180 1529.52,-168.793 1542.99,-151.608 1553.1,-135.317"/>
<polygon fill="none" stroke="midnightblue" points="1268.8,-245.229 1259.01,-249.278 1269.19,-252.219 1268.8,-245.229"/>
</g>
</g>
</svg>
