<?xml version="1.0" encoding="UTF-8" standalone="no"?>
<!DOCTYPE svg PUBLIC "-//W3C//DTD SVG 1.1//EN"
 "http://www.w3.org/Graphics/SVG/1.1/DTD/svg11.dtd">
<!-- Generated by graphviz version 2.36.0 (20140111.2315)
 -->
<!-- Title: CGLPolygon Pages: 1 -->
<svg width="112pt" height="486pt"
 viewBox="0.00 0.00 112.00 486.00" xmlns="http://www.w3.org/2000/svg" xmlns:xlink="http://www.w3.org/1999/xlink">
<g id="graph0" class="graph" transform="scale(1 1) rotate(0) translate(4 482)">
<title>CGLPolygon</title>
<polygon fill="white" stroke="none" points="-4,4 -4,-482 108,-482 108,4 -4,4"/>
<!-- Node1 -->
<g id="node1" class="node"><title>Node1</title>
<polygon fill="#bfbfbf" stroke="black" points="5.5,-0.5 5.5,-79.5 98.5,-79.5 98.5,-0.5 5.5,-0.5"/>
<text text-anchor="middle" x="52" y="-67.5" font-family="Helvetica,sans-Serif" font-size="10.00">CGLPolygon</text>
<polyline fill="none" stroke="black" points="5.5,-60.5 98.5,-60.5 "/>
<text text-anchor="start" x="13.5" y="-48.5" font-family="Helvetica,sans-Serif" font-size="10.00"># points</text>
<polyline fill="none" stroke="black" points="5.5,-41.5 98.5,-41.5 "/>
<text text-anchor="start" x="13.5" y="-29.5" font-family="Helvetica,sans-Serif" font-size="10.00">+ CGLPolygon()</text>
<text text-anchor="start" x="13.5" y="-18.5" font-family="Helvetica,sans-Serif" font-size="10.00">+ ~CGLPolygon()</text>
<text text-anchor="start" x="13.5" y="-7.5" font-family="Helvetica,sans-Serif" font-size="10.00">+ drawObject()</text>
</g>
<!-- Node2 -->
<g id="node2" class="node"><title>Node2</title>
<g id="a_node2"><a xlink:href="../../d7/d2f/class_c_g_l_item.xhtml" target="_top" xlink:title="{CGLItem\n||+ CGLItem()\l+ ~CGLItem()\l}">
<polygon fill="white" stroke="black" points="13.5,-117 13.5,-185 90.5,-185 90.5,-117 13.5,-117"/>
<text text-anchor="middle" x="52" y="-173" font-family="Helvetica,sans-Serif" font-size="10.00">CGLItem</text>
<polyline fill="none" stroke="black" points="13.5,-166 90.5,-166 "/>
<text text-anchor="middle" x="52" y="-154" font-family="Helvetica,sans-Serif" font-size="10.00"> </text>
<polyline fill="none" stroke="black" points="13.5,-147 90.5,-147 "/>
<text text-anchor="start" x="21.5" y="-135" font-family="Helvetica,sans-Serif" font-size="10.00">+ CGLItem()</text>
<text text-anchor="start" x="21.5" y="-124" font-family="Helvetica,sans-Serif" font-size="10.00">+ ~CGLItem()</text>
</a>
</g>
</g>
<!-- Node2&#45;&gt;Node1 -->
<g id="edge1" class="edge"><title>Node2&#45;&gt;Node1</title>
<path fill="none" stroke="midnightblue" d="M52,-106.575C52,-97.7367 52,-88.4932 52,-79.8274"/>
<polygon fill="none" stroke="midnightblue" points="48.5001,-106.704 52,-116.704 55.5001,-106.704 48.5001,-106.704"/>
</g>
<!-- Node3 -->
<g id="node3" class="node"><title>Node3</title>
<g id="a_node3"><a xlink:href="../../d2/d76/class_c_g_l_object.xhtml" target="_top" xlink:title="{CGLObject\n|+ garbage\l# objectType\l# name\l# matrixSaved\l# children\l# iterCurrentObject\l# currentObject\l# parentObject\l|+ addObject()\l+ setName()\l+ getName()\l+ getCurrentObject()\l+ isChild()\l+ draw()\l+ drawObject()\l+ drawChildren()\l+ drawCenter()\l+ CGLObject()\l+ ~CGLObject()\l+ init()\l}">
<polygon fill="white" stroke="black" points="-1,-222.5 -1,-477.5 105,-477.5 105,-222.5 -1,-222.5"/>
<text text-anchor="middle" x="52" y="-465.5" font-family="Helvetica,sans-Serif" font-size="10.00">CGLObject</text>
<polyline fill="none" stroke="black" points="-1,-458.5 105,-458.5 "/>
<text text-anchor="start" x="7" y="-446.5" font-family="Helvetica,sans-Serif" font-size="10.00">+ garbage</text>
<text text-anchor="start" x="7" y="-435.5" font-family="Helvetica,sans-Serif" font-size="10.00"># objectType</text>
<text text-anchor="start" x="7" y="-424.5" font-family="Helvetica,sans-Serif" font-size="10.00"># name</text>
<text text-anchor="start" x="7" y="-413.5" font-family="Helvetica,sans-Serif" font-size="10.00"># matrixSaved</text>
<text text-anchor="start" x="7" y="-402.5" font-family="Helvetica,sans-Serif" font-size="10.00"># children</text>
<text text-anchor="start" x="7" y="-391.5" font-family="Helvetica,sans-Serif" font-size="10.00"># iterCurrentObject</text>
<text text-anchor="start" x="7" y="-380.5" font-family="Helvetica,sans-Serif" font-size="10.00"># currentObject</text>
<text text-anchor="start" x="7" y="-369.5" font-family="Helvetica,sans-Serif" font-size="10.00"># parentObject</text>
<polyline fill="none" stroke="black" points="-1,-362.5 105,-362.5 "/>
<text text-anchor="start" x="7" y="-350.5" font-family="Helvetica,sans-Serif" font-size="10.00">+ addObject()</text>
<text text-anchor="start" x="7" y="-339.5" font-family="Helvetica,sans-Serif" font-size="10.00">+ setName()</text>
<text text-anchor="start" x="7" y="-328.5" font-family="Helvetica,sans-Serif" font-size="10.00">+ getName()</text>
<text text-anchor="start" x="7" y="-317.5" font-family="Helvetica,sans-Serif" font-size="10.00">+ getCurrentObject()</text>
<text text-anchor="start" x="7" y="-306.5" font-family="Helvetica,sans-Serif" font-size="10.00">+ isChild()</text>
<text text-anchor="start" x="7" y="-295.5" font-family="Helvetica,sans-Serif" font-size="10.00">+ draw()</text>
<text text-anchor="start" x="7" y="-284.5" font-family="Helvetica,sans-Serif" font-size="10.00">+ drawObject()</text>
<text text-anchor="start" x="7" y="-273.5" font-family="Helvetica,sans-Serif" font-size="10.00">+ drawChildren()</text>
<text text-anchor="start" x="7" y="-262.5" font-family="Helvetica,sans-Serif" font-size="10.00">+ drawCenter()</text>
<text text-anchor="start" x="7" y="-251.5" font-family="Helvetica,sans-Serif" font-size="10.00">+ CGLObject()</text>
<text text-anchor="start" x="7" y="-240.5" font-family="Helvetica,sans-Serif" font-size="10.00">+ ~CGLObject()</text>
<text text-anchor="start" x="7" y="-229.5" font-family="Helvetica,sans-Serif" font-size="10.00">+ init()</text>
</a>
</g>
</g>
<!-- Node3&#45;&gt;Node2 -->
<g id="edge2" class="edge"><title>Node3&#45;&gt;Node2</title>
<path fill="none" stroke="midnightblue" d="M52,-212.257C52,-202.41 52,-193.166 52,-185.016"/>
<polygon fill="none" stroke="midnightblue" points="48.5001,-212.287 52,-222.287 55.5001,-212.287 48.5001,-212.287"/>
</g>
</g>
</svg>
