<?xml version="1.0" encoding="UTF-8" standalone="no"?>
<!DOCTYPE svg PUBLIC "-//W3C//DTD SVG 1.1//EN"
 "http://www.w3.org/Graphics/SVG/1.1/DTD/svg11.dtd">
<!-- Generated by graphviz version 2.36.0 (20140111.2315)
 -->
<!-- Title: CGLQuad::CGLQuad Pages: 1 -->
<svg width="392pt" height="66pt"
 viewBox="0.00 0.00 392.00 66.00" xmlns="http://www.w3.org/2000/svg" xmlns:xlink="http://www.w3.org/1999/xlink">
<g id="graph0" class="graph" transform="scale(1 1) rotate(0) translate(4 62)">
<title>CGLQuad::CGLQuad</title>
<polygon fill="white" stroke="none" points="-4,4 -4,-62 388,-62 388,4 -4,4"/>
<!-- Node1 -->
<g id="node1" class="node"><title>Node1</title>
<polygon fill="#bfbfbf" stroke="black" points="0,-19.5 0,-38.5 110,-38.5 110,-19.5 0,-19.5"/>
<text text-anchor="middle" x="55" y="-26.5" font-family="Helvetica,sans-Serif" font-size="10.00">CGLQuad::CGLQuad</text>
</g>
<!-- Node2 -->
<g id="node2" class="node"><title>Node2</title>
<g id="a_node2"><a xlink:href="../../d8/d97/class_c_g_l_vector2_d.xhtml#a37b79a5ca7b3445df956e177f7c436fc" target="_top" xlink:title="CGLVector2D::set">
<polygon fill="white" stroke="black" points="146,-19.5 146,-38.5 244,-38.5 244,-19.5 146,-19.5"/>
<text text-anchor="middle" x="195" y="-26.5" font-family="Helvetica,sans-Serif" font-size="10.00">CGLVector2D::set</text>
</a>
</g>
</g>
<!-- Node1&#45;&gt;Node2 -->
<g id="edge1" class="edge"><title>Node1&#45;&gt;Node2</title>
<path fill="none" stroke="midnightblue" d="M110.145,-29C118.52,-29 127.201,-29 135.663,-29"/>
<polygon fill="midnightblue" stroke="midnightblue" points="135.84,-32.5001 145.84,-29 135.84,-25.5001 135.84,-32.5001"/>
</g>
<!-- Node3 -->
<g id="node3" class="node"><title>Node3</title>
<g id="a_node3"><a xlink:href="../../d8/d97/class_c_g_l_vector2_d.xhtml#a22db1a511fae81b0d7a6766b6490dd8c" target="_top" xlink:title="CGLVector2D::setX">
<polygon fill="white" stroke="black" points="280,-38.5 280,-57.5 384,-57.5 384,-38.5 280,-38.5"/>
<text text-anchor="middle" x="332" y="-45.5" font-family="Helvetica,sans-Serif" font-size="10.00">CGLVector2D::setX</text>
</a>
</g>
</g>
<!-- Node2&#45;&gt;Node3 -->
<g id="edge2" class="edge"><title>Node2&#45;&gt;Node3</title>
<path fill="none" stroke="midnightblue" d="M244.357,-35.8058C252.622,-36.9691 261.306,-38.1911 269.852,-39.3939"/>
<polygon fill="midnightblue" stroke="midnightblue" points="269.398,-42.8644 279.788,-40.7924 270.373,-35.9328 269.398,-42.8644"/>
</g>
<!-- Node4 -->
<g id="node4" class="node"><title>Node4</title>
<g id="a_node4"><a xlink:href="../../d8/d97/class_c_g_l_vector2_d.xhtml#a4c89a21e28a86848c6b023ad60baef4c" target="_top" xlink:title="CGLVector2D::setY">
<polygon fill="white" stroke="black" points="280,-0.5 280,-19.5 384,-19.5 384,-0.5 280,-0.5"/>
<text text-anchor="middle" x="332" y="-7.5" font-family="Helvetica,sans-Serif" font-size="10.00">CGLVector2D::setY</text>
</a>
</g>
</g>
<!-- Node2&#45;&gt;Node4 -->
<g id="edge3" class="edge"><title>Node2&#45;&gt;Node4</title>
<path fill="none" stroke="midnightblue" d="M244.357,-22.1942C252.622,-21.0309 261.306,-19.8089 269.852,-18.6061"/>
<polygon fill="midnightblue" stroke="midnightblue" points="270.373,-22.0672 279.788,-17.2076 269.398,-15.1356 270.373,-22.0672"/>
</g>
</g>
</svg>
