<?xml version="1.0" encoding="UTF-8" standalone="no"?>
<!DOCTYPE svg PUBLIC "-//W3C//DTD SVG 1.1//EN"
 "http://www.w3.org/Graphics/SVG/1.1/DTD/svg11.dtd">
<!-- Generated by graphviz version 2.36.0 (20140111.2315)
 -->
<!-- Title: CGLPositionSpeed Pages: 1 -->
<svg width="313pt" height="620pt"
 viewBox="0.00 0.00 313.00 620.00" xmlns="http://www.w3.org/2000/svg" xmlns:xlink="http://www.w3.org/1999/xlink">
<g id="graph0" class="graph" transform="scale(1 1) rotate(0) translate(4 616)">
<title>CGLPositionSpeed</title>
<polygon fill="white" stroke="none" points="-4,4 -4,-616 309,-616 309,4 -4,4"/>
<!-- Node1 -->
<g id="node1" class="node"><title>Node1</title>
<polygon fill="#bfbfbf" stroke="black" points="156.5,-0.5 156.5,-79.5 277.5,-79.5 277.5,-0.5 156.5,-0.5"/>
<text text-anchor="middle" x="217" y="-67.5" font-family="Helvetica,sans-Serif" font-size="10.00">CGLPositionSpeed</text>
<polyline fill="none" stroke="black" points="156.5,-60.5 277.5,-60.5 "/>
<text text-anchor="middle" x="217" y="-48.5" font-family="Helvetica,sans-Serif" font-size="10.00"> </text>
<polyline fill="none" stroke="black" points="156.5,-41.5 277.5,-41.5 "/>
<text text-anchor="start" x="164.5" y="-29.5" font-family="Helvetica,sans-Serif" font-size="10.00">+ CGLPositionSpeed()</text>
<text text-anchor="start" x="164.5" y="-18.5" font-family="Helvetica,sans-Serif" font-size="10.00">+ ~CGLPositionSpeed()</text>
<text text-anchor="start" x="164.5" y="-7.5" font-family="Helvetica,sans-Serif" font-size="10.00">+ drawObject()</text>
</g>
<!-- Node2 -->
<g id="node2" class="node"><title>Node2</title>
<g id="a_node2"><a xlink:href="../../de/d31/class_c_g_l_position.xhtml" target="_top" xlink:title="{CGLPosition\n||+ CGLPosition()\l+ ~CGLPosition()\l+ drawObject()\l}">
<polygon fill="white" stroke="black" points="114.5,-118.5 114.5,-197.5 207.5,-197.5 207.5,-118.5 114.5,-118.5"/>
<text text-anchor="middle" x="161" y="-185.5" font-family="Helvetica,sans-Serif" font-size="10.00">CGLPosition</text>
<polyline fill="none" stroke="black" points="114.5,-178.5 207.5,-178.5 "/>
<text text-anchor="middle" x="161" y="-166.5" font-family="Helvetica,sans-Serif" font-size="10.00"> </text>
<polyline fill="none" stroke="black" points="114.5,-159.5 207.5,-159.5 "/>
<text text-anchor="start" x="122.5" y="-147.5" font-family="Helvetica,sans-Serif" font-size="10.00">+ CGLPosition()</text>
<text text-anchor="start" x="122.5" y="-136.5" font-family="Helvetica,sans-Serif" font-size="10.00">+ ~CGLPosition()</text>
<text text-anchor="start" x="122.5" y="-125.5" font-family="Helvetica,sans-Serif" font-size="10.00">+ drawObject()</text>
</a>
</g>
</g>
<!-- Node2&#45;&gt;Node1 -->
<g id="edge1" class="edge"><title>Node2&#45;&gt;Node1</title>
<path fill="none" stroke="midnightblue" d="M184.088,-109.174C188.801,-99.4131 193.704,-89.2551 198.243,-79.8532"/>
<polygon fill="none" stroke="midnightblue" points="180.843,-107.847 179.647,-118.374 187.147,-110.89 180.843,-107.847"/>
</g>
<!-- Node3 -->
<g id="node3" class="node"><title>Node3</title>
<g id="a_node3"><a xlink:href="../../dc/d8a/class_c_g_l_effect.xhtml" target="_top" xlink:title="{CGLEffect\n||+ CGLEffect()\l+ ~CGLEffect()\l}">
<polygon fill="white" stroke="black" points="46,-259 46,-327 130,-327 130,-259 46,-259"/>
<text text-anchor="middle" x="88" y="-315" font-family="Helvetica,sans-Serif" font-size="10.00">CGLEffect</text>
<polyline fill="none" stroke="black" points="46,-308 130,-308 "/>
<text text-anchor="middle" x="88" y="-296" font-family="Helvetica,sans-Serif" font-size="10.00"> </text>
<polyline fill="none" stroke="black" points="46,-289 130,-289 "/>
<text text-anchor="start" x="54" y="-277" font-family="Helvetica,sans-Serif" font-size="10.00">+ CGLEffect()</text>
<text text-anchor="start" x="54" y="-266" font-family="Helvetica,sans-Serif" font-size="10.00">+ ~CGLEffect()</text>
</a>
</g>
</g>
<!-- Node3&#45;&gt;Node2 -->
<g id="edge2" class="edge"><title>Node3&#45;&gt;Node2</title>
<path fill="none" stroke="midnightblue" d="M111.152,-249.82C120.276,-233.196 130.691,-214.22 139.634,-197.927"/>
<polygon fill="none" stroke="midnightblue" points="107.976,-248.331 106.233,-258.782 114.113,-251.699 107.976,-248.331"/>
</g>
<!-- Node4 -->
<g id="node4" class="node"><title>Node4</title>
<g id="a_node4"><a xlink:href="../../d2/d76/class_c_g_l_object.xhtml" target="_top" xlink:title="{CGLObject\n|# objectType\l# name\l# matrixSaved\l# children\l# iterCurrentObject\l|+ addObject()\l+ setName()\l+ getName()\l+ getCurrentObject()\l+ isChild()\l+ draw()\l+ drawObject()\l+ drawChildren()\l+ drawCenter()\l+ CGLObject()\l+ ~CGLObject()\l+ init()\l}">
<polygon fill="white" stroke="black" points="0,-389 0,-611 106,-611 106,-389 0,-389"/>
<text text-anchor="middle" x="53" y="-599" font-family="Helvetica,sans-Serif" font-size="10.00">CGLObject</text>
<polyline fill="none" stroke="black" points="0,-592 106,-592 "/>
<text text-anchor="start" x="8" y="-580" font-family="Helvetica,sans-Serif" font-size="10.00"># objectType</text>
<text text-anchor="start" x="8" y="-569" font-family="Helvetica,sans-Serif" font-size="10.00"># name</text>
<text text-anchor="start" x="8" y="-558" font-family="Helvetica,sans-Serif" font-size="10.00"># matrixSaved</text>
<text text-anchor="start" x="8" y="-547" font-family="Helvetica,sans-Serif" font-size="10.00"># children</text>
<text text-anchor="start" x="8" y="-536" font-family="Helvetica,sans-Serif" font-size="10.00"># iterCurrentObject</text>
<polyline fill="none" stroke="black" points="0,-529 106,-529 "/>
<text text-anchor="start" x="8" y="-517" font-family="Helvetica,sans-Serif" font-size="10.00">+ addObject()</text>
<text text-anchor="start" x="8" y="-506" font-family="Helvetica,sans-Serif" font-size="10.00">+ setName()</text>
<text text-anchor="start" x="8" y="-495" font-family="Helvetica,sans-Serif" font-size="10.00">+ getName()</text>
<text text-anchor="start" x="8" y="-484" font-family="Helvetica,sans-Serif" font-size="10.00">+ getCurrentObject()</text>
<text text-anchor="start" x="8" y="-473" font-family="Helvetica,sans-Serif" font-size="10.00">+ isChild()</text>
<text text-anchor="start" x="8" y="-462" font-family="Helvetica,sans-Serif" font-size="10.00">+ draw()</text>
<text text-anchor="start" x="8" y="-451" font-family="Helvetica,sans-Serif" font-size="10.00">+ drawObject()</text>
<text text-anchor="start" x="8" y="-440" font-family="Helvetica,sans-Serif" font-size="10.00">+ drawChildren()</text>
<text text-anchor="start" x="8" y="-429" font-family="Helvetica,sans-Serif" font-size="10.00">+ drawCenter()</text>
<text text-anchor="start" x="8" y="-418" font-family="Helvetica,sans-Serif" font-size="10.00">+ CGLObject()</text>
<text text-anchor="start" x="8" y="-407" font-family="Helvetica,sans-Serif" font-size="10.00">+ ~CGLObject()</text>
<text text-anchor="start" x="8" y="-396" font-family="Helvetica,sans-Serif" font-size="10.00">+ init()</text>
</a>
</g>
</g>
<!-- Node4&#45;&gt;Node3 -->
<g id="edge3" class="edge"><title>Node4&#45;&gt;Node3</title>
<path fill="none" stroke="midnightblue" d="M73.4914,-378.979C76.7428,-359.935 79.8521,-341.723 82.3525,-327.078"/>
<polygon fill="none" stroke="midnightblue" points="70.0137,-378.552 71.7807,-388.999 76.9138,-379.73 70.0137,-378.552"/>
</g>
<!-- Node4&#45;&gt;Node4 -->
<g id="edge4" class="edge"><title>Node4&#45;&gt;Node4</title>
<path fill="none" stroke="#404040" d="M106.111,-523.124C116.021,-520.276 123,-512.568 123,-500 123,-492.734 120.667,-487.092 116.784,-483.075"/>
<polygon fill="none" stroke="#404040" points="116.488,-482.903 109.291,-483.349 106.111,-476.876 113.309,-476.431 116.488,-482.903"/>
<text text-anchor="middle" x="155" y="-508.5" font-family="Helvetica,sans-Serif" font-size="10.00"> +garbage</text>
<text text-anchor="middle" x="155" y="-497.5" font-family="Helvetica,sans-Serif" font-size="10.00">#currentObject</text>
<text text-anchor="middle" x="155" y="-486.5" font-family="Helvetica,sans-Serif" font-size="10.00">#parentObject</text>
</g>
<!-- Node5 -->
<g id="node5" class="node"><title>Node5</title>
<g id="a_node5"><a xlink:href="../../d6/df9/class_c_g_l_vector3_d.xhtml" target="_top" xlink:title="{CGLVector3D\n|# z\l|+ CGLVector3D()\l+ ~CGLVector3D()\l+ isEqualTo()\l+ getZ()\l+ set()\l+ setZ()\l}">
<polygon fill="white" stroke="black" points="194.5,-237 194.5,-349 293.5,-349 293.5,-237 194.5,-237"/>
<text text-anchor="middle" x="244" y="-337" font-family="Helvetica,sans-Serif" font-size="10.00">CGLVector3D</text>
<polyline fill="none" stroke="black" points="194.5,-330 293.5,-330 "/>
<text text-anchor="start" x="202.5" y="-318" font-family="Helvetica,sans-Serif" font-size="10.00"># z</text>
<polyline fill="none" stroke="black" points="194.5,-311 293.5,-311 "/>
<text text-anchor="start" x="202.5" y="-299" font-family="Helvetica,sans-Serif" font-size="10.00">+ CGLVector3D()</text>
<text text-anchor="start" x="202.5" y="-288" font-family="Helvetica,sans-Serif" font-size="10.00">+ ~CGLVector3D()</text>
<text text-anchor="start" x="202.5" y="-277" font-family="Helvetica,sans-Serif" font-size="10.00">+ isEqualTo()</text>
<text text-anchor="start" x="202.5" y="-266" font-family="Helvetica,sans-Serif" font-size="10.00">+ getZ()</text>
<text text-anchor="start" x="202.5" y="-255" font-family="Helvetica,sans-Serif" font-size="10.00">+ set()</text>
<text text-anchor="start" x="202.5" y="-244" font-family="Helvetica,sans-Serif" font-size="10.00">+ setZ()</text>
</a>
</g>
</g>
<!-- Node5&#45;&gt;Node1 -->
<g id="edge7" class="edge"><title>Node5&#45;&gt;Node1</title>
<path fill="none" stroke="#404040" d="M238.075,-236.917C233.422,-193.667 226.995,-133.919 222.465,-91.8085"/>
<polygon fill="none" stroke="#404040" points="222.437,-91.5463 217.819,-86.0085 221.154,-79.6151 225.773,-85.1529 222.437,-91.5463"/>
<text text-anchor="middle" x="251.5" y="-155.5" font-family="Helvetica,sans-Serif" font-size="10.00"> #speed</text>
</g>
<!-- Node5&#45;&gt;Node2 -->
<g id="edge5" class="edge"><title>Node5&#45;&gt;Node2</title>
<path fill="none" stroke="midnightblue" d="M204.103,-228.069C197.622,-217.683 191.088,-207.214 185.136,-197.676"/>
<polygon fill="none" stroke="midnightblue" points="201.258,-230.121 209.522,-236.751 207.197,-226.415 201.258,-230.121"/>
</g>
<!-- Node6 -->
<g id="node6" class="node"><title>Node6</title>
<g id="a_node6"><a xlink:href="../../d8/d97/class_c_g_l_vector2_d.xhtml" target="_top" xlink:title="{CGLVector2D\n|# maxX\l# maxY\l# minX\l# minY\l# x\l# y\l|+ CGLVector2D()\l+ ~CGLVector2D()\l+ getMaxX()\l+ getMaxY()\l+ getMinX()\l+ getMinY()\l+ getX()\l+ getY()\l+ isXMax()\l+ isYMax()\let 10 de plus...\l}">
<polygon fill="white" stroke="black" points="206.5,-389 206.5,-611 305.5,-611 305.5,-389 206.5,-389"/>
<text text-anchor="middle" x="256" y="-599" font-family="Helvetica,sans-Serif" font-size="10.00">CGLVector2D</text>
<polyline fill="none" stroke="black" points="206.5,-592 305.5,-592 "/>
<text text-anchor="start" x="214.5" y="-580" font-family="Helvetica,sans-Serif" font-size="10.00"># maxX</text>
<text text-anchor="start" x="214.5" y="-569" font-family="Helvetica,sans-Serif" font-size="10.00"># maxY</text>
<text text-anchor="start" x="214.5" y="-558" font-family="Helvetica,sans-Serif" font-size="10.00"># minX</text>
<text text-anchor="start" x="214.5" y="-547" font-family="Helvetica,sans-Serif" font-size="10.00"># minY</text>
<text text-anchor="start" x="214.5" y="-536" font-family="Helvetica,sans-Serif" font-size="10.00"># x</text>
<text text-anchor="start" x="214.5" y="-525" font-family="Helvetica,sans-Serif" font-size="10.00"># y</text>
<polyline fill="none" stroke="black" points="206.5,-518 305.5,-518 "/>
<text text-anchor="start" x="214.5" y="-506" font-family="Helvetica,sans-Serif" font-size="10.00">+ CGLVector2D()</text>
<text text-anchor="start" x="214.5" y="-495" font-family="Helvetica,sans-Serif" font-size="10.00">+ ~CGLVector2D()</text>
<text text-anchor="start" x="214.5" y="-484" font-family="Helvetica,sans-Serif" font-size="10.00">+ getMaxX()</text>
<text text-anchor="start" x="214.5" y="-473" font-family="Helvetica,sans-Serif" font-size="10.00">+ getMaxY()</text>
<text text-anchor="start" x="214.5" y="-462" font-family="Helvetica,sans-Serif" font-size="10.00">+ getMinX()</text>
<text text-anchor="start" x="214.5" y="-451" font-family="Helvetica,sans-Serif" font-size="10.00">+ getMinY()</text>
<text text-anchor="start" x="214.5" y="-440" font-family="Helvetica,sans-Serif" font-size="10.00">+ getX()</text>
<text text-anchor="start" x="214.5" y="-429" font-family="Helvetica,sans-Serif" font-size="10.00">+ getY()</text>
<text text-anchor="start" x="214.5" y="-418" font-family="Helvetica,sans-Serif" font-size="10.00">+ isXMax()</text>
<text text-anchor="start" x="214.5" y="-407" font-family="Helvetica,sans-Serif" font-size="10.00">+ isYMax()</text>
<text text-anchor="start" x="214.5" y="-396" font-family="Helvetica,sans-Serif" font-size="10.00">et 10 de plus...</text>
</a>
</g>
</g>
<!-- Node6&#45;&gt;Node5 -->
<g id="edge6" class="edge"><title>Node6&#45;&gt;Node5</title>
<path fill="none" stroke="midnightblue" d="M248.959,-378.719C248.361,-368.505 247.778,-358.533 247.233,-349.228"/>
<polygon fill="none" stroke="midnightblue" points="245.482,-379.22 249.561,-388.999 252.47,-378.811 245.482,-379.22"/>
</g>
</g>
</svg>
