<?xml version="1.0" encoding="UTF-8" standalone="no"?>
<!DOCTYPE svg PUBLIC "-//W3C//DTD SVG 1.1//EN"
 "http://www.w3.org/Graphics/SVG/1.1/DTD/svg11.dtd">
<!-- Generated by graphviz version 2.36.0 (20140111.2315)
 -->
<!-- Title: /home/dagal/git/DamierGL/DamierGL/src/CGL/CGLScale.cpp Pages: 1 -->
<svg width="452pt" height="264pt"
 viewBox="0.00 0.00 452.00 264.00" xmlns="http://www.w3.org/2000/svg" xmlns:xlink="http://www.w3.org/1999/xlink">
<g id="graph0" class="graph" transform="scale(1 1) rotate(0) translate(4 260)">
<title>/home/dagal/git/DamierGL/DamierGL/src/CGL/CGLScale.cpp</title>
<polygon fill="white" stroke="none" points="-4,4 -4,-260 448,-260 448,4 -4,4"/>
<!-- Node1 -->
<g id="node1" class="node"><title>Node1</title>
<polygon fill="#bfbfbf" stroke="black" points="231,-225 231,-255 401,-255 401,-225 231,-225"/>
<text text-anchor="start" x="239" y="-243" font-family="Helvetica,sans-Serif" font-size="10.00">/home/dagal/git/DamierGL</text>
<text text-anchor="middle" x="316" y="-232" font-family="Helvetica,sans-Serif" font-size="10.00">/DamierGL/src/CGL/CGLScale.cpp</text>
</g>
<!-- Node2 -->
<g id="node2" class="node"><title>Node2</title>
<g id="a_node2"><a xlink:href="$d2/d1b/_c_g_l_scale_8h.xhtml" xlink:title="CGLScale.h">
<polygon fill="white" stroke="black" points="281,-168.5 281,-187.5 351,-187.5 351,-168.5 281,-168.5"/>
<text text-anchor="middle" x="316" y="-175.5" font-family="Helvetica,sans-Serif" font-size="10.00">CGLScale.h</text>
</a>
</g>
</g>
<!-- Node1&#45;&gt;Node2 -->
<g id="edge1" class="edge"><title>Node1&#45;&gt;Node2</title>
<path fill="none" stroke="midnightblue" d="M316,-224.781C316,-216.781 316,-206.689 316,-198.017"/>
<polygon fill="midnightblue" stroke="midnightblue" points="319.5,-197.73 316,-187.731 312.5,-197.731 319.5,-197.73"/>
</g>
<!-- Node3 -->
<g id="node3" class="node"><title>Node3</title>
<g id="a_node3"><a xlink:href="$d7/d27/_c_g_l_effect_8h.xhtml" xlink:title="CGLEffect.h">
<polygon fill="white" stroke="black" points="227.5,-112.5 227.5,-131.5 298.5,-131.5 298.5,-112.5 227.5,-112.5"/>
<text text-anchor="middle" x="263" y="-119.5" font-family="Helvetica,sans-Serif" font-size="10.00">CGLEffect.h</text>
</a>
</g>
</g>
<!-- Node2&#45;&gt;Node3 -->
<g id="edge2" class="edge"><title>Node2&#45;&gt;Node3</title>
<path fill="none" stroke="midnightblue" d="M307.248,-168.083C299.53,-160.22 288.095,-148.569 278.783,-139.081"/>
<polygon fill="midnightblue" stroke="midnightblue" points="281.092,-136.436 271.589,-131.751 276.096,-141.34 281.092,-136.436"/>
</g>
<!-- Node11 -->
<g id="node11" class="node"><title>Node11</title>
<g id="a_node11"><a xlink:href="$dd/d83/_c_g_l_vector3_d_8h.xhtml" xlink:title="CGLVector3D.h">
<polygon fill="white" stroke="black" points="327,-112.5 327,-131.5 413,-131.5 413,-112.5 327,-112.5"/>
<text text-anchor="middle" x="370" y="-119.5" font-family="Helvetica,sans-Serif" font-size="10.00">CGLVector3D.h</text>
</a>
</g>
</g>
<!-- Node2&#45;&gt;Node11 -->
<g id="edge10" class="edge"><title>Node2&#45;&gt;Node11</title>
<path fill="none" stroke="midnightblue" d="M324.917,-168.083C332.78,-160.22 344.431,-148.569 353.919,-139.081"/>
<polygon fill="midnightblue" stroke="midnightblue" points="356.653,-141.297 361.249,-131.751 351.703,-136.347 356.653,-141.297"/>
</g>
<!-- Node4 -->
<g id="node4" class="node"><title>Node4</title>
<g id="a_node4"><a xlink:href="$d6/d55/_c_g_l_object_8h.xhtml" xlink:title="CGLObject.h">
<polygon fill="white" stroke="black" points="206,-56.5 206,-75.5 280,-75.5 280,-56.5 206,-56.5"/>
<text text-anchor="middle" x="243" y="-63.5" font-family="Helvetica,sans-Serif" font-size="10.00">CGLObject.h</text>
</a>
</g>
</g>
<!-- Node3&#45;&gt;Node4 -->
<g id="edge3" class="edge"><title>Node3&#45;&gt;Node4</title>
<path fill="none" stroke="midnightblue" d="M259.697,-112.083C257.018,-104.849 253.151,-94.4087 249.814,-85.3968"/>
<polygon fill="midnightblue" stroke="midnightblue" points="252.996,-83.9129 246.241,-75.7511 246.432,-86.3442 252.996,-83.9129"/>
</g>
<!-- Node5 -->
<g id="node5" class="node"><title>Node5</title>
<polygon fill="white" stroke="#bfbfbf" points="0,-0.5 0,-19.5 54,-19.5 54,-0.5 0,-0.5"/>
<text text-anchor="middle" x="27" y="-7.5" font-family="Helvetica,sans-Serif" font-size="10.00">iostream</text>
</g>
<!-- Node4&#45;&gt;Node5 -->
<g id="edge4" class="edge"><title>Node4&#45;&gt;Node5</title>
<path fill="none" stroke="midnightblue" d="M208.774,-56.4435C169.295,-46.5738 104.623,-30.4057 64.005,-20.2512"/>
<polygon fill="midnightblue" stroke="midnightblue" points="64.7769,-16.8366 54.2266,-17.8067 63.0791,-23.6276 64.7769,-16.8366"/>
</g>
<!-- Node6 -->
<g id="node6" class="node"><title>Node6</title>
<polygon fill="white" stroke="#bfbfbf" points="72,-0.5 72,-19.5 120,-19.5 120,-0.5 72,-0.5"/>
<text text-anchor="middle" x="96" y="-7.5" font-family="Helvetica,sans-Serif" font-size="10.00">GL/gl.h</text>
</g>
<!-- Node4&#45;&gt;Node6 -->
<g id="edge5" class="edge"><title>Node4&#45;&gt;Node6</title>
<path fill="none" stroke="midnightblue" d="M219.707,-56.4435C195.193,-47.4381 156.404,-33.1891 128.8,-23.049"/>
<polygon fill="midnightblue" stroke="midnightblue" points="129.777,-19.6793 119.184,-19.5164 127.363,-26.25 129.777,-19.6793"/>
</g>
<!-- Node7 -->
<g id="node7" class="node"><title>Node7</title>
<polygon fill="white" stroke="#bfbfbf" points="138.5,-0.5 138.5,-19.5 191.5,-19.5 191.5,-0.5 138.5,-0.5"/>
<text text-anchor="middle" x="165" y="-7.5" font-family="Helvetica,sans-Serif" font-size="10.00">GL/glu.h</text>
</g>
<!-- Node4&#45;&gt;Node7 -->
<g id="edge6" class="edge"><title>Node4&#45;&gt;Node7</title>
<path fill="none" stroke="midnightblue" d="M230.468,-56.324C218.414,-47.979 199.973,-35.2122 185.731,-25.3524"/>
<polygon fill="midnightblue" stroke="midnightblue" points="187.715,-22.469 177.501,-19.6545 183.731,-28.2243 187.715,-22.469"/>
</g>
<!-- Node8 -->
<g id="node8" class="node"><title>Node8</title>
<polygon fill="white" stroke="#bfbfbf" points="209.5,-0.5 209.5,-19.5 276.5,-19.5 276.5,-0.5 209.5,-0.5"/>
<text text-anchor="middle" x="243" y="-7.5" font-family="Helvetica,sans-Serif" font-size="10.00">SDL/SDL.h</text>
</g>
<!-- Node4&#45;&gt;Node8 -->
<g id="edge7" class="edge"><title>Node4&#45;&gt;Node8</title>
<path fill="none" stroke="midnightblue" d="M243,-56.083C243,-49.0059 243,-38.8611 243,-29.9865"/>
<polygon fill="midnightblue" stroke="midnightblue" points="246.5,-29.751 243,-19.7511 239.5,-29.7511 246.5,-29.751"/>
</g>
<!-- Node9 -->
<g id="node9" class="node"><title>Node9</title>
<polygon fill="white" stroke="#bfbfbf" points="294.5,-0.5 294.5,-19.5 335.5,-19.5 335.5,-0.5 294.5,-0.5"/>
<text text-anchor="middle" x="315" y="-7.5" font-family="Helvetica,sans-Serif" font-size="10.00">string</text>
</g>
<!-- Node4&#45;&gt;Node9 -->
<g id="edge8" class="edge"><title>Node4&#45;&gt;Node9</title>
<path fill="none" stroke="midnightblue" d="M254.568,-56.324C265.42,-48.1849 281.881,-35.8395 294.883,-26.0874"/>
<polygon fill="midnightblue" stroke="midnightblue" points="297.321,-28.6339 303.221,-19.8339 293.121,-23.0339 297.321,-28.6339"/>
</g>
<!-- Node10 -->
<g id="node10" class="node"><title>Node10</title>
<polygon fill="white" stroke="#bfbfbf" points="353.5,-0.5 353.5,-19.5 382.5,-19.5 382.5,-0.5 353.5,-0.5"/>
<text text-anchor="middle" x="368" y="-7.5" font-family="Helvetica,sans-Serif" font-size="10.00">list</text>
</g>
<!-- Node4&#45;&gt;Node10 -->
<g id="edge9" class="edge"><title>Node4&#45;&gt;Node10</title>
<path fill="none" stroke="midnightblue" d="M262.807,-56.4435C284.853,-46.9195 320.475,-31.5307 344.065,-21.3399"/>
<polygon fill="midnightblue" stroke="midnightblue" points="345.572,-24.5018 353.363,-17.323 342.795,-18.0758 345.572,-24.5018"/>
</g>
<!-- Node12 -->
<g id="node12" class="node"><title>Node12</title>
<g id="a_node12"><a xlink:href="$dc/dee/_c_g_l_vector2_d_8h.xhtml" xlink:title="CGLVector2D.h">
<polygon fill="white" stroke="black" points="338,-56.5 338,-75.5 424,-75.5 424,-56.5 338,-56.5"/>
<text text-anchor="middle" x="381" y="-63.5" font-family="Helvetica,sans-Serif" font-size="10.00">CGLVector2D.h</text>
</a>
</g>
</g>
<!-- Node11&#45;&gt;Node12 -->
<g id="edge11" class="edge"><title>Node11&#45;&gt;Node12</title>
<path fill="none" stroke="midnightblue" d="M371.816,-112.083C373.274,-104.927 375.371,-94.6353 377.193,-85.6911"/>
<polygon fill="midnightblue" stroke="midnightblue" points="380.651,-86.2485 379.217,-75.7511 373.792,-84.8512 380.651,-86.2485"/>
</g>
<!-- Node13 -->
<g id="node13" class="node"><title>Node13</title>
<polygon fill="white" stroke="#bfbfbf" points="400,-0.5 400,-19.5 444,-19.5 444,-0.5 400,-0.5"/>
<text text-anchor="middle" x="422" y="-7.5" font-family="Helvetica,sans-Serif" font-size="10.00">cmath</text>
</g>
<!-- Node12&#45;&gt;Node13 -->
<g id="edge12" class="edge"><title>Node12&#45;&gt;Node13</title>
<path fill="none" stroke="midnightblue" d="M387.77,-56.083C393.562,-48.4554 402.058,-37.2645 409.138,-27.9408"/>
<polygon fill="midnightblue" stroke="midnightblue" points="412.096,-29.8321 415.356,-19.7511 406.521,-25.5991 412.096,-29.8321"/>
</g>
</g>
</svg>
