<?xml version="1.0" encoding="UTF-8" standalone="no"?>
<!DOCTYPE svg PUBLIC "-//W3C//DTD SVG 1.1//EN"
 "http://www.w3.org/Graphics/SVG/1.1/DTD/svg11.dtd">
<!-- Generated by graphviz version 2.36.0 (20140111.2315)
 -->
<!-- Title: CGLVector3D Pages: 1 -->
<svg width="432pt" height="680pt"
 viewBox="0.00 0.00 432.00 680.00" xmlns="http://www.w3.org/2000/svg" xmlns:xlink="http://www.w3.org/1999/xlink">
<g id="graph0" class="graph" transform="scale(1 1) rotate(0) translate(4 676)">
<title>CGLVector3D</title>
<polygon fill="white" stroke="none" points="-4,4 -4,-676 428,-676 428,4 -4,4"/>
<!-- Node1 -->
<g id="node1" class="node"><title>Node1</title>
<polygon fill="#bfbfbf" stroke="black" points="161.5,-355 161.5,-467 260.5,-467 260.5,-355 161.5,-355"/>
<text text-anchor="middle" x="211" y="-455" font-family="Helvetica,sans-Serif" font-size="10.00">CGLVector3D</text>
<polyline fill="none" stroke="black" points="161.5,-448 260.5,-448 "/>
<text text-anchor="start" x="169.5" y="-436" font-family="Helvetica,sans-Serif" font-size="10.00"># z</text>
<polyline fill="none" stroke="black" points="161.5,-429 260.5,-429 "/>
<text text-anchor="start" x="169.5" y="-417" font-family="Helvetica,sans-Serif" font-size="10.00">+ CGLVector3D()</text>
<text text-anchor="start" x="169.5" y="-406" font-family="Helvetica,sans-Serif" font-size="10.00">+ ~CGLVector3D()</text>
<text text-anchor="start" x="169.5" y="-395" font-family="Helvetica,sans-Serif" font-size="10.00">+ isEqualTo()</text>
<text text-anchor="start" x="169.5" y="-384" font-family="Helvetica,sans-Serif" font-size="10.00">+ getZ()</text>
<text text-anchor="start" x="169.5" y="-373" font-family="Helvetica,sans-Serif" font-size="10.00">+ set()</text>
<text text-anchor="start" x="169.5" y="-362" font-family="Helvetica,sans-Serif" font-size="10.00">+ setZ()</text>
</g>
<!-- Node3 -->
<g id="node3" class="node"><title>Node3</title>
<g id="a_node3"><a xlink:href="../../de/d31/class_c_g_l_position.xhtml" target="_top" xlink:title="{CGLPosition\n|# speed\l# accel\l|+ CGLPosition()\l+ ~CGLPosition()\l+ drawObject()\l+ setSpeed()\l+ setAccel()\l}">
<polygon fill="white" stroke="black" points="-0.5,-205 -0.5,-317 92.5,-317 92.5,-205 -0.5,-205"/>
<text text-anchor="middle" x="46" y="-305" font-family="Helvetica,sans-Serif" font-size="10.00">CGLPosition</text>
<polyline fill="none" stroke="black" points="-0.5,-298 92.5,-298 "/>
<text text-anchor="start" x="7.5" y="-286" font-family="Helvetica,sans-Serif" font-size="10.00"># speed</text>
<text text-anchor="start" x="7.5" y="-275" font-family="Helvetica,sans-Serif" font-size="10.00"># accel</text>
<polyline fill="none" stroke="black" points="-0.5,-268 92.5,-268 "/>
<text text-anchor="start" x="7.5" y="-256" font-family="Helvetica,sans-Serif" font-size="10.00">+ CGLPosition()</text>
<text text-anchor="start" x="7.5" y="-245" font-family="Helvetica,sans-Serif" font-size="10.00">+ ~CGLPosition()</text>
<text text-anchor="start" x="7.5" y="-234" font-family="Helvetica,sans-Serif" font-size="10.00">+ drawObject()</text>
<text text-anchor="start" x="7.5" y="-223" font-family="Helvetica,sans-Serif" font-size="10.00">+ setSpeed()</text>
<text text-anchor="start" x="7.5" y="-212" font-family="Helvetica,sans-Serif" font-size="10.00">+ setAccel()</text>
</a>
</g>
</g>
<!-- Node1&#45;&gt;Node3 -->
<g id="edge2" class="edge"><title>Node1&#45;&gt;Node3</title>
<path fill="none" stroke="midnightblue" d="M153.594,-363.788C136.38,-349.454 117.657,-333.377 101,-318 98.2965,-315.504 95.5515,-312.912 92.8038,-310.271"/>
<polygon fill="none" stroke="midnightblue" points="151.45,-366.557 161.383,-370.242 155.916,-361.167 151.45,-366.557"/>
</g>
<!-- Node4 -->
<g id="node4" class="node"><title>Node4</title>
<g id="a_node4"><a xlink:href="../../d4/dd5/class_c_g_l_rotation.xhtml" target="_top" xlink:title="{CGLRotation\n|# a\l|+ CGLRotation()\l+ ~CGLRotation()\l+ setA()\l+ getA()\l+ set()\l+ drawObject()\l}">
<polygon fill="white" stroke="black" points="110.5,-205 110.5,-317 205.5,-317 205.5,-205 110.5,-205"/>
<text text-anchor="middle" x="158" y="-305" font-family="Helvetica,sans-Serif" font-size="10.00">CGLRotation</text>
<polyline fill="none" stroke="black" points="110.5,-298 205.5,-298 "/>
<text text-anchor="start" x="118.5" y="-286" font-family="Helvetica,sans-Serif" font-size="10.00"># a</text>
<polyline fill="none" stroke="black" points="110.5,-279 205.5,-279 "/>
<text text-anchor="start" x="118.5" y="-267" font-family="Helvetica,sans-Serif" font-size="10.00">+ CGLRotation()</text>
<text text-anchor="start" x="118.5" y="-256" font-family="Helvetica,sans-Serif" font-size="10.00">+ ~CGLRotation()</text>
<text text-anchor="start" x="118.5" y="-245" font-family="Helvetica,sans-Serif" font-size="10.00">+ setA()</text>
<text text-anchor="start" x="118.5" y="-234" font-family="Helvetica,sans-Serif" font-size="10.00">+ getA()</text>
<text text-anchor="start" x="118.5" y="-223" font-family="Helvetica,sans-Serif" font-size="10.00">+ set()</text>
<text text-anchor="start" x="118.5" y="-212" font-family="Helvetica,sans-Serif" font-size="10.00">+ drawObject()</text>
</a>
</g>
</g>
<!-- Node1&#45;&gt;Node4 -->
<g id="edge3" class="edge"><title>Node1&#45;&gt;Node4</title>
<path fill="none" stroke="midnightblue" d="M187.806,-345.232C184.453,-335.869 181.029,-326.307 177.752,-317.156"/>
<polygon fill="none" stroke="midnightblue" points="184.598,-346.656 191.265,-354.89 191.188,-344.296 184.598,-346.656"/>
</g>
<!-- Node6 -->
<g id="node6" class="node"><title>Node6</title>
<g id="a_node6"><a xlink:href="../../dd/dd7/class_c_g_l_scale.xhtml" target="_top" xlink:title="{CGLScale\n||+ CGLScale()\l+ ~CGLScale()\l+ drawObject()\l}">
<polygon fill="white" stroke="black" points="223.5,-221.5 223.5,-300.5 306.5,-300.5 306.5,-221.5 223.5,-221.5"/>
<text text-anchor="middle" x="265" y="-288.5" font-family="Helvetica,sans-Serif" font-size="10.00">CGLScale</text>
<polyline fill="none" stroke="black" points="223.5,-281.5 306.5,-281.5 "/>
<text text-anchor="middle" x="265" y="-269.5" font-family="Helvetica,sans-Serif" font-size="10.00"> </text>
<polyline fill="none" stroke="black" points="223.5,-262.5 306.5,-262.5 "/>
<text text-anchor="start" x="231.5" y="-250.5" font-family="Helvetica,sans-Serif" font-size="10.00">+ CGLScale()</text>
<text text-anchor="start" x="231.5" y="-239.5" font-family="Helvetica,sans-Serif" font-size="10.00">+ ~CGLScale()</text>
<text text-anchor="start" x="231.5" y="-228.5" font-family="Helvetica,sans-Serif" font-size="10.00">+ drawObject()</text>
</a>
</g>
</g>
<!-- Node1&#45;&gt;Node6 -->
<g id="edge5" class="edge"><title>Node1&#45;&gt;Node6</title>
<path fill="none" stroke="midnightblue" d="M234.553,-345.449C240.141,-330.132 245.93,-314.267 250.94,-300.535"/>
<polygon fill="none" stroke="midnightblue" points="231.247,-344.296 231.108,-354.89 237.823,-346.696 231.247,-344.296"/>
</g>
<!-- Node7 -->
<g id="node7" class="node"><title>Node7</title>
<g id="a_node7"><a xlink:href="../../db/d79/class_c_g_l_vector4_d.xhtml" target="_top" xlink:title="{CGLVector4D\n|# w\l|+ CGLVector4D()\l+ ~CGLVector4D()\l+ getW()\l+ setW()\l+ set()\l}">
<polygon fill="white" stroke="black" points="324.5,-210.5 324.5,-311.5 423.5,-311.5 423.5,-210.5 324.5,-210.5"/>
<text text-anchor="middle" x="374" y="-299.5" font-family="Helvetica,sans-Serif" font-size="10.00">CGLVector4D</text>
<polyline fill="none" stroke="black" points="324.5,-292.5 423.5,-292.5 "/>
<text text-anchor="start" x="332.5" y="-280.5" font-family="Helvetica,sans-Serif" font-size="10.00"># w</text>
<polyline fill="none" stroke="black" points="324.5,-273.5 423.5,-273.5 "/>
<text text-anchor="start" x="332.5" y="-261.5" font-family="Helvetica,sans-Serif" font-size="10.00">+ CGLVector4D()</text>
<text text-anchor="start" x="332.5" y="-250.5" font-family="Helvetica,sans-Serif" font-size="10.00">+ ~CGLVector4D()</text>
<text text-anchor="start" x="332.5" y="-239.5" font-family="Helvetica,sans-Serif" font-size="10.00">+ getW()</text>
<text text-anchor="start" x="332.5" y="-228.5" font-family="Helvetica,sans-Serif" font-size="10.00">+ setW()</text>
<text text-anchor="start" x="332.5" y="-217.5" font-family="Helvetica,sans-Serif" font-size="10.00">+ set()</text>
</a>
</g>
</g>
<!-- Node1&#45;&gt;Node7 -->
<g id="edge6" class="edge"><title>Node1&#45;&gt;Node7</title>
<path fill="none" stroke="midnightblue" d="M268.373,-359.889C283.623,-346.394 300.017,-331.73 315,-318 318.019,-315.233 321.112,-312.374 324.222,-309.48"/>
<polygon fill="none" stroke="midnightblue" points="265.695,-357.584 260.516,-366.827 270.329,-362.831 265.695,-357.584"/>
</g>
<!-- Node2 -->
<g id="node2" class="node"><title>Node2</title>
<g id="a_node2"><a xlink:href="../../d8/d97/class_c_g_l_vector2_d.xhtml" target="_top" xlink:title="{CGLVector2D\n||+ CGLVector2D()\l+ ~CGLVector2D()\l+ getMaxX()\l+ getMaxY()\l+ getMinX()\l+ getMinY()\l+ getX()\l+ getY()\l+ isXMax()\l+ isYMax()\let 11 de plus...\l}">
<polygon fill="white" stroke="black" points="161.5,-504.5 161.5,-671.5 260.5,-671.5 260.5,-504.5 161.5,-504.5"/>
<text text-anchor="middle" x="211" y="-659.5" font-family="Helvetica,sans-Serif" font-size="10.00">CGLVector2D</text>
<polyline fill="none" stroke="black" points="161.5,-652.5 260.5,-652.5 "/>
<text text-anchor="middle" x="211" y="-640.5" font-family="Helvetica,sans-Serif" font-size="10.00"> </text>
<polyline fill="none" stroke="black" points="161.5,-633.5 260.5,-633.5 "/>
<text text-anchor="start" x="169.5" y="-621.5" font-family="Helvetica,sans-Serif" font-size="10.00">+ CGLVector2D()</text>
<text text-anchor="start" x="169.5" y="-610.5" font-family="Helvetica,sans-Serif" font-size="10.00">+ ~CGLVector2D()</text>
<text text-anchor="start" x="169.5" y="-599.5" font-family="Helvetica,sans-Serif" font-size="10.00">+ getMaxX()</text>
<text text-anchor="start" x="169.5" y="-588.5" font-family="Helvetica,sans-Serif" font-size="10.00">+ getMaxY()</text>
<text text-anchor="start" x="169.5" y="-577.5" font-family="Helvetica,sans-Serif" font-size="10.00">+ getMinX()</text>
<text text-anchor="start" x="169.5" y="-566.5" font-family="Helvetica,sans-Serif" font-size="10.00">+ getMinY()</text>
<text text-anchor="start" x="169.5" y="-555.5" font-family="Helvetica,sans-Serif" font-size="10.00">+ getX()</text>
<text text-anchor="start" x="169.5" y="-544.5" font-family="Helvetica,sans-Serif" font-size="10.00">+ getY()</text>
<text text-anchor="start" x="169.5" y="-533.5" font-family="Helvetica,sans-Serif" font-size="10.00">+ isXMax()</text>
<text text-anchor="start" x="169.5" y="-522.5" font-family="Helvetica,sans-Serif" font-size="10.00">+ isYMax()</text>
<text text-anchor="start" x="169.5" y="-511.5" font-family="Helvetica,sans-Serif" font-size="10.00">et 11 de plus...</text>
</a>
</g>
</g>
<!-- Node2&#45;&gt;Node1 -->
<g id="edge1" class="edge"><title>Node2&#45;&gt;Node1</title>
<path fill="none" stroke="midnightblue" d="M211,-494.345C211,-485.118 211,-475.968 211,-467.306"/>
<polygon fill="none" stroke="midnightblue" points="207.5,-494.368 211,-504.368 214.5,-494.368 207.5,-494.368"/>
</g>
<!-- Node5 -->
<g id="node5" class="node"><title>Node5</title>
<g id="a_node5"><a xlink:href="../../d4/d9e/class_c_g_l_rotation_speed.xhtml" target="_top" xlink:title="{CGLRotationSpeed\n|# speed\l|+ CGLRotationSpeed()\l+ ~CGLRotationSpeed()\l+ drawObject()\l}">
<polygon fill="white" stroke="black" points="97,-44.5 97,-123.5 219,-123.5 219,-44.5 97,-44.5"/>
<text text-anchor="middle" x="158" y="-111.5" font-family="Helvetica,sans-Serif" font-size="10.00">CGLRotationSpeed</text>
<polyline fill="none" stroke="black" points="97,-104.5 219,-104.5 "/>
<text text-anchor="start" x="105" y="-92.5" font-family="Helvetica,sans-Serif" font-size="10.00"># speed</text>
<polyline fill="none" stroke="black" points="97,-85.5 219,-85.5 "/>
<text text-anchor="start" x="105" y="-73.5" font-family="Helvetica,sans-Serif" font-size="10.00">+ CGLRotationSpeed()</text>
<text text-anchor="start" x="105" y="-62.5" font-family="Helvetica,sans-Serif" font-size="10.00">+ ~CGLRotationSpeed()</text>
<text text-anchor="start" x="105" y="-51.5" font-family="Helvetica,sans-Serif" font-size="10.00">+ drawObject()</text>
</a>
</g>
</g>
<!-- Node4&#45;&gt;Node5 -->
<g id="edge4" class="edge"><title>Node4&#45;&gt;Node5</title>
<path fill="none" stroke="midnightblue" d="M158,-194.564C158,-170.692 158,-144.477 158,-123.675"/>
<polygon fill="none" stroke="midnightblue" points="154.5,-194.629 158,-204.629 161.5,-194.629 154.5,-194.629"/>
</g>
<!-- Node8 -->
<g id="node8" class="node"><title>Node8</title>
<g id="a_node8"><a xlink:href="../../d7/dd6/class_c_g_l_color.xhtml" target="_top" xlink:title="{CGLColor\n||+ CGLColor()\l+ ~CGLColor()\l+ setR()\l+ setG()\l+ setB()\l+ setA()\l+ getR()\l+ getG()\l+ getB()\l+ getA()\l+ drawObject()\l}">
<polygon fill="white" stroke="black" points="333.5,-0.5 333.5,-167.5 414.5,-167.5 414.5,-0.5 333.5,-0.5"/>
<text text-anchor="middle" x="374" y="-155.5" font-family="Helvetica,sans-Serif" font-size="10.00">CGLColor</text>
<polyline fill="none" stroke="black" points="333.5,-148.5 414.5,-148.5 "/>
<text text-anchor="middle" x="374" y="-136.5" font-family="Helvetica,sans-Serif" font-size="10.00"> </text>
<polyline fill="none" stroke="black" points="333.5,-129.5 414.5,-129.5 "/>
<text text-anchor="start" x="341.5" y="-117.5" font-family="Helvetica,sans-Serif" font-size="10.00">+ CGLColor()</text>
<text text-anchor="start" x="341.5" y="-106.5" font-family="Helvetica,sans-Serif" font-size="10.00">+ ~CGLColor()</text>
<text text-anchor="start" x="341.5" y="-95.5" font-family="Helvetica,sans-Serif" font-size="10.00">+ setR()</text>
<text text-anchor="start" x="341.5" y="-84.5" font-family="Helvetica,sans-Serif" font-size="10.00">+ setG()</text>
<text text-anchor="start" x="341.5" y="-73.5" font-family="Helvetica,sans-Serif" font-size="10.00">+ setB()</text>
<text text-anchor="start" x="341.5" y="-62.5" font-family="Helvetica,sans-Serif" font-size="10.00">+ setA()</text>
<text text-anchor="start" x="341.5" y="-51.5" font-family="Helvetica,sans-Serif" font-size="10.00">+ getR()</text>
<text text-anchor="start" x="341.5" y="-40.5" font-family="Helvetica,sans-Serif" font-size="10.00">+ getG()</text>
<text text-anchor="start" x="341.5" y="-29.5" font-family="Helvetica,sans-Serif" font-size="10.00">+ getB()</text>
<text text-anchor="start" x="341.5" y="-18.5" font-family="Helvetica,sans-Serif" font-size="10.00">+ getA()</text>
<text text-anchor="start" x="341.5" y="-7.5" font-family="Helvetica,sans-Serif" font-size="10.00">+ drawObject()</text>
</a>
</g>
</g>
<!-- Node7&#45;&gt;Node8 -->
<g id="edge7" class="edge"><title>Node7&#45;&gt;Node8</title>
<path fill="none" stroke="midnightblue" d="M374,-200.069C374,-189.598 374,-178.539 374,-167.584"/>
<polygon fill="none" stroke="midnightblue" points="370.5,-200.32 374,-210.32 377.5,-200.32 370.5,-200.32"/>
</g>
</g>
</svg>
