<?xml version="1.0" encoding="UTF-8" standalone="no"?>
<!DOCTYPE svg PUBLIC "-//W3C//DTD SVG 1.1//EN"
 "http://www.w3.org/Graphics/SVG/1.1/DTD/svg11.dtd">
<!-- Generated by graphviz version 2.36.0 (20140111.2315)
 -->
<!-- Title: CGLVector3D Pages: 1 -->
<svg width="431pt" height="554pt"
 viewBox="0.00 0.00 431.00 554.00" xmlns="http://www.w3.org/2000/svg" xmlns:xlink="http://www.w3.org/1999/xlink">
<g id="graph0" class="graph" transform="scale(1 1) rotate(0) translate(4 550)">
<title>CGLVector3D</title>
<polygon fill="white" stroke="none" points="-4,4 -4,-550 427,-550 427,4 -4,4"/>
<!-- Node1 -->
<g id="node1" class="node"><title>Node1</title>
<polygon fill="#bfbfbf" stroke="black" points="161.5,-367 161.5,-545 260.5,-545 260.5,-367 161.5,-367"/>
<text text-anchor="middle" x="211" y="-533" font-family="Helvetica,sans-Serif" font-size="10.00">CGLVector3D</text>
<polyline fill="none" stroke="black" points="161.5,-526 260.5,-526 "/>
<text text-anchor="start" x="169.5" y="-514" font-family="Helvetica,sans-Serif" font-size="10.00"># x</text>
<text text-anchor="start" x="169.5" y="-503" font-family="Helvetica,sans-Serif" font-size="10.00"># y</text>
<text text-anchor="start" x="169.5" y="-492" font-family="Helvetica,sans-Serif" font-size="10.00"># z</text>
<polyline fill="none" stroke="black" points="161.5,-485 260.5,-485 "/>
<text text-anchor="start" x="169.5" y="-473" font-family="Helvetica,sans-Serif" font-size="10.00">+ CGLVector3D()</text>
<text text-anchor="start" x="169.5" y="-462" font-family="Helvetica,sans-Serif" font-size="10.00">+ ~CGLVector3D()</text>
<text text-anchor="start" x="169.5" y="-451" font-family="Helvetica,sans-Serif" font-size="10.00">+ isEqualTo()</text>
<text text-anchor="start" x="169.5" y="-440" font-family="Helvetica,sans-Serif" font-size="10.00">+ getX()</text>
<text text-anchor="start" x="169.5" y="-429" font-family="Helvetica,sans-Serif" font-size="10.00">+ getY()</text>
<text text-anchor="start" x="169.5" y="-418" font-family="Helvetica,sans-Serif" font-size="10.00">+ getZ()</text>
<text text-anchor="start" x="169.5" y="-407" font-family="Helvetica,sans-Serif" font-size="10.00">+ set()</text>
<text text-anchor="start" x="169.5" y="-396" font-family="Helvetica,sans-Serif" font-size="10.00">+ setX()</text>
<text text-anchor="start" x="169.5" y="-385" font-family="Helvetica,sans-Serif" font-size="10.00">+ setY()</text>
<text text-anchor="start" x="169.5" y="-374" font-family="Helvetica,sans-Serif" font-size="10.00">+ setZ()</text>
</g>
<!-- Node2 -->
<g id="node2" class="node"><title>Node2</title>
<g id="a_node2"><a xlink:href="../../de/d31/class_c_g_l_position.xhtml" target="_top" xlink:title="{CGLPosition\n||+ CGLPosition()\l+ ~CGLPosition()\l+ drawObject()\l}">
<polygon fill="white" stroke="black" points="-0.5,-233.5 -0.5,-312.5 92.5,-312.5 92.5,-233.5 -0.5,-233.5"/>
<text text-anchor="middle" x="46" y="-300.5" font-family="Helvetica,sans-Serif" font-size="10.00">CGLPosition</text>
<polyline fill="none" stroke="black" points="-0.5,-293.5 92.5,-293.5 "/>
<text text-anchor="middle" x="46" y="-281.5" font-family="Helvetica,sans-Serif" font-size="10.00"> </text>
<polyline fill="none" stroke="black" points="-0.5,-274.5 92.5,-274.5 "/>
<text text-anchor="start" x="7.5" y="-262.5" font-family="Helvetica,sans-Serif" font-size="10.00">+ CGLPosition()</text>
<text text-anchor="start" x="7.5" y="-251.5" font-family="Helvetica,sans-Serif" font-size="10.00">+ ~CGLPosition()</text>
<text text-anchor="start" x="7.5" y="-240.5" font-family="Helvetica,sans-Serif" font-size="10.00">+ drawObject()</text>
</a>
</g>
</g>
<!-- Node1&#45;&gt;Node2 -->
<g id="edge1" class="edge"><title>Node1&#45;&gt;Node2</title>
<path fill="none" stroke="midnightblue" d="M154.732,-393.275C130.406,-366.591 102.684,-336.181 81.3207,-312.746"/>
<polygon fill="none" stroke="midnightblue" points="152.171,-395.662 161.495,-400.694 157.344,-390.946 152.171,-395.662"/>
</g>
<!-- Node3 -->
<g id="node3" class="node"><title>Node3</title>
<g id="a_node3"><a xlink:href="../../d4/dd5/class_c_g_l_rotation.xhtml" target="_top" xlink:title="{CGLRotation\n||+ CGLRotation()\l+ ~CGLRotation()\l+ setA()\l+ getA()\l+ set()\l+ drawObject()\l}">
<polygon fill="white" stroke="black" points="110.5,-217 110.5,-329 205.5,-329 205.5,-217 110.5,-217"/>
<text text-anchor="middle" x="158" y="-317" font-family="Helvetica,sans-Serif" font-size="10.00">CGLRotation</text>
<polyline fill="none" stroke="black" points="110.5,-310 205.5,-310 "/>
<text text-anchor="middle" x="158" y="-298" font-family="Helvetica,sans-Serif" font-size="10.00"> </text>
<polyline fill="none" stroke="black" points="110.5,-291 205.5,-291 "/>
<text text-anchor="start" x="118.5" y="-279" font-family="Helvetica,sans-Serif" font-size="10.00">+ CGLRotation()</text>
<text text-anchor="start" x="118.5" y="-268" font-family="Helvetica,sans-Serif" font-size="10.00">+ ~CGLRotation()</text>
<text text-anchor="start" x="118.5" y="-257" font-family="Helvetica,sans-Serif" font-size="10.00">+ setA()</text>
<text text-anchor="start" x="118.5" y="-246" font-family="Helvetica,sans-Serif" font-size="10.00">+ getA()</text>
<text text-anchor="start" x="118.5" y="-235" font-family="Helvetica,sans-Serif" font-size="10.00">+ set()</text>
<text text-anchor="start" x="118.5" y="-224" font-family="Helvetica,sans-Serif" font-size="10.00">+ drawObject()</text>
</a>
</g>
</g>
<!-- Node1&#45;&gt;Node3 -->
<g id="edge2" class="edge"><title>Node1&#45;&gt;Node3</title>
<path fill="none" stroke="midnightblue" d="M182.376,-357.248C179.56,-347.63 176.776,-338.122 174.153,-329.163"/>
<polygon fill="none" stroke="midnightblue" points="179.029,-358.273 185.199,-366.886 185.747,-356.305 179.029,-358.273"/>
</g>
<!-- Node4 -->
<g id="node4" class="node"><title>Node4</title>
<g id="a_node4"><a xlink:href="../../dd/dd7/class_c_g_l_scale.xhtml" target="_top" xlink:title="{CGLScale\n||+ CGLScale()\l+ ~CGLScale()\l+ drawObject()\l}">
<polygon fill="white" stroke="black" points="223.5,-233.5 223.5,-312.5 306.5,-312.5 306.5,-233.5 223.5,-233.5"/>
<text text-anchor="middle" x="265" y="-300.5" font-family="Helvetica,sans-Serif" font-size="10.00">CGLScale</text>
<polyline fill="none" stroke="black" points="223.5,-293.5 306.5,-293.5 "/>
<text text-anchor="middle" x="265" y="-281.5" font-family="Helvetica,sans-Serif" font-size="10.00"> </text>
<polyline fill="none" stroke="black" points="223.5,-274.5 306.5,-274.5 "/>
<text text-anchor="start" x="231.5" y="-262.5" font-family="Helvetica,sans-Serif" font-size="10.00">+ CGLScale()</text>
<text text-anchor="start" x="231.5" y="-251.5" font-family="Helvetica,sans-Serif" font-size="10.00">+ ~CGLScale()</text>
<text text-anchor="start" x="231.5" y="-240.5" font-family="Helvetica,sans-Serif" font-size="10.00">+ drawObject()</text>
</a>
</g>
</g>
<!-- Node1&#45;&gt;Node4 -->
<g id="edge3" class="edge"><title>Node1&#45;&gt;Node4</title>
<path fill="none" stroke="midnightblue" d="M240.219,-357.063C244.915,-341.322 249.521,-325.883 253.464,-312.668"/>
<polygon fill="none" stroke="midnightblue" points="236.793,-356.303 237.288,-366.886 243.501,-358.304 236.793,-356.303"/>
</g>
<!-- Node5 -->
<g id="node5" class="node"><title>Node5</title>
<g id="a_node5"><a xlink:href="../../db/d79/class_c_g_l_vector4_d.xhtml" target="_top" xlink:title="{CGLVector4D\n|# w\l|+ CGLVector4D()\l+ ~CGLVector4D()\l+ getW()\l+ setW()\l+ set()\l}">
<polygon fill="white" stroke="black" points="324.5,-222.5 324.5,-323.5 423.5,-323.5 423.5,-222.5 324.5,-222.5"/>
<text text-anchor="middle" x="374" y="-311.5" font-family="Helvetica,sans-Serif" font-size="10.00">CGLVector4D</text>
<polyline fill="none" stroke="black" points="324.5,-304.5 423.5,-304.5 "/>
<text text-anchor="start" x="332.5" y="-292.5" font-family="Helvetica,sans-Serif" font-size="10.00"># w</text>
<polyline fill="none" stroke="black" points="324.5,-285.5 423.5,-285.5 "/>
<text text-anchor="start" x="332.5" y="-273.5" font-family="Helvetica,sans-Serif" font-size="10.00">+ CGLVector4D()</text>
<text text-anchor="start" x="332.5" y="-262.5" font-family="Helvetica,sans-Serif" font-size="10.00">+ ~CGLVector4D()</text>
<text text-anchor="start" x="332.5" y="-251.5" font-family="Helvetica,sans-Serif" font-size="10.00">+ getW()</text>
<text text-anchor="start" x="332.5" y="-240.5" font-family="Helvetica,sans-Serif" font-size="10.00">+ setW()</text>
<text text-anchor="start" x="332.5" y="-229.5" font-family="Helvetica,sans-Serif" font-size="10.00">+ set()</text>
</a>
</g>
</g>
<!-- Node1&#45;&gt;Node5 -->
<g id="edge4" class="edge"><title>Node1&#45;&gt;Node5</title>
<path fill="none" stroke="midnightblue" d="M267.541,-392.216C287.722,-369.805 310.165,-344.885 329.22,-323.725"/>
<polygon fill="none" stroke="midnightblue" points="264.882,-389.937 260.791,-399.711 270.084,-394.622 264.882,-389.937"/>
</g>
<!-- Node6 -->
<g id="node6" class="node"><title>Node6</title>
<g id="a_node6"><a xlink:href="../../d7/dd6/class_c_g_l_color.xhtml" target="_top" xlink:title="{CGLColor\n||+ CGLColor()\l+ ~CGLColor()\l+ set()\l+ setR()\l+ setG()\l+ setB()\l+ setA()\l+ getR()\l+ getG()\l+ getB()\l+ getA()\l+ drawObject()\l}">
<polygon fill="white" stroke="black" points="333.5,-1 333.5,-179 414.5,-179 414.5,-1 333.5,-1"/>
<text text-anchor="middle" x="374" y="-167" font-family="Helvetica,sans-Serif" font-size="10.00">CGLColor</text>
<polyline fill="none" stroke="black" points="333.5,-160 414.5,-160 "/>
<text text-anchor="middle" x="374" y="-148" font-family="Helvetica,sans-Serif" font-size="10.00"> </text>
<polyline fill="none" stroke="black" points="333.5,-141 414.5,-141 "/>
<text text-anchor="start" x="341.5" y="-129" font-family="Helvetica,sans-Serif" font-size="10.00">+ CGLColor()</text>
<text text-anchor="start" x="341.5" y="-118" font-family="Helvetica,sans-Serif" font-size="10.00">+ ~CGLColor()</text>
<text text-anchor="start" x="341.5" y="-107" font-family="Helvetica,sans-Serif" font-size="10.00">+ set()</text>
<text text-anchor="start" x="341.5" y="-96" font-family="Helvetica,sans-Serif" font-size="10.00">+ setR()</text>
<text text-anchor="start" x="341.5" y="-85" font-family="Helvetica,sans-Serif" font-size="10.00">+ setG()</text>
<text text-anchor="start" x="341.5" y="-74" font-family="Helvetica,sans-Serif" font-size="10.00">+ setB()</text>
<text text-anchor="start" x="341.5" y="-63" font-family="Helvetica,sans-Serif" font-size="10.00">+ setA()</text>
<text text-anchor="start" x="341.5" y="-52" font-family="Helvetica,sans-Serif" font-size="10.00">+ getR()</text>
<text text-anchor="start" x="341.5" y="-41" font-family="Helvetica,sans-Serif" font-size="10.00">+ getG()</text>
<text text-anchor="start" x="341.5" y="-30" font-family="Helvetica,sans-Serif" font-size="10.00">+ getB()</text>
<text text-anchor="start" x="341.5" y="-19" font-family="Helvetica,sans-Serif" font-size="10.00">+ getA()</text>
<text text-anchor="start" x="341.5" y="-8" font-family="Helvetica,sans-Serif" font-size="10.00">+ drawObject()</text>
</a>
</g>
</g>
<!-- Node5&#45;&gt;Node6 -->
<g id="edge5" class="edge"><title>Node5&#45;&gt;Node6</title>
<path fill="none" stroke="midnightblue" d="M374,-211.843C374,-201.397 374,-190.341 374,-179.328"/>
<polygon fill="none" stroke="midnightblue" points="370.5,-212.062 374,-222.062 377.5,-212.062 370.5,-212.062"/>
</g>
</g>
</svg>
