<?xml version="1.0" encoding="UTF-8" standalone="no"?>
<!DOCTYPE svg PUBLIC "-//W3C//DTD SVG 1.1//EN"
 "http://www.w3.org/Graphics/SVG/1.1/DTD/svg11.dtd">
<!-- Generated by graphviz version 2.36.0 (20140111.2315)
 -->
<!-- Title: CGLTriangle Pages: 1 -->
<svg width="216pt" height="622pt"
 viewBox="0.00 0.00 216.00 622.00" xmlns="http://www.w3.org/2000/svg" xmlns:xlink="http://www.w3.org/1999/xlink">
<g id="graph0" class="graph" transform="scale(1 1) rotate(0) translate(4 618)">
<title>CGLTriangle</title>
<polygon fill="white" stroke="none" points="-4,4 -4,-618 212,-618 212,4 -4,4"/>
<!-- Node1 -->
<g id="node1" class="node"><title>Node1</title>
<polygon fill="#bfbfbf" stroke="black" points="86,-0.5 86,-79.5 178,-79.5 178,-0.5 86,-0.5"/>
<text text-anchor="middle" x="132" y="-67.5" font-family="Helvetica,sans-Serif" font-size="10.00">CGLTriangle</text>
<polyline fill="none" stroke="black" points="86,-60.5 178,-60.5 "/>
<text text-anchor="middle" x="132" y="-48.5" font-family="Helvetica,sans-Serif" font-size="10.00"> </text>
<polyline fill="none" stroke="black" points="86,-41.5 178,-41.5 "/>
<text text-anchor="start" x="94" y="-29.5" font-family="Helvetica,sans-Serif" font-size="10.00">+ CGLTriangle()</text>
<text text-anchor="start" x="94" y="-18.5" font-family="Helvetica,sans-Serif" font-size="10.00">+ ~CGLTriangle()</text>
<text text-anchor="start" x="94" y="-7.5" font-family="Helvetica,sans-Serif" font-size="10.00">+ drawObject()</text>
</g>
<!-- Node2 -->
<g id="node2" class="node"><title>Node2</title>
<g id="a_node2"><a xlink:href="$d7/d2f/class_c_g_l_item.xhtml" xlink:title="{CGLItem\n||+ CGLItem()\l+ ~CGLItem()\l}">
<polygon fill="white" stroke="black" points="14.5,-206 14.5,-274 91.5,-274 91.5,-206 14.5,-206"/>
<text text-anchor="middle" x="53" y="-262" font-family="Helvetica,sans-Serif" font-size="10.00">CGLItem</text>
<polyline fill="none" stroke="black" points="14.5,-255 91.5,-255 "/>
<text text-anchor="middle" x="53" y="-243" font-family="Helvetica,sans-Serif" font-size="10.00"> </text>
<polyline fill="none" stroke="black" points="14.5,-236 91.5,-236 "/>
<text text-anchor="start" x="22.5" y="-224" font-family="Helvetica,sans-Serif" font-size="10.00">+ CGLItem()</text>
<text text-anchor="start" x="22.5" y="-213" font-family="Helvetica,sans-Serif" font-size="10.00">+ ~CGLItem()</text>
</a>
</g>
</g>
<!-- Node2&#45;&gt;Node1 -->
<g id="edge1" class="edge"><title>Node2&#45;&gt;Node1</title>
<path fill="none" stroke="midnightblue" d="M69.9673,-196.474C83.7976,-161.811 103.165,-113.269 116.564,-79.6869"/>
<polygon fill="none" stroke="midnightblue" points="66.6779,-195.274 66.2228,-205.859 73.1795,-197.868 66.6779,-195.274"/>
</g>
<!-- Node3 -->
<g id="node3" class="node"><title>Node3</title>
<g id="a_node3"><a xlink:href="$d2/d76/class_c_g_l_object.xhtml" xlink:title="{CGLObject\n|# objectType\l# name\l# matrixSaved\l# children\l# iterCurrentObject\l|+ addObject()\l+ setName()\l+ getName()\l+ getCurrentObject()\l+ isChild()\l+ draw()\l+ drawObject()\l+ drawChildren()\l+ drawCenter()\l+ CGLObject()\l+ ~CGLObject()\l+ init()\l}">
<polygon fill="white" stroke="black" points="0,-391 0,-613 106,-613 106,-391 0,-391"/>
<text text-anchor="middle" x="53" y="-601" font-family="Helvetica,sans-Serif" font-size="10.00">CGLObject</text>
<polyline fill="none" stroke="black" points="0,-594 106,-594 "/>
<text text-anchor="start" x="8" y="-582" font-family="Helvetica,sans-Serif" font-size="10.00"># objectType</text>
<text text-anchor="start" x="8" y="-571" font-family="Helvetica,sans-Serif" font-size="10.00"># name</text>
<text text-anchor="start" x="8" y="-560" font-family="Helvetica,sans-Serif" font-size="10.00"># matrixSaved</text>
<text text-anchor="start" x="8" y="-549" font-family="Helvetica,sans-Serif" font-size="10.00"># children</text>
<text text-anchor="start" x="8" y="-538" font-family="Helvetica,sans-Serif" font-size="10.00"># iterCurrentObject</text>
<polyline fill="none" stroke="black" points="0,-531 106,-531 "/>
<text text-anchor="start" x="8" y="-519" font-family="Helvetica,sans-Serif" font-size="10.00">+ addObject()</text>
<text text-anchor="start" x="8" y="-508" font-family="Helvetica,sans-Serif" font-size="10.00">+ setName()</text>
<text text-anchor="start" x="8" y="-497" font-family="Helvetica,sans-Serif" font-size="10.00">+ getName()</text>
<text text-anchor="start" x="8" y="-486" font-family="Helvetica,sans-Serif" font-size="10.00">+ getCurrentObject()</text>
<text text-anchor="start" x="8" y="-475" font-family="Helvetica,sans-Serif" font-size="10.00">+ isChild()</text>
<text text-anchor="start" x="8" y="-464" font-family="Helvetica,sans-Serif" font-size="10.00">+ draw()</text>
<text text-anchor="start" x="8" y="-453" font-family="Helvetica,sans-Serif" font-size="10.00">+ drawObject()</text>
<text text-anchor="start" x="8" y="-442" font-family="Helvetica,sans-Serif" font-size="10.00">+ drawChildren()</text>
<text text-anchor="start" x="8" y="-431" font-family="Helvetica,sans-Serif" font-size="10.00">+ drawCenter()</text>
<text text-anchor="start" x="8" y="-420" font-family="Helvetica,sans-Serif" font-size="10.00">+ CGLObject()</text>
<text text-anchor="start" x="8" y="-409" font-family="Helvetica,sans-Serif" font-size="10.00">+ ~CGLObject()</text>
<text text-anchor="start" x="8" y="-398" font-family="Helvetica,sans-Serif" font-size="10.00">+ init()</text>
</a>
</g>
</g>
<!-- Node3&#45;&gt;Node2 -->
<g id="edge2" class="edge"><title>Node3&#45;&gt;Node2</title>
<path fill="none" stroke="midnightblue" d="M53,-380.335C53,-341.399 53,-301.34 53,-274.226"/>
<polygon fill="none" stroke="midnightblue" points="49.5001,-380.737 53,-390.737 56.5001,-380.737 49.5001,-380.737"/>
</g>
<!-- Node3&#45;&gt;Node3 -->
<g id="edge3" class="edge"><title>Node3&#45;&gt;Node3</title>
<path fill="none" stroke="#404040" d="M106.111,-525.124C116.021,-522.276 123,-514.568 123,-502 123,-494.734 120.667,-489.092 116.784,-485.075"/>
<polygon fill="none" stroke="#404040" points="116.488,-484.903 109.291,-485.349 106.111,-478.876 113.309,-478.431 116.488,-484.903"/>
<text text-anchor="middle" x="155" y="-510.5" font-family="Helvetica,sans-Serif" font-size="10.00"> +garbage</text>
<text text-anchor="middle" x="155" y="-499.5" font-family="Helvetica,sans-Serif" font-size="10.00">#currentObject</text>
<text text-anchor="middle" x="155" y="-488.5" font-family="Helvetica,sans-Serif" font-size="10.00">#parentObject</text>
</g>
<!-- Node4 -->
<g id="node4" class="node"><title>Node4</title>
<g id="a_node4"><a xlink:href="$d8/d97/class_c_g_l_vector2_d.xhtml" xlink:title="{CGLVector2D\n|# maxX\l# maxY\l# minX\l# minY\l# x\l# y\l|+ CGLVector2D()\l+ ~CGLVector2D()\l+ getMaxX()\l+ getMaxY()\l+ getMinX()\l+ getMinY()\l+ getX()\l+ getY()\l+ isXMax()\l+ isYMax()\let 10 de plus...\l}">
<polygon fill="white" stroke="black" points="109.5,-129 109.5,-351 208.5,-351 208.5,-129 109.5,-129"/>
<text text-anchor="middle" x="159" y="-339" font-family="Helvetica,sans-Serif" font-size="10.00">CGLVector2D</text>
<polyline fill="none" stroke="black" points="109.5,-332 208.5,-332 "/>
<text text-anchor="start" x="117.5" y="-320" font-family="Helvetica,sans-Serif" font-size="10.00"># maxX</text>
<text text-anchor="start" x="117.5" y="-309" font-family="Helvetica,sans-Serif" font-size="10.00"># maxY</text>
<text text-anchor="start" x="117.5" y="-298" font-family="Helvetica,sans-Serif" font-size="10.00"># minX</text>
<text text-anchor="start" x="117.5" y="-287" font-family="Helvetica,sans-Serif" font-size="10.00"># minY</text>
<text text-anchor="start" x="117.5" y="-276" font-family="Helvetica,sans-Serif" font-size="10.00"># x</text>
<text text-anchor="start" x="117.5" y="-265" font-family="Helvetica,sans-Serif" font-size="10.00"># y</text>
<polyline fill="none" stroke="black" points="109.5,-258 208.5,-258 "/>
<text text-anchor="start" x="117.5" y="-246" font-family="Helvetica,sans-Serif" font-size="10.00">+ CGLVector2D()</text>
<text text-anchor="start" x="117.5" y="-235" font-family="Helvetica,sans-Serif" font-size="10.00">+ ~CGLVector2D()</text>
<text text-anchor="start" x="117.5" y="-224" font-family="Helvetica,sans-Serif" font-size="10.00">+ getMaxX()</text>
<text text-anchor="start" x="117.5" y="-213" font-family="Helvetica,sans-Serif" font-size="10.00">+ getMaxY()</text>
<text text-anchor="start" x="117.5" y="-202" font-family="Helvetica,sans-Serif" font-size="10.00">+ getMinX()</text>
<text text-anchor="start" x="117.5" y="-191" font-family="Helvetica,sans-Serif" font-size="10.00">+ getMinY()</text>
<text text-anchor="start" x="117.5" y="-180" font-family="Helvetica,sans-Serif" font-size="10.00">+ getX()</text>
<text text-anchor="start" x="117.5" y="-169" font-family="Helvetica,sans-Serif" font-size="10.00">+ getY()</text>
<text text-anchor="start" x="117.5" y="-158" font-family="Helvetica,sans-Serif" font-size="10.00">+ isXMax()</text>
<text text-anchor="start" x="117.5" y="-147" font-family="Helvetica,sans-Serif" font-size="10.00">+ isYMax()</text>
<text text-anchor="start" x="117.5" y="-136" font-family="Helvetica,sans-Serif" font-size="10.00">et 10 de plus...</text>
</a>
</g>
</g>
<!-- Node4&#45;&gt;Node1 -->
<g id="edge4" class="edge"><title>Node4&#45;&gt;Node1</title>
<path fill="none" stroke="#404040" d="M144,-128.999C142.235,-116.056 140.505,-103.367 138.932,-91.8319"/>
<polygon fill="none" stroke="#404040" points="138.914,-91.7003 134.14,-86.2958 137.292,-79.8103 142.066,-85.2148 138.914,-91.7003"/>
<text text-anchor="middle" x="157.5" y="-101.5" font-family="Helvetica,sans-Serif" font-size="10.00"> #points</text>
</g>
</g>
</svg>
