<?xml version="1.0" encoding="UTF-8" standalone="no"?>
<!DOCTYPE svg PUBLIC "-//W3C//DTD SVG 1.1//EN"
 "http://www.w3.org/Graphics/SVG/1.1/DTD/svg11.dtd">
<!-- Generated by graphviz version 2.36.0 (20140111.2315)
 -->
<!-- Title: CGLTriangle Pages: 1 -->
<svg width="216pt" height="566pt"
 viewBox="0.00 0.00 216.00 566.00" xmlns="http://www.w3.org/2000/svg" xmlns:xlink="http://www.w3.org/1999/xlink">
<g id="graph0" class="graph" transform="scale(1 1) rotate(0) translate(4 562)">
<title>CGLTriangle</title>
<polygon fill="white" stroke="none" points="-4,4 -4,-562 212,-562 212,4 -4,4"/>
<!-- Node1 -->
<g id="node1" class="node"><title>Node1</title>
<polygon fill="#bfbfbf" stroke="black" points="86,-0.5 86,-79.5 178,-79.5 178,-0.5 86,-0.5"/>
<text text-anchor="middle" x="132" y="-67.5" font-family="Helvetica,sans-Serif" font-size="10.00">CGLTriangle</text>
<polyline fill="none" stroke="black" points="86,-60.5 178,-60.5 "/>
<text text-anchor="middle" x="132" y="-48.5" font-family="Helvetica,sans-Serif" font-size="10.00"> </text>
<polyline fill="none" stroke="black" points="86,-41.5 178,-41.5 "/>
<text text-anchor="start" x="94" y="-29.5" font-family="Helvetica,sans-Serif" font-size="10.00">+ CGLTriangle()</text>
<text text-anchor="start" x="94" y="-18.5" font-family="Helvetica,sans-Serif" font-size="10.00">+ ~CGLTriangle()</text>
<text text-anchor="start" x="94" y="-7.5" font-family="Helvetica,sans-Serif" font-size="10.00">+ drawObject()</text>
</g>
<!-- Node2 -->
<g id="node2" class="node"><title>Node2</title>
<g id="a_node2"><a xlink:href="$d7/d2f/class_c_g_l_item.xhtml" xlink:title="{CGLItem\n||+ CGLItem()\l+ ~CGLItem()\l}">
<polygon fill="white" stroke="black" points="14.5,-178 14.5,-246 91.5,-246 91.5,-178 14.5,-178"/>
<text text-anchor="middle" x="53" y="-234" font-family="Helvetica,sans-Serif" font-size="10.00">CGLItem</text>
<polyline fill="none" stroke="black" points="14.5,-227 91.5,-227 "/>
<text text-anchor="middle" x="53" y="-215" font-family="Helvetica,sans-Serif" font-size="10.00"> </text>
<polyline fill="none" stroke="black" points="14.5,-208 91.5,-208 "/>
<text text-anchor="start" x="22.5" y="-196" font-family="Helvetica,sans-Serif" font-size="10.00">+ CGLItem()</text>
<text text-anchor="start" x="22.5" y="-185" font-family="Helvetica,sans-Serif" font-size="10.00">+ ~CGLItem()</text>
</a>
</g>
</g>
<!-- Node2&#45;&gt;Node1 -->
<g id="edge1" class="edge"><title>Node2&#45;&gt;Node1</title>
<path fill="none" stroke="midnightblue" d="M72.7311,-168.541C85.3863,-141.308 101.689,-106.226 113.992,-79.7509"/>
<polygon fill="none" stroke="midnightblue" points="69.4598,-167.275 68.4195,-177.819 75.8079,-170.225 69.4598,-167.275"/>
</g>
<!-- Node3 -->
<g id="node3" class="node"><title>Node3</title>
<g id="a_node3"><a xlink:href="$d2/d76/class_c_g_l_object.xhtml" xlink:title="{CGLObject\n|# objectType\l# name\l# matrixSaved\l# children\l# iterCurrentObject\l|+ addObject()\l+ setName()\l+ getName()\l+ getCurrentObject()\l+ isChild()\l+ draw()\l+ drawObject()\l+ drawChildren()\l+ drawCenter()\l+ CGLObject()\l+ ~CGLObject()\l+ init()\l}">
<polygon fill="white" stroke="black" points="0,-335 0,-557 106,-557 106,-335 0,-335"/>
<text text-anchor="middle" x="53" y="-545" font-family="Helvetica,sans-Serif" font-size="10.00">CGLObject</text>
<polyline fill="none" stroke="black" points="0,-538 106,-538 "/>
<text text-anchor="start" x="8" y="-526" font-family="Helvetica,sans-Serif" font-size="10.00"># objectType</text>
<text text-anchor="start" x="8" y="-515" font-family="Helvetica,sans-Serif" font-size="10.00"># name</text>
<text text-anchor="start" x="8" y="-504" font-family="Helvetica,sans-Serif" font-size="10.00"># matrixSaved</text>
<text text-anchor="start" x="8" y="-493" font-family="Helvetica,sans-Serif" font-size="10.00"># children</text>
<text text-anchor="start" x="8" y="-482" font-family="Helvetica,sans-Serif" font-size="10.00"># iterCurrentObject</text>
<polyline fill="none" stroke="black" points="0,-475 106,-475 "/>
<text text-anchor="start" x="8" y="-463" font-family="Helvetica,sans-Serif" font-size="10.00">+ addObject()</text>
<text text-anchor="start" x="8" y="-452" font-family="Helvetica,sans-Serif" font-size="10.00">+ setName()</text>
<text text-anchor="start" x="8" y="-441" font-family="Helvetica,sans-Serif" font-size="10.00">+ getName()</text>
<text text-anchor="start" x="8" y="-430" font-family="Helvetica,sans-Serif" font-size="10.00">+ getCurrentObject()</text>
<text text-anchor="start" x="8" y="-419" font-family="Helvetica,sans-Serif" font-size="10.00">+ isChild()</text>
<text text-anchor="start" x="8" y="-408" font-family="Helvetica,sans-Serif" font-size="10.00">+ draw()</text>
<text text-anchor="start" x="8" y="-397" font-family="Helvetica,sans-Serif" font-size="10.00">+ drawObject()</text>
<text text-anchor="start" x="8" y="-386" font-family="Helvetica,sans-Serif" font-size="10.00">+ drawChildren()</text>
<text text-anchor="start" x="8" y="-375" font-family="Helvetica,sans-Serif" font-size="10.00">+ drawCenter()</text>
<text text-anchor="start" x="8" y="-364" font-family="Helvetica,sans-Serif" font-size="10.00">+ CGLObject()</text>
<text text-anchor="start" x="8" y="-353" font-family="Helvetica,sans-Serif" font-size="10.00">+ ~CGLObject()</text>
<text text-anchor="start" x="8" y="-342" font-family="Helvetica,sans-Serif" font-size="10.00">+ init()</text>
</a>
</g>
</g>
<!-- Node3&#45;&gt;Node2 -->
<g id="edge2" class="edge"><title>Node3&#45;&gt;Node2</title>
<path fill="none" stroke="midnightblue" d="M53,-324.557C53,-295.679 53,-267.169 53,-246.199"/>
<polygon fill="none" stroke="midnightblue" points="49.5001,-324.775 53,-334.775 56.5001,-324.775 49.5001,-324.775"/>
</g>
<!-- Node3&#45;&gt;Node3 -->
<g id="edge3" class="edge"><title>Node3&#45;&gt;Node3</title>
<path fill="none" stroke="#404040" d="M106.111,-469.124C116.021,-466.276 123,-458.568 123,-446 123,-438.734 120.667,-433.092 116.784,-429.075"/>
<polygon fill="none" stroke="#404040" points="116.488,-428.903 109.291,-429.349 106.111,-422.876 113.309,-422.431 116.488,-428.903"/>
<text text-anchor="middle" x="155" y="-454.5" font-family="Helvetica,sans-Serif" font-size="10.00"> +garbage</text>
<text text-anchor="middle" x="155" y="-443.5" font-family="Helvetica,sans-Serif" font-size="10.00">#currentObject</text>
<text text-anchor="middle" x="155" y="-432.5" font-family="Helvetica,sans-Serif" font-size="10.00">#parentObject</text>
</g>
<!-- Node4 -->
<g id="node4" class="node"><title>Node4</title>
<g id="a_node4"><a xlink:href="$d8/d97/class_c_g_l_vector2_d.xhtml" xlink:title="{CGLVector2D\n||+ CGLVector2D()\l+ ~CGLVector2D()\l+ getMaxX()\l+ getMaxY()\l+ getMinX()\l+ getMinY()\l+ getX()\l+ getY()\l+ isXMax()\l+ isYMax()\let 11 de plus...\l}">
<polygon fill="white" stroke="black" points="109.5,-128.5 109.5,-295.5 208.5,-295.5 208.5,-128.5 109.5,-128.5"/>
<text text-anchor="middle" x="159" y="-283.5" font-family="Helvetica,sans-Serif" font-size="10.00">CGLVector2D</text>
<polyline fill="none" stroke="black" points="109.5,-276.5 208.5,-276.5 "/>
<text text-anchor="middle" x="159" y="-264.5" font-family="Helvetica,sans-Serif" font-size="10.00"> </text>
<polyline fill="none" stroke="black" points="109.5,-257.5 208.5,-257.5 "/>
<text text-anchor="start" x="117.5" y="-245.5" font-family="Helvetica,sans-Serif" font-size="10.00">+ CGLVector2D()</text>
<text text-anchor="start" x="117.5" y="-234.5" font-family="Helvetica,sans-Serif" font-size="10.00">+ ~CGLVector2D()</text>
<text text-anchor="start" x="117.5" y="-223.5" font-family="Helvetica,sans-Serif" font-size="10.00">+ getMaxX()</text>
<text text-anchor="start" x="117.5" y="-212.5" font-family="Helvetica,sans-Serif" font-size="10.00">+ getMaxY()</text>
<text text-anchor="start" x="117.5" y="-201.5" font-family="Helvetica,sans-Serif" font-size="10.00">+ getMinX()</text>
<text text-anchor="start" x="117.5" y="-190.5" font-family="Helvetica,sans-Serif" font-size="10.00">+ getMinY()</text>
<text text-anchor="start" x="117.5" y="-179.5" font-family="Helvetica,sans-Serif" font-size="10.00">+ getX()</text>
<text text-anchor="start" x="117.5" y="-168.5" font-family="Helvetica,sans-Serif" font-size="10.00">+ getY()</text>
<text text-anchor="start" x="117.5" y="-157.5" font-family="Helvetica,sans-Serif" font-size="10.00">+ isXMax()</text>
<text text-anchor="start" x="117.5" y="-146.5" font-family="Helvetica,sans-Serif" font-size="10.00">+ isYMax()</text>
<text text-anchor="start" x="117.5" y="-135.5" font-family="Helvetica,sans-Serif" font-size="10.00">et 11 de plus...</text>
</a>
</g>
</g>
<!-- Node4&#45;&gt;Node1 -->
<g id="edge4" class="edge"><title>Node4&#45;&gt;Node1</title>
<path fill="none" stroke="#404040" d="M145.895,-128.49C143.902,-115.941 141.898,-103.319 140.056,-91.7199"/>
<polygon fill="none" stroke="#404040" points="140.011,-91.4387 135.119,-86.1404 138.129,-79.5873 143.02,-84.8855 140.011,-91.4387"/>
<text text-anchor="middle" x="159.5" y="-101.5" font-family="Helvetica,sans-Serif" font-size="10.00"> #points</text>
</g>
</g>
</svg>
