<?xml version="1.0" encoding="UTF-8" standalone="no"?>
<!DOCTYPE svg PUBLIC "-//W3C//DTD SVG 1.1//EN"
 "http://www.w3.org/Graphics/SVG/1.1/DTD/svg11.dtd">
<!-- Generated by graphviz version 2.36.0 (20140111.2315)
 -->
<!-- Title: CGLPositionSpeed::drawObject Pages: 1 -->
<svg width="318pt" height="370pt"
 viewBox="0.00 0.00 318.00 370.00" xmlns="http://www.w3.org/2000/svg" xmlns:xlink="http://www.w3.org/1999/xlink">
<g id="graph0" class="graph" transform="scale(1 1) rotate(0) translate(4 366)">
<title>CGLPositionSpeed::drawObject</title>
<polygon fill="white" stroke="none" points="-4,4 -4,-366 314,-366 314,4 -4,4"/>
<!-- Node1 -->
<g id="node1" class="node"><title>Node1</title>
<polygon fill="#bfbfbf" stroke="black" points="0.5,-171.5 0.5,-190.5 155.5,-190.5 155.5,-171.5 0.5,-171.5"/>
<text text-anchor="middle" x="78" y="-178.5" font-family="Helvetica,sans-Serif" font-size="10.00">CGLPositionSpeed::drawObject</text>
</g>
<!-- Node2 -->
<g id="node2" class="node"><title>Node2</title>
<g id="a_node2"><a xlink:href="$d8/d97/class_c_g_l_vector2_d.xhtml#a22db1a511fae81b0d7a6766b6490dd8c" xlink:title="CGLVector2D::setX">
<polygon fill="white" stroke="black" points="199,-342.5 199,-361.5 303,-361.5 303,-342.5 199,-342.5"/>
<text text-anchor="middle" x="251" y="-349.5" font-family="Helvetica,sans-Serif" font-size="10.00">CGLVector2D::setX</text>
</a>
</g>
</g>
<!-- Node1&#45;&gt;Node2 -->
<g id="edge1" class="edge"><title>Node1&#45;&gt;Node2</title>
<path fill="none" stroke="midnightblue" d="M83.5743,-190.812C96.5883,-217.669 136.496,-293.035 192,-333 194.666,-334.919 197.536,-336.652 200.523,-338.216"/>
<polygon fill="midnightblue" stroke="midnightblue" points="199.192,-341.456 209.743,-342.417 202.094,-335.086 199.192,-341.456"/>
</g>
<!-- Node3 -->
<g id="node3" class="node"><title>Node3</title>
<g id="a_node3"><a xlink:href="$d8/d97/class_c_g_l_vector2_d.xhtml#a5f25e872259c579251336dfe0faf8701" xlink:title="CGLVector2D::getX">
<polygon fill="white" stroke="black" points="199,-304.5 199,-323.5 303,-323.5 303,-304.5 199,-304.5"/>
<text text-anchor="middle" x="251" y="-311.5" font-family="Helvetica,sans-Serif" font-size="10.00">CGLVector2D::getX</text>
</a>
</g>
</g>
<!-- Node1&#45;&gt;Node3 -->
<g id="edge2" class="edge"><title>Node1&#45;&gt;Node3</title>
<path fill="none" stroke="midnightblue" d="M86.0484,-190.775C102.283,-212.609 144.578,-265.717 192,-295 195.353,-297.07 198.955,-298.94 202.664,-300.624"/>
<polygon fill="midnightblue" stroke="midnightblue" points="201.44,-303.904 212.022,-304.434 204.08,-297.421 201.44,-303.904"/>
</g>
<!-- Node4 -->
<g id="node4" class="node"><title>Node4</title>
<g id="a_node4"><a xlink:href="$d8/d97/class_c_g_l_vector2_d.xhtml#a61f90df90b91dcb413e9e1c72b8cbe1d" xlink:title="CGLVector2D::isXMax">
<polygon fill="white" stroke="black" points="192.5,-266.5 192.5,-285.5 309.5,-285.5 309.5,-266.5 192.5,-266.5"/>
<text text-anchor="middle" x="251" y="-273.5" font-family="Helvetica,sans-Serif" font-size="10.00">CGLVector2D::isXMax</text>
</a>
</g>
</g>
<!-- Node1&#45;&gt;Node4 -->
<g id="edge3" class="edge"><title>Node1&#45;&gt;Node4</title>
<path fill="none" stroke="midnightblue" d="M90.8628,-190.611C110.739,-206.326 152.486,-237.701 192,-257 196.409,-259.154 201.122,-261.15 205.883,-262.975"/>
<polygon fill="midnightblue" stroke="midnightblue" points="205.049,-266.394 215.643,-266.477 207.413,-259.806 205.049,-266.394"/>
</g>
<!-- Node5 -->
<g id="node5" class="node"><title>Node5</title>
<g id="a_node5"><a xlink:href="$d8/d97/class_c_g_l_vector2_d.xhtml#a9246e04841d8ef021f56d965d606bdd5" xlink:title="CGLVector2D::isXMin">
<polygon fill="white" stroke="black" points="194,-228.5 194,-247.5 308,-247.5 308,-228.5 194,-228.5"/>
<text text-anchor="middle" x="251" y="-235.5" font-family="Helvetica,sans-Serif" font-size="10.00">CGLVector2D::isXMin</text>
</a>
</g>
</g>
<!-- Node1&#45;&gt;Node5 -->
<g id="edge4" class="edge"><title>Node1&#45;&gt;Node5</title>
<path fill="none" stroke="midnightblue" d="M107.307,-190.588C130.151,-198.308 163.124,-209.415 192,-219 198.138,-221.037 204.645,-223.183 210.998,-225.27"/>
<polygon fill="midnightblue" stroke="midnightblue" points="210.184,-228.686 220.777,-228.476 212.365,-222.035 210.184,-228.686"/>
</g>
<!-- Node6 -->
<g id="node6" class="node"><title>Node6</title>
<g id="a_node6"><a xlink:href="$d8/d97/class_c_g_l_vector2_d.xhtml#a4c89a21e28a86848c6b023ad60baef4c" xlink:title="CGLVector2D::setY">
<polygon fill="white" stroke="black" points="199,-190.5 199,-209.5 303,-209.5 303,-190.5 199,-190.5"/>
<text text-anchor="middle" x="251" y="-197.5" font-family="Helvetica,sans-Serif" font-size="10.00">CGLVector2D::setY</text>
</a>
</g>
</g>
<!-- Node1&#45;&gt;Node6 -->
<g id="edge5" class="edge"><title>Node1&#45;&gt;Node6</title>
<path fill="none" stroke="midnightblue" d="M155.996,-189.555C167.013,-190.779 178.221,-192.025 188.877,-193.209"/>
<polygon fill="midnightblue" stroke="midnightblue" points="188.575,-196.696 198.901,-194.322 189.348,-189.739 188.575,-196.696"/>
</g>
<!-- Node7 -->
<g id="node7" class="node"><title>Node7</title>
<g id="a_node7"><a xlink:href="$d8/d97/class_c_g_l_vector2_d.xhtml#ad279638b74a0caac60632b169136688c" xlink:title="CGLVector2D::getY">
<polygon fill="white" stroke="black" points="199,-152.5 199,-171.5 303,-171.5 303,-152.5 199,-152.5"/>
<text text-anchor="middle" x="251" y="-159.5" font-family="Helvetica,sans-Serif" font-size="10.00">CGLVector2D::getY</text>
</a>
</g>
</g>
<!-- Node1&#45;&gt;Node7 -->
<g id="edge6" class="edge"><title>Node1&#45;&gt;Node7</title>
<path fill="none" stroke="midnightblue" d="M155.996,-172.445C167.013,-171.221 178.221,-169.975 188.877,-168.791"/>
<polygon fill="midnightblue" stroke="midnightblue" points="189.348,-172.261 198.901,-167.678 188.575,-165.304 189.348,-172.261"/>
</g>
<!-- Node8 -->
<g id="node8" class="node"><title>Node8</title>
<g id="a_node8"><a xlink:href="$d8/d97/class_c_g_l_vector2_d.xhtml#a96ccb7ac910c4c8b1d390dba6306d79e" xlink:title="CGLVector2D::isYMax">
<polygon fill="white" stroke="black" points="192.5,-114.5 192.5,-133.5 309.5,-133.5 309.5,-114.5 192.5,-114.5"/>
<text text-anchor="middle" x="251" y="-121.5" font-family="Helvetica,sans-Serif" font-size="10.00">CGLVector2D::isYMax</text>
</a>
</g>
</g>
<!-- Node1&#45;&gt;Node8 -->
<g id="edge7" class="edge"><title>Node1&#45;&gt;Node8</title>
<path fill="none" stroke="midnightblue" d="M107.307,-171.412C130.151,-163.692 163.124,-152.585 192,-143 198.138,-140.963 204.645,-138.817 210.998,-136.73"/>
<polygon fill="midnightblue" stroke="midnightblue" points="212.365,-139.965 220.777,-133.524 210.184,-133.314 212.365,-139.965"/>
</g>
<!-- Node9 -->
<g id="node9" class="node"><title>Node9</title>
<g id="a_node9"><a xlink:href="$d8/d97/class_c_g_l_vector2_d.xhtml#a46b1951ce7743aaae330a44d40c38de9" xlink:title="CGLVector2D::isYMin">
<polygon fill="white" stroke="black" points="194,-76.5 194,-95.5 308,-95.5 308,-76.5 194,-76.5"/>
<text text-anchor="middle" x="251" y="-83.5" font-family="Helvetica,sans-Serif" font-size="10.00">CGLVector2D::isYMin</text>
</a>
</g>
</g>
<!-- Node1&#45;&gt;Node9 -->
<g id="edge8" class="edge"><title>Node1&#45;&gt;Node9</title>
<path fill="none" stroke="midnightblue" d="M90.8628,-171.389C110.739,-155.674 152.486,-124.299 192,-105 196.409,-102.846 201.122,-100.85 205.883,-99.0249"/>
<polygon fill="midnightblue" stroke="midnightblue" points="207.413,-102.194 215.643,-95.5227 205.049,-95.6058 207.413,-102.194"/>
</g>
<!-- Node10 -->
<g id="node10" class="node"><title>Node10</title>
<g id="a_node10"><a xlink:href="$d6/df9/class_c_g_l_vector3_d.xhtml#afef476ba51f4f45cb9d64e5d6c1592a4" xlink:title="CGLVector3D::setZ">
<polygon fill="white" stroke="black" points="199,-38.5 199,-57.5 303,-57.5 303,-38.5 199,-38.5"/>
<text text-anchor="middle" x="251" y="-45.5" font-family="Helvetica,sans-Serif" font-size="10.00">CGLVector3D::setZ</text>
</a>
</g>
</g>
<!-- Node1&#45;&gt;Node10 -->
<g id="edge9" class="edge"><title>Node1&#45;&gt;Node10</title>
<path fill="none" stroke="midnightblue" d="M86.0484,-171.225C102.283,-149.391 144.578,-96.2829 192,-67 195.353,-64.9297 198.955,-63.06 202.664,-61.3762"/>
<polygon fill="midnightblue" stroke="midnightblue" points="204.08,-64.5787 212.022,-57.5656 201.44,-58.0957 204.08,-64.5787"/>
</g>
<!-- Node11 -->
<g id="node11" class="node"><title>Node11</title>
<g id="a_node11"><a xlink:href="$d6/df9/class_c_g_l_vector3_d.xhtml#a374bca193aae71220f1349a6ab0778ee" xlink:title="CGLVector3D::getZ">
<polygon fill="white" stroke="black" points="199,-0.5 199,-19.5 303,-19.5 303,-0.5 199,-0.5"/>
<text text-anchor="middle" x="251" y="-7.5" font-family="Helvetica,sans-Serif" font-size="10.00">CGLVector3D::getZ</text>
</a>
</g>
</g>
<!-- Node1&#45;&gt;Node11 -->
<g id="edge10" class="edge"><title>Node1&#45;&gt;Node11</title>
<path fill="none" stroke="midnightblue" d="M83.5743,-171.188C96.5883,-144.331 136.496,-68.9647 192,-29 194.666,-27.0806 197.536,-25.3475 200.523,-23.7837"/>
<polygon fill="midnightblue" stroke="midnightblue" points="202.094,-26.9141 209.743,-19.583 199.192,-20.544 202.094,-26.9141"/>
</g>
</g>
</svg>
