<?xml version="1.0" encoding="UTF-8" standalone="no"?>
<!DOCTYPE svg PUBLIC "-//W3C//DTD SVG 1.1//EN"
 "http://www.w3.org/Graphics/SVG/1.1/DTD/svg11.dtd">
<!-- Generated by graphviz version 2.36.0 (20140111.2315)
 -->
<!-- Title: CGLWorld::CGLWorld Pages: 1 -->
<svg width="412pt" height="46pt"
 viewBox="0.00 0.00 412.00 46.00" xmlns="http://www.w3.org/2000/svg" xmlns:xlink="http://www.w3.org/1999/xlink">
<g id="graph0" class="graph" transform="scale(1 1) rotate(0) translate(4 42)">
<title>CGLWorld::CGLWorld</title>
<polygon fill="white" stroke="none" points="-4,4 -4,-42 408,-42 408,4 -4,4"/>
<!-- Node1 -->
<g id="node1" class="node"><title>Node1</title>
<polygon fill="#bfbfbf" stroke="black" points="0,-0.5 0,-19.5 114,-19.5 114,-0.5 0,-0.5"/>
<text text-anchor="middle" x="57" y="-7.5" font-family="Helvetica,sans-Serif" font-size="10.00">CGLWorld::CGLWorld</text>
</g>
<!-- Node2 -->
<g id="node2" class="node"><title>Node2</title>
<g id="a_node2"><a xlink:href="$d2/d76/class_c_g_l_object.xhtml#a83b8918905a5449c94e4447791b61abd" xlink:title="CGLObject::addObject">
<polygon fill="white" stroke="black" points="150,-0.5 150,-19.5 266,-19.5 266,-0.5 150,-0.5"/>
<text text-anchor="middle" x="208" y="-7.5" font-family="Helvetica,sans-Serif" font-size="10.00">CGLObject::addObject</text>
</a>
</g>
</g>
<!-- Node1&#45;&gt;Node2 -->
<g id="edge1" class="edge"><title>Node1&#45;&gt;Node2</title>
<path fill="none" stroke="midnightblue" d="M114.331,-10C122.533,-10 131.048,-10 139.445,-10"/>
<polygon fill="midnightblue" stroke="midnightblue" points="139.599,-13.5001 149.599,-10 139.599,-6.5001 139.599,-13.5001"/>
</g>
<!-- Node2&#45;&gt;Node2 -->
<g id="edge3" class="edge"><title>Node2&#45;&gt;Node2</title>
<path fill="none" stroke="midnightblue" d="M185.805,-19.7571C175.008,-28.5653 182.406,-38 208,-38 224.796,-38 233.756,-33.9368 234.879,-28.6539"/>
<polygon fill="midnightblue" stroke="midnightblue" points="237.951,-26.9747 230.195,-19.7571 231.757,-30.2361 237.951,-26.9747"/>
</g>
<!-- Node3 -->
<g id="node3" class="node"><title>Node3</title>
<g id="a_node3"><a xlink:href="$d2/d76/class_c_g_l_object.xhtml#a80d01439776edc9443b47a7a9e5b9e94" xlink:title="CGLObject::isChild">
<polygon fill="white" stroke="black" points="302.5,-0.5 302.5,-19.5 403.5,-19.5 403.5,-0.5 302.5,-0.5"/>
<text text-anchor="middle" x="353" y="-7.5" font-family="Helvetica,sans-Serif" font-size="10.00">CGLObject::isChild</text>
</a>
</g>
</g>
<!-- Node2&#45;&gt;Node3 -->
<g id="edge2" class="edge"><title>Node2&#45;&gt;Node3</title>
<path fill="none" stroke="midnightblue" d="M266.34,-10C274.94,-10 283.826,-10 292.471,-10"/>
<polygon fill="midnightblue" stroke="midnightblue" points="292.478,-13.5001 302.478,-10 292.478,-6.5001 292.478,-13.5001"/>
</g>
</g>
</svg>
