<?xml version="1.0" encoding="UTF-8" standalone="no"?>
<!DOCTYPE svg PUBLIC "-//W3C//DTD SVG 1.1//EN"
 "http://www.w3.org/Graphics/SVG/1.1/DTD/svg11.dtd">
<!-- Generated by graphviz version 2.36.0 (20140111.2315)
 -->
<!-- Title: CGLLight Pages: 1 -->
<svg width="112pt" height="476pt"
 viewBox="0.00 0.00 112.00 476.00" xmlns="http://www.w3.org/2000/svg" xmlns:xlink="http://www.w3.org/1999/xlink">
<g id="graph0" class="graph" transform="scale(1 1) rotate(0) translate(4 472)">
<title>CGLLight</title>
<polygon fill="white" stroke="none" points="-4,4 -4,-472 108,-472 108,4 -4,4"/>
<!-- Node1 -->
<g id="node1" class="node"><title>Node1</title>
<polygon fill="#bfbfbf" stroke="black" points="12.5,-1 12.5,-69 91.5,-69 91.5,-1 12.5,-1"/>
<text text-anchor="middle" x="52" y="-57" font-family="Helvetica,sans-Serif" font-size="10.00">CGLLight</text>
<polyline fill="none" stroke="black" points="12.5,-50 91.5,-50 "/>
<text text-anchor="middle" x="52" y="-38" font-family="Helvetica,sans-Serif" font-size="10.00"> </text>
<polyline fill="none" stroke="black" points="12.5,-31 91.5,-31 "/>
<text text-anchor="start" x="20.5" y="-19" font-family="Helvetica,sans-Serif" font-size="10.00">+ CGLLight()</text>
<text text-anchor="start" x="20.5" y="-8" font-family="Helvetica,sans-Serif" font-size="10.00">+ ~CGLLight()</text>
</g>
<!-- Node2 -->
<g id="node2" class="node"><title>Node2</title>
<g id="a_node2"><a xlink:href="../../d0/d14/class_c_g_l_special.xhtml" target="_top" xlink:title="{CGLSpecial\n||+ CGLSpecial()\l+ ~CGLSpecial()\l}">
<polygon fill="white" stroke="black" points="7,-107 7,-175 97,-175 97,-107 7,-107"/>
<text text-anchor="middle" x="52" y="-163" font-family="Helvetica,sans-Serif" font-size="10.00">CGLSpecial</text>
<polyline fill="none" stroke="black" points="7,-156 97,-156 "/>
<text text-anchor="middle" x="52" y="-144" font-family="Helvetica,sans-Serif" font-size="10.00"> </text>
<polyline fill="none" stroke="black" points="7,-137 97,-137 "/>
<text text-anchor="start" x="15" y="-125" font-family="Helvetica,sans-Serif" font-size="10.00">+ CGLSpecial()</text>
<text text-anchor="start" x="15" y="-114" font-family="Helvetica,sans-Serif" font-size="10.00">+ ~CGLSpecial()</text>
</a>
</g>
</g>
<!-- Node2&#45;&gt;Node1 -->
<g id="edge1" class="edge"><title>Node2&#45;&gt;Node1</title>
<path fill="none" stroke="midnightblue" d="M52,-96.6737C52,-87.5025 52,-77.9608 52,-69.2336"/>
<polygon fill="none" stroke="midnightblue" points="48.5001,-96.8078 52,-106.808 55.5001,-96.8078 48.5001,-96.8078"/>
</g>
<!-- Node3 -->
<g id="node3" class="node"><title>Node3</title>
<g id="a_node3"><a xlink:href="../../d2/d76/class_c_g_l_object.xhtml" target="_top" xlink:title="{CGLObject\n|+ garbage\l# objectType\l# name\l# matrixSaved\l# children\l# iterCurrentObject\l# currentObject\l# parentObject\l|+ addObject()\l+ setName()\l+ getName()\l+ getCurrentObject()\l+ isChild()\l+ draw()\l+ drawObject()\l+ drawChildren()\l+ drawCenter()\l+ CGLObject()\l+ ~CGLObject()\l+ init()\l}">
<polygon fill="white" stroke="black" points="-1,-212.5 -1,-467.5 105,-467.5 105,-212.5 -1,-212.5"/>
<text text-anchor="middle" x="52" y="-455.5" font-family="Helvetica,sans-Serif" font-size="10.00">CGLObject</text>
<polyline fill="none" stroke="black" points="-1,-448.5 105,-448.5 "/>
<text text-anchor="start" x="7" y="-436.5" font-family="Helvetica,sans-Serif" font-size="10.00">+ garbage</text>
<text text-anchor="start" x="7" y="-425.5" font-family="Helvetica,sans-Serif" font-size="10.00"># objectType</text>
<text text-anchor="start" x="7" y="-414.5" font-family="Helvetica,sans-Serif" font-size="10.00"># name</text>
<text text-anchor="start" x="7" y="-403.5" font-family="Helvetica,sans-Serif" font-size="10.00"># matrixSaved</text>
<text text-anchor="start" x="7" y="-392.5" font-family="Helvetica,sans-Serif" font-size="10.00"># children</text>
<text text-anchor="start" x="7" y="-381.5" font-family="Helvetica,sans-Serif" font-size="10.00"># iterCurrentObject</text>
<text text-anchor="start" x="7" y="-370.5" font-family="Helvetica,sans-Serif" font-size="10.00"># currentObject</text>
<text text-anchor="start" x="7" y="-359.5" font-family="Helvetica,sans-Serif" font-size="10.00"># parentObject</text>
<polyline fill="none" stroke="black" points="-1,-352.5 105,-352.5 "/>
<text text-anchor="start" x="7" y="-340.5" font-family="Helvetica,sans-Serif" font-size="10.00">+ addObject()</text>
<text text-anchor="start" x="7" y="-329.5" font-family="Helvetica,sans-Serif" font-size="10.00">+ setName()</text>
<text text-anchor="start" x="7" y="-318.5" font-family="Helvetica,sans-Serif" font-size="10.00">+ getName()</text>
<text text-anchor="start" x="7" y="-307.5" font-family="Helvetica,sans-Serif" font-size="10.00">+ getCurrentObject()</text>
<text text-anchor="start" x="7" y="-296.5" font-family="Helvetica,sans-Serif" font-size="10.00">+ isChild()</text>
<text text-anchor="start" x="7" y="-285.5" font-family="Helvetica,sans-Serif" font-size="10.00">+ draw()</text>
<text text-anchor="start" x="7" y="-274.5" font-family="Helvetica,sans-Serif" font-size="10.00">+ drawObject()</text>
<text text-anchor="start" x="7" y="-263.5" font-family="Helvetica,sans-Serif" font-size="10.00">+ drawChildren()</text>
<text text-anchor="start" x="7" y="-252.5" font-family="Helvetica,sans-Serif" font-size="10.00">+ drawCenter()</text>
<text text-anchor="start" x="7" y="-241.5" font-family="Helvetica,sans-Serif" font-size="10.00">+ CGLObject()</text>
<text text-anchor="start" x="7" y="-230.5" font-family="Helvetica,sans-Serif" font-size="10.00">+ ~CGLObject()</text>
<text text-anchor="start" x="7" y="-219.5" font-family="Helvetica,sans-Serif" font-size="10.00">+ init()</text>
</a>
</g>
</g>
<!-- Node3&#45;&gt;Node2 -->
<g id="edge2" class="edge"><title>Node3&#45;&gt;Node2</title>
<path fill="none" stroke="midnightblue" d="M52,-202.257C52,-192.41 52,-183.166 52,-175.016"/>
<polygon fill="none" stroke="midnightblue" points="48.5001,-202.287 52,-212.287 55.5001,-202.287 48.5001,-202.287"/>
</g>
</g>
</svg>
