<?xml version="1.0" encoding="UTF-8" standalone="no"?>
<!DOCTYPE svg PUBLIC "-//W3C//DTD SVG 1.1//EN"
 "http://www.w3.org/Graphics/SVG/1.1/DTD/svg11.dtd">
<!-- Generated by graphviz version 2.36.0 (20140111.2315)
 -->
<!-- Title: main Pages: 1 -->
<svg width="736pt" height="522pt"
 viewBox="0.00 0.00 736.00 522.00" xmlns="http://www.w3.org/2000/svg" xmlns:xlink="http://www.w3.org/1999/xlink">
<g id="graph0" class="graph" transform="scale(1 1) rotate(0) translate(4 518)">
<title>main</title>
<polygon fill="white" stroke="none" points="-4,4 -4,-518 732,-518 732,4 -4,4"/>
<!-- Node1 -->
<g id="node1" class="node"><title>Node1</title>
<polygon fill="#bfbfbf" stroke="black" points="0,-247.5 0,-266.5 38,-266.5 38,-247.5 0,-247.5"/>
<text text-anchor="middle" x="19" y="-254.5" font-family="Helvetica,sans-Serif" font-size="10.00">main</text>
</g>
<!-- Node2 -->
<g id="node2" class="node"><title>Node2</title>
<g id="a_node2"><a xlink:href="$d2/d76/class_c_g_l_object.xhtml#aa08cbbe873bf264dbb34f233bd21844b" xlink:title="CGLObject::init">
<polygon fill="white" stroke="black" points="94,-494.5 94,-513.5 178,-513.5 178,-494.5 94,-494.5"/>
<text text-anchor="middle" x="136" y="-501.5" font-family="Helvetica,sans-Serif" font-size="10.00">CGLObject::init</text>
</a>
</g>
</g>
<!-- Node1&#45;&gt;Node2 -->
<g id="edge1" class="edge"><title>Node1&#45;&gt;Node2</title>
<path fill="none" stroke="midnightblue" d="M21.1306,-266.504C25.8493,-304.734 45.0831,-446.814 74,-480 77.2849,-483.77 81.2392,-486.953 85.5362,-489.639"/>
<polygon fill="midnightblue" stroke="midnightblue" points="84.2545,-492.92 94.7332,-494.484 87.5173,-486.727 84.2545,-492.92"/>
</g>
<!-- Node4 -->
<g id="node4" class="node"><title>Node4</title>
<g id="a_node4"><a xlink:href="$d2/d76/class_c_g_l_object.xhtml#a83b8918905a5449c94e4447791b61abd" xlink:title="CGLObject::addObject">
<polygon fill="white" stroke="black" points="408,-456.5 408,-475.5 524,-475.5 524,-456.5 408,-456.5"/>
<text text-anchor="middle" x="466" y="-463.5" font-family="Helvetica,sans-Serif" font-size="10.00">CGLObject::addObject</text>
</a>
</g>
</g>
<!-- Node1&#45;&gt;Node4 -->
<g id="edge11" class="edge"><title>Node1&#45;&gt;Node4</title>
<path fill="none" stroke="midnightblue" d="M19.5233,-266.729C18.6157,-297.287 20.4145,-391.872 74,-435 122.225,-473.813 299.173,-473.131 397.677,-469.477"/>
<polygon fill="midnightblue" stroke="midnightblue" points="397.975,-472.968 407.831,-469.079 397.701,-465.973 397.975,-472.968"/>
</g>
<!-- Node6 -->
<g id="node6" class="node"><title>Node6</title>
<g id="a_node6"><a xlink:href="$dd/d40/class_c_g_l_window.xhtml#a8875c26fc11c333f7bbf2b517a2befd0" xlink:title="CGLWindow::getCurrentWorld">
<polygon fill="white" stroke="black" points="578.5,-114.5 578.5,-133.5 727.5,-133.5 727.5,-114.5 578.5,-114.5"/>
<text text-anchor="middle" x="653" y="-121.5" font-family="Helvetica,sans-Serif" font-size="10.00">CGLWindow::getCurrentWorld</text>
</a>
</g>
</g>
<!-- Node1&#45;&gt;Node6 -->
<g id="edge6" class="edge"><title>Node1&#45;&gt;Node6</title>
<path fill="none" stroke="midnightblue" d="M21.1548,-266.579C24.49,-289.473 36.4337,-347.227 74,-371 120.569,-400.471 143.593,-379.78 198,-371 357.008,-345.339 409.056,-347.929 542,-257 587.354,-225.979 624.175,-171.155 641.416,-142.547"/>
<polygon fill="midnightblue" stroke="midnightblue" points="644.624,-143.997 646.679,-133.603 638.591,-140.447 644.624,-143.997"/>
</g>
<!-- Node7 -->
<g id="node7" class="node"><title>Node7</title>
<g id="a_node7"><a xlink:href="$db/da4/class_c_g_l_world.xhtml#a266821b98f90eae32b670ff4def8b948" xlink:title="CGLWorld::getCurrentScene">
<polygon fill="white" stroke="black" points="395,-228.5 395,-247.5 537,-247.5 537,-228.5 395,-228.5"/>
<text text-anchor="middle" x="466" y="-235.5" font-family="Helvetica,sans-Serif" font-size="10.00">CGLWorld::getCurrentScene</text>
</a>
</g>
</g>
<!-- Node1&#45;&gt;Node7 -->
<g id="edge7" class="edge"><title>Node1&#45;&gt;Node7</title>
<path fill="none" stroke="midnightblue" d="M38.2741,-256.22C96.1835,-253.747 278.081,-245.981 384.78,-241.425"/>
<polygon fill="midnightblue" stroke="midnightblue" points="385.023,-244.918 394.865,-240.995 384.725,-237.924 385.023,-244.918"/>
</g>
<!-- Node8 -->
<g id="node8" class="node"><title>Node8</title>
<g id="a_node8"><a xlink:href="$d2/d76/class_c_g_l_object.xhtml#aacbe6a176989b2cef7bc2be472d5c512" xlink:title="CGLObject::setName">
<polygon fill="white" stroke="black" points="80.5,-342.5 80.5,-361.5 191.5,-361.5 191.5,-342.5 80.5,-342.5"/>
<text text-anchor="middle" x="136" y="-349.5" font-family="Helvetica,sans-Serif" font-size="10.00">CGLObject::setName</text>
</a>
</g>
</g>
<!-- Node1&#45;&gt;Node8 -->
<g id="edge8" class="edge"><title>Node1&#45;&gt;Node8</title>
<path fill="none" stroke="midnightblue" d="M24.3142,-266.714C31.9785,-282.868 49.4983,-315.229 74,-333 76.6488,-334.921 79.4972,-336.652 82.4639,-338.21"/>
<polygon fill="midnightblue" stroke="midnightblue" points="81.0869,-341.429 91.6382,-342.388 83.988,-335.059 81.0869,-341.429"/>
</g>
<!-- Node9 -->
<g id="node9" class="node"><title>Node9</title>
<g id="a_node9"><a xlink:href="$d6/df9/class_c_g_l_vector3_d.xhtml#a15014f4427c214f64699590591cacc8f" xlink:title="CGLVector3D::set">
<polygon fill="white" stroke="black" points="87,-304.5 87,-323.5 185,-323.5 185,-304.5 87,-304.5"/>
<text text-anchor="middle" x="136" y="-311.5" font-family="Helvetica,sans-Serif" font-size="10.00">CGLVector3D::set</text>
</a>
</g>
</g>
<!-- Node1&#45;&gt;Node9 -->
<g id="edge9" class="edge"><title>Node1&#45;&gt;Node9</title>
<path fill="none" stroke="midnightblue" d="M31.3437,-266.576C41.8379,-275.034 58.1622,-287.201 74,-295 78.5479,-297.24 83.4162,-299.285 88.3455,-301.134"/>
<polygon fill="midnightblue" stroke="midnightblue" points="87.2369,-304.454 97.8317,-304.448 89.5456,-297.846 87.2369,-304.454"/>
</g>
<!-- Node10 -->
<g id="node10" class="node"><title>Node10</title>
<g id="a_node10"><a xlink:href="$d7/dd6/class_c_g_l_color.xhtml#ae493568c85c39e3573ad8ef9600b720a" xlink:title="CGLColor::set">
<polygon fill="white" stroke="black" points="96,-266.5 96,-285.5 176,-285.5 176,-266.5 96,-266.5"/>
<text text-anchor="middle" x="136" y="-273.5" font-family="Helvetica,sans-Serif" font-size="10.00">CGLColor::set</text>
</a>
</g>
</g>
<!-- Node1&#45;&gt;Node10 -->
<g id="edge10" class="edge"><title>Node1&#45;&gt;Node10</title>
<path fill="none" stroke="midnightblue" d="M38.2221,-260.011C51.0195,-262.125 68.7891,-265.061 85.6131,-267.84"/>
<polygon fill="midnightblue" stroke="midnightblue" points="85.4765,-271.365 95.9133,-269.542 86.6176,-264.459 85.4765,-271.365"/>
</g>
<!-- Node11 -->
<g id="node11" class="node"><title>Node11</title>
<g id="a_node11"><a xlink:href="$d9/d85/class_c_g_l_scene.xhtml#aca6d85a7e345751c7fa58ca68bde3ea2" xlink:title="CGLScene::addItem">
<polygon fill="white" stroke="black" points="241,-418.5 241,-437.5 347,-437.5 347,-418.5 241,-418.5"/>
<text text-anchor="middle" x="294" y="-425.5" font-family="Helvetica,sans-Serif" font-size="10.00">CGLScene::addItem</text>
</a>
</g>
</g>
<!-- Node1&#45;&gt;Node11 -->
<g id="edge12" class="edge"><title>Node1&#45;&gt;Node11</title>
<path fill="none" stroke="midnightblue" d="M20.2668,-266.504C21.5756,-293.164 29.2479,-368.983 74,-404 117.92,-438.366 182.85,-441.371 230.611,-437.591"/>
<polygon fill="midnightblue" stroke="midnightblue" points="231.191,-441.052 240.832,-436.659 230.555,-434.081 231.191,-441.052"/>
</g>
<!-- Node12 -->
<g id="node12" class="node"><title>Node12</title>
<g id="a_node12"><a xlink:href="$d8/d97/class_c_g_l_vector2_d.xhtml#a2619a94f4fe5227cf3d23a6cb001bb7f" xlink:title="CGLVector2D::setMinX">
<polygon fill="white" stroke="black" points="76,-190.5 76,-209.5 196,-209.5 196,-190.5 76,-190.5"/>
<text text-anchor="middle" x="136" y="-197.5" font-family="Helvetica,sans-Serif" font-size="10.00">CGLVector2D::setMinX</text>
</a>
</g>
</g>
<!-- Node1&#45;&gt;Node12 -->
<g id="edge14" class="edge"><title>Node1&#45;&gt;Node12</title>
<path fill="none" stroke="midnightblue" d="M34.2783,-247.331C44.9451,-240.343 60.032,-230.95 74,-224 81.7627,-220.138 90.3077,-216.448 98.4818,-213.172"/>
<polygon fill="midnightblue" stroke="midnightblue" points="99.7895,-216.418 107.838,-209.528 97.2496,-209.895 99.7895,-216.418"/>
</g>
<!-- Node13 -->
<g id="node13" class="node"><title>Node13</title>
<g id="a_node13"><a xlink:href="$d8/d97/class_c_g_l_vector2_d.xhtml#af8c0f1ed3b2c3662071875ff89eab40e" xlink:title="CGLVector2D::setMinY">
<polygon fill="white" stroke="black" points="76,-152.5 76,-171.5 196,-171.5 196,-152.5 76,-152.5"/>
<text text-anchor="middle" x="136" y="-159.5" font-family="Helvetica,sans-Serif" font-size="10.00">CGLVector2D::setMinY</text>
</a>
</g>
</g>
<!-- Node1&#45;&gt;Node13 -->
<g id="edge15" class="edge"><title>Node1&#45;&gt;Node13</title>
<path fill="none" stroke="midnightblue" d="M24.3142,-247.286C31.9785,-231.132 49.4983,-198.771 74,-181 76.6488,-179.079 79.4972,-177.348 82.4639,-175.79"/>
<polygon fill="midnightblue" stroke="midnightblue" points="83.988,-178.941 91.6382,-171.612 81.0869,-172.571 83.988,-178.941"/>
</g>
<!-- Node14 -->
<g id="node14" class="node"><title>Node14</title>
<g id="a_node14"><a xlink:href="$d8/d97/class_c_g_l_vector2_d.xhtml#a70d980ebd6f0dd51f389343b11664c98" xlink:title="CGLVector2D::setMaxX">
<polygon fill="white" stroke="black" points="74.5,-114.5 74.5,-133.5 197.5,-133.5 197.5,-114.5 74.5,-114.5"/>
<text text-anchor="middle" x="136" y="-121.5" font-family="Helvetica,sans-Serif" font-size="10.00">CGLVector2D::setMaxX</text>
</a>
</g>
</g>
<!-- Node1&#45;&gt;Node14 -->
<g id="edge16" class="edge"><title>Node1&#45;&gt;Node14</title>
<path fill="none" stroke="midnightblue" d="M21.8047,-247.472C26.4309,-225.681 40.7673,-171.866 74,-143 75.9418,-141.313 78.0322,-139.776 80.2285,-138.376"/>
<polygon fill="midnightblue" stroke="midnightblue" points="81.9603,-141.419 89.1336,-133.622 78.6636,-135.244 81.9603,-141.419"/>
</g>
<!-- Node15 -->
<g id="node15" class="node"><title>Node15</title>
<g id="a_node15"><a xlink:href="$d8/d97/class_c_g_l_vector2_d.xhtml#a7ead92fc71694b48abd96685e9c41890" xlink:title="CGLVector2D::setMaxY">
<polygon fill="white" stroke="black" points="74.5,-76.5 74.5,-95.5 197.5,-95.5 197.5,-76.5 74.5,-76.5"/>
<text text-anchor="middle" x="136" y="-83.5" font-family="Helvetica,sans-Serif" font-size="10.00">CGLVector2D::setMaxY</text>
</a>
</g>
</g>
<!-- Node1&#45;&gt;Node15 -->
<g id="edge17" class="edge"><title>Node1&#45;&gt;Node15</title>
<path fill="none" stroke="midnightblue" d="M20.5545,-247.23C22.6044,-220.482 32.0077,-145.369 74,-105 75.4993,-103.559 77.1062,-102.226 78.7969,-100.995"/>
<polygon fill="midnightblue" stroke="midnightblue" points="81.0167,-103.749 87.8386,-95.6422 77.4505,-97.7251 81.0167,-103.749"/>
</g>
<!-- Node16 -->
<g id="node16" class="node"><title>Node16</title>
<g id="a_node16"><a xlink:href="$d4/dd5/class_c_g_l_rotation.xhtml#a2b767e088f36ceef91e7259c76f7390e" xlink:title="CGLRotation::set">
<polygon fill="white" stroke="black" points="89.5,-38.5 89.5,-57.5 182.5,-57.5 182.5,-38.5 89.5,-38.5"/>
<text text-anchor="middle" x="136" y="-45.5" font-family="Helvetica,sans-Serif" font-size="10.00">CGLRotation::set</text>
</a>
</g>
</g>
<!-- Node1&#45;&gt;Node16 -->
<g id="edge18" class="edge"><title>Node1&#45;&gt;Node16</title>
<path fill="none" stroke="midnightblue" d="M19.7422,-247.145C19.4848,-216.099 23.0016,-119.292 74,-67 75.8974,-65.0545 77.9903,-63.3073 80.224,-61.7384"/>
<polygon fill="midnightblue" stroke="midnightblue" points="82.4456,-64.5024 89.4209,-56.5277 78.995,-58.412 82.4456,-64.5024"/>
</g>
<!-- Node17 -->
<g id="node17" class="node"><title>Node17</title>
<g id="a_node17"><a xlink:href="$dd/d40/class_c_g_l_window.xhtml#acee59c3d1b3a12c43fccf7f225c98dd6" xlink:title="CGLWindow::exec">
<polygon fill="white" stroke="black" points="86.5,-0.5 86.5,-19.5 185.5,-19.5 185.5,-0.5 86.5,-0.5"/>
<text text-anchor="middle" x="136" y="-7.5" font-family="Helvetica,sans-Serif" font-size="10.00">CGLWindow::exec</text>
</a>
</g>
</g>
<!-- Node1&#45;&gt;Node17 -->
<g id="edge19" class="edge"><title>Node1&#45;&gt;Node17</title>
<path fill="none" stroke="midnightblue" d="M21.0034,-247.488C25.2908,-208.567 43.2682,-61.942 74,-29 75.362,-27.5401 76.834,-26.1915 78.3938,-24.9459"/>
<polygon fill="midnightblue" stroke="midnightblue" points="80.297,-27.8833 86.8223,-19.5364 76.516,-21.9923 80.297,-27.8833"/>
</g>
<!-- Node3 -->
<g id="node3" class="node"><title>Node3</title>
<g id="a_node3"><a xlink:href="$d2/d76/class_c_g_l_object.xhtml#add00987cd4a5ee06cc4436766392434b" xlink:title="CGLObject::CGLObject">
<polygon fill="white" stroke="black" points="234,-494.5 234,-513.5 354,-513.5 354,-494.5 234,-494.5"/>
<text text-anchor="middle" x="294" y="-501.5" font-family="Helvetica,sans-Serif" font-size="10.00">CGLObject::CGLObject</text>
</a>
</g>
</g>
<!-- Node2&#45;&gt;Node3 -->
<g id="edge2" class="edge"><title>Node2&#45;&gt;Node3</title>
<path fill="none" stroke="midnightblue" d="M178.396,-504C192.316,-504 208.248,-504 223.717,-504"/>
<polygon fill="midnightblue" stroke="midnightblue" points="223.79,-507.5 233.79,-504 223.79,-500.5 223.79,-507.5"/>
</g>
<!-- Node3&#45;&gt;Node4 -->
<g id="edge3" class="edge"><title>Node3&#45;&gt;Node4</title>
<path fill="none" stroke="midnightblue" d="M337.898,-494.411C360.534,-489.351 388.498,-483.1 412.429,-477.751"/>
<polygon fill="midnightblue" stroke="midnightblue" points="413.415,-481.117 422.41,-475.52 411.888,-474.286 413.415,-481.117"/>
</g>
<!-- Node4&#45;&gt;Node4 -->
<g id="edge5" class="edge"><title>Node4&#45;&gt;Node4</title>
<path fill="none" stroke="midnightblue" d="M439.49,-475.757C426.593,-484.565 435.43,-494 466,-494 486.539,-494 497.268,-489.741 498.186,-484.275"/>
<polygon fill="midnightblue" stroke="midnightblue" points="500.968,-482.138 492.51,-475.757 495.143,-486.02 500.968,-482.138"/>
</g>
<!-- Node5 -->
<g id="node5" class="node"><title>Node5</title>
<g id="a_node5"><a xlink:href="$d2/d76/class_c_g_l_object.xhtml#a80d01439776edc9443b47a7a9e5b9e94" xlink:title="CGLObject::isChild">
<polygon fill="white" stroke="black" points="602.5,-456.5 602.5,-475.5 703.5,-475.5 703.5,-456.5 602.5,-456.5"/>
<text text-anchor="middle" x="653" y="-463.5" font-family="Helvetica,sans-Serif" font-size="10.00">CGLObject::isChild</text>
</a>
</g>
</g>
<!-- Node4&#45;&gt;Node5 -->
<g id="edge4" class="edge"><title>Node4&#45;&gt;Node5</title>
<path fill="none" stroke="midnightblue" d="M524.016,-466C545.645,-466 570.326,-466 592.205,-466"/>
<polygon fill="midnightblue" stroke="midnightblue" points="592.366,-469.5 602.366,-466 592.366,-462.5 592.366,-469.5"/>
</g>
<!-- Node11&#45;&gt;Node4 -->
<g id="edge13" class="edge"><title>Node11&#45;&gt;Node4</title>
<path fill="none" stroke="midnightblue" d="M337.898,-437.589C360.534,-442.649 388.498,-448.9 412.429,-454.249"/>
<polygon fill="midnightblue" stroke="midnightblue" points="411.888,-457.714 422.41,-456.48 413.415,-450.883 411.888,-457.714"/>
</g>
<!-- Node18 -->
<g id="node18" class="node"><title>Node18</title>
<g id="a_node18"><a xlink:href="$dd/d40/class_c_g_l_window.xhtml#a87ea72d63fe563266178e72a19722e5d" xlink:title="CGLWindow::loop">
<polygon fill="white" stroke="black" points="246,-114.5 246,-133.5 342,-133.5 342,-114.5 246,-114.5"/>
<text text-anchor="middle" x="294" y="-121.5" font-family="Helvetica,sans-Serif" font-size="10.00">CGLWindow::loop</text>
</a>
</g>
</g>
<!-- Node17&#45;&gt;Node18 -->
<g id="edge20" class="edge"><title>Node17&#45;&gt;Node18</title>
<path fill="none" stroke="midnightblue" d="M177.574,-19.6045C184.646,-22.1159 191.735,-25.2131 198,-29 232.059,-49.5868 262.919,-84.9328 279.714,-106.219"/>
<polygon fill="midnightblue" stroke="midnightblue" points="277.141,-108.614 286.019,-114.396 282.685,-104.34 277.141,-108.614"/>
</g>
<!-- Node18&#45;&gt;Node6 -->
<g id="edge21" class="edge"><title>Node18&#45;&gt;Node6</title>
<path fill="none" stroke="midnightblue" d="M342.039,-124C399.516,-124 497.8,-124 568.296,-124"/>
<polygon fill="midnightblue" stroke="midnightblue" points="568.487,-127.5 578.487,-124 568.487,-120.5 568.487,-127.5"/>
</g>
<!-- Node18&#45;&gt;Node7 -->
<g id="edge22" class="edge"><title>Node18&#45;&gt;Node7</title>
<path fill="none" stroke="midnightblue" d="M301.875,-133.784C316.034,-153.17 350.456,-196.528 390,-219 393.916,-221.225 398.093,-223.194 402.395,-224.934"/>
<polygon fill="midnightblue" stroke="midnightblue" points="401.366,-228.284 411.961,-228.392 403.746,-221.701 401.366,-228.284"/>
</g>
<!-- Node19 -->
<g id="node19" class="node"><title>Node19</title>
<g id="a_node19"><a xlink:href="$d9/d85/class_c_g_l_scene.xhtml#afa2e2794f2f8c6b80b293703e411f7fe" xlink:title="CGLScene::getCurrentCamera">
<polygon fill="white" stroke="black" points="390.5,-38.5 390.5,-57.5 541.5,-57.5 541.5,-38.5 390.5,-38.5"/>
<text text-anchor="middle" x="466" y="-45.5" font-family="Helvetica,sans-Serif" font-size="10.00">CGLScene::getCurrentCamera</text>
</a>
</g>
</g>
<!-- Node18&#45;&gt;Node19 -->
<g id="edge23" class="edge"><title>Node18&#45;&gt;Node19</title>
<path fill="none" stroke="midnightblue" d="M308.18,-114.375C325.94,-101.818 358.923,-79.9297 390,-67 395.86,-64.562 402.111,-62.3768 408.411,-60.434"/>
<polygon fill="midnightblue" stroke="midnightblue" points="409.662,-63.7156 418.299,-57.5791 407.721,-56.9903 409.662,-63.7156"/>
</g>
<!-- Node21 -->
<g id="node21" class="node"><title>Node21</title>
<g id="a_node21"><a xlink:href="$de/dee/class_c_g_l_camera.xhtml#ad0f4898351c8df558a627102f233ded8" xlink:title="CGLCamera::onMouseButton">
<polygon fill="white" stroke="black" points="393,-190.5 393,-209.5 539,-209.5 539,-190.5 393,-190.5"/>
<text text-anchor="middle" x="466" y="-197.5" font-family="Helvetica,sans-Serif" font-size="10.00">CGLCamera::onMouseButton</text>
</a>
</g>
</g>
<!-- Node18&#45;&gt;Node21 -->
<g id="edge25" class="edge"><title>Node18&#45;&gt;Node21</title>
<path fill="none" stroke="midnightblue" d="M308.18,-133.625C325.94,-146.182 358.923,-168.07 390,-181 395.86,-183.438 402.111,-185.623 408.411,-187.566"/>
<polygon fill="midnightblue" stroke="midnightblue" points="407.721,-191.01 418.299,-190.421 409.662,-184.284 407.721,-191.01"/>
</g>
<!-- Node22 -->
<g id="node22" class="node"><title>Node22</title>
<g id="a_node22"><a xlink:href="$dd/d40/class_c_g_l_window.xhtml#a480062f802f92f94e8b737a96171012c" xlink:title="CGLWindow::onResize">
<polygon fill="white" stroke="black" points="406.5,-152.5 406.5,-171.5 525.5,-171.5 525.5,-152.5 406.5,-152.5"/>
<text text-anchor="middle" x="466" y="-159.5" font-family="Helvetica,sans-Serif" font-size="10.00">CGLWindow::onResize</text>
</a>
</g>
</g>
<!-- Node18&#45;&gt;Node22 -->
<g id="edge26" class="edge"><title>Node18&#45;&gt;Node22</title>
<path fill="none" stroke="midnightblue" d="M337.898,-133.589C360.534,-138.649 388.498,-144.9 412.429,-150.249"/>
<polygon fill="midnightblue" stroke="midnightblue" points="411.888,-153.714 422.41,-152.48 413.415,-146.883 411.888,-153.714"/>
</g>
<!-- Node23 -->
<g id="node23" class="node"><title>Node23</title>
<g id="a_node23"><a xlink:href="$dd/d40/class_c_g_l_window.xhtml#adf4d06d51db7221820cb7f22080d51f2" xlink:title="CGLWindow::draw">
<polygon fill="white" stroke="black" points="416.5,-76.5 416.5,-95.5 515.5,-95.5 515.5,-76.5 416.5,-76.5"/>
<text text-anchor="middle" x="466" y="-83.5" font-family="Helvetica,sans-Serif" font-size="10.00">CGLWindow::draw</text>
</a>
</g>
</g>
<!-- Node18&#45;&gt;Node23 -->
<g id="edge27" class="edge"><title>Node18&#45;&gt;Node23</title>
<path fill="none" stroke="midnightblue" d="M337.898,-114.411C360.534,-109.351 388.498,-103.1 412.429,-97.7512"/>
<polygon fill="midnightblue" stroke="midnightblue" points="413.415,-101.117 422.41,-95.5201 411.888,-94.2859 413.415,-101.117"/>
</g>
<!-- Node20 -->
<g id="node20" class="node"><title>Node20</title>
<g id="a_node20"><a xlink:href="$d2/d76/class_c_g_l_object.xhtml#a17159bf8a16301adca577be4311806d1" xlink:title="CGLObject::getCurrentObject">
<polygon fill="white" stroke="black" points="580,-38.5 580,-57.5 726,-57.5 726,-38.5 580,-38.5"/>
<text text-anchor="middle" x="653" y="-45.5" font-family="Helvetica,sans-Serif" font-size="10.00">CGLObject::getCurrentObject</text>
</a>
</g>
</g>
<!-- Node19&#45;&gt;Node20 -->
<g id="edge24" class="edge"><title>Node19&#45;&gt;Node20</title>
<path fill="none" stroke="midnightblue" d="M541.713,-48C550.919,-48 560.369,-48 569.679,-48"/>
<polygon fill="midnightblue" stroke="midnightblue" points="569.709,-51.5001 579.709,-48 569.709,-44.5001 569.709,-51.5001"/>
</g>
<!-- Node23&#45;&gt;Node6 -->
<g id="edge28" class="edge"><title>Node23&#45;&gt;Node6</title>
<path fill="none" stroke="midnightblue" d="M513.683,-95.589C538.646,-100.716 569.564,-107.067 595.834,-112.463"/>
<polygon fill="midnightblue" stroke="midnightblue" points="595.153,-115.896 605.652,-114.48 596.561,-109.039 595.153,-115.896"/>
</g>
<!-- Node24 -->
<g id="node24" class="node"><title>Node24</title>
<g id="a_node24"><a xlink:href="$db/da4/class_c_g_l_world.xhtml#a7dd174b6096cb7c798f7b4518e4842dc" xlink:title="CGLWorld::draw">
<polygon fill="white" stroke="black" points="608.5,-76.5 608.5,-95.5 697.5,-95.5 697.5,-76.5 608.5,-76.5"/>
<text text-anchor="middle" x="653" y="-83.5" font-family="Helvetica,sans-Serif" font-size="10.00">CGLWorld::draw</text>
</a>
</g>
</g>
<!-- Node23&#45;&gt;Node24 -->
<g id="edge29" class="edge"><title>Node23&#45;&gt;Node24</title>
<path fill="none" stroke="midnightblue" d="M515.607,-86C541.03,-86 572.212,-86 598.341,-86"/>
<polygon fill="midnightblue" stroke="midnightblue" points="598.454,-89.5001 608.454,-86 598.454,-82.5001 598.454,-89.5001"/>
</g>
</g>
</svg>
