<?xml version="1.0" encoding="UTF-8" standalone="no"?>
<!DOCTYPE svg PUBLIC "-//W3C//DTD SVG 1.1//EN"
 "http://www.w3.org/Graphics/SVG/1.1/DTD/svg11.dtd">
<!-- Generated by graphviz version 2.36.0 (20140111.2315)
 -->
<!-- Title: main Pages: 1 -->
<svg width="748pt" height="654pt"
 viewBox="0.00 0.00 748.00 654.00" xmlns="http://www.w3.org/2000/svg" xmlns:xlink="http://www.w3.org/1999/xlink">
<g id="graph0" class="graph" transform="scale(1 1) rotate(0) translate(4 650)">
<title>main</title>
<polygon fill="white" stroke="none" points="-4,4 -4,-650 744,-650 744,4 -4,4"/>
<!-- Node1 -->
<g id="node1" class="node"><title>Node1</title>
<polygon fill="#bfbfbf" stroke="black" points="0,-304.5 0,-323.5 38,-323.5 38,-304.5 0,-304.5"/>
<text text-anchor="middle" x="19" y="-311.5" font-family="Helvetica,sans-Serif" font-size="10.00">main</text>
</g>
<!-- Node2 -->
<g id="node2" class="node"><title>Node2</title>
<g id="a_node2"><a xlink:href="$d2/d76/class_c_g_l_object.xhtml#aa08cbbe873bf264dbb34f233bd21844b" xlink:title="CGLObject::init">
<polygon fill="white" stroke="black" points="98,-536.5 98,-555.5 182,-555.5 182,-536.5 98,-536.5"/>
<text text-anchor="middle" x="140" y="-543.5" font-family="Helvetica,sans-Serif" font-size="10.00">CGLObject::init</text>
</a>
</g>
</g>
<!-- Node1&#45;&gt;Node2 -->
<g id="edge1" class="edge"><title>Node1&#45;&gt;Node2</title>
<path fill="none" stroke="midnightblue" d="M19.8433,-323.729C19.8479,-355.345 23.9663,-456.574 74,-516 79.6384,-522.697 87.095,-527.98 94.9422,-532.12"/>
<polygon fill="midnightblue" stroke="midnightblue" points="93.707,-535.406 104.248,-536.471 96.6719,-529.065 93.707,-535.406"/>
</g>
<!-- Node4 -->
<g id="node4" class="node"><title>Node4</title>
<g id="a_node4"><a xlink:href="$d2/d76/class_c_g_l_object.xhtml#a83b8918905a5449c94e4447791b61abd" xlink:title="CGLObject::addObject">
<polygon fill="white" stroke="black" points="420,-608.5 420,-627.5 536,-627.5 536,-608.5 420,-608.5"/>
<text text-anchor="middle" x="478" y="-615.5" font-family="Helvetica,sans-Serif" font-size="10.00">CGLObject::addObject</text>
</a>
</g>
</g>
<!-- Node1&#45;&gt;Node4 -->
<g id="edge18" class="edge"><title>Node1&#45;&gt;Node4</title>
<path fill="none" stroke="midnightblue" d="M20.6391,-323.758C23.6043,-365.855 37.4607,-531.312 74,-565 168.447,-652.078 332.355,-642.113 419.177,-629.088"/>
<polygon fill="midnightblue" stroke="midnightblue" points="419.78,-632.537 429.118,-627.533 418.697,-625.621 419.78,-632.537"/>
</g>
<!-- Node6 -->
<g id="node6" class="node"><title>Node6</title>
<g id="a_node6"><a xlink:href="$dd/d40/class_c_g_l_window.xhtml#a8875c26fc11c333f7bbf2b517a2befd0" xlink:title="CGLWindow::getCurrentWorld">
<polygon fill="white" stroke="black" points="590.5,-456.5 590.5,-475.5 739.5,-475.5 739.5,-456.5 590.5,-456.5"/>
<text text-anchor="middle" x="665" y="-463.5" font-family="Helvetica,sans-Serif" font-size="10.00">CGLWindow::getCurrentWorld</text>
</a>
</g>
</g>
<!-- Node1&#45;&gt;Node6 -->
<g id="edge6" class="edge"><title>Node1&#45;&gt;Node6</title>
<path fill="none" stroke="midnightblue" d="M38.1553,-321.716C48.4764,-325.763 61.7493,-330.406 74,-333 283.359,-377.331 356.534,-288.516 554,-371 594.673,-387.989 631.056,-426.026 650.066,-448.476"/>
<polygon fill="midnightblue" stroke="midnightblue" points="647.409,-450.756 656.474,-456.241 652.808,-446.3 647.409,-450.756"/>
</g>
<!-- Node7 -->
<g id="node7" class="node"><title>Node7</title>
<g id="a_node7"><a xlink:href="$db/da4/class_c_g_l_world.xhtml#a266821b98f90eae32b670ff4def8b948" xlink:title="CGLWorld::getCurrentScene">
<polygon fill="white" stroke="black" points="407,-380.5 407,-399.5 549,-399.5 549,-380.5 407,-380.5"/>
<text text-anchor="middle" x="478" y="-387.5" font-family="Helvetica,sans-Serif" font-size="10.00">CGLWorld::getCurrentScene</text>
</a>
</g>
</g>
<!-- Node1&#45;&gt;Node7 -->
<g id="edge7" class="edge"><title>Node1&#45;&gt;Node7</title>
<path fill="none" stroke="midnightblue" d="M26.6875,-323.79C35.7655,-336.154 53.258,-356.911 74,-366 180.258,-412.564 317.584,-408.947 401.382,-400.575"/>
<polygon fill="midnightblue" stroke="midnightblue" points="401.749,-404.055 411.33,-399.533 401.02,-397.093 401.749,-404.055"/>
</g>
<!-- Node8 -->
<g id="node8" class="node"><title>Node8</title>
<g id="a_node8"><a xlink:href="$d2/d76/class_c_g_l_object.xhtml#aacbe6a176989b2cef7bc2be472d5c512" xlink:title="CGLObject::setName">
<polygon fill="white" stroke="black" points="84.5,-304.5 84.5,-323.5 195.5,-323.5 195.5,-304.5 84.5,-304.5"/>
<text text-anchor="middle" x="140" y="-311.5" font-family="Helvetica,sans-Serif" font-size="10.00">CGLObject::setName</text>
</a>
</g>
</g>
<!-- Node1&#45;&gt;Node8 -->
<g id="edge8" class="edge"><title>Node1&#45;&gt;Node8</title>
<path fill="none" stroke="midnightblue" d="M38.0735,-314C47.9697,-314 60.9011,-314 74.1886,-314"/>
<polygon fill="midnightblue" stroke="midnightblue" points="74.3747,-317.5 84.3746,-314 74.3746,-310.5 74.3747,-317.5"/>
</g>
<!-- Node9 -->
<g id="node9" class="node"><title>Node9</title>
<g id="a_node9"><a xlink:href="$d6/df9/class_c_g_l_vector3_d.xhtml#a15014f4427c214f64699590591cacc8f" xlink:title="CGLVector3D::set">
<polygon fill="white" stroke="black" points="255,-190.5 255,-209.5 353,-209.5 353,-190.5 255,-190.5"/>
<text text-anchor="middle" x="304" y="-197.5" font-family="Helvetica,sans-Serif" font-size="10.00">CGLVector3D::set</text>
</a>
</g>
</g>
<!-- Node1&#45;&gt;Node9 -->
<g id="edge9" class="edge"><title>Node1&#45;&gt;Node9</title>
<path fill="none" stroke="midnightblue" d="M22.2635,-304.393C27.5037,-284.529 42.502,-239.116 74,-219 124.694,-186.625 195.109,-185.795 244.431,-190.582"/>
<polygon fill="midnightblue" stroke="midnightblue" points="244.304,-194.088 254.621,-191.68 245.053,-187.129 244.304,-194.088"/>
</g>
<!-- Node13 -->
<g id="node13" class="node"><title>Node13</title>
<g id="a_node13"><a xlink:href="$db/d79/class_c_g_l_vector4_d.xhtml#a9f4c89b5e30ad2cfb18327e5e17257ab" xlink:title="CGLVector4D::set">
<polygon fill="white" stroke="black" points="255,-152.5 255,-171.5 353,-171.5 353,-152.5 255,-152.5"/>
<text text-anchor="middle" x="304" y="-159.5" font-family="Helvetica,sans-Serif" font-size="10.00">CGLVector4D::set</text>
</a>
</g>
</g>
<!-- Node1&#45;&gt;Node13 -->
<g id="edge13" class="edge"><title>Node1&#45;&gt;Node13</title>
<path fill="none" stroke="midnightblue" d="M19.5317,-304.465C18.6491,-274.548 20.514,-182.199 74,-143 101.452,-122.881 194.042,-138.022 252.743,-150.358"/>
<polygon fill="midnightblue" stroke="midnightblue" points="252.06,-153.791 262.572,-152.463 253.527,-146.946 252.06,-153.791"/>
</g>
<!-- Node15 -->
<g id="node15" class="node"><title>Node15</title>
<g id="a_node15"><a xlink:href="$d9/d85/class_c_g_l_scene.xhtml#aca6d85a7e345751c7fa58ca68bde3ea2" xlink:title="CGLScene::addItem">
<polygon fill="white" stroke="black" points="87,-487.5 87,-506.5 193,-506.5 193,-487.5 87,-487.5"/>
<text text-anchor="middle" x="140" y="-494.5" font-family="Helvetica,sans-Serif" font-size="10.00">CGLScene::addItem</text>
</a>
</g>
</g>
<!-- Node1&#45;&gt;Node15 -->
<g id="edge19" class="edge"><title>Node1&#45;&gt;Node15</title>
<path fill="none" stroke="midnightblue" d="M20.9119,-323.842C23.8357,-350.135 35.1878,-422.941 74,-466 80.3931,-473.093 88.757,-478.713 97.3467,-483.107"/>
<polygon fill="midnightblue" stroke="midnightblue" points="96.1268,-486.399 106.674,-487.406 99.0572,-480.041 96.1268,-486.399"/>
</g>
<!-- Node16 -->
<g id="node16" class="node"><title>Node16</title>
<g id="a_node16"><a xlink:href="$d8/d97/class_c_g_l_vector2_d.xhtml#ad3830da7d5449a24927930329d3304dd" xlink:title="CGLVector2D::setMinMax">
<polygon fill="white" stroke="black" points="74,-76.5 74,-95.5 206,-95.5 206,-76.5 74,-76.5"/>
<text text-anchor="middle" x="140" y="-83.5" font-family="Helvetica,sans-Serif" font-size="10.00">CGLVector2D::setMinMax</text>
</a>
</g>
</g>
<!-- Node1&#45;&gt;Node16 -->
<g id="edge21" class="edge"><title>Node1&#45;&gt;Node16</title>
<path fill="none" stroke="midnightblue" d="M19.6339,-304.463C18.9377,-272.556 21.0078,-168.278 74,-110 77.5014,-106.149 81.6759,-102.915 86.196,-100.198"/>
<polygon fill="midnightblue" stroke="midnightblue" points="87.9138,-103.251 95.2282,-95.5857 84.7304,-97.0165 87.9138,-103.251"/>
</g>
<!-- Node21 -->
<g id="node21" class="node"><title>Node21</title>
<g id="a_node21"><a xlink:href="$de/d31/class_c_g_l_position.xhtml#a729e7b3f01b8c735d60d8c51b6610eef" xlink:title="CGLPosition::setSpeed">
<polygon fill="white" stroke="black" points="80.5,-152.5 80.5,-171.5 199.5,-171.5 199.5,-152.5 80.5,-152.5"/>
<text text-anchor="middle" x="140" y="-159.5" font-family="Helvetica,sans-Serif" font-size="10.00">CGLPosition::setSpeed</text>
</a>
</g>
</g>
<!-- Node1&#45;&gt;Node21 -->
<g id="edge26" class="edge"><title>Node1&#45;&gt;Node21</title>
<path fill="none" stroke="midnightblue" d="M21.4334,-304.162C25.3871,-280.492 38.6003,-219.824 74,-186 78.2346,-181.954 83.2095,-178.579 88.49,-175.766"/>
<polygon fill="midnightblue" stroke="midnightblue" points="89.9913,-178.928 97.5885,-171.543 87.0444,-172.578 89.9913,-178.928"/>
</g>
<!-- Node22 -->
<g id="node22" class="node"><title>Node22</title>
<g id="a_node22"><a xlink:href="$de/d31/class_c_g_l_position.xhtml#a5a43a8991d3d8ca645edbcfb0e97db20" xlink:title="CGLPosition::setAccel">
<polygon fill="white" stroke="black" points="82,-228.5 82,-247.5 198,-247.5 198,-228.5 82,-228.5"/>
<text text-anchor="middle" x="140" y="-235.5" font-family="Helvetica,sans-Serif" font-size="10.00">CGLPosition::setAccel</text>
</a>
</g>
</g>
<!-- Node1&#45;&gt;Node22 -->
<g id="edge28" class="edge"><title>Node1&#45;&gt;Node22</title>
<path fill="none" stroke="midnightblue" d="M27.8416,-304.317C37.5931,-292.829 55.2554,-273.755 74,-262 80.6641,-257.821 88.1647,-254.211 95.6397,-251.152"/>
<polygon fill="midnightblue" stroke="midnightblue" points="96.9333,-254.404 105.029,-247.57 94.4386,-247.864 96.9333,-254.404"/>
</g>
<!-- Node23 -->
<g id="node23" class="node"><title>Node23</title>
<g id="a_node23"><a xlink:href="$d4/dd5/class_c_g_l_rotation.xhtml#a2b767e088f36ceef91e7259c76f7390e" xlink:title="CGLRotation::set">
<polygon fill="white" stroke="black" points="257.5,-228.5 257.5,-247.5 350.5,-247.5 350.5,-228.5 257.5,-228.5"/>
<text text-anchor="middle" x="304" y="-235.5" font-family="Helvetica,sans-Serif" font-size="10.00">CGLRotation::set</text>
</a>
</g>
</g>
<!-- Node1&#45;&gt;Node23 -->
<g id="edge30" class="edge"><title>Node1&#45;&gt;Node23</title>
<path fill="none" stroke="midnightblue" d="M38.3529,-307.058C48.7358,-303.253 62.0046,-298.594 74,-295 133.598,-277.141 203.07,-260.413 249.73,-249.758"/>
<polygon fill="midnightblue" stroke="midnightblue" points="250.643,-253.14 259.62,-247.513 249.093,-246.314 250.643,-253.14"/>
</g>
<!-- Node24 -->
<g id="node24" class="node"><title>Node24</title>
<g id="a_node24"><a xlink:href="$dd/d40/class_c_g_l_window.xhtml#acee59c3d1b3a12c43fccf7f225c98dd6" xlink:title="CGLWindow::exec">
<polygon fill="white" stroke="black" points="90.5,-437.5 90.5,-456.5 189.5,-456.5 189.5,-437.5 90.5,-437.5"/>
<text text-anchor="middle" x="140" y="-444.5" font-family="Helvetica,sans-Serif" font-size="10.00">CGLWindow::exec</text>
</a>
</g>
</g>
<!-- Node1&#45;&gt;Node24 -->
<g id="edge34" class="edge"><title>Node1&#45;&gt;Node24</title>
<path fill="none" stroke="midnightblue" d="M24.0223,-323.597C31.7215,-341.132 49.9378,-378.855 74,-404 84.6599,-415.14 98.7088,-424.882 111.018,-432.264"/>
<polygon fill="midnightblue" stroke="midnightblue" points="109.592,-435.482 120.006,-437.433 113.082,-429.414 109.592,-435.482"/>
</g>
<!-- Node3 -->
<g id="node3" class="node"><title>Node3</title>
<g id="a_node3"><a xlink:href="$d2/d76/class_c_g_l_object.xhtml#add00987cd4a5ee06cc4436766392434b" xlink:title="CGLObject::CGLObject">
<polygon fill="white" stroke="black" points="244,-546.5 244,-565.5 364,-565.5 364,-546.5 244,-546.5"/>
<text text-anchor="middle" x="304" y="-553.5" font-family="Helvetica,sans-Serif" font-size="10.00">CGLObject::CGLObject</text>
</a>
</g>
</g>
<!-- Node2&#45;&gt;Node3 -->
<g id="edge2" class="edge"><title>Node2&#45;&gt;Node3</title>
<path fill="none" stroke="midnightblue" d="M182.299,-548.549C197.893,-549.512 216.096,-550.636 233.565,-551.714"/>
<polygon fill="midnightblue" stroke="midnightblue" points="233.545,-555.219 243.741,-552.342 233.976,-548.233 233.545,-555.219"/>
</g>
<!-- Node3&#45;&gt;Node4 -->
<g id="edge3" class="edge"><title>Node3&#45;&gt;Node4</title>
<path fill="none" stroke="midnightblue" d="M323.939,-565.545C343.217,-574.984 374.143,-589.374 402,-599 409.15,-601.471 416.784,-603.774 424.343,-605.864"/>
<polygon fill="midnightblue" stroke="midnightblue" points="423.627,-609.295 434.19,-608.484 425.427,-602.53 423.627,-609.295"/>
</g>
<!-- Node4&#45;&gt;Node4 -->
<g id="edge5" class="edge"><title>Node4&#45;&gt;Node4</title>
<path fill="none" stroke="midnightblue" d="M451.182,-627.757C438.135,-636.565 447.074,-646 478,-646 498.778,-646 509.632,-641.741 510.56,-636.275"/>
<polygon fill="midnightblue" stroke="midnightblue" points="513.31,-634.093 504.818,-627.757 507.506,-638.005 513.31,-634.093"/>
</g>
<!-- Node5 -->
<g id="node5" class="node"><title>Node5</title>
<g id="a_node5"><a xlink:href="$d2/d76/class_c_g_l_object.xhtml#a80d01439776edc9443b47a7a9e5b9e94" xlink:title="CGLObject::isChild">
<polygon fill="white" stroke="black" points="614.5,-608.5 614.5,-627.5 715.5,-627.5 715.5,-608.5 614.5,-608.5"/>
<text text-anchor="middle" x="665" y="-615.5" font-family="Helvetica,sans-Serif" font-size="10.00">CGLObject::isChild</text>
</a>
</g>
</g>
<!-- Node4&#45;&gt;Node5 -->
<g id="edge4" class="edge"><title>Node4&#45;&gt;Node5</title>
<path fill="none" stroke="midnightblue" d="M536.016,-618C557.645,-618 582.326,-618 604.205,-618"/>
<polygon fill="midnightblue" stroke="midnightblue" points="604.366,-621.5 614.366,-618 604.366,-614.5 604.366,-621.5"/>
</g>
<!-- Node10 -->
<g id="node10" class="node"><title>Node10</title>
<g id="a_node10"><a xlink:href="$d8/d97/class_c_g_l_vector2_d.xhtml#a22db1a511fae81b0d7a6766b6490dd8c" xlink:title="CGLVector2D::setX">
<polygon fill="white" stroke="black" points="426,-228.5 426,-247.5 530,-247.5 530,-228.5 426,-228.5"/>
<text text-anchor="middle" x="478" y="-235.5" font-family="Helvetica,sans-Serif" font-size="10.00">CGLVector2D::setX</text>
</a>
</g>
</g>
<!-- Node9&#45;&gt;Node10 -->
<g id="edge10" class="edge"><title>Node9&#45;&gt;Node10</title>
<path fill="none" stroke="midnightblue" d="M348.403,-209.589C371.407,-214.671 399.851,-220.955 424.134,-226.32"/>
<polygon fill="midnightblue" stroke="midnightblue" points="423.39,-229.74 433.909,-228.48 424.9,-222.905 423.39,-229.74"/>
</g>
<!-- Node11 -->
<g id="node11" class="node"><title>Node11</title>
<g id="a_node11"><a xlink:href="$d8/d97/class_c_g_l_vector2_d.xhtml#a4c89a21e28a86848c6b023ad60baef4c" xlink:title="CGLVector2D::setY">
<polygon fill="white" stroke="black" points="426,-190.5 426,-209.5 530,-209.5 530,-190.5 426,-190.5"/>
<text text-anchor="middle" x="478" y="-197.5" font-family="Helvetica,sans-Serif" font-size="10.00">CGLVector2D::setY</text>
</a>
</g>
</g>
<!-- Node9&#45;&gt;Node11 -->
<g id="edge11" class="edge"><title>Node9&#45;&gt;Node11</title>
<path fill="none" stroke="midnightblue" d="M353.369,-200C372.75,-200 395.306,-200 415.805,-200"/>
<polygon fill="midnightblue" stroke="midnightblue" points="415.994,-203.5 425.994,-200 415.994,-196.5 415.994,-203.5"/>
</g>
<!-- Node12 -->
<g id="node12" class="node"><title>Node12</title>
<g id="a_node12"><a xlink:href="$d6/df9/class_c_g_l_vector3_d.xhtml#afef476ba51f4f45cb9d64e5d6c1592a4" xlink:title="CGLVector3D::setZ">
<polygon fill="white" stroke="black" points="426,-152.5 426,-171.5 530,-171.5 530,-152.5 426,-152.5"/>
<text text-anchor="middle" x="478" y="-159.5" font-family="Helvetica,sans-Serif" font-size="10.00">CGLVector3D::setZ</text>
</a>
</g>
</g>
<!-- Node9&#45;&gt;Node12 -->
<g id="edge12" class="edge"><title>Node9&#45;&gt;Node12</title>
<path fill="none" stroke="midnightblue" d="M348.403,-190.411C371.407,-185.329 399.851,-179.045 424.134,-173.68"/>
<polygon fill="midnightblue" stroke="midnightblue" points="424.9,-177.095 433.909,-171.52 423.39,-170.26 424.9,-177.095"/>
</g>
<!-- Node13&#45;&gt;Node10 -->
<g id="edge14" class="edge"><title>Node13&#45;&gt;Node10</title>
<path fill="none" stroke="midnightblue" d="M345.98,-171.58C352.936,-174.086 359.881,-177.187 366,-181 385.746,-193.302 381.93,-207.234 402,-219 406.449,-221.608 411.25,-223.861 416.197,-225.807"/>
<polygon fill="midnightblue" stroke="midnightblue" points="415.244,-229.182 425.839,-229.183 417.557,-222.575 415.244,-229.182"/>
</g>
<!-- Node13&#45;&gt;Node11 -->
<g id="edge15" class="edge"><title>Node13&#45;&gt;Node11</title>
<path fill="none" stroke="midnightblue" d="M348.403,-171.589C371.407,-176.671 399.851,-182.955 424.134,-188.32"/>
<polygon fill="midnightblue" stroke="midnightblue" points="423.39,-191.74 433.909,-190.48 424.9,-184.905 423.39,-191.74"/>
</g>
<!-- Node13&#45;&gt;Node12 -->
<g id="edge16" class="edge"><title>Node13&#45;&gt;Node12</title>
<path fill="none" stroke="midnightblue" d="M353.369,-162C372.75,-162 395.306,-162 415.805,-162"/>
<polygon fill="midnightblue" stroke="midnightblue" points="415.994,-165.5 425.994,-162 415.994,-158.5 415.994,-165.5"/>
</g>
<!-- Node14 -->
<g id="node14" class="node"><title>Node14</title>
<g id="a_node14"><a xlink:href="$db/d79/class_c_g_l_vector4_d.xhtml#a754d8afb0203dc8048dac865840565ae" xlink:title="CGLVector4D::setW">
<polygon fill="white" stroke="black" points="424.5,-114.5 424.5,-133.5 531.5,-133.5 531.5,-114.5 424.5,-114.5"/>
<text text-anchor="middle" x="478" y="-121.5" font-family="Helvetica,sans-Serif" font-size="10.00">CGLVector4D::setW</text>
</a>
</g>
</g>
<!-- Node13&#45;&gt;Node14 -->
<g id="edge17" class="edge"><title>Node13&#45;&gt;Node14</title>
<path fill="none" stroke="midnightblue" d="M348.403,-152.411C371.407,-147.329 399.851,-141.045 424.134,-135.68"/>
<polygon fill="midnightblue" stroke="midnightblue" points="424.9,-139.095 433.909,-133.52 423.39,-132.26 424.9,-139.095"/>
</g>
<!-- Node15&#45;&gt;Node4 -->
<g id="edge20" class="edge"><title>Node15&#45;&gt;Node4</title>
<path fill="none" stroke="midnightblue" d="M193.021,-494.302C241.895,-494.343 314.956,-501.299 366,-537 392.111,-555.263 376.565,-579.807 402,-599 404.681,-601.023 407.553,-602.831 410.554,-604.449"/>
<polygon fill="midnightblue" stroke="midnightblue" points="409.333,-607.74 419.88,-608.75 412.264,-601.384 409.333,-607.74"/>
</g>
<!-- Node17 -->
<g id="node17" class="node"><title>Node17</title>
<g id="a_node17"><a xlink:href="$d8/d97/class_c_g_l_vector2_d.xhtml#a2619a94f4fe5227cf3d23a6cb001bb7f" xlink:title="CGLVector2D::setMinX">
<polygon fill="white" stroke="black" points="244,-0.5 244,-19.5 364,-19.5 364,-0.5 244,-0.5"/>
<text text-anchor="middle" x="304" y="-7.5" font-family="Helvetica,sans-Serif" font-size="10.00">CGLVector2D::setMinX</text>
</a>
</g>
</g>
<!-- Node16&#45;&gt;Node17 -->
<g id="edge22" class="edge"><title>Node16&#45;&gt;Node17</title>
<path fill="none" stroke="midnightblue" d="M155.55,-76.4792C174.738,-64.235 209.84,-42.8965 242,-29 247.155,-26.7726 252.656,-24.6831 258.166,-22.7642"/>
<polygon fill="midnightblue" stroke="midnightblue" points="259.626,-25.9676 268.018,-19.5011 257.425,-19.3226 259.626,-25.9676"/>
</g>
<!-- Node18 -->
<g id="node18" class="node"><title>Node18</title>
<g id="a_node18"><a xlink:href="$d8/d97/class_c_g_l_vector2_d.xhtml#a70d980ebd6f0dd51f389343b11664c98" xlink:title="CGLVector2D::setMaxX">
<polygon fill="white" stroke="black" points="242.5,-114.5 242.5,-133.5 365.5,-133.5 365.5,-114.5 242.5,-114.5"/>
<text text-anchor="middle" x="304" y="-121.5" font-family="Helvetica,sans-Serif" font-size="10.00">CGLVector2D::setMaxX</text>
</a>
</g>
</g>
<!-- Node16&#45;&gt;Node18 -->
<g id="edge23" class="edge"><title>Node16&#45;&gt;Node18</title>
<path fill="none" stroke="midnightblue" d="M181.879,-95.589C203.353,-100.626 229.86,-106.844 252.597,-112.177"/>
<polygon fill="midnightblue" stroke="midnightblue" points="251.879,-115.604 262.415,-114.48 253.478,-108.789 251.879,-115.604"/>
</g>
<!-- Node19 -->
<g id="node19" class="node"><title>Node19</title>
<g id="a_node19"><a xlink:href="$d8/d97/class_c_g_l_vector2_d.xhtml#af8c0f1ed3b2c3662071875ff89eab40e" xlink:title="CGLVector2D::setMinY">
<polygon fill="white" stroke="black" points="244,-76.5 244,-95.5 364,-95.5 364,-76.5 244,-76.5"/>
<text text-anchor="middle" x="304" y="-83.5" font-family="Helvetica,sans-Serif" font-size="10.00">CGLVector2D::setMinY</text>
</a>
</g>
</g>
<!-- Node16&#45;&gt;Node19 -->
<g id="edge24" class="edge"><title>Node16&#45;&gt;Node19</title>
<path fill="none" stroke="midnightblue" d="M206.425,-86C215.421,-86 224.683,-86 233.746,-86"/>
<polygon fill="midnightblue" stroke="midnightblue" points="233.867,-89.5001 243.867,-86 233.867,-82.5001 233.867,-89.5001"/>
</g>
<!-- Node20 -->
<g id="node20" class="node"><title>Node20</title>
<g id="a_node20"><a xlink:href="$d8/d97/class_c_g_l_vector2_d.xhtml#a7ead92fc71694b48abd96685e9c41890" xlink:title="CGLVector2D::setMaxY">
<polygon fill="white" stroke="black" points="242.5,-38.5 242.5,-57.5 365.5,-57.5 365.5,-38.5 242.5,-38.5"/>
<text text-anchor="middle" x="304" y="-45.5" font-family="Helvetica,sans-Serif" font-size="10.00">CGLVector2D::setMaxY</text>
</a>
</g>
</g>
<!-- Node16&#45;&gt;Node20 -->
<g id="edge25" class="edge"><title>Node16&#45;&gt;Node20</title>
<path fill="none" stroke="midnightblue" d="M181.879,-76.411C203.353,-71.3739 229.86,-65.1562 252.597,-59.8229"/>
<polygon fill="midnightblue" stroke="midnightblue" points="253.478,-63.2113 262.415,-57.5201 251.879,-56.3963 253.478,-63.2113"/>
</g>
<!-- Node21&#45;&gt;Node9 -->
<g id="edge27" class="edge"><title>Node21&#45;&gt;Node9</title>
<path fill="none" stroke="midnightblue" d="M181.879,-171.589C203.353,-176.626 229.86,-182.844 252.597,-188.177"/>
<polygon fill="midnightblue" stroke="midnightblue" points="251.879,-191.604 262.415,-190.48 253.478,-184.789 251.879,-191.604"/>
</g>
<!-- Node22&#45;&gt;Node9 -->
<g id="edge29" class="edge"><title>Node22&#45;&gt;Node9</title>
<path fill="none" stroke="midnightblue" d="M181.879,-228.411C203.353,-223.374 229.86,-217.156 252.597,-211.823"/>
<polygon fill="midnightblue" stroke="midnightblue" points="253.478,-215.211 262.415,-209.52 251.879,-208.396 253.478,-215.211"/>
</g>
<!-- Node23&#45;&gt;Node10 -->
<g id="edge31" class="edge"><title>Node23&#45;&gt;Node10</title>
<path fill="none" stroke="midnightblue" d="M350.641,-238C370.66,-238 394.451,-238 415.962,-238"/>
<polygon fill="midnightblue" stroke="midnightblue" points="415.986,-241.5 425.986,-238 415.986,-234.5 415.986,-241.5"/>
</g>
<!-- Node23&#45;&gt;Node11 -->
<g id="edge32" class="edge"><title>Node23&#45;&gt;Node11</title>
<path fill="none" stroke="midnightblue" d="M348.403,-228.411C371.407,-223.329 399.851,-217.045 424.134,-211.68"/>
<polygon fill="midnightblue" stroke="midnightblue" points="424.9,-215.095 433.909,-209.52 423.39,-208.26 424.9,-215.095"/>
</g>
<!-- Node23&#45;&gt;Node12 -->
<g id="edge33" class="edge"><title>Node23&#45;&gt;Node12</title>
<path fill="none" stroke="midnightblue" d="M345.98,-228.42C352.936,-225.914 359.881,-222.813 366,-219 385.746,-206.698 381.93,-192.766 402,-181 406.449,-178.392 411.25,-176.139 416.197,-174.193"/>
<polygon fill="midnightblue" stroke="midnightblue" points="417.557,-177.425 425.839,-170.817 415.244,-170.818 417.557,-177.425"/>
</g>
<!-- Node25 -->
<g id="node25" class="node"><title>Node25</title>
<g id="a_node25"><a xlink:href="$dd/d40/class_c_g_l_window.xhtml#a87ea72d63fe563266178e72a19722e5d" xlink:title="CGLWindow::loop">
<polygon fill="white" stroke="black" points="256,-456.5 256,-475.5 352,-475.5 352,-456.5 256,-456.5"/>
<text text-anchor="middle" x="304" y="-463.5" font-family="Helvetica,sans-Serif" font-size="10.00">CGLWindow::loop</text>
</a>
</g>
</g>
<!-- Node24&#45;&gt;Node25 -->
<g id="edge35" class="edge"><title>Node24&#45;&gt;Node25</title>
<path fill="none" stroke="midnightblue" d="M189.605,-452.701C207.299,-454.776 227.461,-457.14 245.829,-459.295"/>
<polygon fill="midnightblue" stroke="midnightblue" points="245.482,-462.778 255.821,-460.467 246.297,-455.826 245.482,-462.778"/>
</g>
<!-- Node25&#45;&gt;Node6 -->
<g id="edge36" class="edge"><title>Node25&#45;&gt;Node6</title>
<path fill="none" stroke="midnightblue" d="M352.302,-466C410.192,-466 509.247,-466 580.161,-466"/>
<polygon fill="midnightblue" stroke="midnightblue" points="580.411,-469.5 590.411,-466 580.411,-462.5 580.411,-469.5"/>
</g>
<!-- Node25&#45;&gt;Node7 -->
<g id="edge37" class="edge"><title>Node25&#45;&gt;Node7</title>
<path fill="none" stroke="midnightblue" d="M318.491,-456.392C336.663,-443.854 370.381,-421.986 402,-409 407.952,-406.555 414.303,-404.36 420.695,-402.407"/>
<polygon fill="midnightblue" stroke="midnightblue" points="422.072,-405.653 430.722,-399.536 420.145,-398.924 422.072,-405.653"/>
</g>
<!-- Node26 -->
<g id="node26" class="node"><title>Node26</title>
<g id="a_node26"><a xlink:href="$d9/d85/class_c_g_l_scene.xhtml#afa2e2794f2f8c6b80b293703e411f7fe" xlink:title="CGLScene::getCurrentCamera">
<polygon fill="white" stroke="black" points="402.5,-570.5 402.5,-589.5 553.5,-589.5 553.5,-570.5 402.5,-570.5"/>
<text text-anchor="middle" x="478" y="-577.5" font-family="Helvetica,sans-Serif" font-size="10.00">CGLScene::getCurrentCamera</text>
</a>
</g>
</g>
<!-- Node25&#45;&gt;Node26 -->
<g id="edge38" class="edge"><title>Node25&#45;&gt;Node26</title>
<path fill="none" stroke="midnightblue" d="M334.296,-475.535C345.186,-480.14 357.055,-486.539 366,-495 390.274,-517.961 375.599,-540.52 402,-561 404.338,-562.814 406.829,-564.456 409.43,-565.943"/>
<polygon fill="midnightblue" stroke="midnightblue" points="408.107,-569.192 418.63,-570.424 411.172,-562.898 408.107,-569.192"/>
</g>
<!-- Node28 -->
<g id="node28" class="node"><title>Node28</title>
<g id="a_node28"><a xlink:href="$de/dee/class_c_g_l_camera.xhtml#ad0f4898351c8df558a627102f233ded8" xlink:title="CGLCamera::onMouseButton">
<polygon fill="white" stroke="black" points="405,-418.5 405,-437.5 551,-437.5 551,-418.5 405,-418.5"/>
<text text-anchor="middle" x="478" y="-425.5" font-family="Helvetica,sans-Serif" font-size="10.00">CGLCamera::onMouseButton</text>
</a>
</g>
</g>
<!-- Node25&#45;&gt;Node28 -->
<g id="edge40" class="edge"><title>Node25&#45;&gt;Node28</title>
<path fill="none" stroke="midnightblue" d="M348.403,-456.411C371.407,-451.329 399.851,-445.045 424.134,-439.68"/>
<polygon fill="midnightblue" stroke="midnightblue" points="424.9,-443.095 433.909,-437.52 423.39,-436.26 424.9,-443.095"/>
</g>
<!-- Node29 -->
<g id="node29" class="node"><title>Node29</title>
<g id="a_node29"><a xlink:href="$dd/d40/class_c_g_l_window.xhtml#a480062f802f92f94e8b737a96171012c" xlink:title="CGLWindow::onResize">
<polygon fill="white" stroke="black" points="418.5,-532.5 418.5,-551.5 537.5,-551.5 537.5,-532.5 418.5,-532.5"/>
<text text-anchor="middle" x="478" y="-539.5" font-family="Helvetica,sans-Serif" font-size="10.00">CGLWindow::onResize</text>
</a>
</g>
</g>
<!-- Node25&#45;&gt;Node29 -->
<g id="edge41" class="edge"><title>Node25&#45;&gt;Node29</title>
<path fill="none" stroke="midnightblue" d="M328.214,-475.606C339.87,-480.783 354.022,-487.616 366,-495 383.255,-505.636 383.789,-514.1 402,-523 406.903,-525.396 412.138,-527.51 417.477,-529.371"/>
<polygon fill="midnightblue" stroke="midnightblue" points="416.559,-532.752 427.15,-532.455 418.685,-526.083 416.559,-532.752"/>
</g>
<!-- Node30 -->
<g id="node30" class="node"><title>Node30</title>
<g id="a_node30"><a xlink:href="$dd/d40/class_c_g_l_window.xhtml#adf4d06d51db7221820cb7f22080d51f2" xlink:title="CGLWindow::draw">
<polygon fill="white" stroke="black" points="428.5,-494.5 428.5,-513.5 527.5,-513.5 527.5,-494.5 428.5,-494.5"/>
<text text-anchor="middle" x="478" y="-501.5" font-family="Helvetica,sans-Serif" font-size="10.00">CGLWindow::draw</text>
</a>
</g>
</g>
<!-- Node25&#45;&gt;Node30 -->
<g id="edge42" class="edge"><title>Node25&#45;&gt;Node30</title>
<path fill="none" stroke="midnightblue" d="M348.403,-475.589C371.407,-480.671 399.851,-486.955 424.134,-492.32"/>
<polygon fill="midnightblue" stroke="midnightblue" points="423.39,-495.74 433.909,-494.48 424.9,-488.905 423.39,-495.74"/>
</g>
<!-- Node27 -->
<g id="node27" class="node"><title>Node27</title>
<g id="a_node27"><a xlink:href="$d2/d76/class_c_g_l_object.xhtml#a17159bf8a16301adca577be4311806d1" xlink:title="CGLObject::getCurrentObject">
<polygon fill="white" stroke="black" points="592,-570.5 592,-589.5 738,-589.5 738,-570.5 592,-570.5"/>
<text text-anchor="middle" x="665" y="-577.5" font-family="Helvetica,sans-Serif" font-size="10.00">CGLObject::getCurrentObject</text>
</a>
</g>
</g>
<!-- Node26&#45;&gt;Node27 -->
<g id="edge39" class="edge"><title>Node26&#45;&gt;Node27</title>
<path fill="none" stroke="midnightblue" d="M553.713,-580C562.919,-580 572.369,-580 581.679,-580"/>
<polygon fill="midnightblue" stroke="midnightblue" points="581.709,-583.5 591.709,-580 581.709,-576.5 581.709,-583.5"/>
</g>
<!-- Node30&#45;&gt;Node6 -->
<g id="edge43" class="edge"><title>Node30&#45;&gt;Node6</title>
<path fill="none" stroke="midnightblue" d="M525.683,-494.411C550.646,-489.284 581.564,-482.933 607.834,-477.537"/>
<polygon fill="midnightblue" stroke="midnightblue" points="608.561,-480.961 617.652,-475.52 607.153,-474.104 608.561,-480.961"/>
</g>
<!-- Node31 -->
<g id="node31" class="node"><title>Node31</title>
<g id="a_node31"><a xlink:href="$db/da4/class_c_g_l_world.xhtml#a7dd174b6096cb7c798f7b4518e4842dc" xlink:title="CGLWorld::draw">
<polygon fill="white" stroke="black" points="620.5,-494.5 620.5,-513.5 709.5,-513.5 709.5,-494.5 620.5,-494.5"/>
<text text-anchor="middle" x="665" y="-501.5" font-family="Helvetica,sans-Serif" font-size="10.00">CGLWorld::draw</text>
</a>
</g>
</g>
<!-- Node30&#45;&gt;Node31 -->
<g id="edge44" class="edge"><title>Node30&#45;&gt;Node31</title>
<path fill="none" stroke="midnightblue" d="M527.607,-504C553.03,-504 584.212,-504 610.341,-504"/>
<polygon fill="midnightblue" stroke="midnightblue" points="610.454,-507.5 620.454,-504 610.454,-500.5 610.454,-507.5"/>
</g>
</g>
</svg>
