<?xml version="1.0" encoding="UTF-8" standalone="no"?>
<!DOCTYPE svg PUBLIC "-//W3C//DTD SVG 1.1//EN"
 "http://www.w3.org/Graphics/SVG/1.1/DTD/svg11.dtd">
<!-- Generated by graphviz version 2.36.0 (20140111.2315)
 -->
<!-- Title: Graphe hiérarchique des classes Pages: 1 -->
<svg width="408pt" height="560pt"
 viewBox="0.00 0.00 408.00 560.00" xmlns="http://www.w3.org/2000/svg" xmlns:xlink="http://www.w3.org/1999/xlink">
<g id="graph0" class="graph" transform="scale(1 1) rotate(0) translate(4 556)">
<title>Graphe hiérarchique des classes</title>
<polygon fill="white" stroke="none" points="-4,4 -4,-556 404,-556 404,4 -4,4"/>
<!-- Node1 -->
<g id="node1" class="node"><title>Node1</title>
<g id="a_node1"><a xlink:href="d2/d76/class_c_g_l_object.xhtml" target="_top" xlink:title="CGLObject">
<polygon fill="white" stroke="black" points="0.5,-237.5 0.5,-256.5 65.5,-256.5 65.5,-237.5 0.5,-237.5"/>
<text text-anchor="middle" x="33" y="-244.5" font-family="Helvetica,sans-Serif" font-size="10.00">CGLObject</text>
</a>
</g>
</g>
<!-- Node2 -->
<g id="node2" class="node"><title>Node2</title>
<g id="a_node2"><a xlink:href="dc/d8a/class_c_g_l_effect.xhtml" target="_top" xlink:title="CGLEffect">
<polygon fill="white" stroke="black" points="109.5,-237.5 109.5,-256.5 172.5,-256.5 172.5,-237.5 109.5,-237.5"/>
<text text-anchor="middle" x="141" y="-244.5" font-family="Helvetica,sans-Serif" font-size="10.00">CGLEffect</text>
</a>
</g>
</g>
<!-- Node1&#45;&gt;Node2 -->
<g id="edge1" class="edge"><title>Node1&#45;&gt;Node2</title>
<path fill="none" stroke="midnightblue" d="M75.538,-247C86.7363,-247 98.6517,-247 109.152,-247"/>
<polygon fill="midnightblue" stroke="midnightblue" points="75.5165,-243.5 65.5165,-247 75.5165,-250.5 75.5165,-243.5"/>
</g>
<!-- Node7 -->
<g id="node7" class="node"><title>Node7</title>
<g id="a_node7"><a xlink:href="d7/d2f/class_c_g_l_item.xhtml" target="_top" xlink:title="CGLItem">
<polygon fill="white" stroke="black" points="113,-437.5 113,-456.5 169,-456.5 169,-437.5 113,-437.5"/>
<text text-anchor="middle" x="141" y="-444.5" font-family="Helvetica,sans-Serif" font-size="10.00">CGLItem</text>
</a>
</g>
</g>
<!-- Node1&#45;&gt;Node7 -->
<g id="edge6" class="edge"><title>Node1&#45;&gt;Node7</title>
<path fill="none" stroke="midnightblue" d="M43.909,-265.696C65.9584,-307.299 118.432,-406.306 134.939,-437.45"/>
<polygon fill="midnightblue" stroke="midnightblue" points="46.8881,-263.843 39.1126,-256.646 40.7031,-267.121 46.8881,-263.843"/>
</g>
<!-- Node13 -->
<g id="node13" class="node"><title>Node13</title>
<g id="a_node13"><a xlink:href="d0/d14/class_c_g_l_special.xhtml" target="_top" xlink:title="CGLSpecial">
<polygon fill="white" stroke="black" points="106.5,-95.5 106.5,-114.5 175.5,-114.5 175.5,-95.5 106.5,-95.5"/>
<text text-anchor="middle" x="141" y="-102.5" font-family="Helvetica,sans-Serif" font-size="10.00">CGLSpecial</text>
</a>
</g>
</g>
<!-- Node1&#45;&gt;Node13 -->
<g id="edge12" class="edge"><title>Node1&#45;&gt;Node13</title>
<path fill="none" stroke="midnightblue" d="M47.5534,-228.843C70.2195,-198.48 115.061,-138.408 132.663,-114.829"/>
<polygon fill="midnightblue" stroke="midnightblue" points="44.463,-227.133 41.2858,-237.24 50.0725,-231.32 44.463,-227.133"/>
</g>
<!-- Node3 -->
<g id="node3" class="node"><title>Node3</title>
<g id="a_node3"><a xlink:href="d7/dd6/class_c_g_l_color.xhtml" target="_top" xlink:title="CGLColor">
<polygon fill="white" stroke="black" points="340,-266.5 340,-285.5 400,-285.5 400,-266.5 340,-266.5"/>
<text text-anchor="middle" x="370" y="-273.5" font-family="Helvetica,sans-Serif" font-size="10.00">CGLColor</text>
</a>
</g>
</g>
<!-- Node2&#45;&gt;Node3 -->
<g id="edge2" class="edge"><title>Node2&#45;&gt;Node3</title>
<path fill="none" stroke="midnightblue" d="M170.561,-233.276C203.607,-219.376 259.214,-202.145 304,-219 329.285,-228.516 351.148,-252.83 361.901,-266.428"/>
<polygon fill="midnightblue" stroke="midnightblue" points="168.818,-230.219 161.067,-237.442 171.631,-236.629 168.818,-230.219"/>
</g>
<!-- Node4 -->
<g id="node4" class="node"><title>Node4</title>
<g id="a_node4"><a xlink:href="de/d31/class_c_g_l_position.xhtml" target="_top" xlink:title="CGLPosition">
<polygon fill="white" stroke="black" points="224,-304.5 224,-323.5 296,-323.5 296,-304.5 224,-304.5"/>
<text text-anchor="middle" x="260" y="-311.5" font-family="Helvetica,sans-Serif" font-size="10.00">CGLPosition</text>
</a>
</g>
</g>
<!-- Node2&#45;&gt;Node4 -->
<g id="edge3" class="edge"><title>Node2&#45;&gt;Node4</title>
<path fill="none" stroke="midnightblue" d="M163.52,-262.264C177.996,-272.201 197.706,-285.107 216,-295 222.174,-298.339 229.053,-301.579 235.466,-304.409"/>
<polygon fill="midnightblue" stroke="midnightblue" points="165.453,-259.345 155.243,-256.513 161.459,-265.093 165.453,-259.345"/>
</g>
<!-- Node5 -->
<g id="node5" class="node"><title>Node5</title>
<g id="a_node5"><a xlink:href="d4/dd5/class_c_g_l_rotation.xhtml" target="_top" xlink:title="CGLRotation">
<polygon fill="white" stroke="black" points="223,-266.5 223,-285.5 297,-285.5 297,-266.5 223,-266.5"/>
<text text-anchor="middle" x="260" y="-273.5" font-family="Helvetica,sans-Serif" font-size="10.00">CGLRotation</text>
</a>
</g>
</g>
<!-- Node2&#45;&gt;Node5 -->
<g id="edge4" class="edge"><title>Node2&#45;&gt;Node5</title>
<path fill="none" stroke="midnightblue" d="M182.808,-257.115C195.773,-260.328 210.018,-263.859 222.647,-266.989"/>
<polygon fill="midnightblue" stroke="midnightblue" points="183.289,-253.628 172.74,-254.619 181.605,-260.423 183.289,-253.628"/>
</g>
<!-- Node6 -->
<g id="node6" class="node"><title>Node6</title>
<g id="a_node6"><a xlink:href="dd/dd7/class_c_g_l_scale.xhtml" target="_top" xlink:title="CGLScale">
<polygon fill="white" stroke="black" points="229,-228.5 229,-247.5 291,-247.5 291,-228.5 229,-228.5"/>
<text text-anchor="middle" x="260" y="-235.5" font-family="Helvetica,sans-Serif" font-size="10.00">CGLScale</text>
</a>
</g>
</g>
<!-- Node2&#45;&gt;Node6 -->
<g id="edge5" class="edge"><title>Node2&#45;&gt;Node6</title>
<path fill="none" stroke="midnightblue" d="M182.88,-243.855C198.007,-242.692 214.869,-241.395 228.87,-240.318"/>
<polygon fill="midnightblue" stroke="midnightblue" points="182.442,-240.379 172.74,-244.635 182.979,-247.358 182.442,-240.379"/>
</g>
<!-- Node8 -->
<g id="node8" class="node"><title>Node8</title>
<g id="a_node8"><a xlink:href="dd/daf/class_c_g_l_boite.xhtml" target="_top" xlink:title="CGLBoite">
<polygon fill="white" stroke="black" points="230.5,-380.5 230.5,-399.5 289.5,-399.5 289.5,-380.5 230.5,-380.5"/>
<text text-anchor="middle" x="260" y="-387.5" font-family="Helvetica,sans-Serif" font-size="10.00">CGLBoite</text>
</a>
</g>
</g>
<!-- Node7&#45;&gt;Node8 -->
<g id="edge7" class="edge"><title>Node7&#45;&gt;Node8</title>
<path fill="none" stroke="midnightblue" d="M168.853,-432.733C182.816,-425.436 200.221,-416.53 216,-409 222.629,-405.837 229.912,-402.549 236.569,-399.616"/>
<polygon fill="midnightblue" stroke="midnightblue" points="167.022,-429.741 159.798,-437.491 170.278,-435.938 167.022,-429.741"/>
</g>
<!-- Node9 -->
<g id="node9" class="node"><title>Node9</title>
<g id="a_node9"><a xlink:href="da/d38/class_c_g_l_dot.xhtml" target="_top" xlink:title="CGLDot">
<polygon fill="white" stroke="black" points="233.5,-532.5 233.5,-551.5 286.5,-551.5 286.5,-532.5 233.5,-532.5"/>
<text text-anchor="middle" x="260" y="-539.5" font-family="Helvetica,sans-Serif" font-size="10.00">CGLDot</text>
</a>
</g>
</g>
<!-- Node7&#45;&gt;Node9 -->
<g id="edge8" class="edge"><title>Node7&#45;&gt;Node9</title>
<path fill="none" stroke="midnightblue" d="M155.624,-464.46C169.407,-481.212 192.048,-506.352 216,-523 221.227,-526.633 227.261,-529.816 233.125,-532.486"/>
<polygon fill="midnightblue" stroke="midnightblue" points="158.259,-462.152 149.264,-456.555 152.805,-466.54 158.259,-462.152"/>
</g>
<!-- Node10 -->
<g id="node10" class="node"><title>Node10</title>
<g id="a_node10"><a xlink:href="d9/dfe/class_c_g_l_line.xhtml" target="_top" xlink:title="CGLLine">
<polygon fill="white" stroke="black" points="232.5,-494.5 232.5,-513.5 287.5,-513.5 287.5,-494.5 232.5,-494.5"/>
<text text-anchor="middle" x="260" y="-501.5" font-family="Helvetica,sans-Serif" font-size="10.00">CGLLine</text>
</a>
</g>
</g>
<!-- Node7&#45;&gt;Node10 -->
<g id="edge9" class="edge"><title>Node7&#45;&gt;Node10</title>
<path fill="none" stroke="midnightblue" d="M168.853,-461.267C182.816,-468.564 200.221,-477.47 216,-485 222.629,-488.163 229.912,-491.451 236.569,-494.384"/>
<polygon fill="midnightblue" stroke="midnightblue" points="170.278,-458.062 159.798,-456.509 167.022,-464.259 170.278,-458.062"/>
</g>
<!-- Node11 -->
<g id="node11" class="node"><title>Node11</title>
<g id="a_node11"><a xlink:href="df/d41/class_c_g_l_quad.xhtml" target="_top" xlink:title="CGLQuad">
<polygon fill="white" stroke="black" points="230,-456.5 230,-475.5 290,-475.5 290,-456.5 230,-456.5"/>
<text text-anchor="middle" x="260" y="-463.5" font-family="Helvetica,sans-Serif" font-size="10.00">CGLQuad</text>
</a>
</g>
</g>
<!-- Node7&#45;&gt;Node11 -->
<g id="edge10" class="edge"><title>Node7&#45;&gt;Node11</title>
<path fill="none" stroke="midnightblue" d="M179.455,-453.083C195.812,-455.739 214.7,-458.806 229.966,-461.285"/>
<polygon fill="midnightblue" stroke="midnightblue" points="179.568,-449.555 169.136,-451.407 178.446,-456.464 179.568,-449.555"/>
</g>
<!-- Node12 -->
<g id="node12" class="node"><title>Node12</title>
<g id="a_node12"><a xlink:href="d8/dbf/class_c_g_l_robot1.xhtml" target="_top" xlink:title="CGLRobot1">
<polygon fill="white" stroke="black" points="226,-418.5 226,-437.5 294,-437.5 294,-418.5 226,-418.5"/>
<text text-anchor="middle" x="260" y="-425.5" font-family="Helvetica,sans-Serif" font-size="10.00">CGLRobot1</text>
</a>
</g>
</g>
<!-- Node7&#45;&gt;Node12 -->
<g id="edge11" class="edge"><title>Node7&#45;&gt;Node12</title>
<path fill="none" stroke="midnightblue" d="M179.092,-440.976C194.058,-438.546 211.192,-435.764 225.746,-433.4"/>
<polygon fill="midnightblue" stroke="midnightblue" points="178.446,-437.536 169.136,-442.593 179.568,-444.445 178.446,-437.536"/>
</g>
<!-- Node14 -->
<g id="node14" class="node"><title>Node14</title>
<g id="a_node14"><a xlink:href="de/dee/class_c_g_l_camera.xhtml" target="_top" xlink:title="CGLCamera">
<polygon fill="white" stroke="black" points="224.5,-114.5 224.5,-133.5 295.5,-133.5 295.5,-114.5 224.5,-114.5"/>
<text text-anchor="middle" x="260" y="-121.5" font-family="Helvetica,sans-Serif" font-size="10.00">CGLCamera</text>
</a>
</g>
</g>
<!-- Node13&#45;&gt;Node14 -->
<g id="edge13" class="edge"><title>Node13&#45;&gt;Node14</title>
<path fill="none" stroke="midnightblue" d="M185.506,-112.065C198.286,-114.141 212.09,-116.382 224.246,-118.356"/>
<polygon fill="midnightblue" stroke="midnightblue" points="185.959,-108.593 175.528,-110.445 184.837,-115.502 185.959,-108.593"/>
</g>
<!-- Node15 -->
<g id="node15" class="node"><title>Node15</title>
<g id="a_node15"><a xlink:href="d4/dad/class_c_g_l_camera_list.xhtml" target="_top" xlink:title="CGLCameraList">
<polygon fill="white" stroke="black" points="216.5,-76.5 216.5,-95.5 303.5,-95.5 303.5,-76.5 216.5,-76.5"/>
<text text-anchor="middle" x="260" y="-83.5" font-family="Helvetica,sans-Serif" font-size="10.00">CGLCameraList</text>
</a>
</g>
</g>
<!-- Node13&#45;&gt;Node15 -->
<g id="edge14" class="edge"><title>Node13&#45;&gt;Node15</title>
<path fill="none" stroke="midnightblue" d="M185.678,-97.907C195.684,-96.282 206.311,-94.5564 216.277,-92.938"/>
<polygon fill="midnightblue" stroke="midnightblue" points="184.837,-94.4976 175.528,-99.5554 185.959,-101.407 184.837,-94.4976"/>
</g>
<!-- Node16 -->
<g id="node16" class="node"><title>Node16</title>
<g id="a_node16"><a xlink:href="d9/d85/class_c_g_l_scene.xhtml" target="_top" xlink:title="CGLScene">
<polygon fill="white" stroke="black" points="227.5,-38.5 227.5,-57.5 292.5,-57.5 292.5,-38.5 227.5,-38.5"/>
<text text-anchor="middle" x="260" y="-45.5" font-family="Helvetica,sans-Serif" font-size="10.00">CGLScene</text>
</a>
</g>
</g>
<!-- Node13&#45;&gt;Node16 -->
<g id="edge15" class="edge"><title>Node13&#45;&gt;Node16</title>
<path fill="none" stroke="midnightblue" d="M168.853,-90.7329C182.816,-83.436 200.221,-74.5298 216,-67 222.629,-63.8366 229.912,-60.5491 236.569,-57.6158"/>
<polygon fill="midnightblue" stroke="midnightblue" points="167.022,-87.741 159.798,-95.4908 170.278,-93.9377 167.022,-87.741"/>
</g>
<!-- Node17 -->
<g id="node17" class="node"><title>Node17</title>
<g id="a_node17"><a xlink:href="dd/d40/class_c_g_l_window.xhtml" target="_top" xlink:title="CGLWindow">
<polygon fill="white" stroke="black" points="224,-0.5 224,-19.5 296,-19.5 296,-0.5 224,-0.5"/>
<text text-anchor="middle" x="260" y="-7.5" font-family="Helvetica,sans-Serif" font-size="10.00">CGLWindow</text>
</a>
</g>
</g>
<!-- Node13&#45;&gt;Node17 -->
<g id="edge16" class="edge"><title>Node13&#45;&gt;Node17</title>
<path fill="none" stroke="midnightblue" d="M155.624,-87.5397C169.407,-70.7884 192.048,-45.6477 216,-29 221.227,-25.3667 227.261,-22.1836 233.125,-19.5136"/>
<polygon fill="midnightblue" stroke="midnightblue" points="152.805,-85.46 149.264,-95.4455 158.259,-89.848 152.805,-85.46"/>
</g>
<!-- Node18 -->
<g id="node18" class="node"><title>Node18</title>
<g id="a_node18"><a xlink:href="db/da4/class_c_g_l_world.xhtml" target="_top" xlink:title="CGLWorld">
<polygon fill="white" stroke="black" points="229,-152.5 229,-171.5 291,-171.5 291,-152.5 229,-152.5"/>
<text text-anchor="middle" x="260" y="-159.5" font-family="Helvetica,sans-Serif" font-size="10.00">CGLWorld</text>
</a>
</g>
</g>
<!-- Node13&#45;&gt;Node18 -->
<g id="edge17" class="edge"><title>Node13&#45;&gt;Node18</title>
<path fill="none" stroke="midnightblue" d="M168.853,-119.267C182.816,-126.564 200.221,-135.47 216,-143 222.629,-146.163 229.912,-149.451 236.569,-152.384"/>
<polygon fill="midnightblue" stroke="midnightblue" points="170.278,-116.062 159.798,-114.509 167.022,-122.259 170.278,-116.062"/>
</g>
<!-- Node19 -->
<g id="node19" class="node"><title>Node19</title>
<g id="a_node19"><a xlink:href="d6/df9/class_c_g_l_vector3_d.xhtml" target="_top" xlink:title="CGLVector3D">
<polygon fill="white" stroke="black" points="102,-285.5 102,-304.5 180,-304.5 180,-285.5 102,-285.5"/>
<text text-anchor="middle" x="141" y="-292.5" font-family="Helvetica,sans-Serif" font-size="10.00">CGLVector3D</text>
</a>
</g>
</g>
<!-- Node19&#45;&gt;Node4 -->
<g id="edge18" class="edge"><title>Node19&#45;&gt;Node4</title>
<path fill="none" stroke="midnightblue" d="M190.391,-302.858C201.578,-304.675 213.272,-306.574 223.772,-308.279"/>
<polygon fill="midnightblue" stroke="midnightblue" points="190.742,-299.37 180.31,-301.221 189.62,-306.279 190.742,-299.37"/>
</g>
<!-- Node19&#45;&gt;Node5 -->
<g id="edge19" class="edge"><title>Node19&#45;&gt;Node5</title>
<path fill="none" stroke="midnightblue" d="M190.196,-287.173C201.163,-285.392 212.629,-283.53 222.986,-281.848"/>
<polygon fill="midnightblue" stroke="midnightblue" points="189.62,-283.721 180.31,-288.779 190.742,-290.63 189.62,-283.721"/>
</g>
<!-- Node19&#45;&gt;Node6 -->
<g id="edge20" class="edge"><title>Node19&#45;&gt;Node6</title>
<path fill="none" stroke="midnightblue" d="M168.853,-280.733C182.816,-273.436 200.221,-264.53 216,-257 222.629,-253.837 229.912,-250.549 236.569,-247.616"/>
<polygon fill="midnightblue" stroke="midnightblue" points="167.022,-277.741 159.798,-285.491 170.278,-283.938 167.022,-277.741"/>
</g>
<!-- Node20 -->
<g id="node20" class="node"><title>Node20</title>
<g id="a_node20"><a xlink:href="db/d79/class_c_g_l_vector4_d.xhtml" target="_top" xlink:title="CGLVector4D">
<polygon fill="white" stroke="black" points="221,-342.5 221,-361.5 299,-361.5 299,-342.5 221,-342.5"/>
<text text-anchor="middle" x="260" y="-349.5" font-family="Helvetica,sans-Serif" font-size="10.00">CGLVector4D</text>
</a>
</g>
</g>
<!-- Node19&#45;&gt;Node20 -->
<g id="edge21" class="edge"><title>Node19&#45;&gt;Node20</title>
<path fill="none" stroke="midnightblue" d="M168.853,-309.267C182.816,-316.564 200.221,-325.47 216,-333 222.629,-336.163 229.912,-339.451 236.569,-342.384"/>
<polygon fill="midnightblue" stroke="midnightblue" points="170.278,-306.062 159.798,-304.509 167.022,-312.259 170.278,-306.062"/>
</g>
<!-- Node20&#45;&gt;Node3 -->
<g id="edge22" class="edge"><title>Node20&#45;&gt;Node3</title>
<path fill="none" stroke="midnightblue" d="M295.301,-337.997C298.306,-336.427 301.248,-334.756 304,-333 325.762,-319.113 347.623,-298.156 359.627,-285.898"/>
<polygon fill="midnightblue" stroke="midnightblue" points="293.702,-334.883 286.222,-342.387 296.749,-341.185 293.702,-334.883"/>
</g>
</g>
</svg>
