<?xml version="1.0" encoding="UTF-8" standalone="no"?>
<!DOCTYPE svg PUBLIC "-//W3C//DTD SVG 1.1//EN"
 "http://www.w3.org/Graphics/SVG/1.1/DTD/svg11.dtd">
<!-- Generated by graphviz version 2.36.0 (20140111.2315)
 -->
<!-- Title: Graphe hiérarchique des classes Pages: 1 -->
<svg width="172pt" height="218pt"
 viewBox="0.00 0.00 172.00 218.00" xmlns="http://www.w3.org/2000/svg" xmlns:xlink="http://www.w3.org/1999/xlink">
<g id="graph0" class="graph" transform="scale(1 1) rotate(0) translate(4 214)">
<title>Graphe hiérarchique des classes</title>
<polygon fill="white" stroke="none" points="-4,4 -4,-214 168,-214 168,4 -4,4"/>
<!-- Node1 -->
<g id="node1" class="node"><title>Node1</title>
<polygon fill="white" stroke="#bfbfbf" points="0,-95.5 0,-114.5 56,-114.5 56,-95.5 0,-95.5"/>
<text text-anchor="middle" x="28" y="-102.5" font-family="Helvetica,sans-Serif" font-size="10.00">CGLItem</text>
</g>
<!-- Node2 -->
<g id="node2" class="node"><title>Node2</title>
<g id="a_node2"><a xlink:href="da/d38/class_c_g_l_dot.xhtml" target="_top" xlink:title="CGLDot">
<polygon fill="white" stroke="black" points="101.5,-190.5 101.5,-209.5 154.5,-209.5 154.5,-190.5 101.5,-190.5"/>
<text text-anchor="middle" x="128" y="-197.5" font-family="Helvetica,sans-Serif" font-size="10.00">CGLDot</text>
</a>
</g>
</g>
<!-- Node1&#45;&gt;Node2 -->
<g id="edge1" class="edge"><title>Node1&#45;&gt;Node2</title>
<path fill="none" stroke="midnightblue" d="M41.0421,-123.198C52.6514,-139.751 71.4454,-164.105 92,-181 96.273,-184.512 101.293,-187.685 106.177,-190.387"/>
<polygon fill="midnightblue" stroke="midnightblue" points="43.9013,-121.179 35.366,-114.902 38.124,-125.131 43.9013,-121.179"/>
</g>
<!-- Node3 -->
<g id="node3" class="node"><title>Node3</title>
<g id="a_node3"><a xlink:href="d9/dfe/class_c_g_l_line.xhtml" target="_top" xlink:title="CGLLine">
<polygon fill="white" stroke="black" points="100.5,-152.5 100.5,-171.5 155.5,-171.5 155.5,-152.5 100.5,-152.5"/>
<text text-anchor="middle" x="128" y="-159.5" font-family="Helvetica,sans-Serif" font-size="10.00">CGLLine</text>
</a>
</g>
</g>
<!-- Node1&#45;&gt;Node3 -->
<g id="edge2" class="edge"><title>Node1&#45;&gt;Node3</title>
<path fill="none" stroke="midnightblue" d="M53.1459,-119.915C64.8108,-127.03 79.0554,-135.588 92,-143 97.5199,-146.161 103.593,-149.504 109.108,-152.49"/>
<polygon fill="midnightblue" stroke="midnightblue" points="54.7734,-116.808 44.4181,-114.567 51.1162,-122.776 54.7734,-116.808"/>
</g>
<!-- Node4 -->
<g id="node4" class="node"><title>Node4</title>
<g id="a_node4"><a xlink:href="d1/db6/class_c_g_l_polygon.xhtml" target="_top" xlink:title="CGLPolygon">
<polygon fill="white" stroke="black" points="92,-114.5 92,-133.5 164,-133.5 164,-114.5 92,-114.5"/>
<text text-anchor="middle" x="128" y="-121.5" font-family="Helvetica,sans-Serif" font-size="10.00">CGLPolygon</text>
</a>
</g>
</g>
<!-- Node1&#45;&gt;Node4 -->
<g id="edge3" class="edge"><title>Node1&#45;&gt;Node4</title>
<path fill="none" stroke="midnightblue" d="M66.0692,-112.187C74.5605,-113.833 83.5609,-115.578 91.9635,-117.207"/>
<polygon fill="midnightblue" stroke="midnightblue" points="66.5217,-108.71 56.0384,-110.242 65.1894,-115.582 66.5217,-108.71"/>
</g>
<!-- Node5 -->
<g id="node5" class="node"><title>Node5</title>
<g id="a_node5"><a xlink:href="df/d41/class_c_g_l_quad.xhtml" target="_top" xlink:title="CGLQuad">
<polygon fill="white" stroke="black" points="98,-76.5 98,-95.5 158,-95.5 158,-76.5 98,-76.5"/>
<text text-anchor="middle" x="128" y="-83.5" font-family="Helvetica,sans-Serif" font-size="10.00">CGLQuad</text>
</a>
</g>
</g>
<!-- Node1&#45;&gt;Node5 -->
<g id="edge4" class="edge"><title>Node1&#45;&gt;Node5</title>
<path fill="none" stroke="midnightblue" d="M65.895,-97.8469C76.5076,-95.7893 87.9284,-93.5751 97.9914,-91.6241"/>
<polygon fill="midnightblue" stroke="midnightblue" points="65.1894,-94.4184 56.0384,-99.7579 66.5217,-101.29 65.1894,-94.4184"/>
</g>
<!-- Node6 -->
<g id="node6" class="node"><title>Node6</title>
<g id="a_node6"><a xlink:href="d8/dbf/class_c_g_l_robot1.xhtml" target="_top" xlink:title="CGLRobot1">
<polygon fill="white" stroke="black" points="94,-38.5 94,-57.5 162,-57.5 162,-38.5 94,-38.5"/>
<text text-anchor="middle" x="128" y="-45.5" font-family="Helvetica,sans-Serif" font-size="10.00">CGLRobot1</text>
</a>
</g>
</g>
<!-- Node1&#45;&gt;Node6 -->
<g id="edge5" class="edge"><title>Node1&#45;&gt;Node6</title>
<path fill="none" stroke="midnightblue" d="M53.1459,-90.085C64.8108,-82.9697 79.0554,-74.4124 92,-67 97.5199,-63.8391 103.593,-60.4963 109.108,-57.5105"/>
<polygon fill="midnightblue" stroke="midnightblue" points="51.1162,-87.2238 44.4181,-95.4326 54.7734,-93.1925 51.1162,-87.2238"/>
</g>
<!-- Node7 -->
<g id="node7" class="node"><title>Node7</title>
<g id="a_node7"><a xlink:href="d1/d68/class_c_g_l_triangle.xhtml" target="_top" xlink:title="CGLTriangle">
<polygon fill="white" stroke="black" points="92.5,-0.5 92.5,-19.5 163.5,-19.5 163.5,-0.5 92.5,-0.5"/>
<text text-anchor="middle" x="128" y="-7.5" font-family="Helvetica,sans-Serif" font-size="10.00">CGLTriangle</text>
</a>
</g>
</g>
<!-- Node1&#45;&gt;Node7 -->
<g id="edge6" class="edge"><title>Node1&#45;&gt;Node7</title>
<path fill="none" stroke="midnightblue" d="M41.0421,-86.802C52.6514,-70.2495 71.4454,-45.8954 92,-29 96.273,-25.4877 101.293,-22.3152 106.177,-19.613"/>
<polygon fill="midnightblue" stroke="midnightblue" points="38.124,-84.8687 35.366,-95.0983 43.9013,-88.8213 38.124,-84.8687"/>
</g>
</g>
</svg>
