<?xml version="1.0" encoding="UTF-8" standalone="no"?>
<!DOCTYPE svg PUBLIC "-//W3C//DTD SVG 1.1//EN"
 "http://www.w3.org/Graphics/SVG/1.1/DTD/svg11.dtd">
<!-- Generated by graphviz version 2.36.0 (20140111.2315)
 -->
<!-- Title: Graphe hiérarchique des classes Pages: 1 -->
<svg width="334pt" height="104pt"
 viewBox="0.00 0.00 334.00 104.00" xmlns="http://www.w3.org/2000/svg" xmlns:xlink="http://www.w3.org/1999/xlink">
<g id="graph0" class="graph" transform="scale(1 1) rotate(0) translate(4 100)">
<title>Graphe hiérarchique des classes</title>
<polygon fill="white" stroke="none" points="-4,4 -4,-100 330,-100 330,4 -4,4"/>
<!-- Node1 -->
<g id="node1" class="node"><title>Node1</title>
<polygon fill="white" stroke="#bfbfbf" points="7.5,-57.5 7.5,-76.5 70.5,-76.5 70.5,-57.5 7.5,-57.5"/>
<text text-anchor="middle" x="39" y="-64.5" font-family="Helvetica,sans-Serif" font-size="10.00">CGLEffect</text>
</g>
<!-- Node2 -->
<g id="node2" class="node"><title>Node2</title>
<g id="a_node2"><a xlink:href="de/d31/class_c_g_l_position.xhtml" target="_top" xlink:title="CGLPosition">
<polygon fill="white" stroke="black" points="115,-76.5 115,-95.5 187,-95.5 187,-76.5 115,-76.5"/>
<text text-anchor="middle" x="151" y="-83.5" font-family="Helvetica,sans-Serif" font-size="10.00">CGLPosition</text>
</a>
</g>
</g>
<!-- Node1&#45;&gt;Node2 -->
<g id="edge1" class="edge"><title>Node1&#45;&gt;Node2</title>
<path fill="none" stroke="midnightblue" d="M80.6552,-74.0223C91.8863,-75.9622 103.975,-78.0503 114.864,-79.9311"/>
<polygon fill="midnightblue" stroke="midnightblue" points="81.091,-70.5458 70.6411,-72.2926 79.8995,-77.4436 81.091,-70.5458"/>
</g>
<!-- Node3 -->
<g id="node3" class="node"><title>Node3</title>
<g id="a_node3"><a xlink:href="d4/dd5/class_c_g_l_rotation.xhtml" target="_top" xlink:title="CGLRotation">
<polygon fill="white" stroke="black" points="114,-38.5 114,-57.5 188,-57.5 188,-38.5 114,-38.5"/>
<text text-anchor="middle" x="151" y="-45.5" font-family="Helvetica,sans-Serif" font-size="10.00">CGLRotation</text>
</a>
</g>
</g>
<!-- Node1&#45;&gt;Node3 -->
<g id="edge2" class="edge"><title>Node1&#45;&gt;Node3</title>
<path fill="none" stroke="midnightblue" d="M80.7029,-59.9695C91.513,-58.1023 103.115,-56.0983 113.675,-54.2744"/>
<polygon fill="midnightblue" stroke="midnightblue" points="79.8995,-56.5564 70.6411,-61.7074 81.091,-63.4542 79.8995,-56.5564"/>
</g>
<!-- Node5 -->
<g id="node5" class="node"><title>Node5</title>
<g id="a_node5"><a xlink:href="dd/dd7/class_c_g_l_scale.xhtml" target="_top" xlink:title="CGLScale">
<polygon fill="white" stroke="black" points="120,-0.5 120,-19.5 182,-19.5 182,-0.5 120,-0.5"/>
<text text-anchor="middle" x="151" y="-7.5" font-family="Helvetica,sans-Serif" font-size="10.00">CGLScale</text>
</a>
</g>
</g>
<!-- Node1&#45;&gt;Node5 -->
<g id="edge4" class="edge"><title>Node1&#45;&gt;Node5</title>
<path fill="none" stroke="midnightblue" d="M68.3722,-52.8995C71.6242,-51.2579 74.8878,-49.5991 78,-48 79.3436,-47.3096 111.017,-30.5866 131.903,-19.5576"/>
<polygon fill="midnightblue" stroke="midnightblue" points="66.7406,-49.8022 59.3731,-57.4161 69.8806,-56.0585 66.7406,-49.8022"/>
</g>
<!-- Node4 -->
<g id="node4" class="node"><title>Node4</title>
<g id="a_node4"><a xlink:href="d4/d9e/class_c_g_l_rotation_speed.xhtml" target="_top" xlink:title="CGLRotationSpeed">
<polygon fill="white" stroke="black" points="224.5,-38.5 224.5,-57.5 325.5,-57.5 325.5,-38.5 224.5,-38.5"/>
<text text-anchor="middle" x="275" y="-45.5" font-family="Helvetica,sans-Serif" font-size="10.00">CGLRotationSpeed</text>
</a>
</g>
</g>
<!-- Node3&#45;&gt;Node4 -->
<g id="edge3" class="edge"><title>Node3&#45;&gt;Node4</title>
<path fill="none" stroke="midnightblue" d="M198.31,-48C206.739,-48 215.565,-48 224.092,-48"/>
<polygon fill="midnightblue" stroke="midnightblue" points="198.274,-44.5001 188.274,-48 198.274,-51.5001 198.274,-44.5001"/>
</g>
<!-- Node6 -->
<g id="node6" class="node"><title>Node6</title>
<polygon fill="white" stroke="#bfbfbf" points="0,-19.5 0,-38.5 78,-38.5 78,-19.5 0,-19.5"/>
<text text-anchor="middle" x="39" y="-26.5" font-family="Helvetica,sans-Serif" font-size="10.00">CGLVector3D</text>
</g>
<!-- Node6&#45;&gt;Node2 -->
<g id="edge5" class="edge"><title>Node6&#45;&gt;Node2</title>
<path fill="none" stroke="midnightblue" d="M68.3722,-43.1005C71.6242,-44.7421 74.8878,-46.4009 78,-48 79.3436,-48.6904 111.017,-65.4134 131.903,-76.4424"/>
<polygon fill="midnightblue" stroke="midnightblue" points="69.8806,-39.9415 59.3731,-38.5839 66.7406,-46.1978 69.8806,-39.9415"/>
</g>
<!-- Node6&#45;&gt;Node3 -->
<g id="edge6" class="edge"><title>Node6&#45;&gt;Node3</title>
<path fill="none" stroke="midnightblue" d="M88.1104,-37.31C96.7168,-38.7965 105.552,-40.3226 113.754,-41.7394"/>
<polygon fill="midnightblue" stroke="midnightblue" points="88.6138,-33.8452 78.164,-35.592 87.4223,-40.743 88.6138,-33.8452"/>
</g>
<!-- Node6&#45;&gt;Node5 -->
<g id="edge7" class="edge"><title>Node6&#45;&gt;Node5</title>
<path fill="none" stroke="midnightblue" d="M88.2976,-20.6577C99.0344,-18.8031 110.117,-16.8889 119.876,-15.2032"/>
<polygon fill="midnightblue" stroke="midnightblue" points="87.4223,-17.257 78.164,-22.408 88.6138,-24.1548 87.4223,-17.257"/>
</g>
</g>
</svg>
