<?xml version="1.0" encoding="UTF-8" standalone="no"?>
<!DOCTYPE svg PUBLIC "-//W3C//DTD SVG 1.1//EN"
 "http://www.w3.org/Graphics/SVG/1.1/DTD/svg11.dtd">
<!-- Generated by graphviz version 2.36.0 (20140111.2315)
 -->
<!-- Title: Graphe hiérarchique des classes Pages: 1 -->
<svg width="486pt" height="712pt"
 viewBox="0.00 0.00 486.00 712.00" xmlns="http://www.w3.org/2000/svg" xmlns:xlink="http://www.w3.org/1999/xlink">
<g id="graph0" class="graph" transform="scale(1 1) rotate(0) translate(4 708)">
<title>Graphe hiérarchique des classes</title>
<polygon fill="white" stroke="none" points="-4,4 -4,-708 482,-708 482,4 -4,4"/>
<!-- Node1 -->
<g id="node1" class="node"><title>Node1</title>
<g id="a_node1"><a xlink:href="dd/d66/class_d_g_l_1_1_object.xhtml" target="_top" xlink:title="DGL::Object">
<polygon fill="white" stroke="black" points="6.5,-399.5 6.5,-418.5 77.5,-418.5 77.5,-399.5 6.5,-399.5"/>
<text text-anchor="middle" x="42" y="-406.5" font-family="Helvetica,sans-Serif" font-size="10.00">DGL::Object</text>
</a>
</g>
</g>
<!-- Node2 -->
<g id="node2" class="node"><title>Node2</title>
<g id="a_node2"><a xlink:href="de/d94/class_d_g_l_1_1_effect.xhtml" target="_top" xlink:title="DGL::Effect">
<polygon fill="white" stroke="black" points="127.5,-570.5 127.5,-589.5 196.5,-589.5 196.5,-570.5 127.5,-570.5"/>
<text text-anchor="middle" x="162" y="-577.5" font-family="Helvetica,sans-Serif" font-size="10.00">DGL::Effect</text>
</a>
</g>
</g>
<!-- Node1&#45;&gt;Node2 -->
<g id="edge1" class="edge"><title>Node1&#45;&gt;Node2</title>
<path fill="none" stroke="midnightblue" d="M55.6045,-427.266C80.5452,-463.409 135.418,-542.927 154.391,-570.423"/>
<polygon fill="midnightblue" stroke="midnightblue" points="58.2426,-424.926 49.6823,-418.684 52.4812,-428.902 58.2426,-424.926"/>
</g>
<!-- Node8 -->
<g id="node8" class="node"><title>Node8</title>
<g id="a_node8"><a xlink:href="d6/d83/class_d_g_l_1_1_item.xhtml" target="_top" xlink:title="DGL::Item">
<polygon fill="white" stroke="black" points="131,-152.5 131,-171.5 193,-171.5 193,-152.5 131,-152.5"/>
<text text-anchor="middle" x="162" y="-159.5" font-family="Helvetica,sans-Serif" font-size="10.00">DGL::Item</text>
</a>
</g>
</g>
<!-- Node1&#45;&gt;Node8 -->
<g id="edge7" class="edge"><title>Node1&#45;&gt;Node8</title>
<path fill="none" stroke="midnightblue" d="M52.0464,-390.064C75.7128,-340.525 138.839,-208.389 156.406,-171.616"/>
<polygon fill="midnightblue" stroke="midnightblue" points="48.7784,-388.785 47.6257,-399.317 55.0946,-391.803 48.7784,-388.785"/>
</g>
<!-- Node17 -->
<g id="node17" class="node"><title>Node17</title>
<g id="a_node17"><a xlink:href="d9/dee/class_d_g_l_1_1_special.xhtml" target="_top" xlink:title="DGL::Special">
<polygon fill="white" stroke="black" points="124.5,-399.5 124.5,-418.5 199.5,-418.5 199.5,-399.5 124.5,-399.5"/>
<text text-anchor="middle" x="162" y="-406.5" font-family="Helvetica,sans-Serif" font-size="10.00">DGL::Special</text>
</a>
</g>
</g>
<!-- Node1&#45;&gt;Node17 -->
<g id="edge16" class="edge"><title>Node1&#45;&gt;Node17</title>
<path fill="none" stroke="midnightblue" d="M88.0655,-409C100.087,-409 112.928,-409 124.432,-409"/>
<polygon fill="midnightblue" stroke="midnightblue" points="87.7657,-405.5 77.7657,-409 87.7656,-412.5 87.7657,-405.5"/>
</g>
<!-- Node3 -->
<g id="node3" class="node"><title>Node3</title>
<g id="a_node3"><a xlink:href="d4/d56/class_d_g_l_1_1_color.xhtml" target="_top" xlink:title="DGL::Color">
<polygon fill="white" stroke="black" points="391,-570.5 391,-589.5 457,-589.5 457,-570.5 391,-570.5"/>
<text text-anchor="middle" x="424" y="-577.5" font-family="Helvetica,sans-Serif" font-size="10.00">DGL::Color</text>
</a>
</g>
</g>
<!-- Node2&#45;&gt;Node3 -->
<g id="edge2" class="edge"><title>Node2&#45;&gt;Node3</title>
<path fill="none" stroke="midnightblue" d="M203.968,-567.944C215.516,-565.08 228.16,-562.439 240,-561 281.473,-555.959 292.453,-556.615 334,-561 353.012,-563.007 373.935,-567.361 390.714,-571.396"/>
<polygon fill="midnightblue" stroke="midnightblue" points="202.949,-564.593 194.15,-570.494 204.709,-571.368 202.949,-564.593"/>
</g>
<!-- Node4 -->
<g id="node4" class="node"><title>Node4</title>
<g id="a_node4"><a xlink:href="d6/def/class_d_g_l_1_1_position.xhtml" target="_top" xlink:title="DGL::Position">
<polygon fill="white" stroke="black" points="248,-570.5 248,-589.5 326,-589.5 326,-570.5 248,-570.5"/>
<text text-anchor="middle" x="287" y="-577.5" font-family="Helvetica,sans-Serif" font-size="10.00">DGL::Position</text>
</a>
</g>
</g>
<!-- Node2&#45;&gt;Node4 -->
<g id="edge3" class="edge"><title>Node2&#45;&gt;Node4</title>
<path fill="none" stroke="midnightblue" d="M206.965,-580C220.262,-580 234.752,-580 247.651,-580"/>
<polygon fill="midnightblue" stroke="midnightblue" points="206.61,-576.5 196.61,-580 206.61,-583.5 206.61,-576.5"/>
</g>
<!-- Node5 -->
<g id="node5" class="node"><title>Node5</title>
<g id="a_node5"><a xlink:href="d7/de2/class_d_g_l_1_1_rotation.xhtml" target="_top" xlink:title="DGL::Rotation">
<polygon fill="white" stroke="black" points="247,-646.5 247,-665.5 327,-665.5 327,-646.5 247,-646.5"/>
<text text-anchor="middle" x="287" y="-653.5" font-family="Helvetica,sans-Serif" font-size="10.00">DGL::Rotation</text>
</a>
</g>
</g>
<!-- Node2&#45;&gt;Node5 -->
<g id="edge4" class="edge"><title>Node2&#45;&gt;Node5</title>
<path fill="none" stroke="midnightblue" d="M182.153,-596.26C197.206,-608.511 219.06,-625.164 240,-637 246.168,-640.486 253.104,-643.689 259.684,-646.431"/>
<polygon fill="midnightblue" stroke="midnightblue" points="184.07,-593.303 174.134,-589.625 179.608,-598.696 184.07,-593.303"/>
</g>
<!-- Node7 -->
<g id="node7" class="node"><title>Node7</title>
<g id="a_node7"><a xlink:href="d1/db9/class_d_g_l_1_1_scale.xhtml" target="_top" xlink:title="DGL::Scale">
<polygon fill="white" stroke="black" points="253,-608.5 253,-627.5 321,-627.5 321,-608.5 253,-608.5"/>
<text text-anchor="middle" x="287" y="-615.5" font-family="Helvetica,sans-Serif" font-size="10.00">DGL::Scale</text>
</a>
</g>
</g>
<!-- Node2&#45;&gt;Node7 -->
<g id="edge6" class="edge"><title>Node2&#45;&gt;Node7</title>
<path fill="none" stroke="midnightblue" d="M204.045,-592.68C220.664,-597.815 239.532,-603.644 254.972,-608.414"/>
<polygon fill="midnightblue" stroke="midnightblue" points="204.626,-589.197 194.038,-589.589 202.559,-595.885 204.626,-589.197"/>
</g>
<!-- Node6 -->
<g id="node6" class="node"><title>Node6</title>
<g id="a_node6"><a xlink:href="da/d85/class_d_g_l_1_1_rotation_speed.xhtml" target="_top" xlink:title="DGL::RotationSpeed">
<polygon fill="white" stroke="black" points="370.5,-646.5 370.5,-665.5 477.5,-665.5 477.5,-646.5 370.5,-646.5"/>
<text text-anchor="middle" x="424" y="-653.5" font-family="Helvetica,sans-Serif" font-size="10.00">DGL::RotationSpeed</text>
</a>
</g>
</g>
<!-- Node5&#45;&gt;Node6 -->
<g id="edge5" class="edge"><title>Node5&#45;&gt;Node6</title>
<path fill="none" stroke="midnightblue" d="M337.182,-656C348.011,-656 359.521,-656 370.476,-656"/>
<polygon fill="midnightblue" stroke="midnightblue" points="337.048,-652.5 327.048,-656 337.048,-659.5 337.048,-652.5"/>
</g>
<!-- Node9 -->
<g id="node9" class="node"><title>Node9</title>
<g id="a_node9"><a xlink:href="dc/d93/class_d_g_l_1_1_box.xhtml" target="_top" xlink:title="DGL::Box">
<polygon fill="white" stroke="black" points="257,-76.5 257,-95.5 317,-95.5 317,-76.5 257,-76.5"/>
<text text-anchor="middle" x="287" y="-83.5" font-family="Helvetica,sans-Serif" font-size="10.00">DGL::Box</text>
</a>
</g>
</g>
<!-- Node8&#45;&gt;Node9 -->
<g id="edge8" class="edge"><title>Node8&#45;&gt;Node9</title>
<path fill="none" stroke="midnightblue" d="M182.153,-145.74C197.206,-133.489 219.06,-116.836 240,-105 246.168,-101.514 253.104,-98.3112 259.684,-95.5687"/>
<polygon fill="midnightblue" stroke="midnightblue" points="179.608,-143.304 174.134,-152.375 184.07,-148.697 179.608,-143.304"/>
</g>
<!-- Node10 -->
<g id="node10" class="node"><title>Node10</title>
<g id="a_node10"><a xlink:href="d0/d65/class_d_g_l_1_1_circle.xhtml" target="_top" xlink:title="DGL::Circle">
<polygon fill="white" stroke="black" points="253,-38.5 253,-57.5 321,-57.5 321,-38.5 253,-38.5"/>
<text text-anchor="middle" x="287" y="-45.5" font-family="Helvetica,sans-Serif" font-size="10.00">DGL::Circle</text>
</a>
</g>
</g>
<!-- Node8&#45;&gt;Node10 -->
<g id="edge9" class="edge"><title>Node8&#45;&gt;Node10</title>
<path fill="none" stroke="midnightblue" d="M173.849,-143.686C187.113,-122.666 211.366,-88.3494 240,-67 244.987,-63.2813 250.808,-60.1515 256.599,-57.5734"/>
<polygon fill="midnightblue" stroke="midnightblue" points="170.801,-141.961 168.551,-152.315 176.766,-145.624 170.801,-141.961"/>
</g>
<!-- Node11 -->
<g id="node11" class="node"><title>Node11</title>
<g id="a_node11"><a xlink:href="dc/d54/class_d_g_l_1_1_dot.xhtml" target="_top" xlink:title="DGL::Dot">
<polygon fill="white" stroke="black" points="257.5,-0.5 257.5,-19.5 316.5,-19.5 316.5,-0.5 257.5,-0.5"/>
<text text-anchor="middle" x="287" y="-7.5" font-family="Helvetica,sans-Serif" font-size="10.00">DGL::Dot</text>
</a>
</g>
</g>
<!-- Node8&#45;&gt;Node11 -->
<g id="edge10" class="edge"><title>Node8&#45;&gt;Node11</title>
<path fill="none" stroke="midnightblue" d="M169.616,-142.579C180.242,-114.055 203.679,-60.7822 240,-29 244.942,-24.6756 251.004,-21.2443 257.085,-18.5569"/>
<polygon fill="midnightblue" stroke="midnightblue" points="166.246,-141.609 166.17,-152.203 172.836,-143.968 166.246,-141.609"/>
</g>
<!-- Node12 -->
<g id="node12" class="node"><title>Node12</title>
<g id="a_node12"><a xlink:href="d0/d99/class_d_g_l_1_1_line.xhtml" target="_top" xlink:title="DGL::Line">
<polygon fill="white" stroke="black" points="256.5,-266.5 256.5,-285.5 317.5,-285.5 317.5,-266.5 256.5,-266.5"/>
<text text-anchor="middle" x="287" y="-273.5" font-family="Helvetica,sans-Serif" font-size="10.00">DGL::Line</text>
</a>
</g>
</g>
<!-- Node8&#45;&gt;Node12 -->
<g id="edge11" class="edge"><title>Node8&#45;&gt;Node12</title>
<path fill="none" stroke="midnightblue" d="M173.849,-180.314C187.113,-201.334 211.366,-235.651 240,-257 244.987,-260.719 250.808,-263.849 256.599,-266.427"/>
<polygon fill="midnightblue" stroke="midnightblue" points="176.766,-178.376 168.551,-171.685 170.801,-182.039 176.766,-178.376"/>
</g>
<!-- Node13 -->
<g id="node13" class="node"><title>Node13</title>
<g id="a_node13"><a xlink:href="d5/db7/class_d_g_l_1_1_polygon.xhtml" target="_top" xlink:title="DGL::Polygon">
<polygon fill="white" stroke="black" points="248,-228.5 248,-247.5 326,-247.5 326,-228.5 248,-228.5"/>
<text text-anchor="middle" x="287" y="-235.5" font-family="Helvetica,sans-Serif" font-size="10.00">DGL::Polygon</text>
</a>
</g>
</g>
<!-- Node8&#45;&gt;Node13 -->
<g id="edge12" class="edge"><title>Node8&#45;&gt;Node13</title>
<path fill="none" stroke="midnightblue" d="M182.153,-178.26C197.206,-190.511 219.06,-207.164 240,-219 246.168,-222.486 253.104,-225.689 259.684,-228.431"/>
<polygon fill="midnightblue" stroke="midnightblue" points="184.07,-175.303 174.134,-171.625 179.608,-180.696 184.07,-175.303"/>
</g>
<!-- Node14 -->
<g id="node14" class="node"><title>Node14</title>
<g id="a_node14"><a xlink:href="d0/da1/class_d_g_l_1_1_quad.xhtml" target="_top" xlink:title="DGL::Quad">
<polygon fill="white" stroke="black" points="254,-190.5 254,-209.5 320,-209.5 320,-190.5 254,-190.5"/>
<text text-anchor="middle" x="287" y="-197.5" font-family="Helvetica,sans-Serif" font-size="10.00">DGL::Quad</text>
</a>
</g>
</g>
<!-- Node8&#45;&gt;Node14 -->
<g id="edge13" class="edge"><title>Node8&#45;&gt;Node14</title>
<path fill="none" stroke="midnightblue" d="M202.715,-174.27C219.639,-179.498 239.091,-185.508 254.937,-190.403"/>
<polygon fill="midnightblue" stroke="midnightblue" points="203.677,-170.904 193.089,-171.296 201.61,-177.592 203.677,-170.904"/>
</g>
<!-- Node15 -->
<g id="node15" class="node"><title>Node15</title>
<g id="a_node15"><a xlink:href="df/dee/class_d_g_l_1_1_robot1.xhtml" target="_top" xlink:title="DGL::Robot1">
<polygon fill="white" stroke="black" points="250,-152.5 250,-171.5 324,-171.5 324,-152.5 250,-152.5"/>
<text text-anchor="middle" x="287" y="-159.5" font-family="Helvetica,sans-Serif" font-size="10.00">DGL::Robot1</text>
</a>
</g>
</g>
<!-- Node8&#45;&gt;Node15 -->
<g id="edge14" class="edge"><title>Node8&#45;&gt;Node15</title>
<path fill="none" stroke="midnightblue" d="M203.104,-162C218.092,-162 235.016,-162 249.647,-162"/>
<polygon fill="midnightblue" stroke="midnightblue" points="203.089,-158.5 193.089,-162 203.089,-165.5 203.089,-158.5"/>
</g>
<!-- Node16 -->
<g id="node16" class="node"><title>Node16</title>
<g id="a_node16"><a xlink:href="d3/dc2/class_d_g_l_1_1_triangle.xhtml" target="_top" xlink:title="DGL::Triangle">
<polygon fill="white" stroke="black" points="248.5,-114.5 248.5,-133.5 325.5,-133.5 325.5,-114.5 248.5,-114.5"/>
<text text-anchor="middle" x="287" y="-121.5" font-family="Helvetica,sans-Serif" font-size="10.00">DGL::Triangle</text>
</a>
</g>
</g>
<!-- Node8&#45;&gt;Node16 -->
<g id="edge15" class="edge"><title>Node8&#45;&gt;Node16</title>
<path fill="none" stroke="midnightblue" d="M202.715,-149.73C219.639,-144.502 239.091,-138.492 254.937,-133.597"/>
<polygon fill="midnightblue" stroke="midnightblue" points="201.61,-146.408 193.089,-152.704 203.677,-153.096 201.61,-146.408"/>
</g>
<!-- Node18 -->
<g id="node18" class="node"><title>Node18</title>
<g id="a_node18"><a xlink:href="dd/d5a/class_d_g_l_1_1_camera.xhtml" target="_top" xlink:title="DGL::Camera">
<polygon fill="white" stroke="black" points="248.5,-456.5 248.5,-475.5 325.5,-475.5 325.5,-456.5 248.5,-456.5"/>
<text text-anchor="middle" x="287" y="-463.5" font-family="Helvetica,sans-Serif" font-size="10.00">DGL::Camera</text>
</a>
</g>
</g>
<!-- Node17&#45;&gt;Node18 -->
<g id="edge17" class="edge"><title>Node17&#45;&gt;Node18</title>
<path fill="none" stroke="midnightblue" d="M190.505,-423.129C205.099,-430.485 223.401,-439.486 240,-447 247.084,-450.207 254.873,-453.507 261.995,-456.439"/>
<polygon fill="midnightblue" stroke="midnightblue" points="192.007,-419.967 181.505,-418.566 188.841,-426.21 192.007,-419.967"/>
</g>
<!-- Node19 -->
<g id="node19" class="node"><title>Node19</title>
<g id="a_node19"><a xlink:href="d5/d57/class_d_g_l_1_1_camera_list.xhtml" target="_top" xlink:title="DGL::CameraList">
<polygon fill="white" stroke="black" points="240.5,-418.5 240.5,-437.5 333.5,-437.5 333.5,-418.5 240.5,-418.5"/>
<text text-anchor="middle" x="287" y="-425.5" font-family="Helvetica,sans-Serif" font-size="10.00">DGL::CameraList</text>
</a>
</g>
</g>
<!-- Node17&#45;&gt;Node19 -->
<g id="edge18" class="edge"><title>Node17&#45;&gt;Node19</title>
<path fill="none" stroke="midnightblue" d="M209.725,-416.218C219.706,-417.759 230.239,-419.387 240.186,-420.923"/>
<polygon fill="midnightblue" stroke="midnightblue" points="209.988,-412.717 199.571,-414.649 208.919,-419.635 209.988,-412.717"/>
</g>
<!-- Node20 -->
<g id="node20" class="node"><title>Node20</title>
<g id="a_node20"><a xlink:href="d2/d80/class_d_g_l_1_1_light.xhtml" target="_top" xlink:title="DGL::Light">
<polygon fill="white" stroke="black" points="255,-380.5 255,-399.5 319,-399.5 319,-380.5 255,-380.5"/>
<text text-anchor="middle" x="287" y="-387.5" font-family="Helvetica,sans-Serif" font-size="10.00">DGL::Light</text>
</a>
</g>
</g>
<!-- Node17&#45;&gt;Node20 -->
<g id="edge19" class="edge"><title>Node17&#45;&gt;Node20</title>
<path fill="none" stroke="midnightblue" d="M209.746,-401.779C224.802,-399.453 241.111,-396.934 254.768,-394.824"/>
<polygon fill="midnightblue" stroke="midnightblue" points="208.919,-398.365 199.571,-403.351 209.988,-405.283 208.919,-398.365"/>
</g>
<!-- Node21 -->
<g id="node21" class="node"><title>Node21</title>
<g id="a_node21"><a xlink:href="df/dac/class_d_g_l_1_1_scene.xhtml" target="_top" xlink:title="DGL::Scene">
<polygon fill="white" stroke="black" points="251.5,-342.5 251.5,-361.5 322.5,-361.5 322.5,-342.5 251.5,-342.5"/>
<text text-anchor="middle" x="287" y="-349.5" font-family="Helvetica,sans-Serif" font-size="10.00">DGL::Scene</text>
</a>
</g>
</g>
<!-- Node17&#45;&gt;Node21 -->
<g id="edge20" class="edge"><title>Node17&#45;&gt;Node21</title>
<path fill="none" stroke="midnightblue" d="M190.505,-394.871C205.099,-387.515 223.401,-378.514 240,-371 247.084,-367.793 254.873,-364.493 261.995,-361.561"/>
<polygon fill="midnightblue" stroke="midnightblue" points="188.841,-391.79 181.505,-399.434 192.007,-398.033 188.841,-391.79"/>
</g>
<!-- Node22 -->
<g id="node22" class="node"><title>Node22</title>
<g id="a_node22"><a xlink:href="d1/d91/class_d_g_l_1_1_window.xhtml" target="_top" xlink:title="DGL::Window">
<polygon fill="white" stroke="black" points="248,-304.5 248,-323.5 326,-323.5 326,-304.5 248,-304.5"/>
<text text-anchor="middle" x="287" y="-311.5" font-family="Helvetica,sans-Serif" font-size="10.00">DGL::Window</text>
</a>
</g>
</g>
<!-- Node17&#45;&gt;Node22 -->
<g id="edge21" class="edge"><title>Node17&#45;&gt;Node22</title>
<path fill="none" stroke="midnightblue" d="M177.231,-391.447C191.613,-374.626 215.201,-349.435 240,-333 245.474,-329.372 251.752,-326.224 257.874,-323.59"/>
<polygon fill="midnightblue" stroke="midnightblue" points="174.319,-389.472 170.591,-399.389 179.69,-393.962 174.319,-389.472"/>
</g>
<!-- Node23 -->
<g id="node23" class="node"><title>Node23</title>
<g id="a_node23"><a xlink:href="d2/df1/class_d_g_l_1_1_world.xhtml" target="_top" xlink:title="DGL::World">
<polygon fill="white" stroke="black" points="253,-494.5 253,-513.5 321,-513.5 321,-494.5 253,-494.5"/>
<text text-anchor="middle" x="287" y="-501.5" font-family="Helvetica,sans-Serif" font-size="10.00">DGL::World</text>
</a>
</g>
</g>
<!-- Node17&#45;&gt;Node23 -->
<g id="edge22" class="edge"><title>Node17&#45;&gt;Node23</title>
<path fill="none" stroke="midnightblue" d="M177.231,-426.553C191.613,-443.374 215.201,-468.565 240,-485 245.474,-488.628 251.752,-491.776 257.874,-494.41"/>
<polygon fill="midnightblue" stroke="midnightblue" points="179.69,-424.038 170.591,-418.611 174.319,-428.528 179.69,-424.038"/>
</g>
<!-- Node24 -->
<g id="node24" class="node"><title>Node24</title>
<g id="a_node24"><a xlink:href="d4/df5/class_d_g_l_1_1_vector2_d.xhtml" target="_top" xlink:title="DGL::Vector2D">
<polygon fill="white" stroke="black" points="0,-627.5 0,-646.5 84,-646.5 84,-627.5 0,-627.5"/>
<text text-anchor="middle" x="42" y="-634.5" font-family="Helvetica,sans-Serif" font-size="10.00">DGL::Vector2D</text>
</a>
</g>
</g>
<!-- Node25 -->
<g id="node25" class="node"><title>Node25</title>
<g id="a_node25"><a xlink:href="dc/db6/class_d_g_l_1_1_vector3_d.xhtml" target="_top" xlink:title="DGL::Vector3D">
<polygon fill="white" stroke="black" points="120,-627.5 120,-646.5 204,-646.5 204,-627.5 120,-627.5"/>
<text text-anchor="middle" x="162" y="-634.5" font-family="Helvetica,sans-Serif" font-size="10.00">DGL::Vector3D</text>
</a>
</g>
</g>
<!-- Node24&#45;&gt;Node25 -->
<g id="edge23" class="edge"><title>Node24&#45;&gt;Node25</title>
<path fill="none" stroke="midnightblue" d="M94.5014,-637C103.015,-637 111.74,-637 119.952,-637"/>
<polygon fill="midnightblue" stroke="midnightblue" points="94.2707,-633.5 84.2707,-637 94.2706,-640.5 94.2707,-633.5"/>
</g>
<!-- Node25&#45;&gt;Node4 -->
<g id="edge24" class="edge"><title>Node25&#45;&gt;Node4</title>
<path fill="none" stroke="midnightblue" d="M190.505,-622.871C205.099,-615.515 223.401,-606.514 240,-599 247.084,-595.793 254.873,-592.493 261.995,-589.561"/>
<polygon fill="midnightblue" stroke="midnightblue" points="188.841,-619.79 181.505,-627.434 192.007,-626.033 188.841,-619.79"/>
</g>
<!-- Node25&#45;&gt;Node5 -->
<g id="edge25" class="edge"><title>Node25&#45;&gt;Node5</title>
<path fill="none" stroke="midnightblue" d="M214.457,-644.949C225.234,-646.613 236.433,-648.343 246.683,-649.927"/>
<polygon fill="midnightblue" stroke="midnightblue" points="214.717,-641.447 204.299,-643.38 213.648,-648.365 214.717,-641.447"/>
</g>
<!-- Node25&#45;&gt;Node7 -->
<g id="edge26" class="edge"><title>Node25&#45;&gt;Node7</title>
<path fill="none" stroke="midnightblue" d="M214.501,-629.045C227.441,-627.046 240.988,-624.953 252.766,-623.134"/>
<polygon fill="midnightblue" stroke="midnightblue" points="213.648,-625.635 204.299,-630.62 214.717,-632.553 213.648,-625.635"/>
</g>
<!-- Node26 -->
<g id="node26" class="node"><title>Node26</title>
<g id="a_node26"><a xlink:href="d9/d48/class_d_g_l_1_1_vector4_d.xhtml" target="_top" xlink:title="DGL::Vector4D">
<polygon fill="white" stroke="black" points="245,-684.5 245,-703.5 329,-703.5 329,-684.5 245,-684.5"/>
<text text-anchor="middle" x="287" y="-691.5" font-family="Helvetica,sans-Serif" font-size="10.00">DGL::Vector4D</text>
</a>
</g>
</g>
<!-- Node25&#45;&gt;Node26 -->
<g id="edge27" class="edge"><title>Node25&#45;&gt;Node26</title>
<path fill="none" stroke="midnightblue" d="M190.505,-651.129C205.099,-658.485 223.401,-667.486 240,-675 247.084,-678.207 254.873,-681.507 261.995,-684.439"/>
<polygon fill="midnightblue" stroke="midnightblue" points="192.007,-647.967 181.505,-646.566 188.841,-654.21 192.007,-647.967"/>
</g>
<!-- Node26&#45;&gt;Node3 -->
<g id="edge28" class="edge"><title>Node26&#45;&gt;Node3</title>
<path fill="none" stroke="midnightblue" d="M325.895,-679.921C328.716,-678.402 331.452,-676.761 334,-675 335.191,-674.177 391.546,-613.753 413.952,-589.711"/>
<polygon fill="midnightblue" stroke="midnightblue" points="324.196,-676.854 316.716,-684.358 327.243,-683.156 324.196,-676.854"/>
</g>
</g>
</svg>
