<?xml version="1.0" encoding="UTF-8" standalone="no"?>
<!DOCTYPE svg PUBLIC "-//W3C//DTD SVG 1.1//EN"
 "http://www.w3.org/Graphics/SVG/1.1/DTD/svg11.dtd">
<!-- Generated by graphviz version 2.36.0 (20140111.2315)
 -->
<!-- Title: Graphe hiérarchique des classes Pages: 1 -->
<svg width="420pt" height="636pt"
 viewBox="0.00 0.00 420.00 636.00" xmlns="http://www.w3.org/2000/svg" xmlns:xlink="http://www.w3.org/1999/xlink">
<g id="graph0" class="graph" transform="scale(1 1) rotate(0) translate(4 632)">
<title>Graphe hiérarchique des classes</title>
<polygon fill="white" stroke="none" points="-4,4 -4,-632 416,-632 416,4 -4,4"/>
<!-- Node1 -->
<g id="node1" class="node"><title>Node1</title>
<g id="a_node1"><a xlink:href="d2/d76/class_c_g_l_object.xhtml" target="_top" xlink:title="CGLObject">
<polygon fill="white" stroke="black" points="6.5,-285.5 6.5,-304.5 71.5,-304.5 71.5,-285.5 6.5,-285.5"/>
<text text-anchor="middle" x="39" y="-292.5" font-family="Helvetica,sans-Serif" font-size="10.00">CGLObject</text>
</a>
</g>
</g>
<!-- Node2 -->
<g id="node2" class="node"><title>Node2</title>
<g id="a_node2"><a xlink:href="dc/d8a/class_c_g_l_effect.xhtml" target="_top" xlink:title="CGLEffect">
<polygon fill="white" stroke="black" points="121.5,-114.5 121.5,-133.5 184.5,-133.5 184.5,-114.5 121.5,-114.5"/>
<text text-anchor="middle" x="153" y="-121.5" font-family="Helvetica,sans-Serif" font-size="10.00">CGLEffect</text>
</a>
</g>
</g>
<!-- Node1&#45;&gt;Node2 -->
<g id="edge1" class="edge"><title>Node1&#45;&gt;Node2</title>
<path fill="none" stroke="midnightblue" d="M51.9636,-276.734C75.6361,-240.591 127.718,-161.073 145.727,-133.577"/>
<polygon fill="midnightblue" stroke="midnightblue" points="48.8937,-275.033 46.3425,-285.316 54.7495,-278.869 48.8937,-275.033"/>
</g>
<!-- Node7 -->
<g id="node7" class="node"><title>Node7</title>
<g id="a_node7"><a xlink:href="d7/d2f/class_c_g_l_item.xhtml" target="_top" xlink:title="CGLItem">
<polygon fill="white" stroke="black" points="125,-285.5 125,-304.5 181,-304.5 181,-285.5 125,-285.5"/>
<text text-anchor="middle" x="153" y="-292.5" font-family="Helvetica,sans-Serif" font-size="10.00">CGLItem</text>
</a>
</g>
</g>
<!-- Node1&#45;&gt;Node7 -->
<g id="edge6" class="edge"><title>Node1&#45;&gt;Node7</title>
<path fill="none" stroke="midnightblue" d="M81.9198,-295C96.2223,-295 111.835,-295 124.687,-295"/>
<polygon fill="midnightblue" stroke="midnightblue" points="81.7952,-291.5 71.7951,-295 81.7951,-298.5 81.7952,-291.5"/>
</g>
<!-- Node14 -->
<g id="node14" class="node"><title>Node14</title>
<g id="a_node14"><a xlink:href="d0/d14/class_c_g_l_special.xhtml" target="_top" xlink:title="CGLSpecial">
<polygon fill="white" stroke="black" points="118.5,-494.5 118.5,-513.5 187.5,-513.5 187.5,-494.5 118.5,-494.5"/>
<text text-anchor="middle" x="153" y="-501.5" font-family="Helvetica,sans-Serif" font-size="10.00">CGLSpecial</text>
</a>
</g>
</g>
<!-- Node1&#45;&gt;Node14 -->
<g id="edge13" class="edge"><title>Node1&#45;&gt;Node14</title>
<path fill="none" stroke="midnightblue" d="M49.8306,-313.345C72.8305,-356.264 129.511,-462.035 146.867,-494.421"/>
<polygon fill="midnightblue" stroke="midnightblue" points="52.9118,-311.684 45.1034,-304.523 46.7419,-314.991 52.9118,-311.684"/>
</g>
<!-- Node3 -->
<g id="node3" class="node"><title>Node3</title>
<g id="a_node3"><a xlink:href="d7/dd6/class_c_g_l_color.xhtml" target="_top" xlink:title="CGLColor">
<polygon fill="white" stroke="black" points="352,-76.5 352,-95.5 412,-95.5 412,-76.5 352,-76.5"/>
<text text-anchor="middle" x="382" y="-83.5" font-family="Helvetica,sans-Serif" font-size="10.00">CGLColor</text>
</a>
</g>
</g>
<!-- Node2&#45;&gt;Node3 -->
<g id="edge2" class="edge"><title>Node2&#45;&gt;Node3</title>
<path fill="none" stroke="midnightblue" d="M187.683,-136.846C221.244,-147.619 273.728,-158.909 316,-143 341.285,-133.484 363.148,-109.17 373.901,-95.5721"/>
<polygon fill="midnightblue" stroke="midnightblue" points="188.502,-133.428 177.908,-133.55 186.265,-140.061 188.502,-133.428"/>
</g>
<!-- Node4 -->
<g id="node4" class="node"><title>Node4</title>
<g id="a_node4"><a xlink:href="de/d31/class_c_g_l_position.xhtml" target="_top" xlink:title="CGLPosition">
<polygon fill="white" stroke="black" points="236,-38.5 236,-57.5 308,-57.5 308,-38.5 236,-38.5"/>
<text text-anchor="middle" x="272" y="-45.5" font-family="Helvetica,sans-Serif" font-size="10.00">CGLPosition</text>
</a>
</g>
</g>
<!-- Node2&#45;&gt;Node4 -->
<g id="edge3" class="edge"><title>Node2&#45;&gt;Node4</title>
<path fill="none" stroke="midnightblue" d="M172.637,-107.611C187.084,-95.4237 207.956,-78.9119 228,-67 233.753,-63.581 240.233,-60.4028 246.383,-57.6621"/>
<polygon fill="midnightblue" stroke="midnightblue" points="170.243,-105.053 164.928,-114.219 174.799,-110.368 170.243,-105.053"/>
</g>
<!-- Node5 -->
<g id="node5" class="node"><title>Node5</title>
<g id="a_node5"><a xlink:href="d4/dd5/class_c_g_l_rotation.xhtml" target="_top" xlink:title="CGLRotation">
<polygon fill="white" stroke="black" points="235,-114.5 235,-133.5 309,-133.5 309,-114.5 235,-114.5"/>
<text text-anchor="middle" x="272" y="-121.5" font-family="Helvetica,sans-Serif" font-size="10.00">CGLRotation</text>
</a>
</g>
</g>
<!-- Node2&#45;&gt;Node5 -->
<g id="edge4" class="edge"><title>Node2&#45;&gt;Node5</title>
<path fill="none" stroke="midnightblue" d="M194.808,-124C207.773,-124 222.018,-124 234.647,-124"/>
<polygon fill="midnightblue" stroke="midnightblue" points="194.74,-120.5 184.74,-124 194.74,-127.5 194.74,-120.5"/>
</g>
<!-- Node6 -->
<g id="node6" class="node"><title>Node6</title>
<g id="a_node6"><a xlink:href="dd/dd7/class_c_g_l_scale.xhtml" target="_top" xlink:title="CGLScale">
<polygon fill="white" stroke="black" points="241,-76.5 241,-95.5 303,-95.5 303,-76.5 241,-76.5"/>
<text text-anchor="middle" x="272" y="-83.5" font-family="Helvetica,sans-Serif" font-size="10.00">CGLScale</text>
</a>
</g>
</g>
<!-- Node2&#45;&gt;Node6 -->
<g id="edge5" class="edge"><title>Node2&#45;&gt;Node6</title>
<path fill="none" stroke="midnightblue" d="M193.042,-111.32C208.851,-106.185 226.799,-100.356 241.485,-95.5859"/>
<polygon fill="midnightblue" stroke="midnightblue" points="191.954,-107.993 183.524,-114.411 194.116,-114.651 191.954,-107.993"/>
</g>
<!-- Node8 -->
<g id="node8" class="node"><title>Node8</title>
<g id="a_node8"><a xlink:href="dd/daf/class_c_g_l_boite.xhtml" target="_top" xlink:title="CGLBoite">
<polygon fill="white" stroke="black" points="242.5,-228.5 242.5,-247.5 301.5,-247.5 301.5,-228.5 242.5,-228.5"/>
<text text-anchor="middle" x="272" y="-235.5" font-family="Helvetica,sans-Serif" font-size="10.00">CGLBoite</text>
</a>
</g>
</g>
<!-- Node7&#45;&gt;Node8 -->
<g id="edge7" class="edge"><title>Node7&#45;&gt;Node8</title>
<path fill="none" stroke="midnightblue" d="M180.853,-280.733C194.816,-273.436 212.221,-264.53 228,-257 234.629,-253.837 241.912,-250.549 248.569,-247.616"/>
<polygon fill="midnightblue" stroke="midnightblue" points="179.022,-277.741 171.798,-285.491 182.278,-283.938 179.022,-277.741"/>
</g>
<!-- Node9 -->
<g id="node9" class="node"><title>Node9</title>
<g id="a_node9"><a xlink:href="da/d38/class_c_g_l_dot.xhtml" target="_top" xlink:title="CGLDot">
<polygon fill="white" stroke="black" points="245.5,-190.5 245.5,-209.5 298.5,-209.5 298.5,-190.5 245.5,-190.5"/>
<text text-anchor="middle" x="272" y="-197.5" font-family="Helvetica,sans-Serif" font-size="10.00">CGLDot</text>
</a>
</g>
</g>
<!-- Node7&#45;&gt;Node9 -->
<g id="edge8" class="edge"><title>Node7&#45;&gt;Node9</title>
<path fill="none" stroke="midnightblue" d="M167.624,-277.54C181.407,-260.788 204.048,-235.648 228,-219 233.227,-215.367 239.261,-212.184 245.125,-209.514"/>
<polygon fill="midnightblue" stroke="midnightblue" points="164.805,-275.46 161.264,-285.445 170.259,-279.848 164.805,-275.46"/>
</g>
<!-- Node10 -->
<g id="node10" class="node"><title>Node10</title>
<g id="a_node10"><a xlink:href="d9/dfe/class_c_g_l_line.xhtml" target="_top" xlink:title="CGLLine">
<polygon fill="white" stroke="black" points="244.5,-380.5 244.5,-399.5 299.5,-399.5 299.5,-380.5 244.5,-380.5"/>
<text text-anchor="middle" x="272" y="-387.5" font-family="Helvetica,sans-Serif" font-size="10.00">CGLLine</text>
</a>
</g>
</g>
<!-- Node7&#45;&gt;Node10 -->
<g id="edge9" class="edge"><title>Node7&#45;&gt;Node10</title>
<path fill="none" stroke="midnightblue" d="M167.624,-312.46C181.407,-329.212 204.048,-354.352 228,-371 233.227,-374.633 239.261,-377.816 245.125,-380.486"/>
<polygon fill="midnightblue" stroke="midnightblue" points="170.259,-310.152 161.264,-304.555 164.805,-314.54 170.259,-310.152"/>
</g>
<!-- Node11 -->
<g id="node11" class="node"><title>Node11</title>
<g id="a_node11"><a xlink:href="df/d41/class_c_g_l_quad.xhtml" target="_top" xlink:title="CGLQuad">
<polygon fill="white" stroke="black" points="242,-342.5 242,-361.5 302,-361.5 302,-342.5 242,-342.5"/>
<text text-anchor="middle" x="272" y="-349.5" font-family="Helvetica,sans-Serif" font-size="10.00">CGLQuad</text>
</a>
</g>
</g>
<!-- Node7&#45;&gt;Node11 -->
<g id="edge10" class="edge"><title>Node7&#45;&gt;Node11</title>
<path fill="none" stroke="midnightblue" d="M180.853,-309.267C194.816,-316.564 212.221,-325.47 228,-333 234.629,-336.163 241.912,-339.451 248.569,-342.384"/>
<polygon fill="midnightblue" stroke="midnightblue" points="182.278,-306.062 171.798,-304.509 179.022,-312.259 182.278,-306.062"/>
</g>
<!-- Node12 -->
<g id="node12" class="node"><title>Node12</title>
<g id="a_node12"><a xlink:href="d8/dbf/class_c_g_l_robot1.xhtml" target="_top" xlink:title="CGLRobot1">
<polygon fill="white" stroke="black" points="238,-304.5 238,-323.5 306,-323.5 306,-304.5 238,-304.5"/>
<text text-anchor="middle" x="272" y="-311.5" font-family="Helvetica,sans-Serif" font-size="10.00">CGLRobot1</text>
</a>
</g>
</g>
<!-- Node7&#45;&gt;Node12 -->
<g id="edge11" class="edge"><title>Node7&#45;&gt;Node12</title>
<path fill="none" stroke="midnightblue" d="M191.092,-301.024C206.058,-303.454 223.192,-306.236 237.746,-308.6"/>
<polygon fill="midnightblue" stroke="midnightblue" points="191.568,-297.555 181.136,-299.407 190.446,-304.464 191.568,-297.555"/>
</g>
<!-- Node13 -->
<g id="node13" class="node"><title>Node13</title>
<g id="a_node13"><a xlink:href="d1/d68/class_c_g_l_triangle.xhtml" target="_top" xlink:title="CGLTriangle">
<polygon fill="white" stroke="black" points="236.5,-266.5 236.5,-285.5 307.5,-285.5 307.5,-266.5 236.5,-266.5"/>
<text text-anchor="middle" x="272" y="-273.5" font-family="Helvetica,sans-Serif" font-size="10.00">CGLTriangle</text>
</a>
</g>
</g>
<!-- Node7&#45;&gt;Node13 -->
<g id="edge12" class="edge"><title>Node7&#45;&gt;Node13</title>
<path fill="none" stroke="midnightblue" d="M191.265,-288.948C205.747,-286.597 222.238,-283.919 236.45,-281.611"/>
<polygon fill="midnightblue" stroke="midnightblue" points="190.446,-285.536 181.136,-290.593 191.568,-292.445 190.446,-285.536"/>
</g>
<!-- Node15 -->
<g id="node15" class="node"><title>Node15</title>
<g id="a_node15"><a xlink:href="de/dee/class_c_g_l_camera.xhtml" target="_top" xlink:title="CGLCamera">
<polygon fill="white" stroke="black" points="236.5,-494.5 236.5,-513.5 307.5,-513.5 307.5,-494.5 236.5,-494.5"/>
<text text-anchor="middle" x="272" y="-501.5" font-family="Helvetica,sans-Serif" font-size="10.00">CGLCamera</text>
</a>
</g>
</g>
<!-- Node14&#45;&gt;Node15 -->
<g id="edge14" class="edge"><title>Node14&#45;&gt;Node15</title>
<path fill="none" stroke="midnightblue" d="M197.886,-504C210.56,-504 224.211,-504 236.246,-504"/>
<polygon fill="midnightblue" stroke="midnightblue" points="197.528,-500.5 187.528,-504 197.527,-507.5 197.528,-500.5"/>
</g>
<!-- Node16 -->
<g id="node16" class="node"><title>Node16</title>
<g id="a_node16"><a xlink:href="d4/dad/class_c_g_l_camera_list.xhtml" target="_top" xlink:title="CGLCameraList">
<polygon fill="white" stroke="black" points="228.5,-456.5 228.5,-475.5 315.5,-475.5 315.5,-456.5 228.5,-456.5"/>
<text text-anchor="middle" x="272" y="-463.5" font-family="Helvetica,sans-Serif" font-size="10.00">CGLCameraList</text>
</a>
</g>
</g>
<!-- Node14&#45;&gt;Node16 -->
<g id="edge15" class="edge"><title>Node14&#45;&gt;Node16</title>
<path fill="none" stroke="midnightblue" d="M193.042,-491.32C208.851,-486.185 226.799,-480.356 241.485,-475.586"/>
<polygon fill="midnightblue" stroke="midnightblue" points="191.954,-487.993 183.524,-494.411 194.116,-494.651 191.954,-487.993"/>
</g>
<!-- Node17 -->
<g id="node17" class="node"><title>Node17</title>
<g id="a_node17"><a xlink:href="da/dc8/class_c_g_l_light.xhtml" target="_top" xlink:title="CGLLight">
<polygon fill="white" stroke="black" points="243,-418.5 243,-437.5 301,-437.5 301,-418.5 243,-418.5"/>
<text text-anchor="middle" x="272" y="-425.5" font-family="Helvetica,sans-Serif" font-size="10.00">CGLLight</text>
</a>
</g>
</g>
<!-- Node14&#45;&gt;Node17 -->
<g id="edge16" class="edge"><title>Node14&#45;&gt;Node17</title>
<path fill="none" stroke="midnightblue" d="M172.637,-487.611C187.084,-475.424 207.956,-458.912 228,-447 233.753,-443.581 240.233,-440.403 246.383,-437.662"/>
<polygon fill="midnightblue" stroke="midnightblue" points="170.243,-485.053 164.928,-494.219 174.799,-490.368 170.243,-485.053"/>
</g>
<!-- Node18 -->
<g id="node18" class="node"><title>Node18</title>
<g id="a_node18"><a xlink:href="d9/d85/class_c_g_l_scene.xhtml" target="_top" xlink:title="CGLScene">
<polygon fill="white" stroke="black" points="239.5,-608.5 239.5,-627.5 304.5,-627.5 304.5,-608.5 239.5,-608.5"/>
<text text-anchor="middle" x="272" y="-615.5" font-family="Helvetica,sans-Serif" font-size="10.00">CGLScene</text>
</a>
</g>
</g>
<!-- Node14&#45;&gt;Node18 -->
<g id="edge17" class="edge"><title>Node14&#45;&gt;Node18</title>
<path fill="none" stroke="midnightblue" d="M164.523,-522.497C177.238,-543.446 200.395,-577.463 228,-599 232.762,-602.715 238.364,-605.87 243.922,-608.478"/>
<polygon fill="midnightblue" stroke="midnightblue" points="167.387,-520.463 159.292,-513.628 161.358,-524.019 167.387,-520.463"/>
</g>
<!-- Node19 -->
<g id="node19" class="node"><title>Node19</title>
<g id="a_node19"><a xlink:href="dd/d40/class_c_g_l_window.xhtml" target="_top" xlink:title="CGLWindow">
<polygon fill="white" stroke="black" points="236,-570.5 236,-589.5 308,-589.5 308,-570.5 236,-570.5"/>
<text text-anchor="middle" x="272" y="-577.5" font-family="Helvetica,sans-Serif" font-size="10.00">CGLWindow</text>
</a>
</g>
</g>
<!-- Node14&#45;&gt;Node19 -->
<g id="edge18" class="edge"><title>Node14&#45;&gt;Node19</title>
<path fill="none" stroke="midnightblue" d="M172.637,-520.389C187.084,-532.576 207.956,-549.088 228,-561 233.753,-564.419 240.233,-567.597 246.383,-570.338"/>
<polygon fill="midnightblue" stroke="midnightblue" points="174.799,-517.632 164.928,-513.781 170.243,-522.947 174.799,-517.632"/>
</g>
<!-- Node20 -->
<g id="node20" class="node"><title>Node20</title>
<g id="a_node20"><a xlink:href="db/da4/class_c_g_l_world.xhtml" target="_top" xlink:title="CGLWorld">
<polygon fill="white" stroke="black" points="241,-532.5 241,-551.5 303,-551.5 303,-532.5 241,-532.5"/>
<text text-anchor="middle" x="272" y="-539.5" font-family="Helvetica,sans-Serif" font-size="10.00">CGLWorld</text>
</a>
</g>
</g>
<!-- Node14&#45;&gt;Node20 -->
<g id="edge19" class="edge"><title>Node14&#45;&gt;Node20</title>
<path fill="none" stroke="midnightblue" d="M193.042,-516.68C208.851,-521.815 226.799,-527.644 241.485,-532.414"/>
<polygon fill="midnightblue" stroke="midnightblue" points="194.116,-513.349 183.524,-513.589 191.954,-520.007 194.116,-513.349"/>
</g>
<!-- Node21 -->
<g id="node21" class="node"><title>Node21</title>
<g id="a_node21"><a xlink:href="d8/d97/class_c_g_l_vector2_d.xhtml" target="_top" xlink:title="CGLVector2D">
<polygon fill="white" stroke="black" points="0,-57.5 0,-76.5 78,-76.5 78,-57.5 0,-57.5"/>
<text text-anchor="middle" x="39" y="-64.5" font-family="Helvetica,sans-Serif" font-size="10.00">CGLVector2D</text>
</a>
</g>
</g>
<!-- Node22 -->
<g id="node22" class="node"><title>Node22</title>
<g id="a_node22"><a xlink:href="d6/df9/class_c_g_l_vector3_d.xhtml" target="_top" xlink:title="CGLVector3D">
<polygon fill="white" stroke="black" points="114,-57.5 114,-76.5 192,-76.5 192,-57.5 114,-57.5"/>
<text text-anchor="middle" x="153" y="-64.5" font-family="Helvetica,sans-Serif" font-size="10.00">CGLVector3D</text>
</a>
</g>
</g>
<!-- Node21&#45;&gt;Node22 -->
<g id="edge20" class="edge"><title>Node21&#45;&gt;Node22</title>
<path fill="none" stroke="midnightblue" d="M88.4591,-67C96.9858,-67 105.75,-67 113.942,-67"/>
<polygon fill="midnightblue" stroke="midnightblue" points="88.2308,-63.5001 78.2308,-67 88.2308,-70.5001 88.2308,-63.5001"/>
</g>
<!-- Node22&#45;&gt;Node4 -->
<g id="edge21" class="edge"><title>Node22&#45;&gt;Node4</title>
<path fill="none" stroke="midnightblue" d="M202.391,-59.1416C213.578,-57.325 225.272,-55.4258 235.772,-53.7208"/>
<polygon fill="midnightblue" stroke="midnightblue" points="201.62,-55.7209 192.31,-60.7787 202.742,-62.6304 201.62,-55.7209"/>
</g>
<!-- Node22&#45;&gt;Node5 -->
<g id="edge22" class="edge"><title>Node22&#45;&gt;Node5</title>
<path fill="none" stroke="midnightblue" d="M180.853,-81.2671C194.816,-88.564 212.221,-97.4702 228,-105 234.629,-108.163 241.912,-111.451 248.569,-114.384"/>
<polygon fill="midnightblue" stroke="midnightblue" points="182.278,-78.0623 171.798,-76.5092 179.022,-84.259 182.278,-78.0623"/>
</g>
<!-- Node22&#45;&gt;Node6 -->
<g id="edge23" class="edge"><title>Node22&#45;&gt;Node6</title>
<path fill="none" stroke="midnightblue" d="M202.509,-74.8775C215.469,-76.9821 229.103,-79.1963 240.765,-81.09"/>
<polygon fill="midnightblue" stroke="midnightblue" points="202.742,-71.3696 192.31,-73.2213 201.62,-78.2791 202.742,-71.3696"/>
</g>
<!-- Node23 -->
<g id="node23" class="node"><title>Node23</title>
<g id="a_node23"><a xlink:href="db/d79/class_c_g_l_vector4_d.xhtml" target="_top" xlink:title="CGLVector4D">
<polygon fill="white" stroke="black" points="233,-0.5 233,-19.5 311,-19.5 311,-0.5 233,-0.5"/>
<text text-anchor="middle" x="272" y="-7.5" font-family="Helvetica,sans-Serif" font-size="10.00">CGLVector4D</text>
</a>
</g>
</g>
<!-- Node22&#45;&gt;Node23 -->
<g id="edge24" class="edge"><title>Node22&#45;&gt;Node23</title>
<path fill="none" stroke="midnightblue" d="M180.853,-52.7329C194.816,-45.436 212.221,-36.5298 228,-29 234.629,-25.8366 241.912,-22.5491 248.569,-19.6158"/>
<polygon fill="midnightblue" stroke="midnightblue" points="179.022,-49.741 171.798,-57.4908 182.278,-55.9377 179.022,-49.741"/>
</g>
<!-- Node23&#45;&gt;Node3 -->
<g id="edge25" class="edge"><title>Node23&#45;&gt;Node3</title>
<path fill="none" stroke="midnightblue" d="M307.301,-24.0026C310.306,-25.5726 313.248,-27.2438 316,-29 337.762,-42.8872 359.623,-63.8442 371.627,-76.102"/>
<polygon fill="midnightblue" stroke="midnightblue" points="308.749,-20.815 298.222,-19.6129 305.702,-27.117 308.749,-20.815"/>
</g>
</g>
</svg>
