<?xml version="1.0" encoding="UTF-8" standalone="no"?>
<!DOCTYPE svg PUBLIC "-//W3C//DTD SVG 1.1//EN"
 "http://www.w3.org/Graphics/SVG/1.1/DTD/svg11.dtd">
<!-- Generated by graphviz version 2.36.0 (20140111.2315)
 -->
<!-- Title: Graphe hiérarchique des classes Pages: 1 -->
<svg width="408pt" height="598pt"
 viewBox="0.00 0.00 408.00 598.00" xmlns="http://www.w3.org/2000/svg" xmlns:xlink="http://www.w3.org/1999/xlink">
<g id="graph0" class="graph" transform="scale(1 1) rotate(0) translate(4 594)">
<title>Graphe hiérarchique des classes</title>
<polygon fill="white" stroke="none" points="-4,4 -4,-594 404,-594 404,4 -4,4"/>
<!-- Node1 -->
<g id="node1" class="node"><title>Node1</title>
<g id="a_node1"><a xlink:href="d2/d76/class_c_g_l_object.xhtml" target="_top" xlink:title="CGLObject">
<polygon fill="white" stroke="black" points="0.5,-332.5 0.5,-351.5 65.5,-351.5 65.5,-332.5 0.5,-332.5"/>
<text text-anchor="middle" x="33" y="-339.5" font-family="Helvetica,sans-Serif" font-size="10.00">CGLObject</text>
</a>
</g>
</g>
<!-- Node2 -->
<g id="node2" class="node"><title>Node2</title>
<g id="a_node2"><a xlink:href="dc/d8a/class_c_g_l_effect.xhtml" target="_top" xlink:title="CGLEffect">
<polygon fill="white" stroke="black" points="109.5,-332.5 109.5,-351.5 172.5,-351.5 172.5,-332.5 109.5,-332.5"/>
<text text-anchor="middle" x="141" y="-339.5" font-family="Helvetica,sans-Serif" font-size="10.00">CGLEffect</text>
</a>
</g>
</g>
<!-- Node1&#45;&gt;Node2 -->
<g id="edge1" class="edge"><title>Node1&#45;&gt;Node2</title>
<path fill="none" stroke="midnightblue" d="M75.538,-342C86.7363,-342 98.6517,-342 109.152,-342"/>
<polygon fill="midnightblue" stroke="midnightblue" points="75.5165,-338.5 65.5165,-342 75.5165,-345.5 75.5165,-338.5"/>
</g>
<!-- Node7 -->
<g id="node7" class="node"><title>Node7</title>
<g id="a_node7"><a xlink:href="d7/d2f/class_c_g_l_item.xhtml" target="_top" xlink:title="CGLItem">
<polygon fill="white" stroke="black" points="113,-475.5 113,-494.5 169,-494.5 169,-475.5 113,-475.5"/>
<text text-anchor="middle" x="141" y="-482.5" font-family="Helvetica,sans-Serif" font-size="10.00">CGLItem</text>
</a>
</g>
</g>
<!-- Node1&#45;&gt;Node7 -->
<g id="edge6" class="edge"><title>Node1&#45;&gt;Node7</title>
<path fill="none" stroke="midnightblue" d="M47.2939,-359.934C69.9954,-390.56 115.474,-451.913 132.942,-475.479"/>
<polygon fill="midnightblue" stroke="midnightblue" points="50.0526,-357.778 41.2858,-351.829 44.4291,-361.947 50.0526,-357.778"/>
</g>
<!-- Node13 -->
<g id="node13" class="node"><title>Node13</title>
<g id="a_node13"><a xlink:href="d0/d14/class_c_g_l_special.xhtml" target="_top" xlink:title="CGLSpecial">
<polygon fill="white" stroke="black" points="106.5,-114.5 106.5,-133.5 175.5,-133.5 175.5,-114.5 106.5,-114.5"/>
<text text-anchor="middle" x="141" y="-121.5" font-family="Helvetica,sans-Serif" font-size="10.00">CGLSpecial</text>
</a>
</g>
</g>
<!-- Node1&#45;&gt;Node13 -->
<g id="edge12" class="edge"><title>Node1&#45;&gt;Node13</title>
<path fill="none" stroke="midnightblue" d="M43.1539,-323.174C64.9222,-278.405 119.166,-166.847 135.363,-133.537"/>
<polygon fill="midnightblue" stroke="midnightblue" points="39.9167,-321.828 38.6915,-332.352 46.212,-324.889 39.9167,-321.828"/>
</g>
<!-- Node3 -->
<g id="node3" class="node"><title>Node3</title>
<g id="a_node3"><a xlink:href="d7/dd6/class_c_g_l_color.xhtml" target="_top" xlink:title="CGLColor">
<polygon fill="white" stroke="black" points="340,-304.5 340,-323.5 400,-323.5 400,-304.5 340,-304.5"/>
<text text-anchor="middle" x="370" y="-311.5" font-family="Helvetica,sans-Serif" font-size="10.00">CGLColor</text>
</a>
</g>
</g>
<!-- Node2&#45;&gt;Node3 -->
<g id="edge2" class="edge"><title>Node2&#45;&gt;Node3</title>
<path fill="none" stroke="midnightblue" d="M170.011,-355.775C202.973,-370.015 258.925,-387.964 304,-371 329.285,-361.484 351.148,-337.17 361.901,-323.572"/>
<polygon fill="midnightblue" stroke="midnightblue" points="171.112,-352.433 160.557,-351.518 168.238,-358.815 171.112,-352.433"/>
</g>
<!-- Node4 -->
<g id="node4" class="node"><title>Node4</title>
<g id="a_node4"><a xlink:href="de/d31/class_c_g_l_position.xhtml" target="_top" xlink:title="CGLPosition">
<polygon fill="white" stroke="black" points="224,-266.5 224,-285.5 296,-285.5 296,-266.5 224,-266.5"/>
<text text-anchor="middle" x="260" y="-273.5" font-family="Helvetica,sans-Serif" font-size="10.00">CGLPosition</text>
</a>
</g>
</g>
<!-- Node2&#45;&gt;Node4 -->
<g id="edge3" class="edge"><title>Node2&#45;&gt;Node4</title>
<path fill="none" stroke="midnightblue" d="M164.096,-326.736C178.538,-317.071 197.994,-304.626 216,-295 222.19,-291.691 229.074,-288.461 235.487,-285.63"/>
<polygon fill="midnightblue" stroke="midnightblue" points="162.129,-323.841 155.81,-332.345 166.053,-329.638 162.129,-323.841"/>
</g>
<!-- Node5 -->
<g id="node5" class="node"><title>Node5</title>
<g id="a_node5"><a xlink:href="d4/dd5/class_c_g_l_rotation.xhtml" target="_top" xlink:title="CGLRotation">
<polygon fill="white" stroke="black" points="223,-342.5 223,-361.5 297,-361.5 297,-342.5 223,-342.5"/>
<text text-anchor="middle" x="260" y="-349.5" font-family="Helvetica,sans-Serif" font-size="10.00">CGLRotation</text>
</a>
</g>
</g>
<!-- Node2&#45;&gt;Node5 -->
<g id="edge4" class="edge"><title>Node2&#45;&gt;Node5</title>
<path fill="none" stroke="midnightblue" d="M182.808,-345.488C195.773,-346.596 210.018,-347.813 222.647,-348.893"/>
<polygon fill="midnightblue" stroke="midnightblue" points="183.002,-341.992 172.74,-344.627 182.406,-348.966 183.002,-341.992"/>
</g>
<!-- Node6 -->
<g id="node6" class="node"><title>Node6</title>
<g id="a_node6"><a xlink:href="dd/dd7/class_c_g_l_scale.xhtml" target="_top" xlink:title="CGLScale">
<polygon fill="white" stroke="black" points="229,-304.5 229,-323.5 291,-323.5 291,-304.5 229,-304.5"/>
<text text-anchor="middle" x="260" y="-311.5" font-family="Helvetica,sans-Serif" font-size="10.00">CGLScale</text>
</a>
</g>
</g>
<!-- Node2&#45;&gt;Node6 -->
<g id="edge5" class="edge"><title>Node2&#45;&gt;Node6</title>
<path fill="none" stroke="midnightblue" d="M182.88,-332.217C198.007,-328.597 214.869,-324.561 228.87,-321.211"/>
<polygon fill="midnightblue" stroke="midnightblue" points="181.651,-328.912 172.74,-334.643 183.28,-335.72 181.651,-328.912"/>
</g>
<!-- Node8 -->
<g id="node8" class="node"><title>Node8</title>
<g id="a_node8"><a xlink:href="dd/daf/class_c_g_l_boite.xhtml" target="_top" xlink:title="CGLBoite">
<polygon fill="white" stroke="black" points="230.5,-570.5 230.5,-589.5 289.5,-589.5 289.5,-570.5 230.5,-570.5"/>
<text text-anchor="middle" x="260" y="-577.5" font-family="Helvetica,sans-Serif" font-size="10.00">CGLBoite</text>
</a>
</g>
</g>
<!-- Node7&#45;&gt;Node8 -->
<g id="edge7" class="edge"><title>Node7&#45;&gt;Node8</title>
<path fill="none" stroke="midnightblue" d="M155.624,-502.46C169.407,-519.212 192.048,-544.352 216,-561 221.227,-564.633 227.261,-567.816 233.125,-570.486"/>
<polygon fill="midnightblue" stroke="midnightblue" points="158.259,-500.152 149.264,-494.555 152.805,-504.54 158.259,-500.152"/>
</g>
<!-- Node9 -->
<g id="node9" class="node"><title>Node9</title>
<g id="a_node9"><a xlink:href="da/d38/class_c_g_l_dot.xhtml" target="_top" xlink:title="CGLDot">
<polygon fill="white" stroke="black" points="233.5,-532.5 233.5,-551.5 286.5,-551.5 286.5,-532.5 233.5,-532.5"/>
<text text-anchor="middle" x="260" y="-539.5" font-family="Helvetica,sans-Serif" font-size="10.00">CGLDot</text>
</a>
</g>
</g>
<!-- Node7&#45;&gt;Node9 -->
<g id="edge8" class="edge"><title>Node7&#45;&gt;Node9</title>
<path fill="none" stroke="midnightblue" d="M168.853,-499.267C182.816,-506.564 200.221,-515.47 216,-523 222.629,-526.163 229.912,-529.451 236.569,-532.384"/>
<polygon fill="midnightblue" stroke="midnightblue" points="170.278,-496.062 159.798,-494.509 167.022,-502.259 170.278,-496.062"/>
</g>
<!-- Node10 -->
<g id="node10" class="node"><title>Node10</title>
<g id="a_node10"><a xlink:href="d9/dfe/class_c_g_l_line.xhtml" target="_top" xlink:title="CGLLine">
<polygon fill="white" stroke="black" points="232.5,-494.5 232.5,-513.5 287.5,-513.5 287.5,-494.5 232.5,-494.5"/>
<text text-anchor="middle" x="260" y="-501.5" font-family="Helvetica,sans-Serif" font-size="10.00">CGLLine</text>
</a>
</g>
</g>
<!-- Node7&#45;&gt;Node10 -->
<g id="edge9" class="edge"><title>Node7&#45;&gt;Node10</title>
<path fill="none" stroke="midnightblue" d="M179.445,-491.081C196.69,-493.881 216.751,-497.139 232.414,-499.683"/>
<polygon fill="midnightblue" stroke="midnightblue" points="179.568,-487.555 169.136,-489.407 178.446,-494.464 179.568,-487.555"/>
</g>
<!-- Node11 -->
<g id="node11" class="node"><title>Node11</title>
<g id="a_node11"><a xlink:href="df/d41/class_c_g_l_quad.xhtml" target="_top" xlink:title="CGLQuad">
<polygon fill="white" stroke="black" points="230,-456.5 230,-475.5 290,-475.5 290,-456.5 230,-456.5"/>
<text text-anchor="middle" x="260" y="-463.5" font-family="Helvetica,sans-Serif" font-size="10.00">CGLQuad</text>
</a>
</g>
</g>
<!-- Node7&#45;&gt;Node11 -->
<g id="edge10" class="edge"><title>Node7&#45;&gt;Node11</title>
<path fill="none" stroke="midnightblue" d="M179.455,-478.917C195.812,-476.261 214.7,-473.194 229.966,-470.715"/>
<polygon fill="midnightblue" stroke="midnightblue" points="178.446,-475.536 169.136,-480.593 179.568,-482.445 178.446,-475.536"/>
</g>
<!-- Node12 -->
<g id="node12" class="node"><title>Node12</title>
<g id="a_node12"><a xlink:href="d8/dbf/class_c_g_l_robot1.xhtml" target="_top" xlink:title="CGLRobot1">
<polygon fill="white" stroke="black" points="226,-418.5 226,-437.5 294,-437.5 294,-418.5 226,-418.5"/>
<text text-anchor="middle" x="260" y="-425.5" font-family="Helvetica,sans-Serif" font-size="10.00">CGLRobot1</text>
</a>
</g>
</g>
<!-- Node7&#45;&gt;Node12 -->
<g id="edge11" class="edge"><title>Node7&#45;&gt;Node12</title>
<path fill="none" stroke="midnightblue" d="M168.853,-470.733C182.816,-463.436 200.221,-454.53 216,-447 222.629,-443.837 229.912,-440.549 236.569,-437.616"/>
<polygon fill="midnightblue" stroke="midnightblue" points="167.022,-467.741 159.798,-475.491 170.278,-473.938 167.022,-467.741"/>
</g>
<!-- Node14 -->
<g id="node14" class="node"><title>Node14</title>
<g id="a_node14"><a xlink:href="de/dee/class_c_g_l_camera.xhtml" target="_top" xlink:title="CGLCamera">
<polygon fill="white" stroke="black" points="224.5,-76.5 224.5,-95.5 295.5,-95.5 295.5,-76.5 224.5,-76.5"/>
<text text-anchor="middle" x="260" y="-83.5" font-family="Helvetica,sans-Serif" font-size="10.00">CGLCamera</text>
</a>
</g>
</g>
<!-- Node13&#45;&gt;Node14 -->
<g id="edge13" class="edge"><title>Node13&#45;&gt;Node14</title>
<path fill="none" stroke="midnightblue" d="M181.042,-111.32C196.851,-106.185 214.799,-100.356 229.485,-95.5859"/>
<polygon fill="midnightblue" stroke="midnightblue" points="179.954,-107.993 171.524,-114.411 182.116,-114.651 179.954,-107.993"/>
</g>
<!-- Node15 -->
<g id="node15" class="node"><title>Node15</title>
<g id="a_node15"><a xlink:href="d4/dad/class_c_g_l_camera_list.xhtml" target="_top" xlink:title="CGLCameraList">
<polygon fill="white" stroke="black" points="216.5,-38.5 216.5,-57.5 303.5,-57.5 303.5,-38.5 216.5,-38.5"/>
<text text-anchor="middle" x="260" y="-45.5" font-family="Helvetica,sans-Serif" font-size="10.00">CGLCameraList</text>
</a>
</g>
</g>
<!-- Node13&#45;&gt;Node15 -->
<g id="edge14" class="edge"><title>Node13&#45;&gt;Node15</title>
<path fill="none" stroke="midnightblue" d="M160.637,-107.611C175.084,-95.4237 195.956,-78.9119 216,-67 221.753,-63.581 228.233,-60.4028 234.383,-57.6621"/>
<polygon fill="midnightblue" stroke="midnightblue" points="158.243,-105.053 152.928,-114.219 162.799,-110.368 158.243,-105.053"/>
</g>
<!-- Node16 -->
<g id="node16" class="node"><title>Node16</title>
<g id="a_node16"><a xlink:href="da/dc8/class_c_g_l_light.xhtml" target="_top" xlink:title="CGLLight">
<polygon fill="white" stroke="black" points="231,-0.5 231,-19.5 289,-19.5 289,-0.5 231,-0.5"/>
<text text-anchor="middle" x="260" y="-7.5" font-family="Helvetica,sans-Serif" font-size="10.00">CGLLight</text>
</a>
</g>
</g>
<!-- Node13&#45;&gt;Node16 -->
<g id="edge15" class="edge"><title>Node13&#45;&gt;Node16</title>
<path fill="none" stroke="midnightblue" d="M152.523,-105.503C165.238,-84.5536 188.395,-50.5374 216,-29 220.762,-25.2849 226.364,-22.13 231.922,-19.5219"/>
<polygon fill="midnightblue" stroke="midnightblue" points="149.358,-103.981 147.292,-114.372 155.387,-107.537 149.358,-103.981"/>
</g>
<!-- Node17 -->
<g id="node17" class="node"><title>Node17</title>
<g id="a_node17"><a xlink:href="d9/d85/class_c_g_l_scene.xhtml" target="_top" xlink:title="CGLScene">
<polygon fill="white" stroke="black" points="227.5,-190.5 227.5,-209.5 292.5,-209.5 292.5,-190.5 227.5,-190.5"/>
<text text-anchor="middle" x="260" y="-197.5" font-family="Helvetica,sans-Serif" font-size="10.00">CGLScene</text>
</a>
</g>
</g>
<!-- Node13&#45;&gt;Node17 -->
<g id="edge16" class="edge"><title>Node13&#45;&gt;Node17</title>
<path fill="none" stroke="midnightblue" d="M160.637,-140.389C175.084,-152.576 195.956,-169.088 216,-181 221.753,-184.419 228.233,-187.597 234.383,-190.338"/>
<polygon fill="midnightblue" stroke="midnightblue" points="162.799,-137.632 152.928,-133.781 158.243,-142.947 162.799,-137.632"/>
</g>
<!-- Node18 -->
<g id="node18" class="node"><title>Node18</title>
<g id="a_node18"><a xlink:href="dd/d40/class_c_g_l_window.xhtml" target="_top" xlink:title="CGLWindow">
<polygon fill="white" stroke="black" points="224,-152.5 224,-171.5 296,-171.5 296,-152.5 224,-152.5"/>
<text text-anchor="middle" x="260" y="-159.5" font-family="Helvetica,sans-Serif" font-size="10.00">CGLWindow</text>
</a>
</g>
</g>
<!-- Node13&#45;&gt;Node18 -->
<g id="edge17" class="edge"><title>Node13&#45;&gt;Node18</title>
<path fill="none" stroke="midnightblue" d="M181.042,-136.68C196.851,-141.815 214.799,-147.644 229.485,-152.414"/>
<polygon fill="midnightblue" stroke="midnightblue" points="182.116,-133.349 171.524,-133.589 179.954,-140.007 182.116,-133.349"/>
</g>
<!-- Node19 -->
<g id="node19" class="node"><title>Node19</title>
<g id="a_node19"><a xlink:href="db/da4/class_c_g_l_world.xhtml" target="_top" xlink:title="CGLWorld">
<polygon fill="white" stroke="black" points="229,-114.5 229,-133.5 291,-133.5 291,-114.5 229,-114.5"/>
<text text-anchor="middle" x="260" y="-121.5" font-family="Helvetica,sans-Serif" font-size="10.00">CGLWorld</text>
</a>
</g>
</g>
<!-- Node13&#45;&gt;Node19 -->
<g id="edge18" class="edge"><title>Node13&#45;&gt;Node19</title>
<path fill="none" stroke="midnightblue" d="M185.671,-124C199.983,-124 215.562,-124 228.665,-124"/>
<polygon fill="midnightblue" stroke="midnightblue" points="185.528,-120.5 175.528,-124 185.527,-127.5 185.528,-120.5"/>
</g>
<!-- Node20 -->
<g id="node20" class="node"><title>Node20</title>
<g id="a_node20"><a xlink:href="d6/df9/class_c_g_l_vector3_d.xhtml" target="_top" xlink:title="CGLVector3D">
<polygon fill="white" stroke="black" points="102,-275.5 102,-294.5 180,-294.5 180,-275.5 102,-275.5"/>
<text text-anchor="middle" x="141" y="-282.5" font-family="Helvetica,sans-Serif" font-size="10.00">CGLVector3D</text>
</a>
</g>
</g>
<!-- Node20&#45;&gt;Node4 -->
<g id="edge19" class="edge"><title>Node20&#45;&gt;Node4</title>
<path fill="none" stroke="midnightblue" d="M190.391,-281.278C201.578,-280.417 213.272,-279.518 223.772,-278.71"/>
<polygon fill="midnightblue" stroke="midnightblue" points="190.012,-277.796 180.31,-282.053 190.549,-284.776 190.012,-277.796"/>
</g>
<!-- Node20&#45;&gt;Node5 -->
<g id="edge20" class="edge"><title>Node20&#45;&gt;Node5</title>
<path fill="none" stroke="midnightblue" d="M163.52,-300.264C177.996,-310.201 197.706,-323.107 216,-333 222.174,-336.339 229.053,-339.579 235.466,-342.409"/>
<polygon fill="midnightblue" stroke="midnightblue" points="165.453,-297.345 155.243,-294.513 161.459,-303.093 165.453,-297.345"/>
</g>
<!-- Node20&#45;&gt;Node6 -->
<g id="edge21" class="edge"><title>Node20&#45;&gt;Node6</title>
<path fill="none" stroke="midnightblue" d="M190.124,-296.928C203.199,-300.169 216.988,-303.587 228.765,-306.506"/>
<polygon fill="midnightblue" stroke="midnightblue" points="190.859,-293.504 180.31,-294.496 189.174,-300.299 190.859,-293.504"/>
</g>
<!-- Node21 -->
<g id="node21" class="node"><title>Node21</title>
<g id="a_node21"><a xlink:href="db/d79/class_c_g_l_vector4_d.xhtml" target="_top" xlink:title="CGLVector4D">
<polygon fill="white" stroke="black" points="221,-228.5 221,-247.5 299,-247.5 299,-228.5 221,-228.5"/>
<text text-anchor="middle" x="260" y="-235.5" font-family="Helvetica,sans-Serif" font-size="10.00">CGLVector4D</text>
</a>
</g>
</g>
<!-- Node20&#45;&gt;Node21 -->
<g id="edge22" class="edge"><title>Node20&#45;&gt;Node21</title>
<path fill="none" stroke="midnightblue" d="M175.174,-271.674C194.217,-264.024 217.696,-254.592 234.957,-247.658"/>
<polygon fill="midnightblue" stroke="midnightblue" points="173.651,-268.513 165.677,-275.489 176.261,-275.009 173.651,-268.513"/>
</g>
<!-- Node21&#45;&gt;Node3 -->
<g id="edge23" class="edge"><title>Node21&#45;&gt;Node3</title>
<path fill="none" stroke="midnightblue" d="M295.301,-252.003C298.306,-253.573 301.248,-255.244 304,-257 325.762,-270.887 347.623,-291.844 359.627,-304.102"/>
<polygon fill="midnightblue" stroke="midnightblue" points="296.749,-248.815 286.222,-247.613 293.702,-255.117 296.749,-248.815"/>
</g>
</g>
</svg>
