<?xml version="1.0" encoding="UTF-8" standalone="no"?>
<!DOCTYPE svg PUBLIC "-//W3C//DTD SVG 1.1//EN"
 "http://www.w3.org/Graphics/SVG/1.1/DTD/svg11.dtd">
<!-- Generated by graphviz version 2.36.0 (20140111.2315)
 -->
<!-- Title: Graphe hiérarchique des classes Pages: 1 -->
<svg width="462pt" height="712pt"
 viewBox="0.00 0.00 462.00 712.00" xmlns="http://www.w3.org/2000/svg" xmlns:xlink="http://www.w3.org/1999/xlink">
<g id="graph0" class="graph" transform="scale(1 1) rotate(0) translate(4 708)">
<title>Graphe hiérarchique des classes</title>
<polygon fill="white" stroke="none" points="-4,4 -4,-708 458,-708 458,4 -4,4"/>
<!-- Node1 -->
<g id="node1" class="node"><title>Node1</title>
<g id="a_node1"><a xlink:href="d2/d76/class_c_g_l_object.xhtml" target="_top" xlink:title="CGLObject">
<polygon fill="white" stroke="black" points="6.5,-399.5 6.5,-418.5 71.5,-418.5 71.5,-399.5 6.5,-399.5"/>
<text text-anchor="middle" x="39" y="-406.5" font-family="Helvetica,sans-Serif" font-size="10.00">CGLObject</text>
</a>
</g>
</g>
<!-- Node2 -->
<g id="node2" class="node"><title>Node2</title>
<g id="a_node2"><a xlink:href="dc/d8a/class_c_g_l_effect.xhtml" target="_top" xlink:title="CGLEffect">
<polygon fill="white" stroke="black" points="121.5,-570.5 121.5,-589.5 184.5,-589.5 184.5,-570.5 121.5,-570.5"/>
<text text-anchor="middle" x="153" y="-577.5" font-family="Helvetica,sans-Serif" font-size="10.00">CGLEffect</text>
</a>
</g>
</g>
<!-- Node1&#45;&gt;Node2 -->
<g id="edge1" class="edge"><title>Node1&#45;&gt;Node2</title>
<path fill="none" stroke="midnightblue" d="M51.9636,-427.266C75.6361,-463.409 127.718,-542.927 145.727,-570.423"/>
<polygon fill="midnightblue" stroke="midnightblue" points="54.7495,-425.131 46.3425,-418.684 48.8937,-428.967 54.7495,-425.131"/>
</g>
<!-- Node8 -->
<g id="node8" class="node"><title>Node8</title>
<g id="a_node8"><a xlink:href="d7/d2f/class_c_g_l_item.xhtml" target="_top" xlink:title="CGLItem">
<polygon fill="white" stroke="black" points="125,-152.5 125,-171.5 181,-171.5 181,-152.5 125,-152.5"/>
<text text-anchor="middle" x="153" y="-159.5" font-family="Helvetica,sans-Serif" font-size="10.00">CGLItem</text>
</a>
</g>
</g>
<!-- Node1&#45;&gt;Node8 -->
<g id="edge7" class="edge"><title>Node1&#45;&gt;Node8</title>
<path fill="none" stroke="midnightblue" d="M48.5864,-390.064C71.0495,-340.525 130.965,-208.389 147.64,-171.616"/>
<polygon fill="midnightblue" stroke="midnightblue" points="45.3327,-388.764 44.3905,-399.317 51.7079,-391.655 45.3327,-388.764"/>
</g>
<!-- Node17 -->
<g id="node17" class="node"><title>Node17</title>
<g id="a_node17"><a xlink:href="d0/d14/class_c_g_l_special.xhtml" target="_top" xlink:title="CGLSpecial">
<polygon fill="white" stroke="black" points="118.5,-399.5 118.5,-418.5 187.5,-418.5 187.5,-399.5 118.5,-399.5"/>
<text text-anchor="middle" x="153" y="-406.5" font-family="Helvetica,sans-Serif" font-size="10.00">CGLSpecial</text>
</a>
</g>
</g>
<!-- Node1&#45;&gt;Node17 -->
<g id="edge16" class="edge"><title>Node1&#45;&gt;Node17</title>
<path fill="none" stroke="midnightblue" d="M81.994,-409C93.9333,-409 106.78,-409 118.168,-409"/>
<polygon fill="midnightblue" stroke="midnightblue" points="81.7952,-405.5 71.7951,-409 81.7951,-412.5 81.7952,-405.5"/>
</g>
<!-- Node3 -->
<g id="node3" class="node"><title>Node3</title>
<g id="a_node3"><a xlink:href="d7/dd6/class_c_g_l_color.xhtml" target="_top" xlink:title="CGLColor">
<polygon fill="white" stroke="black" points="373,-570.5 373,-589.5 433,-589.5 433,-570.5 373,-570.5"/>
<text text-anchor="middle" x="403" y="-577.5" font-family="Helvetica,sans-Serif" font-size="10.00">CGLColor</text>
</a>
</g>
</g>
<!-- Node2&#45;&gt;Node3 -->
<g id="edge2" class="edge"><title>Node2&#45;&gt;Node3</title>
<path fill="none" stroke="midnightblue" d="M193.682,-567.859C204.689,-565.028 216.716,-562.426 228,-561 266.803,-556.098 277.12,-556.756 316,-561 335.152,-563.09 356.285,-567.726 372.809,-571.895"/>
<polygon fill="midnightblue" stroke="midnightblue" points="192.654,-564.511 183.911,-570.495 194.478,-571.269 192.654,-564.511"/>
</g>
<!-- Node4 -->
<g id="node4" class="node"><title>Node4</title>
<g id="a_node4"><a xlink:href="de/d31/class_c_g_l_position.xhtml" target="_top" xlink:title="CGLPosition">
<polygon fill="white" stroke="black" points="236,-570.5 236,-589.5 308,-589.5 308,-570.5 236,-570.5"/>
<text text-anchor="middle" x="272" y="-577.5" font-family="Helvetica,sans-Serif" font-size="10.00">CGLPosition</text>
</a>
</g>
</g>
<!-- Node2&#45;&gt;Node4 -->
<g id="edge3" class="edge"><title>Node2&#45;&gt;Node4</title>
<path fill="none" stroke="midnightblue" d="M195.085,-580C208.412,-580 223.067,-580 235.916,-580"/>
<polygon fill="midnightblue" stroke="midnightblue" points="194.74,-576.5 184.74,-580 194.74,-583.5 194.74,-576.5"/>
</g>
<!-- Node5 -->
<g id="node5" class="node"><title>Node5</title>
<g id="a_node5"><a xlink:href="d4/dd5/class_c_g_l_rotation.xhtml" target="_top" xlink:title="CGLRotation">
<polygon fill="white" stroke="black" points="235,-646.5 235,-665.5 309,-665.5 309,-646.5 235,-646.5"/>
<text text-anchor="middle" x="272" y="-653.5" font-family="Helvetica,sans-Serif" font-size="10.00">CGLRotation</text>
</a>
</g>
</g>
<!-- Node2&#45;&gt;Node5 -->
<g id="edge4" class="edge"><title>Node2&#45;&gt;Node5</title>
<path fill="none" stroke="midnightblue" d="M172.637,-596.389C187.084,-608.576 207.956,-625.088 228,-637 233.753,-640.419 240.233,-643.597 246.383,-646.338"/>
<polygon fill="midnightblue" stroke="midnightblue" points="174.799,-593.632 164.928,-589.781 170.243,-598.947 174.799,-593.632"/>
</g>
<!-- Node7 -->
<g id="node7" class="node"><title>Node7</title>
<g id="a_node7"><a xlink:href="dd/dd7/class_c_g_l_scale.xhtml" target="_top" xlink:title="CGLScale">
<polygon fill="white" stroke="black" points="241,-608.5 241,-627.5 303,-627.5 303,-608.5 241,-608.5"/>
<text text-anchor="middle" x="272" y="-615.5" font-family="Helvetica,sans-Serif" font-size="10.00">CGLScale</text>
</a>
</g>
</g>
<!-- Node2&#45;&gt;Node7 -->
<g id="edge6" class="edge"><title>Node2&#45;&gt;Node7</title>
<path fill="none" stroke="midnightblue" d="M193.042,-592.68C208.851,-597.815 226.799,-603.644 241.485,-608.414"/>
<polygon fill="midnightblue" stroke="midnightblue" points="194.116,-589.349 183.524,-589.589 191.954,-596.007 194.116,-589.349"/>
</g>
<!-- Node6 -->
<g id="node6" class="node"><title>Node6</title>
<g id="a_node6"><a xlink:href="d4/d9e/class_c_g_l_rotation_speed.xhtml" target="_top" xlink:title="CGLRotationSpeed">
<polygon fill="white" stroke="black" points="352.5,-646.5 352.5,-665.5 453.5,-665.5 453.5,-646.5 352.5,-646.5"/>
<text text-anchor="middle" x="403" y="-653.5" font-family="Helvetica,sans-Serif" font-size="10.00">CGLRotationSpeed</text>
</a>
</g>
</g>
<!-- Node5&#45;&gt;Node6 -->
<g id="edge5" class="edge"><title>Node5&#45;&gt;Node6</title>
<path fill="none" stroke="midnightblue" d="M319.551,-656C330.104,-656 341.353,-656 352.04,-656"/>
<polygon fill="midnightblue" stroke="midnightblue" points="319.277,-652.5 309.277,-656 319.277,-659.5 319.277,-652.5"/>
</g>
<!-- Node9 -->
<g id="node9" class="node"><title>Node9</title>
<g id="a_node9"><a xlink:href="dd/daf/class_c_g_l_boite.xhtml" target="_top" xlink:title="CGLBoite">
<polygon fill="white" stroke="black" points="242.5,-76.5 242.5,-95.5 301.5,-95.5 301.5,-76.5 242.5,-76.5"/>
<text text-anchor="middle" x="272" y="-83.5" font-family="Helvetica,sans-Serif" font-size="10.00">CGLBoite</text>
</a>
</g>
</g>
<!-- Node8&#45;&gt;Node9 -->
<g id="edge8" class="edge"><title>Node8&#45;&gt;Node9</title>
<path fill="none" stroke="midnightblue" d="M172.637,-145.611C187.084,-133.424 207.956,-116.912 228,-105 233.753,-101.581 240.233,-98.4028 246.383,-95.6621"/>
<polygon fill="midnightblue" stroke="midnightblue" points="170.243,-143.053 164.928,-152.219 174.799,-148.368 170.243,-143.053"/>
</g>
<!-- Node10 -->
<g id="node10" class="node"><title>Node10</title>
<g id="a_node10"><a xlink:href="d3/d05/class_c_g_l_circle.xhtml" target="_top" xlink:title="CGLCircle">
<polygon fill="white" stroke="black" points="241,-38.5 241,-57.5 303,-57.5 303,-38.5 241,-38.5"/>
<text text-anchor="middle" x="272" y="-45.5" font-family="Helvetica,sans-Serif" font-size="10.00">CGLCircle</text>
</a>
</g>
</g>
<!-- Node8&#45;&gt;Node10 -->
<g id="edge9" class="edge"><title>Node8&#45;&gt;Node10</title>
<path fill="none" stroke="midnightblue" d="M164.523,-143.503C177.238,-122.554 200.395,-88.5374 228,-67 232.762,-63.2849 238.364,-60.13 243.922,-57.5219"/>
<polygon fill="midnightblue" stroke="midnightblue" points="161.358,-141.981 159.292,-152.372 167.387,-145.537 161.358,-141.981"/>
</g>
<!-- Node11 -->
<g id="node11" class="node"><title>Node11</title>
<g id="a_node11"><a xlink:href="da/d38/class_c_g_l_dot.xhtml" target="_top" xlink:title="CGLDot">
<polygon fill="white" stroke="black" points="245.5,-0.5 245.5,-19.5 298.5,-19.5 298.5,-0.5 245.5,-0.5"/>
<text text-anchor="middle" x="272" y="-7.5" font-family="Helvetica,sans-Serif" font-size="10.00">CGLDot</text>
</a>
</g>
</g>
<!-- Node8&#45;&gt;Node11 -->
<g id="edge10" class="edge"><title>Node8&#45;&gt;Node11</title>
<path fill="none" stroke="midnightblue" d="M160.253,-142.691C170.332,-114.308 192.689,-61.2142 228,-29 232.944,-24.4895 239.133,-20.9191 245.261,-18.1494"/>
<polygon fill="midnightblue" stroke="midnightblue" points="156.904,-141.669 156.99,-152.264 163.529,-143.928 156.904,-141.669"/>
</g>
<!-- Node12 -->
<g id="node12" class="node"><title>Node12</title>
<g id="a_node12"><a xlink:href="d9/dfe/class_c_g_l_line.xhtml" target="_top" xlink:title="CGLLine">
<polygon fill="white" stroke="black" points="244.5,-266.5 244.5,-285.5 299.5,-285.5 299.5,-266.5 244.5,-266.5"/>
<text text-anchor="middle" x="272" y="-273.5" font-family="Helvetica,sans-Serif" font-size="10.00">CGLLine</text>
</a>
</g>
</g>
<!-- Node8&#45;&gt;Node12 -->
<g id="edge11" class="edge"><title>Node8&#45;&gt;Node12</title>
<path fill="none" stroke="midnightblue" d="M164.523,-180.497C177.238,-201.446 200.395,-235.463 228,-257 232.89,-260.815 238.667,-264.04 244.373,-266.688"/>
<polygon fill="midnightblue" stroke="midnightblue" points="167.387,-178.463 159.292,-171.628 161.358,-182.019 167.387,-178.463"/>
</g>
<!-- Node13 -->
<g id="node13" class="node"><title>Node13</title>
<g id="a_node13"><a xlink:href="d1/db6/class_c_g_l_polygon.xhtml" target="_top" xlink:title="CGLPolygon">
<polygon fill="white" stroke="black" points="236,-228.5 236,-247.5 308,-247.5 308,-228.5 236,-228.5"/>
<text text-anchor="middle" x="272" y="-235.5" font-family="Helvetica,sans-Serif" font-size="10.00">CGLPolygon</text>
</a>
</g>
</g>
<!-- Node8&#45;&gt;Node13 -->
<g id="edge12" class="edge"><title>Node8&#45;&gt;Node13</title>
<path fill="none" stroke="midnightblue" d="M172.637,-178.389C187.084,-190.576 207.956,-207.088 228,-219 233.753,-222.419 240.233,-225.597 246.383,-228.338"/>
<polygon fill="midnightblue" stroke="midnightblue" points="174.799,-175.632 164.928,-171.781 170.243,-180.947 174.799,-175.632"/>
</g>
<!-- Node14 -->
<g id="node14" class="node"><title>Node14</title>
<g id="a_node14"><a xlink:href="df/d41/class_c_g_l_quad.xhtml" target="_top" xlink:title="CGLQuad">
<polygon fill="white" stroke="black" points="242,-190.5 242,-209.5 302,-209.5 302,-190.5 242,-190.5"/>
<text text-anchor="middle" x="272" y="-197.5" font-family="Helvetica,sans-Serif" font-size="10.00">CGLQuad</text>
</a>
</g>
</g>
<!-- Node8&#45;&gt;Node14 -->
<g id="edge13" class="edge"><title>Node8&#45;&gt;Node14</title>
<path fill="none" stroke="midnightblue" d="M190.989,-174.013C207.452,-179.36 226.555,-185.565 241.966,-190.57"/>
<polygon fill="midnightblue" stroke="midnightblue" points="191.728,-170.574 181.136,-170.813 189.566,-177.231 191.728,-170.574"/>
</g>
<!-- Node15 -->
<g id="node15" class="node"><title>Node15</title>
<g id="a_node15"><a xlink:href="d8/dbf/class_c_g_l_robot1.xhtml" target="_top" xlink:title="CGLRobot1">
<polygon fill="white" stroke="black" points="238,-152.5 238,-171.5 306,-171.5 306,-152.5 238,-152.5"/>
<text text-anchor="middle" x="272" y="-159.5" font-family="Helvetica,sans-Serif" font-size="10.00">CGLRobot1</text>
</a>
</g>
</g>
<!-- Node8&#45;&gt;Node15 -->
<g id="edge14" class="edge"><title>Node8&#45;&gt;Node15</title>
<path fill="none" stroke="midnightblue" d="M191.525,-162C206.387,-162 223.332,-162 237.746,-162"/>
<polygon fill="midnightblue" stroke="midnightblue" points="191.136,-158.5 181.136,-162 191.136,-165.5 191.136,-158.5"/>
</g>
<!-- Node16 -->
<g id="node16" class="node"><title>Node16</title>
<g id="a_node16"><a xlink:href="d1/d68/class_c_g_l_triangle.xhtml" target="_top" xlink:title="CGLTriangle">
<polygon fill="white" stroke="black" points="236.5,-114.5 236.5,-133.5 307.5,-133.5 307.5,-114.5 236.5,-114.5"/>
<text text-anchor="middle" x="272" y="-121.5" font-family="Helvetica,sans-Serif" font-size="10.00">CGLTriangle</text>
</a>
</g>
</g>
<!-- Node8&#45;&gt;Node16 -->
<g id="edge15" class="edge"><title>Node8&#45;&gt;Node16</title>
<path fill="none" stroke="midnightblue" d="M190.913,-150.011C207.246,-144.707 226.19,-138.554 241.551,-133.564"/>
<polygon fill="midnightblue" stroke="midnightblue" points="189.566,-146.769 181.136,-153.187 191.728,-153.426 189.566,-146.769"/>
</g>
<!-- Node18 -->
<g id="node18" class="node"><title>Node18</title>
<g id="a_node18"><a xlink:href="de/dee/class_c_g_l_camera.xhtml" target="_top" xlink:title="CGLCamera">
<polygon fill="white" stroke="black" points="236.5,-456.5 236.5,-475.5 307.5,-475.5 307.5,-456.5 236.5,-456.5"/>
<text text-anchor="middle" x="272" y="-463.5" font-family="Helvetica,sans-Serif" font-size="10.00">CGLCamera</text>
</a>
</g>
</g>
<!-- Node17&#45;&gt;Node18 -->
<g id="edge17" class="edge"><title>Node17&#45;&gt;Node18</title>
<path fill="none" stroke="midnightblue" d="M180.853,-423.267C194.816,-430.564 212.221,-439.47 228,-447 234.629,-450.163 241.912,-453.451 248.569,-456.384"/>
<polygon fill="midnightblue" stroke="midnightblue" points="182.278,-420.062 171.798,-418.509 179.022,-426.259 182.278,-420.062"/>
</g>
<!-- Node19 -->
<g id="node19" class="node"><title>Node19</title>
<g id="a_node19"><a xlink:href="d4/dad/class_c_g_l_camera_list.xhtml" target="_top" xlink:title="CGLCameraList">
<polygon fill="white" stroke="black" points="228.5,-418.5 228.5,-437.5 315.5,-437.5 315.5,-418.5 228.5,-418.5"/>
<text text-anchor="middle" x="272" y="-425.5" font-family="Helvetica,sans-Serif" font-size="10.00">CGLCameraList</text>
</a>
</g>
</g>
<!-- Node17&#45;&gt;Node19 -->
<g id="edge18" class="edge"><title>Node17&#45;&gt;Node19</title>
<path fill="none" stroke="midnightblue" d="M197.678,-416.093C207.684,-417.718 218.311,-419.444 228.277,-421.062"/>
<polygon fill="midnightblue" stroke="midnightblue" points="197.959,-412.593 187.528,-414.445 196.837,-419.502 197.959,-412.593"/>
</g>
<!-- Node20 -->
<g id="node20" class="node"><title>Node20</title>
<g id="a_node20"><a xlink:href="da/dc8/class_c_g_l_light.xhtml" target="_top" xlink:title="CGLLight">
<polygon fill="white" stroke="black" points="243,-380.5 243,-399.5 301,-399.5 301,-380.5 243,-380.5"/>
<text text-anchor="middle" x="272" y="-387.5" font-family="Helvetica,sans-Serif" font-size="10.00">CGLLight</text>
</a>
</g>
</g>
<!-- Node17&#45;&gt;Node20 -->
<g id="edge19" class="edge"><title>Node17&#45;&gt;Node20</title>
<path fill="none" stroke="midnightblue" d="M197.658,-401.91C212.69,-399.469 229.122,-396.801 242.616,-394.609"/>
<polygon fill="midnightblue" stroke="midnightblue" points="196.837,-398.498 187.528,-403.555 197.959,-405.407 196.837,-398.498"/>
</g>
<!-- Node21 -->
<g id="node21" class="node"><title>Node21</title>
<g id="a_node21"><a xlink:href="d9/d85/class_c_g_l_scene.xhtml" target="_top" xlink:title="CGLScene">
<polygon fill="white" stroke="black" points="239.5,-342.5 239.5,-361.5 304.5,-361.5 304.5,-342.5 239.5,-342.5"/>
<text text-anchor="middle" x="272" y="-349.5" font-family="Helvetica,sans-Serif" font-size="10.00">CGLScene</text>
</a>
</g>
</g>
<!-- Node17&#45;&gt;Node21 -->
<g id="edge20" class="edge"><title>Node17&#45;&gt;Node21</title>
<path fill="none" stroke="midnightblue" d="M180.853,-394.733C194.816,-387.436 212.221,-378.53 228,-371 234.629,-367.837 241.912,-364.549 248.569,-361.616"/>
<polygon fill="midnightblue" stroke="midnightblue" points="179.022,-391.741 171.798,-399.491 182.278,-397.938 179.022,-391.741"/>
</g>
<!-- Node22 -->
<g id="node22" class="node"><title>Node22</title>
<g id="a_node22"><a xlink:href="dd/d40/class_c_g_l_window.xhtml" target="_top" xlink:title="CGLWindow">
<polygon fill="white" stroke="black" points="236,-304.5 236,-323.5 308,-323.5 308,-304.5 236,-304.5"/>
<text text-anchor="middle" x="272" y="-311.5" font-family="Helvetica,sans-Serif" font-size="10.00">CGLWindow</text>
</a>
</g>
</g>
<!-- Node17&#45;&gt;Node22 -->
<g id="edge21" class="edge"><title>Node17&#45;&gt;Node22</title>
<path fill="none" stroke="midnightblue" d="M167.624,-391.54C181.407,-374.788 204.048,-349.648 228,-333 233.227,-329.367 239.261,-326.184 245.125,-323.514"/>
<polygon fill="midnightblue" stroke="midnightblue" points="164.805,-389.46 161.264,-399.445 170.259,-393.848 164.805,-389.46"/>
</g>
<!-- Node23 -->
<g id="node23" class="node"><title>Node23</title>
<g id="a_node23"><a xlink:href="db/da4/class_c_g_l_world.xhtml" target="_top" xlink:title="CGLWorld">
<polygon fill="white" stroke="black" points="241,-494.5 241,-513.5 303,-513.5 303,-494.5 241,-494.5"/>
<text text-anchor="middle" x="272" y="-501.5" font-family="Helvetica,sans-Serif" font-size="10.00">CGLWorld</text>
</a>
</g>
</g>
<!-- Node17&#45;&gt;Node23 -->
<g id="edge22" class="edge"><title>Node17&#45;&gt;Node23</title>
<path fill="none" stroke="midnightblue" d="M167.624,-426.46C181.407,-443.212 204.048,-468.352 228,-485 233.227,-488.633 239.261,-491.816 245.125,-494.486"/>
<polygon fill="midnightblue" stroke="midnightblue" points="170.259,-424.152 161.264,-418.555 164.805,-428.54 170.259,-424.152"/>
</g>
<!-- Node24 -->
<g id="node24" class="node"><title>Node24</title>
<g id="a_node24"><a xlink:href="d8/d97/class_c_g_l_vector2_d.xhtml" target="_top" xlink:title="CGLVector2D">
<polygon fill="white" stroke="black" points="0,-627.5 0,-646.5 78,-646.5 78,-627.5 0,-627.5"/>
<text text-anchor="middle" x="39" y="-634.5" font-family="Helvetica,sans-Serif" font-size="10.00">CGLVector2D</text>
</a>
</g>
</g>
<!-- Node25 -->
<g id="node25" class="node"><title>Node25</title>
<g id="a_node25"><a xlink:href="d6/df9/class_c_g_l_vector3_d.xhtml" target="_top" xlink:title="CGLVector3D">
<polygon fill="white" stroke="black" points="114,-627.5 114,-646.5 192,-646.5 192,-627.5 114,-627.5"/>
<text text-anchor="middle" x="153" y="-634.5" font-family="Helvetica,sans-Serif" font-size="10.00">CGLVector3D</text>
</a>
</g>
</g>
<!-- Node24&#45;&gt;Node25 -->
<g id="edge23" class="edge"><title>Node24&#45;&gt;Node25</title>
<path fill="none" stroke="midnightblue" d="M88.4591,-637C96.9858,-637 105.75,-637 113.942,-637"/>
<polygon fill="midnightblue" stroke="midnightblue" points="88.2308,-633.5 78.2308,-637 88.2308,-640.5 88.2308,-633.5"/>
</g>
<!-- Node25&#45;&gt;Node4 -->
<g id="edge24" class="edge"><title>Node25&#45;&gt;Node4</title>
<path fill="none" stroke="midnightblue" d="M180.853,-622.733C194.816,-615.436 212.221,-606.53 228,-599 234.629,-595.837 241.912,-592.549 248.569,-589.616"/>
<polygon fill="midnightblue" stroke="midnightblue" points="179.022,-619.741 171.798,-627.491 182.278,-625.938 179.022,-619.741"/>
</g>
<!-- Node25&#45;&gt;Node5 -->
<g id="edge25" class="edge"><title>Node25&#45;&gt;Node5</title>
<path fill="none" stroke="midnightblue" d="M202.196,-644.827C213.163,-646.608 224.629,-648.47 234.986,-650.152"/>
<polygon fill="midnightblue" stroke="midnightblue" points="202.742,-641.37 192.31,-643.221 201.62,-648.279 202.742,-641.37"/>
</g>
<!-- Node25&#45;&gt;Node7 -->
<g id="edge26" class="edge"><title>Node25&#45;&gt;Node7</title>
<path fill="none" stroke="midnightblue" d="M202.509,-629.122C215.469,-627.018 229.103,-624.804 240.765,-622.91"/>
<polygon fill="midnightblue" stroke="midnightblue" points="201.62,-625.721 192.31,-630.779 202.742,-632.63 201.62,-625.721"/>
</g>
<!-- Node26 -->
<g id="node26" class="node"><title>Node26</title>
<g id="a_node26"><a xlink:href="db/d79/class_c_g_l_vector4_d.xhtml" target="_top" xlink:title="CGLVector4D">
<polygon fill="white" stroke="black" points="233,-684.5 233,-703.5 311,-703.5 311,-684.5 233,-684.5"/>
<text text-anchor="middle" x="272" y="-691.5" font-family="Helvetica,sans-Serif" font-size="10.00">CGLVector4D</text>
</a>
</g>
</g>
<!-- Node25&#45;&gt;Node26 -->
<g id="edge27" class="edge"><title>Node25&#45;&gt;Node26</title>
<path fill="none" stroke="midnightblue" d="M180.853,-651.267C194.816,-658.564 212.221,-667.47 228,-675 234.629,-678.163 241.912,-681.451 248.569,-684.384"/>
<polygon fill="midnightblue" stroke="midnightblue" points="182.278,-648.062 171.798,-646.509 179.022,-654.259 182.278,-648.062"/>
</g>
<!-- Node26&#45;&gt;Node3 -->
<g id="edge28" class="edge"><title>Node26&#45;&gt;Node3</title>
<path fill="none" stroke="midnightblue" d="M308.494,-679.786C311.109,-678.299 313.643,-676.703 316,-675 320.599,-671.678 372.479,-613.325 393.366,-589.755"/>
<polygon fill="midnightblue" stroke="midnightblue" points="306.739,-676.753 299.423,-684.416 309.921,-682.987 306.739,-676.753"/>
</g>
</g>
</svg>
