<?xml version="1.0" encoding="UTF-8" standalone="no"?>
<!DOCTYPE svg PUBLIC "-//W3C//DTD SVG 1.1//EN"
 "http://www.w3.org/Graphics/SVG/1.1/DTD/svg11.dtd">
<!-- Generated by graphviz version 2.36.0 (20140111.2315)
 -->
<!-- Title: CGLPositionSpeedLimited::drawObject Pages: 1 -->
<svg width="472pt" height="253pt"
 viewBox="0.00 0.00 472.00 253.00" xmlns="http://www.w3.org/2000/svg" xmlns:xlink="http://www.w3.org/1999/xlink">
<g id="graph0" class="graph" transform="scale(1 1) rotate(0) translate(4 249)">
<title>CGLPositionSpeedLimited::drawObject</title>
<polygon fill="white" stroke="none" points="-4,4 -4,-249 468,-249 468,4 -4,4"/>
<!-- Node1 -->
<g id="node1" class="node"><title>Node1</title>
<polygon fill="#bfbfbf" stroke="black" points="0.5,-109 0.5,-139 131.5,-139 131.5,-109 0.5,-109"/>
<text text-anchor="start" x="8.5" y="-127" font-family="Helvetica,sans-Serif" font-size="10.00">CGLPositionSpeedLimited</text>
<text text-anchor="middle" x="66" y="-116" font-family="Helvetica,sans-Serif" font-size="10.00">::drawObject</text>
</g>
<!-- Node2 -->
<g id="node2" class="node"><title>Node2</title>
<g id="a_node2"><a xlink:href="$d8/d97/class_c_g_l_vector2_d.xhtml#a5f25e872259c579251336dfe0faf8701" xlink:title="CGLVector2D::getX">
<polygon fill="white" stroke="black" points="360,-225.5 360,-244.5 464,-244.5 464,-225.5 360,-225.5"/>
<text text-anchor="middle" x="412" y="-232.5" font-family="Helvetica,sans-Serif" font-size="10.00">CGLVector2D::getX</text>
</a>
</g>
</g>
<!-- Node1&#45;&gt;Node2 -->
<g id="edge1" class="edge"><title>Node1&#45;&gt;Node2</title>
<path fill="none" stroke="midnightblue" d="M87.6227,-139.027C107.333,-152.697 138.353,-172.451 168,-184 227.561,-207.201 299.652,-220.636 349.774,-227.834"/>
<polygon fill="midnightblue" stroke="midnightblue" points="349.421,-231.318 359.809,-229.234 350.389,-224.385 349.421,-231.318"/>
</g>
<!-- Node3 -->
<g id="node3" class="node"><title>Node3</title>
<g id="a_node3"><a xlink:href="$d8/d97/class_c_g_l_vector2_d.xhtml#a22db1a511fae81b0d7a6766b6490dd8c" xlink:title="CGLVector2D::setX">
<polygon fill="white" stroke="black" points="360,-178.5 360,-197.5 464,-197.5 464,-178.5 360,-178.5"/>
<text text-anchor="middle" x="412" y="-185.5" font-family="Helvetica,sans-Serif" font-size="10.00">CGLVector2D::setX</text>
</a>
</g>
</g>
<!-- Node1&#45;&gt;Node3 -->
<g id="edge2" class="edge"><title>Node1&#45;&gt;Node3</title>
<path fill="none" stroke="midnightblue" d="M104.327,-139.088C123.142,-146.137 146.479,-154.048 168,-159 228.882,-173.01 299.994,-180.493 349.498,-184.326"/>
<polygon fill="midnightblue" stroke="midnightblue" points="349.489,-187.835 359.722,-185.089 350.011,-180.854 349.489,-187.835"/>
</g>
<!-- Node4 -->
<g id="node4" class="node"><title>Node4</title>
<g id="a_node4"><a xlink:href="$d8/d97/class_c_g_l_vector2_d.xhtml#ad279638b74a0caac60632b169136688c" xlink:title="CGLVector2D::getY">
<polygon fill="white" stroke="black" points="360,-121.5 360,-140.5 464,-140.5 464,-121.5 360,-121.5"/>
<text text-anchor="middle" x="412" y="-128.5" font-family="Helvetica,sans-Serif" font-size="10.00">CGLVector2D::getY</text>
</a>
</g>
</g>
<!-- Node1&#45;&gt;Node4 -->
<g id="edge3" class="edge"><title>Node1&#45;&gt;Node4</title>
<path fill="none" stroke="midnightblue" d="M131.675,-138.009C143.695,-140.087 156.186,-141.898 168,-143 237.034,-149.437 254.829,-147.748 324,-143 332.309,-142.43 341.034,-141.556 349.618,-140.535"/>
<polygon fill="midnightblue" stroke="midnightblue" points="350.113,-144.001 359.597,-139.278 349.238,-137.056 350.113,-144.001"/>
</g>
<!-- Node5 -->
<g id="node5" class="node"><title>Node5</title>
<g id="a_node5"><a xlink:href="$d8/d97/class_c_g_l_vector2_d.xhtml#a4c89a21e28a86848c6b023ad60baef4c" xlink:title="CGLVector2D::setY">
<polygon fill="white" stroke="black" points="360,-78.5 360,-97.5 464,-97.5 464,-78.5 360,-78.5"/>
<text text-anchor="middle" x="412" y="-85.5" font-family="Helvetica,sans-Serif" font-size="10.00">CGLVector2D::setY</text>
</a>
</g>
</g>
<!-- Node1&#45;&gt;Node5 -->
<g id="edge4" class="edge"><title>Node1&#45;&gt;Node5</title>
<path fill="none" stroke="midnightblue" d="M131.75,-110.668C143.762,-108.523 156.232,-106.513 168,-105 229.481,-97.0937 300.22,-92.6681 349.46,-90.3292"/>
<polygon fill="midnightblue" stroke="midnightblue" points="349.802,-93.8173 359.63,-89.8613 349.48,-86.8247 349.802,-93.8173"/>
</g>
<!-- Node6 -->
<g id="node6" class="node"><title>Node6</title>
<g id="a_node6"><a xlink:href="$d6/df9/class_c_g_l_vector3_d.xhtml#a374bca193aae71220f1349a6ab0778ee" xlink:title="CGLVector3D::getZ">
<polygon fill="white" stroke="black" points="360,-38.5 360,-57.5 464,-57.5 464,-38.5 360,-38.5"/>
<text text-anchor="middle" x="412" y="-45.5" font-family="Helvetica,sans-Serif" font-size="10.00">CGLVector3D::getZ</text>
</a>
</g>
</g>
<!-- Node1&#45;&gt;Node6 -->
<g id="edge5" class="edge"><title>Node1&#45;&gt;Node6</title>
<path fill="none" stroke="midnightblue" d="M102.928,-108.926C121.983,-101.423 145.955,-92.75 168,-87 228.793,-71.1434 299.918,-60.6357 349.45,-54.5635"/>
<polygon fill="midnightblue" stroke="midnightblue" points="350.169,-58.0024 359.68,-53.3348 349.334,-51.0523 350.169,-58.0024"/>
</g>
<!-- Node7 -->
<g id="node7" class="node"><title>Node7</title>
<g id="a_node7"><a xlink:href="$d6/df9/class_c_g_l_vector3_d.xhtml#afef476ba51f4f45cb9d64e5d6c1592a4" xlink:title="CGLVector3D::setZ">
<polygon fill="white" stroke="black" points="360,-0.5 360,-19.5 464,-19.5 464,-0.5 360,-0.5"/>
<text text-anchor="middle" x="412" y="-7.5" font-family="Helvetica,sans-Serif" font-size="10.00">CGLVector3D::setZ</text>
</a>
</g>
</g>
<!-- Node1&#45;&gt;Node7 -->
<g id="edge6" class="edge"><title>Node1&#45;&gt;Node7</title>
<path fill="none" stroke="midnightblue" d="M83.4902,-108.908C102.431,-92.4556 135.145,-66.6563 168,-53 226.848,-28.5393 299.353,-17.9867 349.774,-13.4381"/>
<polygon fill="midnightblue" stroke="midnightblue" points="350.201,-16.9145 359.869,-12.5809 349.608,-9.93962 350.201,-16.9145"/>
</g>
<!-- Node8 -->
<g id="node8" class="node"><title>Node8</title>
<g id="a_node8"><a xlink:href="$d7/dc4/class_c_g_l_position_speed.xhtml#ac2a548b1df4418be822a62d623fdd1ec" xlink:title="CGLPositionSpeed::drawObject">
<polygon fill="white" stroke="black" points="168.5,-114.5 168.5,-133.5 323.5,-133.5 323.5,-114.5 168.5,-114.5"/>
<text text-anchor="middle" x="246" y="-121.5" font-family="Helvetica,sans-Serif" font-size="10.00">CGLPositionSpeed::drawObject</text>
</a>
</g>
</g>
<!-- Node1&#45;&gt;Node8 -->
<g id="edge7" class="edge"><title>Node1&#45;&gt;Node8</title>
<path fill="none" stroke="midnightblue" d="M131.514,-124C140.188,-124 149.199,-124 158.181,-124"/>
<polygon fill="midnightblue" stroke="midnightblue" points="158.289,-127.5 168.289,-124 158.289,-120.5 158.289,-127.5"/>
</g>
<!-- Node8&#45;&gt;Node2 -->
<g id="edge9" class="edge"><title>Node8&#45;&gt;Node2</title>
<path fill="none" stroke="midnightblue" d="M258.838,-133.504C279.018,-149.517 321.624,-182.521 360,-207 367.386,-211.711 375.622,-216.444 383.283,-220.644"/>
<polygon fill="midnightblue" stroke="midnightblue" points="381.783,-223.811 392.248,-225.464 385.098,-217.645 381.783,-223.811"/>
</g>
<!-- Node8&#45;&gt;Node3 -->
<g id="edge8" class="edge"><title>Node8&#45;&gt;Node3</title>
<path fill="none" stroke="midnightblue" d="M271.552,-133.581C299.531,-144.5 345.441,-162.416 376.887,-174.688"/>
<polygon fill="midnightblue" stroke="midnightblue" points="375.96,-178.083 386.548,-178.458 378.505,-171.562 375.96,-178.083"/>
</g>
<!-- Node8&#45;&gt;Node4 -->
<g id="edge11" class="edge"><title>Node8&#45;&gt;Node4</title>
<path fill="none" stroke="midnightblue" d="M323.718,-127.275C332.371,-127.644 341.103,-128.017 349.526,-128.376"/>
<polygon fill="midnightblue" stroke="midnightblue" points="349.481,-131.877 359.621,-128.807 349.779,-124.884 349.481,-131.877"/>
</g>
<!-- Node8&#45;&gt;Node5 -->
<g id="edge10" class="edge"><title>Node8&#45;&gt;Node5</title>
<path fill="none" stroke="midnightblue" d="M290.518,-114.447C311.08,-109.934 335.817,-104.503 357.513,-99.7411"/>
<polygon fill="midnightblue" stroke="midnightblue" points="358.546,-103.098 367.563,-97.5349 357.045,-96.2605 358.546,-103.098"/>
</g>
<!-- Node8&#45;&gt;Node6 -->
<g id="edge13" class="edge"><title>Node8&#45;&gt;Node6</title>
<path fill="none" stroke="midnightblue" d="M265.626,-114.491C287.888,-103.23 326.358,-84.0956 360,-69 365.597,-66.4887 371.586,-63.9192 377.421,-61.4779"/>
<polygon fill="midnightblue" stroke="midnightblue" points="379.091,-64.5749 386.999,-57.5233 376.42,-58.1047 379.091,-64.5749"/>
</g>
<!-- Node8&#45;&gt;Node7 -->
<g id="edge12" class="edge"><title>Node8&#45;&gt;Node7</title>
<path fill="none" stroke="midnightblue" d="M256.115,-114.389C274.3,-95.6871 317.046,-54.0437 360,-29 363.437,-26.996 367.124,-25.1372 370.884,-23.43"/>
<polygon fill="midnightblue" stroke="midnightblue" points="372.407,-26.587 380.285,-19.5025 369.709,-20.128 372.407,-26.587"/>
</g>
</g>
</svg>
