<?xml version="1.0" encoding="UTF-8" standalone="no"?>
<!DOCTYPE svg PUBLIC "-//W3C//DTD SVG 1.1//EN"
 "http://www.w3.org/Graphics/SVG/1.1/DTD/svg11.dtd">
<!-- Generated by graphviz version 2.36.0 (20140111.2315)
 -->
<!-- Title: /home/dagal/git/DamierGL/DamierGL/src/CGL/CGLRobot1.h Pages: 1 -->
<svg width="349pt" height="108pt"
 viewBox="0.00 0.00 349.00 108.00" xmlns="http://www.w3.org/2000/svg" xmlns:xlink="http://www.w3.org/1999/xlink">
<g id="graph0" class="graph" transform="scale(1 1) rotate(0) translate(4 104)">
<title>/home/dagal/git/DamierGL/DamierGL/src/CGL/CGLRobot1.h</title>
<polygon fill="white" stroke="none" points="-4,4 -4,-104 345,-104 345,4 -4,4"/>
<!-- Node1 -->
<g id="node1" class="node"><title>Node1</title>
<polygon fill="#bfbfbf" stroke="black" points="94.5,-69 94.5,-99 261.5,-99 261.5,-69 94.5,-69"/>
<text text-anchor="start" x="102.5" y="-87" font-family="Helvetica,sans-Serif" font-size="10.00">/home/dagal/git/DamierGL</text>
<text text-anchor="middle" x="178" y="-76" font-family="Helvetica,sans-Serif" font-size="10.00">/DamierGL/src/CGL/CGLRobot1.h</text>
</g>
<!-- Node2 -->
<g id="node2" class="node"><title>Node2</title>
<g id="a_node2"><a xlink:href="../../dc/d01/_c_g_l_robot1_8cpp.xhtml" target="_top" xlink:title="/home/dagal/git/DamierGL\l/DamierGL/src/CGL/CGLRobot1.cpp">
<polygon fill="white" stroke="black" points="-0.5,-1 -0.5,-31 176.5,-31 176.5,-1 -0.5,-1"/>
<text text-anchor="start" x="7.5" y="-19" font-family="Helvetica,sans-Serif" font-size="10.00">/home/dagal/git/DamierGL</text>
<text text-anchor="middle" x="88" y="-8" font-family="Helvetica,sans-Serif" font-size="10.00">/DamierGL/src/CGL/CGLRobot1.cpp</text>
</a>
</g>
</g>
<!-- Node1&#45;&gt;Node2 -->
<g id="edge1" class="edge"><title>Node1&#45;&gt;Node2</title>
<path fill="none" stroke="midnightblue" d="M150.181,-62.5994C136.233,-52.3712 119.695,-40.2428 107.181,-31.0663"/>
<polygon fill="midnightblue" stroke="midnightblue" points="148.337,-65.5877 158.471,-68.679 152.477,-59.9429 148.337,-65.5877"/>
</g>
<!-- Node3 -->
<g id="node3" class="node"><title>Node3</title>
<g id="a_node3"><a xlink:href="../../db/dec/_damier_g_l_8cpp.xhtml" target="_top" xlink:title="/home/dagal/git/DamierGL\l/DamierGL/src/DamierGL.cpp">
<polygon fill="white" stroke="black" points="195,-1 195,-31 341,-31 341,-1 195,-1"/>
<text text-anchor="start" x="203" y="-19" font-family="Helvetica,sans-Serif" font-size="10.00">/home/dagal/git/DamierGL</text>
<text text-anchor="middle" x="268" y="-8" font-family="Helvetica,sans-Serif" font-size="10.00">/DamierGL/src/DamierGL.cpp</text>
</a>
</g>
</g>
<!-- Node1&#45;&gt;Node3 -->
<g id="edge2" class="edge"><title>Node1&#45;&gt;Node3</title>
<path fill="none" stroke="midnightblue" d="M205.819,-62.5994C219.767,-52.3712 236.305,-40.2428 248.819,-31.0663"/>
<polygon fill="midnightblue" stroke="midnightblue" points="203.523,-59.9429 197.529,-68.679 207.663,-65.5877 203.523,-59.9429"/>
</g>
</g>
</svg>
