<?xml version="1.0" encoding="UTF-8" standalone="no"?>
<!DOCTYPE svg PUBLIC "-//W3C//DTD SVG 1.1//EN"
 "http://www.w3.org/Graphics/SVG/1.1/DTD/svg11.dtd">
<!-- Generated by graphviz version 2.36.0 (20140111.2315)
 -->
<!-- Title: /home/dagal/git/DamierGL/DamierGL/src/CGL/CGLTriangle.h Pages: 1 -->
<svg width="352pt" height="108pt"
 viewBox="0.00 0.00 352.00 108.00" xmlns="http://www.w3.org/2000/svg" xmlns:xlink="http://www.w3.org/1999/xlink">
<g id="graph0" class="graph" transform="scale(1 1) rotate(0) translate(4 104)">
<title>/home/dagal/git/DamierGL/DamierGL/src/CGL/CGLTriangle.h</title>
<polygon fill="white" stroke="none" points="-4,4 -4,-104 348,-104 348,4 -4,4"/>
<!-- Node1 -->
<g id="node1" class="node"><title>Node1</title>
<polygon fill="#bfbfbf" stroke="black" points="95,-69 95,-99 265,-99 265,-69 95,-69"/>
<text text-anchor="start" x="103" y="-87" font-family="Helvetica,sans-Serif" font-size="10.00">/home/dagal/git/DamierGL</text>
<text text-anchor="middle" x="180" y="-76" font-family="Helvetica,sans-Serif" font-size="10.00">/DamierGL/src/CGL/CGLTriangle.h</text>
</g>
<!-- Node2 -->
<g id="node2" class="node"><title>Node2</title>
<g id="a_node2"><a xlink:href="../../d7/da9/_c_g_l_triangle_8cpp.xhtml" target="_top" xlink:title="/home/dagal/git/DamierGL\l/DamierGL/src/CGL/CGLTriangle.cpp">
<polygon fill="white" stroke="black" points="0,-1 0,-31 180,-31 180,-1 0,-1"/>
<text text-anchor="start" x="8" y="-19" font-family="Helvetica,sans-Serif" font-size="10.00">/home/dagal/git/DamierGL</text>
<text text-anchor="middle" x="90" y="-8" font-family="Helvetica,sans-Serif" font-size="10.00">/DamierGL/src/CGL/CGLTriangle.cpp</text>
</a>
</g>
</g>
<!-- Node1&#45;&gt;Node2 -->
<g id="edge1" class="edge"><title>Node1&#45;&gt;Node2</title>
<path fill="none" stroke="midnightblue" d="M152.181,-62.5994C138.233,-52.3712 121.695,-40.2428 109.181,-31.0663"/>
<polygon fill="midnightblue" stroke="midnightblue" points="150.337,-65.5877 160.471,-68.679 154.477,-59.9429 150.337,-65.5877"/>
</g>
<!-- Node3 -->
<g id="node3" class="node"><title>Node3</title>
<g id="a_node3"><a xlink:href="../../db/dec/_damier_g_l_8cpp.xhtml" target="_top" xlink:title="/home/dagal/git/DamierGL\l/DamierGL/src/DamierGL.cpp">
<polygon fill="white" stroke="black" points="198,-1 198,-31 344,-31 344,-1 198,-1"/>
<text text-anchor="start" x="206" y="-19" font-family="Helvetica,sans-Serif" font-size="10.00">/home/dagal/git/DamierGL</text>
<text text-anchor="middle" x="271" y="-8" font-family="Helvetica,sans-Serif" font-size="10.00">/DamierGL/src/DamierGL.cpp</text>
</a>
</g>
</g>
<!-- Node1&#45;&gt;Node3 -->
<g id="edge2" class="edge"><title>Node1&#45;&gt;Node3</title>
<path fill="none" stroke="midnightblue" d="M208.128,-62.5994C222.231,-52.3712 238.953,-40.2428 251.606,-31.0663"/>
<polygon fill="midnightblue" stroke="midnightblue" points="205.786,-59.9745 199.746,-68.679 209.896,-65.6411 205.786,-59.9745"/>
</g>
</g>
</svg>
