<?xml version="1.0" encoding="UTF-8" standalone="no"?>
<!DOCTYPE svg PUBLIC "-//W3C//DTD SVG 1.1//EN"
 "http://www.w3.org/Graphics/SVG/1.1/DTD/svg11.dtd">
<!-- Generated by graphviz version 2.36.0 (20140111.2315)
 -->
<!-- Title: CGLObject::init Pages: 1 -->
<svg width="538pt" height="46pt"
 viewBox="0.00 0.00 538.00 46.00" xmlns="http://www.w3.org/2000/svg" xmlns:xlink="http://www.w3.org/1999/xlink">
<g id="graph0" class="graph" transform="scale(1 1) rotate(0) translate(4 42)">
<title>CGLObject::init</title>
<polygon fill="white" stroke="none" points="-4,4 -4,-42 534,-42 534,4 -4,4"/>
<!-- Node1 -->
<g id="node1" class="node"><title>Node1</title>
<polygon fill="#bfbfbf" stroke="black" points="0,-0.5 0,-19.5 84,-19.5 84,-0.5 0,-0.5"/>
<text text-anchor="middle" x="42" y="-7.5" font-family="Helvetica,sans-Serif" font-size="10.00">CGLObject::init</text>
</g>
<!-- Node2 -->
<g id="node2" class="node"><title>Node2</title>
<g id="a_node2"><a xlink:href="$d2/d76/class_c_g_l_object.xhtml#add00987cd4a5ee06cc4436766392434b" xlink:title="CGLObject::CGLObject">
<polygon fill="white" stroke="black" points="120,-0.5 120,-19.5 240,-19.5 240,-0.5 120,-0.5"/>
<text text-anchor="middle" x="180" y="-7.5" font-family="Helvetica,sans-Serif" font-size="10.00">CGLObject::CGLObject</text>
</a>
</g>
</g>
<!-- Node1&#45;&gt;Node2 -->
<g id="edge1" class="edge"><title>Node1&#45;&gt;Node2</title>
<path fill="none" stroke="midnightblue" d="M84.1736,-10C92.2652,-10 100.96,-10 109.685,-10"/>
<polygon fill="midnightblue" stroke="midnightblue" points="109.905,-13.5001 119.905,-10 109.905,-6.5001 109.905,-13.5001"/>
</g>
<!-- Node3 -->
<g id="node3" class="node"><title>Node3</title>
<g id="a_node3"><a xlink:href="$d2/d76/class_c_g_l_object.xhtml#a83b8918905a5449c94e4447791b61abd" xlink:title="CGLObject::addObject">
<polygon fill="white" stroke="black" points="276,-0.5 276,-19.5 392,-19.5 392,-0.5 276,-0.5"/>
<text text-anchor="middle" x="334" y="-7.5" font-family="Helvetica,sans-Serif" font-size="10.00">CGLObject::addObject</text>
</a>
</g>
</g>
<!-- Node2&#45;&gt;Node3 -->
<g id="edge2" class="edge"><title>Node2&#45;&gt;Node3</title>
<path fill="none" stroke="midnightblue" d="M240.202,-10C248.499,-10 257.077,-10 265.513,-10"/>
<polygon fill="midnightblue" stroke="midnightblue" points="265.705,-13.5001 275.705,-10 265.705,-6.5001 265.705,-13.5001"/>
</g>
<!-- Node3&#45;&gt;Node3 -->
<g id="edge4" class="edge"><title>Node3&#45;&gt;Node3</title>
<path fill="none" stroke="midnightblue" d="M311.805,-19.7571C301.008,-28.5653 308.406,-38 334,-38 350.796,-38 359.756,-33.9368 360.879,-28.6539"/>
<polygon fill="midnightblue" stroke="midnightblue" points="363.951,-26.9747 356.195,-19.7571 357.757,-30.2361 363.951,-26.9747"/>
</g>
<!-- Node4 -->
<g id="node4" class="node"><title>Node4</title>
<g id="a_node4"><a xlink:href="$d2/d76/class_c_g_l_object.xhtml#a80d01439776edc9443b47a7a9e5b9e94" xlink:title="CGLObject::isChild">
<polygon fill="white" stroke="black" points="428.5,-0.5 428.5,-19.5 529.5,-19.5 529.5,-0.5 428.5,-0.5"/>
<text text-anchor="middle" x="479" y="-7.5" font-family="Helvetica,sans-Serif" font-size="10.00">CGLObject::isChild</text>
</a>
</g>
</g>
<!-- Node3&#45;&gt;Node4 -->
<g id="edge3" class="edge"><title>Node3&#45;&gt;Node4</title>
<path fill="none" stroke="midnightblue" d="M392.34,-10C400.94,-10 409.826,-10 418.471,-10"/>
<polygon fill="midnightblue" stroke="midnightblue" points="418.478,-13.5001 428.478,-10 418.478,-6.5001 418.478,-13.5001"/>
</g>
</g>
</svg>
