<?xml version="1.0" encoding="UTF-8" standalone="no"?>
<!DOCTYPE svg PUBLIC "-//W3C//DTD SVG 1.1//EN"
 "http://www.w3.org/Graphics/SVG/1.1/DTD/svg11.dtd">
<!-- Generated by graphviz version 2.36.0 (20140111.2315)
 -->
<!-- Title: CGLObject::drawChildren Pages: 1 -->
<svg width="448pt" height="104pt"
 viewBox="0.00 0.00 448.00 104.00" xmlns="http://www.w3.org/2000/svg" xmlns:xlink="http://www.w3.org/1999/xlink">
<g id="graph0" class="graph" transform="scale(1 1) rotate(0) translate(4 100)">
<title>CGLObject::drawChildren</title>
<polygon fill="white" stroke="none" points="-4,4 -4,-100 444,-100 444,4 -4,4"/>
<!-- Node1 -->
<g id="node1" class="node"><title>Node1</title>
<polygon fill="#bfbfbf" stroke="black" points="0,-38.5 0,-57.5 128,-57.5 128,-38.5 0,-38.5"/>
<text text-anchor="middle" x="64" y="-45.5" font-family="Helvetica,sans-Serif" font-size="10.00">CGLObject::drawChildren</text>
</g>
<!-- Node2 -->
<g id="node2" class="node"><title>Node2</title>
<g id="a_node2"><a xlink:href="$d2/d76/class_c_g_l_object.xhtml#a39c4cde56d18140384842d074407c5c4" xlink:title="CGLObject::draw">
<polygon fill="white" stroke="black" points="176,-76.5 176,-95.5 268,-95.5 268,-76.5 176,-76.5"/>
<text text-anchor="middle" x="222" y="-83.5" font-family="Helvetica,sans-Serif" font-size="10.00">CGLObject::draw</text>
</a>
</g>
</g>
<!-- Node1&#45;&gt;Node2 -->
<g id="edge1" class="edge"><title>Node1&#45;&gt;Node2</title>
<path fill="none" stroke="midnightblue" d="M114.132,-59.968C135.993,-65.2931 161.376,-71.4762 181.918,-76.4799"/>
<polygon fill="midnightblue" stroke="midnightblue" points="114.91,-56.5552 104.365,-57.589 113.253,-63.3563 114.91,-56.5552"/>
</g>
<!-- Node4 -->
<g id="node4" class="node"><title>Node4</title>
<g id="a_node4"><a xlink:href="$d9/d85/class_c_g_l_scene.xhtml#ad6c70504f83937f819d08e76d25f05d0" xlink:title="CGLScene::draw">
<polygon fill="white" stroke="black" points="332,-38.5 332,-57.5 424,-57.5 424,-38.5 332,-38.5"/>
<text text-anchor="middle" x="378" y="-45.5" font-family="Helvetica,sans-Serif" font-size="10.00">CGLScene::draw</text>
</a>
</g>
</g>
<!-- Node1&#45;&gt;Node4 -->
<g id="edge5" class="edge"><title>Node1&#45;&gt;Node4</title>
<path fill="none" stroke="midnightblue" d="M138.292,-48C198.185,-48 280.96,-48 331.638,-48"/>
<polygon fill="midnightblue" stroke="midnightblue" points="138.138,-44.5001 128.138,-48 138.138,-51.5001 138.138,-44.5001"/>
</g>
<!-- Node5 -->
<g id="node5" class="node"><title>Node5</title>
<g id="a_node5"><a xlink:href="$df/d41/class_c_g_l_quad.xhtml#a81696d558e2355af7d621cdbf0ccf41a" xlink:title="CGLQuad::drawObject">
<polygon fill="white" stroke="black" points="164,-0.5 164,-19.5 280,-19.5 280,-0.5 164,-0.5"/>
<text text-anchor="middle" x="222" y="-7.5" font-family="Helvetica,sans-Serif" font-size="10.00">CGLQuad::drawObject</text>
</a>
</g>
</g>
<!-- Node1&#45;&gt;Node5 -->
<g id="edge4" class="edge"><title>Node1&#45;&gt;Node5</title>
<path fill="none" stroke="midnightblue" d="M114.132,-36.032C135.993,-30.7069 161.376,-24.5238 181.918,-19.5201"/>
<polygon fill="midnightblue" stroke="midnightblue" points="113.253,-32.6437 104.365,-38.411 114.91,-39.4448 113.253,-32.6437"/>
</g>
<!-- Node3 -->
<g id="node3" class="node"><title>Node3</title>
<g id="a_node3"><a xlink:href="$d8/dbf/class_c_g_l_robot1.xhtml#a050d7fea4097a6634ef5feef26ae7865" xlink:title="CGLRobot1::drawObject">
<polygon fill="white" stroke="black" points="316,-76.5 316,-95.5 440,-95.5 440,-76.5 316,-76.5"/>
<text text-anchor="middle" x="378" y="-83.5" font-family="Helvetica,sans-Serif" font-size="10.00">CGLRobot1::drawObject</text>
</a>
</g>
</g>
<!-- Node2&#45;&gt;Node3 -->
<g id="edge2" class="edge"><title>Node2&#45;&gt;Node3</title>
<path fill="none" stroke="midnightblue" d="M278.399,-86C290.591,-86 303.569,-86 315.969,-86"/>
<polygon fill="midnightblue" stroke="midnightblue" points="278.372,-82.5001 268.372,-86 278.372,-89.5001 278.372,-82.5001"/>
</g>
<!-- Node2&#45;&gt;Node4 -->
<g id="edge3" class="edge"><title>Node2&#45;&gt;Node4</title>
<path fill="none" stroke="midnightblue" d="M271.794,-73.96C293.308,-68.6512 318.232,-62.5012 338.419,-57.5201"/>
<polygon fill="midnightblue" stroke="midnightblue" points="270.731,-70.6172 261.861,-76.411 272.408,-77.4133 270.731,-70.6172"/>
</g>
</g>
</svg>
