<?xml version="1.0" encoding="UTF-8" standalone="no"?>
<!DOCTYPE svg PUBLIC "-//W3C//DTD SVG 1.1//EN"
 "http://www.w3.org/Graphics/SVG/1.1/DTD/svg11.dtd">
<!-- Generated by graphviz version 2.36.0 (20140111.2315)
 -->
<!-- Title: CGLObject::draw Pages: 1 -->
<svg width="260pt" height="66pt"
 viewBox="0.00 0.00 260.00 66.00" xmlns="http://www.w3.org/2000/svg" xmlns:xlink="http://www.w3.org/1999/xlink">
<g id="graph0" class="graph" transform="scale(1 1) rotate(0) translate(4 62)">
<title>CGLObject::draw</title>
<polygon fill="white" stroke="none" points="-4,4 -4,-62 256,-62 256,4 -4,4"/>
<!-- Node1 -->
<g id="node1" class="node"><title>Node1</title>
<polygon fill="#bfbfbf" stroke="black" points="0,-19.5 0,-38.5 92,-38.5 92,-19.5 0,-19.5"/>
<text text-anchor="middle" x="46" y="-26.5" font-family="Helvetica,sans-Serif" font-size="10.00">CGLObject::draw</text>
</g>
<!-- Node2 -->
<g id="node2" class="node"><title>Node2</title>
<g id="a_node2"><a xlink:href="$d8/dbf/class_c_g_l_robot1.xhtml#a050d7fea4097a6634ef5feef26ae7865" xlink:title="CGLRobot1::drawObject">
<polygon fill="white" stroke="black" points="128,-38.5 128,-57.5 252,-57.5 252,-38.5 128,-38.5"/>
<text text-anchor="middle" x="190" y="-45.5" font-family="Helvetica,sans-Serif" font-size="10.00">CGLRobot1::drawObject</text>
</a>
</g>
</g>
<!-- Node1&#45;&gt;Node2 -->
<g id="edge1" class="edge"><title>Node1&#45;&gt;Node2</title>
<path fill="none" stroke="midnightblue" d="M102.321,-36.4021C110.671,-37.5194 119.326,-38.6774 127.792,-39.8101"/>
<polygon fill="midnightblue" stroke="midnightblue" points="102.696,-32.9212 92.3201,-35.064 101.768,-39.8593 102.696,-32.9212"/>
</g>
<!-- Node3 -->
<g id="node3" class="node"><title>Node3</title>
<g id="a_node3"><a xlink:href="$d9/d85/class_c_g_l_scene.xhtml#ad6c70504f83937f819d08e76d25f05d0" xlink:title="CGLScene::draw">
<polygon fill="white" stroke="black" points="144,-0.5 144,-19.5 236,-19.5 236,-0.5 144,-0.5"/>
<text text-anchor="middle" x="190" y="-7.5" font-family="Helvetica,sans-Serif" font-size="10.00">CGLScene::draw</text>
</a>
</g>
</g>
<!-- Node1&#45;&gt;Node3 -->
<g id="edge2" class="edge"><title>Node1&#45;&gt;Node3</title>
<path fill="none" stroke="midnightblue" d="M102.537,-21.569C116.147,-19.7479 130.554,-17.8202 143.623,-16.0715"/>
<polygon fill="midnightblue" stroke="midnightblue" points="101.768,-18.1407 92.3201,-22.936 102.696,-25.0788 101.768,-18.1407"/>
</g>
</g>
</svg>
