<?xml version="1.0" encoding="UTF-8" standalone="no"?>
<!DOCTYPE svg PUBLIC "-//W3C//DTD SVG 1.1//EN"
 "http://www.w3.org/Graphics/SVG/1.1/DTD/svg11.dtd">
<!-- Generated by graphviz version 2.36.0 (20140111.2315)
 -->
<!-- Title: CGLObject::addObject Pages: 1 -->
<svg width="262pt" height="46pt"
 viewBox="0.00 0.00 262.00 46.00" xmlns="http://www.w3.org/2000/svg" xmlns:xlink="http://www.w3.org/1999/xlink">
<g id="graph0" class="graph" transform="scale(1 1) rotate(0) translate(4 42)">
<title>CGLObject::addObject</title>
<polygon fill="white" stroke="none" points="-4,4 -4,-42 258,-42 258,4 -4,4"/>
<!-- Node1 -->
<g id="node1" class="node"><title>Node1</title>
<polygon fill="#bfbfbf" stroke="black" points="0,-0.5 0,-19.5 116,-19.5 116,-0.5 0,-0.5"/>
<text text-anchor="middle" x="58" y="-7.5" font-family="Helvetica,sans-Serif" font-size="10.00">CGLObject::addObject</text>
</g>
<!-- Node1&#45;&gt;Node1 -->
<g id="edge2" class="edge"><title>Node1&#45;&gt;Node1</title>
<path fill="none" stroke="midnightblue" d="M35.8054,-19.7571C25.0081,-28.5653 32.4062,-38 58,-38 74.7959,-38 83.7556,-33.9368 84.8792,-28.6539"/>
<polygon fill="midnightblue" stroke="midnightblue" points="87.9506,-26.9747 80.1946,-19.7571 81.7567,-30.2361 87.9506,-26.9747"/>
</g>
<!-- Node2 -->
<g id="node2" class="node"><title>Node2</title>
<g id="a_node2"><a xlink:href="$d2/d76/class_c_g_l_object.xhtml#a80d01439776edc9443b47a7a9e5b9e94" xlink:title="CGLObject::isChild">
<polygon fill="white" stroke="black" points="152.5,-0.5 152.5,-19.5 253.5,-19.5 253.5,-0.5 152.5,-0.5"/>
<text text-anchor="middle" x="203" y="-7.5" font-family="Helvetica,sans-Serif" font-size="10.00">CGLObject::isChild</text>
</a>
</g>
</g>
<!-- Node1&#45;&gt;Node2 -->
<g id="edge1" class="edge"><title>Node1&#45;&gt;Node2</title>
<path fill="none" stroke="midnightblue" d="M116.34,-10C124.94,-10 133.826,-10 142.471,-10"/>
<polygon fill="midnightblue" stroke="midnightblue" points="142.478,-13.5001 152.478,-10 142.478,-6.5001 142.478,-13.5001"/>
</g>
</g>
</svg>
