<?xml version="1.0" encoding="UTF-8" standalone="no"?>
<!DOCTYPE svg PUBLIC "-//W3C//DTD SVG 1.1//EN"
 "http://www.w3.org/Graphics/SVG/1.1/DTD/svg11.dtd">
<!-- Generated by graphviz version 2.36.0 (20140111.2315)
 -->
<!-- Title: CGLObject::CGLObject Pages: 1 -->
<svg width="418pt" height="46pt"
 viewBox="0.00 0.00 418.00 46.00" xmlns="http://www.w3.org/2000/svg" xmlns:xlink="http://www.w3.org/1999/xlink">
<g id="graph0" class="graph" transform="scale(1 1) rotate(0) translate(4 42)">
<title>CGLObject::CGLObject</title>
<polygon fill="white" stroke="none" points="-4,4 -4,-42 414,-42 414,4 -4,4"/>
<!-- Node1 -->
<g id="node1" class="node"><title>Node1</title>
<polygon fill="#bfbfbf" stroke="black" points="0,-0.5 0,-19.5 120,-19.5 120,-0.5 0,-0.5"/>
<text text-anchor="middle" x="60" y="-7.5" font-family="Helvetica,sans-Serif" font-size="10.00">CGLObject::CGLObject</text>
</g>
<!-- Node2 -->
<g id="node2" class="node"><title>Node2</title>
<g id="a_node2"><a xlink:href="$d2/d76/class_c_g_l_object.xhtml#a83b8918905a5449c94e4447791b61abd" xlink:title="CGLObject::addObject">
<polygon fill="white" stroke="black" points="156,-0.5 156,-19.5 272,-19.5 272,-0.5 156,-0.5"/>
<text text-anchor="middle" x="214" y="-7.5" font-family="Helvetica,sans-Serif" font-size="10.00">CGLObject::addObject</text>
</a>
</g>
</g>
<!-- Node1&#45;&gt;Node2 -->
<g id="edge1" class="edge"><title>Node1&#45;&gt;Node2</title>
<path fill="none" stroke="midnightblue" d="M120.202,-10C128.499,-10 137.077,-10 145.513,-10"/>
<polygon fill="midnightblue" stroke="midnightblue" points="145.705,-13.5001 155.705,-10 145.705,-6.5001 145.705,-13.5001"/>
</g>
<!-- Node2&#45;&gt;Node2 -->
<g id="edge3" class="edge"><title>Node2&#45;&gt;Node2</title>
<path fill="none" stroke="midnightblue" d="M191.805,-19.7571C181.008,-28.5653 188.406,-38 214,-38 230.796,-38 239.756,-33.9368 240.879,-28.6539"/>
<polygon fill="midnightblue" stroke="midnightblue" points="243.951,-26.9747 236.195,-19.7571 237.757,-30.2361 243.951,-26.9747"/>
</g>
<!-- Node3 -->
<g id="node3" class="node"><title>Node3</title>
<g id="a_node3"><a xlink:href="$d2/d76/class_c_g_l_object.xhtml#a80d01439776edc9443b47a7a9e5b9e94" xlink:title="CGLObject::isChild">
<polygon fill="white" stroke="black" points="308.5,-0.5 308.5,-19.5 409.5,-19.5 409.5,-0.5 308.5,-0.5"/>
<text text-anchor="middle" x="359" y="-7.5" font-family="Helvetica,sans-Serif" font-size="10.00">CGLObject::isChild</text>
</a>
</g>
</g>
<!-- Node2&#45;&gt;Node3 -->
<g id="edge2" class="edge"><title>Node2&#45;&gt;Node3</title>
<path fill="none" stroke="midnightblue" d="M272.34,-10C280.94,-10 289.826,-10 298.471,-10"/>
<polygon fill="midnightblue" stroke="midnightblue" points="298.478,-13.5001 308.478,-10 298.478,-6.5001 298.478,-13.5001"/>
</g>
</g>
</svg>
