<?xml version="1.0" encoding="UTF-8" standalone="no"?>
<!DOCTYPE svg PUBLIC "-//W3C//DTD SVG 1.1//EN"
 "http://www.w3.org/Graphics/SVG/1.1/DTD/svg11.dtd">
<!-- Generated by graphviz version 2.36.0 (20140111.2315)
 -->
<!-- Title: CGLObject::addObject Pages: 1 -->
<svg width="524pt" height="256pt"
 viewBox="0.00 0.00 524.00 256.00" xmlns="http://www.w3.org/2000/svg" xmlns:xlink="http://www.w3.org/1999/xlink">
<g id="graph0" class="graph" transform="scale(1 1) rotate(0) translate(4 252)">
<title>CGLObject::addObject</title>
<polygon fill="white" stroke="none" points="-4,4 -4,-252 520,-252 520,4 -4,4"/>
<!-- Node1 -->
<g id="node1" class="node"><title>Node1</title>
<polygon fill="#bfbfbf" stroke="black" points="0,-114.5 0,-133.5 116,-133.5 116,-114.5 0,-114.5"/>
<text text-anchor="middle" x="58" y="-121.5" font-family="Helvetica,sans-Serif" font-size="10.00">CGLObject::addObject</text>
</g>
<!-- Node1&#45;&gt;Node1 -->
<g id="edge5" class="edge"><title>Node1&#45;&gt;Node1</title>
<path fill="none" stroke="midnightblue" d="M28.0599,-142.275C28.9135,-147.741 38.8936,-152 58,-152 86.4375,-152 94.6577,-142.565 82.6606,-133.757"/>
<polygon fill="midnightblue" stroke="midnightblue" points="31.0458,-144.101 33.3394,-133.757 25.096,-140.413 31.0458,-144.101"/>
</g>
<!-- Node2 -->
<g id="node2" class="node"><title>Node2</title>
<g id="a_node2"><a xlink:href="$d2/d76/class_c_g_l_object.xhtml#add00987cd4a5ee06cc4436766392434b" xlink:title="CGLObject::CGLObject">
<polygon fill="white" stroke="black" points="159,-228.5 159,-247.5 279,-247.5 279,-228.5 159,-228.5"/>
<text text-anchor="middle" x="219" y="-235.5" font-family="Helvetica,sans-Serif" font-size="10.00">CGLObject::CGLObject</text>
</a>
</g>
</g>
<!-- Node1&#45;&gt;Node2 -->
<g id="edge1" class="edge"><title>Node1&#45;&gt;Node2</title>
<path fill="none" stroke="midnightblue" d="M73.0677,-141.498C89.9458,-161.48 119.996,-193.985 152,-214 161.51,-219.948 172.709,-224.72 183.154,-228.394"/>
<polygon fill="midnightblue" stroke="midnightblue" points="75.7463,-139.245 66.6734,-133.774 70.3541,-143.708 75.7463,-139.245"/>
</g>
<!-- Node4 -->
<g id="node4" class="node"><title>Node4</title>
<g id="a_node4"><a xlink:href="$db/dec/_damier_g_l_8cpp.xhtml#a0ddf1224851353fc92bfbff6f499fa97" xlink:title="main">
<polygon fill="white" stroke="black" points="478,-152.5 478,-171.5 516,-171.5 516,-152.5 478,-152.5"/>
<text text-anchor="middle" x="497" y="-159.5" font-family="Helvetica,sans-Serif" font-size="10.00">main</text>
</a>
</g>
</g>
<!-- Node1&#45;&gt;Node4 -->
<g id="edge12" class="edge"><title>Node1&#45;&gt;Node4</title>
<path fill="none" stroke="midnightblue" d="M108.921,-135.598C122.801,-138.44 137.928,-141.184 152,-143 275.685,-158.963 426.086,-161.527 477.64,-161.929"/>
<polygon fill="midnightblue" stroke="midnightblue" points="109.575,-132.159 99.0681,-133.523 108.132,-139.009 109.575,-132.159"/>
</g>
<!-- Node5 -->
<g id="node5" class="node"><title>Node5</title>
<g id="a_node5"><a xlink:href="$d9/d85/class_c_g_l_scene.xhtml#aa221e551bb267aca47c05cbb3121ccb6" xlink:title="CGLScene::CGLScene">
<polygon fill="white" stroke="black" points="322.5,-190.5 322.5,-209.5 441.5,-209.5 441.5,-190.5 322.5,-190.5"/>
<text text-anchor="middle" x="382" y="-197.5" font-family="Helvetica,sans-Serif" font-size="10.00">CGLScene::CGLScene</text>
</a>
</g>
</g>
<!-- Node1&#45;&gt;Node5 -->
<g id="edge6" class="edge"><title>Node1&#45;&gt;Node5</title>
<path fill="none" stroke="midnightblue" d="M80.6933,-139.494C98.8352,-151.599 125.873,-167.714 152,-176 208.013,-193.765 275.206,-199.042 322.271,-200.314"/>
<polygon fill="midnightblue" stroke="midnightblue" points="82.2984,-136.352 72.0691,-133.593 78.3451,-142.129 82.2984,-136.352"/>
</g>
<!-- Node6 -->
<g id="node6" class="node"><title>Node6</title>
<g id="a_node6"><a xlink:href="$d9/d85/class_c_g_l_scene.xhtml#acb982aaf33d81d1169a0a7844ac2ee6a" xlink:title="CGLScene::addCamera">
<polygon fill="white" stroke="black" points="158.5,-114.5 158.5,-133.5 279.5,-133.5 279.5,-114.5 158.5,-114.5"/>
<text text-anchor="middle" x="219" y="-121.5" font-family="Helvetica,sans-Serif" font-size="10.00">CGLScene::addCamera</text>
</a>
</g>
</g>
<!-- Node1&#45;&gt;Node6 -->
<g id="edge7" class="edge"><title>Node1&#45;&gt;Node6</title>
<path fill="none" stroke="midnightblue" d="M126.431,-124C137.01,-124 147.881,-124 158.271,-124"/>
<polygon fill="midnightblue" stroke="midnightblue" points="126.403,-120.5 116.403,-124 126.403,-127.5 126.403,-120.5"/>
</g>
<!-- Node7 -->
<g id="node7" class="node"><title>Node7</title>
<g id="a_node7"><a xlink:href="$d9/d85/class_c_g_l_scene.xhtml#aca6d85a7e345751c7fa58ca68bde3ea2" xlink:title="CGLScene::addItem">
<polygon fill="white" stroke="black" points="329,-95.5 329,-114.5 435,-114.5 435,-95.5 329,-95.5"/>
<text text-anchor="middle" x="382" y="-102.5" font-family="Helvetica,sans-Serif" font-size="10.00">CGLScene::addItem</text>
</a>
</g>
</g>
<!-- Node1&#45;&gt;Node7 -->
<g id="edge8" class="edge"><title>Node1&#45;&gt;Node7</title>
<path fill="none" stroke="midnightblue" d="M106.925,-112.288C121.325,-109.291 137.223,-106.494 152,-105 212.322,-98.9011 282.039,-100.068 328.552,-102.009"/>
<polygon fill="midnightblue" stroke="midnightblue" points="105.777,-108.956 96.7426,-114.49 107.257,-115.797 105.777,-108.956"/>
</g>
<!-- Node8 -->
<g id="node8" class="node"><title>Node8</title>
<g id="a_node8"><a xlink:href="$dd/d40/class_c_g_l_window.xhtml#a7c63367c68554c8d9fc88ed91da270f8" xlink:title="CGLWindow::CGLWindow">
<polygon fill="white" stroke="black" points="152,-38.5 152,-57.5 286,-57.5 286,-38.5 152,-38.5"/>
<text text-anchor="middle" x="219" y="-45.5" font-family="Helvetica,sans-Serif" font-size="10.00">CGLWindow::CGLWindow</text>
</a>
</g>
</g>
<!-- Node1&#45;&gt;Node8 -->
<g id="edge10" class="edge"><title>Node1&#45;&gt;Node8</title>
<path fill="none" stroke="midnightblue" d="M83.0271,-109.151C101.484,-98.0959 127.827,-83.0659 152,-72 163.751,-66.6206 177.086,-61.5813 188.679,-57.5227"/>
<polygon fill="midnightblue" stroke="midnightblue" points="81.138,-106.204 74.3957,-114.376 84.7629,-112.192 81.138,-106.204"/>
</g>
<!-- Node9 -->
<g id="node9" class="node"><title>Node9</title>
<g id="a_node9"><a xlink:href="$db/da4/class_c_g_l_world.xhtml#ad7d5968c14ea7de0e3be65cdeb588eb1" xlink:title="CGLWorld::CGLWorld">
<polygon fill="white" stroke="black" points="162,-0.5 162,-19.5 276,-19.5 276,-0.5 162,-0.5"/>
<text text-anchor="middle" x="219" y="-7.5" font-family="Helvetica,sans-Serif" font-size="10.00">CGLWorld::CGLWorld</text>
</a>
</g>
</g>
<!-- Node1&#45;&gt;Node9 -->
<g id="edge11" class="edge"><title>Node1&#45;&gt;Node9</title>
<path fill="none" stroke="midnightblue" d="M71.8488,-106.085C88.1328,-84.6651 118.185,-49.1853 152,-29 158.45,-25.1497 165.723,-22.0437 173.022,-19.549"/>
<polygon fill="midnightblue" stroke="midnightblue" points="68.8881,-104.201 65.742,-114.318 74.5105,-108.371 68.8881,-104.201"/>
</g>
<!-- Node3 -->
<g id="node3" class="node"><title>Node3</title>
<g id="a_node3"><a xlink:href="$d2/d76/class_c_g_l_object.xhtml#aa08cbbe873bf264dbb34f233bd21844b" xlink:title="CGLObject::init">
<polygon fill="white" stroke="black" points="340,-228.5 340,-247.5 424,-247.5 424,-228.5 340,-228.5"/>
<text text-anchor="middle" x="382" y="-235.5" font-family="Helvetica,sans-Serif" font-size="10.00">CGLObject::init</text>
</a>
</g>
</g>
<!-- Node2&#45;&gt;Node3 -->
<g id="edge2" class="edge"><title>Node2&#45;&gt;Node3</title>
<path fill="none" stroke="midnightblue" d="M289.062,-238C306.27,-238 324.191,-238 339.591,-238"/>
<polygon fill="midnightblue" stroke="midnightblue" points="289.036,-234.5 279.036,-238 289.036,-241.5 289.036,-234.5"/>
</g>
<!-- Node2&#45;&gt;Node5 -->
<g id="edge4" class="edge"><title>Node2&#45;&gt;Node5</title>
<path fill="none" stroke="midnightblue" d="M270.402,-226.104C293.032,-220.763 319.37,-214.546 340.665,-209.52"/>
<polygon fill="midnightblue" stroke="midnightblue" points="269.556,-222.707 260.627,-228.411 271.164,-229.52 269.556,-222.707"/>
</g>
<!-- Node3&#45;&gt;Node4 -->
<g id="edge3" class="edge"><title>Node3&#45;&gt;Node4</title>
<path fill="none" stroke="midnightblue" d="M431.849,-224.464C435.382,-222.827 438.807,-221.011 442,-219 462.071,-206.361 479.805,-184.571 489.106,-171.908"/>
<polygon fill="midnightblue" stroke="midnightblue" points="430.236,-221.343 422.326,-228.392 432.905,-227.815 430.236,-221.343"/>
</g>
<!-- Node7&#45;&gt;Node4 -->
<g id="edge9" class="edge"><title>Node7&#45;&gt;Node4</title>
<path fill="none" stroke="midnightblue" d="M410.942,-119.095C431.804,-129.618 459.713,-143.696 477.774,-152.806"/>
<polygon fill="midnightblue" stroke="midnightblue" points="412.418,-115.919 401.914,-114.541 409.266,-122.169 412.418,-115.919"/>
</g>
</g>
</svg>
