<?xml version="1.0" encoding="UTF-8" standalone="no"?>
<!DOCTYPE svg PUBLIC "-//W3C//DTD SVG 1.1//EN"
 "http://www.w3.org/Graphics/SVG/1.1/DTD/svg11.dtd">
<!-- Generated by graphviz version 2.36.0 (20140111.2315)
 -->
<!-- Title: CGLObject::drawObject Pages: 1 -->
<svg width="418pt" height="66pt"
 viewBox="0.00 0.00 418.00 66.00" xmlns="http://www.w3.org/2000/svg" xmlns:xlink="http://www.w3.org/1999/xlink">
<g id="graph0" class="graph" transform="scale(1 1) rotate(0) translate(4 62)">
<title>CGLObject::drawObject</title>
<polygon fill="white" stroke="none" points="-4,4 -4,-62 414,-62 414,4 -4,4"/>
<!-- Node1 -->
<g id="node1" class="node"><title>Node1</title>
<polygon fill="#bfbfbf" stroke="black" points="0.5,-19.5 0.5,-38.5 121.5,-38.5 121.5,-19.5 0.5,-19.5"/>
<text text-anchor="middle" x="61" y="-26.5" font-family="Helvetica,sans-Serif" font-size="10.00">CGLObject::drawObject</text>
</g>
<!-- Node2 -->
<g id="node2" class="node"><title>Node2</title>
<g id="a_node2"><a xlink:href="$d2/d76/class_c_g_l_object.xhtml#a39c4cde56d18140384842d074407c5c4" xlink:title="CGLObject::draw">
<polygon fill="white" stroke="black" points="158,-19.5 158,-38.5 250,-38.5 250,-19.5 158,-19.5"/>
<text text-anchor="middle" x="204" y="-26.5" font-family="Helvetica,sans-Serif" font-size="10.00">CGLObject::draw</text>
</a>
</g>
</g>
<!-- Node1&#45;&gt;Node2 -->
<g id="edge1" class="edge"><title>Node1&#45;&gt;Node2</title>
<path fill="none" stroke="midnightblue" d="M131.998,-29C140.72,-29 149.451,-29 157.659,-29"/>
<polygon fill="midnightblue" stroke="midnightblue" points="131.797,-25.5001 121.797,-29 131.797,-32.5001 131.797,-25.5001"/>
</g>
<!-- Node3 -->
<g id="node3" class="node"><title>Node3</title>
<g id="a_node3"><a xlink:href="$d8/dbf/class_c_g_l_robot1.xhtml#a050d7fea4097a6634ef5feef26ae7865" xlink:title="CGLRobot1::drawObject">
<polygon fill="white" stroke="black" points="286,-38.5 286,-57.5 410,-57.5 410,-38.5 286,-38.5"/>
<text text-anchor="middle" x="348" y="-45.5" font-family="Helvetica,sans-Serif" font-size="10.00">CGLRobot1::drawObject</text>
</a>
</g>
</g>
<!-- Node2&#45;&gt;Node3 -->
<g id="edge2" class="edge"><title>Node2&#45;&gt;Node3</title>
<path fill="none" stroke="midnightblue" d="M260.321,-36.4021C268.671,-37.5194 277.326,-38.6774 285.792,-39.8101"/>
<polygon fill="midnightblue" stroke="midnightblue" points="260.696,-32.9212 250.32,-35.064 259.768,-39.8593 260.696,-32.9212"/>
</g>
<!-- Node4 -->
<g id="node4" class="node"><title>Node4</title>
<g id="a_node4"><a xlink:href="$d9/d85/class_c_g_l_scene.xhtml#ad6c70504f83937f819d08e76d25f05d0" xlink:title="CGLScene::draw">
<polygon fill="white" stroke="black" points="302,-0.5 302,-19.5 394,-19.5 394,-0.5 302,-0.5"/>
<text text-anchor="middle" x="348" y="-7.5" font-family="Helvetica,sans-Serif" font-size="10.00">CGLScene::draw</text>
</a>
</g>
</g>
<!-- Node2&#45;&gt;Node4 -->
<g id="edge3" class="edge"><title>Node2&#45;&gt;Node4</title>
<path fill="none" stroke="midnightblue" d="M260.537,-21.569C274.147,-19.7479 288.554,-17.8202 301.623,-16.0715"/>
<polygon fill="midnightblue" stroke="midnightblue" points="259.768,-18.1407 250.32,-22.936 260.696,-25.0788 259.768,-18.1407"/>
</g>
</g>
</svg>
