<?xml version="1.0" encoding="UTF-8" standalone="no"?>
<!DOCTYPE svg PUBLIC "-//W3C//DTD SVG 1.1//EN"
 "http://www.w3.org/Graphics/SVG/1.1/DTD/svg11.dtd">
<!-- Generated by graphviz version 2.36.0 (20140111.2315)
 -->
<!-- Title: /home/dagal/git/DamierGL/DamierGL/src/CGL/CGLVector4D.h Pages: 1 -->
<svg width="463pt" height="176pt"
 viewBox="0.00 0.00 463.00 176.00" xmlns="http://www.w3.org/2000/svg" xmlns:xlink="http://www.w3.org/1999/xlink">
<g id="graph0" class="graph" transform="scale(1 1) rotate(0) translate(4 172)">
<title>/home/dagal/git/DamierGL/DamierGL/src/CGL/CGLVector4D.h</title>
<polygon fill="white" stroke="none" points="-4,4 -4,-172 459,-172 459,4 -4,4"/>
<!-- Node1 -->
<g id="node1" class="node"><title>Node1</title>
<polygon fill="#bfbfbf" stroke="black" points="179,-137 179,-167 355,-167 355,-137 179,-137"/>
<text text-anchor="start" x="187" y="-155" font-family="Helvetica,sans-Serif" font-size="10.00">/home/dagal/git/DamierGL</text>
<text text-anchor="middle" x="267" y="-144" font-family="Helvetica,sans-Serif" font-size="10.00">/DamierGL/src/CGL/CGLVector4D.h</text>
</g>
<!-- Node2 -->
<g id="node2" class="node"><title>Node2</title>
<g id="a_node2"><a xlink:href="$da/de7/_c_g_l_color_8h.xhtml" xlink:title="/home/dagal/git/DamierGL\l/DamierGL/src/CGL/CGLColor.h">
<polygon fill="white" stroke="black" points="93,-69 93,-99 251,-99 251,-69 93,-69"/>
<text text-anchor="start" x="101" y="-87" font-family="Helvetica,sans-Serif" font-size="10.00">/home/dagal/git/DamierGL</text>
<text text-anchor="middle" x="172" y="-76" font-family="Helvetica,sans-Serif" font-size="10.00">/DamierGL/src/CGL/CGLColor.h</text>
</a>
</g>
</g>
<!-- Node1&#45;&gt;Node2 -->
<g id="edge1" class="edge"><title>Node1&#45;&gt;Node2</title>
<path fill="none" stroke="midnightblue" d="M238.051,-130.888C223.243,-120.6 205.58,-108.329 192.247,-99.0663"/>
<polygon fill="midnightblue" stroke="midnightblue" points="236.177,-133.848 246.386,-136.679 240.171,-128.099 236.177,-133.848"/>
</g>
<!-- Node5 -->
<g id="node5" class="node"><title>Node5</title>
<g id="a_node5"><a xlink:href="$d1/d00/_c_g_l_vector4_d_8cpp.xhtml" xlink:title="/home/dagal/git/DamierGL\l/DamierGL/src/CGL/CGLVector4D.cpp">
<polygon fill="white" stroke="black" points="268.5,-69 268.5,-99 455.5,-99 455.5,-69 268.5,-69"/>
<text text-anchor="start" x="276.5" y="-87" font-family="Helvetica,sans-Serif" font-size="10.00">/home/dagal/git/DamierGL</text>
<text text-anchor="middle" x="362" y="-76" font-family="Helvetica,sans-Serif" font-size="10.00">/DamierGL/src/CGL/CGLVector4D.cpp</text>
</a>
</g>
</g>
<!-- Node1&#45;&gt;Node5 -->
<g id="edge4" class="edge"><title>Node1&#45;&gt;Node5</title>
<path fill="none" stroke="midnightblue" d="M295.949,-130.888C310.757,-120.6 328.42,-108.329 341.753,-99.0663"/>
<polygon fill="midnightblue" stroke="midnightblue" points="293.829,-128.099 287.614,-136.679 297.823,-133.848 293.829,-128.099"/>
</g>
<!-- Node3 -->
<g id="node3" class="node"><title>Node3</title>
<g id="a_node3"><a xlink:href="$da/d19/_c_g_l_color_8cpp.xhtml" xlink:title="/home/dagal/git/DamierGL\l/DamierGL/src/CGL/CGLColor.cpp">
<polygon fill="white" stroke="black" points="-0.5,-1 -0.5,-31 168.5,-31 168.5,-1 -0.5,-1"/>
<text text-anchor="start" x="7.5" y="-19" font-family="Helvetica,sans-Serif" font-size="10.00">/home/dagal/git/DamierGL</text>
<text text-anchor="middle" x="84" y="-8" font-family="Helvetica,sans-Serif" font-size="10.00">/DamierGL/src/CGL/CGLColor.cpp</text>
</a>
</g>
</g>
<!-- Node2&#45;&gt;Node3 -->
<g id="edge2" class="edge"><title>Node2&#45;&gt;Node3</title>
<path fill="none" stroke="midnightblue" d="M144.799,-62.5994C131.162,-52.3712 114.99,-40.2428 102.755,-31.0663"/>
<polygon fill="midnightblue" stroke="midnightblue" points="142.805,-65.479 152.905,-68.679 147.005,-59.8789 142.805,-65.479"/>
</g>
<!-- Node4 -->
<g id="node4" class="node"><title>Node4</title>
<g id="a_node4"><a xlink:href="$db/dec/_damier_g_l_8cpp.xhtml" xlink:title="/home/dagal/git/DamierGL\l/DamierGL/src/DamierGL.cpp">
<polygon fill="white" stroke="black" points="187,-1 187,-31 333,-31 333,-1 187,-1"/>
<text text-anchor="start" x="195" y="-19" font-family="Helvetica,sans-Serif" font-size="10.00">/home/dagal/git/DamierGL</text>
<text text-anchor="middle" x="260" y="-8" font-family="Helvetica,sans-Serif" font-size="10.00">/DamierGL/src/DamierGL.cpp</text>
</a>
</g>
</g>
<!-- Node2&#45;&gt;Node4 -->
<g id="edge3" class="edge"><title>Node2&#45;&gt;Node4</title>
<path fill="none" stroke="midnightblue" d="M199.201,-62.5994C212.838,-52.3712 229.01,-40.2428 241.245,-31.0663"/>
<polygon fill="midnightblue" stroke="midnightblue" points="196.995,-59.8789 191.095,-68.679 201.195,-65.479 196.995,-59.8789"/>
</g>
</g>
</svg>
