<?xml version="1.0" encoding="UTF-8" standalone="no"?>
<!DOCTYPE svg PUBLIC "-//W3C//DTD SVG 1.1//EN"
 "http://www.w3.org/Graphics/SVG/1.1/DTD/svg11.dtd">
<!-- Generated by graphviz version 2.36.0 (20140111.2315)
 -->
<!-- Title: CGLPosition Pages: 1 -->
<svg width="313pt" height="544pt"
 viewBox="0.00 0.00 313.00 544.00" xmlns="http://www.w3.org/2000/svg" xmlns:xlink="http://www.w3.org/1999/xlink">
<g id="graph0" class="graph" transform="scale(1 1) rotate(0) translate(4 540)">
<title>CGLPosition</title>
<polygon fill="white" stroke="none" points="-4,4 -4,-540 309,-540 309,4 -4,4"/>
<!-- Node1 -->
<g id="node1" class="node"><title>Node1</title>
<polygon fill="#bfbfbf" stroke="black" points="164.5,-0.5 164.5,-101.5 257.5,-101.5 257.5,-0.5 164.5,-0.5"/>
<text text-anchor="middle" x="211" y="-89.5" font-family="Helvetica,sans-Serif" font-size="10.00">CGLPosition</text>
<polyline fill="none" stroke="black" points="164.5,-82.5 257.5,-82.5 "/>
<text text-anchor="middle" x="211" y="-70.5" font-family="Helvetica,sans-Serif" font-size="10.00"> </text>
<polyline fill="none" stroke="black" points="164.5,-63.5 257.5,-63.5 "/>
<text text-anchor="start" x="172.5" y="-51.5" font-family="Helvetica,sans-Serif" font-size="10.00">+ CGLPosition()</text>
<text text-anchor="start" x="172.5" y="-40.5" font-family="Helvetica,sans-Serif" font-size="10.00">+ ~CGLPosition()</text>
<text text-anchor="start" x="172.5" y="-29.5" font-family="Helvetica,sans-Serif" font-size="10.00">+ drawObject()</text>
<text text-anchor="start" x="172.5" y="-18.5" font-family="Helvetica,sans-Serif" font-size="10.00">+ setSpeed()</text>
<text text-anchor="start" x="172.5" y="-7.5" font-family="Helvetica,sans-Serif" font-size="10.00">+ setAccel()</text>
</g>
<!-- Node2 -->
<g id="node2" class="node"><title>Node2</title>
<g id="a_node2"><a xlink:href="../../dc/d8a/class_c_g_l_effect.xhtml" target="_top" xlink:title="{CGLEffect\n||+ CGLEffect()\l+ ~CGLEffect()\l}">
<polygon fill="white" stroke="black" points="46,-183 46,-251 130,-251 130,-183 46,-183"/>
<text text-anchor="middle" x="88" y="-239" font-family="Helvetica,sans-Serif" font-size="10.00">CGLEffect</text>
<polyline fill="none" stroke="black" points="46,-232 130,-232 "/>
<text text-anchor="middle" x="88" y="-220" font-family="Helvetica,sans-Serif" font-size="10.00"> </text>
<polyline fill="none" stroke="black" points="46,-213 130,-213 "/>
<text text-anchor="start" x="54" y="-201" font-family="Helvetica,sans-Serif" font-size="10.00">+ CGLEffect()</text>
<text text-anchor="start" x="54" y="-190" font-family="Helvetica,sans-Serif" font-size="10.00">+ ~CGLEffect()</text>
</a>
</g>
</g>
<!-- Node2&#45;&gt;Node1 -->
<g id="edge1" class="edge"><title>Node2&#45;&gt;Node1</title>
<path fill="none" stroke="midnightblue" d="M119.055,-174.593C135.685,-152.421 156.286,-124.952 173.77,-101.64"/>
<polygon fill="none" stroke="midnightblue" points="116.091,-172.712 112.891,-182.812 121.691,-176.912 116.091,-172.712"/>
</g>
<!-- Node3 -->
<g id="node3" class="node"><title>Node3</title>
<g id="a_node3"><a xlink:href="../../d2/d76/class_c_g_l_object.xhtml" target="_top" xlink:title="{CGLObject\n|# objectType\l# name\l# matrixSaved\l# children\l# iterCurrentObject\l|+ addObject()\l+ setName()\l+ getName()\l+ getCurrentObject()\l+ isChild()\l+ draw()\l+ drawObject()\l+ drawChildren()\l+ drawCenter()\l+ CGLObject()\l+ ~CGLObject()\l+ init()\l}">
<polygon fill="white" stroke="black" points="0,-313 0,-535 106,-535 106,-313 0,-313"/>
<text text-anchor="middle" x="53" y="-523" font-family="Helvetica,sans-Serif" font-size="10.00">CGLObject</text>
<polyline fill="none" stroke="black" points="0,-516 106,-516 "/>
<text text-anchor="start" x="8" y="-504" font-family="Helvetica,sans-Serif" font-size="10.00"># objectType</text>
<text text-anchor="start" x="8" y="-493" font-family="Helvetica,sans-Serif" font-size="10.00"># name</text>
<text text-anchor="start" x="8" y="-482" font-family="Helvetica,sans-Serif" font-size="10.00"># matrixSaved</text>
<text text-anchor="start" x="8" y="-471" font-family="Helvetica,sans-Serif" font-size="10.00"># children</text>
<text text-anchor="start" x="8" y="-460" font-family="Helvetica,sans-Serif" font-size="10.00"># iterCurrentObject</text>
<polyline fill="none" stroke="black" points="0,-453 106,-453 "/>
<text text-anchor="start" x="8" y="-441" font-family="Helvetica,sans-Serif" font-size="10.00">+ addObject()</text>
<text text-anchor="start" x="8" y="-430" font-family="Helvetica,sans-Serif" font-size="10.00">+ setName()</text>
<text text-anchor="start" x="8" y="-419" font-family="Helvetica,sans-Serif" font-size="10.00">+ getName()</text>
<text text-anchor="start" x="8" y="-408" font-family="Helvetica,sans-Serif" font-size="10.00">+ getCurrentObject()</text>
<text text-anchor="start" x="8" y="-397" font-family="Helvetica,sans-Serif" font-size="10.00">+ isChild()</text>
<text text-anchor="start" x="8" y="-386" font-family="Helvetica,sans-Serif" font-size="10.00">+ draw()</text>
<text text-anchor="start" x="8" y="-375" font-family="Helvetica,sans-Serif" font-size="10.00">+ drawObject()</text>
<text text-anchor="start" x="8" y="-364" font-family="Helvetica,sans-Serif" font-size="10.00">+ drawChildren()</text>
<text text-anchor="start" x="8" y="-353" font-family="Helvetica,sans-Serif" font-size="10.00">+ drawCenter()</text>
<text text-anchor="start" x="8" y="-342" font-family="Helvetica,sans-Serif" font-size="10.00">+ CGLObject()</text>
<text text-anchor="start" x="8" y="-331" font-family="Helvetica,sans-Serif" font-size="10.00">+ ~CGLObject()</text>
<text text-anchor="start" x="8" y="-320" font-family="Helvetica,sans-Serif" font-size="10.00">+ init()</text>
</a>
</g>
</g>
<!-- Node3&#45;&gt;Node2 -->
<g id="edge2" class="edge"><title>Node3&#45;&gt;Node2</title>
<path fill="none" stroke="midnightblue" d="M73.4914,-302.979C76.7428,-283.935 79.8521,-265.723 82.3525,-251.078"/>
<polygon fill="none" stroke="midnightblue" points="70.0137,-302.552 71.7807,-312.999 76.9138,-303.73 70.0137,-302.552"/>
</g>
<!-- Node3&#45;&gt;Node3 -->
<g id="edge3" class="edge"><title>Node3&#45;&gt;Node3</title>
<path fill="none" stroke="#404040" d="M106.111,-447.124C116.021,-444.276 123,-436.568 123,-424 123,-416.734 120.667,-411.092 116.784,-407.075"/>
<polygon fill="none" stroke="#404040" points="116.488,-406.903 109.291,-407.349 106.111,-400.876 113.309,-400.431 116.488,-406.903"/>
<text text-anchor="middle" x="155" y="-432.5" font-family="Helvetica,sans-Serif" font-size="10.00"> +garbage</text>
<text text-anchor="middle" x="155" y="-421.5" font-family="Helvetica,sans-Serif" font-size="10.00">#currentObject</text>
<text text-anchor="middle" x="155" y="-410.5" font-family="Helvetica,sans-Serif" font-size="10.00">#parentObject</text>
</g>
<!-- Node4 -->
<g id="node4" class="node"><title>Node4</title>
<g id="a_node4"><a xlink:href="../../d6/df9/class_c_g_l_vector3_d.xhtml" target="_top" xlink:title="{CGLVector3D\n|# z\l|+ CGLVector3D()\l+ ~CGLVector3D()\l+ isEqualTo()\l+ getZ()\l+ set()\l+ setZ()\l}">
<polygon fill="white" stroke="black" points="194.5,-161 194.5,-273 293.5,-273 293.5,-161 194.5,-161"/>
<text text-anchor="middle" x="244" y="-261" font-family="Helvetica,sans-Serif" font-size="10.00">CGLVector3D</text>
<polyline fill="none" stroke="black" points="194.5,-254 293.5,-254 "/>
<text text-anchor="start" x="202.5" y="-242" font-family="Helvetica,sans-Serif" font-size="10.00"># z</text>
<polyline fill="none" stroke="black" points="194.5,-235 293.5,-235 "/>
<text text-anchor="start" x="202.5" y="-223" font-family="Helvetica,sans-Serif" font-size="10.00">+ CGLVector3D()</text>
<text text-anchor="start" x="202.5" y="-212" font-family="Helvetica,sans-Serif" font-size="10.00">+ ~CGLVector3D()</text>
<text text-anchor="start" x="202.5" y="-201" font-family="Helvetica,sans-Serif" font-size="10.00">+ isEqualTo()</text>
<text text-anchor="start" x="202.5" y="-190" font-family="Helvetica,sans-Serif" font-size="10.00">+ getZ()</text>
<text text-anchor="start" x="202.5" y="-179" font-family="Helvetica,sans-Serif" font-size="10.00">+ set()</text>
<text text-anchor="start" x="202.5" y="-168" font-family="Helvetica,sans-Serif" font-size="10.00">+ setZ()</text>
</a>
</g>
</g>
<!-- Node4&#45;&gt;Node1 -->
<g id="edge4" class="edge"><title>Node4&#45;&gt;Node1</title>
<path fill="none" stroke="midnightblue" d="M226.939,-151.017C226.259,-147.975 225.608,-144.958 225,-142 222.324,-128.989 219.897,-114.827 217.844,-101.67"/>
<polygon fill="none" stroke="midnightblue" points="223.533,-151.823 229.197,-160.777 230.353,-150.245 223.533,-151.823"/>
</g>
<!-- Node4&#45;&gt;Node1 -->
<g id="edge6" class="edge"><title>Node4&#45;&gt;Node1</title>
<path fill="none" stroke="#404040" d="M232.92,-160.934C229.876,-145.808 226.556,-129.307 223.441,-113.829"/>
<polygon fill="none" stroke="#404040" points="223.364,-113.444 218.259,-108.351 220.997,-101.68 226.102,-106.773 223.364,-113.444"/>
<text text-anchor="middle" x="246.5" y="-134" font-family="Helvetica,sans-Serif" font-size="10.00"> #speed</text>
<text text-anchor="middle" x="246.5" y="-123" font-family="Helvetica,sans-Serif" font-size="10.00">#accel</text>
</g>
<!-- Node5 -->
<g id="node5" class="node"><title>Node5</title>
<g id="a_node5"><a xlink:href="../../d8/d97/class_c_g_l_vector2_d.xhtml" target="_top" xlink:title="{CGLVector2D\n||+ CGLVector2D()\l+ ~CGLVector2D()\l+ getMaxX()\l+ getMaxY()\l+ getMinX()\l+ getMinY()\l+ getX()\l+ getY()\l+ isXMax()\l+ isYMax()\let 11 de plus...\l}">
<polygon fill="white" stroke="black" points="206.5,-340.5 206.5,-507.5 305.5,-507.5 305.5,-340.5 206.5,-340.5"/>
<text text-anchor="middle" x="256" y="-495.5" font-family="Helvetica,sans-Serif" font-size="10.00">CGLVector2D</text>
<polyline fill="none" stroke="black" points="206.5,-488.5 305.5,-488.5 "/>
<text text-anchor="middle" x="256" y="-476.5" font-family="Helvetica,sans-Serif" font-size="10.00"> </text>
<polyline fill="none" stroke="black" points="206.5,-469.5 305.5,-469.5 "/>
<text text-anchor="start" x="214.5" y="-457.5" font-family="Helvetica,sans-Serif" font-size="10.00">+ CGLVector2D()</text>
<text text-anchor="start" x="214.5" y="-446.5" font-family="Helvetica,sans-Serif" font-size="10.00">+ ~CGLVector2D()</text>
<text text-anchor="start" x="214.5" y="-435.5" font-family="Helvetica,sans-Serif" font-size="10.00">+ getMaxX()</text>
<text text-anchor="start" x="214.5" y="-424.5" font-family="Helvetica,sans-Serif" font-size="10.00">+ getMaxY()</text>
<text text-anchor="start" x="214.5" y="-413.5" font-family="Helvetica,sans-Serif" font-size="10.00">+ getMinX()</text>
<text text-anchor="start" x="214.5" y="-402.5" font-family="Helvetica,sans-Serif" font-size="10.00">+ getMinY()</text>
<text text-anchor="start" x="214.5" y="-391.5" font-family="Helvetica,sans-Serif" font-size="10.00">+ getX()</text>
<text text-anchor="start" x="214.5" y="-380.5" font-family="Helvetica,sans-Serif" font-size="10.00">+ getY()</text>
<text text-anchor="start" x="214.5" y="-369.5" font-family="Helvetica,sans-Serif" font-size="10.00">+ isXMax()</text>
<text text-anchor="start" x="214.5" y="-358.5" font-family="Helvetica,sans-Serif" font-size="10.00">+ isYMax()</text>
<text text-anchor="start" x="214.5" y="-347.5" font-family="Helvetica,sans-Serif" font-size="10.00">et 11 de plus...</text>
</a>
</g>
</g>
<!-- Node5&#45;&gt;Node4 -->
<g id="edge5" class="edge"><title>Node5&#45;&gt;Node4</title>
<path fill="none" stroke="midnightblue" d="M250.561,-330.092C249.422,-310.634 248.256,-290.711 247.229,-273.161"/>
<polygon fill="none" stroke="midnightblue" points="247.075,-330.431 251.154,-340.21 254.063,-330.022 247.075,-330.431"/>
</g>
</g>
</svg>
