<?xml version="1.0" encoding="UTF-8" standalone="no"?>
<!DOCTYPE svg PUBLIC "-//W3C//DTD SVG 1.1//EN"
 "http://www.w3.org/Graphics/SVG/1.1/DTD/svg11.dtd">
<!-- Generated by graphviz version 2.36.0 (20140111.2315)
 -->
<!-- Title: CGLWindow::CGLWindow Pages: 1 -->
<svg width="432pt" height="46pt"
 viewBox="0.00 0.00 432.00 46.00" xmlns="http://www.w3.org/2000/svg" xmlns:xlink="http://www.w3.org/1999/xlink">
<g id="graph0" class="graph" transform="scale(1 1) rotate(0) translate(4 42)">
<title>CGLWindow::CGLWindow</title>
<polygon fill="white" stroke="none" points="-4,4 -4,-42 428,-42 428,4 -4,4"/>
<!-- Node1 -->
<g id="node1" class="node"><title>Node1</title>
<polygon fill="#bfbfbf" stroke="black" points="0,-0.5 0,-19.5 134,-19.5 134,-0.5 0,-0.5"/>
<text text-anchor="middle" x="67" y="-7.5" font-family="Helvetica,sans-Serif" font-size="10.00">CGLWindow::CGLWindow</text>
</g>
<!-- Node2 -->
<g id="node2" class="node"><title>Node2</title>
<g id="a_node2"><a xlink:href="../../d2/d76/class_c_g_l_object.xhtml#a83b8918905a5449c94e4447791b61abd" target="_top" xlink:title="CGLObject::addObject">
<polygon fill="white" stroke="black" points="170,-0.5 170,-19.5 286,-19.5 286,-0.5 170,-0.5"/>
<text text-anchor="middle" x="228" y="-7.5" font-family="Helvetica,sans-Serif" font-size="10.00">CGLObject::addObject</text>
</a>
</g>
</g>
<!-- Node1&#45;&gt;Node2 -->
<g id="edge1" class="edge"><title>Node1&#45;&gt;Node2</title>
<path fill="none" stroke="midnightblue" d="M134.049,-10C142.481,-10 151.12,-10 159.573,-10"/>
<polygon fill="midnightblue" stroke="midnightblue" points="159.765,-13.5001 169.765,-10 159.765,-6.5001 159.765,-13.5001"/>
</g>
<!-- Node2&#45;&gt;Node2 -->
<g id="edge3" class="edge"><title>Node2&#45;&gt;Node2</title>
<path fill="none" stroke="midnightblue" d="M205.805,-19.7571C195.008,-28.5653 202.406,-38 228,-38 244.796,-38 253.756,-33.9368 254.879,-28.6539"/>
<polygon fill="midnightblue" stroke="midnightblue" points="257.951,-26.9747 250.195,-19.7571 251.757,-30.2361 257.951,-26.9747"/>
</g>
<!-- Node3 -->
<g id="node3" class="node"><title>Node3</title>
<g id="a_node3"><a xlink:href="../../d2/d76/class_c_g_l_object.xhtml#a80d01439776edc9443b47a7a9e5b9e94" target="_top" xlink:title="CGLObject::isChild">
<polygon fill="white" stroke="black" points="322.5,-0.5 322.5,-19.5 423.5,-19.5 423.5,-0.5 322.5,-0.5"/>
<text text-anchor="middle" x="373" y="-7.5" font-family="Helvetica,sans-Serif" font-size="10.00">CGLObject::isChild</text>
</a>
</g>
</g>
<!-- Node2&#45;&gt;Node3 -->
<g id="edge2" class="edge"><title>Node2&#45;&gt;Node3</title>
<path fill="none" stroke="midnightblue" d="M286.34,-10C294.94,-10 303.826,-10 312.471,-10"/>
<polygon fill="midnightblue" stroke="midnightblue" points="312.478,-13.5001 322.478,-10 312.478,-6.5001 312.478,-13.5001"/>
</g>
</g>
</svg>
