<?xml version="1.0" encoding="UTF-8" standalone="no"?>
<!DOCTYPE svg PUBLIC "-//W3C//DTD SVG 1.1//EN"
 "http://www.w3.org/Graphics/SVG/1.1/DTD/svg11.dtd">
<!-- Generated by graphviz version 2.36.0 (20140111.2315)
 -->
<!-- Title: CGLWindow::draw Pages: 1 -->
<svg width="294pt" height="66pt"
 viewBox="0.00 0.00 294.00 66.00" xmlns="http://www.w3.org/2000/svg" xmlns:xlink="http://www.w3.org/1999/xlink">
<g id="graph0" class="graph" transform="scale(1 1) rotate(0) translate(4 62)">
<title>CGLWindow::draw</title>
<polygon fill="white" stroke="none" points="-4,4 -4,-62 290,-62 290,4 -4,4"/>
<!-- Node1 -->
<g id="node1" class="node"><title>Node1</title>
<polygon fill="#bfbfbf" stroke="black" points="0.5,-19.5 0.5,-38.5 99.5,-38.5 99.5,-19.5 0.5,-19.5"/>
<text text-anchor="middle" x="50" y="-26.5" font-family="Helvetica,sans-Serif" font-size="10.00">CGLWindow::draw</text>
</g>
<!-- Node2 -->
<g id="node2" class="node"><title>Node2</title>
<g id="a_node2"><a xlink:href="../../dd/d40/class_c_g_l_window.xhtml#a8875c26fc11c333f7bbf2b517a2befd0" target="_top" xlink:title="CGLWindow::getCurrentWorld">
<polygon fill="white" stroke="black" points="136.5,-38.5 136.5,-57.5 285.5,-57.5 285.5,-38.5 136.5,-38.5"/>
<text text-anchor="middle" x="211" y="-45.5" font-family="Helvetica,sans-Serif" font-size="10.00">CGLWindow::getCurrentWorld</text>
</a>
</g>
</g>
<!-- Node1&#45;&gt;Node2 -->
<g id="edge1" class="edge"><title>Node1&#45;&gt;Node2</title>
<path fill="none" stroke="midnightblue" d="M99.5692,-34.8039C108.087,-35.8217 117.166,-36.9066 126.318,-38.0003"/>
<polygon fill="midnightblue" stroke="midnightblue" points="125.912,-41.4765 136.256,-39.1879 126.742,-34.526 125.912,-41.4765"/>
</g>
<!-- Node3 -->
<g id="node3" class="node"><title>Node3</title>
<g id="a_node3"><a xlink:href="../../db/da4/class_c_g_l_world.xhtml#a7dd174b6096cb7c798f7b4518e4842dc" target="_top" xlink:title="CGLWorld::draw">
<polygon fill="white" stroke="black" points="166.5,-0.5 166.5,-19.5 255.5,-19.5 255.5,-0.5 166.5,-0.5"/>
<text text-anchor="middle" x="211" y="-7.5" font-family="Helvetica,sans-Serif" font-size="10.00">CGLWorld::draw</text>
</a>
</g>
</g>
<!-- Node1&#45;&gt;Node3 -->
<g id="edge2" class="edge"><title>Node1&#45;&gt;Node3</title>
<path fill="none" stroke="midnightblue" d="M99.5692,-23.1961C117.523,-21.0507 137.971,-18.6072 156.35,-16.411"/>
<polygon fill="midnightblue" stroke="midnightblue" points="156.805,-19.8816 166.319,-15.2197 155.975,-12.9311 156.805,-19.8816"/>
</g>
</g>
</svg>
