<?xml version="1.0" encoding="UTF-8" standalone="no"?>
<!DOCTYPE svg PUBLIC "-//W3C//DTD SVG 1.1//EN"
 "http://www.w3.org/Graphics/SVG/1.1/DTD/svg11.dtd">
<!-- Generated by graphviz version 2.36.0 (20140111.2315)
 -->
<!-- Title: CGLWindow::exec Pages: 1 -->
<svg width="614pt" height="218pt"
 viewBox="0.00 0.00 614.00 218.00" xmlns="http://www.w3.org/2000/svg" xmlns:xlink="http://www.w3.org/1999/xlink">
<g id="graph0" class="graph" transform="scale(1 1) rotate(0) translate(4 214)">
<title>CGLWindow::exec</title>
<polygon fill="white" stroke="none" points="-4,4 -4,-214 610,-214 610,4 -4,4"/>
<!-- Node1 -->
<g id="node1" class="node"><title>Node1</title>
<polygon fill="#bfbfbf" stroke="black" points="0.5,-95.5 0.5,-114.5 99.5,-114.5 99.5,-95.5 0.5,-95.5"/>
<text text-anchor="middle" x="50" y="-102.5" font-family="Helvetica,sans-Serif" font-size="10.00">CGLWindow::exec</text>
</g>
<!-- Node2 -->
<g id="node2" class="node"><title>Node2</title>
<g id="a_node2"><a xlink:href="../../dd/d40/class_c_g_l_window.xhtml#a87ea72d63fe563266178e72a19722e5d" target="_top" xlink:title="CGLWindow::loop">
<polygon fill="white" stroke="black" points="136,-95.5 136,-114.5 232,-114.5 232,-95.5 136,-95.5"/>
<text text-anchor="middle" x="184" y="-102.5" font-family="Helvetica,sans-Serif" font-size="10.00">CGLWindow::loop</text>
</a>
</g>
</g>
<!-- Node1&#45;&gt;Node2 -->
<g id="edge1" class="edge"><title>Node1&#45;&gt;Node2</title>
<path fill="none" stroke="midnightblue" d="M99.7769,-105C108.223,-105 117.073,-105 125.72,-105"/>
<polygon fill="midnightblue" stroke="midnightblue" points="125.741,-108.5 135.741,-105 125.741,-101.5 125.741,-108.5"/>
</g>
<!-- Node3 -->
<g id="node3" class="node"><title>Node3</title>
<g id="a_node3"><a xlink:href="../../dd/d40/class_c_g_l_window.xhtml#a8875c26fc11c333f7bbf2b517a2befd0" target="_top" xlink:title="CGLWindow::getCurrentWorld">
<polygon fill="white" stroke="black" points="456.5,-76.5 456.5,-95.5 605.5,-95.5 605.5,-76.5 456.5,-76.5"/>
<text text-anchor="middle" x="531" y="-83.5" font-family="Helvetica,sans-Serif" font-size="10.00">CGLWindow::getCurrentWorld</text>
</a>
</g>
</g>
<!-- Node2&#45;&gt;Node3 -->
<g id="edge2" class="edge"><title>Node2&#45;&gt;Node3</title>
<path fill="none" stroke="midnightblue" d="M232.363,-107.369C279.896,-109.19 355.164,-110.558 420,-105 438.078,-103.45 457.646,-100.493 475.196,-97.3644"/>
<polygon fill="midnightblue" stroke="midnightblue" points="476.067,-100.763 485.269,-95.5121 474.801,-93.8784 476.067,-100.763"/>
</g>
<!-- Node4 -->
<g id="node4" class="node"><title>Node4</title>
<g id="a_node4"><a xlink:href="../../db/da4/class_c_g_l_world.xhtml#a266821b98f90eae32b670ff4def8b948" target="_top" xlink:title="CGLWorld::getCurrentScene">
<polygon fill="white" stroke="black" points="273,-152.5 273,-171.5 415,-171.5 415,-152.5 273,-152.5"/>
<text text-anchor="middle" x="344" y="-159.5" font-family="Helvetica,sans-Serif" font-size="10.00">CGLWorld::getCurrentScene</text>
</a>
</g>
</g>
<!-- Node2&#45;&gt;Node4 -->
<g id="edge3" class="edge"><title>Node2&#45;&gt;Node4</title>
<path fill="none" stroke="midnightblue" d="M207.739,-114.53C224.328,-121.363 247.417,-130.625 268,-138 278.839,-141.884 290.663,-145.81 301.652,-149.33"/>
<polygon fill="midnightblue" stroke="midnightblue" points="300.866,-152.752 311.456,-152.435 302.98,-146.079 300.866,-152.752"/>
</g>
<!-- Node5 -->
<g id="node5" class="node"><title>Node5</title>
<g id="a_node5"><a xlink:href="../../d9/d85/class_c_g_l_scene.xhtml#afa2e2794f2f8c6b80b293703e411f7fe" target="_top" xlink:title="CGLScene::getCurrentCamera">
<polygon fill="white" stroke="black" points="268.5,-190.5 268.5,-209.5 419.5,-209.5 419.5,-190.5 268.5,-190.5"/>
<text text-anchor="middle" x="344" y="-197.5" font-family="Helvetica,sans-Serif" font-size="10.00">CGLScene::getCurrentCamera</text>
</a>
</g>
</g>
<!-- Node2&#45;&gt;Node5 -->
<g id="edge4" class="edge"><title>Node2&#45;&gt;Node5</title>
<path fill="none" stroke="midnightblue" d="M192.615,-114.547C206.064,-130.747 235.673,-163.559 268,-181 272.282,-183.31 276.853,-185.347 281.546,-187.141"/>
<polygon fill="midnightblue" stroke="midnightblue" points="280.703,-190.552 291.298,-190.494 282.979,-183.933 280.703,-190.552"/>
</g>
<!-- Node7 -->
<g id="node7" class="node"><title>Node7</title>
<g id="a_node7"><a xlink:href="../../de/dee/class_c_g_l_camera.xhtml#ad0f4898351c8df558a627102f233ded8" target="_top" xlink:title="CGLCamera::onMouseButton">
<polygon fill="white" stroke="black" points="271,-76.5 271,-95.5 417,-95.5 417,-76.5 271,-76.5"/>
<text text-anchor="middle" x="344" y="-83.5" font-family="Helvetica,sans-Serif" font-size="10.00">CGLCamera::onMouseButton</text>
</a>
</g>
</g>
<!-- Node2&#45;&gt;Node7 -->
<g id="edge6" class="edge"><title>Node2&#45;&gt;Node7</title>
<path fill="none" stroke="midnightblue" d="M232.405,-99.2994C241.378,-98.2204 251.002,-97.0631 260.692,-95.8978"/>
<polygon fill="midnightblue" stroke="midnightblue" points="261.279,-99.3525 270.789,-94.6835 260.443,-92.4026 261.279,-99.3525"/>
</g>
<!-- Node8 -->
<g id="node8" class="node"><title>Node8</title>
<g id="a_node8"><a xlink:href="../../dd/d40/class_c_g_l_window.xhtml#a480062f802f92f94e8b737a96171012c" target="_top" xlink:title="CGLWindow::onResize">
<polygon fill="white" stroke="black" points="284.5,-38.5 284.5,-57.5 403.5,-57.5 403.5,-38.5 284.5,-38.5"/>
<text text-anchor="middle" x="344" y="-45.5" font-family="Helvetica,sans-Serif" font-size="10.00">CGLWindow::onResize</text>
</a>
</g>
</g>
<!-- Node2&#45;&gt;Node8 -->
<g id="edge7" class="edge"><title>Node2&#45;&gt;Node8</title>
<path fill="none" stroke="midnightblue" d="M203.39,-95.4086C219.95,-87.0569 245.13,-75.0572 268,-67 275.047,-64.5172 282.573,-62.2164 290.036,-60.1356"/>
<polygon fill="midnightblue" stroke="midnightblue" points="291.012,-63.4977 299.766,-57.5301 289.201,-56.7359 291.012,-63.4977"/>
</g>
<!-- Node9 -->
<g id="node9" class="node"><title>Node9</title>
<g id="a_node9"><a xlink:href="../../dd/d40/class_c_g_l_window.xhtml#adf4d06d51db7221820cb7f22080d51f2" target="_top" xlink:title="CGLWindow::draw">
<polygon fill="white" stroke="black" points="294.5,-0.5 294.5,-19.5 393.5,-19.5 393.5,-0.5 294.5,-0.5"/>
<text text-anchor="middle" x="344" y="-7.5" font-family="Helvetica,sans-Serif" font-size="10.00">CGLWindow::draw</text>
</a>
</g>
</g>
<!-- Node2&#45;&gt;Node9 -->
<g id="edge8" class="edge"><title>Node2&#45;&gt;Node9</title>
<path fill="none" stroke="midnightblue" d="M192.615,-95.4535C206.064,-79.2527 235.673,-46.4408 268,-29 273.225,-26.1808 278.882,-23.7687 284.666,-21.7072"/>
<polygon fill="midnightblue" stroke="midnightblue" points="286.015,-24.9499 294.466,-18.5587 283.874,-18.2854 286.015,-24.9499"/>
</g>
<!-- Node6 -->
<g id="node6" class="node"><title>Node6</title>
<g id="a_node6"><a xlink:href="../../d2/d76/class_c_g_l_object.xhtml#a17159bf8a16301adca577be4311806d1" target="_top" xlink:title="CGLObject::getCurrentObject">
<polygon fill="white" stroke="black" points="458,-190.5 458,-209.5 604,-209.5 604,-190.5 458,-190.5"/>
<text text-anchor="middle" x="531" y="-197.5" font-family="Helvetica,sans-Serif" font-size="10.00">CGLObject::getCurrentObject</text>
</a>
</g>
</g>
<!-- Node5&#45;&gt;Node6 -->
<g id="edge5" class="edge"><title>Node5&#45;&gt;Node6</title>
<path fill="none" stroke="midnightblue" d="M419.713,-200C428.919,-200 438.369,-200 447.679,-200"/>
<polygon fill="midnightblue" stroke="midnightblue" points="447.709,-203.5 457.709,-200 447.709,-196.5 447.709,-203.5"/>
</g>
<!-- Node9&#45;&gt;Node3 -->
<g id="edge9" class="edge"><title>Node9&#45;&gt;Node3</title>
<path fill="none" stroke="midnightblue" d="M389.941,-19.593C399.97,-22.2267 410.457,-25.3742 420,-29 450.475,-40.579 483.424,-58.4281 505.234,-71.0636"/>
<polygon fill="midnightblue" stroke="midnightblue" points="503.745,-74.248 514.141,-76.2933 507.289,-68.2117 503.745,-74.248"/>
</g>
<!-- Node10 -->
<g id="node10" class="node"><title>Node10</title>
<g id="a_node10"><a xlink:href="../../db/da4/class_c_g_l_world.xhtml#a7dd174b6096cb7c798f7b4518e4842dc" target="_top" xlink:title="CGLWorld::draw">
<polygon fill="white" stroke="black" points="486.5,-0.5 486.5,-19.5 575.5,-19.5 575.5,-0.5 486.5,-0.5"/>
<text text-anchor="middle" x="531" y="-7.5" font-family="Helvetica,sans-Serif" font-size="10.00">CGLWorld::draw</text>
</a>
</g>
</g>
<!-- Node9&#45;&gt;Node10 -->
<g id="edge10" class="edge"><title>Node9&#45;&gt;Node10</title>
<path fill="none" stroke="midnightblue" d="M393.607,-10C419.03,-10 450.212,-10 476.341,-10"/>
<polygon fill="midnightblue" stroke="midnightblue" points="476.454,-13.5001 486.454,-10 476.454,-6.5001 476.454,-13.5001"/>
</g>
</g>
</svg>
