<?xml version="1.0" encoding="UTF-8" standalone="no"?>
<!DOCTYPE svg PUBLIC "-//W3C//DTD SVG 1.1//EN"
 "http://www.w3.org/Graphics/SVG/1.1/DTD/svg11.dtd">
<!-- Generated by graphviz version 2.36.0 (20140111.2315)
 -->
<!-- Title: CGLRotationSpeed Pages: 1 -->
<svg width="313pt" height="654pt"
 viewBox="0.00 0.00 313.00 654.00" xmlns="http://www.w3.org/2000/svg" xmlns:xlink="http://www.w3.org/1999/xlink">
<g id="graph0" class="graph" transform="scale(1 1) rotate(0) translate(4 650)">
<title>CGLRotationSpeed</title>
<polygon fill="white" stroke="none" points="-4,4 -4,-650 309,-650 309,4 -4,4"/>
<!-- Node1 -->
<g id="node1" class="node"><title>Node1</title>
<polygon fill="#bfbfbf" stroke="black" points="121,-0.5 121,-79.5 243,-79.5 243,-0.5 121,-0.5"/>
<text text-anchor="middle" x="182" y="-67.5" font-family="Helvetica,sans-Serif" font-size="10.00">CGLRotationSpeed</text>
<polyline fill="none" stroke="black" points="121,-60.5 243,-60.5 "/>
<text text-anchor="start" x="129" y="-48.5" font-family="Helvetica,sans-Serif" font-size="10.00"># speed</text>
<polyline fill="none" stroke="black" points="121,-41.5 243,-41.5 "/>
<text text-anchor="start" x="129" y="-29.5" font-family="Helvetica,sans-Serif" font-size="10.00">+ CGLRotationSpeed()</text>
<text text-anchor="start" x="129" y="-18.5" font-family="Helvetica,sans-Serif" font-size="10.00">+ ~CGLRotationSpeed()</text>
<text text-anchor="start" x="129" y="-7.5" font-family="Helvetica,sans-Serif" font-size="10.00">+ drawObject()</text>
</g>
<!-- Node2 -->
<g id="node2" class="node"><title>Node2</title>
<g id="a_node2"><a xlink:href="../../d4/dd5/class_c_g_l_rotation.xhtml" target="_top" xlink:title="{CGLRotation\n|# a\l|+ CGLRotation()\l+ ~CGLRotation()\l+ setA()\l+ getA()\l+ set()\l+ drawObject()\l}">
<polygon fill="white" stroke="black" points="134.5,-119 134.5,-231 229.5,-231 229.5,-119 134.5,-119"/>
<text text-anchor="middle" x="182" y="-219" font-family="Helvetica,sans-Serif" font-size="10.00">CGLRotation</text>
<polyline fill="none" stroke="black" points="134.5,-212 229.5,-212 "/>
<text text-anchor="start" x="142.5" y="-200" font-family="Helvetica,sans-Serif" font-size="10.00"># a</text>
<polyline fill="none" stroke="black" points="134.5,-193 229.5,-193 "/>
<text text-anchor="start" x="142.5" y="-181" font-family="Helvetica,sans-Serif" font-size="10.00">+ CGLRotation()</text>
<text text-anchor="start" x="142.5" y="-170" font-family="Helvetica,sans-Serif" font-size="10.00">+ ~CGLRotation()</text>
<text text-anchor="start" x="142.5" y="-159" font-family="Helvetica,sans-Serif" font-size="10.00">+ setA()</text>
<text text-anchor="start" x="142.5" y="-148" font-family="Helvetica,sans-Serif" font-size="10.00">+ getA()</text>
<text text-anchor="start" x="142.5" y="-137" font-family="Helvetica,sans-Serif" font-size="10.00">+ set()</text>
<text text-anchor="start" x="142.5" y="-126" font-family="Helvetica,sans-Serif" font-size="10.00">+ drawObject()</text>
</a>
</g>
</g>
<!-- Node2&#45;&gt;Node1 -->
<g id="edge1" class="edge"><title>Node2&#45;&gt;Node1</title>
<path fill="none" stroke="midnightblue" d="M182,-108.511C182,-98.6387 182,-88.7368 182,-79.6757"/>
<polygon fill="none" stroke="midnightblue" points="178.5,-108.751 182,-118.751 185.5,-108.752 178.5,-108.751"/>
</g>
<!-- Node3 -->
<g id="node3" class="node"><title>Node3</title>
<g id="a_node3"><a xlink:href="../../dc/d8a/class_c_g_l_effect.xhtml" target="_top" xlink:title="{CGLEffect\n||+ CGLEffect()\l+ ~CGLEffect()\l}">
<polygon fill="white" stroke="black" points="46,-293 46,-361 130,-361 130,-293 46,-293"/>
<text text-anchor="middle" x="88" y="-349" font-family="Helvetica,sans-Serif" font-size="10.00">CGLEffect</text>
<polyline fill="none" stroke="black" points="46,-342 130,-342 "/>
<text text-anchor="middle" x="88" y="-330" font-family="Helvetica,sans-Serif" font-size="10.00"> </text>
<polyline fill="none" stroke="black" points="46,-323 130,-323 "/>
<text text-anchor="start" x="54" y="-311" font-family="Helvetica,sans-Serif" font-size="10.00">+ CGLEffect()</text>
<text text-anchor="start" x="54" y="-300" font-family="Helvetica,sans-Serif" font-size="10.00">+ ~CGLEffect()</text>
</a>
</g>
</g>
<!-- Node3&#45;&gt;Node2 -->
<g id="edge2" class="edge"><title>Node3&#45;&gt;Node2</title>
<path fill="none" stroke="midnightblue" d="M114.361,-283.935C124.59,-267.611 136.448,-248.69 147.35,-231.292"/>
<polygon fill="none" stroke="midnightblue" points="111.206,-282.378 108.862,-292.71 117.138,-286.095 111.206,-282.378"/>
</g>
<!-- Node4 -->
<g id="node4" class="node"><title>Node4</title>
<g id="a_node4"><a xlink:href="../../d2/d76/class_c_g_l_object.xhtml" target="_top" xlink:title="{CGLObject\n|# objectType\l# name\l# matrixSaved\l# children\l# iterCurrentObject\l|+ addObject()\l+ setName()\l+ getName()\l+ getCurrentObject()\l+ isChild()\l+ draw()\l+ drawObject()\l+ drawChildren()\l+ drawCenter()\l+ CGLObject()\l+ ~CGLObject()\l+ init()\l}">
<polygon fill="white" stroke="black" points="0,-423 0,-645 106,-645 106,-423 0,-423"/>
<text text-anchor="middle" x="53" y="-633" font-family="Helvetica,sans-Serif" font-size="10.00">CGLObject</text>
<polyline fill="none" stroke="black" points="0,-626 106,-626 "/>
<text text-anchor="start" x="8" y="-614" font-family="Helvetica,sans-Serif" font-size="10.00"># objectType</text>
<text text-anchor="start" x="8" y="-603" font-family="Helvetica,sans-Serif" font-size="10.00"># name</text>
<text text-anchor="start" x="8" y="-592" font-family="Helvetica,sans-Serif" font-size="10.00"># matrixSaved</text>
<text text-anchor="start" x="8" y="-581" font-family="Helvetica,sans-Serif" font-size="10.00"># children</text>
<text text-anchor="start" x="8" y="-570" font-family="Helvetica,sans-Serif" font-size="10.00"># iterCurrentObject</text>
<polyline fill="none" stroke="black" points="0,-563 106,-563 "/>
<text text-anchor="start" x="8" y="-551" font-family="Helvetica,sans-Serif" font-size="10.00">+ addObject()</text>
<text text-anchor="start" x="8" y="-540" font-family="Helvetica,sans-Serif" font-size="10.00">+ setName()</text>
<text text-anchor="start" x="8" y="-529" font-family="Helvetica,sans-Serif" font-size="10.00">+ getName()</text>
<text text-anchor="start" x="8" y="-518" font-family="Helvetica,sans-Serif" font-size="10.00">+ getCurrentObject()</text>
<text text-anchor="start" x="8" y="-507" font-family="Helvetica,sans-Serif" font-size="10.00">+ isChild()</text>
<text text-anchor="start" x="8" y="-496" font-family="Helvetica,sans-Serif" font-size="10.00">+ draw()</text>
<text text-anchor="start" x="8" y="-485" font-family="Helvetica,sans-Serif" font-size="10.00">+ drawObject()</text>
<text text-anchor="start" x="8" y="-474" font-family="Helvetica,sans-Serif" font-size="10.00">+ drawChildren()</text>
<text text-anchor="start" x="8" y="-463" font-family="Helvetica,sans-Serif" font-size="10.00">+ drawCenter()</text>
<text text-anchor="start" x="8" y="-452" font-family="Helvetica,sans-Serif" font-size="10.00">+ CGLObject()</text>
<text text-anchor="start" x="8" y="-441" font-family="Helvetica,sans-Serif" font-size="10.00">+ ~CGLObject()</text>
<text text-anchor="start" x="8" y="-430" font-family="Helvetica,sans-Serif" font-size="10.00">+ init()</text>
</a>
</g>
</g>
<!-- Node4&#45;&gt;Node3 -->
<g id="edge3" class="edge"><title>Node4&#45;&gt;Node3</title>
<path fill="none" stroke="midnightblue" d="M73.4914,-412.979C76.7428,-393.935 79.8521,-375.723 82.3525,-361.078"/>
<polygon fill="none" stroke="midnightblue" points="70.0137,-412.552 71.7807,-422.999 76.9138,-413.73 70.0137,-412.552"/>
</g>
<!-- Node4&#45;&gt;Node4 -->
<g id="edge4" class="edge"><title>Node4&#45;&gt;Node4</title>
<path fill="none" stroke="#404040" d="M106.111,-557.124C116.021,-554.276 123,-546.568 123,-534 123,-526.734 120.667,-521.092 116.784,-517.075"/>
<polygon fill="none" stroke="#404040" points="116.488,-516.903 109.291,-517.349 106.111,-510.876 113.309,-510.431 116.488,-516.903"/>
<text text-anchor="middle" x="155" y="-542.5" font-family="Helvetica,sans-Serif" font-size="10.00"> +garbage</text>
<text text-anchor="middle" x="155" y="-531.5" font-family="Helvetica,sans-Serif" font-size="10.00">#currentObject</text>
<text text-anchor="middle" x="155" y="-520.5" font-family="Helvetica,sans-Serif" font-size="10.00">#parentObject</text>
</g>
<!-- Node5 -->
<g id="node5" class="node"><title>Node5</title>
<g id="a_node5"><a xlink:href="../../d6/df9/class_c_g_l_vector3_d.xhtml" target="_top" xlink:title="{CGLVector3D\n|# z\l|+ CGLVector3D()\l+ ~CGLVector3D()\l+ isEqualTo()\l+ getZ()\l+ set()\l+ setZ()\l}">
<polygon fill="white" stroke="black" points="194.5,-271 194.5,-383 293.5,-383 293.5,-271 194.5,-271"/>
<text text-anchor="middle" x="244" y="-371" font-family="Helvetica,sans-Serif" font-size="10.00">CGLVector3D</text>
<polyline fill="none" stroke="black" points="194.5,-364 293.5,-364 "/>
<text text-anchor="start" x="202.5" y="-352" font-family="Helvetica,sans-Serif" font-size="10.00"># z</text>
<polyline fill="none" stroke="black" points="194.5,-345 293.5,-345 "/>
<text text-anchor="start" x="202.5" y="-333" font-family="Helvetica,sans-Serif" font-size="10.00">+ CGLVector3D()</text>
<text text-anchor="start" x="202.5" y="-322" font-family="Helvetica,sans-Serif" font-size="10.00">+ ~CGLVector3D()</text>
<text text-anchor="start" x="202.5" y="-311" font-family="Helvetica,sans-Serif" font-size="10.00">+ isEqualTo()</text>
<text text-anchor="start" x="202.5" y="-300" font-family="Helvetica,sans-Serif" font-size="10.00">+ getZ()</text>
<text text-anchor="start" x="202.5" y="-289" font-family="Helvetica,sans-Serif" font-size="10.00">+ set()</text>
<text text-anchor="start" x="202.5" y="-278" font-family="Helvetica,sans-Serif" font-size="10.00">+ setZ()</text>
</a>
</g>
</g>
<!-- Node5&#45;&gt;Node2 -->
<g id="edge5" class="edge"><title>Node5&#45;&gt;Node2</title>
<path fill="none" stroke="midnightblue" d="M217.321,-261.454C213.163,-251.393 208.898,-241.076 204.835,-231.247"/>
<polygon fill="none" stroke="midnightblue" points="214.211,-263.093 221.266,-270.997 220.68,-260.419 214.211,-263.093"/>
</g>
<!-- Node6 -->
<g id="node6" class="node"><title>Node6</title>
<g id="a_node6"><a xlink:href="../../d8/d97/class_c_g_l_vector2_d.xhtml" target="_top" xlink:title="{CGLVector2D\n||+ CGLVector2D()\l+ ~CGLVector2D()\l+ getMaxX()\l+ getMaxY()\l+ getMinX()\l+ getMinY()\l+ getX()\l+ getY()\l+ isXMax()\l+ isYMax()\let 11 de plus...\l}">
<polygon fill="white" stroke="black" points="206.5,-450.5 206.5,-617.5 305.5,-617.5 305.5,-450.5 206.5,-450.5"/>
<text text-anchor="middle" x="256" y="-605.5" font-family="Helvetica,sans-Serif" font-size="10.00">CGLVector2D</text>
<polyline fill="none" stroke="black" points="206.5,-598.5 305.5,-598.5 "/>
<text text-anchor="middle" x="256" y="-586.5" font-family="Helvetica,sans-Serif" font-size="10.00"> </text>
<polyline fill="none" stroke="black" points="206.5,-579.5 305.5,-579.5 "/>
<text text-anchor="start" x="214.5" y="-567.5" font-family="Helvetica,sans-Serif" font-size="10.00">+ CGLVector2D()</text>
<text text-anchor="start" x="214.5" y="-556.5" font-family="Helvetica,sans-Serif" font-size="10.00">+ ~CGLVector2D()</text>
<text text-anchor="start" x="214.5" y="-545.5" font-family="Helvetica,sans-Serif" font-size="10.00">+ getMaxX()</text>
<text text-anchor="start" x="214.5" y="-534.5" font-family="Helvetica,sans-Serif" font-size="10.00">+ getMaxY()</text>
<text text-anchor="start" x="214.5" y="-523.5" font-family="Helvetica,sans-Serif" font-size="10.00">+ getMinX()</text>
<text text-anchor="start" x="214.5" y="-512.5" font-family="Helvetica,sans-Serif" font-size="10.00">+ getMinY()</text>
<text text-anchor="start" x="214.5" y="-501.5" font-family="Helvetica,sans-Serif" font-size="10.00">+ getX()</text>
<text text-anchor="start" x="214.5" y="-490.5" font-family="Helvetica,sans-Serif" font-size="10.00">+ getY()</text>
<text text-anchor="start" x="214.5" y="-479.5" font-family="Helvetica,sans-Serif" font-size="10.00">+ isXMax()</text>
<text text-anchor="start" x="214.5" y="-468.5" font-family="Helvetica,sans-Serif" font-size="10.00">+ isYMax()</text>
<text text-anchor="start" x="214.5" y="-457.5" font-family="Helvetica,sans-Serif" font-size="10.00">et 11 de plus...</text>
</a>
</g>
</g>
<!-- Node6&#45;&gt;Node5 -->
<g id="edge6" class="edge"><title>Node6&#45;&gt;Node5</title>
<path fill="none" stroke="midnightblue" d="M250.561,-440.092C249.422,-420.634 248.256,-400.711 247.229,-383.161"/>
<polygon fill="none" stroke="midnightblue" points="247.075,-440.431 251.154,-450.21 254.063,-440.022 247.075,-440.431"/>
</g>
</g>
</svg>
