<?xml version="1.0" encoding="UTF-8" standalone="no"?>
<!DOCTYPE svg PUBLIC "-//W3C//DTD SVG 1.1//EN"
 "http://www.w3.org/Graphics/SVG/1.1/DTD/svg11.dtd">
<!-- Generated by graphviz version 2.36.0 (20140111.2315)
 -->
<!-- Title: CGLWindow::getCurrentWorld Pages: 1 -->
<svg width="636pt" height="59pt"
 viewBox="0.00 0.00 636.00 59.44" xmlns="http://www.w3.org/2000/svg" xmlns:xlink="http://www.w3.org/1999/xlink">
<g id="graph0" class="graph" transform="scale(1 1) rotate(0) translate(4 55.4442)">
<title>CGLWindow::getCurrentWorld</title>
<polygon fill="white" stroke="none" points="-4,4 -4,-55.4442 632,-55.4442 632,4 -4,4"/>
<!-- Node1 -->
<g id="node1" class="node"><title>Node1</title>
<polygon fill="#bfbfbf" stroke="black" points="0.5,-19.5 0.5,-38.5 149.5,-38.5 149.5,-19.5 0.5,-19.5"/>
<text text-anchor="middle" x="75" y="-26.5" font-family="Helvetica,sans-Serif" font-size="10.00">CGLWindow::getCurrentWorld</text>
</g>
<!-- Node2 -->
<g id="node2" class="node"><title>Node2</title>
<g id="a_node2"><a xlink:href="$dd/d40/class_c_g_l_window.xhtml#a87ea72d63fe563266178e72a19722e5d" xlink:title="CGLWindow::loop">
<polygon fill="white" stroke="black" points="322,-19.5 322,-38.5 418,-38.5 418,-19.5 322,-19.5"/>
<text text-anchor="middle" x="370" y="-26.5" font-family="Helvetica,sans-Serif" font-size="10.00">CGLWindow::loop</text>
</a>
</g>
</g>
<!-- Node1&#45;&gt;Node2 -->
<g id="edge1" class="edge"><title>Node1&#45;&gt;Node2</title>
<path fill="none" stroke="midnightblue" d="M130.804,-40.3644C148.354,-43.4927 167.922,-46.4502 186,-48 230.282,-51.7962 241.837,-52.9903 286,-48 302.452,-46.141 320.395,-42.2719 335.375,-38.5074"/>
<polygon fill="midnightblue" stroke="midnightblue" points="131.199,-36.8784 120.731,-38.5121 129.933,-43.7629 131.199,-36.8784"/>
</g>
<!-- Node4 -->
<g id="node4" class="node"><title>Node4</title>
<g id="a_node4"><a xlink:href="$db/dec/_damier_g_l_8cpp.xhtml#a0ddf1224851353fc92bfbff6f499fa97" xlink:title="main">
<polygon fill="white" stroke="black" points="590,-0.5 590,-19.5 628,-19.5 628,-0.5 590,-0.5"/>
<text text-anchor="middle" x="609" y="-7.5" font-family="Helvetica,sans-Serif" font-size="10.00">main</text>
</a>
</g>
</g>
<!-- Node1&#45;&gt;Node4 -->
<g id="edge6" class="edge"><title>Node1&#45;&gt;Node4</title>
<path fill="none" stroke="midnightblue" d="M130.804,-17.6356C148.354,-14.5073 167.922,-11.5498 186,-10 341.847,3.36057 531.26,-5.56387 589.855,-8.8953"/>
<polygon fill="midnightblue" stroke="midnightblue" points="129.933,-14.2371 120.731,-19.4879 131.199,-21.1216 129.933,-14.2371"/>
</g>
<!-- Node5 -->
<g id="node5" class="node"><title>Node5</title>
<g id="a_node5"><a xlink:href="$dd/d40/class_c_g_l_window.xhtml#adf4d06d51db7221820cb7f22080d51f2" xlink:title="CGLWindow::draw">
<polygon fill="white" stroke="black" points="186.5,-19.5 186.5,-38.5 285.5,-38.5 285.5,-19.5 186.5,-19.5"/>
<text text-anchor="middle" x="236" y="-26.5" font-family="Helvetica,sans-Serif" font-size="10.00">CGLWindow::draw</text>
</a>
</g>
</g>
<!-- Node1&#45;&gt;Node5 -->
<g id="edge4" class="edge"><title>Node1&#45;&gt;Node5</title>
<path fill="none" stroke="midnightblue" d="M160.042,-29C169.005,-29 177.891,-29 186.241,-29"/>
<polygon fill="midnightblue" stroke="midnightblue" points="159.914,-25.5001 149.914,-29 159.914,-32.5001 159.914,-25.5001"/>
</g>
<!-- Node3 -->
<g id="node3" class="node"><title>Node3</title>
<g id="a_node3"><a xlink:href="$dd/d40/class_c_g_l_window.xhtml#acee59c3d1b3a12c43fccf7f225c98dd6" xlink:title="CGLWindow::exec">
<polygon fill="white" stroke="black" points="454.5,-19.5 454.5,-38.5 553.5,-38.5 553.5,-19.5 454.5,-19.5"/>
<text text-anchor="middle" x="504" y="-26.5" font-family="Helvetica,sans-Serif" font-size="10.00">CGLWindow::exec</text>
</a>
</g>
</g>
<!-- Node2&#45;&gt;Node3 -->
<g id="edge2" class="edge"><title>Node2&#45;&gt;Node3</title>
<path fill="none" stroke="midnightblue" d="M428.31,-29C436.963,-29 445.819,-29 454.268,-29"/>
<polygon fill="midnightblue" stroke="midnightblue" points="428.282,-25.5001 418.282,-29 428.282,-32.5001 428.282,-25.5001"/>
</g>
<!-- Node3&#45;&gt;Node4 -->
<g id="edge3" class="edge"><title>Node3&#45;&gt;Node4</title>
<path fill="none" stroke="midnightblue" d="M563.749,-18.1629C573.246,-16.4109 582.408,-14.7208 589.908,-13.3374"/>
<polygon fill="midnightblue" stroke="midnightblue" points="562.984,-14.7447 553.785,-20.0008 564.254,-21.6286 562.984,-14.7447"/>
</g>
<!-- Node5&#45;&gt;Node2 -->
<g id="edge5" class="edge"><title>Node5&#45;&gt;Node2</title>
<path fill="none" stroke="midnightblue" d="M295.841,-29C304.51,-29 313.346,-29 321.741,-29"/>
<polygon fill="midnightblue" stroke="midnightblue" points="295.777,-25.5001 285.777,-29 295.777,-32.5001 295.777,-25.5001"/>
</g>
</g>
</svg>
