<?xml version="1.0" encoding="UTF-8" standalone="no"?>
<!DOCTYPE svg PUBLIC "-//W3C//DTD SVG 1.1//EN"
 "http://www.w3.org/Graphics/SVG/1.1/DTD/svg11.dtd">
<!-- Generated by graphviz version 2.36.0 (20140111.2315)
 -->
<!-- Title: CGLWindow::loop Pages: 1 -->
<svg width="478pt" height="218pt"
 viewBox="0.00 0.00 478.00 218.00" xmlns="http://www.w3.org/2000/svg" xmlns:xlink="http://www.w3.org/1999/xlink">
<g id="graph0" class="graph" transform="scale(1 1) rotate(0) translate(4 214)">
<title>CGLWindow::loop</title>
<polygon fill="white" stroke="none" points="-4,4 -4,-214 474,-214 474,4 -4,4"/>
<!-- Node1 -->
<g id="node1" class="node"><title>Node1</title>
<polygon fill="#bfbfbf" stroke="black" points="0,-95.5 0,-114.5 96,-114.5 96,-95.5 0,-95.5"/>
<text text-anchor="middle" x="48" y="-102.5" font-family="Helvetica,sans-Serif" font-size="10.00">CGLWindow::loop</text>
</g>
<!-- Node2 -->
<g id="node2" class="node"><title>Node2</title>
<g id="a_node2"><a xlink:href="$dd/d40/class_c_g_l_window.xhtml#a8875c26fc11c333f7bbf2b517a2befd0" xlink:title="CGLWindow::getCurrentWorld">
<polygon fill="white" stroke="black" points="320.5,-76.5 320.5,-95.5 469.5,-95.5 469.5,-76.5 320.5,-76.5"/>
<text text-anchor="middle" x="395" y="-83.5" font-family="Helvetica,sans-Serif" font-size="10.00">CGLWindow::getCurrentWorld</text>
</a>
</g>
</g>
<!-- Node1&#45;&gt;Node2 -->
<g id="edge1" class="edge"><title>Node1&#45;&gt;Node2</title>
<path fill="none" stroke="midnightblue" d="M96.3632,-107.369C143.896,-109.19 219.164,-110.558 284,-105 302.078,-103.45 321.646,-100.493 339.196,-97.3644"/>
<polygon fill="midnightblue" stroke="midnightblue" points="340.067,-100.763 349.269,-95.5121 338.801,-93.8784 340.067,-100.763"/>
</g>
<!-- Node3 -->
<g id="node3" class="node"><title>Node3</title>
<g id="a_node3"><a xlink:href="$db/da4/class_c_g_l_world.xhtml#a266821b98f90eae32b670ff4def8b948" xlink:title="CGLWorld::getCurrentScene">
<polygon fill="white" stroke="black" points="137,-152.5 137,-171.5 279,-171.5 279,-152.5 137,-152.5"/>
<text text-anchor="middle" x="208" y="-159.5" font-family="Helvetica,sans-Serif" font-size="10.00">CGLWorld::getCurrentScene</text>
</a>
</g>
</g>
<!-- Node1&#45;&gt;Node3 -->
<g id="edge2" class="edge"><title>Node1&#45;&gt;Node3</title>
<path fill="none" stroke="midnightblue" d="M71.7385,-114.53C88.3284,-121.363 111.417,-130.625 132,-138 142.839,-141.884 154.663,-145.81 165.652,-149.33"/>
<polygon fill="midnightblue" stroke="midnightblue" points="164.866,-152.752 175.456,-152.435 166.98,-146.079 164.866,-152.752"/>
</g>
<!-- Node4 -->
<g id="node4" class="node"><title>Node4</title>
<g id="a_node4"><a xlink:href="$d9/d85/class_c_g_l_scene.xhtml#afa2e2794f2f8c6b80b293703e411f7fe" xlink:title="CGLScene::getCurrentCamera">
<polygon fill="white" stroke="black" points="132.5,-190.5 132.5,-209.5 283.5,-209.5 283.5,-190.5 132.5,-190.5"/>
<text text-anchor="middle" x="208" y="-197.5" font-family="Helvetica,sans-Serif" font-size="10.00">CGLScene::getCurrentCamera</text>
</a>
</g>
</g>
<!-- Node1&#45;&gt;Node4 -->
<g id="edge3" class="edge"><title>Node1&#45;&gt;Node4</title>
<path fill="none" stroke="midnightblue" d="M56.6149,-114.547C70.064,-130.747 99.6733,-163.559 132,-181 136.282,-183.31 140.853,-185.347 145.546,-187.141"/>
<polygon fill="midnightblue" stroke="midnightblue" points="144.703,-190.552 155.298,-190.494 146.979,-183.933 144.703,-190.552"/>
</g>
<!-- Node6 -->
<g id="node6" class="node"><title>Node6</title>
<g id="a_node6"><a xlink:href="$de/dee/class_c_g_l_camera.xhtml#ad0f4898351c8df558a627102f233ded8" xlink:title="CGLCamera::onMouseButton">
<polygon fill="white" stroke="black" points="135,-76.5 135,-95.5 281,-95.5 281,-76.5 135,-76.5"/>
<text text-anchor="middle" x="208" y="-83.5" font-family="Helvetica,sans-Serif" font-size="10.00">CGLCamera::onMouseButton</text>
</a>
</g>
</g>
<!-- Node1&#45;&gt;Node6 -->
<g id="edge5" class="edge"><title>Node1&#45;&gt;Node6</title>
<path fill="none" stroke="midnightblue" d="M96.4052,-99.2994C105.378,-98.2204 115.002,-97.0631 124.692,-95.8978"/>
<polygon fill="midnightblue" stroke="midnightblue" points="125.279,-99.3525 134.789,-94.6835 124.443,-92.4026 125.279,-99.3525"/>
</g>
<!-- Node7 -->
<g id="node7" class="node"><title>Node7</title>
<g id="a_node7"><a xlink:href="$dd/d40/class_c_g_l_window.xhtml#a480062f802f92f94e8b737a96171012c" xlink:title="CGLWindow::onResize">
<polygon fill="white" stroke="black" points="148.5,-38.5 148.5,-57.5 267.5,-57.5 267.5,-38.5 148.5,-38.5"/>
<text text-anchor="middle" x="208" y="-45.5" font-family="Helvetica,sans-Serif" font-size="10.00">CGLWindow::onResize</text>
</a>
</g>
</g>
<!-- Node1&#45;&gt;Node7 -->
<g id="edge6" class="edge"><title>Node1&#45;&gt;Node7</title>
<path fill="none" stroke="midnightblue" d="M67.3899,-95.4086C83.9499,-87.0569 109.13,-75.0572 132,-67 139.047,-64.5172 146.573,-62.2164 154.036,-60.1356"/>
<polygon fill="midnightblue" stroke="midnightblue" points="155.012,-63.4977 163.766,-57.5301 153.201,-56.7359 155.012,-63.4977"/>
</g>
<!-- Node8 -->
<g id="node8" class="node"><title>Node8</title>
<g id="a_node8"><a xlink:href="$dd/d40/class_c_g_l_window.xhtml#adf4d06d51db7221820cb7f22080d51f2" xlink:title="CGLWindow::draw">
<polygon fill="white" stroke="black" points="158.5,-0.5 158.5,-19.5 257.5,-19.5 257.5,-0.5 158.5,-0.5"/>
<text text-anchor="middle" x="208" y="-7.5" font-family="Helvetica,sans-Serif" font-size="10.00">CGLWindow::draw</text>
</a>
</g>
</g>
<!-- Node1&#45;&gt;Node8 -->
<g id="edge7" class="edge"><title>Node1&#45;&gt;Node8</title>
<path fill="none" stroke="midnightblue" d="M56.6149,-95.4535C70.064,-79.2527 99.6733,-46.4408 132,-29 137.225,-26.1808 142.882,-23.7687 148.666,-21.7072"/>
<polygon fill="midnightblue" stroke="midnightblue" points="150.015,-24.9499 158.466,-18.5587 147.874,-18.2854 150.015,-24.9499"/>
</g>
<!-- Node5 -->
<g id="node5" class="node"><title>Node5</title>
<g id="a_node5"><a xlink:href="$d2/d76/class_c_g_l_object.xhtml#a17159bf8a16301adca577be4311806d1" xlink:title="CGLObject::getCurrentObject">
<polygon fill="white" stroke="black" points="322,-190.5 322,-209.5 468,-209.5 468,-190.5 322,-190.5"/>
<text text-anchor="middle" x="395" y="-197.5" font-family="Helvetica,sans-Serif" font-size="10.00">CGLObject::getCurrentObject</text>
</a>
</g>
</g>
<!-- Node4&#45;&gt;Node5 -->
<g id="edge4" class="edge"><title>Node4&#45;&gt;Node5</title>
<path fill="none" stroke="midnightblue" d="M283.713,-200C292.919,-200 302.369,-200 311.679,-200"/>
<polygon fill="midnightblue" stroke="midnightblue" points="311.709,-203.5 321.709,-200 311.709,-196.5 311.709,-203.5"/>
</g>
<!-- Node8&#45;&gt;Node2 -->
<g id="edge8" class="edge"><title>Node8&#45;&gt;Node2</title>
<path fill="none" stroke="midnightblue" d="M253.941,-19.593C263.97,-22.2267 274.457,-25.3742 284,-29 314.475,-40.579 347.424,-58.4281 369.234,-71.0636"/>
<polygon fill="midnightblue" stroke="midnightblue" points="367.745,-74.248 378.141,-76.2933 371.289,-68.2117 367.745,-74.248"/>
</g>
<!-- Node9 -->
<g id="node9" class="node"><title>Node9</title>
<g id="a_node9"><a xlink:href="$db/da4/class_c_g_l_world.xhtml#a7dd174b6096cb7c798f7b4518e4842dc" xlink:title="CGLWorld::draw">
<polygon fill="white" stroke="black" points="350.5,-0.5 350.5,-19.5 439.5,-19.5 439.5,-0.5 350.5,-0.5"/>
<text text-anchor="middle" x="395" y="-7.5" font-family="Helvetica,sans-Serif" font-size="10.00">CGLWorld::draw</text>
</a>
</g>
</g>
<!-- Node8&#45;&gt;Node9 -->
<g id="edge9" class="edge"><title>Node8&#45;&gt;Node9</title>
<path fill="none" stroke="midnightblue" d="M257.607,-10C283.03,-10 314.212,-10 340.341,-10"/>
<polygon fill="midnightblue" stroke="midnightblue" points="340.454,-13.5001 350.454,-10 340.454,-6.5001 340.454,-13.5001"/>
</g>
</g>
</svg>
