<?xml version="1.0" encoding="UTF-8" standalone="no"?>
<!DOCTYPE svg PUBLIC "-//W3C//DTD SVG 1.1//EN"
 "http://www.w3.org/Graphics/SVG/1.1/DTD/svg11.dtd">
<!-- Generated by graphviz version 2.36.0 (20140111.2315)
 -->
<!-- Title: CGLEffect Pages: 1 -->
<svg width="413pt" height="702pt"
 viewBox="0.00 0.00 413.00 702.00" xmlns="http://www.w3.org/2000/svg" xmlns:xlink="http://www.w3.org/1999/xlink">
<g id="graph0" class="graph" transform="scale(1 1) rotate(0) translate(4 698)">
<title>CGLEffect</title>
<polygon fill="white" stroke="none" points="-4,4 -4,-698 409,-698 409,4 -4,4"/>
<!-- Node1 -->
<g id="node1" class="node"><title>Node1</title>
<polygon fill="#bfbfbf" stroke="black" points="159,-333 159,-401 243,-401 243,-333 159,-333"/>
<text text-anchor="middle" x="201" y="-389" font-family="Helvetica,sans-Serif" font-size="10.00">CGLEffect</text>
<polyline fill="none" stroke="black" points="159,-382 243,-382 "/>
<text text-anchor="middle" x="201" y="-370" font-family="Helvetica,sans-Serif" font-size="10.00"> </text>
<polyline fill="none" stroke="black" points="159,-363 243,-363 "/>
<text text-anchor="start" x="167" y="-351" font-family="Helvetica,sans-Serif" font-size="10.00">+ CGLEffect()</text>
<text text-anchor="start" x="167" y="-340" font-family="Helvetica,sans-Serif" font-size="10.00">+ ~CGLEffect()</text>
</g>
<!-- Node3 -->
<g id="node3" class="node"><title>Node3</title>
<g id="a_node3"><a xlink:href="../../d7/dd6/class_c_g_l_color.xhtml" target="_top" xlink:title="{CGLColor\n||+ CGLColor()\l+ ~CGLColor()\l+ set()\l+ setR()\l+ setG()\l+ setB()\l+ setA()\l+ getR()\l+ getG()\l+ getB()\l+ getA()\l+ drawObject()\l}">
<polygon fill="white" stroke="black" points="-0.5,-117 -0.5,-295 80.5,-295 80.5,-117 -0.5,-117"/>
<text text-anchor="middle" x="40" y="-283" font-family="Helvetica,sans-Serif" font-size="10.00">CGLColor</text>
<polyline fill="none" stroke="black" points="-0.5,-276 80.5,-276 "/>
<text text-anchor="middle" x="40" y="-264" font-family="Helvetica,sans-Serif" font-size="10.00"> </text>
<polyline fill="none" stroke="black" points="-0.5,-257 80.5,-257 "/>
<text text-anchor="start" x="7.5" y="-245" font-family="Helvetica,sans-Serif" font-size="10.00">+ CGLColor()</text>
<text text-anchor="start" x="7.5" y="-234" font-family="Helvetica,sans-Serif" font-size="10.00">+ ~CGLColor()</text>
<text text-anchor="start" x="7.5" y="-223" font-family="Helvetica,sans-Serif" font-size="10.00">+ set()</text>
<text text-anchor="start" x="7.5" y="-212" font-family="Helvetica,sans-Serif" font-size="10.00">+ setR()</text>
<text text-anchor="start" x="7.5" y="-201" font-family="Helvetica,sans-Serif" font-size="10.00">+ setG()</text>
<text text-anchor="start" x="7.5" y="-190" font-family="Helvetica,sans-Serif" font-size="10.00">+ setB()</text>
<text text-anchor="start" x="7.5" y="-179" font-family="Helvetica,sans-Serif" font-size="10.00">+ setA()</text>
<text text-anchor="start" x="7.5" y="-168" font-family="Helvetica,sans-Serif" font-size="10.00">+ getR()</text>
<text text-anchor="start" x="7.5" y="-157" font-family="Helvetica,sans-Serif" font-size="10.00">+ getG()</text>
<text text-anchor="start" x="7.5" y="-146" font-family="Helvetica,sans-Serif" font-size="10.00">+ getB()</text>
<text text-anchor="start" x="7.5" y="-135" font-family="Helvetica,sans-Serif" font-size="10.00">+ getA()</text>
<text text-anchor="start" x="7.5" y="-124" font-family="Helvetica,sans-Serif" font-size="10.00">+ drawObject()</text>
</a>
</g>
</g>
<!-- Node1&#45;&gt;Node3 -->
<g id="edge2" class="edge"><title>Node1&#45;&gt;Node3</title>
<path fill="none" stroke="midnightblue" d="M149.797,-341.327C129.167,-329.631 106.228,-314.209 89,-296 86.0906,-292.925 83.296,-289.644 80.6204,-286.224"/>
<polygon fill="none" stroke="midnightblue" points="148.33,-344.514 158.778,-346.271 151.706,-338.382 148.33,-344.514"/>
</g>
<!-- Node4 -->
<g id="node4" class="node"><title>Node4</title>
<g id="a_node4"><a xlink:href="../../de/d31/class_c_g_l_position.xhtml" target="_top" xlink:title="{CGLPosition\n||+ CGLPosition()\l+ ~CGLPosition()\l+ drawObject()\l}">
<polygon fill="white" stroke="black" points="98.5,-166.5 98.5,-245.5 191.5,-245.5 191.5,-166.5 98.5,-166.5"/>
<text text-anchor="middle" x="145" y="-233.5" font-family="Helvetica,sans-Serif" font-size="10.00">CGLPosition</text>
<polyline fill="none" stroke="black" points="98.5,-226.5 191.5,-226.5 "/>
<text text-anchor="middle" x="145" y="-214.5" font-family="Helvetica,sans-Serif" font-size="10.00"> </text>
<polyline fill="none" stroke="black" points="98.5,-207.5 191.5,-207.5 "/>
<text text-anchor="start" x="106.5" y="-195.5" font-family="Helvetica,sans-Serif" font-size="10.00">+ CGLPosition()</text>
<text text-anchor="start" x="106.5" y="-184.5" font-family="Helvetica,sans-Serif" font-size="10.00">+ ~CGLPosition()</text>
<text text-anchor="start" x="106.5" y="-173.5" font-family="Helvetica,sans-Serif" font-size="10.00">+ drawObject()</text>
</a>
</g>
</g>
<!-- Node1&#45;&gt;Node4 -->
<g id="edge3" class="edge"><title>Node1&#45;&gt;Node4</title>
<path fill="none" stroke="midnightblue" d="M185.872,-323.047C177.368,-298.901 166.838,-269.005 158.597,-245.604"/>
<polygon fill="none" stroke="midnightblue" points="182.637,-324.399 189.261,-332.668 189.24,-322.074 182.637,-324.399"/>
</g>
<!-- Node6 -->
<g id="node6" class="node"><title>Node6</title>
<g id="a_node6"><a xlink:href="../../d4/dd5/class_c_g_l_rotation.xhtml" target="_top" xlink:title="{CGLRotation\n||+ CGLRotation()\l+ ~CGLRotation()\l+ setA()\l+ getA()\l+ set()\l+ drawObject()\l}">
<polygon fill="white" stroke="black" points="209.5,-150 209.5,-262 304.5,-262 304.5,-150 209.5,-150"/>
<text text-anchor="middle" x="257" y="-250" font-family="Helvetica,sans-Serif" font-size="10.00">CGLRotation</text>
<polyline fill="none" stroke="black" points="209.5,-243 304.5,-243 "/>
<text text-anchor="middle" x="257" y="-231" font-family="Helvetica,sans-Serif" font-size="10.00"> </text>
<polyline fill="none" stroke="black" points="209.5,-224 304.5,-224 "/>
<text text-anchor="start" x="217.5" y="-212" font-family="Helvetica,sans-Serif" font-size="10.00">+ CGLRotation()</text>
<text text-anchor="start" x="217.5" y="-201" font-family="Helvetica,sans-Serif" font-size="10.00">+ ~CGLRotation()</text>
<text text-anchor="start" x="217.5" y="-190" font-family="Helvetica,sans-Serif" font-size="10.00">+ setA()</text>
<text text-anchor="start" x="217.5" y="-179" font-family="Helvetica,sans-Serif" font-size="10.00">+ getA()</text>
<text text-anchor="start" x="217.5" y="-168" font-family="Helvetica,sans-Serif" font-size="10.00">+ set()</text>
<text text-anchor="start" x="217.5" y="-157" font-family="Helvetica,sans-Serif" font-size="10.00">+ drawObject()</text>
</a>
</g>
</g>
<!-- Node1&#45;&gt;Node6 -->
<g id="edge5" class="edge"><title>Node1&#45;&gt;Node6</title>
<path fill="none" stroke="midnightblue" d="M216.072,-323.205C222.681,-304.441 230.521,-282.182 237.561,-262.192"/>
<polygon fill="none" stroke="midnightblue" points="212.76,-322.074 212.739,-332.668 219.363,-324.399 212.76,-322.074"/>
</g>
<!-- Node7 -->
<g id="node7" class="node"><title>Node7</title>
<g id="a_node7"><a xlink:href="../../dd/dd7/class_c_g_l_scale.xhtml" target="_top" xlink:title="{CGLScale\n||+ CGLScale()\l+ ~CGLScale()\l+ drawObject()\l}">
<polygon fill="white" stroke="black" points="322.5,-166.5 322.5,-245.5 405.5,-245.5 405.5,-166.5 322.5,-166.5"/>
<text text-anchor="middle" x="364" y="-233.5" font-family="Helvetica,sans-Serif" font-size="10.00">CGLScale</text>
<polyline fill="none" stroke="black" points="322.5,-226.5 405.5,-226.5 "/>
<text text-anchor="middle" x="364" y="-214.5" font-family="Helvetica,sans-Serif" font-size="10.00"> </text>
<polyline fill="none" stroke="black" points="322.5,-207.5 405.5,-207.5 "/>
<text text-anchor="start" x="330.5" y="-195.5" font-family="Helvetica,sans-Serif" font-size="10.00">+ CGLScale()</text>
<text text-anchor="start" x="330.5" y="-184.5" font-family="Helvetica,sans-Serif" font-size="10.00">+ ~CGLScale()</text>
<text text-anchor="start" x="330.5" y="-173.5" font-family="Helvetica,sans-Serif" font-size="10.00">+ drawObject()</text>
</a>
</g>
</g>
<!-- Node1&#45;&gt;Node7 -->
<g id="edge6" class="edge"><title>Node1&#45;&gt;Node7</title>
<path fill="none" stroke="midnightblue" d="M252.05,-341.181C272.656,-329.462 295.617,-314.061 313,-296 326.955,-281.501 338.527,-262.461 347.101,-245.714"/>
<polygon fill="none" stroke="midnightblue" points="250.142,-338.237 243.083,-346.138 253.528,-344.363 250.142,-338.237"/>
</g>
<!-- Node2 -->
<g id="node2" class="node"><title>Node2</title>
<g id="a_node2"><a xlink:href="../../d2/d76/class_c_g_l_object.xhtml" target="_top" xlink:title="{CGLObject\n|+ garbage\l# objectType\l# name\l# matrixSaved\l# children\l# iterCurrentObject\l# currentObject\l# parentObject\l|+ addObject()\l+ setName()\l+ getName()\l+ getCurrentObject()\l+ isChild()\l+ draw()\l+ drawObject()\l+ drawChildren()\l+ drawCenter()\l+ CGLObject()\l+ ~CGLObject()\l+ init()\l}">
<polygon fill="white" stroke="black" points="148,-438.5 148,-693.5 254,-693.5 254,-438.5 148,-438.5"/>
<text text-anchor="middle" x="201" y="-681.5" font-family="Helvetica,sans-Serif" font-size="10.00">CGLObject</text>
<polyline fill="none" stroke="black" points="148,-674.5 254,-674.5 "/>
<text text-anchor="start" x="156" y="-662.5" font-family="Helvetica,sans-Serif" font-size="10.00">+ garbage</text>
<text text-anchor="start" x="156" y="-651.5" font-family="Helvetica,sans-Serif" font-size="10.00"># objectType</text>
<text text-anchor="start" x="156" y="-640.5" font-family="Helvetica,sans-Serif" font-size="10.00"># name</text>
<text text-anchor="start" x="156" y="-629.5" font-family="Helvetica,sans-Serif" font-size="10.00"># matrixSaved</text>
<text text-anchor="start" x="156" y="-618.5" font-family="Helvetica,sans-Serif" font-size="10.00"># children</text>
<text text-anchor="start" x="156" y="-607.5" font-family="Helvetica,sans-Serif" font-size="10.00"># iterCurrentObject</text>
<text text-anchor="start" x="156" y="-596.5" font-family="Helvetica,sans-Serif" font-size="10.00"># currentObject</text>
<text text-anchor="start" x="156" y="-585.5" font-family="Helvetica,sans-Serif" font-size="10.00"># parentObject</text>
<polyline fill="none" stroke="black" points="148,-578.5 254,-578.5 "/>
<text text-anchor="start" x="156" y="-566.5" font-family="Helvetica,sans-Serif" font-size="10.00">+ addObject()</text>
<text text-anchor="start" x="156" y="-555.5" font-family="Helvetica,sans-Serif" font-size="10.00">+ setName()</text>
<text text-anchor="start" x="156" y="-544.5" font-family="Helvetica,sans-Serif" font-size="10.00">+ getName()</text>
<text text-anchor="start" x="156" y="-533.5" font-family="Helvetica,sans-Serif" font-size="10.00">+ getCurrentObject()</text>
<text text-anchor="start" x="156" y="-522.5" font-family="Helvetica,sans-Serif" font-size="10.00">+ isChild()</text>
<text text-anchor="start" x="156" y="-511.5" font-family="Helvetica,sans-Serif" font-size="10.00">+ draw()</text>
<text text-anchor="start" x="156" y="-500.5" font-family="Helvetica,sans-Serif" font-size="10.00">+ drawObject()</text>
<text text-anchor="start" x="156" y="-489.5" font-family="Helvetica,sans-Serif" font-size="10.00">+ drawChildren()</text>
<text text-anchor="start" x="156" y="-478.5" font-family="Helvetica,sans-Serif" font-size="10.00">+ drawCenter()</text>
<text text-anchor="start" x="156" y="-467.5" font-family="Helvetica,sans-Serif" font-size="10.00">+ CGLObject()</text>
<text text-anchor="start" x="156" y="-456.5" font-family="Helvetica,sans-Serif" font-size="10.00">+ ~CGLObject()</text>
<text text-anchor="start" x="156" y="-445.5" font-family="Helvetica,sans-Serif" font-size="10.00">+ init()</text>
</a>
</g>
</g>
<!-- Node2&#45;&gt;Node1 -->
<g id="edge1" class="edge"><title>Node2&#45;&gt;Node1</title>
<path fill="none" stroke="midnightblue" d="M201,-428.257C201,-418.41 201,-409.166 201,-401.016"/>
<polygon fill="none" stroke="midnightblue" points="197.5,-428.287 201,-438.287 204.5,-428.287 197.5,-428.287"/>
</g>
<!-- Node5 -->
<g id="node5" class="node"><title>Node5</title>
<g id="a_node5"><a xlink:href="../../d7/dc4/class_c_g_l_position_speed.xhtml" target="_top" xlink:title="{CGLPositionSpeed\n|# speed\l|+ CGLPositionSpeed()\l+ ~CGLPositionSpeed()\l+ drawObject()\l}">
<polygon fill="white" stroke="black" points="84.5,-0.5 84.5,-79.5 205.5,-79.5 205.5,-0.5 84.5,-0.5"/>
<text text-anchor="middle" x="145" y="-67.5" font-family="Helvetica,sans-Serif" font-size="10.00">CGLPositionSpeed</text>
<polyline fill="none" stroke="black" points="84.5,-60.5 205.5,-60.5 "/>
<text text-anchor="start" x="92.5" y="-48.5" font-family="Helvetica,sans-Serif" font-size="10.00"># speed</text>
<polyline fill="none" stroke="black" points="84.5,-41.5 205.5,-41.5 "/>
<text text-anchor="start" x="92.5" y="-29.5" font-family="Helvetica,sans-Serif" font-size="10.00">+ CGLPositionSpeed()</text>
<text text-anchor="start" x="92.5" y="-18.5" font-family="Helvetica,sans-Serif" font-size="10.00">+ ~CGLPositionSpeed()</text>
<text text-anchor="start" x="92.5" y="-7.5" font-family="Helvetica,sans-Serif" font-size="10.00">+ drawObject()</text>
</a>
</g>
</g>
<!-- Node4&#45;&gt;Node5 -->
<g id="edge4" class="edge"><title>Node4&#45;&gt;Node5</title>
<path fill="none" stroke="midnightblue" d="M145,-155.979C145,-131.54 145,-102.411 145,-79.5867"/>
<polygon fill="none" stroke="midnightblue" points="141.5,-156.134 145,-166.134 148.5,-156.134 141.5,-156.134"/>
</g>
</g>
</svg>
