<?xml version="1.0" encoding="UTF-8" standalone="no"?>
<!DOCTYPE svg PUBLIC "-//W3C//DTD SVG 1.1//EN"
 "http://www.w3.org/Graphics/SVG/1.1/DTD/svg11.dtd">
<!-- Generated by graphviz version 2.36.0 (20140111.2315)
 -->
<!-- Title: /home/dagal/git/DamierGL/DamierGL/src/CGL/CGLRotationSpeed.h Pages: 1 -->
<svg width="382pt" height="108pt"
 viewBox="0.00 0.00 382.00 108.00" xmlns="http://www.w3.org/2000/svg" xmlns:xlink="http://www.w3.org/1999/xlink">
<g id="graph0" class="graph" transform="scale(1 1) rotate(0) translate(4 104)">
<title>/home/dagal/git/DamierGL/DamierGL/src/CGL/CGLRotationSpeed.h</title>
<polygon fill="white" stroke="none" points="-4,4 -4,-104 378,-104 378,4 -4,4"/>
<!-- Node1 -->
<g id="node1" class="node"><title>Node1</title>
<polygon fill="#bfbfbf" stroke="black" points="103,-69 103,-99 303,-99 303,-69 103,-69"/>
<text text-anchor="start" x="111" y="-87" font-family="Helvetica,sans-Serif" font-size="10.00">/home/dagal/git/DamierGL</text>
<text text-anchor="middle" x="203" y="-76" font-family="Helvetica,sans-Serif" font-size="10.00">/DamierGL/src/CGL/CGLRotationSpeed.h</text>
</g>
<!-- Node2 -->
<g id="node2" class="node"><title>Node2</title>
<g id="a_node2"><a xlink:href="../../df/d6d/_c_g_l_rotation_speed_8cpp.xhtml" target="_top" xlink:title="/home/dagal/git/DamierGL\l/DamierGL/src/CGL/CGLRotationSpeed.cpp">
<polygon fill="white" stroke="black" points="0,-1 0,-31 210,-31 210,-1 0,-1"/>
<text text-anchor="start" x="8" y="-19" font-family="Helvetica,sans-Serif" font-size="10.00">/home/dagal/git/DamierGL</text>
<text text-anchor="middle" x="105" y="-8" font-family="Helvetica,sans-Serif" font-size="10.00">/DamierGL/src/CGL/CGLRotationSpeed.cpp</text>
</a>
</g>
</g>
<!-- Node1&#45;&gt;Node2 -->
<g id="edge1" class="edge"><title>Node1&#45;&gt;Node2</title>
<path fill="none" stroke="midnightblue" d="M173.137,-62.8884C157.861,-52.6003 139.641,-40.3293 125.886,-31.0663"/>
<polygon fill="midnightblue" stroke="midnightblue" points="171.486,-65.996 181.735,-68.679 175.396,-60.1899 171.486,-65.996"/>
</g>
<!-- Node3 -->
<g id="node3" class="node"><title>Node3</title>
<g id="a_node3"><a xlink:href="../../db/dec/_damier_g_l_8cpp.xhtml" target="_top" xlink:title="/home/dagal/git/DamierGL\l/DamierGL/src/DamierGL.cpp">
<polygon fill="white" stroke="black" points="228,-1 228,-31 374,-31 374,-1 228,-1"/>
<text text-anchor="start" x="236" y="-19" font-family="Helvetica,sans-Serif" font-size="10.00">/home/dagal/git/DamierGL</text>
<text text-anchor="middle" x="301" y="-8" font-family="Helvetica,sans-Serif" font-size="10.00">/DamierGL/src/DamierGL.cpp</text>
</a>
</g>
</g>
<!-- Node1&#45;&gt;Node3 -->
<g id="edge2" class="edge"><title>Node1&#45;&gt;Node3</title>
<path fill="none" stroke="midnightblue" d="M232.863,-62.8884C248.139,-52.6003 266.359,-40.3293 280.114,-31.0663"/>
<polygon fill="midnightblue" stroke="midnightblue" points="230.604,-60.1899 224.265,-68.679 234.514,-65.996 230.604,-60.1899"/>
</g>
</g>
</svg>
