<?xml version="1.0" encoding="UTF-8" standalone="no"?>
<!DOCTYPE svg PUBLIC "-//W3C//DTD SVG 1.1//EN"
 "http://www.w3.org/Graphics/SVG/1.1/DTD/svg11.dtd">
<!-- Generated by graphviz version 2.36.0 (20140111.2315)
 -->
<!-- Title: /home/dagal/git/DamierGL/DamierGL/src/CGL/CGLItem.h Pages: 1 -->
<svg width="1916pt" height="244pt"
 viewBox="0.00 0.00 1916.00 244.00" xmlns="http://www.w3.org/2000/svg" xmlns:xlink="http://www.w3.org/1999/xlink">
<g id="graph0" class="graph" transform="scale(1 1) rotate(0) translate(4 240)">
<title>/home/dagal/git/DamierGL/DamierGL/src/CGL/CGLItem.h</title>
<polygon fill="white" stroke="none" points="-4,4 -4,-240 1912,-240 1912,4 -4,4"/>
<!-- Node1 -->
<g id="node1" class="node"><title>Node1</title>
<polygon fill="#bfbfbf" stroke="black" points="973.5,-205 973.5,-235 1128.5,-235 1128.5,-205 973.5,-205"/>
<text text-anchor="start" x="981.5" y="-223" font-family="Helvetica,sans-Serif" font-size="10.00">/home/dagal/git/DamierGL</text>
<text text-anchor="middle" x="1051" y="-212" font-family="Helvetica,sans-Serif" font-size="10.00">/DamierGL/src/CGL/CGLItem.h</text>
</g>
<!-- Node2 -->
<g id="node2" class="node"><title>Node2</title>
<g id="a_node2"><a xlink:href="$db/d17/_c_g_l_boite_8h.xhtml" xlink:title="/home/dagal/git/DamierGL\l/DamierGL/src/CGL/CGLBoite.h">
<polygon fill="white" stroke="black" points="279,-137 279,-167 437,-167 437,-137 279,-137"/>
<text text-anchor="start" x="287" y="-155" font-family="Helvetica,sans-Serif" font-size="10.00">/home/dagal/git/DamierGL</text>
<text text-anchor="middle" x="358" y="-144" font-family="Helvetica,sans-Serif" font-size="10.00">/DamierGL/src/CGL/CGLBoite.h</text>
</a>
</g>
</g>
<!-- Node1&#45;&gt;Node2 -->
<g id="edge1" class="edge"><title>Node1&#45;&gt;Node2</title>
<path fill="none" stroke="midnightblue" d="M963.209,-210.639C827.161,-197.682 567.517,-172.954 437.016,-160.525"/>
<polygon fill="midnightblue" stroke="midnightblue" points="962.9,-214.125 973.187,-211.589 963.563,-207.157 962.9,-214.125"/>
</g>
<!-- Node8 -->
<g id="node8" class="node"><title>Node8</title>
<g id="a_node8"><a xlink:href="$d7/d91/_c_g_l_circle_8h.xhtml" xlink:title="/home/dagal/git/DamierGL\l/DamierGL/src/CGL/CGLCircle.h">
<polygon fill="white" stroke="black" points="532.5,-137 532.5,-167 693.5,-167 693.5,-137 532.5,-137"/>
<text text-anchor="start" x="540.5" y="-155" font-family="Helvetica,sans-Serif" font-size="10.00">/home/dagal/git/DamierGL</text>
<text text-anchor="middle" x="613" y="-144" font-family="Helvetica,sans-Serif" font-size="10.00">/DamierGL/src/CGL/CGLCircle.h</text>
</a>
</g>
</g>
<!-- Node1&#45;&gt;Node8 -->
<g id="edge7" class="edge"><title>Node1&#45;&gt;Node8</title>
<path fill="none" stroke="midnightblue" d="M963.114,-206.699C892.493,-196.684 790.788,-181.968 702,-168 699.214,-167.562 696.379,-167.111 693.517,-166.651"/>
<polygon fill="midnightblue" stroke="midnightblue" points="962.91,-210.205 973.302,-208.142 963.892,-203.274 962.91,-210.205"/>
</g>
<!-- Node10 -->
<g id="node10" class="node"><title>Node10</title>
<g id="a_node10"><a xlink:href="$d5/d21/_c_g_l_dot_8h.xhtml" xlink:title="/home/dagal/git/DamierGL\l/DamierGL/src/CGL/CGLDot.h">
<polygon fill="white" stroke="black" points="711.5,-137 711.5,-167 862.5,-167 862.5,-137 711.5,-137"/>
<text text-anchor="start" x="719.5" y="-155" font-family="Helvetica,sans-Serif" font-size="10.00">/home/dagal/git/DamierGL</text>
<text text-anchor="middle" x="787" y="-144" font-family="Helvetica,sans-Serif" font-size="10.00">/DamierGL/src/CGL/CGLDot.h</text>
</a>
</g>
</g>
<!-- Node1&#45;&gt;Node10 -->
<g id="edge10" class="edge"><title>Node1&#45;&gt;Node10</title>
<path fill="none" stroke="midnightblue" d="M984.744,-202.436C941.126,-191.532 884.648,-177.412 843.224,-167.056"/>
<polygon fill="midnightblue" stroke="midnightblue" points="984.139,-205.892 994.689,-204.922 985.837,-199.101 984.139,-205.892"/>
</g>
<!-- Node12 -->
<g id="node12" class="node"><title>Node12</title>
<g id="a_node12"><a xlink:href="$da/dcb/_c_g_l_item_8cpp.xhtml" xlink:title="/home/dagal/git/DamierGL\l/DamierGL/src/CGL/CGLItem.cpp">
<polygon fill="white" stroke="black" points="880.5,-137 880.5,-167 1045.5,-167 1045.5,-137 880.5,-137"/>
<text text-anchor="start" x="888.5" y="-155" font-family="Helvetica,sans-Serif" font-size="10.00">/home/dagal/git/DamierGL</text>
<text text-anchor="middle" x="963" y="-144" font-family="Helvetica,sans-Serif" font-size="10.00">/DamierGL/src/CGL/CGLItem.cpp</text>
</a>
</g>
</g>
<!-- Node1&#45;&gt;Node12 -->
<g id="edge13" class="edge"><title>Node1&#45;&gt;Node12</title>
<path fill="none" stroke="midnightblue" d="M1023.8,-198.599C1010.16,-188.371 993.99,-176.243 981.755,-167.066"/>
<polygon fill="midnightblue" stroke="midnightblue" points="1021.81,-201.479 1031.91,-204.679 1026.01,-195.879 1021.81,-201.479"/>
</g>
<!-- Node13 -->
<g id="node13" class="node"><title>Node13</title>
<g id="a_node13"><a xlink:href="$df/d4a/_c_g_l_line_8h.xhtml" xlink:title="/home/dagal/git/DamierGL\l/DamierGL/src/CGL/CGLLine.h">
<polygon fill="white" stroke="black" points="1063.5,-137 1063.5,-167 1216.5,-167 1216.5,-137 1063.5,-137"/>
<text text-anchor="start" x="1071.5" y="-155" font-family="Helvetica,sans-Serif" font-size="10.00">/home/dagal/git/DamierGL</text>
<text text-anchor="middle" x="1140" y="-144" font-family="Helvetica,sans-Serif" font-size="10.00">/DamierGL/src/CGL/CGLLine.h</text>
</a>
</g>
</g>
<!-- Node1&#45;&gt;Node13 -->
<g id="edge14" class="edge"><title>Node1&#45;&gt;Node13</title>
<path fill="none" stroke="midnightblue" d="M1078.51,-198.599C1092.3,-188.371 1108.66,-176.243 1121.03,-167.066"/>
<polygon fill="midnightblue" stroke="midnightblue" points="1076.26,-195.911 1070.31,-204.679 1080.43,-201.534 1076.26,-195.911"/>
</g>
<!-- Node15 -->
<g id="node15" class="node"><title>Node15</title>
<g id="a_node15"><a xlink:href="$d3/dbc/_c_g_l_polygon_8h.xhtml" xlink:title="/home/dagal/git/DamierGL\l/DamierGL/src/CGL/CGLPolygon.h">
<polygon fill="white" stroke="black" points="1235,-137 1235,-167 1405,-167 1405,-137 1235,-137"/>
<text text-anchor="start" x="1243" y="-155" font-family="Helvetica,sans-Serif" font-size="10.00">/home/dagal/git/DamierGL</text>
<text text-anchor="middle" x="1320" y="-144" font-family="Helvetica,sans-Serif" font-size="10.00">/DamierGL/src/CGL/CGLPolygon.h</text>
</a>
</g>
</g>
<!-- Node1&#45;&gt;Node15 -->
<g id="edge17" class="edge"><title>Node1&#45;&gt;Node15</title>
<path fill="none" stroke="midnightblue" d="M1118.23,-202.505C1162.71,-191.591 1220.41,-177.434 1262.71,-167.056"/>
<polygon fill="midnightblue" stroke="midnightblue" points="1117.26,-199.14 1108.38,-204.922 1118.92,-205.939 1117.26,-199.14"/>
</g>
<!-- Node17 -->
<g id="node17" class="node"><title>Node17</title>
<g id="a_node17"><a xlink:href="$d2/d91/_c_g_l_quad_8h.xhtml" xlink:title="/home/dagal/git/DamierGL\l/DamierGL/src/CGL/CGLQuad.h">
<polygon fill="white" stroke="black" points="1423,-137 1423,-167 1581,-167 1581,-137 1423,-137"/>
<text text-anchor="start" x="1431" y="-155" font-family="Helvetica,sans-Serif" font-size="10.00">/home/dagal/git/DamierGL</text>
<text text-anchor="middle" x="1502" y="-144" font-family="Helvetica,sans-Serif" font-size="10.00">/DamierGL/src/CGL/CGLQuad.h</text>
</a>
</g>
</g>
<!-- Node1&#45;&gt;Node17 -->
<g id="edge20" class="edge"><title>Node1&#45;&gt;Node17</title>
<path fill="none" stroke="midnightblue" d="M1138.79,-207.398C1212.37,-197.498 1320.16,-182.587 1414,-168 1416.91,-167.548 1419.87,-167.08 1422.86,-166.601"/>
<polygon fill="midnightblue" stroke="midnightblue" points="1138.08,-203.962 1128.64,-208.761 1139.01,-210.899 1138.08,-203.962"/>
</g>
<!-- Node19 -->
<g id="node19" class="node"><title>Node19</title>
<g id="a_node19"><a xlink:href="$d8/d51/_c_g_l_triangle_8h.xhtml" xlink:title="/home/dagal/git/DamierGL\l/DamierGL/src/CGL/CGLTriangle.h">
<polygon fill="white" stroke="black" points="1615,-137 1615,-167 1785,-167 1785,-137 1615,-137"/>
<text text-anchor="start" x="1623" y="-155" font-family="Helvetica,sans-Serif" font-size="10.00">/home/dagal/git/DamierGL</text>
<text text-anchor="middle" x="1700" y="-144" font-family="Helvetica,sans-Serif" font-size="10.00">/DamierGL/src/CGL/CGLTriangle.h</text>
</a>
</g>
</g>
<!-- Node1&#45;&gt;Node19 -->
<g id="edge23" class="edge"><title>Node1&#45;&gt;Node19</title>
<path fill="none" stroke="midnightblue" d="M1138.68,-211.768C1245.26,-202.727 1430.53,-186.211 1589,-168 1597.4,-167.034 1606.16,-165.964 1614.9,-164.852"/>
<polygon fill="midnightblue" stroke="midnightblue" points="1138.28,-208.289 1128.61,-212.619 1138.87,-215.264 1138.28,-208.289"/>
</g>
<!-- Node3 -->
<g id="node3" class="node"><title>Node3</title>
<g id="a_node3"><a xlink:href="$da/d3e/_c_g_l_boite_8cpp.xhtml" xlink:title="/home/dagal/git/DamierGL\l/DamierGL/src/CGL/CGLBoite.cpp">
<polygon fill="white" stroke="black" points="0,-69 0,-99 168,-99 168,-69 0,-69"/>
<text text-anchor="start" x="8" y="-87" font-family="Helvetica,sans-Serif" font-size="10.00">/home/dagal/git/DamierGL</text>
<text text-anchor="middle" x="84" y="-76" font-family="Helvetica,sans-Serif" font-size="10.00">/DamierGL/src/CGL/CGLBoite.cpp</text>
</a>
</g>
</g>
<!-- Node2&#45;&gt;Node3 -->
<g id="edge2" class="edge"><title>Node2&#45;&gt;Node3</title>
<path fill="none" stroke="midnightblue" d="M289.805,-134.574C244.458,-123.651 185.528,-109.456 142.354,-99.0561"/>
<polygon fill="midnightblue" stroke="midnightblue" points="289.015,-137.983 299.556,-136.922 290.654,-131.178 289.015,-137.983"/>
</g>
<!-- Node4 -->
<g id="node4" class="node"><title>Node4</title>
<g id="a_node4"><a xlink:href="$d7/df3/_c_g_l_robot1_8h.xhtml" xlink:title="/home/dagal/git/DamierGL\l/DamierGL/src/CGL/CGLRobot1.h">
<polygon fill="white" stroke="black" points="185.5,-69 185.5,-99 352.5,-99 352.5,-69 185.5,-69"/>
<text text-anchor="start" x="193.5" y="-87" font-family="Helvetica,sans-Serif" font-size="10.00">/home/dagal/git/DamierGL</text>
<text text-anchor="middle" x="269" y="-76" font-family="Helvetica,sans-Serif" font-size="10.00">/DamierGL/src/CGL/CGLRobot1.h</text>
</a>
</g>
</g>
<!-- Node2&#45;&gt;Node4 -->
<g id="edge3" class="edge"><title>Node2&#45;&gt;Node4</title>
<path fill="none" stroke="midnightblue" d="M330.49,-130.599C316.697,-120.371 300.343,-108.243 287.968,-99.0663"/>
<polygon fill="midnightblue" stroke="midnightblue" points="328.571,-133.534 338.688,-136.679 332.741,-127.911 328.571,-133.534"/>
</g>
<!-- Node7 -->
<g id="node7" class="node"><title>Node7</title>
<g id="a_node7"><a xlink:href="$d0/d58/_c_g_l_scene_8cpp.xhtml" xlink:title="/home/dagal/git/DamierGL\l/DamierGL/src/CGL/CGLScene.cpp">
<polygon fill="white" stroke="black" points="370.5,-69 370.5,-99 543.5,-99 543.5,-69 370.5,-69"/>
<text text-anchor="start" x="378.5" y="-87" font-family="Helvetica,sans-Serif" font-size="10.00">/home/dagal/git/DamierGL</text>
<text text-anchor="middle" x="457" y="-76" font-family="Helvetica,sans-Serif" font-size="10.00">/DamierGL/src/CGL/CGLScene.cpp</text>
</a>
</g>
</g>
<!-- Node2&#45;&gt;Node7 -->
<g id="edge6" class="edge"><title>Node2&#45;&gt;Node7</title>
<path fill="none" stroke="midnightblue" d="M388.167,-130.888C403.6,-120.6 422.006,-108.329 435.901,-99.0663"/>
<polygon fill="midnightblue" stroke="midnightblue" points="385.861,-128.22 379.482,-136.679 389.744,-134.044 385.861,-128.22"/>
</g>
<!-- Node5 -->
<g id="node5" class="node"><title>Node5</title>
<g id="a_node5"><a xlink:href="$dc/d01/_c_g_l_robot1_8cpp.xhtml" xlink:title="/home/dagal/git/DamierGL\l/DamierGL/src/CGL/CGLRobot1.cpp">
<polygon fill="white" stroke="black" points="180.5,-1 180.5,-31 357.5,-31 357.5,-1 180.5,-1"/>
<text text-anchor="start" x="188.5" y="-19" font-family="Helvetica,sans-Serif" font-size="10.00">/home/dagal/git/DamierGL</text>
<text text-anchor="middle" x="269" y="-8" font-family="Helvetica,sans-Serif" font-size="10.00">/DamierGL/src/CGL/CGLRobot1.cpp</text>
</a>
</g>
</g>
<!-- Node4&#45;&gt;Node5 -->
<g id="edge4" class="edge"><title>Node4&#45;&gt;Node5</title>
<path fill="none" stroke="midnightblue" d="M269,-58.5322C269,-49.3606 269,-39.2449 269,-31.2931"/>
<polygon fill="midnightblue" stroke="midnightblue" points="265.5,-58.6789 269,-68.679 272.5,-58.679 265.5,-58.6789"/>
</g>
<!-- Node6 -->
<g id="node6" class="node"><title>Node6</title>
<g id="a_node6"><a xlink:href="$db/dec/_damier_g_l_8cpp.xhtml" xlink:title="/home/dagal/git/DamierGL\l/DamierGL/src/DamierGL.cpp">
<polygon fill="white" stroke="black" points="945,-1 945,-31 1091,-31 1091,-1 945,-1"/>
<text text-anchor="start" x="953" y="-19" font-family="Helvetica,sans-Serif" font-size="10.00">/home/dagal/git/DamierGL</text>
<text text-anchor="middle" x="1018" y="-8" font-family="Helvetica,sans-Serif" font-size="10.00">/DamierGL/src/DamierGL.cpp</text>
</a>
</g>
</g>
<!-- Node4&#45;&gt;Node6 -->
<g id="edge5" class="edge"><title>Node4&#45;&gt;Node6</title>
<path fill="none" stroke="midnightblue" d="M362.687,-67.8551C579.847,-42.157 825.207,-27.0998 944.886,-20.6618"/>
<polygon fill="midnightblue" stroke="midnightblue" points="362.209,-64.3872 352.694,-69.0476 363.039,-71.3379 362.209,-64.3872"/>
</g>
<!-- Node8&#45;&gt;Node6 -->
<g id="edge9" class="edge"><title>Node8&#45;&gt;Node6</title>
<path fill="none" stroke="midnightblue" d="M596.922,-128.272C586.107,-109.953 576.269,-84.5949 591,-68 614.047,-42.037 829.014,-26.8789 944.851,-20.5306"/>
<polygon fill="midnightblue" stroke="midnightblue" points="594.066,-130.304 602.374,-136.879 599.98,-126.558 594.066,-130.304"/>
</g>
<!-- Node9 -->
<g id="node9" class="node"><title>Node9</title>
<g id="a_node9"><a xlink:href="$dc/d7e/_c_g_l_circle_8cpp.xhtml" xlink:title="/home/dagal/git/DamierGL\l/DamierGL/src/CGL/CGLCircle.cpp">
<polygon fill="white" stroke="black" points="600.5,-69 600.5,-99 771.5,-99 771.5,-69 600.5,-69"/>
<text text-anchor="start" x="608.5" y="-87" font-family="Helvetica,sans-Serif" font-size="10.00">/home/dagal/git/DamierGL</text>
<text text-anchor="middle" x="686" y="-76" font-family="Helvetica,sans-Serif" font-size="10.00">/DamierGL/src/CGL/CGLCircle.cpp</text>
</a>
</g>
</g>
<!-- Node8&#45;&gt;Node9 -->
<g id="edge8" class="edge"><title>Node8&#45;&gt;Node9</title>
<path fill="none" stroke="midnightblue" d="M636.53,-129.727C647.634,-119.687 660.579,-107.983 670.442,-99.0663"/>
<polygon fill="midnightblue" stroke="midnightblue" points="633.91,-127.376 628.84,-136.679 638.605,-132.569 633.91,-127.376"/>
</g>
<!-- Node10&#45;&gt;Node6 -->
<g id="edge12" class="edge"><title>Node10&#45;&gt;Node6</title>
<path fill="none" stroke="midnightblue" d="M790.239,-126.867C794.005,-108.205 802.039,-83.0831 819,-68 853.247,-37.5453 903.253,-24.8145 944.568,-19.6877"/>
<polygon fill="midnightblue" stroke="midnightblue" points="786.79,-126.271 788.518,-136.724 793.686,-127.475 786.79,-126.271"/>
</g>
<!-- Node11 -->
<g id="node11" class="node"><title>Node11</title>
<g id="a_node11"><a xlink:href="$d2/d5a/_c_g_l_dot_8cpp.xhtml" xlink:title="/home/dagal/git/DamierGL\l/DamierGL/src/CGL/CGLDot.cpp">
<polygon fill="white" stroke="black" points="828.5,-69 828.5,-99 989.5,-99 989.5,-69 828.5,-69"/>
<text text-anchor="start" x="836.5" y="-87" font-family="Helvetica,sans-Serif" font-size="10.00">/home/dagal/git/DamierGL</text>
<text text-anchor="middle" x="909" y="-76" font-family="Helvetica,sans-Serif" font-size="10.00">/DamierGL/src/CGL/CGLDot.cpp</text>
</a>
</g>
</g>
<!-- Node10&#45;&gt;Node11 -->
<g id="edge11" class="edge"><title>Node10&#45;&gt;Node11</title>
<path fill="none" stroke="midnightblue" d="M822.02,-132.055C841.412,-121.564 865.111,-108.743 882.871,-99.1352"/>
<polygon fill="midnightblue" stroke="midnightblue" points="820.302,-129.005 813.172,-136.841 823.633,-135.162 820.302,-129.005"/>
</g>
<!-- Node13&#45;&gt;Node6 -->
<g id="edge16" class="edge"><title>Node13&#45;&gt;Node6</title>
<path fill="none" stroke="midnightblue" d="M1081.78,-132.973C1065.16,-125.239 1048.47,-114.539 1037,-100 1021.16,-79.9237 1018.05,-49.0773 1017.7,-31.1857"/>
<polygon fill="midnightblue" stroke="midnightblue" points="1080.41,-136.192 1090.98,-136.97 1083.2,-129.773 1080.41,-136.192"/>
</g>
<!-- Node14 -->
<g id="node14" class="node"><title>Node14</title>
<g id="a_node14"><a xlink:href="$df/de2/_c_g_l_line_8cpp.xhtml" xlink:title="/home/dagal/git/DamierGL\l/DamierGL/src/CGL/CGLLine.cpp">
<polygon fill="white" stroke="black" points="1046,-69 1046,-99 1210,-99 1210,-69 1046,-69"/>
<text text-anchor="start" x="1054" y="-87" font-family="Helvetica,sans-Serif" font-size="10.00">/home/dagal/git/DamierGL</text>
<text text-anchor="middle" x="1128" y="-76" font-family="Helvetica,sans-Serif" font-size="10.00">/DamierGL/src/CGL/CGLLine.cpp</text>
</a>
</g>
</g>
<!-- Node13&#45;&gt;Node14 -->
<g id="edge15" class="edge"><title>Node13&#45;&gt;Node14</title>
<path fill="none" stroke="midnightblue" d="M1135.61,-126.831C1133.92,-117.581 1132.06,-107.331 1130.6,-99.2931"/>
<polygon fill="midnightblue" stroke="midnightblue" points="1132.16,-127.466 1137.4,-136.679 1139.05,-126.214 1132.16,-127.466"/>
</g>
<!-- Node15&#45;&gt;Node6 -->
<g id="edge19" class="edge"><title>Node15&#45;&gt;Node6</title>
<path fill="none" stroke="midnightblue" d="M1294.36,-130.431C1282.89,-121.18 1269.22,-110.094 1257,-100 1239.97,-85.942 1238.64,-78.0819 1219,-68 1179.12,-47.5335 1130.49,-34.9116 1091.06,-27.3448"/>
<polygon fill="midnightblue" stroke="midnightblue" points="1292.29,-133.257 1302.27,-136.802 1296.68,-127.804 1292.29,-133.257"/>
</g>
<!-- Node16 -->
<g id="node16" class="node"><title>Node16</title>
<g id="a_node16"><a xlink:href="$d4/d36/_c_g_l_polygon_8cpp.xhtml" xlink:title="/home/dagal/git/DamierGL\l/DamierGL/src/CGL/CGLPolygon.cpp">
<polygon fill="white" stroke="black" points="1266.5,-69 1266.5,-99 1447.5,-99 1447.5,-69 1266.5,-69"/>
<text text-anchor="start" x="1274.5" y="-87" font-family="Helvetica,sans-Serif" font-size="10.00">/home/dagal/git/DamierGL</text>
<text text-anchor="middle" x="1357" y="-76" font-family="Helvetica,sans-Serif" font-size="10.00">/DamierGL/src/CGL/CGLPolygon.cpp</text>
</a>
</g>
</g>
<!-- Node15&#45;&gt;Node16 -->
<g id="edge18" class="edge"><title>Node15&#45;&gt;Node16</title>
<path fill="none" stroke="midnightblue" d="M1333.05,-127.723C1338.36,-118.244 1344.34,-107.591 1348.99,-99.2931"/>
<polygon fill="midnightblue" stroke="midnightblue" points="1329.87,-126.245 1328.03,-136.679 1335.97,-129.668 1329.87,-126.245"/>
</g>
<!-- Node17&#45;&gt;Node6 -->
<g id="edge22" class="edge"><title>Node17&#45;&gt;Node6</title>
<path fill="none" stroke="midnightblue" d="M1495.44,-127.182C1488.8,-107.899 1476.53,-81.7587 1456,-68 1397.97,-29.1159 1200.08,-19.7531 1091.23,-17.5822"/>
<polygon fill="midnightblue" stroke="midnightblue" points="1492.13,-128.327 1498.48,-136.803 1498.8,-126.213 1492.13,-128.327"/>
</g>
<!-- Node18 -->
<g id="node18" class="node"><title>Node18</title>
<g id="a_node18"><a xlink:href="$d4/d6e/_c_g_l_quad_8cpp.xhtml" xlink:title="/home/dagal/git/DamierGL\l/DamierGL/src/CGL/CGLQuad.cpp">
<polygon fill="white" stroke="black" points="1503.5,-69 1503.5,-99 1672.5,-99 1672.5,-69 1503.5,-69"/>
<text text-anchor="start" x="1511.5" y="-87" font-family="Helvetica,sans-Serif" font-size="10.00">/home/dagal/git/DamierGL</text>
<text text-anchor="middle" x="1588" y="-76" font-family="Helvetica,sans-Serif" font-size="10.00">/DamierGL/src/CGL/CGLQuad.cpp</text>
</a>
</g>
</g>
<!-- Node17&#45;&gt;Node18 -->
<g id="edge21" class="edge"><title>Node17&#45;&gt;Node18</title>
<path fill="none" stroke="midnightblue" d="M1528.96,-130.309C1542.21,-120.143 1557.83,-108.156 1569.67,-99.0663"/>
<polygon fill="midnightblue" stroke="midnightblue" points="1526.46,-127.814 1520.66,-136.679 1530.72,-133.367 1526.46,-127.814"/>
</g>
<!-- Node19&#45;&gt;Node6 -->
<g id="edge25" class="edge"><title>Node19&#45;&gt;Node6</title>
<path fill="none" stroke="midnightblue" d="M1701.56,-126.701C1701.32,-107.727 1697.55,-82.2637 1681,-68 1637.11,-30.1781 1254.35,-20.3127 1091.18,-17.8161"/>
<polygon fill="midnightblue" stroke="midnightblue" points="1698.06,-126.661 1701.37,-136.725 1705.06,-126.793 1698.06,-126.661"/>
</g>
<!-- Node20 -->
<g id="node20" class="node"><title>Node20</title>
<g id="a_node20"><a xlink:href="$d7/da9/_c_g_l_triangle_8cpp.xhtml" xlink:title="/home/dagal/git/DamierGL\l/DamierGL/src/CGL/CGLTriangle.cpp">
<polygon fill="white" stroke="black" points="1728,-69 1728,-99 1908,-99 1908,-69 1728,-69"/>
<text text-anchor="start" x="1736" y="-87" font-family="Helvetica,sans-Serif" font-size="10.00">/home/dagal/git/DamierGL</text>
<text text-anchor="middle" x="1818" y="-76" font-family="Helvetica,sans-Serif" font-size="10.00">/DamierGL/src/CGL/CGLTriangle.cpp</text>
</a>
</g>
</g>
<!-- Node19&#45;&gt;Node20 -->
<g id="edge24" class="edge"><title>Node19&#45;&gt;Node20</title>
<path fill="none" stroke="midnightblue" d="M1734.13,-131.912C1752.84,-121.448 1775.63,-108.7 1792.73,-99.1352"/>
<polygon fill="midnightblue" stroke="midnightblue" points="1732.33,-128.905 1725.31,-136.841 1735.75,-135.014 1732.33,-128.905"/>
</g>
</g>
</svg>
