<?xml version="1.0" encoding="UTF-8" standalone="no"?>
<!DOCTYPE svg PUBLIC "-//W3C//DTD SVG 1.1//EN"
 "http://www.w3.org/Graphics/SVG/1.1/DTD/svg11.dtd">
<!-- Generated by graphviz version 2.36.0 (20140111.2315)
 -->
<!-- Title: /home/dagal/git/DamierGL/DamierGL/src/CGL/CGLItem.h Pages: 1 -->
<svg width="1214pt" height="244pt"
 viewBox="0.00 0.00 1214.00 244.00" xmlns="http://www.w3.org/2000/svg" xmlns:xlink="http://www.w3.org/1999/xlink">
<g id="graph0" class="graph" transform="scale(1 1) rotate(0) translate(4 240)">
<title>/home/dagal/git/DamierGL/DamierGL/src/CGL/CGLItem.h</title>
<polygon fill="white" stroke="none" points="-4,4 -4,-240 1210,-240 1210,4 -4,4"/>
<!-- Node1 -->
<g id="node1" class="node"><title>Node1</title>
<polygon fill="#bfbfbf" stroke="black" points="645.5,-205 645.5,-235 800.5,-235 800.5,-205 645.5,-205"/>
<text text-anchor="start" x="653.5" y="-223" font-family="Helvetica,sans-Serif" font-size="10.00">/home/dagal/git/DamierGL</text>
<text text-anchor="middle" x="723" y="-212" font-family="Helvetica,sans-Serif" font-size="10.00">/DamierGL/src/CGL/CGLItem.h</text>
</g>
<!-- Node2 -->
<g id="node2" class="node"><title>Node2</title>
<g id="a_node2"><a xlink:href="$db/d17/_c_g_l_boite_8h.xhtml" xlink:title="/home/dagal/git/DamierGL\l/DamierGL/src/CGL/CGLBoite.h">
<polygon fill="white" stroke="black" points="242,-137 242,-167 400,-167 400,-137 242,-137"/>
<text text-anchor="start" x="250" y="-155" font-family="Helvetica,sans-Serif" font-size="10.00">/home/dagal/git/DamierGL</text>
<text text-anchor="middle" x="321" y="-144" font-family="Helvetica,sans-Serif" font-size="10.00">/DamierGL/src/CGL/CGLBoite.h</text>
</a>
</g>
</g>
<!-- Node1&#45;&gt;Node2 -->
<g id="edge1" class="edge"><title>Node1&#45;&gt;Node2</title>
<path fill="none" stroke="midnightblue" d="M635.365,-204.612C565.349,-193.117 468.065,-177.145 400.332,-166.025"/>
<polygon fill="midnightblue" stroke="midnightblue" points="635.055,-208.108 645.49,-206.275 636.19,-201.201 635.055,-208.108"/>
</g>
<!-- Node8 -->
<g id="node8" class="node"><title>Node8</title>
<g id="a_node8"><a xlink:href="$d5/d21/_c_g_l_dot_8h.xhtml" xlink:title="/home/dagal/git/DamierGL\l/DamierGL/src/CGL/CGLDot.h">
<polygon fill="white" stroke="black" points="471.5,-137 471.5,-167 622.5,-167 622.5,-137 471.5,-137"/>
<text text-anchor="start" x="479.5" y="-155" font-family="Helvetica,sans-Serif" font-size="10.00">/home/dagal/git/DamierGL</text>
<text text-anchor="middle" x="547" y="-144" font-family="Helvetica,sans-Serif" font-size="10.00">/DamierGL/src/CGL/CGLDot.h</text>
</a>
</g>
</g>
<!-- Node1&#45;&gt;Node8 -->
<g id="edge7" class="edge"><title>Node1&#45;&gt;Node8</title>
<path fill="none" stroke="midnightblue" d="M675.832,-201.312C647.167,-190.563 611.077,-177.029 584.392,-167.022"/>
<polygon fill="midnightblue" stroke="midnightblue" points="674.651,-204.607 685.244,-204.841 677.109,-198.053 674.651,-204.607"/>
</g>
<!-- Node10 -->
<g id="node10" class="node"><title>Node10</title>
<g id="a_node10"><a xlink:href="$da/dcb/_c_g_l_item_8cpp.xhtml" xlink:title="/home/dagal/git/DamierGL\l/DamierGL/src/CGL/CGLItem.cpp">
<polygon fill="white" stroke="black" points="640.5,-137 640.5,-167 805.5,-167 805.5,-137 640.5,-137"/>
<text text-anchor="start" x="648.5" y="-155" font-family="Helvetica,sans-Serif" font-size="10.00">/home/dagal/git/DamierGL</text>
<text text-anchor="middle" x="723" y="-144" font-family="Helvetica,sans-Serif" font-size="10.00">/DamierGL/src/CGL/CGLItem.cpp</text>
</a>
</g>
</g>
<!-- Node1&#45;&gt;Node10 -->
<g id="edge10" class="edge"><title>Node1&#45;&gt;Node10</title>
<path fill="none" stroke="midnightblue" d="M723,-194.532C723,-185.361 723,-175.245 723,-167.293"/>
<polygon fill="midnightblue" stroke="midnightblue" points="719.5,-194.679 723,-204.679 726.5,-194.679 719.5,-194.679"/>
</g>
<!-- Node11 -->
<g id="node11" class="node"><title>Node11</title>
<g id="a_node11"><a xlink:href="$df/d4a/_c_g_l_line_8h.xhtml" xlink:title="/home/dagal/git/DamierGL\l/DamierGL/src/CGL/CGLLine.h">
<polygon fill="white" stroke="black" points="823.5,-137 823.5,-167 976.5,-167 976.5,-137 823.5,-137"/>
<text text-anchor="start" x="831.5" y="-155" font-family="Helvetica,sans-Serif" font-size="10.00">/home/dagal/git/DamierGL</text>
<text text-anchor="middle" x="900" y="-144" font-family="Helvetica,sans-Serif" font-size="10.00">/DamierGL/src/CGL/CGLLine.h</text>
</a>
</g>
</g>
<!-- Node1&#45;&gt;Node11 -->
<g id="edge11" class="edge"><title>Node1&#45;&gt;Node11</title>
<path fill="none" stroke="midnightblue" d="M770.436,-201.312C799.264,-190.563 835.559,-177.029 862.396,-167.022"/>
<polygon fill="midnightblue" stroke="midnightblue" points="769.118,-198.068 760.971,-204.841 771.564,-204.627 769.118,-198.068"/>
</g>
<!-- Node13 -->
<g id="node13" class="node"><title>Node13</title>
<g id="a_node13"><a xlink:href="$d2/d91/_c_g_l_quad_8h.xhtml" xlink:title="/home/dagal/git/DamierGL\l/DamierGL/src/CGL/CGLQuad.h">
<polygon fill="white" stroke="black" points="995,-137 995,-167 1153,-167 1153,-137 995,-137"/>
<text text-anchor="start" x="1003" y="-155" font-family="Helvetica,sans-Serif" font-size="10.00">/home/dagal/git/DamierGL</text>
<text text-anchor="middle" x="1074" y="-144" font-family="Helvetica,sans-Serif" font-size="10.00">/DamierGL/src/CGL/CGLQuad.h</text>
</a>
</g>
</g>
<!-- Node1&#45;&gt;Node13 -->
<g id="edge14" class="edge"><title>Node1&#45;&gt;Node13</title>
<path fill="none" stroke="midnightblue" d="M807.813,-203.052C866.229,-192.068 943.129,-177.608 999.247,-167.056"/>
<polygon fill="midnightblue" stroke="midnightblue" points="807.049,-199.635 797.868,-204.922 808.342,-206.514 807.049,-199.635"/>
</g>
<!-- Node3 -->
<g id="node3" class="node"><title>Node3</title>
<g id="a_node3"><a xlink:href="$da/d3e/_c_g_l_boite_8cpp.xhtml" xlink:title="/home/dagal/git/DamierGL\l/DamierGL/src/CGL/CGLBoite.cpp">
<polygon fill="white" stroke="black" points="0,-69 0,-99 168,-99 168,-69 0,-69"/>
<text text-anchor="start" x="8" y="-87" font-family="Helvetica,sans-Serif" font-size="10.00">/home/dagal/git/DamierGL</text>
<text text-anchor="middle" x="84" y="-76" font-family="Helvetica,sans-Serif" font-size="10.00">/DamierGL/src/CGL/CGLBoite.cpp</text>
</a>
</g>
</g>
<!-- Node2&#45;&gt;Node3 -->
<g id="edge2" class="edge"><title>Node2&#45;&gt;Node3</title>
<path fill="none" stroke="midnightblue" d="M260.777,-134.229C221.723,-123.353 171.426,-109.347 134.474,-99.0561"/>
<polygon fill="midnightblue" stroke="midnightblue" points="259.876,-137.611 270.448,-136.922 261.754,-130.868 259.876,-137.611"/>
</g>
<!-- Node4 -->
<g id="node4" class="node"><title>Node4</title>
<g id="a_node4"><a xlink:href="$d7/df3/_c_g_l_robot1_8h.xhtml" xlink:title="/home/dagal/git/DamierGL\l/DamierGL/src/CGL/CGLRobot1.h">
<polygon fill="white" stroke="black" points="185.5,-69 185.5,-99 352.5,-99 352.5,-69 185.5,-69"/>
<text text-anchor="start" x="193.5" y="-87" font-family="Helvetica,sans-Serif" font-size="10.00">/home/dagal/git/DamierGL</text>
<text text-anchor="middle" x="269" y="-76" font-family="Helvetica,sans-Serif" font-size="10.00">/DamierGL/src/CGL/CGLRobot1.h</text>
</a>
</g>
</g>
<!-- Node2&#45;&gt;Node4 -->
<g id="edge3" class="edge"><title>Node2&#45;&gt;Node4</title>
<path fill="none" stroke="midnightblue" d="M303.358,-128.608C295.719,-118.912 287.003,-107.85 280.261,-99.2931"/>
<polygon fill="midnightblue" stroke="midnightblue" points="300.779,-130.99 309.717,-136.679 306.277,-126.658 300.779,-130.99"/>
</g>
<!-- Node7 -->
<g id="node7" class="node"><title>Node7</title>
<g id="a_node7"><a xlink:href="$d0/d58/_c_g_l_scene_8cpp.xhtml" xlink:title="/home/dagal/git/DamierGL\l/DamierGL/src/CGL/CGLScene.cpp">
<polygon fill="white" stroke="black" points="370.5,-69 370.5,-99 543.5,-99 543.5,-69 370.5,-69"/>
<text text-anchor="start" x="378.5" y="-87" font-family="Helvetica,sans-Serif" font-size="10.00">/home/dagal/git/DamierGL</text>
<text text-anchor="middle" x="457" y="-76" font-family="Helvetica,sans-Serif" font-size="10.00">/DamierGL/src/CGL/CGLScene.cpp</text>
</a>
</g>
</g>
<!-- Node2&#45;&gt;Node7 -->
<g id="edge6" class="edge"><title>Node2&#45;&gt;Node7</title>
<path fill="none" stroke="midnightblue" d="M359.453,-132.339C381.177,-121.796 407.895,-108.83 427.873,-99.1352"/>
<polygon fill="midnightblue" stroke="midnightblue" points="357.644,-129.327 350.175,-136.841 360.7,-135.624 357.644,-129.327"/>
</g>
<!-- Node5 -->
<g id="node5" class="node"><title>Node5</title>
<g id="a_node5"><a xlink:href="$dc/d01/_c_g_l_robot1_8cpp.xhtml" xlink:title="/home/dagal/git/DamierGL\l/DamierGL/src/CGL/CGLRobot1.cpp">
<polygon fill="white" stroke="black" points="180.5,-1 180.5,-31 357.5,-31 357.5,-1 180.5,-1"/>
<text text-anchor="start" x="188.5" y="-19" font-family="Helvetica,sans-Serif" font-size="10.00">/home/dagal/git/DamierGL</text>
<text text-anchor="middle" x="269" y="-8" font-family="Helvetica,sans-Serif" font-size="10.00">/DamierGL/src/CGL/CGLRobot1.cpp</text>
</a>
</g>
</g>
<!-- Node4&#45;&gt;Node5 -->
<g id="edge4" class="edge"><title>Node4&#45;&gt;Node5</title>
<path fill="none" stroke="midnightblue" d="M269,-58.5322C269,-49.3606 269,-39.2449 269,-31.2931"/>
<polygon fill="midnightblue" stroke="midnightblue" points="265.5,-58.6789 269,-68.679 272.5,-58.679 265.5,-58.6789"/>
</g>
<!-- Node6 -->
<g id="node6" class="node"><title>Node6</title>
<g id="a_node6"><a xlink:href="$db/dec/_damier_g_l_8cpp.xhtml" xlink:title="/home/dagal/git/DamierGL\l/DamierGL/src/DamierGL.cpp">
<polygon fill="white" stroke="black" points="608,-1 608,-31 754,-31 754,-1 608,-1"/>
<text text-anchor="start" x="616" y="-19" font-family="Helvetica,sans-Serif" font-size="10.00">/home/dagal/git/DamierGL</text>
<text text-anchor="middle" x="681" y="-8" font-family="Helvetica,sans-Serif" font-size="10.00">/DamierGL/src/DamierGL.cpp</text>
</a>
</g>
</g>
<!-- Node4&#45;&gt;Node6 -->
<g id="edge5" class="edge"><title>Node4&#45;&gt;Node6</title>
<path fill="none" stroke="midnightblue" d="M362.827,-67.7081C452.69,-53.2337 545.386,-38.4897 607.91,-28.5726"/>
<polygon fill="midnightblue" stroke="midnightblue" points="362.051,-64.2881 352.735,-69.3346 363.164,-71.1989 362.051,-64.2881"/>
</g>
<!-- Node8&#45;&gt;Node6 -->
<g id="edge9" class="edge"><title>Node8&#45;&gt;Node6</title>
<path fill="none" stroke="midnightblue" d="M555.301,-127.391C562.54,-109.43 574.481,-84.9895 591,-68 606.399,-52.1622 627.777,-39.7701 645.834,-31.1689"/>
<polygon fill="midnightblue" stroke="midnightblue" points="551.982,-126.272 551.674,-136.863 558.519,-128.776 551.982,-126.272"/>
</g>
<!-- Node9 -->
<g id="node9" class="node"><title>Node9</title>
<g id="a_node9"><a xlink:href="$d2/d5a/_c_g_l_dot_8cpp.xhtml" xlink:title="/home/dagal/git/DamierGL\l/DamierGL/src/CGL/CGLDot.cpp">
<polygon fill="white" stroke="black" points="600.5,-69 600.5,-99 761.5,-99 761.5,-69 600.5,-69"/>
<text text-anchor="start" x="608.5" y="-87" font-family="Helvetica,sans-Serif" font-size="10.00">/home/dagal/git/DamierGL</text>
<text text-anchor="middle" x="681" y="-76" font-family="Helvetica,sans-Serif" font-size="10.00">/DamierGL/src/CGL/CGLDot.cpp</text>
</a>
</g>
</g>
<!-- Node8&#45;&gt;Node9 -->
<g id="edge8" class="edge"><title>Node8&#45;&gt;Node9</title>
<path fill="none" stroke="midnightblue" d="M584.888,-132.339C606.292,-121.796 632.617,-108.83 652.301,-99.1352"/>
<polygon fill="midnightblue" stroke="midnightblue" points="583.171,-129.283 575.746,-136.841 586.264,-135.563 583.171,-129.283"/>
</g>
<!-- Node11&#45;&gt;Node6 -->
<g id="edge13" class="edge"><title>Node11&#45;&gt;Node6</title>
<path fill="none" stroke="midnightblue" d="M862.763,-132.055C845.93,-123.008 826.038,-111.631 809,-100 790.482,-87.359 788.458,-80.7292 770,-68 750.062,-54.25 726.19,-40.7158 708.191,-31.0487"/>
<polygon fill="midnightblue" stroke="midnightblue" points="861.288,-135.235 871.762,-136.828 864.568,-129.051 861.288,-135.235"/>
</g>
<!-- Node12 -->
<g id="node12" class="node"><title>Node12</title>
<g id="a_node12"><a xlink:href="$df/de2/_c_g_l_line_8cpp.xhtml" xlink:title="/home/dagal/git/DamierGL\l/DamierGL/src/CGL/CGLLine.cpp">
<polygon fill="white" stroke="black" points="818,-69 818,-99 982,-99 982,-69 818,-69"/>
<text text-anchor="start" x="826" y="-87" font-family="Helvetica,sans-Serif" font-size="10.00">/home/dagal/git/DamierGL</text>
<text text-anchor="middle" x="900" y="-76" font-family="Helvetica,sans-Serif" font-size="10.00">/DamierGL/src/CGL/CGLLine.cpp</text>
</a>
</g>
</g>
<!-- Node11&#45;&gt;Node12 -->
<g id="edge12" class="edge"><title>Node11&#45;&gt;Node12</title>
<path fill="none" stroke="midnightblue" d="M900,-126.532C900,-117.361 900,-107.245 900,-99.2931"/>
<polygon fill="midnightblue" stroke="midnightblue" points="896.5,-126.679 900,-136.679 903.5,-126.679 896.5,-126.679"/>
</g>
<!-- Node13&#45;&gt;Node6 -->
<g id="edge16" class="edge"><title>Node13&#45;&gt;Node6</title>
<path fill="none" stroke="midnightblue" d="M1054.94,-129.094C1035.38,-107.153 1005.77,-75.5835 991,-68 950.725,-47.3271 832.336,-32.0204 754.071,-23.8129"/>
<polygon fill="midnightblue" stroke="midnightblue" points="1052.4,-131.506 1061.65,-136.679 1057.65,-126.869 1052.4,-131.506"/>
</g>
<!-- Node14 -->
<g id="node14" class="node"><title>Node14</title>
<g id="a_node14"><a xlink:href="$d4/d6e/_c_g_l_quad_8cpp.xhtml" xlink:title="/home/dagal/git/DamierGL\l/DamierGL/src/CGL/CGLQuad.cpp">
<polygon fill="white" stroke="black" points="1037.5,-69 1037.5,-99 1206.5,-99 1206.5,-69 1037.5,-69"/>
<text text-anchor="start" x="1045.5" y="-87" font-family="Helvetica,sans-Serif" font-size="10.00">/home/dagal/git/DamierGL</text>
<text text-anchor="middle" x="1122" y="-76" font-family="Helvetica,sans-Serif" font-size="10.00">/DamierGL/src/CGL/CGLQuad.cpp</text>
</a>
</g>
</g>
<!-- Node13&#45;&gt;Node14 -->
<g id="edge15" class="edge"><title>Node13&#45;&gt;Node14</title>
<path fill="none" stroke="midnightblue" d="M1090.5,-128.314C1097.5,-118.689 1105.44,-107.763 1111.61,-99.2931"/>
<polygon fill="midnightblue" stroke="midnightblue" points="1087.47,-126.533 1084.42,-136.679 1093.13,-130.65 1087.47,-126.533"/>
</g>
</g>
</svg>
