<?xml version="1.0" encoding="UTF-8" standalone="no"?>
<!DOCTYPE svg PUBLIC "-//W3C//DTD SVG 1.1//EN"
 "http://www.w3.org/Graphics/SVG/1.1/DTD/svg11.dtd">
<!-- Generated by graphviz version 2.36.0 (20140111.2315)
 -->
<!-- Title: CGLItem Pages: 1 -->
<svg width="815pt" height="498pt"
 viewBox="0.00 0.00 815.00 498.00" xmlns="http://www.w3.org/2000/svg" xmlns:xlink="http://www.w3.org/1999/xlink">
<g id="graph0" class="graph" transform="scale(1 1) rotate(0) translate(4 494)">
<title>CGLItem</title>
<polygon fill="white" stroke="none" points="-4,4 -4,-494 811,-494 811,4 -4,4"/>
<!-- Node1 -->
<g id="node1" class="node"><title>Node1</title>
<polygon fill="#bfbfbf" stroke="black" points="352.5,-129 352.5,-197 429.5,-197 429.5,-129 352.5,-129"/>
<text text-anchor="middle" x="391" y="-185" font-family="Helvetica,sans-Serif" font-size="10.00">CGLItem</text>
<polyline fill="none" stroke="black" points="352.5,-178 429.5,-178 "/>
<text text-anchor="middle" x="391" y="-166" font-family="Helvetica,sans-Serif" font-size="10.00"> </text>
<polyline fill="none" stroke="black" points="352.5,-159 429.5,-159 "/>
<text text-anchor="start" x="360.5" y="-147" font-family="Helvetica,sans-Serif" font-size="10.00">+ CGLItem()</text>
<text text-anchor="start" x="360.5" y="-136" font-family="Helvetica,sans-Serif" font-size="10.00">+ ~CGLItem()</text>
</g>
<!-- Node3 -->
<g id="node3" class="node"><title>Node3</title>
<g id="a_node3"><a xlink:href="$dd/daf/class_c_g_l_boite.xhtml" xlink:title="{CGLBoite\n||+ CGLBoite()\l+ ~CGLBoite()\l+ setTaille()\l+ drawObject()\l}">
<polygon fill="white" stroke="black" points="-0.5,-1 -0.5,-91 80.5,-91 80.5,-1 -0.5,-1"/>
<text text-anchor="middle" x="40" y="-79" font-family="Helvetica,sans-Serif" font-size="10.00">CGLBoite</text>
<polyline fill="none" stroke="black" points="-0.5,-72 80.5,-72 "/>
<text text-anchor="middle" x="40" y="-60" font-family="Helvetica,sans-Serif" font-size="10.00"> </text>
<polyline fill="none" stroke="black" points="-0.5,-53 80.5,-53 "/>
<text text-anchor="start" x="7.5" y="-41" font-family="Helvetica,sans-Serif" font-size="10.00">+ CGLBoite()</text>
<text text-anchor="start" x="7.5" y="-30" font-family="Helvetica,sans-Serif" font-size="10.00">+ ~CGLBoite()</text>
<text text-anchor="start" x="7.5" y="-19" font-family="Helvetica,sans-Serif" font-size="10.00">+ setTaille()</text>
<text text-anchor="start" x="7.5" y="-8" font-family="Helvetica,sans-Serif" font-size="10.00">+ drawObject()</text>
</a>
</g>
</g>
<!-- Node1&#45;&gt;Node3 -->
<g id="edge2" class="edge"><title>Node1&#45;&gt;Node3</title>
<path fill="none" stroke="midnightblue" d="M341.802,-158.341C279.716,-152.039 171.129,-135.314 89,-92 86.1394,-90.4914 83.3184,-88.7744 80.5626,-86.9128"/>
<polygon fill="none" stroke="midnightblue" points="341.807,-161.858 352.097,-159.334 342.479,-154.89 341.807,-161.858"/>
</g>
<!-- Node4 -->
<g id="node4" class="node"><title>Node4</title>
<g id="a_node4"><a xlink:href="$d3/d05/class_c_g_l_circle.xhtml" xlink:title="{CGLCircle\n|# nbc\l# radius\l|+ CGLCircle()\l+ ~CGLCircle()\l+ drawObject()\l}">
<polygon fill="white" stroke="black" points="98.5,-1 98.5,-91 181.5,-91 181.5,-1 98.5,-1"/>
<text text-anchor="middle" x="140" y="-79" font-family="Helvetica,sans-Serif" font-size="10.00">CGLCircle</text>
<polyline fill="none" stroke="black" points="98.5,-72 181.5,-72 "/>
<text text-anchor="start" x="106.5" y="-60" font-family="Helvetica,sans-Serif" font-size="10.00"># nbc</text>
<text text-anchor="start" x="106.5" y="-49" font-family="Helvetica,sans-Serif" font-size="10.00"># radius</text>
<polyline fill="none" stroke="black" points="98.5,-42 181.5,-42 "/>
<text text-anchor="start" x="106.5" y="-30" font-family="Helvetica,sans-Serif" font-size="10.00">+ CGLCircle()</text>
<text text-anchor="start" x="106.5" y="-19" font-family="Helvetica,sans-Serif" font-size="10.00">+ ~CGLCircle()</text>
<text text-anchor="start" x="106.5" y="-8" font-family="Helvetica,sans-Serif" font-size="10.00">+ drawObject()</text>
</a>
</g>
</g>
<!-- Node1&#45;&gt;Node4 -->
<g id="edge3" class="edge"><title>Node1&#45;&gt;Node4</title>
<path fill="none" stroke="midnightblue" d="M342.614,-150.945C300.379,-139.978 238.44,-120.641 190,-92 187.185,-90.3357 184.388,-88.4972 181.638,-86.5424"/>
<polygon fill="none" stroke="midnightblue" points="341.821,-154.354 352.375,-153.421 343.543,-147.569 341.821,-154.354"/>
</g>
<!-- Node5 -->
<g id="node5" class="node"><title>Node5</title>
<g id="a_node5"><a xlink:href="$da/d38/class_c_g_l_dot.xhtml" xlink:title="{CGLDot\n||+ CGLDot()\l+ ~CGLDot()\l+ drawObject()\l}">
<polygon fill="white" stroke="black" points="199.5,-6.5 199.5,-85.5 280.5,-85.5 280.5,-6.5 199.5,-6.5"/>
<text text-anchor="middle" x="240" y="-73.5" font-family="Helvetica,sans-Serif" font-size="10.00">CGLDot</text>
<polyline fill="none" stroke="black" points="199.5,-66.5 280.5,-66.5 "/>
<text text-anchor="middle" x="240" y="-54.5" font-family="Helvetica,sans-Serif" font-size="10.00"> </text>
<polyline fill="none" stroke="black" points="199.5,-47.5 280.5,-47.5 "/>
<text text-anchor="start" x="207.5" y="-35.5" font-family="Helvetica,sans-Serif" font-size="10.00">+ CGLDot()</text>
<text text-anchor="start" x="207.5" y="-24.5" font-family="Helvetica,sans-Serif" font-size="10.00">+ ~CGLDot()</text>
<text text-anchor="start" x="207.5" y="-13.5" font-family="Helvetica,sans-Serif" font-size="10.00">+ drawObject()</text>
</a>
</g>
</g>
<!-- Node1&#45;&gt;Node5 -->
<g id="edge4" class="edge"><title>Node1&#45;&gt;Node5</title>
<path fill="none" stroke="midnightblue" d="M343.861,-131.68C326.251,-119.831 306.331,-105.791 289,-92 286.198,-89.7705 283.357,-87.4211 280.526,-85.0135"/>
<polygon fill="none" stroke="midnightblue" points="342.039,-134.672 352.3,-137.311 345.924,-128.849 342.039,-134.672"/>
</g>
<!-- Node6 -->
<g id="node6" class="node"><title>Node6</title>
<g id="a_node6"><a xlink:href="$d9/dfe/class_c_g_l_line.xhtml" xlink:title="{CGLLine\n|# endPoint\l|+ CGLLine()\l+ ~CGLLine()\l+ drawObject()\l}">
<polygon fill="white" stroke="black" points="298.5,-6.5 298.5,-85.5 379.5,-85.5 379.5,-6.5 298.5,-6.5"/>
<text text-anchor="middle" x="339" y="-73.5" font-family="Helvetica,sans-Serif" font-size="10.00">CGLLine</text>
<polyline fill="none" stroke="black" points="298.5,-66.5 379.5,-66.5 "/>
<text text-anchor="start" x="306.5" y="-54.5" font-family="Helvetica,sans-Serif" font-size="10.00"># endPoint</text>
<polyline fill="none" stroke="black" points="298.5,-47.5 379.5,-47.5 "/>
<text text-anchor="start" x="306.5" y="-35.5" font-family="Helvetica,sans-Serif" font-size="10.00">+ CGLLine()</text>
<text text-anchor="start" x="306.5" y="-24.5" font-family="Helvetica,sans-Serif" font-size="10.00">+ ~CGLLine()</text>
<text text-anchor="start" x="306.5" y="-13.5" font-family="Helvetica,sans-Serif" font-size="10.00">+ drawObject()</text>
</a>
</g>
</g>
<!-- Node1&#45;&gt;Node6 -->
<g id="edge5" class="edge"><title>Node1&#45;&gt;Node6</title>
<path fill="none" stroke="midnightblue" d="M371.711,-119.343C366.752,-108.375 361.444,-96.635 356.577,-85.8711"/>
<polygon fill="none" stroke="midnightblue" points="368.65,-121.067 375.959,-128.737 375.028,-118.183 368.65,-121.067"/>
</g>
<!-- Node7 -->
<g id="node7" class="node"><title>Node7</title>
<g id="a_node7"><a xlink:href="$d1/db6/class_c_g_l_polygon.xhtml" xlink:title="{CGLPolygon\n|# points\l|+ CGLPolygon()\l+ ~CGLPolygon()\l+ drawObject()\l}">
<polygon fill="white" stroke="black" points="397.5,-6.5 397.5,-85.5 490.5,-85.5 490.5,-6.5 397.5,-6.5"/>
<text text-anchor="middle" x="444" y="-73.5" font-family="Helvetica,sans-Serif" font-size="10.00">CGLPolygon</text>
<polyline fill="none" stroke="black" points="397.5,-66.5 490.5,-66.5 "/>
<text text-anchor="start" x="405.5" y="-54.5" font-family="Helvetica,sans-Serif" font-size="10.00"># points</text>
<polyline fill="none" stroke="black" points="397.5,-47.5 490.5,-47.5 "/>
<text text-anchor="start" x="405.5" y="-35.5" font-family="Helvetica,sans-Serif" font-size="10.00">+ CGLPolygon()</text>
<text text-anchor="start" x="405.5" y="-24.5" font-family="Helvetica,sans-Serif" font-size="10.00">+ ~CGLPolygon()</text>
<text text-anchor="start" x="405.5" y="-13.5" font-family="Helvetica,sans-Serif" font-size="10.00">+ drawObject()</text>
</a>
</g>
</g>
<!-- Node1&#45;&gt;Node7 -->
<g id="edge6" class="edge"><title>Node1&#45;&gt;Node7</title>
<path fill="none" stroke="midnightblue" d="M410.66,-119.343C415.714,-108.375 421.125,-96.635 426.085,-85.8711"/>
<polygon fill="none" stroke="midnightblue" points="407.337,-118.19 406.33,-128.737 413.694,-121.12 407.337,-118.19"/>
</g>
<!-- Node8 -->
<g id="node8" class="node"><title>Node8</title>
<g id="a_node8"><a xlink:href="$df/d41/class_c_g_l_quad.xhtml" xlink:title="{CGLQuad\n|# points\l|+ CGLQuad()\l+ ~CGLQuad()\l+ drawObject()\l}">
<polygon fill="white" stroke="black" points="508.5,-6.5 508.5,-85.5 589.5,-85.5 589.5,-6.5 508.5,-6.5"/>
<text text-anchor="middle" x="549" y="-73.5" font-family="Helvetica,sans-Serif" font-size="10.00">CGLQuad</text>
<polyline fill="none" stroke="black" points="508.5,-66.5 589.5,-66.5 "/>
<text text-anchor="start" x="516.5" y="-54.5" font-family="Helvetica,sans-Serif" font-size="10.00"># points</text>
<polyline fill="none" stroke="black" points="508.5,-47.5 589.5,-47.5 "/>
<text text-anchor="start" x="516.5" y="-35.5" font-family="Helvetica,sans-Serif" font-size="10.00">+ CGLQuad()</text>
<text text-anchor="start" x="516.5" y="-24.5" font-family="Helvetica,sans-Serif" font-size="10.00">+ ~CGLQuad()</text>
<text text-anchor="start" x="516.5" y="-13.5" font-family="Helvetica,sans-Serif" font-size="10.00">+ drawObject()</text>
</a>
</g>
</g>
<!-- Node1&#45;&gt;Node8 -->
<g id="edge7" class="edge"><title>Node1&#45;&gt;Node8</title>
<path fill="none" stroke="midnightblue" d="M438.368,-133.571C457.647,-121.422 479.853,-106.675 499,-92 502.059,-89.6556 505.16,-87.1678 508.241,-84.6127"/>
<polygon fill="none" stroke="midnightblue" points="436.365,-130.695 429.737,-138.96 440.073,-136.632 436.365,-130.695"/>
</g>
<!-- Node9 -->
<g id="node9" class="node"><title>Node9</title>
<g id="a_node9"><a xlink:href="$d8/dbf/class_c_g_l_robot1.xhtml" xlink:title="{CGLRobot1\n||+ CGLRobot1()\l+ ~CGLRobot1()\l+ drawObject()\l}">
<polygon fill="white" stroke="black" points="607.5,-6.5 607.5,-85.5 696.5,-85.5 696.5,-6.5 607.5,-6.5"/>
<text text-anchor="middle" x="652" y="-73.5" font-family="Helvetica,sans-Serif" font-size="10.00">CGLRobot1</text>
<polyline fill="none" stroke="black" points="607.5,-66.5 696.5,-66.5 "/>
<text text-anchor="middle" x="652" y="-54.5" font-family="Helvetica,sans-Serif" font-size="10.00"> </text>
<polyline fill="none" stroke="black" points="607.5,-47.5 696.5,-47.5 "/>
<text text-anchor="start" x="615.5" y="-35.5" font-family="Helvetica,sans-Serif" font-size="10.00">+ CGLRobot1()</text>
<text text-anchor="start" x="615.5" y="-24.5" font-family="Helvetica,sans-Serif" font-size="10.00">+ ~CGLRobot1()</text>
<text text-anchor="start" x="615.5" y="-13.5" font-family="Helvetica,sans-Serif" font-size="10.00">+ drawObject()</text>
</a>
</g>
</g>
<!-- Node1&#45;&gt;Node9 -->
<g id="edge8" class="edge"><title>Node1&#45;&gt;Node9</title>
<path fill="none" stroke="midnightblue" d="M439.51,-151.011C482.855,-139.959 547.176,-120.456 598,-92 601.407,-90.0922 604.807,-87.9582 608.147,-85.6844"/>
<polygon fill="none" stroke="midnightblue" points="438.633,-147.623 429.779,-153.441 440.329,-154.414 438.633,-147.623"/>
</g>
<!-- Node10 -->
<g id="node10" class="node"><title>Node10</title>
<g id="a_node10"><a xlink:href="$d1/d68/class_c_g_l_triangle.xhtml" xlink:title="{CGLTriangle\n|# points\l|+ CGLTriangle()\l+ ~CGLTriangle()\l+ drawObject()\l}">
<polygon fill="white" stroke="black" points="715,-6.5 715,-85.5 807,-85.5 807,-6.5 715,-6.5"/>
<text text-anchor="middle" x="761" y="-73.5" font-family="Helvetica,sans-Serif" font-size="10.00">CGLTriangle</text>
<polyline fill="none" stroke="black" points="715,-66.5 807,-66.5 "/>
<text text-anchor="start" x="723" y="-54.5" font-family="Helvetica,sans-Serif" font-size="10.00"># points</text>
<polyline fill="none" stroke="black" points="715,-47.5 807,-47.5 "/>
<text text-anchor="start" x="723" y="-35.5" font-family="Helvetica,sans-Serif" font-size="10.00">+ CGLTriangle()</text>
<text text-anchor="start" x="723" y="-24.5" font-family="Helvetica,sans-Serif" font-size="10.00">+ ~CGLTriangle()</text>
<text text-anchor="start" x="723" y="-13.5" font-family="Helvetica,sans-Serif" font-size="10.00">+ drawObject()</text>
</a>
</g>
</g>
<!-- Node1&#45;&gt;Node10 -->
<g id="edge9" class="edge"><title>Node1&#45;&gt;Node10</title>
<path fill="none" stroke="midnightblue" d="M439.725,-158.05C503.442,-151.372 617.264,-134.179 705,-92 708.822,-90.1626 712.616,-88.0196 716.323,-85.6844"/>
<polygon fill="none" stroke="midnightblue" points="439.164,-154.589 429.563,-159.07 439.863,-161.554 439.164,-154.589"/>
</g>
<!-- Node2 -->
<g id="node2" class="node"><title>Node2</title>
<g id="a_node2"><a xlink:href="$d2/d76/class_c_g_l_object.xhtml" xlink:title="{CGLObject\n|+ garbage\l# objectType\l# name\l# matrixSaved\l# children\l# iterCurrentObject\l# currentObject\l# parentObject\l|+ addObject()\l+ setName()\l+ getName()\l+ getCurrentObject()\l+ isChild()\l+ draw()\l+ drawObject()\l+ drawChildren()\l+ drawCenter()\l+ CGLObject()\l+ ~CGLObject()\l+ init()\l}">
<polygon fill="white" stroke="black" points="338,-234.5 338,-489.5 444,-489.5 444,-234.5 338,-234.5"/>
<text text-anchor="middle" x="391" y="-477.5" font-family="Helvetica,sans-Serif" font-size="10.00">CGLObject</text>
<polyline fill="none" stroke="black" points="338,-470.5 444,-470.5 "/>
<text text-anchor="start" x="346" y="-458.5" font-family="Helvetica,sans-Serif" font-size="10.00">+ garbage</text>
<text text-anchor="start" x="346" y="-447.5" font-family="Helvetica,sans-Serif" font-size="10.00"># objectType</text>
<text text-anchor="start" x="346" y="-436.5" font-family="Helvetica,sans-Serif" font-size="10.00"># name</text>
<text text-anchor="start" x="346" y="-425.5" font-family="Helvetica,sans-Serif" font-size="10.00"># matrixSaved</text>
<text text-anchor="start" x="346" y="-414.5" font-family="Helvetica,sans-Serif" font-size="10.00"># children</text>
<text text-anchor="start" x="346" y="-403.5" font-family="Helvetica,sans-Serif" font-size="10.00"># iterCurrentObject</text>
<text text-anchor="start" x="346" y="-392.5" font-family="Helvetica,sans-Serif" font-size="10.00"># currentObject</text>
<text text-anchor="start" x="346" y="-381.5" font-family="Helvetica,sans-Serif" font-size="10.00"># parentObject</text>
<polyline fill="none" stroke="black" points="338,-374.5 444,-374.5 "/>
<text text-anchor="start" x="346" y="-362.5" font-family="Helvetica,sans-Serif" font-size="10.00">+ addObject()</text>
<text text-anchor="start" x="346" y="-351.5" font-family="Helvetica,sans-Serif" font-size="10.00">+ setName()</text>
<text text-anchor="start" x="346" y="-340.5" font-family="Helvetica,sans-Serif" font-size="10.00">+ getName()</text>
<text text-anchor="start" x="346" y="-329.5" font-family="Helvetica,sans-Serif" font-size="10.00">+ getCurrentObject()</text>
<text text-anchor="start" x="346" y="-318.5" font-family="Helvetica,sans-Serif" font-size="10.00">+ isChild()</text>
<text text-anchor="start" x="346" y="-307.5" font-family="Helvetica,sans-Serif" font-size="10.00">+ draw()</text>
<text text-anchor="start" x="346" y="-296.5" font-family="Helvetica,sans-Serif" font-size="10.00">+ drawObject()</text>
<text text-anchor="start" x="346" y="-285.5" font-family="Helvetica,sans-Serif" font-size="10.00">+ drawChildren()</text>
<text text-anchor="start" x="346" y="-274.5" font-family="Helvetica,sans-Serif" font-size="10.00">+ drawCenter()</text>
<text text-anchor="start" x="346" y="-263.5" font-family="Helvetica,sans-Serif" font-size="10.00">+ CGLObject()</text>
<text text-anchor="start" x="346" y="-252.5" font-family="Helvetica,sans-Serif" font-size="10.00">+ ~CGLObject()</text>
<text text-anchor="start" x="346" y="-241.5" font-family="Helvetica,sans-Serif" font-size="10.00">+ init()</text>
</a>
</g>
</g>
<!-- Node2&#45;&gt;Node1 -->
<g id="edge1" class="edge"><title>Node2&#45;&gt;Node1</title>
<path fill="none" stroke="midnightblue" d="M391,-224.257C391,-214.41 391,-205.166 391,-197.016"/>
<polygon fill="none" stroke="midnightblue" points="387.5,-224.287 391,-234.287 394.5,-224.287 387.5,-224.287"/>
</g>
</g>
</svg>
