<?xml version="1.0" encoding="UTF-8" standalone="no"?>
<!DOCTYPE svg PUBLIC "-//W3C//DTD SVG 1.1//EN"
 "http://www.w3.org/Graphics/SVG/1.1/DTD/svg11.dtd">
<!-- Generated by graphviz version 2.36.0 (20140111.2315)
 -->
<!-- Title: CGLItem Pages: 1 -->
<svg width="492pt" height="498pt"
 viewBox="0.00 0.00 492.00 498.00" xmlns="http://www.w3.org/2000/svg" xmlns:xlink="http://www.w3.org/1999/xlink">
<g id="graph0" class="graph" transform="scale(1 1) rotate(0) translate(4 494)">
<title>CGLItem</title>
<polygon fill="white" stroke="none" points="-4,4 -4,-494 488,-494 488,4 -4,4"/>
<!-- Node1 -->
<g id="node1" class="node"><title>Node1</title>
<polygon fill="#bfbfbf" stroke="black" points="199.5,-129 199.5,-197 276.5,-197 276.5,-129 199.5,-129"/>
<text text-anchor="middle" x="238" y="-185" font-family="Helvetica,sans-Serif" font-size="10.00">CGLItem</text>
<polyline fill="none" stroke="black" points="199.5,-178 276.5,-178 "/>
<text text-anchor="middle" x="238" y="-166" font-family="Helvetica,sans-Serif" font-size="10.00"> </text>
<polyline fill="none" stroke="black" points="199.5,-159 276.5,-159 "/>
<text text-anchor="start" x="207.5" y="-147" font-family="Helvetica,sans-Serif" font-size="10.00">+ CGLItem()</text>
<text text-anchor="start" x="207.5" y="-136" font-family="Helvetica,sans-Serif" font-size="10.00">+ ~CGLItem()</text>
</g>
<!-- Node3 -->
<g id="node3" class="node"><title>Node3</title>
<g id="a_node3"><a xlink:href="$dd/daf/class_c_g_l_boite.xhtml" xlink:title="{CGLBoite\n||+ CGLBoite()\l+ ~CGLBoite()\l+ setTaille()\l+ drawObject()\l}">
<polygon fill="white" stroke="black" points="-0.5,-1 -0.5,-91 80.5,-91 80.5,-1 -0.5,-1"/>
<text text-anchor="middle" x="40" y="-79" font-family="Helvetica,sans-Serif" font-size="10.00">CGLBoite</text>
<polyline fill="none" stroke="black" points="-0.5,-72 80.5,-72 "/>
<text text-anchor="middle" x="40" y="-60" font-family="Helvetica,sans-Serif" font-size="10.00"> </text>
<polyline fill="none" stroke="black" points="-0.5,-53 80.5,-53 "/>
<text text-anchor="start" x="7.5" y="-41" font-family="Helvetica,sans-Serif" font-size="10.00">+ CGLBoite()</text>
<text text-anchor="start" x="7.5" y="-30" font-family="Helvetica,sans-Serif" font-size="10.00">+ ~CGLBoite()</text>
<text text-anchor="start" x="7.5" y="-19" font-family="Helvetica,sans-Serif" font-size="10.00">+ setTaille()</text>
<text text-anchor="start" x="7.5" y="-8" font-family="Helvetica,sans-Serif" font-size="10.00">+ drawObject()</text>
</a>
</g>
</g>
<!-- Node1&#45;&gt;Node3 -->
<g id="edge2" class="edge"><title>Node1&#45;&gt;Node3</title>
<path fill="none" stroke="midnightblue" d="M189.788,-143.746C159.604,-131.274 120.587,-113.196 89,-92 86.2187,-90.1336 83.4387,-88.1126 80.6955,-85.9959"/>
<polygon fill="none" stroke="midnightblue" points="188.675,-147.071 199.257,-147.595 191.311,-140.587 188.675,-147.071"/>
</g>
<!-- Node4 -->
<g id="node4" class="node"><title>Node4</title>
<g id="a_node4"><a xlink:href="$da/d38/class_c_g_l_dot.xhtml" xlink:title="{CGLDot\n||+ CGLDot()\l+ ~CGLDot()\l+ drawObject()\l}">
<polygon fill="white" stroke="black" points="98.5,-6.5 98.5,-85.5 179.5,-85.5 179.5,-6.5 98.5,-6.5"/>
<text text-anchor="middle" x="139" y="-73.5" font-family="Helvetica,sans-Serif" font-size="10.00">CGLDot</text>
<polyline fill="none" stroke="black" points="98.5,-66.5 179.5,-66.5 "/>
<text text-anchor="middle" x="139" y="-54.5" font-family="Helvetica,sans-Serif" font-size="10.00"> </text>
<polyline fill="none" stroke="black" points="98.5,-47.5 179.5,-47.5 "/>
<text text-anchor="start" x="106.5" y="-35.5" font-family="Helvetica,sans-Serif" font-size="10.00">+ CGLDot()</text>
<text text-anchor="start" x="106.5" y="-24.5" font-family="Helvetica,sans-Serif" font-size="10.00">+ ~CGLDot()</text>
<text text-anchor="start" x="106.5" y="-13.5" font-family="Helvetica,sans-Serif" font-size="10.00">+ drawObject()</text>
</a>
</g>
</g>
<!-- Node1&#45;&gt;Node4 -->
<g id="edge3" class="edge"><title>Node1&#45;&gt;Node4</title>
<path fill="none" stroke="midnightblue" d="M202.703,-120.998C192.859,-109.564 182.197,-97.1787 172.463,-85.8711"/>
<polygon fill="none" stroke="midnightblue" points="200.188,-123.442 209.365,-128.737 205.493,-118.875 200.188,-123.442"/>
</g>
<!-- Node5 -->
<g id="node5" class="node"><title>Node5</title>
<g id="a_node5"><a xlink:href="$d9/dfe/class_c_g_l_line.xhtml" xlink:title="{CGLLine\n|# endPoint\l|+ CGLLine()\l+ ~CGLLine()\l+ drawObject()\l}">
<polygon fill="white" stroke="black" points="197.5,-6.5 197.5,-85.5 278.5,-85.5 278.5,-6.5 197.5,-6.5"/>
<text text-anchor="middle" x="238" y="-73.5" font-family="Helvetica,sans-Serif" font-size="10.00">CGLLine</text>
<polyline fill="none" stroke="black" points="197.5,-66.5 278.5,-66.5 "/>
<text text-anchor="start" x="205.5" y="-54.5" font-family="Helvetica,sans-Serif" font-size="10.00"># endPoint</text>
<polyline fill="none" stroke="black" points="197.5,-47.5 278.5,-47.5 "/>
<text text-anchor="start" x="205.5" y="-35.5" font-family="Helvetica,sans-Serif" font-size="10.00">+ CGLLine()</text>
<text text-anchor="start" x="205.5" y="-24.5" font-family="Helvetica,sans-Serif" font-size="10.00">+ ~CGLLine()</text>
<text text-anchor="start" x="205.5" y="-13.5" font-family="Helvetica,sans-Serif" font-size="10.00">+ drawObject()</text>
</a>
</g>
</g>
<!-- Node1&#45;&gt;Node5 -->
<g id="edge4" class="edge"><title>Node1&#45;&gt;Node5</title>
<path fill="none" stroke="midnightblue" d="M238,-118.677C238,-107.901 238,-96.4176 238,-85.8711"/>
<polygon fill="none" stroke="midnightblue" points="234.5,-118.737 238,-128.737 241.5,-118.737 234.5,-118.737"/>
</g>
<!-- Node6 -->
<g id="node6" class="node"><title>Node6</title>
<g id="a_node6"><a xlink:href="$df/d41/class_c_g_l_quad.xhtml" xlink:title="{CGLQuad\n|# longueur\l|+ CGLQuad()\l+ CGLQuad()\l+ ~CGLQuad()\l+ drawObject()\l}">
<polygon fill="white" stroke="black" points="296.5,-1 296.5,-91 377.5,-91 377.5,-1 296.5,-1"/>
<text text-anchor="middle" x="337" y="-79" font-family="Helvetica,sans-Serif" font-size="10.00">CGLQuad</text>
<polyline fill="none" stroke="black" points="296.5,-72 377.5,-72 "/>
<text text-anchor="start" x="304.5" y="-60" font-family="Helvetica,sans-Serif" font-size="10.00"># longueur</text>
<polyline fill="none" stroke="black" points="296.5,-53 377.5,-53 "/>
<text text-anchor="start" x="304.5" y="-41" font-family="Helvetica,sans-Serif" font-size="10.00">+ CGLQuad()</text>
<text text-anchor="start" x="304.5" y="-30" font-family="Helvetica,sans-Serif" font-size="10.00">+ CGLQuad()</text>
<text text-anchor="start" x="304.5" y="-19" font-family="Helvetica,sans-Serif" font-size="10.00">+ ~CGLQuad()</text>
<text text-anchor="start" x="304.5" y="-8" font-family="Helvetica,sans-Serif" font-size="10.00">+ drawObject()</text>
</a>
</g>
</g>
<!-- Node1&#45;&gt;Node6 -->
<g id="edge5" class="edge"><title>Node1&#45;&gt;Node6</title>
<path fill="none" stroke="midnightblue" d="M273.162,-121.155C281.485,-111.487 290.4,-101.132 298.848,-91.3181"/>
<polygon fill="none" stroke="midnightblue" points="270.507,-118.875 266.635,-128.737 275.812,-123.442 270.507,-118.875"/>
</g>
<!-- Node7 -->
<g id="node7" class="node"><title>Node7</title>
<g id="a_node7"><a xlink:href="$d8/dbf/class_c_g_l_robot1.xhtml" xlink:title="{CGLRobot1\n||+ CGLRobot1()\l+ ~CGLRobot1()\l+ drawObject()\l}">
<polygon fill="white" stroke="black" points="395.5,-6.5 395.5,-85.5 484.5,-85.5 484.5,-6.5 395.5,-6.5"/>
<text text-anchor="middle" x="440" y="-73.5" font-family="Helvetica,sans-Serif" font-size="10.00">CGLRobot1</text>
<polyline fill="none" stroke="black" points="395.5,-66.5 484.5,-66.5 "/>
<text text-anchor="middle" x="440" y="-54.5" font-family="Helvetica,sans-Serif" font-size="10.00"> </text>
<polyline fill="none" stroke="black" points="395.5,-47.5 484.5,-47.5 "/>
<text text-anchor="start" x="403.5" y="-35.5" font-family="Helvetica,sans-Serif" font-size="10.00">+ CGLRobot1()</text>
<text text-anchor="start" x="403.5" y="-24.5" font-family="Helvetica,sans-Serif" font-size="10.00">+ ~CGLRobot1()</text>
<text text-anchor="start" x="403.5" y="-13.5" font-family="Helvetica,sans-Serif" font-size="10.00">+ drawObject()</text>
</a>
</g>
</g>
<!-- Node1&#45;&gt;Node7 -->
<g id="edge6" class="edge"><title>Node1&#45;&gt;Node7</title>
<path fill="none" stroke="midnightblue" d="M286.144,-142.908C315.905,-130.224 354.331,-112.221 386,-92 389.086,-90.0297 392.19,-87.9033 395.265,-85.6843"/>
<polygon fill="none" stroke="midnightblue" points="284.667,-139.732 276.806,-146.835 287.38,-146.185 284.667,-139.732"/>
</g>
<!-- Node2 -->
<g id="node2" class="node"><title>Node2</title>
<g id="a_node2"><a xlink:href="$d2/d76/class_c_g_l_object.xhtml" xlink:title="{CGLObject\n|+ garbage\l# objectType\l# name\l# matrixSaved\l# children\l# iterCurrentObject\l# currentObject\l# parentObject\l|+ addObject()\l+ setName()\l+ getName()\l+ getCurrentObject()\l+ isChild()\l+ draw()\l+ drawObject()\l+ drawChildren()\l+ drawCenter()\l+ CGLObject()\l+ ~CGLObject()\l+ init()\l}">
<polygon fill="white" stroke="black" points="185,-234.5 185,-489.5 291,-489.5 291,-234.5 185,-234.5"/>
<text text-anchor="middle" x="238" y="-477.5" font-family="Helvetica,sans-Serif" font-size="10.00">CGLObject</text>
<polyline fill="none" stroke="black" points="185,-470.5 291,-470.5 "/>
<text text-anchor="start" x="193" y="-458.5" font-family="Helvetica,sans-Serif" font-size="10.00">+ garbage</text>
<text text-anchor="start" x="193" y="-447.5" font-family="Helvetica,sans-Serif" font-size="10.00"># objectType</text>
<text text-anchor="start" x="193" y="-436.5" font-family="Helvetica,sans-Serif" font-size="10.00"># name</text>
<text text-anchor="start" x="193" y="-425.5" font-family="Helvetica,sans-Serif" font-size="10.00"># matrixSaved</text>
<text text-anchor="start" x="193" y="-414.5" font-family="Helvetica,sans-Serif" font-size="10.00"># children</text>
<text text-anchor="start" x="193" y="-403.5" font-family="Helvetica,sans-Serif" font-size="10.00"># iterCurrentObject</text>
<text text-anchor="start" x="193" y="-392.5" font-family="Helvetica,sans-Serif" font-size="10.00"># currentObject</text>
<text text-anchor="start" x="193" y="-381.5" font-family="Helvetica,sans-Serif" font-size="10.00"># parentObject</text>
<polyline fill="none" stroke="black" points="185,-374.5 291,-374.5 "/>
<text text-anchor="start" x="193" y="-362.5" font-family="Helvetica,sans-Serif" font-size="10.00">+ addObject()</text>
<text text-anchor="start" x="193" y="-351.5" font-family="Helvetica,sans-Serif" font-size="10.00">+ setName()</text>
<text text-anchor="start" x="193" y="-340.5" font-family="Helvetica,sans-Serif" font-size="10.00">+ getName()</text>
<text text-anchor="start" x="193" y="-329.5" font-family="Helvetica,sans-Serif" font-size="10.00">+ getCurrentObject()</text>
<text text-anchor="start" x="193" y="-318.5" font-family="Helvetica,sans-Serif" font-size="10.00">+ isChild()</text>
<text text-anchor="start" x="193" y="-307.5" font-family="Helvetica,sans-Serif" font-size="10.00">+ draw()</text>
<text text-anchor="start" x="193" y="-296.5" font-family="Helvetica,sans-Serif" font-size="10.00">+ drawObject()</text>
<text text-anchor="start" x="193" y="-285.5" font-family="Helvetica,sans-Serif" font-size="10.00">+ drawChildren()</text>
<text text-anchor="start" x="193" y="-274.5" font-family="Helvetica,sans-Serif" font-size="10.00">+ drawCenter()</text>
<text text-anchor="start" x="193" y="-263.5" font-family="Helvetica,sans-Serif" font-size="10.00">+ CGLObject()</text>
<text text-anchor="start" x="193" y="-252.5" font-family="Helvetica,sans-Serif" font-size="10.00">+ ~CGLObject()</text>
<text text-anchor="start" x="193" y="-241.5" font-family="Helvetica,sans-Serif" font-size="10.00">+ init()</text>
</a>
</g>
</g>
<!-- Node2&#45;&gt;Node1 -->
<g id="edge1" class="edge"><title>Node2&#45;&gt;Node1</title>
<path fill="none" stroke="midnightblue" d="M238,-224.257C238,-214.41 238,-205.166 238,-197.016"/>
<polygon fill="none" stroke="midnightblue" points="234.5,-224.287 238,-234.287 241.5,-224.287 234.5,-224.287"/>
</g>
</g>
</svg>
