<?xml version="1.0" encoding="UTF-8" standalone="no"?>
<!DOCTYPE svg PUBLIC "-//W3C//DTD SVG 1.1//EN"
 "http://www.w3.org/Graphics/SVG/1.1/DTD/svg11.dtd">
<!-- Generated by graphviz version 2.36.0 (20140111.2315)
 -->
<!-- Title: CGLItem Pages: 1 -->
<svg width="603pt" height="498pt"
 viewBox="0.00 0.00 603.00 498.00" xmlns="http://www.w3.org/2000/svg" xmlns:xlink="http://www.w3.org/1999/xlink">
<g id="graph0" class="graph" transform="scale(1 1) rotate(0) translate(4 494)">
<title>CGLItem</title>
<polygon fill="white" stroke="none" points="-4,4 -4,-494 599,-494 599,4 -4,4"/>
<!-- Node1 -->
<g id="node1" class="node"><title>Node1</title>
<polygon fill="#bfbfbf" stroke="black" points="248.5,-129 248.5,-197 325.5,-197 325.5,-129 248.5,-129"/>
<text text-anchor="middle" x="287" y="-185" font-family="Helvetica,sans-Serif" font-size="10.00">CGLItem</text>
<polyline fill="none" stroke="black" points="248.5,-178 325.5,-178 "/>
<text text-anchor="middle" x="287" y="-166" font-family="Helvetica,sans-Serif" font-size="10.00"> </text>
<polyline fill="none" stroke="black" points="248.5,-159 325.5,-159 "/>
<text text-anchor="start" x="256.5" y="-147" font-family="Helvetica,sans-Serif" font-size="10.00">+ CGLItem()</text>
<text text-anchor="start" x="256.5" y="-136" font-family="Helvetica,sans-Serif" font-size="10.00">+ ~CGLItem()</text>
</g>
<!-- Node3 -->
<g id="node3" class="node"><title>Node3</title>
<g id="a_node3"><a xlink:href="$dd/daf/class_c_g_l_boite.xhtml" xlink:title="{CGLBoite\n||+ CGLBoite()\l+ ~CGLBoite()\l+ setTaille()\l+ drawObject()\l}">
<polygon fill="white" stroke="black" points="-0.5,-1 -0.5,-91 80.5,-91 80.5,-1 -0.5,-1"/>
<text text-anchor="middle" x="40" y="-79" font-family="Helvetica,sans-Serif" font-size="10.00">CGLBoite</text>
<polyline fill="none" stroke="black" points="-0.5,-72 80.5,-72 "/>
<text text-anchor="middle" x="40" y="-60" font-family="Helvetica,sans-Serif" font-size="10.00"> </text>
<polyline fill="none" stroke="black" points="-0.5,-53 80.5,-53 "/>
<text text-anchor="start" x="7.5" y="-41" font-family="Helvetica,sans-Serif" font-size="10.00">+ CGLBoite()</text>
<text text-anchor="start" x="7.5" y="-30" font-family="Helvetica,sans-Serif" font-size="10.00">+ ~CGLBoite()</text>
<text text-anchor="start" x="7.5" y="-19" font-family="Helvetica,sans-Serif" font-size="10.00">+ setTaille()</text>
<text text-anchor="start" x="7.5" y="-8" font-family="Helvetica,sans-Serif" font-size="10.00">+ drawObject()</text>
</a>
</g>
</g>
<!-- Node1&#45;&gt;Node3 -->
<g id="edge2" class="edge"><title>Node1&#45;&gt;Node3</title>
<path fill="none" stroke="midnightblue" d="M238.247,-150.66C196.629,-139.637 136.197,-120.378 89,-92 86.2284,-90.3335 83.4769,-88.4933 80.7743,-86.5372"/>
<polygon fill="none" stroke="midnightblue" points="237.582,-154.103 248.14,-153.218 239.335,-147.326 237.582,-154.103"/>
</g>
<!-- Node4 -->
<g id="node4" class="node"><title>Node4</title>
<g id="a_node4"><a xlink:href="$da/d38/class_c_g_l_dot.xhtml" xlink:title="{CGLDot\n||+ CGLDot()\l+ ~CGLDot()\l+ drawObject()\l}">
<polygon fill="white" stroke="black" points="98.5,-6.5 98.5,-85.5 179.5,-85.5 179.5,-6.5 98.5,-6.5"/>
<text text-anchor="middle" x="139" y="-73.5" font-family="Helvetica,sans-Serif" font-size="10.00">CGLDot</text>
<polyline fill="none" stroke="black" points="98.5,-66.5 179.5,-66.5 "/>
<text text-anchor="middle" x="139" y="-54.5" font-family="Helvetica,sans-Serif" font-size="10.00"> </text>
<polyline fill="none" stroke="black" points="98.5,-47.5 179.5,-47.5 "/>
<text text-anchor="start" x="106.5" y="-35.5" font-family="Helvetica,sans-Serif" font-size="10.00">+ CGLDot()</text>
<text text-anchor="start" x="106.5" y="-24.5" font-family="Helvetica,sans-Serif" font-size="10.00">+ ~CGLDot()</text>
<text text-anchor="start" x="106.5" y="-13.5" font-family="Helvetica,sans-Serif" font-size="10.00">+ drawObject()</text>
</a>
</g>
</g>
<!-- Node1&#45;&gt;Node4 -->
<g id="edge3" class="edge"><title>Node1&#45;&gt;Node4</title>
<path fill="none" stroke="midnightblue" d="M239.579,-130.3C222.931,-118.696 204.319,-105.174 188,-92 185.214,-89.7509 182.384,-87.3867 179.562,-84.9682"/>
<polygon fill="none" stroke="midnightblue" points="237.868,-133.373 248.084,-136.182 241.85,-127.615 237.868,-133.373"/>
</g>
<!-- Node5 -->
<g id="node5" class="node"><title>Node5</title>
<g id="a_node5"><a xlink:href="$d9/dfe/class_c_g_l_line.xhtml" xlink:title="{CGLLine\n|# endPoint\l|+ CGLLine()\l+ ~CGLLine()\l+ drawObject()\l}">
<polygon fill="white" stroke="black" points="197.5,-6.5 197.5,-85.5 278.5,-85.5 278.5,-6.5 197.5,-6.5"/>
<text text-anchor="middle" x="238" y="-73.5" font-family="Helvetica,sans-Serif" font-size="10.00">CGLLine</text>
<polyline fill="none" stroke="black" points="197.5,-66.5 278.5,-66.5 "/>
<text text-anchor="start" x="205.5" y="-54.5" font-family="Helvetica,sans-Serif" font-size="10.00"># endPoint</text>
<polyline fill="none" stroke="black" points="197.5,-47.5 278.5,-47.5 "/>
<text text-anchor="start" x="205.5" y="-35.5" font-family="Helvetica,sans-Serif" font-size="10.00">+ CGLLine()</text>
<text text-anchor="start" x="205.5" y="-24.5" font-family="Helvetica,sans-Serif" font-size="10.00">+ ~CGLLine()</text>
<text text-anchor="start" x="205.5" y="-13.5" font-family="Helvetica,sans-Serif" font-size="10.00">+ drawObject()</text>
</a>
</g>
</g>
<!-- Node1&#45;&gt;Node5 -->
<g id="edge4" class="edge"><title>Node1&#45;&gt;Node5</title>
<path fill="none" stroke="midnightblue" d="M268.824,-119.343C264.151,-108.375 259.149,-96.635 254.562,-85.8711"/>
<polygon fill="none" stroke="midnightblue" points="265.687,-120.909 272.827,-128.737 272.127,-118.166 265.687,-120.909"/>
</g>
<!-- Node6 -->
<g id="node6" class="node"><title>Node6</title>
<g id="a_node6"><a xlink:href="$df/d41/class_c_g_l_quad.xhtml" xlink:title="{CGLQuad\n|# longueur\l|+ CGLQuad()\l+ CGLQuad()\l+ ~CGLQuad()\l+ drawObject()\l}">
<polygon fill="white" stroke="black" points="296.5,-1 296.5,-91 377.5,-91 377.5,-1 296.5,-1"/>
<text text-anchor="middle" x="337" y="-79" font-family="Helvetica,sans-Serif" font-size="10.00">CGLQuad</text>
<polyline fill="none" stroke="black" points="296.5,-72 377.5,-72 "/>
<text text-anchor="start" x="304.5" y="-60" font-family="Helvetica,sans-Serif" font-size="10.00"># longueur</text>
<polyline fill="none" stroke="black" points="296.5,-53 377.5,-53 "/>
<text text-anchor="start" x="304.5" y="-41" font-family="Helvetica,sans-Serif" font-size="10.00">+ CGLQuad()</text>
<text text-anchor="start" x="304.5" y="-30" font-family="Helvetica,sans-Serif" font-size="10.00">+ CGLQuad()</text>
<text text-anchor="start" x="304.5" y="-19" font-family="Helvetica,sans-Serif" font-size="10.00">+ ~CGLQuad()</text>
<text text-anchor="start" x="304.5" y="-8" font-family="Helvetica,sans-Serif" font-size="10.00">+ drawObject()</text>
</a>
</g>
</g>
<!-- Node1&#45;&gt;Node6 -->
<g id="edge5" class="edge"><title>Node1&#45;&gt;Node6</title>
<path fill="none" stroke="midnightblue" d="M305.511,-119.425C309.496,-110.259 313.718,-100.549 317.731,-91.3181"/>
<polygon fill="none" stroke="midnightblue" points="302.24,-118.171 301.462,-128.737 308.659,-120.962 302.24,-118.171"/>
</g>
<!-- Node7 -->
<g id="node7" class="node"><title>Node7</title>
<g id="a_node7"><a xlink:href="$d8/dbf/class_c_g_l_robot1.xhtml" xlink:title="{CGLRobot1\n||+ CGLRobot1()\l+ ~CGLRobot1()\l+ drawObject()\l}">
<polygon fill="white" stroke="black" points="395.5,-6.5 395.5,-85.5 484.5,-85.5 484.5,-6.5 395.5,-6.5"/>
<text text-anchor="middle" x="440" y="-73.5" font-family="Helvetica,sans-Serif" font-size="10.00">CGLRobot1</text>
<polyline fill="none" stroke="black" points="395.5,-66.5 484.5,-66.5 "/>
<text text-anchor="middle" x="440" y="-54.5" font-family="Helvetica,sans-Serif" font-size="10.00"> </text>
<polyline fill="none" stroke="black" points="395.5,-47.5 484.5,-47.5 "/>
<text text-anchor="start" x="403.5" y="-35.5" font-family="Helvetica,sans-Serif" font-size="10.00">+ CGLRobot1()</text>
<text text-anchor="start" x="403.5" y="-24.5" font-family="Helvetica,sans-Serif" font-size="10.00">+ ~CGLRobot1()</text>
<text text-anchor="start" x="403.5" y="-13.5" font-family="Helvetica,sans-Serif" font-size="10.00">+ drawObject()</text>
</a>
</g>
</g>
<!-- Node1&#45;&gt;Node7 -->
<g id="edge6" class="edge"><title>Node1&#45;&gt;Node7</title>
<path fill="none" stroke="midnightblue" d="M334.071,-129.857C350.688,-118.212 369.369,-104.777 386,-92 389.097,-89.6209 392.263,-87.1334 395.433,-84.6018"/>
<polygon fill="none" stroke="midnightblue" points="331.792,-127.179 325.592,-135.77 335.796,-132.921 331.792,-127.179"/>
</g>
<!-- Node8 -->
<g id="node8" class="node"><title>Node8</title>
<g id="a_node8"><a xlink:href="$d1/d68/class_c_g_l_triangle.xhtml" xlink:title="{CGLTriangle\n|# points\l|+ CGLTriangle()\l+ ~CGLTriangle()\l+ drawObject()\l}">
<polygon fill="white" stroke="black" points="503,-6.5 503,-85.5 595,-85.5 595,-6.5 503,-6.5"/>
<text text-anchor="middle" x="549" y="-73.5" font-family="Helvetica,sans-Serif" font-size="10.00">CGLTriangle</text>
<polyline fill="none" stroke="black" points="503,-66.5 595,-66.5 "/>
<text text-anchor="start" x="511" y="-54.5" font-family="Helvetica,sans-Serif" font-size="10.00"># points</text>
<polyline fill="none" stroke="black" points="503,-47.5 595,-47.5 "/>
<text text-anchor="start" x="511" y="-35.5" font-family="Helvetica,sans-Serif" font-size="10.00">+ CGLTriangle()</text>
<text text-anchor="start" x="511" y="-24.5" font-family="Helvetica,sans-Serif" font-size="10.00">+ ~CGLTriangle()</text>
<text text-anchor="start" x="511" y="-13.5" font-family="Helvetica,sans-Serif" font-size="10.00">+ drawObject()</text>
</a>
</g>
</g>
<!-- Node1&#45;&gt;Node8 -->
<g id="edge7" class="edge"><title>Node1&#45;&gt;Node8</title>
<path fill="none" stroke="midnightblue" d="M335.816,-150.58C378.862,-139.327 442.427,-119.776 493,-92 496.498,-90.0787 499.997,-87.9346 503.441,-85.6535"/>
<polygon fill="none" stroke="midnightblue" points="334.694,-147.254 325.876,-153.126 336.432,-154.035 334.694,-147.254"/>
</g>
<!-- Node2 -->
<g id="node2" class="node"><title>Node2</title>
<g id="a_node2"><a xlink:href="$d2/d76/class_c_g_l_object.xhtml" xlink:title="{CGLObject\n|+ garbage\l# objectType\l# name\l# matrixSaved\l# children\l# iterCurrentObject\l# currentObject\l# parentObject\l|+ addObject()\l+ setName()\l+ getName()\l+ getCurrentObject()\l+ isChild()\l+ draw()\l+ drawObject()\l+ drawChildren()\l+ drawCenter()\l+ CGLObject()\l+ ~CGLObject()\l+ init()\l}">
<polygon fill="white" stroke="black" points="234,-234.5 234,-489.5 340,-489.5 340,-234.5 234,-234.5"/>
<text text-anchor="middle" x="287" y="-477.5" font-family="Helvetica,sans-Serif" font-size="10.00">CGLObject</text>
<polyline fill="none" stroke="black" points="234,-470.5 340,-470.5 "/>
<text text-anchor="start" x="242" y="-458.5" font-family="Helvetica,sans-Serif" font-size="10.00">+ garbage</text>
<text text-anchor="start" x="242" y="-447.5" font-family="Helvetica,sans-Serif" font-size="10.00"># objectType</text>
<text text-anchor="start" x="242" y="-436.5" font-family="Helvetica,sans-Serif" font-size="10.00"># name</text>
<text text-anchor="start" x="242" y="-425.5" font-family="Helvetica,sans-Serif" font-size="10.00"># matrixSaved</text>
<text text-anchor="start" x="242" y="-414.5" font-family="Helvetica,sans-Serif" font-size="10.00"># children</text>
<text text-anchor="start" x="242" y="-403.5" font-family="Helvetica,sans-Serif" font-size="10.00"># iterCurrentObject</text>
<text text-anchor="start" x="242" y="-392.5" font-family="Helvetica,sans-Serif" font-size="10.00"># currentObject</text>
<text text-anchor="start" x="242" y="-381.5" font-family="Helvetica,sans-Serif" font-size="10.00"># parentObject</text>
<polyline fill="none" stroke="black" points="234,-374.5 340,-374.5 "/>
<text text-anchor="start" x="242" y="-362.5" font-family="Helvetica,sans-Serif" font-size="10.00">+ addObject()</text>
<text text-anchor="start" x="242" y="-351.5" font-family="Helvetica,sans-Serif" font-size="10.00">+ setName()</text>
<text text-anchor="start" x="242" y="-340.5" font-family="Helvetica,sans-Serif" font-size="10.00">+ getName()</text>
<text text-anchor="start" x="242" y="-329.5" font-family="Helvetica,sans-Serif" font-size="10.00">+ getCurrentObject()</text>
<text text-anchor="start" x="242" y="-318.5" font-family="Helvetica,sans-Serif" font-size="10.00">+ isChild()</text>
<text text-anchor="start" x="242" y="-307.5" font-family="Helvetica,sans-Serif" font-size="10.00">+ draw()</text>
<text text-anchor="start" x="242" y="-296.5" font-family="Helvetica,sans-Serif" font-size="10.00">+ drawObject()</text>
<text text-anchor="start" x="242" y="-285.5" font-family="Helvetica,sans-Serif" font-size="10.00">+ drawChildren()</text>
<text text-anchor="start" x="242" y="-274.5" font-family="Helvetica,sans-Serif" font-size="10.00">+ drawCenter()</text>
<text text-anchor="start" x="242" y="-263.5" font-family="Helvetica,sans-Serif" font-size="10.00">+ CGLObject()</text>
<text text-anchor="start" x="242" y="-252.5" font-family="Helvetica,sans-Serif" font-size="10.00">+ ~CGLObject()</text>
<text text-anchor="start" x="242" y="-241.5" font-family="Helvetica,sans-Serif" font-size="10.00">+ init()</text>
</a>
</g>
</g>
<!-- Node2&#45;&gt;Node1 -->
<g id="edge1" class="edge"><title>Node2&#45;&gt;Node1</title>
<path fill="none" stroke="midnightblue" d="M287,-224.257C287,-214.41 287,-205.166 287,-197.016"/>
<polygon fill="none" stroke="midnightblue" points="283.5,-224.287 287,-234.287 290.5,-224.287 283.5,-224.287"/>
</g>
</g>
</svg>
