<?xml version="1.0" encoding="UTF-8" standalone="no"?>
<!DOCTYPE svg PUBLIC "-//W3C//DTD SVG 1.1//EN"
 "http://www.w3.org/Graphics/SVG/1.1/DTD/svg11.dtd">
<!-- Generated by graphviz version 2.36.0 (20140111.2315)
 -->
<!-- Title: /home/dagal/git/DamierGL/DamierGL/src/CGL/CGLItem.h Pages: 1 -->
<svg width="1450pt" height="244pt"
 viewBox="0.00 0.00 1450.00 244.00" xmlns="http://www.w3.org/2000/svg" xmlns:xlink="http://www.w3.org/1999/xlink">
<g id="graph0" class="graph" transform="scale(1 1) rotate(0) translate(4 240)">
<title>/home/dagal/git/DamierGL/DamierGL/src/CGL/CGLItem.h</title>
<polygon fill="white" stroke="none" points="-4,4 -4,-240 1446,-240 1446,4 -4,4"/>
<!-- Node1 -->
<g id="node1" class="node"><title>Node1</title>
<polygon fill="#bfbfbf" stroke="black" points="733.5,-205 733.5,-235 888.5,-235 888.5,-205 733.5,-205"/>
<text text-anchor="start" x="741.5" y="-223" font-family="Helvetica,sans-Serif" font-size="10.00">/home/dagal/git/DamierGL</text>
<text text-anchor="middle" x="811" y="-212" font-family="Helvetica,sans-Serif" font-size="10.00">/DamierGL/src/CGL/CGLItem.h</text>
</g>
<!-- Node2 -->
<g id="node2" class="node"><title>Node2</title>
<g id="a_node2"><a xlink:href="../../db/d17/_c_g_l_boite_8h.xhtml" target="_top" xlink:title="/home/dagal/git/DamierGL\l/DamierGL/src/CGL/CGLBoite.h">
<polygon fill="white" stroke="black" points="243,-137 243,-167 401,-167 401,-137 243,-137"/>
<text text-anchor="start" x="251" y="-155" font-family="Helvetica,sans-Serif" font-size="10.00">/home/dagal/git/DamierGL</text>
<text text-anchor="middle" x="322" y="-144" font-family="Helvetica,sans-Serif" font-size="10.00">/DamierGL/src/CGL/CGLBoite.h</text>
</a>
</g>
</g>
<!-- Node1&#45;&gt;Node2 -->
<g id="edge1" class="edge"><title>Node1&#45;&gt;Node2</title>
<path fill="none" stroke="midnightblue" d="M723.163,-207.145C631.553,-194.78 489.252,-175.574 401.054,-163.67"/>
<polygon fill="midnightblue" stroke="midnightblue" points="722.868,-210.637 733.246,-208.506 723.804,-203.699 722.868,-210.637"/>
</g>
<!-- Node8 -->
<g id="node8" class="node"><title>Node8</title>
<g id="a_node8"><a xlink:href="../../d5/d21/_c_g_l_dot_8h.xhtml" target="_top" xlink:title="/home/dagal/git/DamierGL\l/DamierGL/src/CGL/CGLDot.h">
<polygon fill="white" stroke="black" points="471.5,-137 471.5,-167 622.5,-167 622.5,-137 471.5,-137"/>
<text text-anchor="start" x="479.5" y="-155" font-family="Helvetica,sans-Serif" font-size="10.00">/home/dagal/git/DamierGL</text>
<text text-anchor="middle" x="547" y="-144" font-family="Helvetica,sans-Serif" font-size="10.00">/DamierGL/src/CGL/CGLDot.h</text>
</a>
</g>
</g>
<!-- Node1&#45;&gt;Node8 -->
<g id="edge7" class="edge"><title>Node1&#45;&gt;Node8</title>
<path fill="none" stroke="midnightblue" d="M744.744,-202.436C701.126,-191.532 644.648,-177.412 603.224,-167.056"/>
<polygon fill="midnightblue" stroke="midnightblue" points="744.139,-205.892 754.689,-204.922 745.837,-199.101 744.139,-205.892"/>
</g>
<!-- Node10 -->
<g id="node10" class="node"><title>Node10</title>
<g id="a_node10"><a xlink:href="../../da/dcb/_c_g_l_item_8cpp.xhtml" target="_top" xlink:title="/home/dagal/git/DamierGL\l/DamierGL/src/CGL/CGLItem.cpp">
<polygon fill="white" stroke="black" points="640.5,-137 640.5,-167 805.5,-167 805.5,-137 640.5,-137"/>
<text text-anchor="start" x="648.5" y="-155" font-family="Helvetica,sans-Serif" font-size="10.00">/home/dagal/git/DamierGL</text>
<text text-anchor="middle" x="723" y="-144" font-family="Helvetica,sans-Serif" font-size="10.00">/DamierGL/src/CGL/CGLItem.cpp</text>
</a>
</g>
</g>
<!-- Node1&#45;&gt;Node10 -->
<g id="edge10" class="edge"><title>Node1&#45;&gt;Node10</title>
<path fill="none" stroke="midnightblue" d="M783.799,-198.599C770.162,-188.371 753.99,-176.243 741.755,-167.066"/>
<polygon fill="midnightblue" stroke="midnightblue" points="781.805,-201.479 791.905,-204.679 786.005,-195.879 781.805,-201.479"/>
</g>
<!-- Node11 -->
<g id="node11" class="node"><title>Node11</title>
<g id="a_node11"><a xlink:href="../../df/d4a/_c_g_l_line_8h.xhtml" target="_top" xlink:title="/home/dagal/git/DamierGL\l/DamierGL/src/CGL/CGLLine.h">
<polygon fill="white" stroke="black" points="823.5,-137 823.5,-167 976.5,-167 976.5,-137 823.5,-137"/>
<text text-anchor="start" x="831.5" y="-155" font-family="Helvetica,sans-Serif" font-size="10.00">/home/dagal/git/DamierGL</text>
<text text-anchor="middle" x="900" y="-144" font-family="Helvetica,sans-Serif" font-size="10.00">/DamierGL/src/CGL/CGLLine.h</text>
</a>
</g>
</g>
<!-- Node1&#45;&gt;Node11 -->
<g id="edge11" class="edge"><title>Node1&#45;&gt;Node11</title>
<path fill="none" stroke="midnightblue" d="M838.51,-198.599C852.303,-188.371 868.657,-176.243 881.032,-167.066"/>
<polygon fill="midnightblue" stroke="midnightblue" points="836.259,-195.911 830.312,-204.679 840.429,-201.534 836.259,-195.911"/>
</g>
<!-- Node13 -->
<g id="node13" class="node"><title>Node13</title>
<g id="a_node13"><a xlink:href="../../d2/d91/_c_g_l_quad_8h.xhtml" target="_top" xlink:title="/home/dagal/git/DamierGL\l/DamierGL/src/CGL/CGLQuad.h">
<polygon fill="white" stroke="black" points="995,-137 995,-167 1153,-167 1153,-137 995,-137"/>
<text text-anchor="start" x="1003" y="-155" font-family="Helvetica,sans-Serif" font-size="10.00">/home/dagal/git/DamierGL</text>
<text text-anchor="middle" x="1074" y="-144" font-family="Helvetica,sans-Serif" font-size="10.00">/DamierGL/src/CGL/CGLQuad.h</text>
</a>
</g>
</g>
<!-- Node1&#45;&gt;Node13 -->
<g id="edge14" class="edge"><title>Node1&#45;&gt;Node13</title>
<path fill="none" stroke="midnightblue" d="M877.005,-202.436C920.458,-191.532 976.722,-177.412 1017.99,-167.056"/>
<polygon fill="midnightblue" stroke="midnightblue" points="875.945,-199.093 867.098,-204.922 877.649,-205.883 875.945,-199.093"/>
</g>
<!-- Node15 -->
<g id="node15" class="node"><title>Node15</title>
<g id="a_node15"><a xlink:href="../../d8/d51/_c_g_l_triangle_8h.xhtml" target="_top" xlink:title="/home/dagal/git/DamierGL\l/DamierGL/src/CGL/CGLTriangle.h">
<polygon fill="white" stroke="black" points="1171,-137 1171,-167 1341,-167 1341,-137 1171,-137"/>
<text text-anchor="start" x="1179" y="-155" font-family="Helvetica,sans-Serif" font-size="10.00">/home/dagal/git/DamierGL</text>
<text text-anchor="middle" x="1256" y="-144" font-family="Helvetica,sans-Serif" font-size="10.00">/DamierGL/src/CGL/CGLTriangle.h</text>
</a>
</g>
</g>
<!-- Node1&#45;&gt;Node15 -->
<g id="edge17" class="edge"><title>Node1&#45;&gt;Node15</title>
<path fill="none" stroke="midnightblue" d="M898.756,-206.508C969.572,-196.356 1071.74,-181.549 1161,-168 1164.22,-167.511 1167.5,-167.01 1170.81,-166.501"/>
<polygon fill="midnightblue" stroke="midnightblue" points="897.943,-203.089 888.541,-207.971 898.936,-210.018 897.943,-203.089"/>
</g>
<!-- Node3 -->
<g id="node3" class="node"><title>Node3</title>
<g id="a_node3"><a xlink:href="../../da/d3e/_c_g_l_boite_8cpp.xhtml" target="_top" xlink:title="/home/dagal/git/DamierGL\l/DamierGL/src/CGL/CGLBoite.cpp">
<polygon fill="white" stroke="black" points="0,-69 0,-99 168,-99 168,-69 0,-69"/>
<text text-anchor="start" x="8" y="-87" font-family="Helvetica,sans-Serif" font-size="10.00">/home/dagal/git/DamierGL</text>
<text text-anchor="middle" x="84" y="-76" font-family="Helvetica,sans-Serif" font-size="10.00">/DamierGL/src/CGL/CGLBoite.cpp</text>
</a>
</g>
</g>
<!-- Node2&#45;&gt;Node3 -->
<g id="edge2" class="edge"><title>Node2&#45;&gt;Node3</title>
<path fill="none" stroke="midnightblue" d="M261.523,-134.229C222.305,-123.353 171.795,-109.347 134.687,-99.0561"/>
<polygon fill="midnightblue" stroke="midnightblue" points="260.663,-137.623 271.235,-136.922 262.534,-130.877 260.663,-137.623"/>
</g>
<!-- Node4 -->
<g id="node4" class="node"><title>Node4</title>
<g id="a_node4"><a xlink:href="../../d7/df3/_c_g_l_robot1_8h.xhtml" target="_top" xlink:title="/home/dagal/git/DamierGL\l/DamierGL/src/CGL/CGLRobot1.h">
<polygon fill="white" stroke="black" points="185.5,-69 185.5,-99 352.5,-99 352.5,-69 185.5,-69"/>
<text text-anchor="start" x="193.5" y="-87" font-family="Helvetica,sans-Serif" font-size="10.00">/home/dagal/git/DamierGL</text>
<text text-anchor="middle" x="269" y="-76" font-family="Helvetica,sans-Serif" font-size="10.00">/DamierGL/src/CGL/CGLRobot1.h</text>
</a>
</g>
</g>
<!-- Node2&#45;&gt;Node4 -->
<g id="edge3" class="edge"><title>Node2&#45;&gt;Node4</title>
<path fill="none" stroke="midnightblue" d="M304.019,-128.608C296.233,-118.912 287.349,-107.85 280.478,-99.2931"/>
<polygon fill="midnightblue" stroke="midnightblue" points="301.509,-131.073 310.5,-136.679 306.967,-126.69 301.509,-131.073"/>
</g>
<!-- Node7 -->
<g id="node7" class="node"><title>Node7</title>
<g id="a_node7"><a xlink:href="../../d0/d58/_c_g_l_scene_8cpp.xhtml" target="_top" xlink:title="/home/dagal/git/DamierGL\l/DamierGL/src/CGL/CGLScene.cpp">
<polygon fill="white" stroke="black" points="370.5,-69 370.5,-99 543.5,-99 543.5,-69 370.5,-69"/>
<text text-anchor="start" x="378.5" y="-87" font-family="Helvetica,sans-Serif" font-size="10.00">/home/dagal/git/DamierGL</text>
<text text-anchor="middle" x="457" y="-76" font-family="Helvetica,sans-Serif" font-size="10.00">/DamierGL/src/CGL/CGLScene.cpp</text>
</a>
</g>
</g>
<!-- Node2&#45;&gt;Node7 -->
<g id="edge6" class="edge"><title>Node2&#45;&gt;Node7</title>
<path fill="none" stroke="midnightblue" d="M360.171,-132.339C381.735,-121.796 408.256,-108.83 428.087,-99.1352"/>
<polygon fill="midnightblue" stroke="midnightblue" points="358.407,-129.305 350.961,-136.841 361.482,-135.594 358.407,-129.305"/>
</g>
<!-- Node5 -->
<g id="node5" class="node"><title>Node5</title>
<g id="a_node5"><a xlink:href="../../dc/d01/_c_g_l_robot1_8cpp.xhtml" target="_top" xlink:title="/home/dagal/git/DamierGL\l/DamierGL/src/CGL/CGLRobot1.cpp">
<polygon fill="white" stroke="black" points="180.5,-1 180.5,-31 357.5,-31 357.5,-1 180.5,-1"/>
<text text-anchor="start" x="188.5" y="-19" font-family="Helvetica,sans-Serif" font-size="10.00">/home/dagal/git/DamierGL</text>
<text text-anchor="middle" x="269" y="-8" font-family="Helvetica,sans-Serif" font-size="10.00">/DamierGL/src/CGL/CGLRobot1.cpp</text>
</a>
</g>
</g>
<!-- Node4&#45;&gt;Node5 -->
<g id="edge4" class="edge"><title>Node4&#45;&gt;Node5</title>
<path fill="none" stroke="midnightblue" d="M269,-58.5322C269,-49.3606 269,-39.2449 269,-31.2931"/>
<polygon fill="midnightblue" stroke="midnightblue" points="265.5,-58.6789 269,-68.679 272.5,-58.679 265.5,-58.6789"/>
</g>
<!-- Node6 -->
<g id="node6" class="node"><title>Node6</title>
<g id="a_node6"><a xlink:href="../../db/dec/_damier_g_l_8cpp.xhtml" target="_top" xlink:title="/home/dagal/git/DamierGL\l/DamierGL/src/DamierGL.cpp">
<polygon fill="white" stroke="black" points="717,-1 717,-31 863,-31 863,-1 717,-1"/>
<text text-anchor="start" x="725" y="-19" font-family="Helvetica,sans-Serif" font-size="10.00">/home/dagal/git/DamierGL</text>
<text text-anchor="middle" x="790" y="-8" font-family="Helvetica,sans-Serif" font-size="10.00">/DamierGL/src/DamierGL.cpp</text>
</a>
</g>
</g>
<!-- Node4&#45;&gt;Node6 -->
<g id="edge5" class="edge"><title>Node4&#45;&gt;Node6</title>
<path fill="none" stroke="midnightblue" d="M362.858,-67.7698C492.939,-49.6156 633.274,-33.764 716.623,-24.7453"/>
<polygon fill="midnightblue" stroke="midnightblue" points="362.13,-64.3376 352.714,-69.1933 363.103,-71.2697 362.13,-64.3376"/>
</g>
<!-- Node8&#45;&gt;Node6 -->
<g id="edge9" class="edge"><title>Node8&#45;&gt;Node6</title>
<path fill="none" stroke="midnightblue" d="M553.695,-127.312C560.215,-108.514 571.973,-82.985 591,-68 626.724,-39.8649 676.226,-27.1044 716.92,-21.3829"/>
<polygon fill="midnightblue" stroke="midnightblue" points="550.324,-126.361 550.598,-136.953 556.989,-128.502 550.324,-126.361"/>
</g>
<!-- Node9 -->
<g id="node9" class="node"><title>Node9</title>
<g id="a_node9"><a xlink:href="../../d2/d5a/_c_g_l_dot_8cpp.xhtml" target="_top" xlink:title="/home/dagal/git/DamierGL\l/DamierGL/src/CGL/CGLDot.cpp">
<polygon fill="white" stroke="black" points="600.5,-69 600.5,-99 761.5,-99 761.5,-69 600.5,-69"/>
<text text-anchor="start" x="608.5" y="-87" font-family="Helvetica,sans-Serif" font-size="10.00">/home/dagal/git/DamierGL</text>
<text text-anchor="middle" x="681" y="-76" font-family="Helvetica,sans-Serif" font-size="10.00">/DamierGL/src/CGL/CGLDot.cpp</text>
</a>
</g>
</g>
<!-- Node8&#45;&gt;Node9 -->
<g id="edge8" class="edge"><title>Node8&#45;&gt;Node9</title>
<path fill="none" stroke="midnightblue" d="M584.888,-132.339C606.292,-121.796 632.617,-108.83 652.301,-99.1352"/>
<polygon fill="midnightblue" stroke="midnightblue" points="583.171,-129.283 575.746,-136.841 586.264,-135.563 583.171,-129.283"/>
</g>
<!-- Node11&#45;&gt;Node6 -->
<g id="edge13" class="edge"><title>Node11&#45;&gt;Node6</title>
<path fill="none" stroke="midnightblue" d="M849.638,-132.259C834.574,-124.401 819.335,-113.808 809,-100 793.676,-79.5258 790.387,-48.8193 789.864,-31.0603"/>
<polygon fill="midnightblue" stroke="midnightblue" points="848.428,-135.563 858.95,-136.803 851.498,-129.272 848.428,-135.563"/>
</g>
<!-- Node12 -->
<g id="node12" class="node"><title>Node12</title>
<g id="a_node12"><a xlink:href="../../df/de2/_c_g_l_line_8cpp.xhtml" target="_top" xlink:title="/home/dagal/git/DamierGL\l/DamierGL/src/CGL/CGLLine.cpp">
<polygon fill="white" stroke="black" points="818,-69 818,-99 982,-99 982,-69 818,-69"/>
<text text-anchor="start" x="826" y="-87" font-family="Helvetica,sans-Serif" font-size="10.00">/home/dagal/git/DamierGL</text>
<text text-anchor="middle" x="900" y="-76" font-family="Helvetica,sans-Serif" font-size="10.00">/DamierGL/src/CGL/CGLLine.cpp</text>
</a>
</g>
</g>
<!-- Node11&#45;&gt;Node12 -->
<g id="edge12" class="edge"><title>Node11&#45;&gt;Node12</title>
<path fill="none" stroke="midnightblue" d="M900,-126.532C900,-117.361 900,-107.245 900,-99.2931"/>
<polygon fill="midnightblue" stroke="midnightblue" points="896.5,-126.679 900,-136.679 903.5,-126.679 896.5,-126.679"/>
</g>
<!-- Node13&#45;&gt;Node6 -->
<g id="edge16" class="edge"><title>Node13&#45;&gt;Node6</title>
<path fill="none" stroke="midnightblue" d="M1054.81,-129.341C1035.13,-107.607 1005.44,-76.2075 991,-68 951.878,-45.7589 903.039,-33.0783 863.3,-25.9244"/>
<polygon fill="midnightblue" stroke="midnightblue" points="1052.27,-131.751 1061.56,-136.85 1057.48,-127.073 1052.27,-131.751"/>
</g>
<!-- Node14 -->
<g id="node14" class="node"><title>Node14</title>
<g id="a_node14"><a xlink:href="../../d4/d6e/_c_g_l_quad_8cpp.xhtml" target="_top" xlink:title="/home/dagal/git/DamierGL\l/DamierGL/src/CGL/CGLQuad.cpp">
<polygon fill="white" stroke="black" points="1037.5,-69 1037.5,-99 1206.5,-99 1206.5,-69 1037.5,-69"/>
<text text-anchor="start" x="1045.5" y="-87" font-family="Helvetica,sans-Serif" font-size="10.00">/home/dagal/git/DamierGL</text>
<text text-anchor="middle" x="1122" y="-76" font-family="Helvetica,sans-Serif" font-size="10.00">/DamierGL/src/CGL/CGLQuad.cpp</text>
</a>
</g>
</g>
<!-- Node13&#45;&gt;Node14 -->
<g id="edge15" class="edge"><title>Node13&#45;&gt;Node14</title>
<path fill="none" stroke="midnightblue" d="M1090.5,-128.314C1097.5,-118.689 1105.44,-107.763 1111.61,-99.2931"/>
<polygon fill="midnightblue" stroke="midnightblue" points="1087.47,-126.533 1084.42,-136.679 1093.13,-130.65 1087.47,-126.533"/>
</g>
<!-- Node15&#45;&gt;Node6 -->
<g id="edge19" class="edge"><title>Node15&#45;&gt;Node6</title>
<path fill="none" stroke="midnightblue" d="M1250.78,-127.002C1245.28,-107.798 1234.59,-81.8622 1215,-68 1159.94,-29.0511 969.326,-19.6949 863.043,-17.5479"/>
<polygon fill="midnightblue" stroke="midnightblue" points="1247.44,-128.054 1253.33,-136.86 1254.22,-126.302 1247.44,-128.054"/>
</g>
<!-- Node16 -->
<g id="node16" class="node"><title>Node16</title>
<g id="a_node16"><a xlink:href="../../d7/da9/_c_g_l_triangle_8cpp.xhtml" target="_top" xlink:title="/home/dagal/git/DamierGL\l/DamierGL/src/CGL/CGLTriangle.cpp">
<polygon fill="white" stroke="black" points="1262,-69 1262,-99 1442,-99 1442,-69 1262,-69"/>
<text text-anchor="start" x="1270" y="-87" font-family="Helvetica,sans-Serif" font-size="10.00">/home/dagal/git/DamierGL</text>
<text text-anchor="middle" x="1352" y="-76" font-family="Helvetica,sans-Serif" font-size="10.00">/DamierGL/src/CGL/CGLTriangle.cpp</text>
</a>
</g>
</g>
<!-- Node15&#45;&gt;Node16 -->
<g id="edge18" class="edge"><title>Node15&#45;&gt;Node16</title>
<path fill="none" stroke="midnightblue" d="M1285.25,-130.888C1300.22,-120.6 1318.07,-108.329 1331.54,-99.0663"/>
<polygon fill="midnightblue" stroke="midnightblue" points="1283.09,-128.129 1276.83,-136.679 1287.05,-133.898 1283.09,-128.129"/>
</g>
</g>
</svg>
