<?xml version="1.0" encoding="UTF-8" standalone="no"?>
<!DOCTYPE svg PUBLIC "-//W3C//DTD SVG 1.1//EN"
 "http://www.w3.org/Graphics/SVG/1.1/DTD/svg11.dtd">
<!-- Generated by graphviz version 2.36.0 (20140111.2315)
 -->
<!-- Title: CGLWorld::getCurrentScene Pages: 1 -->
<svg width="492pt" height="47pt"
 viewBox="0.00 0.00 492.00 47.00" xmlns="http://www.w3.org/2000/svg" xmlns:xlink="http://www.w3.org/1999/xlink">
<g id="graph0" class="graph" transform="scale(1 1) rotate(0) translate(4 43)">
<title>CGLWorld::getCurrentScene</title>
<polygon fill="white" stroke="none" points="-4,4 -4,-43 488,-43 488,4 -4,4"/>
<!-- Node1 -->
<g id="node1" class="node"><title>Node1</title>
<polygon fill="#bfbfbf" stroke="black" points="0,-0.5 0,-19.5 142,-19.5 142,-0.5 0,-0.5"/>
<text text-anchor="middle" x="71" y="-7.5" font-family="Helvetica,sans-Serif" font-size="10.00">CGLWorld::getCurrentScene</text>
</g>
<!-- Node2 -->
<g id="node2" class="node"><title>Node2</title>
<g id="a_node2"><a xlink:href="../../dd/d40/class_c_g_l_window.xhtml#a87ea72d63fe563266178e72a19722e5d" target="_top" xlink:title="CGLWindow::loop">
<polygon fill="white" stroke="black" points="178,-19.5 178,-38.5 274,-38.5 274,-19.5 178,-19.5"/>
<text text-anchor="middle" x="226" y="-26.5" font-family="Helvetica,sans-Serif" font-size="10.00">CGLWindow::loop</text>
</a>
</g>
</g>
<!-- Node1&#45;&gt;Node2 -->
<g id="edge1" class="edge"><title>Node1&#45;&gt;Node2</title>
<path fill="none" stroke="midnightblue" d="M152.177,-19.9566C160.984,-21.0503 169.726,-22.1359 177.935,-23.1553"/>
<polygon fill="midnightblue" stroke="midnightblue" points="152.586,-16.4806 142.231,-18.7215 151.723,-23.4273 152.586,-16.4806"/>
</g>
<!-- Node4 -->
<g id="node4" class="node"><title>Node4</title>
<g id="a_node4"><a xlink:href="../../db/dec/_damier_g_l_8cpp.xhtml#a0ddf1224851353fc92bfbff6f499fa97" target="_top" xlink:title="main">
<polygon fill="white" stroke="black" points="446,-0.5 446,-19.5 484,-19.5 484,-0.5 446,-0.5"/>
<text text-anchor="middle" x="465" y="-7.5" font-family="Helvetica,sans-Serif" font-size="10.00">main</text>
</a>
</g>
</g>
<!-- Node1&#45;&gt;Node4 -->
<g id="edge4" class="edge"><title>Node1&#45;&gt;Node4</title>
<path fill="none" stroke="midnightblue" d="M152.094,-10C245.768,-10 394.564,-10 445.893,-10"/>
<polygon fill="midnightblue" stroke="midnightblue" points="152.082,-6.5001 142.082,-10 152.082,-13.5001 152.082,-6.5001"/>
</g>
<!-- Node3 -->
<g id="node3" class="node"><title>Node3</title>
<g id="a_node3"><a xlink:href="../../dd/d40/class_c_g_l_window.xhtml#acee59c3d1b3a12c43fccf7f225c98dd6" target="_top" xlink:title="CGLWindow::exec">
<polygon fill="white" stroke="black" points="310.5,-19.5 310.5,-38.5 409.5,-38.5 409.5,-19.5 310.5,-19.5"/>
<text text-anchor="middle" x="360" y="-26.5" font-family="Helvetica,sans-Serif" font-size="10.00">CGLWindow::exec</text>
</a>
</g>
</g>
<!-- Node2&#45;&gt;Node3 -->
<g id="edge2" class="edge"><title>Node2&#45;&gt;Node3</title>
<path fill="none" stroke="midnightblue" d="M284.31,-29C292.963,-29 301.819,-29 310.268,-29"/>
<polygon fill="midnightblue" stroke="midnightblue" points="284.282,-25.5001 274.282,-29 284.282,-32.5001 284.282,-25.5001"/>
</g>
<!-- Node3&#45;&gt;Node4 -->
<g id="edge3" class="edge"><title>Node3&#45;&gt;Node4</title>
<path fill="none" stroke="midnightblue" d="M419.749,-18.1629C429.246,-16.4109 438.408,-14.7208 445.908,-13.3374"/>
<polygon fill="midnightblue" stroke="midnightblue" points="418.984,-14.7447 409.785,-20.0008 420.254,-21.6286 418.984,-14.7447"/>
</g>
</g>
</svg>
