<?xml version="1.0" encoding="UTF-8" standalone="no"?>
<!DOCTYPE svg PUBLIC "-//W3C//DTD SVG 1.1//EN"
 "http://www.w3.org/Graphics/SVG/1.1/DTD/svg11.dtd">
<!-- Generated by graphviz version 2.36.0 (20140111.2315)
 -->
<!-- Title: CGLWorld::draw Pages: 1 -->
<svg width="576pt" height="28pt"
 viewBox="0.00 0.00 576.00 28.00" xmlns="http://www.w3.org/2000/svg" xmlns:xlink="http://www.w3.org/1999/xlink">
<g id="graph0" class="graph" transform="scale(1 1) rotate(0) translate(4 24)">
<title>CGLWorld::draw</title>
<polygon fill="white" stroke="none" points="-4,4 -4,-24 572,-24 572,4 -4,4"/>
<!-- Node1 -->
<g id="node1" class="node"><title>Node1</title>
<polygon fill="#bfbfbf" stroke="black" points="0.5,-0.5 0.5,-19.5 89.5,-19.5 89.5,-0.5 0.5,-0.5"/>
<text text-anchor="middle" x="45" y="-7.5" font-family="Helvetica,sans-Serif" font-size="10.00">CGLWorld::draw</text>
</g>
<!-- Node2 -->
<g id="node2" class="node"><title>Node2</title>
<g id="a_node2"><a xlink:href="../../dd/d40/class_c_g_l_window.xhtml#adf4d06d51db7221820cb7f22080d51f2" target="_top" xlink:title="CGLWindow::draw">
<polygon fill="white" stroke="black" points="126.5,-0.5 126.5,-19.5 225.5,-19.5 225.5,-0.5 126.5,-0.5"/>
<text text-anchor="middle" x="176" y="-7.5" font-family="Helvetica,sans-Serif" font-size="10.00">CGLWindow::draw</text>
</a>
</g>
</g>
<!-- Node1&#45;&gt;Node2 -->
<g id="edge1" class="edge"><title>Node1&#45;&gt;Node2</title>
<path fill="none" stroke="midnightblue" d="M99.8723,-10C108.702,-10 117.805,-10 126.495,-10"/>
<polygon fill="midnightblue" stroke="midnightblue" points="99.6735,-6.5001 89.6735,-10 99.6735,-13.5001 99.6735,-6.5001"/>
</g>
<!-- Node3 -->
<g id="node3" class="node"><title>Node3</title>
<g id="a_node3"><a xlink:href="../../dd/d40/class_c_g_l_window.xhtml#a87ea72d63fe563266178e72a19722e5d" target="_top" xlink:title="CGLWindow::loop">
<polygon fill="white" stroke="black" points="262,-0.5 262,-19.5 358,-19.5 358,-0.5 262,-0.5"/>
<text text-anchor="middle" x="310" y="-7.5" font-family="Helvetica,sans-Serif" font-size="10.00">CGLWindow::loop</text>
</a>
</g>
</g>
<!-- Node2&#45;&gt;Node3 -->
<g id="edge2" class="edge"><title>Node2&#45;&gt;Node3</title>
<path fill="none" stroke="midnightblue" d="M235.841,-10C244.51,-10 253.346,-10 261.741,-10"/>
<polygon fill="midnightblue" stroke="midnightblue" points="235.777,-6.5001 225.777,-10 235.777,-13.5001 235.777,-6.5001"/>
</g>
<!-- Node4 -->
<g id="node4" class="node"><title>Node4</title>
<g id="a_node4"><a xlink:href="../../dd/d40/class_c_g_l_window.xhtml#acee59c3d1b3a12c43fccf7f225c98dd6" target="_top" xlink:title="CGLWindow::exec">
<polygon fill="white" stroke="black" points="394.5,-0.5 394.5,-19.5 493.5,-19.5 493.5,-0.5 394.5,-0.5"/>
<text text-anchor="middle" x="444" y="-7.5" font-family="Helvetica,sans-Serif" font-size="10.00">CGLWindow::exec</text>
</a>
</g>
</g>
<!-- Node3&#45;&gt;Node4 -->
<g id="edge3" class="edge"><title>Node3&#45;&gt;Node4</title>
<path fill="none" stroke="midnightblue" d="M368.31,-10C376.963,-10 385.819,-10 394.268,-10"/>
<polygon fill="midnightblue" stroke="midnightblue" points="368.282,-6.5001 358.282,-10 368.282,-13.5001 368.282,-6.5001"/>
</g>
<!-- Node5 -->
<g id="node5" class="node"><title>Node5</title>
<g id="a_node5"><a xlink:href="../../db/dec/_damier_g_l_8cpp.xhtml#a0ddf1224851353fc92bfbff6f499fa97" target="_top" xlink:title="main">
<polygon fill="white" stroke="black" points="530,-0.5 530,-19.5 568,-19.5 568,-0.5 530,-0.5"/>
<text text-anchor="middle" x="549" y="-7.5" font-family="Helvetica,sans-Serif" font-size="10.00">main</text>
</a>
</g>
</g>
<!-- Node4&#45;&gt;Node5 -->
<g id="edge4" class="edge"><title>Node4&#45;&gt;Node5</title>
<path fill="none" stroke="midnightblue" d="M504.048,-10C513.439,-10 522.487,-10 529.908,-10"/>
<polygon fill="midnightblue" stroke="midnightblue" points="503.785,-6.5001 493.785,-10 503.785,-13.5001 503.785,-6.5001"/>
</g>
</g>
</svg>
