<?xml version="1.0" encoding="UTF-8" standalone="no"?>
<!DOCTYPE svg PUBLIC "-//W3C//DTD SVG 1.1//EN"
 "http://www.w3.org/Graphics/SVG/1.1/DTD/svg11.dtd">
<!-- Generated by graphviz version 2.36.0 (20140111.2315)
 -->
<!-- Title: CGLVector4D Pages: 1 -->
<svg width="106pt" height="736pt"
 viewBox="0.00 0.00 106.00 736.00" xmlns="http://www.w3.org/2000/svg" xmlns:xlink="http://www.w3.org/1999/xlink">
<g id="graph0" class="graph" transform="scale(1 1) rotate(0) translate(4 732)">
<title>CGLVector4D</title>
<polygon fill="white" stroke="none" points="-4,4 -4,-732 102,-732 102,4 -4,4"/>
<!-- Node1 -->
<g id="node1" class="node"><title>Node1</title>
<polygon fill="#bfbfbf" stroke="black" points="-0.5,-216.5 -0.5,-317.5 98.5,-317.5 98.5,-216.5 -0.5,-216.5"/>
<text text-anchor="middle" x="49" y="-305.5" font-family="Helvetica,sans-Serif" font-size="10.00">CGLVector4D</text>
<polyline fill="none" stroke="black" points="-0.5,-298.5 98.5,-298.5 "/>
<text text-anchor="start" x="7.5" y="-286.5" font-family="Helvetica,sans-Serif" font-size="10.00"># w</text>
<polyline fill="none" stroke="black" points="-0.5,-279.5 98.5,-279.5 "/>
<text text-anchor="start" x="7.5" y="-267.5" font-family="Helvetica,sans-Serif" font-size="10.00">+ CGLVector4D()</text>
<text text-anchor="start" x="7.5" y="-256.5" font-family="Helvetica,sans-Serif" font-size="10.00">+ ~CGLVector4D()</text>
<text text-anchor="start" x="7.5" y="-245.5" font-family="Helvetica,sans-Serif" font-size="10.00">+ getW()</text>
<text text-anchor="start" x="7.5" y="-234.5" font-family="Helvetica,sans-Serif" font-size="10.00">+ setW()</text>
<text text-anchor="start" x="7.5" y="-223.5" font-family="Helvetica,sans-Serif" font-size="10.00">+ set()</text>
</g>
<!-- Node4 -->
<g id="node4" class="node"><title>Node4</title>
<g id="a_node4"><a xlink:href="$d7/dd6/class_c_g_l_color.xhtml" xlink:title="{CGLColor\n||+ CGLColor()\l+ ~CGLColor()\l+ set()\l+ setR()\l+ setG()\l+ setB()\l+ setA()\l+ getR()\l+ getG()\l+ getB()\l+ getA()\l+ drawObject()\l}">
<polygon fill="white" stroke="black" points="8.5,-1 8.5,-179 89.5,-179 89.5,-1 8.5,-1"/>
<text text-anchor="middle" x="49" y="-167" font-family="Helvetica,sans-Serif" font-size="10.00">CGLColor</text>
<polyline fill="none" stroke="black" points="8.5,-160 89.5,-160 "/>
<text text-anchor="middle" x="49" y="-148" font-family="Helvetica,sans-Serif" font-size="10.00"> </text>
<polyline fill="none" stroke="black" points="8.5,-141 89.5,-141 "/>
<text text-anchor="start" x="16.5" y="-129" font-family="Helvetica,sans-Serif" font-size="10.00">+ CGLColor()</text>
<text text-anchor="start" x="16.5" y="-118" font-family="Helvetica,sans-Serif" font-size="10.00">+ ~CGLColor()</text>
<text text-anchor="start" x="16.5" y="-107" font-family="Helvetica,sans-Serif" font-size="10.00">+ set()</text>
<text text-anchor="start" x="16.5" y="-96" font-family="Helvetica,sans-Serif" font-size="10.00">+ setR()</text>
<text text-anchor="start" x="16.5" y="-85" font-family="Helvetica,sans-Serif" font-size="10.00">+ setG()</text>
<text text-anchor="start" x="16.5" y="-74" font-family="Helvetica,sans-Serif" font-size="10.00">+ setB()</text>
<text text-anchor="start" x="16.5" y="-63" font-family="Helvetica,sans-Serif" font-size="10.00">+ setA()</text>
<text text-anchor="start" x="16.5" y="-52" font-family="Helvetica,sans-Serif" font-size="10.00">+ getR()</text>
<text text-anchor="start" x="16.5" y="-41" font-family="Helvetica,sans-Serif" font-size="10.00">+ getG()</text>
<text text-anchor="start" x="16.5" y="-30" font-family="Helvetica,sans-Serif" font-size="10.00">+ getB()</text>
<text text-anchor="start" x="16.5" y="-19" font-family="Helvetica,sans-Serif" font-size="10.00">+ getA()</text>
<text text-anchor="start" x="16.5" y="-8" font-family="Helvetica,sans-Serif" font-size="10.00">+ drawObject()</text>
</a>
</g>
</g>
<!-- Node1&#45;&gt;Node4 -->
<g id="edge3" class="edge"><title>Node1&#45;&gt;Node4</title>
<path fill="none" stroke="midnightblue" d="M49,-206.278C49,-197.541 49,-188.392 49,-179.233"/>
<polygon fill="none" stroke="midnightblue" points="45.5001,-206.32 49,-216.32 52.5001,-206.32 45.5001,-206.32"/>
</g>
<!-- Node2 -->
<g id="node2" class="node"><title>Node2</title>
<g id="a_node2"><a xlink:href="$d6/df9/class_c_g_l_vector3_d.xhtml" xlink:title="{CGLVector3D\n|# z\l|+ CGLVector3D()\l+ ~CGLVector3D()\l+ isEqualTo()\l+ getZ()\l+ set()\l+ setZ()\l}">
<polygon fill="white" stroke="black" points="-0.5,-355 -0.5,-467 98.5,-467 98.5,-355 -0.5,-355"/>
<text text-anchor="middle" x="49" y="-455" font-family="Helvetica,sans-Serif" font-size="10.00">CGLVector3D</text>
<polyline fill="none" stroke="black" points="-0.5,-448 98.5,-448 "/>
<text text-anchor="start" x="7.5" y="-436" font-family="Helvetica,sans-Serif" font-size="10.00"># z</text>
<polyline fill="none" stroke="black" points="-0.5,-429 98.5,-429 "/>
<text text-anchor="start" x="7.5" y="-417" font-family="Helvetica,sans-Serif" font-size="10.00">+ CGLVector3D()</text>
<text text-anchor="start" x="7.5" y="-406" font-family="Helvetica,sans-Serif" font-size="10.00">+ ~CGLVector3D()</text>
<text text-anchor="start" x="7.5" y="-395" font-family="Helvetica,sans-Serif" font-size="10.00">+ isEqualTo()</text>
<text text-anchor="start" x="7.5" y="-384" font-family="Helvetica,sans-Serif" font-size="10.00">+ getZ()</text>
<text text-anchor="start" x="7.5" y="-373" font-family="Helvetica,sans-Serif" font-size="10.00">+ set()</text>
<text text-anchor="start" x="7.5" y="-362" font-family="Helvetica,sans-Serif" font-size="10.00">+ setZ()</text>
</a>
</g>
</g>
<!-- Node2&#45;&gt;Node1 -->
<g id="edge1" class="edge"><title>Node2&#45;&gt;Node1</title>
<path fill="none" stroke="midnightblue" d="M49,-344.613C49,-335.613 49,-326.492 49,-317.833"/>
<polygon fill="none" stroke="midnightblue" points="45.5001,-344.692 49,-354.692 52.5001,-344.693 45.5001,-344.692"/>
</g>
<!-- Node3 -->
<g id="node3" class="node"><title>Node3</title>
<g id="a_node3"><a xlink:href="$d8/d97/class_c_g_l_vector2_d.xhtml" xlink:title="{CGLVector2D\n|# maxX\l# maxY\l# minX\l# minY\l# x\l# y\l|+ CGLVector2D()\l+ ~CGLVector2D()\l+ getMaxX()\l+ getMaxY()\l+ getMinX()\l+ getMinY()\l+ getX()\l+ getY()\l+ isXMax()\l+ isYMax()\let 10 de plus...\l}">
<polygon fill="white" stroke="black" points="-0.5,-505 -0.5,-727 98.5,-727 98.5,-505 -0.5,-505"/>
<text text-anchor="middle" x="49" y="-715" font-family="Helvetica,sans-Serif" font-size="10.00">CGLVector2D</text>
<polyline fill="none" stroke="black" points="-0.5,-708 98.5,-708 "/>
<text text-anchor="start" x="7.5" y="-696" font-family="Helvetica,sans-Serif" font-size="10.00"># maxX</text>
<text text-anchor="start" x="7.5" y="-685" font-family="Helvetica,sans-Serif" font-size="10.00"># maxY</text>
<text text-anchor="start" x="7.5" y="-674" font-family="Helvetica,sans-Serif" font-size="10.00"># minX</text>
<text text-anchor="start" x="7.5" y="-663" font-family="Helvetica,sans-Serif" font-size="10.00"># minY</text>
<text text-anchor="start" x="7.5" y="-652" font-family="Helvetica,sans-Serif" font-size="10.00"># x</text>
<text text-anchor="start" x="7.5" y="-641" font-family="Helvetica,sans-Serif" font-size="10.00"># y</text>
<polyline fill="none" stroke="black" points="-0.5,-634 98.5,-634 "/>
<text text-anchor="start" x="7.5" y="-622" font-family="Helvetica,sans-Serif" font-size="10.00">+ CGLVector2D()</text>
<text text-anchor="start" x="7.5" y="-611" font-family="Helvetica,sans-Serif" font-size="10.00">+ ~CGLVector2D()</text>
<text text-anchor="start" x="7.5" y="-600" font-family="Helvetica,sans-Serif" font-size="10.00">+ getMaxX()</text>
<text text-anchor="start" x="7.5" y="-589" font-family="Helvetica,sans-Serif" font-size="10.00">+ getMaxY()</text>
<text text-anchor="start" x="7.5" y="-578" font-family="Helvetica,sans-Serif" font-size="10.00">+ getMinX()</text>
<text text-anchor="start" x="7.5" y="-567" font-family="Helvetica,sans-Serif" font-size="10.00">+ getMinY()</text>
<text text-anchor="start" x="7.5" y="-556" font-family="Helvetica,sans-Serif" font-size="10.00">+ getX()</text>
<text text-anchor="start" x="7.5" y="-545" font-family="Helvetica,sans-Serif" font-size="10.00">+ getY()</text>
<text text-anchor="start" x="7.5" y="-534" font-family="Helvetica,sans-Serif" font-size="10.00">+ isXMax()</text>
<text text-anchor="start" x="7.5" y="-523" font-family="Helvetica,sans-Serif" font-size="10.00">+ isYMax()</text>
<text text-anchor="start" x="7.5" y="-512" font-family="Helvetica,sans-Serif" font-size="10.00">et 10 de plus...</text>
</a>
</g>
</g>
<!-- Node3&#45;&gt;Node2 -->
<g id="edge2" class="edge"><title>Node3&#45;&gt;Node2</title>
<path fill="none" stroke="midnightblue" d="M49,-494.846C49,-485.278 49,-475.938 49,-467.184"/>
<polygon fill="none" stroke="midnightblue" points="45.5001,-494.886 49,-504.886 52.5001,-494.886 45.5001,-494.886"/>
</g>
</g>
</svg>
