<?xml version="1.0" encoding="UTF-8" standalone="no"?>
<!DOCTYPE svg PUBLIC "-//W3C//DTD SVG 1.1//EN"
 "http://www.w3.org/Graphics/SVG/1.1/DTD/svg11.dtd">
<!-- Generated by graphviz version 2.36.0 (20140111.2315)
 -->
<!-- Title: CGLVector3D::set Pages: 1 -->
<svg width="242pt" height="66pt"
 viewBox="0.00 0.00 242.00 66.00" xmlns="http://www.w3.org/2000/svg" xmlns:xlink="http://www.w3.org/1999/xlink">
<g id="graph0" class="graph" transform="scale(1 1) rotate(0) translate(4 62)">
<title>CGLVector3D::set</title>
<polygon fill="white" stroke="none" points="-4,4 -4,-62 238,-62 238,4 -4,4"/>
<!-- Node1 -->
<g id="node1" class="node"><title>Node1</title>
<polygon fill="#bfbfbf" stroke="black" points="0,-19.5 0,-38.5 98,-38.5 98,-19.5 0,-19.5"/>
<text text-anchor="middle" x="49" y="-26.5" font-family="Helvetica,sans-Serif" font-size="10.00">CGLVector3D::set</text>
</g>
<!-- Node2 -->
<g id="node2" class="node"><title>Node2</title>
<g id="a_node2"><a xlink:href="../../d9/dfe/class_c_g_l_line.xhtml#ab220112ce9d381cc057e6cff09fd95a7" target="_top" xlink:title="CGLLine::CGLLine">
<polygon fill="white" stroke="black" points="134.5,-38.5 134.5,-57.5 233.5,-57.5 233.5,-38.5 134.5,-38.5"/>
<text text-anchor="middle" x="184" y="-45.5" font-family="Helvetica,sans-Serif" font-size="10.00">CGLLine::CGLLine</text>
</a>
</g>
</g>
<!-- Node1&#45;&gt;Node2 -->
<g id="edge1" class="edge"><title>Node1&#45;&gt;Node2</title>
<path fill="none" stroke="midnightblue" d="M108.098,-37.2997C116.793,-38.5418 125.683,-39.8119 134.16,-41.0229"/>
<polygon fill="midnightblue" stroke="midnightblue" points="108.411,-33.8089 98.0161,-35.8594 107.421,-40.7386 108.411,-33.8089"/>
</g>
<!-- Node3 -->
<g id="node3" class="node"><title>Node3</title>
<g id="a_node3"><a xlink:href="../../db/dec/_damier_g_l_8cpp.xhtml#a0ddf1224851353fc92bfbff6f499fa97" target="_top" xlink:title="main">
<polygon fill="white" stroke="black" points="165,-0.5 165,-19.5 203,-19.5 203,-0.5 165,-0.5"/>
<text text-anchor="middle" x="184" y="-7.5" font-family="Helvetica,sans-Serif" font-size="10.00">main</text>
</a>
</g>
</g>
<!-- Node1&#45;&gt;Node3 -->
<g id="edge2" class="edge"><title>Node1&#45;&gt;Node3</title>
<path fill="none" stroke="midnightblue" d="M107.968,-20.7188C128.494,-17.7866 150.121,-14.6969 164.855,-12.5921"/>
<polygon fill="midnightblue" stroke="midnightblue" points="107.421,-17.2614 98.0161,-22.1406 108.411,-24.1911 107.421,-17.2614"/>
</g>
</g>
</svg>
