<?xml version="1.0" encoding="UTF-8" standalone="no"?>
<!DOCTYPE svg PUBLIC "-//W3C//DTD SVG 1.1//EN"
 "http://www.w3.org/Graphics/SVG/1.1/DTD/svg11.dtd">
<!-- Generated by graphviz version 2.36.0 (20140111.2315)
 -->
<!-- Title: CGLVector3D::set Pages: 1 -->
<svg width="350pt" height="218pt"
 viewBox="0.00 0.00 350.00 218.00" xmlns="http://www.w3.org/2000/svg" xmlns:xlink="http://www.w3.org/1999/xlink">
<g id="graph0" class="graph" transform="scale(1 1) rotate(0) translate(4 214)">
<title>CGLVector3D::set</title>
<polygon fill="white" stroke="none" points="-4,4 -4,-214 346,-214 346,4 -4,4"/>
<!-- Node1 -->
<g id="node1" class="node"><title>Node1</title>
<polygon fill="#bfbfbf" stroke="black" points="0,-95.5 0,-114.5 98,-114.5 98,-95.5 0,-95.5"/>
<text text-anchor="middle" x="49" y="-102.5" font-family="Helvetica,sans-Serif" font-size="10.00">CGLVector3D::set</text>
</g>
<!-- Node2 -->
<g id="node2" class="node"><title>Node2</title>
<g id="a_node2"><a xlink:href="../../d9/dfe/class_c_g_l_line.xhtml#ab220112ce9d381cc057e6cff09fd95a7" target="_top" xlink:title="CGLLine::CGLLine">
<polygon fill="white" stroke="black" points="151.5,-190.5 151.5,-209.5 250.5,-209.5 250.5,-190.5 151.5,-190.5"/>
<text text-anchor="middle" x="201" y="-197.5" font-family="Helvetica,sans-Serif" font-size="10.00">CGLLine::CGLLine</text>
</a>
</g>
</g>
<!-- Node1&#45;&gt;Node2 -->
<g id="edge1" class="edge"><title>Node1&#45;&gt;Node2</title>
<path fill="none" stroke="midnightblue" d="M64.7739,-122.364C80.3386,-139.608 106.385,-165.63 134,-181 140.876,-184.827 148.594,-187.944 156.262,-190.462"/>
<polygon fill="midnightblue" stroke="midnightblue" points="67.2502,-119.88 58.0141,-114.689 61.9972,-124.507 67.2502,-119.88"/>
</g>
<!-- Node3 -->
<g id="node3" class="node"><title>Node3</title>
<g id="a_node3"><a xlink:href="../../de/d31/class_c_g_l_position.xhtml#ab32bdd49fc31414e874917568e5d37d2" target="_top" xlink:title="CGLPosition::CGLPosition">
<polygon fill="white" stroke="black" points="134,-152.5 134,-171.5 268,-171.5 268,-152.5 134,-152.5"/>
<text text-anchor="middle" x="201" y="-159.5" font-family="Helvetica,sans-Serif" font-size="10.00">CGLPosition::CGLPosition</text>
</a>
</g>
</g>
<!-- Node1&#45;&gt;Node3 -->
<g id="edge2" class="edge"><title>Node1&#45;&gt;Node3</title>
<path fill="none" stroke="midnightblue" d="M78.3897,-119.081C94.4691,-126.74 115.092,-136.043 134,-143 143.4,-146.459 153.737,-149.693 163.384,-152.478"/>
<polygon fill="midnightblue" stroke="midnightblue" points="79.5483,-115.753 69.021,-114.559 76.5059,-122.058 79.5483,-115.753"/>
</g>
<!-- Node4 -->
<g id="node4" class="node"><title>Node4</title>
<g id="a_node4"><a xlink:href="../../de/d31/class_c_g_l_position.xhtml#a729e7b3f01b8c735d60d8c51b6610eef" target="_top" xlink:title="CGLPosition::setSpeed">
<polygon fill="white" stroke="black" points="141.5,-114.5 141.5,-133.5 260.5,-133.5 260.5,-114.5 141.5,-114.5"/>
<text text-anchor="middle" x="201" y="-121.5" font-family="Helvetica,sans-Serif" font-size="10.00">CGLPosition::setSpeed</text>
</a>
</g>
</g>
<!-- Node1&#45;&gt;Node4 -->
<g id="edge3" class="edge"><title>Node1&#45;&gt;Node4</title>
<path fill="none" stroke="midnightblue" d="M108.452,-112.404C119.242,-113.771 130.512,-115.198 141.308,-116.566"/>
<polygon fill="midnightblue" stroke="midnightblue" points="108.647,-108.901 98.2866,-111.116 107.767,-115.845 108.647,-108.901"/>
</g>
<!-- Node5 -->
<g id="node5" class="node"><title>Node5</title>
<g id="a_node5"><a xlink:href="../../db/dec/_damier_g_l_8cpp.xhtml#a0ddf1224851353fc92bfbff6f499fa97" target="_top" xlink:title="main">
<polygon fill="white" stroke="black" points="304,-76.5 304,-95.5 342,-95.5 342,-76.5 304,-76.5"/>
<text text-anchor="middle" x="323" y="-83.5" font-family="Helvetica,sans-Serif" font-size="10.00">main</text>
</a>
</g>
</g>
<!-- Node1&#45;&gt;Node5 -->
<g id="edge8" class="edge"><title>Node1&#45;&gt;Node5</title>
<path fill="none" stroke="midnightblue" d="M108.035,-100.946C170.016,-96.6165 264.622,-90.0081 303.915,-87.2633"/>
<polygon fill="midnightblue" stroke="midnightblue" points="107.734,-97.4585 98.002,-101.647 108.222,-104.441 107.734,-97.4585"/>
</g>
<!-- Node6 -->
<g id="node6" class="node"><title>Node6</title>
<g id="a_node6"><a xlink:href="../../de/d31/class_c_g_l_position.xhtml#a5a43a8991d3d8ca645edbcfb0e97db20" target="_top" xlink:title="CGLPosition::setAccel">
<polygon fill="white" stroke="black" points="143,-38.5 143,-57.5 259,-57.5 259,-38.5 143,-38.5"/>
<text text-anchor="middle" x="201" y="-45.5" font-family="Helvetica,sans-Serif" font-size="10.00">CGLPosition::setAccel</text>
</a>
</g>
</g>
<!-- Node1&#45;&gt;Node6 -->
<g id="edge5" class="edge"><title>Node1&#45;&gt;Node6</title>
<path fill="none" stroke="midnightblue" d="M83.4324,-91.6395C98.8005,-85.5563 117.289,-78.3195 134,-72 146.887,-67.1266 161.256,-61.8793 173.289,-57.5378"/>
<polygon fill="midnightblue" stroke="midnightblue" points="81.8375,-88.5068 73.8342,-95.4492 84.42,-95.013 81.8375,-88.5068"/>
</g>
<!-- Node7 -->
<g id="node7" class="node"><title>Node7</title>
<g id="a_node7"><a xlink:href="../../de/d31/class_c_g_l_position.xhtml#a439ae873ba7ef56826a27eb7b15b0b6f" target="_top" xlink:title="CGLPosition::drawObject">
<polygon fill="white" stroke="black" points="137,-0.5 137,-19.5 265,-19.5 265,-0.5 137,-0.5"/>
<text text-anchor="middle" x="201" y="-7.5" font-family="Helvetica,sans-Serif" font-size="10.00">CGLPosition::drawObject</text>
</a>
</g>
</g>
<!-- Node1&#45;&gt;Node7 -->
<g id="edge7" class="edge"><title>Node1&#45;&gt;Node7</title>
<path fill="none" stroke="midnightblue" d="M64.7739,-87.6357C80.3386,-70.3919 106.385,-44.3698 134,-29 140.876,-25.1729 148.594,-22.0562 156.262,-19.5381"/>
<polygon fill="midnightblue" stroke="midnightblue" points="61.9972,-85.4929 58.0141,-95.3106 67.2502,-90.1197 61.9972,-85.4929"/>
</g>
<!-- Node4&#45;&gt;Node5 -->
<g id="edge4" class="edge"><title>Node4&#45;&gt;Node5</title>
<path fill="none" stroke="midnightblue" d="M241.879,-111.372C262.762,-104.759 287.322,-96.9813 303.693,-91.7972"/>
<polygon fill="midnightblue" stroke="midnightblue" points="240.758,-108.055 232.281,-114.411 242.871,-114.729 240.758,-108.055"/>
</g>
<!-- Node6&#45;&gt;Node5 -->
<g id="edge6" class="edge"><title>Node6&#45;&gt;Node5</title>
<path fill="none" stroke="midnightblue" d="M241.879,-60.6283C262.762,-67.2412 287.322,-75.0187 303.693,-80.2028"/>
<polygon fill="midnightblue" stroke="midnightblue" points="242.871,-57.2713 232.281,-57.589 240.758,-63.9447 242.871,-57.2713"/>
</g>
</g>
</svg>
