<?xml version="1.0" encoding="UTF-8" standalone="no"?>
<!DOCTYPE svg PUBLIC "-//W3C//DTD SVG 1.1//EN"
 "http://www.w3.org/Graphics/SVG/1.1/DTD/svg11.dtd">
<!-- Generated by graphviz version 2.36.0 (20140111.2315)
 -->
<!-- Title: CGLCamera::onMouseButton Pages: 1 -->
<svg width="496pt" height="28pt"
 viewBox="0.00 0.00 496.00 28.00" xmlns="http://www.w3.org/2000/svg" xmlns:xlink="http://www.w3.org/1999/xlink">
<g id="graph0" class="graph" transform="scale(1 1) rotate(0) translate(4 24)">
<title>CGLCamera::onMouseButton</title>
<polygon fill="white" stroke="none" points="-4,4 -4,-24 492,-24 492,4 -4,4"/>
<!-- Node1 -->
<g id="node1" class="node"><title>Node1</title>
<polygon fill="#bfbfbf" stroke="black" points="0,-0.5 0,-19.5 146,-19.5 146,-0.5 0,-0.5"/>
<text text-anchor="middle" x="73" y="-7.5" font-family="Helvetica,sans-Serif" font-size="10.00">CGLCamera::onMouseButton</text>
</g>
<!-- Node2 -->
<g id="node2" class="node"><title>Node2</title>
<g id="a_node2"><a xlink:href="../../dd/d40/class_c_g_l_window.xhtml#a87ea72d63fe563266178e72a19722e5d" target="_top" xlink:title="CGLWindow::loop">
<polygon fill="white" stroke="black" points="182,-0.5 182,-19.5 278,-19.5 278,-0.5 182,-0.5"/>
<text text-anchor="middle" x="230" y="-7.5" font-family="Helvetica,sans-Serif" font-size="10.00">CGLWindow::loop</text>
</a>
</g>
</g>
<!-- Node1&#45;&gt;Node2 -->
<g id="edge1" class="edge"><title>Node1&#45;&gt;Node2</title>
<path fill="none" stroke="midnightblue" d="M156.058,-10C164.909,-10 173.681,-10 181.91,-10"/>
<polygon fill="midnightblue" stroke="midnightblue" points="156.055,-6.5001 146.055,-10 156.055,-13.5001 156.055,-6.5001"/>
</g>
<!-- Node3 -->
<g id="node3" class="node"><title>Node3</title>
<g id="a_node3"><a xlink:href="../../dd/d40/class_c_g_l_window.xhtml#acee59c3d1b3a12c43fccf7f225c98dd6" target="_top" xlink:title="CGLWindow::exec">
<polygon fill="white" stroke="black" points="314.5,-0.5 314.5,-19.5 413.5,-19.5 413.5,-0.5 314.5,-0.5"/>
<text text-anchor="middle" x="364" y="-7.5" font-family="Helvetica,sans-Serif" font-size="10.00">CGLWindow::exec</text>
</a>
</g>
</g>
<!-- Node2&#45;&gt;Node3 -->
<g id="edge2" class="edge"><title>Node2&#45;&gt;Node3</title>
<path fill="none" stroke="midnightblue" d="M288.31,-10C296.963,-10 305.819,-10 314.268,-10"/>
<polygon fill="midnightblue" stroke="midnightblue" points="288.282,-6.5001 278.282,-10 288.282,-13.5001 288.282,-6.5001"/>
</g>
<!-- Node4 -->
<g id="node4" class="node"><title>Node4</title>
<g id="a_node4"><a xlink:href="../../db/dec/_damier_g_l_8cpp.xhtml#a0ddf1224851353fc92bfbff6f499fa97" target="_top" xlink:title="main">
<polygon fill="white" stroke="black" points="450,-0.5 450,-19.5 488,-19.5 488,-0.5 450,-0.5"/>
<text text-anchor="middle" x="469" y="-7.5" font-family="Helvetica,sans-Serif" font-size="10.00">main</text>
</a>
</g>
</g>
<!-- Node3&#45;&gt;Node4 -->
<g id="edge3" class="edge"><title>Node3&#45;&gt;Node4</title>
<path fill="none" stroke="midnightblue" d="M424.048,-10C433.439,-10 442.487,-10 449.908,-10"/>
<polygon fill="midnightblue" stroke="midnightblue" points="423.785,-6.5001 413.785,-10 423.785,-13.5001 423.785,-6.5001"/>
</g>
</g>
</svg>
