<?xml version="1.0" encoding="UTF-8" standalone="no"?>
<!DOCTYPE svg PUBLIC "-//W3C//DTD SVG 1.1//EN"
 "http://www.w3.org/Graphics/SVG/1.1/DTD/svg11.dtd">
<!-- Generated by graphviz version 2.36.0 (20140111.2315)
 -->
<!-- Title: operator== Pages: 1 -->
<svg width="376pt" height="104pt"
 viewBox="0.00 0.00 376.00 104.00" xmlns="http://www.w3.org/2000/svg" xmlns:xlink="http://www.w3.org/1999/xlink">
<g id="graph0" class="graph" transform="scale(1 1) rotate(0) translate(4 100)">
<title>operator==</title>
<polygon fill="white" stroke="none" points="-4,4 -4,-100 372,-100 372,4 -4,4"/>
<!-- Node1 -->
<g id="node1" class="node"><title>Node1</title>
<polygon fill="#bfbfbf" stroke="black" points="0,-38.5 0,-57.5 64,-57.5 64,-38.5 0,-38.5"/>
<text text-anchor="middle" x="32" y="-45.5" font-family="Helvetica,sans-Serif" font-size="10.00">operator==</text>
</g>
<!-- Node2 -->
<g id="node2" class="node"><title>Node2</title>
<g id="a_node2"><a xlink:href="../../d6/df9/class_c_g_l_vector3_d.xhtml#a339da32afa5a535aec027aba6b92e9b5" target="_top" xlink:title="CGLVector3D::isEqualTo">
<polygon fill="white" stroke="black" points="100,-38.5 100,-57.5 228,-57.5 228,-38.5 100,-38.5"/>
<text text-anchor="middle" x="164" y="-45.5" font-family="Helvetica,sans-Serif" font-size="10.00">CGLVector3D::isEqualTo</text>
</a>
</g>
</g>
<!-- Node1&#45;&gt;Node2 -->
<g id="edge1" class="edge"><title>Node1&#45;&gt;Node2</title>
<path fill="none" stroke="midnightblue" d="M64.1382,-48C71.9972,-48 80.7725,-48 89.7614,-48"/>
<polygon fill="midnightblue" stroke="midnightblue" points="89.9636,-51.5001 99.9635,-48 89.9635,-44.5001 89.9636,-51.5001"/>
</g>
<!-- Node3 -->
<g id="node3" class="node"><title>Node3</title>
<g id="a_node3"><a xlink:href="../../d8/d97/class_c_g_l_vector2_d.xhtml#a5f25e872259c579251336dfe0faf8701" target="_top" xlink:title="CGLVector2D::getX">
<polygon fill="white" stroke="black" points="264,-76.5 264,-95.5 368,-95.5 368,-76.5 264,-76.5"/>
<text text-anchor="middle" x="316" y="-83.5" font-family="Helvetica,sans-Serif" font-size="10.00">CGLVector2D::getX</text>
</a>
</g>
</g>
<!-- Node2&#45;&gt;Node3 -->
<g id="edge2" class="edge"><title>Node2&#45;&gt;Node3</title>
<path fill="none" stroke="midnightblue" d="M202.851,-57.589C222.467,-62.5583 246.619,-68.6767 267.479,-73.9613"/>
<polygon fill="midnightblue" stroke="midnightblue" points="266.868,-77.4169 277.421,-76.4799 268.587,-70.6313 266.868,-77.4169"/>
</g>
<!-- Node4 -->
<g id="node4" class="node"><title>Node4</title>
<g id="a_node4"><a xlink:href="../../d8/d97/class_c_g_l_vector2_d.xhtml#ad279638b74a0caac60632b169136688c" target="_top" xlink:title="CGLVector2D::getY">
<polygon fill="white" stroke="black" points="264,-38.5 264,-57.5 368,-57.5 368,-38.5 264,-38.5"/>
<text text-anchor="middle" x="316" y="-45.5" font-family="Helvetica,sans-Serif" font-size="10.00">CGLVector2D::getY</text>
</a>
</g>
</g>
<!-- Node2&#45;&gt;Node4 -->
<g id="edge3" class="edge"><title>Node2&#45;&gt;Node4</title>
<path fill="none" stroke="midnightblue" d="M228.179,-48C236.603,-48 245.232,-48 253.625,-48"/>
<polygon fill="midnightblue" stroke="midnightblue" points="253.716,-51.5001 263.716,-48 253.716,-44.5001 253.716,-51.5001"/>
</g>
<!-- Node5 -->
<g id="node5" class="node"><title>Node5</title>
<g id="a_node5"><a xlink:href="../../d6/df9/class_c_g_l_vector3_d.xhtml#a374bca193aae71220f1349a6ab0778ee" target="_top" xlink:title="CGLVector3D::getZ">
<polygon fill="white" stroke="black" points="264,-0.5 264,-19.5 368,-19.5 368,-0.5 264,-0.5"/>
<text text-anchor="middle" x="316" y="-7.5" font-family="Helvetica,sans-Serif" font-size="10.00">CGLVector3D::getZ</text>
</a>
</g>
</g>
<!-- Node2&#45;&gt;Node5 -->
<g id="edge4" class="edge"><title>Node2&#45;&gt;Node5</title>
<path fill="none" stroke="midnightblue" d="M202.851,-38.411C222.467,-33.4417 246.619,-27.3233 267.479,-22.0387"/>
<polygon fill="midnightblue" stroke="midnightblue" points="268.587,-25.3687 277.421,-19.5201 266.868,-18.5831 268.587,-25.3687"/>
</g>
</g>
</svg>
