<?xml version="1.0" encoding="UTF-8" standalone="no"?>
<!DOCTYPE svg PUBLIC "-//W3C//DTD SVG 1.1//EN"
 "http://www.w3.org/Graphics/SVG/1.1/DTD/svg11.dtd">
<!-- Generated by graphviz version 2.36.0 (20140111.2315)
 -->
<!-- Title: CGLVector4D Pages: 1 -->
<svg width="106pt" height="432pt"
 viewBox="0.00 0.00 106.00 432.00" xmlns="http://www.w3.org/2000/svg" xmlns:xlink="http://www.w3.org/1999/xlink">
<g id="graph0" class="graph" transform="scale(1 1) rotate(0) translate(4 428)">
<title>CGLVector4D</title>
<polygon fill="white" stroke="none" points="-4,4 -4,-428 102,-428 102,4 -4,4"/>
<!-- Node1 -->
<g id="node1" class="node"><title>Node1</title>
<polygon fill="#bfbfbf" stroke="black" points="-0.5,-0.5 -0.5,-101.5 98.5,-101.5 98.5,-0.5 -0.5,-0.5"/>
<text text-anchor="middle" x="49" y="-89.5" font-family="Helvetica,sans-Serif" font-size="10.00">CGLVector4D</text>
<polyline fill="none" stroke="black" points="-0.5,-82.5 98.5,-82.5 "/>
<text text-anchor="start" x="7.5" y="-70.5" font-family="Helvetica,sans-Serif" font-size="10.00"># w</text>
<polyline fill="none" stroke="black" points="-0.5,-63.5 98.5,-63.5 "/>
<text text-anchor="start" x="7.5" y="-51.5" font-family="Helvetica,sans-Serif" font-size="10.00">+ CGLVector4D()</text>
<text text-anchor="start" x="7.5" y="-40.5" font-family="Helvetica,sans-Serif" font-size="10.00">+ ~CGLVector4D()</text>
<text text-anchor="start" x="7.5" y="-29.5" font-family="Helvetica,sans-Serif" font-size="10.00">+ getW()</text>
<text text-anchor="start" x="7.5" y="-18.5" font-family="Helvetica,sans-Serif" font-size="10.00">+ setW()</text>
<text text-anchor="start" x="7.5" y="-7.5" font-family="Helvetica,sans-Serif" font-size="10.00">+ set()</text>
</g>
<!-- Node2 -->
<g id="node2" class="node"><title>Node2</title>
<g id="a_node2"><a xlink:href="$d6/df9/class_c_g_l_vector3_d.xhtml" xlink:title="{CGLVector3D\n|# z\l|+ CGLVector3D()\l+ ~CGLVector3D()\l+ isEqualTo()\l+ getZ()\l+ set()\l+ setZ()\l}">
<polygon fill="white" stroke="black" points="-0.5,-139 -0.5,-251 98.5,-251 98.5,-139 -0.5,-139"/>
<text text-anchor="middle" x="49" y="-239" font-family="Helvetica,sans-Serif" font-size="10.00">CGLVector3D</text>
<polyline fill="none" stroke="black" points="-0.5,-232 98.5,-232 "/>
<text text-anchor="start" x="7.5" y="-220" font-family="Helvetica,sans-Serif" font-size="10.00"># z</text>
<polyline fill="none" stroke="black" points="-0.5,-213 98.5,-213 "/>
<text text-anchor="start" x="7.5" y="-201" font-family="Helvetica,sans-Serif" font-size="10.00">+ CGLVector3D()</text>
<text text-anchor="start" x="7.5" y="-190" font-family="Helvetica,sans-Serif" font-size="10.00">+ ~CGLVector3D()</text>
<text text-anchor="start" x="7.5" y="-179" font-family="Helvetica,sans-Serif" font-size="10.00">+ isEqualTo()</text>
<text text-anchor="start" x="7.5" y="-168" font-family="Helvetica,sans-Serif" font-size="10.00">+ getZ()</text>
<text text-anchor="start" x="7.5" y="-157" font-family="Helvetica,sans-Serif" font-size="10.00">+ set()</text>
<text text-anchor="start" x="7.5" y="-146" font-family="Helvetica,sans-Serif" font-size="10.00">+ setZ()</text>
</a>
</g>
</g>
<!-- Node2&#45;&gt;Node1 -->
<g id="edge1" class="edge"><title>Node2&#45;&gt;Node1</title>
<path fill="none" stroke="midnightblue" d="M49,-128.613C49,-119.613 49,-110.492 49,-101.833"/>
<polygon fill="none" stroke="midnightblue" points="45.5001,-128.692 49,-138.692 52.5001,-128.693 45.5001,-128.692"/>
</g>
<!-- Node3 -->
<g id="node3" class="node"><title>Node3</title>
<g id="a_node3"><a xlink:href="$d8/d97/class_c_g_l_vector2_d.xhtml" xlink:title="{CGLVector2D\n|# x\l# y\l|+ CGLVector2D()\l+ ~CGLVector2D()\l+ set()\l+ setX()\l+ getX()\l+ setY()\l+ getY()\l}">
<polygon fill="white" stroke="black" points="-0.5,-289 -0.5,-423 98.5,-423 98.5,-289 -0.5,-289"/>
<text text-anchor="middle" x="49" y="-411" font-family="Helvetica,sans-Serif" font-size="10.00">CGLVector2D</text>
<polyline fill="none" stroke="black" points="-0.5,-404 98.5,-404 "/>
<text text-anchor="start" x="7.5" y="-392" font-family="Helvetica,sans-Serif" font-size="10.00"># x</text>
<text text-anchor="start" x="7.5" y="-381" font-family="Helvetica,sans-Serif" font-size="10.00"># y</text>
<polyline fill="none" stroke="black" points="-0.5,-374 98.5,-374 "/>
<text text-anchor="start" x="7.5" y="-362" font-family="Helvetica,sans-Serif" font-size="10.00">+ CGLVector2D()</text>
<text text-anchor="start" x="7.5" y="-351" font-family="Helvetica,sans-Serif" font-size="10.00">+ ~CGLVector2D()</text>
<text text-anchor="start" x="7.5" y="-340" font-family="Helvetica,sans-Serif" font-size="10.00">+ set()</text>
<text text-anchor="start" x="7.5" y="-329" font-family="Helvetica,sans-Serif" font-size="10.00">+ setX()</text>
<text text-anchor="start" x="7.5" y="-318" font-family="Helvetica,sans-Serif" font-size="10.00">+ getX()</text>
<text text-anchor="start" x="7.5" y="-307" font-family="Helvetica,sans-Serif" font-size="10.00">+ setY()</text>
<text text-anchor="start" x="7.5" y="-296" font-family="Helvetica,sans-Serif" font-size="10.00">+ getY()</text>
</a>
</g>
</g>
<!-- Node3&#45;&gt;Node2 -->
<g id="edge2" class="edge"><title>Node3&#45;&gt;Node2</title>
<path fill="none" stroke="midnightblue" d="M49,-278.657C49,-269.494 49,-260.276 49,-251.49"/>
<polygon fill="none" stroke="midnightblue" points="45.5001,-278.951 49,-288.951 52.5001,-278.951 45.5001,-278.951"/>
</g>
</g>
</svg>
