<?xml version="1.0" encoding="UTF-8" standalone="no"?>
<!DOCTYPE svg PUBLIC "-//W3C//DTD SVG 1.1//EN"
 "http://www.w3.org/Graphics/SVG/1.1/DTD/svg11.dtd">
<!-- Generated by graphviz version 2.36.0 (20140111.2315)
 -->
<!-- Title: /home/dagal/git/DamierGL/DamierGL/src/CGL/CGLRotation.h Pages: 1 -->
<svg width="479pt" height="176pt"
 viewBox="0.00 0.00 479.00 176.00" xmlns="http://www.w3.org/2000/svg" xmlns:xlink="http://www.w3.org/1999/xlink">
<g id="graph0" class="graph" transform="scale(1 1) rotate(0) translate(4 172)">
<title>/home/dagal/git/DamierGL/DamierGL/src/CGL/CGLRotation.h</title>
<polygon fill="white" stroke="none" points="-4,4 -4,-172 475,-172 475,4 -4,4"/>
<!-- Node1 -->
<g id="node1" class="node"><title>Node1</title>
<polygon fill="#bfbfbf" stroke="black" points="109,-137 109,-167 281,-167 281,-137 109,-137"/>
<text text-anchor="start" x="117" y="-155" font-family="Helvetica,sans-Serif" font-size="10.00">/home/dagal/git/DamierGL</text>
<text text-anchor="middle" x="195" y="-144" font-family="Helvetica,sans-Serif" font-size="10.00">/DamierGL/src/CGL/CGLRotation.h</text>
</g>
<!-- Node2 -->
<g id="node2" class="node"><title>Node2</title>
<g id="a_node2"><a xlink:href="../../db/d63/_c_g_l_rotation_8cpp.xhtml" target="_top" xlink:title="/home/dagal/git/DamierGL\l/DamierGL/src/CGL/CGLRotation.cpp">
<polygon fill="white" stroke="black" points="0,-69 0,-99 182,-99 182,-69 0,-69"/>
<text text-anchor="start" x="8" y="-87" font-family="Helvetica,sans-Serif" font-size="10.00">/home/dagal/git/DamierGL</text>
<text text-anchor="middle" x="91" y="-76" font-family="Helvetica,sans-Serif" font-size="10.00">/DamierGL/src/CGL/CGLRotation.cpp</text>
</a>
</g>
</g>
<!-- Node1&#45;&gt;Node2 -->
<g id="edge1" class="edge"><title>Node1&#45;&gt;Node2</title>
<path fill="none" stroke="midnightblue" d="M164.019,-131.339C147.705,-120.986 128.071,-108.526 113.274,-99.1352"/>
<polygon fill="midnightblue" stroke="midnightblue" points="162.371,-134.438 172.689,-136.841 166.121,-128.528 162.371,-134.438"/>
</g>
<!-- Node3 -->
<g id="node3" class="node"><title>Node3</title>
<g id="a_node3"><a xlink:href="../../d4/ddd/_c_g_l_rotation_speed_8h.xhtml" target="_top" xlink:title="/home/dagal/git/DamierGL\l/DamierGL/src/CGL/CGLRotationSpeed.h">
<polygon fill="white" stroke="black" points="200,-69 200,-99 400,-99 400,-69 200,-69"/>
<text text-anchor="start" x="208" y="-87" font-family="Helvetica,sans-Serif" font-size="10.00">/home/dagal/git/DamierGL</text>
<text text-anchor="middle" x="300" y="-76" font-family="Helvetica,sans-Serif" font-size="10.00">/DamierGL/src/CGL/CGLRotationSpeed.h</text>
</a>
</g>
</g>
<!-- Node1&#45;&gt;Node3 -->
<g id="edge2" class="edge"><title>Node1&#45;&gt;Node3</title>
<path fill="none" stroke="midnightblue" d="M226.279,-131.339C242.75,-120.986 262.572,-108.526 277.512,-99.1352"/>
<polygon fill="midnightblue" stroke="midnightblue" points="224.129,-128.556 217.525,-136.841 227.854,-134.483 224.129,-128.556"/>
</g>
<!-- Node4 -->
<g id="node4" class="node"><title>Node4</title>
<g id="a_node4"><a xlink:href="../../df/d6d/_c_g_l_rotation_speed_8cpp.xhtml" target="_top" xlink:title="/home/dagal/git/DamierGL\l/DamierGL/src/CGL/CGLRotationSpeed.cpp">
<polygon fill="white" stroke="black" points="97,-1 97,-31 307,-31 307,-1 97,-1"/>
<text text-anchor="start" x="105" y="-19" font-family="Helvetica,sans-Serif" font-size="10.00">/home/dagal/git/DamierGL</text>
<text text-anchor="middle" x="202" y="-8" font-family="Helvetica,sans-Serif" font-size="10.00">/DamierGL/src/CGL/CGLRotationSpeed.cpp</text>
</a>
</g>
</g>
<!-- Node3&#45;&gt;Node4 -->
<g id="edge3" class="edge"><title>Node3&#45;&gt;Node4</title>
<path fill="none" stroke="midnightblue" d="M270.137,-62.8884C254.861,-52.6003 236.641,-40.3293 222.886,-31.0663"/>
<polygon fill="midnightblue" stroke="midnightblue" points="268.486,-65.996 278.735,-68.679 272.396,-60.1899 268.486,-65.996"/>
</g>
<!-- Node5 -->
<g id="node5" class="node"><title>Node5</title>
<g id="a_node5"><a xlink:href="../../db/dec/_damier_g_l_8cpp.xhtml" target="_top" xlink:title="/home/dagal/git/DamierGL\l/DamierGL/src/DamierGL.cpp">
<polygon fill="white" stroke="black" points="325,-1 325,-31 471,-31 471,-1 325,-1"/>
<text text-anchor="start" x="333" y="-19" font-family="Helvetica,sans-Serif" font-size="10.00">/home/dagal/git/DamierGL</text>
<text text-anchor="middle" x="398" y="-8" font-family="Helvetica,sans-Serif" font-size="10.00">/DamierGL/src/DamierGL.cpp</text>
</a>
</g>
</g>
<!-- Node3&#45;&gt;Node5 -->
<g id="edge4" class="edge"><title>Node3&#45;&gt;Node5</title>
<path fill="none" stroke="midnightblue" d="M329.863,-62.8884C345.139,-52.6003 363.359,-40.3293 377.114,-31.0663"/>
<polygon fill="midnightblue" stroke="midnightblue" points="327.604,-60.1899 321.265,-68.679 331.514,-65.996 327.604,-60.1899"/>
</g>
</g>
</svg>
