<?xml version="1.0" encoding="UTF-8" standalone="no"?>
<!DOCTYPE svg PUBLIC "-//W3C//DTD SVG 1.1//EN"
 "http://www.w3.org/Graphics/SVG/1.1/DTD/svg11.dtd">
<!-- Generated by graphviz version 2.36.0 (20140111.2315)
 -->
<!-- Title: /home/dagal/git/DamierGL/DamierGL/src/CGL/CGLObject.h Pages: 1 -->
<svg width="3438pt" height="516pt"
 viewBox="0.00 0.00 3438.00 516.00" xmlns="http://www.w3.org/2000/svg" xmlns:xlink="http://www.w3.org/1999/xlink">
<g id="graph0" class="graph" transform="scale(1 1) rotate(0) translate(4 512)">
<title>/home/dagal/git/DamierGL/DamierGL/src/CGL/CGLObject.h</title>
<polygon fill="white" stroke="none" points="-4,4 -4,-512 3434,-512 3434,4 -4,4"/>
<!-- Node1 -->
<g id="node1" class="node"><title>Node1</title>
<polygon fill="#bfbfbf" stroke="black" points="2159,-477 2159,-507 2323,-507 2323,-477 2159,-477"/>
<text text-anchor="start" x="2167" y="-495" font-family="Helvetica,sans-Serif" font-size="10.00">/home/dagal/git/DamierGL</text>
<text text-anchor="middle" x="2241" y="-484" font-family="Helvetica,sans-Serif" font-size="10.00">/DamierGL/src/CGL/CGLObject.h</text>
</g>
<!-- Node2 -->
<g id="node2" class="node"><title>Node2</title>
<g id="a_node2"><a xlink:href="$d2/d5a/_c_g_l_item_8h.xhtml" xlink:title="/home/dagal/git/DamierGL\l/DamierGL/src/CGL/CGLItem.h">
<polygon fill="white" stroke="black" points="1131.5,-205 1131.5,-235 1286.5,-235 1286.5,-205 1131.5,-205"/>
<text text-anchor="start" x="1139.5" y="-223" font-family="Helvetica,sans-Serif" font-size="10.00">/home/dagal/git/DamierGL</text>
<text text-anchor="middle" x="1209" y="-212" font-family="Helvetica,sans-Serif" font-size="10.00">/DamierGL/src/CGL/CGLItem.h</text>
</a>
</g>
</g>
<!-- Node1&#45;&gt;Node2 -->
<g id="edge1" class="edge"><title>Node1&#45;&gt;Node2</title>
<path fill="none" stroke="midnightblue" d="M2159.06,-474.993C2111.59,-465.44 2050.77,-452.723 1997,-440 1712.36,-372.645 1375.57,-271.882 1254.86,-235.091"/>
<polygon fill="midnightblue" stroke="midnightblue" points="2158.49,-478.447 2168.98,-476.982 2159.86,-471.584 2158.49,-478.447"/>
</g>
<!-- Node22 -->
<g id="node22" class="node"><title>Node22</title>
<g id="a_node22"><a xlink:href="$dc/db8/_c_g_l_special_8h.xhtml" xlink:title="/home/dagal/git/DamierGL\l/DamierGL/src/CGL/CGLSpecial.h">
<polygon fill="white" stroke="black" points="2006.5,-409 2006.5,-439 2173.5,-439 2173.5,-409 2006.5,-409"/>
<text text-anchor="start" x="2014.5" y="-427" font-family="Helvetica,sans-Serif" font-size="10.00">/home/dagal/git/DamierGL</text>
<text text-anchor="middle" x="2090" y="-416" font-family="Helvetica,sans-Serif" font-size="10.00">/DamierGL/src/CGL/CGLSpecial.h</text>
</a>
</g>
</g>
<!-- Node1&#45;&gt;Node22 -->
<g id="edge27" class="edge"><title>Node1&#45;&gt;Node22</title>
<path fill="none" stroke="midnightblue" d="M2199.24,-472.749C2174.86,-462.093 2144.58,-448.855 2122.08,-439.022"/>
<polygon fill="midnightblue" stroke="midnightblue" points="2198.04,-476.043 2208.61,-476.841 2200.85,-469.629 2198.04,-476.043"/>
</g>
<!-- Node35 -->
<g id="node35" class="node"><title>Node35</title>
<g id="a_node35"><a xlink:href="$d7/d27/_c_g_l_effect_8h.xhtml" xlink:title="/home/dagal/git/DamierGL\l/DamierGL/src/CGL/CGLEffect.h">
<polygon fill="white" stroke="black" points="2657.5,-205 2657.5,-235 2818.5,-235 2818.5,-205 2657.5,-205"/>
<text text-anchor="start" x="2665.5" y="-223" font-family="Helvetica,sans-Serif" font-size="10.00">/home/dagal/git/DamierGL</text>
<text text-anchor="middle" x="2738" y="-212" font-family="Helvetica,sans-Serif" font-size="10.00">/DamierGL/src/CGL/CGLEffect.h</text>
</a>
</g>
</g>
<!-- Node1&#45;&gt;Node35 -->
<g id="edge43" class="edge"><title>Node1&#45;&gt;Node35</title>
<path fill="none" stroke="midnightblue" d="M2261.71,-469.8C2280.07,-451.797 2308.21,-426.078 2336,-408 2460.04,-327.307 2624.49,-262.349 2698.71,-235.002"/>
<polygon fill="midnightblue" stroke="midnightblue" points="2259.09,-467.466 2254.47,-476.999 2264.03,-472.43 2259.09,-467.466"/>
</g>
<!-- Node47 -->
<g id="node47" class="node"><title>Node47</title>
<g id="a_node47"><a xlink:href="$da/d25/_c_g_l_object_8cpp.xhtml" xlink:title="/home/dagal/git/DamierGL\l/DamierGL/src/CGL/CGLObject.cpp">
<polygon fill="white" stroke="black" points="2345,-409 2345,-439 2519,-439 2519,-409 2345,-409"/>
<text text-anchor="start" x="2353" y="-427" font-family="Helvetica,sans-Serif" font-size="10.00">/home/dagal/git/DamierGL</text>
<text text-anchor="middle" x="2432" y="-416" font-family="Helvetica,sans-Serif" font-size="10.00">/DamierGL/src/CGL/CGLObject.cpp</text>
</a>
</g>
</g>
<!-- Node1&#45;&gt;Node47 -->
<g id="edge60" class="edge"><title>Node1&#45;&gt;Node47</title>
<path fill="none" stroke="midnightblue" d="M2291.78,-473.452C2322.95,-462.68 2362.34,-449.072 2391.42,-439.022"/>
<polygon fill="midnightblue" stroke="midnightblue" points="2290.28,-470.267 2281.97,-476.841 2292.57,-476.883 2290.28,-470.267"/>
</g>
<!-- Node3 -->
<g id="node3" class="node"><title>Node3</title>
<g id="a_node3"><a xlink:href="$db/d17/_c_g_l_boite_8h.xhtml" xlink:title="/home/dagal/git/DamierGL\l/DamierGL/src/CGL/CGLBoite.h">
<polygon fill="white" stroke="black" points="504,-137 504,-167 662,-167 662,-137 504,-137"/>
<text text-anchor="start" x="512" y="-155" font-family="Helvetica,sans-Serif" font-size="10.00">/home/dagal/git/DamierGL</text>
<text text-anchor="middle" x="583" y="-144" font-family="Helvetica,sans-Serif" font-size="10.00">/DamierGL/src/CGL/CGLBoite.h</text>
</a>
</g>
</g>
<!-- Node2&#45;&gt;Node3 -->
<g id="edge2" class="edge"><title>Node2&#45;&gt;Node3</title>
<path fill="none" stroke="midnightblue" d="M1121.12,-210.685C1020.5,-201.03 850.759,-184.333 705,-168 691.109,-166.443 676.34,-164.701 662.051,-162.971"/>
<polygon fill="midnightblue" stroke="midnightblue" points="1120.95,-214.184 1131.24,-211.654 1121.62,-207.216 1120.95,-214.184"/>
</g>
<!-- Node9 -->
<g id="node9" class="node"><title>Node9</title>
<g id="a_node9"><a xlink:href="$d7/d91/_c_g_l_circle_8h.xhtml" xlink:title="/home/dagal/git/DamierGL\l/DamierGL/src/CGL/CGLCircle.h">
<polygon fill="white" stroke="black" points="1488.5,-137 1488.5,-167 1649.5,-167 1649.5,-137 1488.5,-137"/>
<text text-anchor="start" x="1496.5" y="-155" font-family="Helvetica,sans-Serif" font-size="10.00">/home/dagal/git/DamierGL</text>
<text text-anchor="middle" x="1569" y="-144" font-family="Helvetica,sans-Serif" font-size="10.00">/DamierGL/src/CGL/CGLCircle.h</text>
</a>
</g>
</g>
<!-- Node2&#45;&gt;Node9 -->
<g id="edge8" class="edge"><title>Node2&#45;&gt;Node9</title>
<path fill="none" stroke="midnightblue" d="M1295.99,-203.052C1355.9,-192.068 1434.77,-177.608 1492.33,-167.056"/>
<polygon fill="midnightblue" stroke="midnightblue" points="1294.99,-199.676 1285.79,-204.922 1296.25,-206.562 1294.99,-199.676"/>
</g>
<!-- Node11 -->
<g id="node11" class="node"><title>Node11</title>
<g id="a_node11"><a xlink:href="$d5/d21/_c_g_l_dot_8h.xhtml" xlink:title="/home/dagal/git/DamierGL\l/DamierGL/src/CGL/CGLDot.h">
<polygon fill="white" stroke="black" points="1714.5,-137 1714.5,-167 1865.5,-167 1865.5,-137 1714.5,-137"/>
<text text-anchor="start" x="1722.5" y="-155" font-family="Helvetica,sans-Serif" font-size="10.00">/home/dagal/git/DamierGL</text>
<text text-anchor="middle" x="1790" y="-144" font-family="Helvetica,sans-Serif" font-size="10.00">/DamierGL/src/CGL/CGLDot.h</text>
</a>
</g>
</g>
<!-- Node2&#45;&gt;Node11 -->
<g id="edge11" class="edge"><title>Node2&#45;&gt;Node11</title>
<path fill="none" stroke="midnightblue" d="M1296.81,-209.027C1387.33,-198.747 1532.53,-182.255 1658,-168 1676.22,-165.93 1695.85,-163.699 1714.26,-161.607"/>
<polygon fill="midnightblue" stroke="midnightblue" points="1296.41,-205.55 1286.87,-210.156 1297.2,-212.505 1296.41,-205.55"/>
</g>
<!-- Node13 -->
<g id="node13" class="node"><title>Node13</title>
<g id="a_node13"><a xlink:href="$da/dcb/_c_g_l_item_8cpp.xhtml" xlink:title="/home/dagal/git/DamierGL\l/DamierGL/src/CGL/CGLItem.cpp">
<polygon fill="white" stroke="black" points="902.5,-137 902.5,-167 1067.5,-167 1067.5,-137 902.5,-137"/>
<text text-anchor="start" x="910.5" y="-155" font-family="Helvetica,sans-Serif" font-size="10.00">/home/dagal/git/DamierGL</text>
<text text-anchor="middle" x="985" y="-144" font-family="Helvetica,sans-Serif" font-size="10.00">/DamierGL/src/CGL/CGLItem.cpp</text>
</a>
</g>
</g>
<!-- Node2&#45;&gt;Node13 -->
<g id="edge14" class="edge"><title>Node2&#45;&gt;Node13</title>
<path fill="none" stroke="midnightblue" d="M1151.61,-202.091C1114.77,-191.235 1067.48,-177.303 1032.71,-167.056"/>
<polygon fill="midnightblue" stroke="midnightblue" points="1150.64,-205.453 1161.22,-204.922 1152.62,-198.739 1150.64,-205.453"/>
</g>
<!-- Node14 -->
<g id="node14" class="node"><title>Node14</title>
<g id="a_node14"><a xlink:href="$df/d4a/_c_g_l_line_8h.xhtml" xlink:title="/home/dagal/git/DamierGL\l/DamierGL/src/CGL/CGLLine.h">
<polygon fill="white" stroke="black" points="300.5,-137 300.5,-167 453.5,-167 453.5,-137 300.5,-137"/>
<text text-anchor="start" x="308.5" y="-155" font-family="Helvetica,sans-Serif" font-size="10.00">/home/dagal/git/DamierGL</text>
<text text-anchor="middle" x="377" y="-144" font-family="Helvetica,sans-Serif" font-size="10.00">/DamierGL/src/CGL/CGLLine.h</text>
</a>
</g>
</g>
<!-- Node2&#45;&gt;Node14 -->
<g id="edge15" class="edge"><title>Node2&#45;&gt;Node14</title>
<path fill="none" stroke="midnightblue" d="M1121.22,-214.292C986.38,-206.708 720.235,-190.343 495,-168 481.642,-166.675 467.461,-165.056 453.735,-163.377"/>
<polygon fill="midnightblue" stroke="midnightblue" points="1121.31,-217.803 1131.49,-214.867 1121.7,-210.814 1121.31,-217.803"/>
</g>
<!-- Node16 -->
<g id="node16" class="node"><title>Node16</title>
<g id="a_node16"><a xlink:href="$d3/dbc/_c_g_l_polygon_8h.xhtml" xlink:title="/home/dagal/git/DamierGL\l/DamierGL/src/CGL/CGLPolygon.h">
<polygon fill="white" stroke="black" points="714,-137 714,-167 884,-167 884,-137 714,-137"/>
<text text-anchor="start" x="722" y="-155" font-family="Helvetica,sans-Serif" font-size="10.00">/home/dagal/git/DamierGL</text>
<text text-anchor="middle" x="799" y="-144" font-family="Helvetica,sans-Serif" font-size="10.00">/DamierGL/src/CGL/CGLPolygon.h</text>
</a>
</g>
</g>
<!-- Node2&#45;&gt;Node16 -->
<g id="edge18" class="edge"><title>Node2&#45;&gt;Node16</title>
<path fill="none" stroke="midnightblue" d="M1121.26,-204.876C1051.15,-193.59 953.461,-177.864 884.061,-166.693"/>
<polygon fill="midnightblue" stroke="midnightblue" points="1120.97,-208.374 1131.4,-206.508 1122.08,-201.463 1120.97,-208.374"/>
</g>
<!-- Node18 -->
<g id="node18" class="node"><title>Node18</title>
<g id="a_node18"><a xlink:href="$d2/d91/_c_g_l_quad_8h.xhtml" xlink:title="/home/dagal/git/DamierGL\l/DamierGL/src/CGL/CGLQuad.h">
<polygon fill="white" stroke="black" points="1312,-137 1312,-167 1470,-167 1470,-137 1312,-137"/>
<text text-anchor="start" x="1320" y="-155" font-family="Helvetica,sans-Serif" font-size="10.00">/home/dagal/git/DamierGL</text>
<text text-anchor="middle" x="1391" y="-144" font-family="Helvetica,sans-Serif" font-size="10.00">/DamierGL/src/CGL/CGLQuad.h</text>
</a>
</g>
</g>
<!-- Node2&#45;&gt;Node18 -->
<g id="edge21" class="edge"><title>Node2&#45;&gt;Node18</title>
<path fill="none" stroke="midnightblue" d="M1257.78,-201.312C1287.42,-190.563 1324.74,-177.029 1352.33,-167.022"/>
<polygon fill="midnightblue" stroke="midnightblue" points="1256.25,-198.142 1248.04,-204.841 1258.64,-204.722 1256.25,-198.142"/>
</g>
<!-- Node20 -->
<g id="node20" class="node"><title>Node20</title>
<g id="a_node20"><a xlink:href="$d8/d51/_c_g_l_triangle_8h.xhtml" xlink:title="/home/dagal/git/DamierGL\l/DamierGL/src/CGL/CGLTriangle.h">
<polygon fill="white" stroke="black" points="1124,-137 1124,-167 1294,-167 1294,-137 1124,-137"/>
<text text-anchor="start" x="1132" y="-155" font-family="Helvetica,sans-Serif" font-size="10.00">/home/dagal/git/DamierGL</text>
<text text-anchor="middle" x="1209" y="-144" font-family="Helvetica,sans-Serif" font-size="10.00">/DamierGL/src/CGL/CGLTriangle.h</text>
</a>
</g>
</g>
<!-- Node2&#45;&gt;Node20 -->
<g id="edge24" class="edge"><title>Node2&#45;&gt;Node20</title>
<path fill="none" stroke="midnightblue" d="M1209,-194.532C1209,-185.361 1209,-175.245 1209,-167.293"/>
<polygon fill="midnightblue" stroke="midnightblue" points="1205.5,-194.679 1209,-204.679 1212.5,-194.679 1205.5,-194.679"/>
</g>
<!-- Node4 -->
<g id="node4" class="node"><title>Node4</title>
<g id="a_node4"><a xlink:href="$da/d3e/_c_g_l_boite_8cpp.xhtml" xlink:title="/home/dagal/git/DamierGL\l/DamierGL/src/CGL/CGLBoite.cpp">
<polygon fill="white" stroke="black" points="405,-69 405,-99 573,-99 573,-69 405,-69"/>
<text text-anchor="start" x="413" y="-87" font-family="Helvetica,sans-Serif" font-size="10.00">/home/dagal/git/DamierGL</text>
<text text-anchor="middle" x="489" y="-76" font-family="Helvetica,sans-Serif" font-size="10.00">/DamierGL/src/CGL/CGLBoite.cpp</text>
</a>
</g>
</g>
<!-- Node3&#45;&gt;Node4 -->
<g id="edge3" class="edge"><title>Node3&#45;&gt;Node4</title>
<path fill="none" stroke="midnightblue" d="M554.356,-130.888C539.703,-120.6 522.227,-108.329 509.034,-99.0663"/>
<polygon fill="midnightblue" stroke="midnightblue" points="552.408,-133.797 562.603,-136.679 556.43,-128.068 552.408,-133.797"/>
</g>
<!-- Node5 -->
<g id="node5" class="node"><title>Node5</title>
<g id="a_node5"><a xlink:href="$d7/df3/_c_g_l_robot1_8h.xhtml" xlink:title="/home/dagal/git/DamierGL\l/DamierGL/src/CGL/CGLRobot1.h">
<polygon fill="white" stroke="black" points="182.5,-69 182.5,-99 349.5,-99 349.5,-69 182.5,-69"/>
<text text-anchor="start" x="190.5" y="-87" font-family="Helvetica,sans-Serif" font-size="10.00">/home/dagal/git/DamierGL</text>
<text text-anchor="middle" x="266" y="-76" font-family="Helvetica,sans-Serif" font-size="10.00">/DamierGL/src/CGL/CGLRobot1.h</text>
</a>
</g>
</g>
<!-- Node3&#45;&gt;Node5 -->
<g id="edge4" class="edge"><title>Node3&#45;&gt;Node5</title>
<path fill="none" stroke="midnightblue" d="M505.42,-134.848C452.784,-123.889 383.88,-109.543 333.512,-99.0561"/>
<polygon fill="midnightblue" stroke="midnightblue" points="504.881,-138.31 515.384,-136.922 506.308,-131.457 504.881,-138.31"/>
</g>
<!-- Node8 -->
<g id="node8" class="node"><title>Node8</title>
<g id="a_node8"><a xlink:href="$d0/d58/_c_g_l_scene_8cpp.xhtml" xlink:title="/home/dagal/git/DamierGL\l/DamierGL/src/CGL/CGLScene.cpp">
<polygon fill="white" stroke="black" points="829.5,-69 829.5,-99 1002.5,-99 1002.5,-69 829.5,-69"/>
<text text-anchor="start" x="837.5" y="-87" font-family="Helvetica,sans-Serif" font-size="10.00">/home/dagal/git/DamierGL</text>
<text text-anchor="middle" x="916" y="-76" font-family="Helvetica,sans-Serif" font-size="10.00">/DamierGL/src/CGL/CGLScene.cpp</text>
</a>
</g>
</g>
<!-- Node3&#45;&gt;Node8 -->
<g id="edge7" class="edge"><title>Node3&#45;&gt;Node8</title>
<path fill="none" stroke="midnightblue" d="M664.152,-134.916C719.487,-123.949 792.061,-109.565 845.081,-99.0561"/>
<polygon fill="midnightblue" stroke="midnightblue" points="663.157,-131.545 654.028,-136.922 664.518,-138.411 663.157,-131.545"/>
</g>
<!-- Node6 -->
<g id="node6" class="node"><title>Node6</title>
<g id="a_node6"><a xlink:href="$dc/d01/_c_g_l_robot1_8cpp.xhtml" xlink:title="/home/dagal/git/DamierGL\l/DamierGL/src/CGL/CGLRobot1.cpp">
<polygon fill="white" stroke="black" points="177.5,-1 177.5,-31 354.5,-31 354.5,-1 177.5,-1"/>
<text text-anchor="start" x="185.5" y="-19" font-family="Helvetica,sans-Serif" font-size="10.00">/home/dagal/git/DamierGL</text>
<text text-anchor="middle" x="266" y="-8" font-family="Helvetica,sans-Serif" font-size="10.00">/DamierGL/src/CGL/CGLRobot1.cpp</text>
</a>
</g>
</g>
<!-- Node5&#45;&gt;Node6 -->
<g id="edge5" class="edge"><title>Node5&#45;&gt;Node6</title>
<path fill="none" stroke="midnightblue" d="M266,-58.5322C266,-49.3606 266,-39.2449 266,-31.2931"/>
<polygon fill="midnightblue" stroke="midnightblue" points="262.5,-58.6789 266,-68.679 269.5,-58.679 262.5,-58.6789"/>
</g>
<!-- Node7 -->
<g id="node7" class="node"><title>Node7</title>
<g id="a_node7"><a xlink:href="$db/dec/_damier_g_l_8cpp.xhtml" xlink:title="/home/dagal/git/DamierGL\l/DamierGL/src/DamierGL.cpp">
<polygon fill="white" stroke="black" points="1826,-1 1826,-31 1972,-31 1972,-1 1826,-1"/>
<text text-anchor="start" x="1834" y="-19" font-family="Helvetica,sans-Serif" font-size="10.00">/home/dagal/git/DamierGL</text>
<text text-anchor="middle" x="1899" y="-8" font-family="Helvetica,sans-Serif" font-size="10.00">/DamierGL/src/DamierGL.cpp</text>
</a>
</g>
</g>
<!-- Node5&#45;&gt;Node7 -->
<g id="edge6" class="edge"><title>Node5&#45;&gt;Node7</title>
<path fill="none" stroke="midnightblue" d="M359.673,-68.3226C360.788,-68.2108 361.897,-68.1032 363,-68 652.23,-40.9341 1560.72,-23.0136 1825.75,-18.2627"/>
<polygon fill="midnightblue" stroke="midnightblue" points="359.08,-64.8665 349.519,-69.4324 359.841,-71.825 359.08,-64.8665"/>
</g>
<!-- Node9&#45;&gt;Node7 -->
<g id="edge10" class="edge"><title>Node9&#45;&gt;Node7</title>
<path fill="none" stroke="midnightblue" d="M1606.66,-132.108C1623.68,-123.072 1643.79,-111.688 1661,-100 1679.55,-87.402 1680,-78.1344 1700,-68 1739.29,-48.0911 1786.99,-35.5219 1825.83,-27.8442"/>
<polygon fill="midnightblue" stroke="midnightblue" points="1604.8,-129.134 1597.56,-136.874 1608.04,-135.335 1604.8,-129.134"/>
</g>
<!-- Node10 -->
<g id="node10" class="node"><title>Node10</title>
<g id="a_node10"><a xlink:href="$dc/d7e/_c_g_l_circle_8cpp.xhtml" xlink:title="/home/dagal/git/DamierGL\l/DamierGL/src/CGL/CGLCircle.cpp">
<polygon fill="white" stroke="black" points="1481.5,-69 1481.5,-99 1652.5,-99 1652.5,-69 1481.5,-69"/>
<text text-anchor="start" x="1489.5" y="-87" font-family="Helvetica,sans-Serif" font-size="10.00">/home/dagal/git/DamierGL</text>
<text text-anchor="middle" x="1567" y="-76" font-family="Helvetica,sans-Serif" font-size="10.00">/DamierGL/src/CGL/CGLCircle.cpp</text>
</a>
</g>
</g>
<!-- Node9&#45;&gt;Node10 -->
<g id="edge9" class="edge"><title>Node9&#45;&gt;Node10</title>
<path fill="none" stroke="midnightblue" d="M1568.26,-126.532C1567.98,-117.361 1567.67,-107.245 1567.43,-99.2931"/>
<polygon fill="midnightblue" stroke="midnightblue" points="1564.76,-126.79 1568.57,-136.679 1571.76,-126.578 1564.76,-126.79"/>
</g>
<!-- Node11&#45;&gt;Node7 -->
<g id="edge13" class="edge"><title>Node11&#45;&gt;Node7</title>
<path fill="none" stroke="midnightblue" d="M1838.41,-132.384C1853.38,-124.465 1868.65,-113.804 1879,-100 1894.38,-79.4853 1898.11,-48.793 1898.91,-31.0475"/>
<polygon fill="midnightblue" stroke="midnightblue" points="1836.57,-129.387 1829.17,-136.964 1839.68,-135.659 1836.57,-129.387"/>
</g>
<!-- Node12 -->
<g id="node12" class="node"><title>Node12</title>
<g id="a_node12"><a xlink:href="$d2/d5a/_c_g_l_dot_8cpp.xhtml" xlink:title="/home/dagal/git/DamierGL\l/DamierGL/src/CGL/CGLDot.cpp">
<polygon fill="white" stroke="black" points="1709.5,-69 1709.5,-99 1870.5,-99 1870.5,-69 1709.5,-69"/>
<text text-anchor="start" x="1717.5" y="-87" font-family="Helvetica,sans-Serif" font-size="10.00">/home/dagal/git/DamierGL</text>
<text text-anchor="middle" x="1790" y="-76" font-family="Helvetica,sans-Serif" font-size="10.00">/DamierGL/src/CGL/CGLDot.cpp</text>
</a>
</g>
</g>
<!-- Node11&#45;&gt;Node12 -->
<g id="edge12" class="edge"><title>Node11&#45;&gt;Node12</title>
<path fill="none" stroke="midnightblue" d="M1790,-126.532C1790,-117.361 1790,-107.245 1790,-99.2931"/>
<polygon fill="midnightblue" stroke="midnightblue" points="1786.5,-126.679 1790,-136.679 1793.5,-126.679 1786.5,-126.679"/>
</g>
<!-- Node14&#45;&gt;Node7 -->
<g id="edge17" class="edge"><title>Node14&#45;&gt;Node7</title>
<path fill="none" stroke="midnightblue" d="M375.28,-126.834C375.378,-107.714 379.05,-81.9848 396,-68 451.634,-22.0984 1531.33,-17.4408 1825.52,-17.0252"/>
<polygon fill="midnightblue" stroke="midnightblue" points="371.783,-127.019 375.546,-136.923 378.781,-126.834 371.783,-127.019"/>
</g>
<!-- Node15 -->
<g id="node15" class="node"><title>Node15</title>
<g id="a_node15"><a xlink:href="$df/de2/_c_g_l_line_8cpp.xhtml" xlink:title="/home/dagal/git/DamierGL\l/DamierGL/src/CGL/CGLLine.cpp">
<polygon fill="white" stroke="black" points="0,-69 0,-99 164,-99 164,-69 0,-69"/>
<text text-anchor="start" x="8" y="-87" font-family="Helvetica,sans-Serif" font-size="10.00">/home/dagal/git/DamierGL</text>
<text text-anchor="middle" x="82" y="-76" font-family="Helvetica,sans-Serif" font-size="10.00">/DamierGL/src/CGL/CGLLine.cpp</text>
</a>
</g>
</g>
<!-- Node14&#45;&gt;Node15 -->
<g id="edge16" class="edge"><title>Node14&#45;&gt;Node15</title>
<path fill="none" stroke="midnightblue" d="M304.192,-134.711C255.289,-123.77 191.504,-109.499 144.826,-99.0561"/>
<polygon fill="midnightblue" stroke="midnightblue" points="303.554,-138.154 314.077,-136.922 305.082,-131.323 303.554,-138.154"/>
</g>
<!-- Node16&#45;&gt;Node7 -->
<g id="edge20" class="edge"><title>Node16&#45;&gt;Node7</title>
<path fill="none" stroke="midnightblue" d="M797.955,-126.832C798.57,-107.711 802.89,-81.981 820,-68 858.914,-36.2017 1589.3,-21.896 1825.78,-18.0845"/>
<polygon fill="midnightblue" stroke="midnightblue" points="794.455,-126.918 797.945,-136.922 801.455,-126.926 794.455,-126.918"/>
</g>
<!-- Node17 -->
<g id="node17" class="node"><title>Node17</title>
<g id="a_node17"><a xlink:href="$d4/d36/_c_g_l_polygon_8cpp.xhtml" xlink:title="/home/dagal/git/DamierGL\l/DamierGL/src/CGL/CGLPolygon.cpp">
<polygon fill="white" stroke="black" points="591.5,-69 591.5,-99 772.5,-99 772.5,-69 591.5,-69"/>
<text text-anchor="start" x="599.5" y="-87" font-family="Helvetica,sans-Serif" font-size="10.00">/home/dagal/git/DamierGL</text>
<text text-anchor="middle" x="682" y="-76" font-family="Helvetica,sans-Serif" font-size="10.00">/DamierGL/src/CGL/CGLPolygon.cpp</text>
</a>
</g>
</g>
<!-- Node16&#45;&gt;Node17 -->
<g id="edge19" class="edge"><title>Node16&#45;&gt;Node17</title>
<path fill="none" stroke="midnightblue" d="M765.162,-131.912C746.613,-121.448 724.013,-108.7 707.058,-99.1352"/>
<polygon fill="midnightblue" stroke="midnightblue" points="763.471,-134.977 773.901,-136.841 766.91,-128.88 763.471,-134.977"/>
</g>
<!-- Node18&#45;&gt;Node7 -->
<g id="edge23" class="edge"><title>Node18&#45;&gt;Node7</title>
<path fill="none" stroke="midnightblue" d="M1409.17,-129.325C1428.16,-107.264 1457.2,-75.298 1472,-68 1532.51,-38.1524 1720.44,-25.0287 1825.69,-19.8923"/>
<polygon fill="midnightblue" stroke="midnightblue" points="1406.5,-127.062 1402.68,-136.941 1411.83,-131.604 1406.5,-127.062"/>
</g>
<!-- Node19 -->
<g id="node19" class="node"><title>Node19</title>
<g id="a_node19"><a xlink:href="$d4/d6e/_c_g_l_quad_8cpp.xhtml" xlink:title="/home/dagal/git/DamierGL\l/DamierGL/src/CGL/CGLQuad.cpp">
<polygon fill="white" stroke="black" points="1256.5,-69 1256.5,-99 1425.5,-99 1425.5,-69 1256.5,-69"/>
<text text-anchor="start" x="1264.5" y="-87" font-family="Helvetica,sans-Serif" font-size="10.00">/home/dagal/git/DamierGL</text>
<text text-anchor="middle" x="1341" y="-76" font-family="Helvetica,sans-Serif" font-size="10.00">/DamierGL/src/CGL/CGLQuad.cpp</text>
</a>
</g>
</g>
<!-- Node18&#45;&gt;Node19 -->
<g id="edge22" class="edge"><title>Node18&#45;&gt;Node19</title>
<path fill="none" stroke="midnightblue" d="M1374.04,-128.608C1366.69,-118.912 1358.31,-107.85 1351.83,-99.2931"/>
<polygon fill="midnightblue" stroke="midnightblue" points="1371.32,-130.822 1380.15,-136.679 1376.9,-126.595 1371.32,-130.822"/>
</g>
<!-- Node20&#45;&gt;Node7 -->
<g id="edge26" class="edge"><title>Node20&#45;&gt;Node7</title>
<path fill="none" stroke="midnightblue" d="M1213.19,-126.842C1217.9,-107.541 1227.6,-81.554 1247,-68 1293.54,-35.4896 1665.31,-22.6488 1825.73,-18.5866"/>
<polygon fill="midnightblue" stroke="midnightblue" points="1209.74,-126.243 1211.05,-136.755 1216.58,-127.716 1209.74,-126.243"/>
</g>
<!-- Node21 -->
<g id="node21" class="node"><title>Node21</title>
<g id="a_node21"><a xlink:href="$d7/da9/_c_g_l_triangle_8cpp.xhtml" xlink:title="/home/dagal/git/DamierGL\l/DamierGL/src/CGL/CGLTriangle.cpp">
<polygon fill="white" stroke="black" points="1021,-69 1021,-99 1201,-99 1201,-69 1021,-69"/>
<text text-anchor="start" x="1029" y="-87" font-family="Helvetica,sans-Serif" font-size="10.00">/home/dagal/git/DamierGL</text>
<text text-anchor="middle" x="1111" y="-76" font-family="Helvetica,sans-Serif" font-size="10.00">/DamierGL/src/CGL/CGLTriangle.cpp</text>
</a>
</g>
</g>
<!-- Node20&#45;&gt;Node21 -->
<g id="edge25" class="edge"><title>Node20&#45;&gt;Node21</title>
<path fill="none" stroke="midnightblue" d="M1179.14,-130.888C1163.86,-120.6 1145.64,-108.329 1131.89,-99.0663"/>
<polygon fill="midnightblue" stroke="midnightblue" points="1177.49,-133.996 1187.74,-136.679 1181.4,-128.19 1177.49,-133.996"/>
</g>
<!-- Node23 -->
<g id="node23" class="node"><title>Node23</title>
<g id="a_node23"><a xlink:href="$df/d5b/_c_g_l_camera_8h.xhtml" xlink:title="/home/dagal/git/DamierGL\l/DamierGL/src/CGL/CGLCamera.h">
<polygon fill="white" stroke="black" points="1749,-341 1749,-371 1919,-371 1919,-341 1749,-341"/>
<text text-anchor="start" x="1757" y="-359" font-family="Helvetica,sans-Serif" font-size="10.00">/home/dagal/git/DamierGL</text>
<text text-anchor="middle" x="1834" y="-348" font-family="Helvetica,sans-Serif" font-size="10.00">/DamierGL/src/CGL/CGLCamera.h</text>
</a>
</g>
</g>
<!-- Node22&#45;&gt;Node23 -->
<g id="edge28" class="edge"><title>Node22&#45;&gt;Node23</title>
<path fill="none" stroke="midnightblue" d="M2025.48,-406.367C1983.23,-395.472 1928.6,-381.39 1888.52,-371.056"/>
<polygon fill="midnightblue" stroke="midnightblue" points="2024.84,-409.815 2035.4,-408.922 2026.59,-403.037 2024.84,-409.815"/>
</g>
<!-- Node32 -->
<g id="node32" class="node"><title>Node32</title>
<g id="a_node32"><a xlink:href="$da/d23/_c_g_l_light_8h.xhtml" xlink:title="/home/dagal/git/DamierGL\l/DamierGL/src/CGL/CGLLight.h">
<polygon fill="white" stroke="black" points="1937,-341 1937,-371 2093,-371 2093,-341 1937,-341"/>
<text text-anchor="start" x="1945" y="-359" font-family="Helvetica,sans-Serif" font-size="10.00">/home/dagal/git/DamierGL</text>
<text text-anchor="middle" x="2015" y="-348" font-family="Helvetica,sans-Serif" font-size="10.00">/DamierGL/src/CGL/CGLLight.h</text>
</a>
</g>
</g>
<!-- Node22&#45;&gt;Node32 -->
<g id="edge39" class="edge"><title>Node22&#45;&gt;Node32</title>
<path fill="none" stroke="midnightblue" d="M2066.16,-402.018C2054.68,-391.915 2041.22,-380.07 2030.98,-371.066"/>
<polygon fill="midnightblue" stroke="midnightblue" points="2063.91,-404.7 2073.73,-408.679 2068.53,-399.445 2063.91,-404.7"/>
</g>
<!-- Node34 -->
<g id="node34" class="node"><title>Node34</title>
<g id="a_node34"><a xlink:href="$d7/dcc/_c_g_l_special_8cpp.xhtml" xlink:title="/home/dagal/git/DamierGL\l/DamierGL/src/CGL/CGLSpecial.cpp">
<polygon fill="white" stroke="black" points="2111,-341 2111,-371 2289,-371 2289,-341 2111,-341"/>
<text text-anchor="start" x="2119" y="-359" font-family="Helvetica,sans-Serif" font-size="10.00">/home/dagal/git/DamierGL</text>
<text text-anchor="middle" x="2200" y="-348" font-family="Helvetica,sans-Serif" font-size="10.00">/DamierGL/src/CGL/CGLSpecial.cpp</text>
</a>
</g>
</g>
<!-- Node22&#45;&gt;Node34 -->
<g id="edge42" class="edge"><title>Node22&#45;&gt;Node34</title>
<path fill="none" stroke="midnightblue" d="M2122.29,-403.626C2139.64,-393.217 2160.65,-380.613 2176.44,-371.135"/>
<polygon fill="midnightblue" stroke="midnightblue" points="2120.37,-400.695 2113.6,-408.841 2123.97,-406.698 2120.37,-400.695"/>
</g>
<!-- Node24 -->
<g id="node24" class="node"><title>Node24</title>
<g id="a_node24"><a xlink:href="$dd/d43/_c_g_l_camera_8cpp.xhtml" xlink:title="/home/dagal/git/DamierGL\l/DamierGL/src/CGL/CGLCamera.cpp">
<polygon fill="white" stroke="black" points="1775,-273 1775,-303 1955,-303 1955,-273 1775,-273"/>
<text text-anchor="start" x="1783" y="-291" font-family="Helvetica,sans-Serif" font-size="10.00">/home/dagal/git/DamierGL</text>
<text text-anchor="middle" x="1865" y="-280" font-family="Helvetica,sans-Serif" font-size="10.00">/DamierGL/src/CGL/CGLCamera.cpp</text>
</a>
</g>
</g>
<!-- Node23&#45;&gt;Node24 -->
<g id="edge29" class="edge"><title>Node23&#45;&gt;Node24</title>
<path fill="none" stroke="midnightblue" d="M1845.07,-331.426C1849.49,-322.023 1854.43,-311.504 1858.29,-303.293"/>
<polygon fill="midnightblue" stroke="midnightblue" points="1841.81,-330.14 1840.73,-340.679 1848.15,-333.116 1841.81,-330.14"/>
</g>
<!-- Node25 -->
<g id="node25" class="node"><title>Node25</title>
<g id="a_node25"><a xlink:href="$d5/d86/_c_g_l_camera_list_8h.xhtml" xlink:title="/home/dagal/git/DamierGL\l/DamierGL/src/CGL/CGLCameraList.h">
<polygon fill="white" stroke="black" points="1571.5,-273 1571.5,-303 1756.5,-303 1756.5,-273 1571.5,-273"/>
<text text-anchor="start" x="1579.5" y="-291" font-family="Helvetica,sans-Serif" font-size="10.00">/home/dagal/git/DamierGL</text>
<text text-anchor="middle" x="1664" y="-280" font-family="Helvetica,sans-Serif" font-size="10.00">/DamierGL/src/CGL/CGLCameraList.h</text>
</a>
</g>
</g>
<!-- Node23&#45;&gt;Node25 -->
<g id="edge30" class="edge"><title>Node23&#45;&gt;Node25</title>
<path fill="none" stroke="midnightblue" d="M1788.08,-337.171C1760.45,-326.445 1725.78,-312.985 1700.12,-303.022"/>
<polygon fill="midnightblue" stroke="midnightblue" points="1786.94,-340.485 1797.53,-340.841 1789.48,-333.959 1786.94,-340.485"/>
</g>
<!-- Node26 -->
<g id="node26" class="node"><title>Node26</title>
<g id="a_node26"><a xlink:href="$df/d1a/_c_g_l_camera_list_8cpp.xhtml" xlink:title="/home/dagal/git/DamierGL\l/DamierGL/src/CGL/CGLCameraList.cpp">
<polygon fill="white" stroke="black" points="1566,-205 1566,-235 1762,-235 1762,-205 1566,-205"/>
<text text-anchor="start" x="1574" y="-223" font-family="Helvetica,sans-Serif" font-size="10.00">/home/dagal/git/DamierGL</text>
<text text-anchor="middle" x="1664" y="-212" font-family="Helvetica,sans-Serif" font-size="10.00">/DamierGL/src/CGL/CGLCameraList.cpp</text>
</a>
</g>
</g>
<!-- Node25&#45;&gt;Node26 -->
<g id="edge31" class="edge"><title>Node25&#45;&gt;Node26</title>
<path fill="none" stroke="midnightblue" d="M1664,-262.532C1664,-253.361 1664,-243.245 1664,-235.293"/>
<polygon fill="midnightblue" stroke="midnightblue" points="1660.5,-262.679 1664,-272.679 1667.5,-262.679 1660.5,-262.679"/>
</g>
<!-- Node27 -->
<g id="node27" class="node"><title>Node27</title>
<g id="a_node27"><a xlink:href="$d0/dc9/_c_g_l_scene_8h.xhtml" xlink:title="/home/dagal/git/DamierGL\l/DamierGL/src/CGL/CGLScene.h">
<polygon fill="white" stroke="black" points="1840.5,-205 1840.5,-235 2003.5,-235 2003.5,-205 1840.5,-205"/>
<text text-anchor="start" x="1848.5" y="-223" font-family="Helvetica,sans-Serif" font-size="10.00">/home/dagal/git/DamierGL</text>
<text text-anchor="middle" x="1922" y="-212" font-family="Helvetica,sans-Serif" font-size="10.00">/DamierGL/src/CGL/CGLScene.h</text>
</a>
</g>
</g>
<!-- Node25&#45;&gt;Node27 -->
<g id="edge32" class="edge"><title>Node25&#45;&gt;Node27</title>
<path fill="none" stroke="midnightblue" d="M1728.75,-270.436C1771.38,-259.532 1826.57,-245.412 1867.05,-235.056"/>
<polygon fill="midnightblue" stroke="midnightblue" points="1727.85,-267.053 1719.03,-272.922 1729.59,-273.835 1727.85,-267.053"/>
</g>
<!-- Node27&#45;&gt;Node8 -->
<g id="edge33" class="edge"><title>Node27&#45;&gt;Node8</title>
<path fill="none" stroke="midnightblue" d="M1830.42,-209.313C1810.52,-207.389 1789.56,-205.502 1770,-204 1624.65,-192.839 1250.86,-220.853 1115,-168 1094.1,-159.871 1095.7,-146.707 1076,-136 1045.65,-119.502 1009.11,-107.35 978.619,-99.0553"/>
<polygon fill="midnightblue" stroke="midnightblue" points="1830.12,-212.8 1840.41,-210.29 1830.8,-205.833 1830.12,-212.8"/>
</g>
<!-- Node28 -->
<g id="node28" class="node"><title>Node28</title>
<g id="a_node28"><a xlink:href="$d6/d37/_c_g_l_world_8h.xhtml" xlink:title="/home/dagal/git/DamierGL\l/DamierGL/src/CGL/CGLWorld.h">
<polygon fill="white" stroke="black" points="1932.5,-137 1932.5,-167 2093.5,-167 2093.5,-137 1932.5,-137"/>
<text text-anchor="start" x="1940.5" y="-155" font-family="Helvetica,sans-Serif" font-size="10.00">/home/dagal/git/DamierGL</text>
<text text-anchor="middle" x="2013" y="-144" font-family="Helvetica,sans-Serif" font-size="10.00">/DamierGL/src/CGL/CGLWorld.h</text>
</a>
</g>
</g>
<!-- Node27&#45;&gt;Node28 -->
<g id="edge34" class="edge"><title>Node27&#45;&gt;Node28</title>
<path fill="none" stroke="midnightblue" d="M1950.13,-198.599C1964.23,-188.371 1980.95,-176.243 1993.61,-167.066"/>
<polygon fill="midnightblue" stroke="midnightblue" points="1947.79,-195.975 1941.75,-204.679 1951.9,-201.641 1947.79,-195.975"/>
</g>
<!-- Node29 -->
<g id="node29" class="node"><title>Node29</title>
<g id="a_node29"><a xlink:href="$de/d96/_c_g_l_window_8h.xhtml" xlink:title="/home/dagal/git/DamierGL\l/DamierGL/src/CGL/CGLWindow.h">
<polygon fill="white" stroke="black" points="2155,-69 2155,-99 2325,-99 2325,-69 2155,-69"/>
<text text-anchor="start" x="2163" y="-87" font-family="Helvetica,sans-Serif" font-size="10.00">/home/dagal/git/DamierGL</text>
<text text-anchor="middle" x="2240" y="-76" font-family="Helvetica,sans-Serif" font-size="10.00">/DamierGL/src/CGL/CGLWindow.h</text>
</a>
</g>
</g>
<!-- Node28&#45;&gt;Node29 -->
<g id="edge35" class="edge"><title>Node28&#45;&gt;Node29</title>
<path fill="none" stroke="midnightblue" d="M2071.16,-134.091C2108.5,-123.235 2156.41,-109.303 2191.66,-99.0561"/>
<polygon fill="midnightblue" stroke="midnightblue" points="2070.04,-130.77 2061.42,-136.922 2072,-137.491 2070.04,-130.77"/>
</g>
<!-- Node31 -->
<g id="node31" class="node"><title>Node31</title>
<g id="a_node31"><a xlink:href="$dd/d05/_c_g_l_world_8cpp.xhtml" xlink:title="/home/dagal/git/DamierGL\l/DamierGL/src/CGL/CGLWorld.cpp">
<polygon fill="white" stroke="black" points="1927.5,-69 1927.5,-99 2098.5,-99 2098.5,-69 1927.5,-69"/>
<text text-anchor="start" x="1935.5" y="-87" font-family="Helvetica,sans-Serif" font-size="10.00">/home/dagal/git/DamierGL</text>
<text text-anchor="middle" x="2013" y="-76" font-family="Helvetica,sans-Serif" font-size="10.00">/DamierGL/src/CGL/CGLWorld.cpp</text>
</a>
</g>
</g>
<!-- Node28&#45;&gt;Node31 -->
<g id="edge38" class="edge"><title>Node28&#45;&gt;Node31</title>
<path fill="none" stroke="midnightblue" d="M2013,-126.532C2013,-117.361 2013,-107.245 2013,-99.2931"/>
<polygon fill="midnightblue" stroke="midnightblue" points="2009.5,-126.679 2013,-136.679 2016.5,-126.679 2009.5,-126.679"/>
</g>
<!-- Node29&#45;&gt;Node7 -->
<g id="edge37" class="edge"><title>Node29&#45;&gt;Node7</title>
<path fill="none" stroke="midnightblue" d="M2157.25,-66.9841C2100.54,-56.0082 2026.03,-41.5864 1971.62,-31.0561"/>
<polygon fill="midnightblue" stroke="midnightblue" points="2156.78,-70.4582 2167.27,-68.9223 2158.11,-63.5858 2156.78,-70.4582"/>
</g>
<!-- Node30 -->
<g id="node30" class="node"><title>Node30</title>
<g id="a_node30"><a xlink:href="$df/d9a/_c_g_l_window_8cpp.xhtml" xlink:title="/home/dagal/git/DamierGL\l/DamierGL/src/CGL/CGLWindow.cpp">
<polygon fill="white" stroke="black" points="2149.5,-1 2149.5,-31 2330.5,-31 2330.5,-1 2149.5,-1"/>
<text text-anchor="start" x="2157.5" y="-19" font-family="Helvetica,sans-Serif" font-size="10.00">/home/dagal/git/DamierGL</text>
<text text-anchor="middle" x="2240" y="-8" font-family="Helvetica,sans-Serif" font-size="10.00">/DamierGL/src/CGL/CGLWindow.cpp</text>
</a>
</g>
</g>
<!-- Node29&#45;&gt;Node30 -->
<g id="edge36" class="edge"><title>Node29&#45;&gt;Node30</title>
<path fill="none" stroke="midnightblue" d="M2240,-58.5322C2240,-49.3606 2240,-39.2449 2240,-31.2931"/>
<polygon fill="midnightblue" stroke="midnightblue" points="2236.5,-58.6789 2240,-68.679 2243.5,-58.679 2236.5,-58.6789"/>
</g>
<!-- Node32&#45;&gt;Node27 -->
<g id="edge41" class="edge"><title>Node32&#45;&gt;Node27</title>
<path fill="none" stroke="midnightblue" d="M2002.09,-332.122C1992.24,-315.142 1978.01,-291.628 1964,-272 1954.8,-259.117 1943.32,-245.303 1934.68,-235.306"/>
<polygon fill="midnightblue" stroke="midnightblue" points="1999.07,-333.89 2007.09,-340.818 2005.14,-330.403 1999.07,-333.89"/>
</g>
<!-- Node33 -->
<g id="node33" class="node"><title>Node33</title>
<g id="a_node33"><a xlink:href="$de/d39/_c_g_l_light_8cpp.xhtml" xlink:title="/home/dagal/git/DamierGL\l/DamierGL/src/CGL/CGLLight.cpp">
<polygon fill="white" stroke="black" points="2010.5,-273 2010.5,-303 2177.5,-303 2177.5,-273 2010.5,-273"/>
<text text-anchor="start" x="2018.5" y="-291" font-family="Helvetica,sans-Serif" font-size="10.00">/home/dagal/git/DamierGL</text>
<text text-anchor="middle" x="2094" y="-280" font-family="Helvetica,sans-Serif" font-size="10.00">/DamierGL/src/CGL/CGLLight.cpp</text>
</a>
</g>
</g>
<!-- Node32&#45;&gt;Node33 -->
<g id="edge40" class="edge"><title>Node32&#45;&gt;Node33</title>
<path fill="none" stroke="midnightblue" d="M2040.11,-334.018C2052.21,-323.915 2066.39,-312.07 2077.16,-303.066"/>
<polygon fill="midnightblue" stroke="midnightblue" points="2037.57,-331.582 2032.14,-340.679 2042.06,-336.954 2037.57,-331.582"/>
</g>
<!-- Node36 -->
<g id="node36" class="node"><title>Node36</title>
<g id="a_node36"><a xlink:href="$da/de7/_c_g_l_color_8h.xhtml" xlink:title="/home/dagal/git/DamierGL\l/DamierGL/src/CGL/CGLColor.h">
<polygon fill="white" stroke="black" points="2349,-137 2349,-167 2507,-167 2507,-137 2349,-137"/>
<text text-anchor="start" x="2357" y="-155" font-family="Helvetica,sans-Serif" font-size="10.00">/home/dagal/git/DamierGL</text>
<text text-anchor="middle" x="2428" y="-144" font-family="Helvetica,sans-Serif" font-size="10.00">/DamierGL/src/CGL/CGLColor.h</text>
</a>
</g>
</g>
<!-- Node35&#45;&gt;Node36 -->
<g id="edge44" class="edge"><title>Node35&#45;&gt;Node36</title>
<path fill="none" stroke="midnightblue" d="M2661.81,-202.779C2610.38,-191.829 2543.17,-177.521 2494.02,-167.056"/>
<polygon fill="midnightblue" stroke="midnightblue" points="2661.37,-206.263 2671.88,-204.922 2662.83,-199.417 2661.37,-206.263"/>
</g>
<!-- Node38 -->
<g id="node38" class="node"><title>Node38</title>
<g id="a_node38"><a xlink:href="$d7/da1/_c_g_l_effect_8cpp.xhtml" xlink:title="/home/dagal/git/DamierGL\l/DamierGL/src/CGL/CGLEffect.cpp">
<polygon fill="white" stroke="black" points="3114,-137 3114,-167 3286,-167 3286,-137 3114,-137"/>
<text text-anchor="start" x="3122" y="-155" font-family="Helvetica,sans-Serif" font-size="10.00">/home/dagal/git/DamierGL</text>
<text text-anchor="middle" x="3200" y="-144" font-family="Helvetica,sans-Serif" font-size="10.00">/DamierGL/src/CGL/CGLEffect.cpp</text>
</a>
</g>
</g>
<!-- Node35&#45;&gt;Node38 -->
<g id="edge47" class="edge"><title>Node35&#45;&gt;Node38</title>
<path fill="none" stroke="midnightblue" d="M2828.86,-206.85C2903.17,-196.798 3010.96,-181.958 3105,-168 3107.89,-167.571 3110.83,-167.131 3113.8,-166.682"/>
<polygon fill="midnightblue" stroke="midnightblue" points="2828.05,-203.428 2818.61,-208.235 2828.98,-210.365 2828.05,-203.428"/>
</g>
<!-- Node39 -->
<g id="node39" class="node"><title>Node39</title>
<g id="a_node39"><a xlink:href="$db/d5d/_c_g_l_position_8h.xhtml" xlink:title="/home/dagal/git/DamierGL\l/DamierGL/src/CGL/CGLPosition.h">
<polygon fill="white" stroke="black" points="2748,-137 2748,-167 2918,-167 2918,-137 2748,-137"/>
<text text-anchor="start" x="2756" y="-155" font-family="Helvetica,sans-Serif" font-size="10.00">/home/dagal/git/DamierGL</text>
<text text-anchor="middle" x="2833" y="-144" font-family="Helvetica,sans-Serif" font-size="10.00">/DamierGL/src/CGL/CGLPosition.h</text>
</a>
</g>
</g>
<!-- Node35&#45;&gt;Node39 -->
<g id="edge48" class="edge"><title>Node35&#45;&gt;Node39</title>
<path fill="none" stroke="midnightblue" d="M2766.95,-198.888C2781.76,-188.6 2799.42,-176.329 2812.75,-167.066"/>
<polygon fill="midnightblue" stroke="midnightblue" points="2764.83,-196.099 2758.61,-204.679 2768.82,-201.848 2764.83,-196.099"/>
</g>
<!-- Node43 -->
<g id="node43" class="node"><title>Node43</title>
<g id="a_node43"><a xlink:href="$d5/d65/_c_g_l_rotation_8h.xhtml" xlink:title="/home/dagal/git/DamierGL\l/DamierGL/src/CGL/CGLRotation.h">
<polygon fill="white" stroke="black" points="2558,-137 2558,-167 2730,-167 2730,-137 2558,-137"/>
<text text-anchor="start" x="2566" y="-155" font-family="Helvetica,sans-Serif" font-size="10.00">/home/dagal/git/DamierGL</text>
<text text-anchor="middle" x="2644" y="-144" font-family="Helvetica,sans-Serif" font-size="10.00">/DamierGL/src/CGL/CGLRotation.h</text>
</a>
</g>
</g>
<!-- Node35&#45;&gt;Node43 -->
<g id="edge54" class="edge"><title>Node35&#45;&gt;Node43</title>
<path fill="none" stroke="midnightblue" d="M2709.36,-198.888C2694.7,-188.6 2677.23,-176.329 2664.03,-167.066"/>
<polygon fill="midnightblue" stroke="midnightblue" points="2707.41,-201.797 2717.6,-204.679 2711.43,-196.068 2707.41,-201.797"/>
</g>
<!-- Node45 -->
<g id="node45" class="node"><title>Node45</title>
<g id="a_node45"><a xlink:href="$d2/d1b/_c_g_l_scale_8h.xhtml" xlink:title="/home/dagal/git/DamierGL\l/DamierGL/src/CGL/CGLScale.h">
<polygon fill="white" stroke="black" points="2936,-137 2936,-167 3096,-167 3096,-137 2936,-137"/>
<text text-anchor="start" x="2944" y="-155" font-family="Helvetica,sans-Serif" font-size="10.00">/home/dagal/git/DamierGL</text>
<text text-anchor="middle" x="3016" y="-144" font-family="Helvetica,sans-Serif" font-size="10.00">/DamierGL/src/CGL/CGLScale.h</text>
</a>
</g>
</g>
<!-- Node35&#45;&gt;Node45 -->
<g id="edge57" class="edge"><title>Node35&#45;&gt;Node45</title>
<path fill="none" stroke="midnightblue" d="M2807.19,-202.574C2853.2,-191.651 2912.99,-177.456 2956.79,-167.056"/>
<polygon fill="midnightblue" stroke="midnightblue" points="2806.22,-199.207 2797.3,-204.922 2807.84,-206.018 2806.22,-199.207"/>
</g>
<!-- Node36&#45;&gt;Node7 -->
<g id="edge46" class="edge"><title>Node36&#45;&gt;Node7</title>
<path fill="none" stroke="midnightblue" d="M2338.69,-146.407C2281.42,-140.718 2206.71,-128.065 2146,-100 2125.65,-90.5917 2127.05,-78.0299 2107,-68 2064.77,-46.8769 2013.25,-34.1603 1972.05,-26.708"/>
<polygon fill="midnightblue" stroke="midnightblue" points="2338.52,-149.907 2348.81,-147.358 2339.18,-142.937 2338.52,-149.907"/>
</g>
<!-- Node37 -->
<g id="node37" class="node"><title>Node37</title>
<g id="a_node37"><a xlink:href="$da/d19/_c_g_l_color_8cpp.xhtml" xlink:title="/home/dagal/git/DamierGL\l/DamierGL/src/CGL/CGLColor.cpp">
<polygon fill="white" stroke="black" points="2343.5,-69 2343.5,-99 2512.5,-99 2512.5,-69 2343.5,-69"/>
<text text-anchor="start" x="2351.5" y="-87" font-family="Helvetica,sans-Serif" font-size="10.00">/home/dagal/git/DamierGL</text>
<text text-anchor="middle" x="2428" y="-76" font-family="Helvetica,sans-Serif" font-size="10.00">/DamierGL/src/CGL/CGLColor.cpp</text>
</a>
</g>
</g>
<!-- Node36&#45;&gt;Node37 -->
<g id="edge45" class="edge"><title>Node36&#45;&gt;Node37</title>
<path fill="none" stroke="midnightblue" d="M2428,-126.532C2428,-117.361 2428,-107.245 2428,-99.2931"/>
<polygon fill="midnightblue" stroke="midnightblue" points="2424.5,-126.679 2428,-136.679 2431.5,-126.679 2424.5,-126.679"/>
</g>
<!-- Node39&#45;&gt;Node7 -->
<g id="edge53" class="edge"><title>Node39&#45;&gt;Node7</title>
<path fill="none" stroke="midnightblue" d="M2816.45,-128.873C2799.34,-106.686 2773.18,-74.8555 2759,-68 2696.98,-38.0101 2208.77,-36.1399 2140,-32 2083.61,-28.6056 2019.81,-24.6286 1972.03,-21.6229"/>
<polygon fill="midnightblue" stroke="midnightblue" points="2813.68,-131.004 2822.53,-136.831 2819.24,-126.758 2813.68,-131.004"/>
</g>
<!-- Node40 -->
<g id="node40" class="node"><title>Node40</title>
<g id="a_node40"><a xlink:href="$db/d18/_c_g_l_position_8cpp.xhtml" xlink:title="/home/dagal/git/DamierGL\l/DamierGL/src/CGL/CGLPosition.cpp">
<polygon fill="white" stroke="black" points="2806.5,-69 2806.5,-99 2987.5,-99 2987.5,-69 2806.5,-69"/>
<text text-anchor="start" x="2814.5" y="-87" font-family="Helvetica,sans-Serif" font-size="10.00">/home/dagal/git/DamierGL</text>
<text text-anchor="middle" x="2897" y="-76" font-family="Helvetica,sans-Serif" font-size="10.00">/DamierGL/src/CGL/CGLPosition.cpp</text>
</a>
</g>
</g>
<!-- Node39&#45;&gt;Node40 -->
<g id="edge49" class="edge"><title>Node39&#45;&gt;Node40</title>
<path fill="none" stroke="midnightblue" d="M2853.86,-129.485C2863.46,-119.585 2874.59,-108.109 2883.14,-99.2931"/>
<polygon fill="midnightblue" stroke="midnightblue" points="2851.34,-127.063 2846.89,-136.679 2856.36,-131.936 2851.34,-127.063"/>
</g>
<!-- Node41 -->
<g id="node41" class="node"><title>Node41</title>
<g id="a_node41"><a xlink:href="$d0/d52/_c_g_l_position_speed_8h.xhtml" xlink:title="/home/dagal/git/DamierGL\l/DamierGL/src/CGL/CGLPositionSpeed.h">
<polygon fill="white" stroke="black" points="3044,-69 3044,-99 3242,-99 3242,-69 3044,-69"/>
<text text-anchor="start" x="3052" y="-87" font-family="Helvetica,sans-Serif" font-size="10.00">/home/dagal/git/DamierGL</text>
<text text-anchor="middle" x="3143" y="-76" font-family="Helvetica,sans-Serif" font-size="10.00">/DamierGL/src/CGL/CGLPositionSpeed.h</text>
</a>
</g>
</g>
<!-- Node39&#45;&gt;Node41 -->
<g id="edge50" class="edge"><title>Node39&#45;&gt;Node41</title>
<path fill="none" stroke="midnightblue" d="M2909.19,-134.779C2960.62,-123.829 3027.83,-109.521 3076.98,-99.0561"/>
<polygon fill="midnightblue" stroke="midnightblue" points="2908.17,-131.417 2899.12,-136.922 2909.63,-138.263 2908.17,-131.417"/>
</g>
<!-- Node41&#45;&gt;Node7 -->
<g id="edge52" class="edge"><title>Node41&#45;&gt;Node7</title>
<path fill="none" stroke="midnightblue" d="M3033.85,-68.3424C3032.56,-68.2244 3031.28,-68.1102 3030,-68 2635.59,-33.9176 2535.36,-52.2973 2140,-32 2083.59,-29.1037 2019.79,-25.1005 1972.01,-21.9581"/>
<polygon fill="midnightblue" stroke="midnightblue" points="3033.55,-71.8298 3043.84,-69.3153 3034.23,-64.8628 3033.55,-71.8298"/>
</g>
<!-- Node42 -->
<g id="node42" class="node"><title>Node42</title>
<g id="a_node42"><a xlink:href="$de/d6f/_c_g_l_position_speed_8cpp.xhtml" xlink:title="/home/dagal/git/DamierGL\l/DamierGL/src/CGL/CGLPositionSpeed.cpp">
<polygon fill="white" stroke="black" points="3038.5,-1 3038.5,-31 3247.5,-31 3247.5,-1 3038.5,-1"/>
<text text-anchor="start" x="3046.5" y="-19" font-family="Helvetica,sans-Serif" font-size="10.00">/home/dagal/git/DamierGL</text>
<text text-anchor="middle" x="3143" y="-8" font-family="Helvetica,sans-Serif" font-size="10.00">/DamierGL/src/CGL/CGLPositionSpeed.cpp</text>
</a>
</g>
</g>
<!-- Node41&#45;&gt;Node42 -->
<g id="edge51" class="edge"><title>Node41&#45;&gt;Node42</title>
<path fill="none" stroke="midnightblue" d="M3143,-58.5322C3143,-49.3606 3143,-39.2449 3143,-31.2931"/>
<polygon fill="midnightblue" stroke="midnightblue" points="3139.5,-58.6789 3143,-68.679 3146.5,-58.679 3139.5,-58.6789"/>
</g>
<!-- Node43&#45;&gt;Node7 -->
<g id="edge56" class="edge"><title>Node43&#45;&gt;Node7</title>
<path fill="none" stroke="midnightblue" d="M2609.16,-131.782C2593.47,-122.7 2574.92,-111.37 2559,-100 2541.03,-87.1682 2541.41,-76.4118 2521,-68 2495.99,-57.6934 2131.32,-32.4206 1972.27,-21.8119"/>
<polygon fill="midnightblue" stroke="midnightblue" points="2607.62,-134.93 2618.03,-136.854 2611.09,-128.852 2607.62,-134.93"/>
</g>
<!-- Node44 -->
<g id="node44" class="node"><title>Node44</title>
<g id="a_node44"><a xlink:href="$db/d63/_c_g_l_rotation_8cpp.xhtml" xlink:title="/home/dagal/git/DamierGL\l/DamierGL/src/CGL/CGLRotation.cpp">
<polygon fill="white" stroke="black" points="2568,-69 2568,-99 2750,-99 2750,-69 2568,-69"/>
<text text-anchor="start" x="2576" y="-87" font-family="Helvetica,sans-Serif" font-size="10.00">/home/dagal/git/DamierGL</text>
<text text-anchor="middle" x="2659" y="-76" font-family="Helvetica,sans-Serif" font-size="10.00">/DamierGL/src/CGL/CGLRotation.cpp</text>
</a>
</g>
</g>
<!-- Node43&#45;&gt;Node44 -->
<g id="edge55" class="edge"><title>Node43&#45;&gt;Node44</title>
<path fill="none" stroke="midnightblue" d="M2649.49,-126.831C2651.6,-117.581 2653.92,-107.331 2655.75,-99.2931"/>
<polygon fill="midnightblue" stroke="midnightblue" points="2646.06,-126.152 2647.25,-136.679 2652.88,-127.703 2646.06,-126.152"/>
</g>
<!-- Node45&#45;&gt;Node7 -->
<g id="edge59" class="edge"><title>Node45&#45;&gt;Node7</title>
<path fill="none" stroke="midnightblue" d="M3017.38,-126.839C3017.02,-107.722 3013.02,-81.9943 2996,-68 2959.24,-37.769 2187.53,-34.4785 2140,-32 2083.59,-29.0585 2019.79,-25.0577 1972.01,-21.9277"/>
<polygon fill="midnightblue" stroke="midnightblue" points="3013.88,-126.884 3017.25,-136.926 3020.88,-126.971 3013.88,-126.884"/>
</g>
<!-- Node46 -->
<g id="node46" class="node"><title>Node46</title>
<g id="a_node46"><a xlink:href="$dc/d61/_c_g_l_scale_8cpp.xhtml" xlink:title="/home/dagal/git/DamierGL\l/DamierGL/src/CGL/CGLScale.cpp">
<polygon fill="white" stroke="black" points="3260,-69 3260,-99 3430,-99 3430,-69 3260,-69"/>
<text text-anchor="start" x="3268" y="-87" font-family="Helvetica,sans-Serif" font-size="10.00">/home/dagal/git/DamierGL</text>
<text text-anchor="middle" x="3345" y="-76" font-family="Helvetica,sans-Serif" font-size="10.00">/DamierGL/src/CGL/CGLScale.cpp</text>
</a>
</g>
</g>
<!-- Node45&#45;&gt;Node46 -->
<g id="edge58" class="edge"><title>Node45&#45;&gt;Node46</title>
<path fill="none" stroke="midnightblue" d="M3096.18,-134.916C3150.85,-123.949 3222.55,-109.565 3274.93,-99.0561"/>
<polygon fill="midnightblue" stroke="midnightblue" points="3095.29,-131.524 3086.18,-136.922 3096.67,-138.387 3095.29,-131.524"/>
</g>
</g>
</svg>
