<?xml version="1.0" encoding="UTF-8" standalone="no"?>
<!DOCTYPE svg PUBLIC "-//W3C//DTD SVG 1.1//EN"
 "http://www.w3.org/Graphics/SVG/1.1/DTD/svg11.dtd">
<!-- Generated by graphviz version 2.36.0 (20140111.2315)
 -->
<!-- Title: /home/dagal/git/DamierGL/DamierGL/src/CGL/CGLObject.h Pages: 1 -->
<svg width="2770pt" height="516pt"
 viewBox="0.00 0.00 2770.00 516.00" xmlns="http://www.w3.org/2000/svg" xmlns:xlink="http://www.w3.org/1999/xlink">
<g id="graph0" class="graph" transform="scale(1 1) rotate(0) translate(4 512)">
<title>/home/dagal/git/DamierGL/DamierGL/src/CGL/CGLObject.h</title>
<polygon fill="white" stroke="none" points="-4,4 -4,-512 2766,-512 2766,4 -4,4"/>
<!-- Node1 -->
<g id="node1" class="node"><title>Node1</title>
<polygon fill="#bfbfbf" stroke="black" points="1718,-477 1718,-507 1882,-507 1882,-477 1718,-477"/>
<text text-anchor="start" x="1726" y="-495" font-family="Helvetica,sans-Serif" font-size="10.00">/home/dagal/git/DamierGL</text>
<text text-anchor="middle" x="1800" y="-484" font-family="Helvetica,sans-Serif" font-size="10.00">/DamierGL/src/CGL/CGLObject.h</text>
</g>
<!-- Node2 -->
<g id="node2" class="node"><title>Node2</title>
<g id="a_node2"><a xlink:href="$d2/d5a/_c_g_l_item_8h.xhtml" xlink:title="/home/dagal/git/DamierGL\l/DamierGL/src/CGL/CGLItem.h">
<polygon fill="white" stroke="black" points="829.5,-205 829.5,-235 984.5,-235 984.5,-205 829.5,-205"/>
<text text-anchor="start" x="837.5" y="-223" font-family="Helvetica,sans-Serif" font-size="10.00">/home/dagal/git/DamierGL</text>
<text text-anchor="middle" x="907" y="-212" font-family="Helvetica,sans-Serif" font-size="10.00">/DamierGL/src/CGL/CGLItem.h</text>
</a>
</g>
</g>
<!-- Node1&#45;&gt;Node2 -->
<g id="edge1" class="edge"><title>Node1&#45;&gt;Node2</title>
<path fill="none" stroke="midnightblue" d="M1718.06,-474.993C1670.59,-465.44 1609.77,-452.723 1556,-440 1441.02,-412.793 1411.42,-408.351 1299,-372 1218.82,-346.073 1200.64,-334.286 1122,-304 1059.27,-279.843 986.282,-251.647 943.513,-235.117"/>
<polygon fill="midnightblue" stroke="midnightblue" points="1717.49,-478.447 1727.98,-476.982 1718.86,-471.584 1717.49,-478.447"/>
</g>
<!-- Node18 -->
<g id="node18" class="node"><title>Node18</title>
<g id="a_node18"><a xlink:href="$dc/db8/_c_g_l_special_8h.xhtml" xlink:title="/home/dagal/git/DamierGL\l/DamierGL/src/CGL/CGLSpecial.h">
<polygon fill="white" stroke="black" points="1565.5,-409 1565.5,-439 1732.5,-439 1732.5,-409 1565.5,-409"/>
<text text-anchor="start" x="1573.5" y="-427" font-family="Helvetica,sans-Serif" font-size="10.00">/home/dagal/git/DamierGL</text>
<text text-anchor="middle" x="1649" y="-416" font-family="Helvetica,sans-Serif" font-size="10.00">/DamierGL/src/CGL/CGLSpecial.h</text>
</a>
</g>
</g>
<!-- Node1&#45;&gt;Node18 -->
<g id="edge21" class="edge"><title>Node1&#45;&gt;Node18</title>
<path fill="none" stroke="midnightblue" d="M1758.24,-472.749C1733.86,-462.093 1703.58,-448.855 1681.08,-439.022"/>
<polygon fill="midnightblue" stroke="midnightblue" points="1757.04,-476.043 1767.61,-476.841 1759.85,-469.629 1757.04,-476.043"/>
</g>
<!-- Node31 -->
<g id="node31" class="node"><title>Node31</title>
<g id="a_node31"><a xlink:href="$d7/d27/_c_g_l_effect_8h.xhtml" xlink:title="/home/dagal/git/DamierGL\l/DamierGL/src/CGL/CGLEffect.h">
<polygon fill="white" stroke="black" points="2117.5,-137 2117.5,-167 2278.5,-167 2278.5,-137 2117.5,-137"/>
<text text-anchor="start" x="2125.5" y="-155" font-family="Helvetica,sans-Serif" font-size="10.00">/home/dagal/git/DamierGL</text>
<text text-anchor="middle" x="2198" y="-144" font-family="Helvetica,sans-Serif" font-size="10.00">/DamierGL/src/CGL/CGLEffect.h</text>
</a>
</g>
</g>
<!-- Node1&#45;&gt;Node31 -->
<g id="edge37" class="edge"><title>Node1&#45;&gt;Node31</title>
<path fill="none" stroke="midnightblue" d="M1821.56,-469.435C1844.03,-444.576 1876,-401.405 1876,-357 1876,-357 1876,-357 1876,-287 1876,-182.702 2021.78,-158.093 2117.16,-153.153"/>
<polygon fill="midnightblue" stroke="midnightblue" points="1818.92,-467.142 1814.65,-476.841 1824.03,-471.917 1818.92,-467.142"/>
</g>
<!-- Node41 -->
<g id="node41" class="node"><title>Node41</title>
<g id="a_node41"><a xlink:href="$da/d25/_c_g_l_object_8cpp.xhtml" xlink:title="/home/dagal/git/DamierGL\l/DamierGL/src/CGL/CGLObject.cpp">
<polygon fill="white" stroke="black" points="1904,-409 1904,-439 2078,-439 2078,-409 1904,-409"/>
<text text-anchor="start" x="1912" y="-427" font-family="Helvetica,sans-Serif" font-size="10.00">/home/dagal/git/DamierGL</text>
<text text-anchor="middle" x="1991" y="-416" font-family="Helvetica,sans-Serif" font-size="10.00">/DamierGL/src/CGL/CGLObject.cpp</text>
</a>
</g>
</g>
<!-- Node1&#45;&gt;Node41 -->
<g id="edge51" class="edge"><title>Node1&#45;&gt;Node41</title>
<path fill="none" stroke="midnightblue" d="M1850.78,-473.452C1881.95,-462.68 1921.34,-449.072 1950.42,-439.022"/>
<polygon fill="midnightblue" stroke="midnightblue" points="1849.28,-470.267 1840.97,-476.841 1851.57,-476.883 1849.28,-470.267"/>
</g>
<!-- Node3 -->
<g id="node3" class="node"><title>Node3</title>
<g id="a_node3"><a xlink:href="$db/d17/_c_g_l_boite_8h.xhtml" xlink:title="/home/dagal/git/DamierGL\l/DamierGL/src/CGL/CGLBoite.h">
<polygon fill="white" stroke="black" points="415,-137 415,-167 573,-167 573,-137 415,-137"/>
<text text-anchor="start" x="423" y="-155" font-family="Helvetica,sans-Serif" font-size="10.00">/home/dagal/git/DamierGL</text>
<text text-anchor="middle" x="494" y="-144" font-family="Helvetica,sans-Serif" font-size="10.00">/DamierGL/src/CGL/CGLBoite.h</text>
</a>
</g>
</g>
<!-- Node2&#45;&gt;Node3 -->
<g id="edge2" class="edge"><title>Node2&#45;&gt;Node3</title>
<path fill="none" stroke="midnightblue" d="M819.234,-204.974C746.319,-193.322 643.49,-176.889 573.09,-165.639"/>
<polygon fill="midnightblue" stroke="midnightblue" points="818.891,-208.464 829.318,-206.586 819.995,-201.552 818.891,-208.464"/>
</g>
<!-- Node9 -->
<g id="node9" class="node"><title>Node9</title>
<g id="a_node9"><a xlink:href="$d5/d21/_c_g_l_dot_8h.xhtml" xlink:title="/home/dagal/git/DamierGL\l/DamierGL/src/CGL/CGLDot.h">
<polygon fill="white" stroke="black" points="113.5,-137 113.5,-167 264.5,-167 264.5,-137 113.5,-137"/>
<text text-anchor="start" x="121.5" y="-155" font-family="Helvetica,sans-Serif" font-size="10.00">/home/dagal/git/DamierGL</text>
<text text-anchor="middle" x="189" y="-144" font-family="Helvetica,sans-Serif" font-size="10.00">/DamierGL/src/CGL/CGLDot.h</text>
</a>
</g>
</g>
<!-- Node2&#45;&gt;Node9 -->
<g id="edge8" class="edge"><title>Node2&#45;&gt;Node9</title>
<path fill="none" stroke="midnightblue" d="M819.483,-210.955C677.319,-197.887 398.638,-172.27 264.575,-159.947"/>
<polygon fill="midnightblue" stroke="midnightblue" points="819.201,-214.444 829.479,-211.874 819.842,-207.473 819.201,-214.444"/>
</g>
<!-- Node11 -->
<g id="node11" class="node"><title>Node11</title>
<g id="a_node11"><a xlink:href="$da/dcb/_c_g_l_item_8cpp.xhtml" xlink:title="/home/dagal/git/DamierGL\l/DamierGL/src/CGL/CGLItem.cpp">
<polygon fill="white" stroke="black" points="600.5,-137 600.5,-167 765.5,-167 765.5,-137 600.5,-137"/>
<text text-anchor="start" x="608.5" y="-155" font-family="Helvetica,sans-Serif" font-size="10.00">/home/dagal/git/DamierGL</text>
<text text-anchor="middle" x="683" y="-144" font-family="Helvetica,sans-Serif" font-size="10.00">/DamierGL/src/CGL/CGLItem.cpp</text>
</a>
</g>
</g>
<!-- Node2&#45;&gt;Node11 -->
<g id="edge11" class="edge"><title>Node2&#45;&gt;Node11</title>
<path fill="none" stroke="midnightblue" d="M849.61,-202.091C812.766,-191.235 765.483,-177.303 730.705,-167.056"/>
<polygon fill="midnightblue" stroke="midnightblue" points="848.64,-205.453 859.221,-204.922 850.618,-198.739 848.64,-205.453"/>
</g>
<!-- Node12 -->
<g id="node12" class="node"><title>Node12</title>
<g id="a_node12"><a xlink:href="$df/d4a/_c_g_l_line_8h.xhtml" xlink:title="/home/dagal/git/DamierGL\l/DamierGL/src/CGL/CGLLine.h">
<polygon fill="white" stroke="black" points="1192.5,-137 1192.5,-167 1345.5,-167 1345.5,-137 1192.5,-137"/>
<text text-anchor="start" x="1200.5" y="-155" font-family="Helvetica,sans-Serif" font-size="10.00">/home/dagal/git/DamierGL</text>
<text text-anchor="middle" x="1269" y="-144" font-family="Helvetica,sans-Serif" font-size="10.00">/DamierGL/src/CGL/CGLLine.h</text>
</a>
</g>
</g>
<!-- Node2&#45;&gt;Node12 -->
<g id="edge12" class="edge"><title>Node2&#45;&gt;Node12</title>
<path fill="none" stroke="midnightblue" d="M994.115,-203.117C1054.51,-192.105 1134.2,-177.577 1192.22,-166.999"/>
<polygon fill="midnightblue" stroke="midnightblue" points="993.424,-199.685 984.214,-204.922 994.68,-206.572 993.424,-199.685"/>
</g>
<!-- Node14 -->
<g id="node14" class="node"><title>Node14</title>
<g id="a_node14"><a xlink:href="$d2/d91/_c_g_l_quad_8h.xhtml" xlink:title="/home/dagal/git/DamierGL\l/DamierGL/src/CGL/CGLQuad.h">
<polygon fill="white" stroke="black" points="1016,-137 1016,-167 1174,-167 1174,-137 1016,-137"/>
<text text-anchor="start" x="1024" y="-155" font-family="Helvetica,sans-Serif" font-size="10.00">/home/dagal/git/DamierGL</text>
<text text-anchor="middle" x="1095" y="-144" font-family="Helvetica,sans-Serif" font-size="10.00">/DamierGL/src/CGL/CGLQuad.h</text>
</a>
</g>
</g>
<!-- Node2&#45;&gt;Node14 -->
<g id="edge15" class="edge"><title>Node2&#45;&gt;Node14</title>
<path fill="none" stroke="midnightblue" d="M956.985,-201.452C987.668,-190.68 1026.43,-177.072 1055.06,-167.022"/>
<polygon fill="midnightblue" stroke="midnightblue" points="955.607,-198.226 947.331,-204.841 957.926,-204.831 955.607,-198.226"/>
</g>
<!-- Node16 -->
<g id="node16" class="node"><title>Node16</title>
<g id="a_node16"><a xlink:href="$d8/d51/_c_g_l_triangle_8h.xhtml" xlink:title="/home/dagal/git/DamierGL\l/DamierGL/src/CGL/CGLTriangle.h">
<polygon fill="white" stroke="black" points="822,-137 822,-167 992,-167 992,-137 822,-137"/>
<text text-anchor="start" x="830" y="-155" font-family="Helvetica,sans-Serif" font-size="10.00">/home/dagal/git/DamierGL</text>
<text text-anchor="middle" x="907" y="-144" font-family="Helvetica,sans-Serif" font-size="10.00">/DamierGL/src/CGL/CGLTriangle.h</text>
</a>
</g>
</g>
<!-- Node2&#45;&gt;Node16 -->
<g id="edge18" class="edge"><title>Node2&#45;&gt;Node16</title>
<path fill="none" stroke="midnightblue" d="M907,-194.532C907,-185.361 907,-175.245 907,-167.293"/>
<polygon fill="midnightblue" stroke="midnightblue" points="903.5,-194.679 907,-204.679 910.5,-194.679 903.5,-194.679"/>
</g>
<!-- Node4 -->
<g id="node4" class="node"><title>Node4</title>
<g id="a_node4"><a xlink:href="$da/d3e/_c_g_l_boite_8cpp.xhtml" xlink:title="/home/dagal/git/DamierGL\l/DamierGL/src/CGL/CGLBoite.cpp">
<polygon fill="white" stroke="black" points="401,-69 401,-99 569,-99 569,-69 401,-69"/>
<text text-anchor="start" x="409" y="-87" font-family="Helvetica,sans-Serif" font-size="10.00">/home/dagal/git/DamierGL</text>
<text text-anchor="middle" x="485" y="-76" font-family="Helvetica,sans-Serif" font-size="10.00">/DamierGL/src/CGL/CGLBoite.cpp</text>
</a>
</g>
</g>
<!-- Node3&#45;&gt;Node4 -->
<g id="edge3" class="edge"><title>Node3&#45;&gt;Node4</title>
<path fill="none" stroke="midnightblue" d="M490.663,-126.532C489.413,-117.361 488.033,-107.245 486.949,-99.2931"/>
<polygon fill="midnightblue" stroke="midnightblue" points="487.228,-127.244 492.047,-136.679 494.164,-126.298 487.228,-127.244"/>
</g>
<!-- Node5 -->
<g id="node5" class="node"><title>Node5</title>
<g id="a_node5"><a xlink:href="$d7/df3/_c_g_l_robot1_8h.xhtml" xlink:title="/home/dagal/git/DamierGL\l/DamierGL/src/CGL/CGLRobot1.h">
<polygon fill="white" stroke="black" points="216.5,-69 216.5,-99 383.5,-99 383.5,-69 216.5,-69"/>
<text text-anchor="start" x="224.5" y="-87" font-family="Helvetica,sans-Serif" font-size="10.00">/home/dagal/git/DamierGL</text>
<text text-anchor="middle" x="300" y="-76" font-family="Helvetica,sans-Serif" font-size="10.00">/DamierGL/src/CGL/CGLRobot1.h</text>
</a>
</g>
</g>
<!-- Node3&#45;&gt;Node5 -->
<g id="edge4" class="edge"><title>Node3&#45;&gt;Node5</title>
<path fill="none" stroke="midnightblue" d="M442.83,-133.592C411.104,-122.798 370.886,-109.116 341.216,-99.0218"/>
<polygon fill="midnightblue" stroke="midnightblue" points="441.788,-136.934 452.382,-136.841 444.042,-130.307 441.788,-136.934"/>
</g>
<!-- Node8 -->
<g id="node8" class="node"><title>Node8</title>
<g id="a_node8"><a xlink:href="$d0/d58/_c_g_l_scene_8cpp.xhtml" xlink:title="/home/dagal/git/DamierGL\l/DamierGL/src/CGL/CGLScene.cpp">
<polygon fill="white" stroke="black" points="587.5,-69 587.5,-99 760.5,-99 760.5,-69 587.5,-69"/>
<text text-anchor="start" x="595.5" y="-87" font-family="Helvetica,sans-Serif" font-size="10.00">/home/dagal/git/DamierGL</text>
<text text-anchor="middle" x="674" y="-76" font-family="Helvetica,sans-Serif" font-size="10.00">/DamierGL/src/CGL/CGLScene.cpp</text>
</a>
</g>
</g>
<!-- Node3&#45;&gt;Node8 -->
<g id="edge7" class="edge"><title>Node3&#45;&gt;Node8</title>
<path fill="none" stroke="midnightblue" d="M542.24,-133.312C571.556,-122.563 608.467,-109.029 635.759,-99.0218"/>
<polygon fill="midnightblue" stroke="midnightblue" points="540.798,-130.113 532.615,-136.841 543.208,-136.685 540.798,-130.113"/>
</g>
<!-- Node6 -->
<g id="node6" class="node"><title>Node6</title>
<g id="a_node6"><a xlink:href="$dc/d01/_c_g_l_robot1_8cpp.xhtml" xlink:title="/home/dagal/git/DamierGL\l/DamierGL/src/CGL/CGLRobot1.cpp">
<polygon fill="white" stroke="black" points="211.5,-1 211.5,-31 388.5,-31 388.5,-1 211.5,-1"/>
<text text-anchor="start" x="219.5" y="-19" font-family="Helvetica,sans-Serif" font-size="10.00">/home/dagal/git/DamierGL</text>
<text text-anchor="middle" x="300" y="-8" font-family="Helvetica,sans-Serif" font-size="10.00">/DamierGL/src/CGL/CGLRobot1.cpp</text>
</a>
</g>
</g>
<!-- Node5&#45;&gt;Node6 -->
<g id="edge5" class="edge"><title>Node5&#45;&gt;Node6</title>
<path fill="none" stroke="midnightblue" d="M300,-58.5322C300,-49.3606 300,-39.2449 300,-31.2931"/>
<polygon fill="midnightblue" stroke="midnightblue" points="296.5,-58.6789 300,-68.679 303.5,-58.679 296.5,-58.6789"/>
</g>
<!-- Node7 -->
<g id="node7" class="node"><title>Node7</title>
<g id="a_node7"><a xlink:href="$db/dec/_damier_g_l_8cpp.xhtml" xlink:title="/home/dagal/git/DamierGL\l/DamierGL/src/DamierGL.cpp">
<polygon fill="white" stroke="black" points="1233,-1 1233,-31 1379,-31 1379,-1 1233,-1"/>
<text text-anchor="start" x="1241" y="-19" font-family="Helvetica,sans-Serif" font-size="10.00">/home/dagal/git/DamierGL</text>
<text text-anchor="middle" x="1306" y="-8" font-family="Helvetica,sans-Serif" font-size="10.00">/DamierGL/src/DamierGL.cpp</text>
</a>
</g>
</g>
<!-- Node5&#45;&gt;Node7 -->
<g id="edge6" class="edge"><title>Node5&#45;&gt;Node7</title>
<path fill="none" stroke="midnightblue" d="M394.015,-67.8509C711.645,-33.7429 1079.33,-22.0761 1232.92,-18.4527"/>
<polygon fill="midnightblue" stroke="midnightblue" points="393.25,-64.4131 383.686,-68.9699 394.004,-71.3724 393.25,-64.4131"/>
</g>
<!-- Node9&#45;&gt;Node7 -->
<g id="edge10" class="edge"><title>Node9&#45;&gt;Node7</title>
<path fill="none" stroke="midnightblue" d="M187.011,-126.921C186.893,-107.853 190.261,-82.1504 207,-68 246.156,-34.8986 992.983,-21.4439 1232.64,-17.9674"/>
<polygon fill="midnightblue" stroke="midnightblue" points="183.516,-127.119 187.391,-136.98 190.511,-126.855 183.516,-127.119"/>
</g>
<!-- Node10 -->
<g id="node10" class="node"><title>Node10</title>
<g id="a_node10"><a xlink:href="$d2/d5a/_c_g_l_dot_8cpp.xhtml" xlink:title="/home/dagal/git/DamierGL\l/DamierGL/src/CGL/CGLDot.cpp">
<polygon fill="white" stroke="black" points="-0.5,-69 -0.5,-99 160.5,-99 160.5,-69 -0.5,-69"/>
<text text-anchor="start" x="7.5" y="-87" font-family="Helvetica,sans-Serif" font-size="10.00">/home/dagal/git/DamierGL</text>
<text text-anchor="middle" x="80" y="-76" font-family="Helvetica,sans-Serif" font-size="10.00">/DamierGL/src/CGL/CGLDot.cpp</text>
</a>
</g>
</g>
<!-- Node9&#45;&gt;Node10 -->
<g id="edge9" class="edge"><title>Node9&#45;&gt;Node10</title>
<path fill="none" stroke="midnightblue" d="M157.004,-131.626C139.812,-121.217 118.997,-108.613 103.345,-99.1352"/>
<polygon fill="midnightblue" stroke="midnightblue" points="155.25,-134.656 165.617,-136.841 158.876,-128.668 155.25,-134.656"/>
</g>
<!-- Node12&#45;&gt;Node7 -->
<g id="edge14" class="edge"><title>Node12&#45;&gt;Node7</title>
<path fill="none" stroke="midnightblue" d="M1265.11,-126.641C1263.35,-109.763 1262.83,-87.001 1269,-68 1273.52,-54.0578 1283.45,-40.738 1291.88,-31.209"/>
<polygon fill="midnightblue" stroke="midnightblue" points="1261.67,-127.302 1266.4,-136.783 1268.61,-126.423 1261.67,-127.302"/>
</g>
<!-- Node13 -->
<g id="node13" class="node"><title>Node13</title>
<g id="a_node13"><a xlink:href="$df/de2/_c_g_l_line_8cpp.xhtml" xlink:title="/home/dagal/git/DamierGL\l/DamierGL/src/CGL/CGLLine.cpp">
<polygon fill="white" stroke="black" points="1278,-69 1278,-99 1442,-99 1442,-69 1278,-69"/>
<text text-anchor="start" x="1286" y="-87" font-family="Helvetica,sans-Serif" font-size="10.00">/home/dagal/git/DamierGL</text>
<text text-anchor="middle" x="1360" y="-76" font-family="Helvetica,sans-Serif" font-size="10.00">/DamierGL/src/CGL/CGLLine.cpp</text>
</a>
</g>
</g>
<!-- Node12&#45;&gt;Node13 -->
<g id="edge13" class="edge"><title>Node12&#45;&gt;Node13</title>
<path fill="none" stroke="midnightblue" d="M1297.13,-130.599C1311.23,-120.371 1327.95,-108.243 1340.61,-99.0663"/>
<polygon fill="midnightblue" stroke="midnightblue" points="1294.79,-127.975 1288.75,-136.679 1298.9,-133.641 1294.79,-127.975"/>
</g>
<!-- Node14&#45;&gt;Node7 -->
<g id="edge17" class="edge"><title>Node14&#45;&gt;Node7</title>
<path fill="none" stroke="midnightblue" d="M1134.01,-132.427C1152.29,-123.292 1174.14,-111.737 1193,-100 1228.34,-78.0072 1266.89,-48.3623 1288.59,-31.1008"/>
<polygon fill="midnightblue" stroke="midnightblue" points="1132.23,-129.404 1124.81,-136.973 1135.33,-135.68 1132.23,-129.404"/>
</g>
<!-- Node15 -->
<g id="node15" class="node"><title>Node15</title>
<g id="a_node15"><a xlink:href="$d4/d6e/_c_g_l_quad_8cpp.xhtml" xlink:title="/home/dagal/git/DamierGL\l/DamierGL/src/CGL/CGLQuad.cpp">
<polygon fill="white" stroke="black" points="1015.5,-69 1015.5,-99 1184.5,-99 1184.5,-69 1015.5,-69"/>
<text text-anchor="start" x="1023.5" y="-87" font-family="Helvetica,sans-Serif" font-size="10.00">/home/dagal/git/DamierGL</text>
<text text-anchor="middle" x="1100" y="-76" font-family="Helvetica,sans-Serif" font-size="10.00">/DamierGL/src/CGL/CGLQuad.cpp</text>
</a>
</g>
</g>
<!-- Node14&#45;&gt;Node15 -->
<g id="edge16" class="edge"><title>Node14&#45;&gt;Node15</title>
<path fill="none" stroke="midnightblue" d="M1096.85,-126.532C1097.55,-117.361 1098.31,-107.245 1098.92,-99.2931"/>
<polygon fill="midnightblue" stroke="midnightblue" points="1093.35,-126.443 1096.08,-136.679 1100.33,-126.972 1093.35,-126.443"/>
</g>
<!-- Node16&#45;&gt;Node7 -->
<g id="edge20" class="edge"><title>Node16&#45;&gt;Node7</title>
<path fill="none" stroke="midnightblue" d="M846.169,-132.54C831.116,-124.94 816.794,-114.422 808,-100 800.596,-87.857 798.469,-78.5565 808,-68 835.919,-37.0757 1101.41,-23.8646 1232.92,-19.1812"/>
<polygon fill="midnightblue" stroke="midnightblue" points="845.048,-135.877 855.593,-136.903 847.989,-129.525 845.048,-135.877"/>
</g>
<!-- Node17 -->
<g id="node17" class="node"><title>Node17</title>
<g id="a_node17"><a xlink:href="$d7/da9/_c_g_l_triangle_8cpp.xhtml" xlink:title="/home/dagal/git/DamierGL\l/DamierGL/src/CGL/CGLTriangle.cpp">
<polygon fill="white" stroke="black" points="817,-69 817,-99 997,-99 997,-69 817,-69"/>
<text text-anchor="start" x="825" y="-87" font-family="Helvetica,sans-Serif" font-size="10.00">/home/dagal/git/DamierGL</text>
<text text-anchor="middle" x="907" y="-76" font-family="Helvetica,sans-Serif" font-size="10.00">/DamierGL/src/CGL/CGLTriangle.cpp</text>
</a>
</g>
</g>
<!-- Node16&#45;&gt;Node17 -->
<g id="edge19" class="edge"><title>Node16&#45;&gt;Node17</title>
<path fill="none" stroke="midnightblue" d="M907,-126.532C907,-117.361 907,-107.245 907,-99.2931"/>
<polygon fill="midnightblue" stroke="midnightblue" points="903.5,-126.679 907,-136.679 910.5,-126.679 903.5,-126.679"/>
</g>
<!-- Node19 -->
<g id="node19" class="node"><title>Node19</title>
<g id="a_node19"><a xlink:href="$df/d5b/_c_g_l_camera_8h.xhtml" xlink:title="/home/dagal/git/DamierGL\l/DamierGL/src/CGL/CGLCamera.h">
<polygon fill="white" stroke="black" points="1308,-341 1308,-371 1478,-371 1478,-341 1308,-341"/>
<text text-anchor="start" x="1316" y="-359" font-family="Helvetica,sans-Serif" font-size="10.00">/home/dagal/git/DamierGL</text>
<text text-anchor="middle" x="1393" y="-348" font-family="Helvetica,sans-Serif" font-size="10.00">/DamierGL/src/CGL/CGLCamera.h</text>
</a>
</g>
</g>
<!-- Node18&#45;&gt;Node19 -->
<g id="edge22" class="edge"><title>Node18&#45;&gt;Node19</title>
<path fill="none" stroke="midnightblue" d="M1584.48,-406.367C1542.23,-395.472 1487.6,-381.39 1447.52,-371.056"/>
<polygon fill="midnightblue" stroke="midnightblue" points="1583.84,-409.815 1594.4,-408.922 1585.59,-403.037 1583.84,-409.815"/>
</g>
<!-- Node28 -->
<g id="node28" class="node"><title>Node28</title>
<g id="a_node28"><a xlink:href="$da/d23/_c_g_l_light_8h.xhtml" xlink:title="/home/dagal/git/DamierGL\l/DamierGL/src/CGL/CGLLight.h">
<polygon fill="white" stroke="black" points="1496,-341 1496,-371 1652,-371 1652,-341 1496,-341"/>
<text text-anchor="start" x="1504" y="-359" font-family="Helvetica,sans-Serif" font-size="10.00">/home/dagal/git/DamierGL</text>
<text text-anchor="middle" x="1574" y="-348" font-family="Helvetica,sans-Serif" font-size="10.00">/DamierGL/src/CGL/CGLLight.h</text>
</a>
</g>
</g>
<!-- Node18&#45;&gt;Node28 -->
<g id="edge33" class="edge"><title>Node18&#45;&gt;Node28</title>
<path fill="none" stroke="midnightblue" d="M1625.16,-402.018C1613.68,-391.915 1600.22,-380.07 1589.98,-371.066"/>
<polygon fill="midnightblue" stroke="midnightblue" points="1622.91,-404.7 1632.73,-408.679 1627.53,-399.445 1622.91,-404.7"/>
</g>
<!-- Node30 -->
<g id="node30" class="node"><title>Node30</title>
<g id="a_node30"><a xlink:href="$d7/dcc/_c_g_l_special_8cpp.xhtml" xlink:title="/home/dagal/git/DamierGL\l/DamierGL/src/CGL/CGLSpecial.cpp">
<polygon fill="white" stroke="black" points="1670,-341 1670,-371 1848,-371 1848,-341 1670,-341"/>
<text text-anchor="start" x="1678" y="-359" font-family="Helvetica,sans-Serif" font-size="10.00">/home/dagal/git/DamierGL</text>
<text text-anchor="middle" x="1759" y="-348" font-family="Helvetica,sans-Serif" font-size="10.00">/DamierGL/src/CGL/CGLSpecial.cpp</text>
</a>
</g>
</g>
<!-- Node18&#45;&gt;Node30 -->
<g id="edge36" class="edge"><title>Node18&#45;&gt;Node30</title>
<path fill="none" stroke="midnightblue" d="M1681.29,-403.626C1698.64,-393.217 1719.65,-380.613 1735.44,-371.135"/>
<polygon fill="midnightblue" stroke="midnightblue" points="1679.37,-400.695 1672.6,-408.841 1682.97,-406.698 1679.37,-400.695"/>
</g>
<!-- Node20 -->
<g id="node20" class="node"><title>Node20</title>
<g id="a_node20"><a xlink:href="$dd/d43/_c_g_l_camera_8cpp.xhtml" xlink:title="/home/dagal/git/DamierGL\l/DamierGL/src/CGL/CGLCamera.cpp">
<polygon fill="white" stroke="black" points="1335,-273 1335,-303 1515,-303 1515,-273 1335,-273"/>
<text text-anchor="start" x="1343" y="-291" font-family="Helvetica,sans-Serif" font-size="10.00">/home/dagal/git/DamierGL</text>
<text text-anchor="middle" x="1425" y="-280" font-family="Helvetica,sans-Serif" font-size="10.00">/DamierGL/src/CGL/CGLCamera.cpp</text>
</a>
</g>
</g>
<!-- Node19&#45;&gt;Node20 -->
<g id="edge23" class="edge"><title>Node19&#45;&gt;Node20</title>
<path fill="none" stroke="midnightblue" d="M1404.43,-331.426C1408.99,-322.023 1414.09,-311.504 1418.07,-303.293"/>
<polygon fill="midnightblue" stroke="midnightblue" points="1401.16,-330.154 1399.94,-340.679 1407.46,-333.208 1401.16,-330.154"/>
</g>
<!-- Node21 -->
<g id="node21" class="node"><title>Node21</title>
<g id="a_node21"><a xlink:href="$d5/d86/_c_g_l_camera_list_8h.xhtml" xlink:title="/home/dagal/git/DamierGL\l/DamierGL/src/CGL/CGLCameraList.h">
<polygon fill="white" stroke="black" points="1131.5,-273 1131.5,-303 1316.5,-303 1316.5,-273 1131.5,-273"/>
<text text-anchor="start" x="1139.5" y="-291" font-family="Helvetica,sans-Serif" font-size="10.00">/home/dagal/git/DamierGL</text>
<text text-anchor="middle" x="1224" y="-280" font-family="Helvetica,sans-Serif" font-size="10.00">/DamierGL/src/CGL/CGLCameraList.h</text>
</a>
</g>
</g>
<!-- Node19&#45;&gt;Node21 -->
<g id="edge24" class="edge"><title>Node19&#45;&gt;Node21</title>
<path fill="none" stroke="midnightblue" d="M1347.35,-337.171C1319.88,-326.445 1285.42,-312.985 1259.9,-303.022"/>
<polygon fill="midnightblue" stroke="midnightblue" points="1346.16,-340.464 1356.75,-340.841 1348.7,-333.943 1346.16,-340.464"/>
</g>
<!-- Node22 -->
<g id="node22" class="node"><title>Node22</title>
<g id="a_node22"><a xlink:href="$df/d1a/_c_g_l_camera_list_8cpp.xhtml" xlink:title="/home/dagal/git/DamierGL\l/DamierGL/src/CGL/CGLCameraList.cpp">
<polygon fill="white" stroke="black" points="1126,-205 1126,-235 1322,-235 1322,-205 1126,-205"/>
<text text-anchor="start" x="1134" y="-223" font-family="Helvetica,sans-Serif" font-size="10.00">/home/dagal/git/DamierGL</text>
<text text-anchor="middle" x="1224" y="-212" font-family="Helvetica,sans-Serif" font-size="10.00">/DamierGL/src/CGL/CGLCameraList.cpp</text>
</a>
</g>
</g>
<!-- Node21&#45;&gt;Node22 -->
<g id="edge25" class="edge"><title>Node21&#45;&gt;Node22</title>
<path fill="none" stroke="midnightblue" d="M1224,-262.532C1224,-253.361 1224,-243.245 1224,-235.293"/>
<polygon fill="midnightblue" stroke="midnightblue" points="1220.5,-262.679 1224,-272.679 1227.5,-262.679 1220.5,-262.679"/>
</g>
<!-- Node23 -->
<g id="node23" class="node"><title>Node23</title>
<g id="a_node23"><a xlink:href="$d0/dc9/_c_g_l_scene_8h.xhtml" xlink:title="/home/dagal/git/DamierGL\l/DamierGL/src/CGL/CGLScene.h">
<polygon fill="white" stroke="black" points="1400.5,-205 1400.5,-235 1563.5,-235 1563.5,-205 1400.5,-205"/>
<text text-anchor="start" x="1408.5" y="-223" font-family="Helvetica,sans-Serif" font-size="10.00">/home/dagal/git/DamierGL</text>
<text text-anchor="middle" x="1482" y="-212" font-family="Helvetica,sans-Serif" font-size="10.00">/DamierGL/src/CGL/CGLScene.h</text>
</a>
</g>
</g>
<!-- Node21&#45;&gt;Node23 -->
<g id="edge26" class="edge"><title>Node21&#45;&gt;Node23</title>
<path fill="none" stroke="midnightblue" d="M1288.75,-270.436C1331.38,-259.532 1386.57,-245.412 1427.05,-235.056"/>
<polygon fill="midnightblue" stroke="midnightblue" points="1287.85,-267.053 1279.03,-272.922 1289.59,-273.835 1287.85,-267.053"/>
</g>
<!-- Node23&#45;&gt;Node8 -->
<g id="edge27" class="edge"><title>Node23&#45;&gt;Node8</title>
<path fill="none" stroke="midnightblue" d="M1390.41,-209.53C1370.5,-207.593 1349.55,-205.645 1330,-204 1215.24,-194.344 920.023,-210.538 813,-168 792.164,-159.718 792.762,-148.276 774,-136 752.31,-121.809 726.166,-108.598 706.05,-99.1786"/>
<polygon fill="midnightblue" stroke="midnightblue" points="1390.1,-213.017 1400.39,-210.51 1390.78,-206.05 1390.1,-213.017"/>
</g>
<!-- Node24 -->
<g id="node24" class="node"><title>Node24</title>
<g id="a_node24"><a xlink:href="$d6/d37/_c_g_l_world_8h.xhtml" xlink:title="/home/dagal/git/DamierGL\l/DamierGL/src/CGL/CGLWorld.h">
<polygon fill="white" stroke="black" points="1464.5,-137 1464.5,-167 1625.5,-167 1625.5,-137 1464.5,-137"/>
<text text-anchor="start" x="1472.5" y="-155" font-family="Helvetica,sans-Serif" font-size="10.00">/home/dagal/git/DamierGL</text>
<text text-anchor="middle" x="1545" y="-144" font-family="Helvetica,sans-Serif" font-size="10.00">/DamierGL/src/CGL/CGLWorld.h</text>
</a>
</g>
</g>
<!-- Node23&#45;&gt;Node24 -->
<g id="edge28" class="edge"><title>Node23&#45;&gt;Node24</title>
<path fill="none" stroke="midnightblue" d="M1502.81,-197.194C1512.2,-187.36 1523.02,-176.023 1531.36,-167.293"/>
<polygon fill="midnightblue" stroke="midnightblue" points="1500.04,-195.029 1495.67,-204.679 1505.11,-199.862 1500.04,-195.029"/>
</g>
<!-- Node25 -->
<g id="node25" class="node"><title>Node25</title>
<g id="a_node25"><a xlink:href="$de/d96/_c_g_l_window_8h.xhtml" xlink:title="/home/dagal/git/DamierGL\l/DamierGL/src/CGL/CGLWindow.h">
<polygon fill="white" stroke="black" points="1460,-69 1460,-99 1630,-99 1630,-69 1460,-69"/>
<text text-anchor="start" x="1468" y="-87" font-family="Helvetica,sans-Serif" font-size="10.00">/home/dagal/git/DamierGL</text>
<text text-anchor="middle" x="1545" y="-76" font-family="Helvetica,sans-Serif" font-size="10.00">/DamierGL/src/CGL/CGLWindow.h</text>
</a>
</g>
</g>
<!-- Node24&#45;&gt;Node25 -->
<g id="edge29" class="edge"><title>Node24&#45;&gt;Node25</title>
<path fill="none" stroke="midnightblue" d="M1545,-126.532C1545,-117.361 1545,-107.245 1545,-99.2931"/>
<polygon fill="midnightblue" stroke="midnightblue" points="1541.5,-126.679 1545,-136.679 1548.5,-126.679 1541.5,-126.679"/>
</g>
<!-- Node27 -->
<g id="node27" class="node"><title>Node27</title>
<g id="a_node27"><a xlink:href="$dd/d05/_c_g_l_world_8cpp.xhtml" xlink:title="/home/dagal/git/DamierGL\l/DamierGL/src/CGL/CGLWorld.cpp">
<polygon fill="white" stroke="black" points="1648.5,-69 1648.5,-99 1819.5,-99 1819.5,-69 1648.5,-69"/>
<text text-anchor="start" x="1656.5" y="-87" font-family="Helvetica,sans-Serif" font-size="10.00">/home/dagal/git/DamierGL</text>
<text text-anchor="middle" x="1734" y="-76" font-family="Helvetica,sans-Serif" font-size="10.00">/DamierGL/src/CGL/CGLWorld.cpp</text>
</a>
</g>
</g>
<!-- Node24&#45;&gt;Node27 -->
<g id="edge32" class="edge"><title>Node24&#45;&gt;Node27</title>
<path fill="none" stroke="midnightblue" d="M1595.25,-133.452C1626.1,-122.68 1665.07,-109.072 1693.85,-99.0218"/>
<polygon fill="midnightblue" stroke="midnightblue" points="1593.83,-130.24 1585.55,-136.841 1596.14,-136.849 1593.83,-130.24"/>
</g>
<!-- Node25&#45;&gt;Node7 -->
<g id="edge31" class="edge"><title>Node25&#45;&gt;Node7</title>
<path fill="none" stroke="midnightblue" d="M1484.27,-66.2289C1444.89,-55.3534 1394.16,-41.3466 1356.9,-31.0561"/>
<polygon fill="midnightblue" stroke="midnightblue" points="1483.45,-69.6341 1494.02,-68.9223 1485.31,-62.8866 1483.45,-69.6341"/>
</g>
<!-- Node26 -->
<g id="node26" class="node"><title>Node26</title>
<g id="a_node26"><a xlink:href="$df/d9a/_c_g_l_window_8cpp.xhtml" xlink:title="/home/dagal/git/DamierGL\l/DamierGL/src/CGL/CGLWindow.cpp">
<polygon fill="white" stroke="black" points="1454.5,-1 1454.5,-31 1635.5,-31 1635.5,-1 1454.5,-1"/>
<text text-anchor="start" x="1462.5" y="-19" font-family="Helvetica,sans-Serif" font-size="10.00">/home/dagal/git/DamierGL</text>
<text text-anchor="middle" x="1545" y="-8" font-family="Helvetica,sans-Serif" font-size="10.00">/DamierGL/src/CGL/CGLWindow.cpp</text>
</a>
</g>
</g>
<!-- Node25&#45;&gt;Node26 -->
<g id="edge30" class="edge"><title>Node25&#45;&gt;Node26</title>
<path fill="none" stroke="midnightblue" d="M1545,-58.5322C1545,-49.3606 1545,-39.2449 1545,-31.2931"/>
<polygon fill="midnightblue" stroke="midnightblue" points="1541.5,-58.6789 1545,-68.679 1548.5,-58.679 1541.5,-58.6789"/>
</g>
<!-- Node28&#45;&gt;Node23 -->
<g id="edge35" class="edge"><title>Node28&#45;&gt;Node23</title>
<path fill="none" stroke="midnightblue" d="M1561.14,-331.623C1551.53,-314.668 1537.72,-291.403 1524,-272 1514.86,-259.077 1503.37,-245.266 1494.72,-235.281"/>
<polygon fill="midnightblue" stroke="midnightblue" points="1558.34,-333.789 1566.29,-340.8 1564.45,-330.366 1558.34,-333.789"/>
</g>
<!-- Node29 -->
<g id="node29" class="node"><title>Node29</title>
<g id="a_node29"><a xlink:href="$de/d39/_c_g_l_light_8cpp.xhtml" xlink:title="/home/dagal/git/DamierGL\l/DamierGL/src/CGL/CGLLight.cpp">
<polygon fill="white" stroke="black" points="1570.5,-273 1570.5,-303 1737.5,-303 1737.5,-273 1570.5,-273"/>
<text text-anchor="start" x="1578.5" y="-291" font-family="Helvetica,sans-Serif" font-size="10.00">/home/dagal/git/DamierGL</text>
<text text-anchor="middle" x="1654" y="-280" font-family="Helvetica,sans-Serif" font-size="10.00">/DamierGL/src/CGL/CGLLight.cpp</text>
</a>
</g>
</g>
<!-- Node28&#45;&gt;Node29 -->
<g id="edge34" class="edge"><title>Node28&#45;&gt;Node29</title>
<path fill="none" stroke="midnightblue" d="M1599.08,-334.309C1611.4,-324.143 1625.93,-312.156 1636.95,-303.066"/>
<polygon fill="midnightblue" stroke="midnightblue" points="1596.85,-331.615 1591.36,-340.679 1601.3,-337.015 1596.85,-331.615"/>
</g>
<!-- Node32 -->
<g id="node32" class="node"><title>Node32</title>
<g id="a_node32"><a xlink:href="$da/de7/_c_g_l_color_8h.xhtml" xlink:title="/home/dagal/git/DamierGL\l/DamierGL/src/CGL/CGLColor.h">
<polygon fill="white" stroke="black" points="2028,-69 2028,-99 2186,-99 2186,-69 2028,-69"/>
<text text-anchor="start" x="2036" y="-87" font-family="Helvetica,sans-Serif" font-size="10.00">/home/dagal/git/DamierGL</text>
<text text-anchor="middle" x="2107" y="-76" font-family="Helvetica,sans-Serif" font-size="10.00">/DamierGL/src/CGL/CGLColor.h</text>
</a>
</g>
</g>
<!-- Node31&#45;&gt;Node32 -->
<g id="edge38" class="edge"><title>Node31&#45;&gt;Node32</title>
<path fill="none" stroke="midnightblue" d="M2169.87,-130.599C2155.77,-120.371 2139.05,-108.243 2126.39,-99.0663"/>
<polygon fill="midnightblue" stroke="midnightblue" points="2168.1,-133.641 2178.25,-136.679 2172.21,-127.975 2168.1,-133.641"/>
</g>
<!-- Node34 -->
<g id="node34" class="node"><title>Node34</title>
<g id="a_node34"><a xlink:href="$d7/da1/_c_g_l_effect_8cpp.xhtml" xlink:title="/home/dagal/git/DamierGL\l/DamierGL/src/CGL/CGLEffect.cpp">
<polygon fill="white" stroke="black" points="1838,-69 1838,-99 2010,-99 2010,-69 1838,-69"/>
<text text-anchor="start" x="1846" y="-87" font-family="Helvetica,sans-Serif" font-size="10.00">/home/dagal/git/DamierGL</text>
<text text-anchor="middle" x="1924" y="-76" font-family="Helvetica,sans-Serif" font-size="10.00">/DamierGL/src/CGL/CGLEffect.cpp</text>
</a>
</g>
</g>
<!-- Node31&#45;&gt;Node34 -->
<g id="edge41" class="edge"><title>Node31&#45;&gt;Node34</title>
<path fill="none" stroke="midnightblue" d="M2129.81,-134.574C2084.46,-123.651 2025.53,-109.456 1982.35,-99.0561"/>
<polygon fill="midnightblue" stroke="midnightblue" points="2129.01,-137.983 2139.56,-136.922 2130.65,-131.178 2129.01,-137.983"/>
</g>
<!-- Node35 -->
<g id="node35" class="node"><title>Node35</title>
<g id="a_node35"><a xlink:href="$db/d5d/_c_g_l_position_8h.xhtml" xlink:title="/home/dagal/git/DamierGL\l/DamierGL/src/CGL/CGLPosition.h">
<polygon fill="white" stroke="black" points="2204,-69 2204,-99 2374,-99 2374,-69 2204,-69"/>
<text text-anchor="start" x="2212" y="-87" font-family="Helvetica,sans-Serif" font-size="10.00">/home/dagal/git/DamierGL</text>
<text text-anchor="middle" x="2289" y="-76" font-family="Helvetica,sans-Serif" font-size="10.00">/DamierGL/src/CGL/CGLPosition.h</text>
</a>
</g>
</g>
<!-- Node31&#45;&gt;Node35 -->
<g id="edge42" class="edge"><title>Node31&#45;&gt;Node35</title>
<path fill="none" stroke="midnightblue" d="M2226.13,-130.599C2240.23,-120.371 2256.95,-108.243 2269.61,-99.0663"/>
<polygon fill="midnightblue" stroke="midnightblue" points="2223.79,-127.975 2217.75,-136.679 2227.9,-133.641 2223.79,-127.975"/>
</g>
<!-- Node37 -->
<g id="node37" class="node"><title>Node37</title>
<g id="a_node37"><a xlink:href="$d5/d65/_c_g_l_rotation_8h.xhtml" xlink:title="/home/dagal/git/DamierGL\l/DamierGL/src/CGL/CGLRotation.h">
<polygon fill="white" stroke="black" points="2392,-69 2392,-99 2564,-99 2564,-69 2392,-69"/>
<text text-anchor="start" x="2400" y="-87" font-family="Helvetica,sans-Serif" font-size="10.00">/home/dagal/git/DamierGL</text>
<text text-anchor="middle" x="2478" y="-76" font-family="Helvetica,sans-Serif" font-size="10.00">/DamierGL/src/CGL/CGLRotation.h</text>
</a>
</g>
</g>
<!-- Node31&#45;&gt;Node37 -->
<g id="edge45" class="edge"><title>Node31&#45;&gt;Node37</title>
<path fill="none" stroke="midnightblue" d="M2267.69,-134.574C2314.03,-123.651 2374.25,-109.456 2418.37,-99.0561"/>
<polygon fill="midnightblue" stroke="midnightblue" points="2266.65,-131.221 2257.72,-136.922 2268.26,-138.035 2266.65,-131.221"/>
</g>
<!-- Node39 -->
<g id="node39" class="node"><title>Node39</title>
<g id="a_node39"><a xlink:href="$d2/d1b/_c_g_l_scale_8h.xhtml" xlink:title="/home/dagal/git/DamierGL\l/DamierGL/src/CGL/CGLScale.h">
<polygon fill="white" stroke="black" points="2582,-69 2582,-99 2742,-99 2742,-69 2582,-69"/>
<text text-anchor="start" x="2590" y="-87" font-family="Helvetica,sans-Serif" font-size="10.00">/home/dagal/git/DamierGL</text>
<text text-anchor="middle" x="2662" y="-76" font-family="Helvetica,sans-Serif" font-size="10.00">/DamierGL/src/CGL/CGLScale.h</text>
</a>
</g>
</g>
<!-- Node31&#45;&gt;Node39 -->
<g id="edge48" class="edge"><title>Node31&#45;&gt;Node39</title>
<path fill="none" stroke="midnightblue" d="M2288.59,-139.5C2364.62,-129.652 2476.02,-114.763 2573,-100 2575.94,-99.5519 2578.94,-99.0878 2581.97,-98.6123"/>
<polygon fill="midnightblue" stroke="midnightblue" points="2288.04,-136.042 2278.57,-140.795 2288.94,-142.984 2288.04,-136.042"/>
</g>
<!-- Node32&#45;&gt;Node7 -->
<g id="edge40" class="edge"><title>Node32&#45;&gt;Node7</title>
<path fill="none" stroke="midnightblue" d="M2017.61,-67.9223C1763.34,-38.8783 1696.33,-53.4316 1445,-32 1423.6,-30.1749 1400.38,-27.819 1379.16,-25.5175"/>
<polygon fill="midnightblue" stroke="midnightblue" points="2017.57,-71.4405 2027.9,-69.1099 2018.37,-64.4866 2017.57,-71.4405"/>
</g>
<!-- Node33 -->
<g id="node33" class="node"><title>Node33</title>
<g id="a_node33"><a xlink:href="$da/d19/_c_g_l_color_8cpp.xhtml" xlink:title="/home/dagal/git/DamierGL\l/DamierGL/src/CGL/CGLColor.cpp">
<polygon fill="white" stroke="black" points="2005.5,-1 2005.5,-31 2174.5,-31 2174.5,-1 2005.5,-1"/>
<text text-anchor="start" x="2013.5" y="-19" font-family="Helvetica,sans-Serif" font-size="10.00">/home/dagal/git/DamierGL</text>
<text text-anchor="middle" x="2090" y="-8" font-family="Helvetica,sans-Serif" font-size="10.00">/DamierGL/src/CGL/CGLColor.cpp</text>
</a>
</g>
</g>
<!-- Node32&#45;&gt;Node33 -->
<g id="edge39" class="edge"><title>Node32&#45;&gt;Node33</title>
<path fill="none" stroke="midnightblue" d="M2100.77,-58.8309C2098.39,-49.5807 2095.75,-39.3313 2093.68,-31.2931"/>
<polygon fill="midnightblue" stroke="midnightblue" points="2097.43,-59.8681 2103.31,-68.679 2104.21,-58.122 2097.43,-59.8681"/>
</g>
<!-- Node35&#45;&gt;Node7 -->
<g id="edge44" class="edge"><title>Node35&#45;&gt;Node7</title>
<path fill="none" stroke="midnightblue" d="M2193.44,-68.0369C1860.7,-34.4463 1773.86,-57.6245 1445,-32 1423.58,-30.3313 1400.36,-28.0237 1379.15,-25.7183"/>
<polygon fill="midnightblue" stroke="midnightblue" points="2193.56,-71.567 2203.86,-69.0993 2194.27,-64.6031 2193.56,-71.567"/>
</g>
<!-- Node36 -->
<g id="node36" class="node"><title>Node36</title>
<g id="a_node36"><a xlink:href="$db/d18/_c_g_l_position_8cpp.xhtml" xlink:title="/home/dagal/git/DamierGL\l/DamierGL/src/CGL/CGLPosition.cpp">
<polygon fill="white" stroke="black" points="2192.5,-1 2192.5,-31 2373.5,-31 2373.5,-1 2192.5,-1"/>
<text text-anchor="start" x="2200.5" y="-19" font-family="Helvetica,sans-Serif" font-size="10.00">/home/dagal/git/DamierGL</text>
<text text-anchor="middle" x="2283" y="-8" font-family="Helvetica,sans-Serif" font-size="10.00">/DamierGL/src/CGL/CGLPosition.cpp</text>
</a>
</g>
</g>
<!-- Node35&#45;&gt;Node36 -->
<g id="edge43" class="edge"><title>Node35&#45;&gt;Node36</title>
<path fill="none" stroke="midnightblue" d="M2286.78,-58.5322C2285.94,-49.3606 2285.02,-39.2449 2284.3,-31.2931"/>
<polygon fill="midnightblue" stroke="midnightblue" points="2283.31,-59.037 2287.7,-68.679 2290.28,-58.4031 2283.31,-59.037"/>
</g>
<!-- Node37&#45;&gt;Node7 -->
<g id="edge47" class="edge"><title>Node37&#45;&gt;Node7</title>
<path fill="none" stroke="midnightblue" d="M2382.15,-68.0092C1966.05,-27.9554 1857.73,-62.1539 1445,-32 1423.58,-30.4348 1400.35,-28.1591 1379.13,-25.8513"/>
<polygon fill="midnightblue" stroke="midnightblue" points="2382.06,-71.5168 2392.35,-69 2382.74,-64.5495 2382.06,-71.5168"/>
</g>
<!-- Node38 -->
<g id="node38" class="node"><title>Node38</title>
<g id="a_node38"><a xlink:href="$db/d63/_c_g_l_rotation_8cpp.xhtml" xlink:title="/home/dagal/git/DamierGL\l/DamierGL/src/CGL/CGLRotation.cpp">
<polygon fill="white" stroke="black" points="2392,-1 2392,-31 2574,-31 2574,-1 2392,-1"/>
<text text-anchor="start" x="2400" y="-19" font-family="Helvetica,sans-Serif" font-size="10.00">/home/dagal/git/DamierGL</text>
<text text-anchor="middle" x="2483" y="-8" font-family="Helvetica,sans-Serif" font-size="10.00">/DamierGL/src/CGL/CGLRotation.cpp</text>
</a>
</g>
</g>
<!-- Node37&#45;&gt;Node38 -->
<g id="edge46" class="edge"><title>Node37&#45;&gt;Node38</title>
<path fill="none" stroke="midnightblue" d="M2479.85,-58.5322C2480.55,-49.3606 2481.31,-39.2449 2481.92,-31.2931"/>
<polygon fill="midnightblue" stroke="midnightblue" points="2476.35,-58.4431 2479.08,-68.679 2483.33,-58.972 2476.35,-58.4431"/>
</g>
<!-- Node39&#45;&gt;Node7 -->
<g id="edge50" class="edge"><title>Node39&#45;&gt;Node7</title>
<path fill="none" stroke="midnightblue" d="M2572.02,-68.0041C2072.18,-18.8444 1942.07,-66.7026 1445,-32 1423.57,-30.504 1400.35,-28.2497 1379.13,-25.9401"/>
<polygon fill="midnightblue" stroke="midnightblue" points="2571.72,-71.4917 2582.02,-68.9955 2572.41,-64.5258 2571.72,-71.4917"/>
</g>
<!-- Node40 -->
<g id="node40" class="node"><title>Node40</title>
<g id="a_node40"><a xlink:href="$dc/d61/_c_g_l_scale_8cpp.xhtml" xlink:title="/home/dagal/git/DamierGL\l/DamierGL/src/CGL/CGLScale.cpp">
<polygon fill="white" stroke="black" points="2592,-1 2592,-31 2762,-31 2762,-1 2592,-1"/>
<text text-anchor="start" x="2600" y="-19" font-family="Helvetica,sans-Serif" font-size="10.00">/home/dagal/git/DamierGL</text>
<text text-anchor="middle" x="2677" y="-8" font-family="Helvetica,sans-Serif" font-size="10.00">/DamierGL/src/CGL/CGLScale.cpp</text>
</a>
</g>
</g>
<!-- Node39&#45;&gt;Node40 -->
<g id="edge49" class="edge"><title>Node39&#45;&gt;Node40</title>
<path fill="none" stroke="midnightblue" d="M2667.49,-58.8309C2669.6,-49.5807 2671.92,-39.3313 2673.75,-31.2931"/>
<polygon fill="midnightblue" stroke="midnightblue" points="2664.06,-58.152 2665.25,-68.679 2670.88,-59.7034 2664.06,-58.152"/>
</g>
</g>
</svg>
