<?xml version="1.0" encoding="UTF-8" standalone="no"?>
<!DOCTYPE svg PUBLIC "-//W3C//DTD SVG 1.1//EN"
 "http://www.w3.org/Graphics/SVG/1.1/DTD/svg11.dtd">
<!-- Generated by graphviz version 2.36.0 (20140111.2315)
 -->
<!-- Title: /home/dagal/git/DamierGL/DamierGL/src/CGL/CGLObject.h Pages: 1 -->
<svg width="2675pt" height="516pt"
 viewBox="0.00 0.00 2675.00 516.00" xmlns="http://www.w3.org/2000/svg" xmlns:xlink="http://www.w3.org/1999/xlink">
<g id="graph0" class="graph" transform="scale(1 1) rotate(0) translate(4 512)">
<title>/home/dagal/git/DamierGL/DamierGL/src/CGL/CGLObject.h</title>
<polygon fill="white" stroke="none" points="-4,4 -4,-512 2671,-512 2671,4 -4,4"/>
<!-- Node1 -->
<g id="node1" class="node"><title>Node1</title>
<polygon fill="#bfbfbf" stroke="black" points="1289,-477 1289,-507 1453,-507 1453,-477 1289,-477"/>
<text text-anchor="start" x="1297" y="-495" font-family="Helvetica,sans-Serif" font-size="10.00">/home/dagal/git/DamierGL</text>
<text text-anchor="middle" x="1371" y="-484" font-family="Helvetica,sans-Serif" font-size="10.00">/DamierGL/src/CGL/CGLObject.h</text>
</g>
<!-- Node2 -->
<g id="node2" class="node"><title>Node2</title>
<g id="a_node2"><a xlink:href="$d2/d5a/_c_g_l_item_8h.xhtml" xlink:title="/home/dagal/git/DamierGL\l/DamierGL/src/CGL/CGLItem.h">
<polygon fill="white" stroke="black" points="627.5,-205 627.5,-235 782.5,-235 782.5,-205 627.5,-205"/>
<text text-anchor="start" x="635.5" y="-223" font-family="Helvetica,sans-Serif" font-size="10.00">/home/dagal/git/DamierGL</text>
<text text-anchor="middle" x="705" y="-212" font-family="Helvetica,sans-Serif" font-size="10.00">/DamierGL/src/CGL/CGLItem.h</text>
</a>
</g>
</g>
<!-- Node1&#45;&gt;Node2 -->
<g id="edge1" class="edge"><title>Node1&#45;&gt;Node2</title>
<path fill="none" stroke="midnightblue" d="M1279.01,-476.94C1118.33,-450.439 796.679,-388.112 724,-304 707.183,-284.538 704.449,-253.188 704.423,-235.101"/>
<polygon fill="midnightblue" stroke="midnightblue" points="1278.45,-480.396 1288.88,-478.558 1279.58,-473.488 1278.45,-480.396"/>
</g>
<!-- Node16 -->
<g id="node16" class="node"><title>Node16</title>
<g id="a_node16"><a xlink:href="$dc/db8/_c_g_l_special_8h.xhtml" xlink:title="/home/dagal/git/DamierGL\l/DamierGL/src/CGL/CGLSpecial.h">
<polygon fill="white" stroke="black" points="1182.5,-409 1182.5,-439 1349.5,-439 1349.5,-409 1182.5,-409"/>
<text text-anchor="start" x="1190.5" y="-427" font-family="Helvetica,sans-Serif" font-size="10.00">/home/dagal/git/DamierGL</text>
<text text-anchor="middle" x="1266" y="-416" font-family="Helvetica,sans-Serif" font-size="10.00">/DamierGL/src/CGL/CGLSpecial.h</text>
</a>
</g>
</g>
<!-- Node1&#45;&gt;Node16 -->
<g id="edge18" class="edge"><title>Node1&#45;&gt;Node16</title>
<path fill="none" stroke="midnightblue" d="M1339.72,-471.339C1323.25,-460.986 1303.43,-448.526 1288.49,-439.135"/>
<polygon fill="midnightblue" stroke="midnightblue" points="1338.15,-474.483 1348.47,-476.841 1341.87,-468.556 1338.15,-474.483"/>
</g>
<!-- Node29 -->
<g id="node29" class="node"><title>Node29</title>
<g id="a_node29"><a xlink:href="$d7/d27/_c_g_l_effect_8h.xhtml" xlink:title="/home/dagal/git/DamierGL\l/DamierGL/src/CGL/CGLEffect.h">
<polygon fill="white" stroke="black" points="1470.5,-273 1470.5,-303 1631.5,-303 1631.5,-273 1470.5,-273"/>
<text text-anchor="start" x="1478.5" y="-291" font-family="Helvetica,sans-Serif" font-size="10.00">/home/dagal/git/DamierGL</text>
<text text-anchor="middle" x="1551" y="-280" font-family="Helvetica,sans-Serif" font-size="10.00">/DamierGL/src/CGL/CGLEffect.h</text>
</a>
</g>
</g>
<!-- Node1&#45;&gt;Node29 -->
<g id="edge34" class="edge"><title>Node1&#45;&gt;Node29</title>
<path fill="none" stroke="midnightblue" d="M1390.48,-469.141C1427.57,-427.52 1507.39,-337.943 1538.36,-303.189"/>
<polygon fill="midnightblue" stroke="midnightblue" points="1387.7,-467.001 1383.66,-476.796 1392.92,-471.658 1387.7,-467.001"/>
</g>
<!-- Node43 -->
<g id="node43" class="node"><title>Node43</title>
<g id="a_node43"><a xlink:href="$da/d25/_c_g_l_object_8cpp.xhtml" xlink:title="/home/dagal/git/DamierGL\l/DamierGL/src/CGL/CGLObject.cpp">
<polygon fill="white" stroke="black" points="1504,-409 1504,-439 1678,-439 1678,-409 1504,-409"/>
<text text-anchor="start" x="1512" y="-427" font-family="Helvetica,sans-Serif" font-size="10.00">/home/dagal/git/DamierGL</text>
<text text-anchor="middle" x="1591" y="-416" font-family="Helvetica,sans-Serif" font-size="10.00">/DamierGL/src/CGL/CGLObject.cpp</text>
</a>
</g>
</g>
<!-- Node1&#45;&gt;Node43 -->
<g id="edge53" class="edge"><title>Node1&#45;&gt;Node43</title>
<path fill="none" stroke="midnightblue" d="M1427.83,-473.952C1463.95,-463.116 1510.14,-449.259 1544.15,-439.056"/>
<polygon fill="midnightblue" stroke="midnightblue" points="1426.5,-470.696 1417.93,-476.922 1428.51,-477.401 1426.5,-470.696"/>
</g>
<!-- Node3 -->
<g id="node3" class="node"><title>Node3</title>
<g id="a_node3"><a xlink:href="$db/d17/_c_g_l_boite_8h.xhtml" xlink:title="/home/dagal/git/DamierGL\l/DamierGL/src/CGL/CGLBoite.h">
<polygon fill="white" stroke="black" points="446,-137 446,-167 604,-167 604,-137 446,-137"/>
<text text-anchor="start" x="454" y="-155" font-family="Helvetica,sans-Serif" font-size="10.00">/home/dagal/git/DamierGL</text>
<text text-anchor="middle" x="525" y="-144" font-family="Helvetica,sans-Serif" font-size="10.00">/DamierGL/src/CGL/CGLBoite.h</text>
</a>
</g>
</g>
<!-- Node2&#45;&gt;Node3 -->
<g id="edge2" class="edge"><title>Node2&#45;&gt;Node3</title>
<path fill="none" stroke="midnightblue" d="M656.76,-201.312C627.444,-190.563 590.533,-177.029 563.241,-167.022"/>
<polygon fill="midnightblue" stroke="midnightblue" points="655.792,-204.685 666.385,-204.841 658.202,-198.113 655.792,-204.685"/>
</g>
<!-- Node9 -->
<g id="node9" class="node"><title>Node9</title>
<g id="a_node9"><a xlink:href="$d5/d21/_c_g_l_dot_8h.xhtml" xlink:title="/home/dagal/git/DamierGL\l/DamierGL/src/CGL/CGLDot.h">
<polygon fill="white" stroke="black" points="844.5,-137 844.5,-167 995.5,-167 995.5,-137 844.5,-137"/>
<text text-anchor="start" x="852.5" y="-155" font-family="Helvetica,sans-Serif" font-size="10.00">/home/dagal/git/DamierGL</text>
<text text-anchor="middle" x="920" y="-144" font-family="Helvetica,sans-Serif" font-size="10.00">/DamierGL/src/CGL/CGLDot.h</text>
</a>
</g>
</g>
<!-- Node2&#45;&gt;Node9 -->
<g id="edge8" class="edge"><title>Node2&#45;&gt;Node9</title>
<path fill="none" stroke="midnightblue" d="M760.536,-201.952C795.834,-191.116 840.973,-177.259 874.211,-167.056"/>
<polygon fill="midnightblue" stroke="midnightblue" points="759.392,-198.642 750.859,-204.922 761.446,-205.334 759.392,-198.642"/>
</g>
<!-- Node11 -->
<g id="node11" class="node"><title>Node11</title>
<g id="a_node11"><a xlink:href="$da/dcb/_c_g_l_item_8cpp.xhtml" xlink:title="/home/dagal/git/DamierGL\l/DamierGL/src/CGL/CGLItem.cpp">
<polygon fill="white" stroke="black" points="622.5,-137 622.5,-167 787.5,-167 787.5,-137 622.5,-137"/>
<text text-anchor="start" x="630.5" y="-155" font-family="Helvetica,sans-Serif" font-size="10.00">/home/dagal/git/DamierGL</text>
<text text-anchor="middle" x="705" y="-144" font-family="Helvetica,sans-Serif" font-size="10.00">/DamierGL/src/CGL/CGLItem.cpp</text>
</a>
</g>
</g>
<!-- Node2&#45;&gt;Node11 -->
<g id="edge11" class="edge"><title>Node2&#45;&gt;Node11</title>
<path fill="none" stroke="midnightblue" d="M705,-194.532C705,-185.361 705,-175.245 705,-167.293"/>
<polygon fill="midnightblue" stroke="midnightblue" points="701.5,-194.679 705,-204.679 708.5,-194.679 701.5,-194.679"/>
</g>
<!-- Node12 -->
<g id="node12" class="node"><title>Node12</title>
<g id="a_node12"><a xlink:href="$df/d4a/_c_g_l_line_8h.xhtml" xlink:title="/home/dagal/git/DamierGL\l/DamierGL/src/CGL/CGLLine.h">
<polygon fill="white" stroke="black" points="1370.5,-137 1370.5,-167 1523.5,-167 1523.5,-137 1370.5,-137"/>
<text text-anchor="start" x="1378.5" y="-155" font-family="Helvetica,sans-Serif" font-size="10.00">/home/dagal/git/DamierGL</text>
<text text-anchor="middle" x="1447" y="-144" font-family="Helvetica,sans-Serif" font-size="10.00">/DamierGL/src/CGL/CGLLine.h</text>
</a>
</g>
</g>
<!-- Node2&#45;&gt;Node12 -->
<g id="edge12" class="edge"><title>Node2&#45;&gt;Node12</title>
<path fill="none" stroke="midnightblue" d="M792.577,-206.72C800.491,-205.745 808.387,-204.821 816,-204 1015.42,-182.482 1251.19,-165.725 1370.14,-157.877"/>
<polygon fill="midnightblue" stroke="midnightblue" points="792.05,-203.259 782.565,-207.978 792.923,-210.204 792.05,-203.259"/>
</g>
<!-- Node14 -->
<g id="node14" class="node"><title>Node14</title>
<g id="a_node14"><a xlink:href="$d2/d91/_c_g_l_quad_8h.xhtml" xlink:title="/home/dagal/git/DamierGL\l/DamierGL/src/CGL/CGLQuad.h">
<polygon fill="white" stroke="black" points="270,-137 270,-167 428,-167 428,-137 270,-137"/>
<text text-anchor="start" x="278" y="-155" font-family="Helvetica,sans-Serif" font-size="10.00">/home/dagal/git/DamierGL</text>
<text text-anchor="middle" x="349" y="-144" font-family="Helvetica,sans-Serif" font-size="10.00">/DamierGL/src/CGL/CGLQuad.h</text>
</a>
</g>
</g>
<!-- Node2&#45;&gt;Node14 -->
<g id="edge15" class="edge"><title>Node2&#45;&gt;Node14</title>
<path fill="none" stroke="midnightblue" d="M618.979,-203.052C559.73,-192.068 481.735,-177.608 424.818,-167.056"/>
<polygon fill="midnightblue" stroke="midnightblue" points="618.595,-206.541 629.066,-204.922 619.871,-199.658 618.595,-206.541"/>
</g>
<!-- Node4 -->
<g id="node4" class="node"><title>Node4</title>
<g id="a_node4"><a xlink:href="$da/d3e/_c_g_l_boite_8cpp.xhtml" xlink:title="/home/dagal/git/DamierGL\l/DamierGL/src/CGL/CGLBoite.cpp">
<polygon fill="white" stroke="black" points="409,-69 409,-99 577,-99 577,-69 409,-69"/>
<text text-anchor="start" x="417" y="-87" font-family="Helvetica,sans-Serif" font-size="10.00">/home/dagal/git/DamierGL</text>
<text text-anchor="middle" x="493" y="-76" font-family="Helvetica,sans-Serif" font-size="10.00">/DamierGL/src/CGL/CGLBoite.cpp</text>
</a>
</g>
</g>
<!-- Node3&#45;&gt;Node4 -->
<g id="edge3" class="edge"><title>Node3&#45;&gt;Node4</title>
<path fill="none" stroke="midnightblue" d="M513.57,-127.426C509.011,-118.023 503.911,-107.504 499.93,-99.2931"/>
<polygon fill="midnightblue" stroke="midnightblue" points="510.544,-129.208 518.056,-136.679 516.843,-126.154 510.544,-129.208"/>
</g>
<!-- Node5 -->
<g id="node5" class="node"><title>Node5</title>
<g id="a_node5"><a xlink:href="$d7/df3/_c_g_l_robot1_8h.xhtml" xlink:title="/home/dagal/git/DamierGL\l/DamierGL/src/CGL/CGLRobot1.h">
<polygon fill="white" stroke="black" points="186.5,-69 186.5,-99 353.5,-99 353.5,-69 186.5,-69"/>
<text text-anchor="start" x="194.5" y="-87" font-family="Helvetica,sans-Serif" font-size="10.00">/home/dagal/git/DamierGL</text>
<text text-anchor="middle" x="270" y="-76" font-family="Helvetica,sans-Serif" font-size="10.00">/DamierGL/src/CGL/CGLRobot1.h</text>
</a>
</g>
</g>
<!-- Node3&#45;&gt;Node5 -->
<g id="edge4" class="edge"><title>Node3&#45;&gt;Node5</title>
<path fill="none" stroke="midnightblue" d="M460.736,-134.367C418.642,-123.472 364.235,-109.39 324.308,-99.0561"/>
<polygon fill="midnightblue" stroke="midnightblue" points="460.051,-137.805 470.609,-136.922 461.805,-131.028 460.051,-137.805"/>
</g>
<!-- Node8 -->
<g id="node8" class="node"><title>Node8</title>
<g id="a_node8"><a xlink:href="$d0/d58/_c_g_l_scene_8cpp.xhtml" xlink:title="/home/dagal/git/DamierGL\l/DamierGL/src/CGL/CGLScene.cpp">
<polygon fill="white" stroke="black" points="595.5,-69 595.5,-99 768.5,-99 768.5,-69 595.5,-69"/>
<text text-anchor="start" x="603.5" y="-87" font-family="Helvetica,sans-Serif" font-size="10.00">/home/dagal/git/DamierGL</text>
<text text-anchor="middle" x="682" y="-76" font-family="Helvetica,sans-Serif" font-size="10.00">/DamierGL/src/CGL/CGLScene.cpp</text>
</a>
</g>
</g>
<!-- Node3&#45;&gt;Node8 -->
<g id="edge7" class="edge"><title>Node3&#45;&gt;Node8</title>
<path fill="none" stroke="midnightblue" d="M568.08,-132.89C593.485,-122.21 625.151,-108.898 648.645,-99.0218"/>
<polygon fill="midnightblue" stroke="midnightblue" points="566.543,-129.739 558.68,-136.841 569.255,-136.192 566.543,-129.739"/>
</g>
<!-- Node6 -->
<g id="node6" class="node"><title>Node6</title>
<g id="a_node6"><a xlink:href="$dc/d01/_c_g_l_robot1_8cpp.xhtml" xlink:title="/home/dagal/git/DamierGL\l/DamierGL/src/CGL/CGLRobot1.cpp">
<polygon fill="white" stroke="black" points="181.5,-1 181.5,-31 358.5,-31 358.5,-1 181.5,-1"/>
<text text-anchor="start" x="189.5" y="-19" font-family="Helvetica,sans-Serif" font-size="10.00">/home/dagal/git/DamierGL</text>
<text text-anchor="middle" x="270" y="-8" font-family="Helvetica,sans-Serif" font-size="10.00">/DamierGL/src/CGL/CGLRobot1.cpp</text>
</a>
</g>
</g>
<!-- Node5&#45;&gt;Node6 -->
<g id="edge5" class="edge"><title>Node5&#45;&gt;Node6</title>
<path fill="none" stroke="midnightblue" d="M270,-58.5322C270,-49.3606 270,-39.2449 270,-31.2931"/>
<polygon fill="midnightblue" stroke="midnightblue" points="266.5,-58.6789 270,-68.679 273.5,-58.679 266.5,-58.6789"/>
</g>
<!-- Node7 -->
<g id="node7" class="node"><title>Node7</title>
<g id="a_node7"><a xlink:href="$db/dec/_damier_g_l_8cpp.xhtml" xlink:title="/home/dagal/git/DamierGL\l/DamierGL/src/DamierGL.cpp">
<polygon fill="white" stroke="black" points="1319,-1 1319,-31 1465,-31 1465,-1 1319,-1"/>
<text text-anchor="start" x="1327" y="-19" font-family="Helvetica,sans-Serif" font-size="10.00">/home/dagal/git/DamierGL</text>
<text text-anchor="middle" x="1392" y="-8" font-family="Helvetica,sans-Serif" font-size="10.00">/DamierGL/src/DamierGL.cpp</text>
</a>
</g>
</g>
<!-- Node5&#45;&gt;Node7 -->
<g id="edge6" class="edge"><title>Node5&#45;&gt;Node7</title>
<path fill="none" stroke="midnightblue" d="M363.675,-68.3426C364.789,-68.2245 365.898,-68.1102 367,-68 713.638,-33.3307 802.139,-50.7764 1150,-32 1206.74,-28.9371 1270.94,-24.9332 1318.95,-21.8326"/>
<polygon fill="midnightblue" stroke="midnightblue" points="363.065,-64.8894 353.526,-69.5005 363.858,-71.8443 363.065,-64.8894"/>
</g>
<!-- Node9&#45;&gt;Node7 -->
<g id="edge10" class="edge"><title>Node9&#45;&gt;Node7</title>
<path fill="none" stroke="midnightblue" d="M1005.63,-135.93C1058.43,-125.806 1120.57,-112.145 1145,-100 1164.77,-90.1702 1163.31,-77.992 1183,-68 1225.47,-46.4496 1277.47,-33.7148 1318.99,-26.3601"/>
<polygon fill="midnightblue" stroke="midnightblue" points="1004.73,-132.539 995.554,-137.842 1006.03,-139.417 1004.73,-132.539"/>
</g>
<!-- Node10 -->
<g id="node10" class="node"><title>Node10</title>
<g id="a_node10"><a xlink:href="$d2/d5a/_c_g_l_dot_8cpp.xhtml" xlink:title="/home/dagal/git/DamierGL\l/DamierGL/src/CGL/CGLDot.cpp">
<polygon fill="white" stroke="black" points="786.5,-69 786.5,-99 947.5,-99 947.5,-69 786.5,-69"/>
<text text-anchor="start" x="794.5" y="-87" font-family="Helvetica,sans-Serif" font-size="10.00">/home/dagal/git/DamierGL</text>
<text text-anchor="middle" x="867" y="-76" font-family="Helvetica,sans-Serif" font-size="10.00">/DamierGL/src/CGL/CGLDot.cpp</text>
</a>
</g>
</g>
<!-- Node9&#45;&gt;Node10 -->
<g id="edge9" class="edge"><title>Node9&#45;&gt;Node10</title>
<path fill="none" stroke="midnightblue" d="M902.019,-128.608C894.233,-118.912 885.349,-107.85 878.478,-99.2931"/>
<polygon fill="midnightblue" stroke="midnightblue" points="899.509,-131.073 908.5,-136.679 904.967,-126.69 899.509,-131.073"/>
</g>
<!-- Node12&#45;&gt;Node7 -->
<g id="edge14" class="edge"><title>Node12&#45;&gt;Node7</title>
<path fill="none" stroke="midnightblue" d="M1428.48,-128.796C1422.14,-120.241 1415.51,-110.095 1411,-100 1400.76,-77.0524 1395.74,-47.9808 1393.52,-31.0381"/>
<polygon fill="midnightblue" stroke="midnightblue" points="1425.76,-130.993 1434.65,-136.76 1431.29,-126.709 1425.76,-130.993"/>
</g>
<!-- Node13 -->
<g id="node13" class="node"><title>Node13</title>
<g id="a_node13"><a xlink:href="$df/de2/_c_g_l_line_8cpp.xhtml" xlink:title="/home/dagal/git/DamierGL\l/DamierGL/src/CGL/CGLLine.cpp">
<polygon fill="white" stroke="black" points="1420,-69 1420,-99 1584,-99 1584,-69 1420,-69"/>
<text text-anchor="start" x="1428" y="-87" font-family="Helvetica,sans-Serif" font-size="10.00">/home/dagal/git/DamierGL</text>
<text text-anchor="middle" x="1502" y="-76" font-family="Helvetica,sans-Serif" font-size="10.00">/DamierGL/src/CGL/CGLLine.cpp</text>
</a>
</g>
</g>
<!-- Node12&#45;&gt;Node13 -->
<g id="edge13" class="edge"><title>Node12&#45;&gt;Node13</title>
<path fill="none" stroke="midnightblue" d="M1465.42,-128.901C1473.55,-119.136 1482.89,-107.936 1490.09,-99.2931"/>
<polygon fill="midnightblue" stroke="midnightblue" points="1462.65,-126.756 1458.93,-136.679 1468.02,-131.237 1462.65,-126.756"/>
</g>
<!-- Node14&#45;&gt;Node7 -->
<g id="edge17" class="edge"><title>Node14&#45;&gt;Node7</title>
<path fill="none" stroke="midnightblue" d="M356.519,-127.349C364.117,-107.741 377.932,-81.0457 400,-68 471.819,-25.5441 1066.7,-36.5808 1150,-32 1206.74,-28.8798 1270.94,-24.8791 1318.94,-21.7942"/>
<polygon fill="midnightblue" stroke="midnightblue" points="353.194,-126.252 353.101,-136.846 359.78,-128.622 353.194,-126.252"/>
</g>
<!-- Node15 -->
<g id="node15" class="node"><title>Node15</title>
<g id="a_node15"><a xlink:href="$d4/d6e/_c_g_l_quad_8cpp.xhtml" xlink:title="/home/dagal/git/DamierGL\l/DamierGL/src/CGL/CGLQuad.cpp">
<polygon fill="white" stroke="black" points="-0.5,-69 -0.5,-99 168.5,-99 168.5,-69 -0.5,-69"/>
<text text-anchor="start" x="7.5" y="-87" font-family="Helvetica,sans-Serif" font-size="10.00">/home/dagal/git/DamierGL</text>
<text text-anchor="middle" x="84" y="-76" font-family="Helvetica,sans-Serif" font-size="10.00">/DamierGL/src/CGL/CGLQuad.cpp</text>
</a>
</g>
</g>
<!-- Node14&#45;&gt;Node15 -->
<g id="edge16" class="edge"><title>Node14&#45;&gt;Node15</title>
<path fill="none" stroke="midnightblue" d="M282.769,-134.505C238.949,-123.591 182.105,-109.434 140.437,-99.0561"/>
<polygon fill="midnightblue" stroke="midnightblue" points="281.926,-137.902 292.476,-136.922 283.618,-131.109 281.926,-137.902"/>
</g>
<!-- Node17 -->
<g id="node17" class="node"><title>Node17</title>
<g id="a_node17"><a xlink:href="$df/d5b/_c_g_l_camera_8h.xhtml" xlink:title="/home/dagal/git/DamierGL\l/DamierGL/src/CGL/CGLCamera.h">
<polygon fill="white" stroke="black" points="908,-341 908,-371 1078,-371 1078,-341 908,-341"/>
<text text-anchor="start" x="916" y="-359" font-family="Helvetica,sans-Serif" font-size="10.00">/home/dagal/git/DamierGL</text>
<text text-anchor="middle" x="993" y="-348" font-family="Helvetica,sans-Serif" font-size="10.00">/DamierGL/src/CGL/CGLCamera.h</text>
</a>
</g>
</g>
<!-- Node16&#45;&gt;Node17 -->
<g id="edge19" class="edge"><title>Node16&#45;&gt;Node17</title>
<path fill="none" stroke="midnightblue" d="M1197.77,-406.505C1152.63,-395.591 1094.07,-381.434 1051.14,-371.056"/>
<polygon fill="midnightblue" stroke="midnightblue" points="1197.23,-409.974 1207.77,-408.922 1198.87,-403.17 1197.23,-409.974"/>
</g>
<!-- Node26 -->
<g id="node26" class="node"><title>Node26</title>
<g id="a_node26"><a xlink:href="$da/d23/_c_g_l_light_8h.xhtml" xlink:title="/home/dagal/git/DamierGL\l/DamierGL/src/CGL/CGLLight.h">
<polygon fill="white" stroke="black" points="1096,-341 1096,-371 1252,-371 1252,-341 1096,-341"/>
<text text-anchor="start" x="1104" y="-359" font-family="Helvetica,sans-Serif" font-size="10.00">/home/dagal/git/DamierGL</text>
<text text-anchor="middle" x="1174" y="-348" font-family="Helvetica,sans-Serif" font-size="10.00">/DamierGL/src/CGL/CGLLight.h</text>
</a>
</g>
</g>
<!-- Node16&#45;&gt;Node26 -->
<g id="edge30" class="edge"><title>Node16&#45;&gt;Node26</title>
<path fill="none" stroke="midnightblue" d="M1237.56,-402.599C1223.31,-392.371 1206.4,-380.243 1193.61,-371.066"/>
<polygon fill="midnightblue" stroke="midnightblue" points="1235.87,-405.694 1246.04,-408.679 1239.95,-400.006 1235.87,-405.694"/>
</g>
<!-- Node28 -->
<g id="node28" class="node"><title>Node28</title>
<g id="a_node28"><a xlink:href="$d7/dcc/_c_g_l_special_8cpp.xhtml" xlink:title="/home/dagal/git/DamierGL\l/DamierGL/src/CGL/CGLSpecial.cpp">
<polygon fill="white" stroke="black" points="1270,-341 1270,-371 1448,-371 1448,-341 1270,-341"/>
<text text-anchor="start" x="1278" y="-359" font-family="Helvetica,sans-Serif" font-size="10.00">/home/dagal/git/DamierGL</text>
<text text-anchor="middle" x="1359" y="-348" font-family="Helvetica,sans-Serif" font-size="10.00">/DamierGL/src/CGL/CGLSpecial.cpp</text>
</a>
</g>
</g>
<!-- Node16&#45;&gt;Node28 -->
<g id="edge33" class="edge"><title>Node16&#45;&gt;Node28</title>
<path fill="none" stroke="midnightblue" d="M1294.34,-402.888C1308.84,-392.6 1326.13,-380.329 1339.18,-371.066"/>
<polygon fill="midnightblue" stroke="midnightblue" points="1292.31,-400.037 1286.18,-408.679 1296.36,-405.746 1292.31,-400.037"/>
</g>
<!-- Node18 -->
<g id="node18" class="node"><title>Node18</title>
<g id="a_node18"><a xlink:href="$dd/d43/_c_g_l_camera_8cpp.xhtml" xlink:title="/home/dagal/git/DamierGL\l/DamierGL/src/CGL/CGLCamera.cpp">
<polygon fill="white" stroke="black" points="733,-273 733,-303 913,-303 913,-273 733,-273"/>
<text text-anchor="start" x="741" y="-291" font-family="Helvetica,sans-Serif" font-size="10.00">/home/dagal/git/DamierGL</text>
<text text-anchor="middle" x="823" y="-280" font-family="Helvetica,sans-Serif" font-size="10.00">/DamierGL/src/CGL/CGLCamera.cpp</text>
</a>
</g>
</g>
<!-- Node17&#45;&gt;Node18 -->
<g id="edge20" class="edge"><title>Node17&#45;&gt;Node18</title>
<path fill="none" stroke="midnightblue" d="M947.078,-337.171C919.45,-326.445 884.78,-312.985 859.117,-303.022"/>
<polygon fill="midnightblue" stroke="midnightblue" points="945.942,-340.485 956.531,-340.841 948.475,-333.959 945.942,-340.485"/>
</g>
<!-- Node19 -->
<g id="node19" class="node"><title>Node19</title>
<g id="a_node19"><a xlink:href="$d5/d86/_c_g_l_camera_list_8h.xhtml" xlink:title="/home/dagal/git/DamierGL\l/DamierGL/src/CGL/CGLCameraList.h">
<polygon fill="white" stroke="black" points="931.5,-273 931.5,-303 1116.5,-303 1116.5,-273 931.5,-273"/>
<text text-anchor="start" x="939.5" y="-291" font-family="Helvetica,sans-Serif" font-size="10.00">/home/dagal/git/DamierGL</text>
<text text-anchor="middle" x="1024" y="-280" font-family="Helvetica,sans-Serif" font-size="10.00">/DamierGL/src/CGL/CGLCameraList.h</text>
</a>
</g>
</g>
<!-- Node17&#45;&gt;Node19 -->
<g id="edge21" class="edge"><title>Node17&#45;&gt;Node19</title>
<path fill="none" stroke="midnightblue" d="M1004.07,-331.426C1008.49,-322.023 1013.43,-311.504 1017.29,-303.293"/>
<polygon fill="midnightblue" stroke="midnightblue" points="1000.81,-330.14 999.727,-340.679 1007.15,-333.116 1000.81,-330.14"/>
</g>
<!-- Node20 -->
<g id="node20" class="node"><title>Node20</title>
<g id="a_node20"><a xlink:href="$df/d1a/_c_g_l_camera_list_8cpp.xhtml" xlink:title="/home/dagal/git/DamierGL\l/DamierGL/src/CGL/CGLCameraList.cpp">
<polygon fill="white" stroke="black" points="825,-205 825,-235 1021,-235 1021,-205 825,-205"/>
<text text-anchor="start" x="833" y="-223" font-family="Helvetica,sans-Serif" font-size="10.00">/home/dagal/git/DamierGL</text>
<text text-anchor="middle" x="923" y="-212" font-family="Helvetica,sans-Serif" font-size="10.00">/DamierGL/src/CGL/CGLCameraList.cpp</text>
</a>
</g>
</g>
<!-- Node19&#45;&gt;Node20 -->
<g id="edge22" class="edge"><title>Node19&#45;&gt;Node20</title>
<path fill="none" stroke="midnightblue" d="M993.664,-267.176C977.831,-256.83 958.833,-244.416 944.526,-235.066"/>
<polygon fill="midnightblue" stroke="midnightblue" points="991.799,-270.139 1002.08,-272.679 995.628,-264.279 991.799,-270.139"/>
</g>
<!-- Node21 -->
<g id="node21" class="node"><title>Node21</title>
<g id="a_node21"><a xlink:href="$d0/dc9/_c_g_l_scene_8h.xhtml" xlink:title="/home/dagal/git/DamierGL\l/DamierGL/src/CGL/CGLScene.h">
<polygon fill="white" stroke="black" points="1039.5,-205 1039.5,-235 1202.5,-235 1202.5,-205 1039.5,-205"/>
<text text-anchor="start" x="1047.5" y="-223" font-family="Helvetica,sans-Serif" font-size="10.00">/home/dagal/git/DamierGL</text>
<text text-anchor="middle" x="1121" y="-212" font-family="Helvetica,sans-Serif" font-size="10.00">/DamierGL/src/CGL/CGLScene.h</text>
</a>
</g>
</g>
<!-- Node19&#45;&gt;Node21 -->
<g id="edge23" class="edge"><title>Node19&#45;&gt;Node21</title>
<path fill="none" stroke="midnightblue" d="M1053.56,-266.888C1068.68,-256.6 1086.71,-244.329 1100.33,-235.066"/>
<polygon fill="midnightblue" stroke="midnightblue" points="1051.35,-264.16 1045.05,-272.679 1055.28,-269.947 1051.35,-264.16"/>
</g>
<!-- Node21&#45;&gt;Node8 -->
<g id="edge24" class="edge"><title>Node21&#45;&gt;Node8</title>
<path fill="none" stroke="midnightblue" d="M1029.11,-203.761C948.923,-190.282 843.964,-172.131 835,-168 814.637,-158.617 815.069,-147.794 796,-136 771.936,-121.117 742.782,-108.155 719.98,-99.0224"/>
<polygon fill="midnightblue" stroke="midnightblue" points="1028.82,-207.26 1039.26,-205.464 1029.98,-200.357 1028.82,-207.26"/>
</g>
<!-- Node22 -->
<g id="node22" class="node"><title>Node22</title>
<g id="a_node22"><a xlink:href="$d6/d37/_c_g_l_world_8h.xhtml" xlink:title="/home/dagal/git/DamierGL\l/DamierGL/src/CGL/CGLWorld.h">
<polygon fill="white" stroke="black" points="1040.5,-137 1040.5,-167 1201.5,-167 1201.5,-137 1040.5,-137"/>
<text text-anchor="start" x="1048.5" y="-155" font-family="Helvetica,sans-Serif" font-size="10.00">/home/dagal/git/DamierGL</text>
<text text-anchor="middle" x="1121" y="-144" font-family="Helvetica,sans-Serif" font-size="10.00">/DamierGL/src/CGL/CGLWorld.h</text>
</a>
</g>
</g>
<!-- Node21&#45;&gt;Node22 -->
<g id="edge25" class="edge"><title>Node21&#45;&gt;Node22</title>
<path fill="none" stroke="midnightblue" d="M1121,-194.532C1121,-185.361 1121,-175.245 1121,-167.293"/>
<polygon fill="midnightblue" stroke="midnightblue" points="1117.5,-194.679 1121,-204.679 1124.5,-194.679 1117.5,-194.679"/>
</g>
<!-- Node23 -->
<g id="node23" class="node"><title>Node23</title>
<g id="a_node23"><a xlink:href="$de/d96/_c_g_l_window_8h.xhtml" xlink:title="/home/dagal/git/DamierGL\l/DamierGL/src/CGL/CGLWindow.h">
<polygon fill="white" stroke="black" points="966,-69 966,-99 1136,-99 1136,-69 966,-69"/>
<text text-anchor="start" x="974" y="-87" font-family="Helvetica,sans-Serif" font-size="10.00">/home/dagal/git/DamierGL</text>
<text text-anchor="middle" x="1051" y="-76" font-family="Helvetica,sans-Serif" font-size="10.00">/DamierGL/src/CGL/CGLWindow.h</text>
</a>
</g>
</g>
<!-- Node22&#45;&gt;Node23 -->
<g id="edge26" class="edge"><title>Node22&#45;&gt;Node23</title>
<path fill="none" stroke="midnightblue" d="M1098.49,-129.776C1087.92,-119.81 1075.6,-108.196 1066.16,-99.2931"/>
<polygon fill="midnightblue" stroke="midnightblue" points="1096.13,-132.365 1105.81,-136.679 1100.94,-127.272 1096.13,-132.365"/>
</g>
<!-- Node25 -->
<g id="node25" class="node"><title>Node25</title>
<g id="a_node25"><a xlink:href="$dd/d05/_c_g_l_world_8cpp.xhtml" xlink:title="/home/dagal/git/DamierGL\l/DamierGL/src/CGL/CGLWorld.cpp">
<polygon fill="white" stroke="black" points="1192.5,-69 1192.5,-99 1363.5,-99 1363.5,-69 1192.5,-69"/>
<text text-anchor="start" x="1200.5" y="-87" font-family="Helvetica,sans-Serif" font-size="10.00">/home/dagal/git/DamierGL</text>
<text text-anchor="middle" x="1278" y="-76" font-family="Helvetica,sans-Serif" font-size="10.00">/DamierGL/src/CGL/CGLWorld.cpp</text>
</a>
</g>
</g>
<!-- Node22&#45;&gt;Node25 -->
<g id="edge29" class="edge"><title>Node22&#45;&gt;Node25</title>
<path fill="none" stroke="midnightblue" d="M1164.08,-132.89C1189.48,-122.21 1221.15,-108.898 1244.65,-99.0218"/>
<polygon fill="midnightblue" stroke="midnightblue" points="1162.54,-129.739 1154.68,-136.841 1165.26,-136.192 1162.54,-129.739"/>
</g>
<!-- Node23&#45;&gt;Node7 -->
<g id="edge28" class="edge"><title>Node23&#45;&gt;Node7</title>
<path fill="none" stroke="midnightblue" d="M1133.75,-66.9841C1190.46,-56.0082 1264.97,-41.5864 1319.38,-31.0561"/>
<polygon fill="midnightblue" stroke="midnightblue" points="1132.89,-63.5858 1123.73,-68.9223 1134.22,-70.4582 1132.89,-63.5858"/>
</g>
<!-- Node24 -->
<g id="node24" class="node"><title>Node24</title>
<g id="a_node24"><a xlink:href="$df/d9a/_c_g_l_window_8cpp.xhtml" xlink:title="/home/dagal/git/DamierGL\l/DamierGL/src/CGL/CGLWindow.cpp">
<polygon fill="white" stroke="black" points="960.5,-1 960.5,-31 1141.5,-31 1141.5,-1 960.5,-1"/>
<text text-anchor="start" x="968.5" y="-19" font-family="Helvetica,sans-Serif" font-size="10.00">/home/dagal/git/DamierGL</text>
<text text-anchor="middle" x="1051" y="-8" font-family="Helvetica,sans-Serif" font-size="10.00">/DamierGL/src/CGL/CGLWindow.cpp</text>
</a>
</g>
</g>
<!-- Node23&#45;&gt;Node24 -->
<g id="edge27" class="edge"><title>Node23&#45;&gt;Node24</title>
<path fill="none" stroke="midnightblue" d="M1051,-58.5322C1051,-49.3606 1051,-39.2449 1051,-31.2931"/>
<polygon fill="midnightblue" stroke="midnightblue" points="1047.5,-58.6789 1051,-68.679 1054.5,-58.679 1047.5,-58.6789"/>
</g>
<!-- Node26&#45;&gt;Node21 -->
<g id="edge32" class="edge"><title>Node26&#45;&gt;Node21</title>
<path fill="none" stroke="midnightblue" d="M1164.61,-331.261C1153.6,-303.412 1135.69,-258.141 1126.63,-235.237"/>
<polygon fill="midnightblue" stroke="midnightblue" points="1161.4,-332.648 1168.33,-340.66 1167.9,-330.073 1161.4,-332.648"/>
</g>
<!-- Node27 -->
<g id="node27" class="node"><title>Node27</title>
<g id="a_node27"><a xlink:href="$de/d39/_c_g_l_light_8cpp.xhtml" xlink:title="/home/dagal/git/DamierGL\l/DamierGL/src/CGL/CGLLight.cpp">
<polygon fill="white" stroke="black" points="1171.5,-273 1171.5,-303 1338.5,-303 1338.5,-273 1171.5,-273"/>
<text text-anchor="start" x="1179.5" y="-291" font-family="Helvetica,sans-Serif" font-size="10.00">/home/dagal/git/DamierGL</text>
<text text-anchor="middle" x="1255" y="-280" font-family="Helvetica,sans-Serif" font-size="10.00">/DamierGL/src/CGL/CGLLight.cpp</text>
</a>
</g>
</g>
<!-- Node26&#45;&gt;Node27 -->
<g id="edge31" class="edge"><title>Node26&#45;&gt;Node27</title>
<path fill="none" stroke="midnightblue" d="M1199.39,-334.309C1211.87,-324.143 1226.58,-312.156 1237.74,-303.066"/>
<polygon fill="midnightblue" stroke="midnightblue" points="1197.12,-331.649 1191.58,-340.679 1201.54,-337.076 1197.12,-331.649"/>
</g>
<!-- Node30 -->
<g id="node30" class="node"><title>Node30</title>
<g id="a_node30"><a xlink:href="$dd/d83/_c_g_l_vector3_d_8h.xhtml" xlink:title="/home/dagal/git/DamierGL\l/DamierGL/src/CGL/CGLVector3D.h">
<polygon fill="white" stroke="black" points="1797,-205 1797,-235 1973,-235 1973,-205 1797,-205"/>
<text text-anchor="start" x="1805" y="-223" font-family="Helvetica,sans-Serif" font-size="10.00">/home/dagal/git/DamierGL</text>
<text text-anchor="middle" x="1885" y="-212" font-family="Helvetica,sans-Serif" font-size="10.00">/DamierGL/src/CGL/CGLVector3D.h</text>
</a>
</g>
</g>
<!-- Node29&#45;&gt;Node30 -->
<g id="edge35" class="edge"><title>Node29&#45;&gt;Node30</title>
<path fill="none" stroke="midnightblue" d="M1632.4,-270.916C1687.9,-259.949 1760.69,-245.565 1813.87,-235.056"/>
<polygon fill="midnightblue" stroke="midnightblue" points="1631.37,-267.55 1622.24,-272.922 1632.73,-274.417 1631.37,-267.55"/>
</g>
<!-- Node42 -->
<g id="node42" class="node"><title>Node42</title>
<g id="a_node42"><a xlink:href="$d7/da1/_c_g_l_effect_8cpp.xhtml" xlink:title="/home/dagal/git/DamierGL\l/DamierGL/src/CGL/CGLEffect.cpp">
<polygon fill="white" stroke="black" points="1465,-205 1465,-235 1637,-235 1637,-205 1465,-205"/>
<text text-anchor="start" x="1473" y="-223" font-family="Helvetica,sans-Serif" font-size="10.00">/home/dagal/git/DamierGL</text>
<text text-anchor="middle" x="1551" y="-212" font-family="Helvetica,sans-Serif" font-size="10.00">/DamierGL/src/CGL/CGLEffect.cpp</text>
</a>
</g>
</g>
<!-- Node29&#45;&gt;Node42 -->
<g id="edge52" class="edge"><title>Node29&#45;&gt;Node42</title>
<path fill="none" stroke="midnightblue" d="M1551,-262.532C1551,-253.361 1551,-243.245 1551,-235.293"/>
<polygon fill="midnightblue" stroke="midnightblue" points="1547.5,-262.679 1551,-272.679 1554.5,-262.679 1547.5,-262.679"/>
</g>
<!-- Node30&#45;&gt;Node12 -->
<g id="edge41" class="edge"><title>Node30&#45;&gt;Node12</title>
<path fill="none" stroke="midnightblue" d="M1786.86,-204.212C1707.3,-192.224 1596.77,-175.568 1523.63,-164.546"/>
<polygon fill="midnightblue" stroke="midnightblue" points="1786.48,-207.694 1796.89,-205.723 1787.52,-200.772 1786.48,-207.694"/>
</g>
<!-- Node31 -->
<g id="node31" class="node"><title>Node31</title>
<g id="a_node31"><a xlink:href="$df/dcb/_c_g_l_vector4_d_8h.xhtml" xlink:title="/home/dagal/git/DamierGL\l/DamierGL/src/CGL/CGLVector4D.h">
<polygon fill="white" stroke="black" points="1989,-137 1989,-167 2165,-167 2165,-137 1989,-137"/>
<text text-anchor="start" x="1997" y="-155" font-family="Helvetica,sans-Serif" font-size="10.00">/home/dagal/git/DamierGL</text>
<text text-anchor="middle" x="2077" y="-144" font-family="Helvetica,sans-Serif" font-size="10.00">/DamierGL/src/CGL/CGLVector4D.h</text>
</a>
</g>
</g>
<!-- Node30&#45;&gt;Node31 -->
<g id="edge36" class="edge"><title>Node30&#45;&gt;Node31</title>
<path fill="none" stroke="midnightblue" d="M1936.05,-201.452C1967.38,-190.68 2006.97,-177.072 2036.21,-167.022"/>
<polygon fill="midnightblue" stroke="midnightblue" points="1934.51,-198.281 1926.19,-204.841 1936.78,-204.9 1934.51,-198.281"/>
</g>
<!-- Node35 -->
<g id="node35" class="node"><title>Node35</title>
<g id="a_node35"><a xlink:href="$db/d5d/_c_g_l_position_8h.xhtml" xlink:title="/home/dagal/git/DamierGL\l/DamierGL/src/CGL/CGLPosition.h">
<polygon fill="white" stroke="black" points="1611,-137 1611,-167 1781,-167 1781,-137 1611,-137"/>
<text text-anchor="start" x="1619" y="-155" font-family="Helvetica,sans-Serif" font-size="10.00">/home/dagal/git/DamierGL</text>
<text text-anchor="middle" x="1696" y="-144" font-family="Helvetica,sans-Serif" font-size="10.00">/DamierGL/src/CGL/CGLPosition.h</text>
</a>
</g>
</g>
<!-- Node30&#45;&gt;Node35 -->
<g id="edge42" class="edge"><title>Node30&#45;&gt;Node35</title>
<path fill="none" stroke="midnightblue" d="M1834.75,-201.452C1803.9,-190.68 1764.93,-177.072 1736.15,-167.022"/>
<polygon fill="midnightblue" stroke="midnightblue" points="1833.86,-204.849 1844.45,-204.841 1836.17,-198.24 1833.86,-204.849"/>
</g>
<!-- Node37 -->
<g id="node37" class="node"><title>Node37</title>
<g id="a_node37"><a xlink:href="$d5/d65/_c_g_l_rotation_8h.xhtml" xlink:title="/home/dagal/git/DamierGL\l/DamierGL/src/CGL/CGLRotation.h">
<polygon fill="white" stroke="black" points="1799,-137 1799,-167 1971,-167 1971,-137 1799,-137"/>
<text text-anchor="start" x="1807" y="-155" font-family="Helvetica,sans-Serif" font-size="10.00">/home/dagal/git/DamierGL</text>
<text text-anchor="middle" x="1885" y="-144" font-family="Helvetica,sans-Serif" font-size="10.00">/DamierGL/src/CGL/CGLRotation.h</text>
</a>
</g>
</g>
<!-- Node30&#45;&gt;Node37 -->
<g id="edge45" class="edge"><title>Node30&#45;&gt;Node37</title>
<path fill="none" stroke="midnightblue" d="M1885,-194.532C1885,-185.361 1885,-175.245 1885,-167.293"/>
<polygon fill="midnightblue" stroke="midnightblue" points="1881.5,-194.679 1885,-204.679 1888.5,-194.679 1881.5,-194.679"/>
</g>
<!-- Node39 -->
<g id="node39" class="node"><title>Node39</title>
<g id="a_node39"><a xlink:href="$d2/d1b/_c_g_l_scale_8h.xhtml" xlink:title="/home/dagal/git/DamierGL\l/DamierGL/src/CGL/CGLScale.h">
<polygon fill="white" stroke="black" points="2388,-137 2388,-167 2548,-167 2548,-137 2388,-137"/>
<text text-anchor="start" x="2396" y="-155" font-family="Helvetica,sans-Serif" font-size="10.00">/home/dagal/git/DamierGL</text>
<text text-anchor="middle" x="2468" y="-144" font-family="Helvetica,sans-Serif" font-size="10.00">/DamierGL/src/CGL/CGLScale.h</text>
</a>
</g>
</g>
<!-- Node30&#45;&gt;Node39 -->
<g id="edge48" class="edge"><title>Node30&#45;&gt;Node39</title>
<path fill="none" stroke="midnightblue" d="M1983.42,-210.63C2083.08,-201.73 2241.56,-186.41 2378,-168 2381.14,-167.576 2384.34,-167.127 2387.57,-166.66"/>
<polygon fill="midnightblue" stroke="midnightblue" points="1983.01,-207.153 1973.36,-211.525 1983.63,-214.125 1983.01,-207.153"/>
</g>
<!-- Node41 -->
<g id="node41" class="node"><title>Node41</title>
<g id="a_node41"><a xlink:href="$d5/d0d/_c_g_l_vector3_d_8cpp.xhtml" xlink:title="/home/dagal/git/DamierGL\l/DamierGL/src/CGL/CGLVector3D.cpp">
<polygon fill="white" stroke="black" points="2182.5,-137 2182.5,-167 2369.5,-167 2369.5,-137 2182.5,-137"/>
<text text-anchor="start" x="2190.5" y="-155" font-family="Helvetica,sans-Serif" font-size="10.00">/home/dagal/git/DamierGL</text>
<text text-anchor="middle" x="2276" y="-144" font-family="Helvetica,sans-Serif" font-size="10.00">/DamierGL/src/CGL/CGLVector3D.cpp</text>
</a>
</g>
</g>
<!-- Node30&#45;&gt;Node41 -->
<g id="edge51" class="edge"><title>Node30&#45;&gt;Node41</title>
<path fill="none" stroke="midnightblue" d="M1978.27,-203.256C2043.49,-192.247 2129.83,-177.674 2192.73,-167.056"/>
<polygon fill="midnightblue" stroke="midnightblue" points="1977.68,-199.807 1968.4,-204.922 1978.84,-206.709 1977.68,-199.807"/>
</g>
<!-- Node32 -->
<g id="node32" class="node"><title>Node32</title>
<g id="a_node32"><a xlink:href="$da/de7/_c_g_l_color_8h.xhtml" xlink:title="/home/dagal/git/DamierGL\l/DamierGL/src/CGL/CGLColor.h">
<polygon fill="white" stroke="black" points="2321,-69 2321,-99 2479,-99 2479,-69 2321,-69"/>
<text text-anchor="start" x="2329" y="-87" font-family="Helvetica,sans-Serif" font-size="10.00">/home/dagal/git/DamierGL</text>
<text text-anchor="middle" x="2400" y="-76" font-family="Helvetica,sans-Serif" font-size="10.00">/DamierGL/src/CGL/CGLColor.h</text>
</a>
</g>
</g>
<!-- Node31&#45;&gt;Node32 -->
<g id="edge37" class="edge"><title>Node31&#45;&gt;Node32</title>
<path fill="none" stroke="midnightblue" d="M2155.71,-134.916C2209.39,-123.949 2279.78,-109.565 2331.21,-99.0561"/>
<polygon fill="midnightblue" stroke="midnightblue" points="2154.99,-131.491 2145.9,-136.922 2156.39,-138.349 2154.99,-131.491"/>
</g>
<!-- Node34 -->
<g id="node34" class="node"><title>Node34</title>
<g id="a_node34"><a xlink:href="$d1/d00/_c_g_l_vector4_d_8cpp.xhtml" xlink:title="/home/dagal/git/DamierGL\l/DamierGL/src/CGL/CGLVector4D.cpp">
<polygon fill="white" stroke="black" points="2078.5,-69 2078.5,-99 2265.5,-99 2265.5,-69 2078.5,-69"/>
<text text-anchor="start" x="2086.5" y="-87" font-family="Helvetica,sans-Serif" font-size="10.00">/home/dagal/git/DamierGL</text>
<text text-anchor="middle" x="2172" y="-76" font-family="Helvetica,sans-Serif" font-size="10.00">/DamierGL/src/CGL/CGLVector4D.cpp</text>
</a>
</g>
</g>
<!-- Node31&#45;&gt;Node34 -->
<g id="edge40" class="edge"><title>Node31&#45;&gt;Node34</title>
<path fill="none" stroke="midnightblue" d="M2105.95,-130.888C2120.76,-120.6 2138.42,-108.329 2151.75,-99.0663"/>
<polygon fill="midnightblue" stroke="midnightblue" points="2103.83,-128.099 2097.61,-136.679 2107.82,-133.848 2103.83,-128.099"/>
</g>
<!-- Node32&#45;&gt;Node7 -->
<g id="edge39" class="edge"><title>Node32&#45;&gt;Node7</title>
<path fill="none" stroke="midnightblue" d="M2310.87,-68.4322C2309.57,-68.2828 2308.28,-68.1386 2307,-68 1995,-34.2361 1620.58,-22.2251 1465.15,-18.4905"/>
<polygon fill="midnightblue" stroke="midnightblue" points="2310.58,-71.9226 2320.93,-69.6715 2311.43,-64.9751 2310.58,-71.9226"/>
</g>
<!-- Node33 -->
<g id="node33" class="node"><title>Node33</title>
<g id="a_node33"><a xlink:href="$da/d19/_c_g_l_color_8cpp.xhtml" xlink:title="/home/dagal/git/DamierGL\l/DamierGL/src/CGL/CGLColor.cpp">
<polygon fill="white" stroke="black" points="2315.5,-1 2315.5,-31 2484.5,-31 2484.5,-1 2315.5,-1"/>
<text text-anchor="start" x="2323.5" y="-19" font-family="Helvetica,sans-Serif" font-size="10.00">/home/dagal/git/DamierGL</text>
<text text-anchor="middle" x="2400" y="-8" font-family="Helvetica,sans-Serif" font-size="10.00">/DamierGL/src/CGL/CGLColor.cpp</text>
</a>
</g>
</g>
<!-- Node32&#45;&gt;Node33 -->
<g id="edge38" class="edge"><title>Node32&#45;&gt;Node33</title>
<path fill="none" stroke="midnightblue" d="M2400,-58.5322C2400,-49.3606 2400,-39.2449 2400,-31.2931"/>
<polygon fill="midnightblue" stroke="midnightblue" points="2396.5,-58.6789 2400,-68.679 2403.5,-58.679 2396.5,-58.6789"/>
</g>
<!-- Node35&#45;&gt;Node7 -->
<g id="edge44" class="edge"><title>Node35&#45;&gt;Node7</title>
<path fill="none" stroke="midnightblue" d="M1669.48,-130.524C1657.63,-121.292 1643.54,-110.193 1631,-100 1613.87,-86.0721 1612.64,-78.0819 1593,-68 1553.12,-47.5335 1504.49,-34.9116 1465.06,-27.3448"/>
<polygon fill="midnightblue" stroke="midnightblue" points="1667.61,-133.506 1677.65,-136.878 1671.91,-127.979 1667.61,-133.506"/>
</g>
<!-- Node36 -->
<g id="node36" class="node"><title>Node36</title>
<g id="a_node36"><a xlink:href="$db/d18/_c_g_l_position_8cpp.xhtml" xlink:title="/home/dagal/git/DamierGL\l/DamierGL/src/CGL/CGLPosition.cpp">
<polygon fill="white" stroke="black" points="1640.5,-69 1640.5,-99 1821.5,-99 1821.5,-69 1640.5,-69"/>
<text text-anchor="start" x="1648.5" y="-87" font-family="Helvetica,sans-Serif" font-size="10.00">/home/dagal/git/DamierGL</text>
<text text-anchor="middle" x="1731" y="-76" font-family="Helvetica,sans-Serif" font-size="10.00">/DamierGL/src/CGL/CGLPosition.cpp</text>
</a>
</g>
</g>
<!-- Node35&#45;&gt;Node36 -->
<g id="edge43" class="edge"><title>Node35&#45;&gt;Node36</title>
<path fill="none" stroke="midnightblue" d="M1708.34,-127.723C1713.37,-118.244 1719.02,-107.591 1723.42,-99.2931"/>
<polygon fill="midnightblue" stroke="midnightblue" points="1705.19,-126.205 1703.59,-136.679 1711.37,-129.484 1705.19,-126.205"/>
</g>
<!-- Node37&#45;&gt;Node7 -->
<g id="edge47" class="edge"><title>Node37&#45;&gt;Node7</title>
<path fill="none" stroke="midnightblue" d="M1876.01,-127.354C1867.33,-107.987 1852.2,-81.6352 1830,-68 1770.55,-31.4923 1573.76,-21.1174 1465.31,-18.1696"/>
<polygon fill="midnightblue" stroke="midnightblue" points="1872.86,-128.886 1879.97,-136.74 1879.31,-126.166 1872.86,-128.886"/>
</g>
<!-- Node38 -->
<g id="node38" class="node"><title>Node38</title>
<g id="a_node38"><a xlink:href="$db/d63/_c_g_l_rotation_8cpp.xhtml" xlink:title="/home/dagal/git/DamierGL\l/DamierGL/src/CGL/CGLRotation.cpp">
<polygon fill="white" stroke="black" points="1878,-69 1878,-99 2060,-99 2060,-69 1878,-69"/>
<text text-anchor="start" x="1886" y="-87" font-family="Helvetica,sans-Serif" font-size="10.00">/home/dagal/git/DamierGL</text>
<text text-anchor="middle" x="1969" y="-76" font-family="Helvetica,sans-Serif" font-size="10.00">/DamierGL/src/CGL/CGLRotation.cpp</text>
</a>
</g>
</g>
<!-- Node37&#45;&gt;Node38 -->
<g id="edge46" class="edge"><title>Node37&#45;&gt;Node38</title>
<path fill="none" stroke="midnightblue" d="M1911.33,-130.309C1924.27,-120.143 1939.53,-108.156 1951.1,-99.0663"/>
<polygon fill="midnightblue" stroke="midnightblue" points="1908.93,-127.749 1903.23,-136.679 1913.25,-133.253 1908.93,-127.749"/>
</g>
<!-- Node39&#45;&gt;Node7 -->
<g id="edge50" class="edge"><title>Node39&#45;&gt;Node7</title>
<path fill="none" stroke="midnightblue" d="M2397.62,-134.224C2369.94,-126.054 2338.5,-114.752 2312,-100 2292.71,-89.2612 2294.51,-76.1657 2274,-68 2199.85,-38.4854 1663.31,-23.2524 1465.22,-18.5871"/>
<polygon fill="midnightblue" stroke="midnightblue" points="2396.66,-137.591 2407.24,-136.984 2398.59,-130.863 2396.66,-137.591"/>
</g>
<!-- Node40 -->
<g id="node40" class="node"><title>Node40</title>
<g id="a_node40"><a xlink:href="$dc/d61/_c_g_l_scale_8cpp.xhtml" xlink:title="/home/dagal/git/DamierGL\l/DamierGL/src/CGL/CGLScale.cpp">
<polygon fill="white" stroke="black" points="2497,-69 2497,-99 2667,-99 2667,-69 2497,-69"/>
<text text-anchor="start" x="2505" y="-87" font-family="Helvetica,sans-Serif" font-size="10.00">/home/dagal/git/DamierGL</text>
<text text-anchor="middle" x="2582" y="-76" font-family="Helvetica,sans-Serif" font-size="10.00">/DamierGL/src/CGL/CGLScale.cpp</text>
</a>
</g>
</g>
<!-- Node39&#45;&gt;Node40 -->
<g id="edge49" class="edge"><title>Node39&#45;&gt;Node40</title>
<path fill="none" stroke="midnightblue" d="M2501.46,-131.626C2519.44,-121.217 2541.21,-108.613 2557.58,-99.1352"/>
<polygon fill="midnightblue" stroke="midnightblue" points="2499.36,-128.802 2492.46,-136.841 2502.86,-134.86 2499.36,-128.802"/>
</g>
</g>
</svg>
