<?xml version="1.0" encoding="UTF-8" standalone="no"?>
<!DOCTYPE svg PUBLIC "-//W3C//DTD SVG 1.1//EN"
 "http://www.w3.org/Graphics/SVG/1.1/DTD/svg11.dtd">
<!-- Generated by graphviz version 2.36.0 (20140111.2315)
 -->
<!-- Title: /home/dagal/git/DamierGL/DamierGL/src/CGL/CGLObject.h Pages: 1 -->
<svg width="3410pt" height="516pt"
 viewBox="0.00 0.00 3410.00 516.00" xmlns="http://www.w3.org/2000/svg" xmlns:xlink="http://www.w3.org/1999/xlink">
<g id="graph0" class="graph" transform="scale(1 1) rotate(0) translate(4 512)">
<title>/home/dagal/git/DamierGL/DamierGL/src/CGL/CGLObject.h</title>
<polygon fill="white" stroke="none" points="-4,4 -4,-512 3406,-512 3406,4 -4,4"/>
<!-- Node1 -->
<g id="node1" class="node"><title>Node1</title>
<polygon fill="#bfbfbf" stroke="black" points="2025,-477 2025,-507 2189,-507 2189,-477 2025,-477"/>
<text text-anchor="start" x="2033" y="-495" font-family="Helvetica,sans-Serif" font-size="10.00">/home/dagal/git/DamierGL</text>
<text text-anchor="middle" x="2107" y="-484" font-family="Helvetica,sans-Serif" font-size="10.00">/DamierGL/src/CGL/CGLObject.h</text>
</g>
<!-- Node2 -->
<g id="node2" class="node"><title>Node2</title>
<g id="a_node2"><a xlink:href="$d2/d5a/_c_g_l_item_8h.xhtml" xlink:title="/home/dagal/git/DamierGL\l/DamierGL/src/CGL/CGLItem.h">
<polygon fill="white" stroke="black" points="1067.5,-205 1067.5,-235 1222.5,-235 1222.5,-205 1067.5,-205"/>
<text text-anchor="start" x="1075.5" y="-223" font-family="Helvetica,sans-Serif" font-size="10.00">/home/dagal/git/DamierGL</text>
<text text-anchor="middle" x="1145" y="-212" font-family="Helvetica,sans-Serif" font-size="10.00">/DamierGL/src/CGL/CGLItem.h</text>
</a>
</g>
</g>
<!-- Node1&#45;&gt;Node2 -->
<g id="edge1" class="edge"><title>Node1&#45;&gt;Node2</title>
<path fill="none" stroke="midnightblue" d="M2019.66,-475.084C1968.37,-465.485 1902.37,-452.691 1844,-440 1718.02,-412.61 1685.47,-409.116 1562,-372 1417.85,-328.665 1250.67,-263.455 1179.71,-235.053"/>
<polygon fill="midnightblue" stroke="midnightblue" points="2019.24,-478.566 2029.71,-476.96 2020.52,-471.685 2019.24,-478.566"/>
</g>
<!-- Node22 -->
<g id="node22" class="node"><title>Node22</title>
<g id="a_node22"><a xlink:href="$dc/db8/_c_g_l_special_8h.xhtml" xlink:title="/home/dagal/git/DamierGL\l/DamierGL/src/CGL/CGLSpecial.h">
<polygon fill="white" stroke="black" points="1853.5,-409 1853.5,-439 2020.5,-439 2020.5,-409 1853.5,-409"/>
<text text-anchor="start" x="1861.5" y="-427" font-family="Helvetica,sans-Serif" font-size="10.00">/home/dagal/git/DamierGL</text>
<text text-anchor="middle" x="1937" y="-416" font-family="Helvetica,sans-Serif" font-size="10.00">/DamierGL/src/CGL/CGLSpecial.h</text>
</a>
</g>
</g>
<!-- Node1&#45;&gt;Node22 -->
<g id="edge27" class="edge"><title>Node1&#45;&gt;Node22</title>
<path fill="none" stroke="midnightblue" d="M2061.08,-473.171C2033.45,-462.445 1998.78,-448.985 1973.12,-439.022"/>
<polygon fill="midnightblue" stroke="midnightblue" points="2059.94,-476.485 2070.53,-476.841 2062.48,-469.959 2059.94,-476.485"/>
</g>
<!-- Node35 -->
<g id="node35" class="node"><title>Node35</title>
<g id="a_node35"><a xlink:href="$d7/d27/_c_g_l_effect_8h.xhtml" xlink:title="/home/dagal/git/DamierGL\l/DamierGL/src/CGL/CGLEffect.h">
<polygon fill="white" stroke="black" points="2647.5,-205 2647.5,-235 2808.5,-235 2808.5,-205 2647.5,-205"/>
<text text-anchor="start" x="2655.5" y="-223" font-family="Helvetica,sans-Serif" font-size="10.00">/home/dagal/git/DamierGL</text>
<text text-anchor="middle" x="2728" y="-212" font-family="Helvetica,sans-Serif" font-size="10.00">/DamierGL/src/CGL/CGLEffect.h</text>
</a>
</g>
</g>
<!-- Node1&#45;&gt;Node35 -->
<g id="edge43" class="edge"><title>Node1&#45;&gt;Node35</title>
<path fill="none" stroke="midnightblue" d="M2128.74,-470.107C2148.79,-451.748 2180.04,-425.333 2211,-408 2367.58,-320.351 2573,-260.586 2671.09,-235.02"/>
<polygon fill="midnightblue" stroke="midnightblue" points="2126.32,-467.579 2121.38,-476.951 2131.09,-472.706 2126.32,-467.579"/>
</g>
<!-- Node47 -->
<g id="node47" class="node"><title>Node47</title>
<g id="a_node47"><a xlink:href="$da/d25/_c_g_l_object_8cpp.xhtml" xlink:title="/home/dagal/git/DamierGL\l/DamierGL/src/CGL/CGLObject.cpp">
<polygon fill="white" stroke="black" points="2220,-409 2220,-439 2394,-439 2394,-409 2220,-409"/>
<text text-anchor="start" x="2228" y="-427" font-family="Helvetica,sans-Serif" font-size="10.00">/home/dagal/git/DamierGL</text>
<text text-anchor="middle" x="2307" y="-416" font-family="Helvetica,sans-Serif" font-size="10.00">/DamierGL/src/CGL/CGLObject.cpp</text>
</a>
</g>
</g>
<!-- Node1&#45;&gt;Node47 -->
<g id="edge59" class="edge"><title>Node1&#45;&gt;Node47</title>
<path fill="none" stroke="midnightblue" d="M2159.75,-473.592C2192.46,-462.798 2233.92,-449.116 2264.51,-439.022"/>
<polygon fill="midnightblue" stroke="midnightblue" points="2158.3,-470.384 2149.91,-476.841 2160.5,-477.031 2158.3,-470.384"/>
</g>
<!-- Node3 -->
<g id="node3" class="node"><title>Node3</title>
<g id="a_node3"><a xlink:href="$db/d17/_c_g_l_boite_8h.xhtml" xlink:title="/home/dagal/git/DamierGL\l/DamierGL/src/CGL/CGLBoite.h">
<polygon fill="white" stroke="black" points="383,-137 383,-167 541,-167 541,-137 383,-137"/>
<text text-anchor="start" x="391" y="-155" font-family="Helvetica,sans-Serif" font-size="10.00">/home/dagal/git/DamierGL</text>
<text text-anchor="middle" x="462" y="-144" font-family="Helvetica,sans-Serif" font-size="10.00">/DamierGL/src/CGL/CGLBoite.h</text>
</a>
</g>
</g>
<!-- Node2&#45;&gt;Node3 -->
<g id="edge2" class="edge"><title>Node2&#45;&gt;Node3</title>
<path fill="none" stroke="midnightblue" d="M1057.15,-211.311C948.876,-201.722 759.301,-184.568 597,-168 578.936,-166.156 559.525,-164.064 541.212,-162.041"/>
<polygon fill="midnightblue" stroke="midnightblue" points="1057.1,-214.82 1067.37,-212.215 1057.71,-207.847 1057.1,-214.82"/>
</g>
<!-- Node9 -->
<g id="node9" class="node"><title>Node9</title>
<g id="a_node9"><a xlink:href="$d7/d91/_c_g_l_circle_8h.xhtml" xlink:title="/home/dagal/git/DamierGL\l/DamierGL/src/CGL/CGLCircle.h">
<polygon fill="white" stroke="black" points="1064.5,-137 1064.5,-167 1225.5,-167 1225.5,-137 1064.5,-137"/>
<text text-anchor="start" x="1072.5" y="-155" font-family="Helvetica,sans-Serif" font-size="10.00">/home/dagal/git/DamierGL</text>
<text text-anchor="middle" x="1145" y="-144" font-family="Helvetica,sans-Serif" font-size="10.00">/DamierGL/src/CGL/CGLCircle.h</text>
</a>
</g>
</g>
<!-- Node2&#45;&gt;Node9 -->
<g id="edge8" class="edge"><title>Node2&#45;&gt;Node9</title>
<path fill="none" stroke="midnightblue" d="M1145,-194.532C1145,-185.361 1145,-175.245 1145,-167.293"/>
<polygon fill="midnightblue" stroke="midnightblue" points="1141.5,-194.679 1145,-204.679 1148.5,-194.679 1141.5,-194.679"/>
</g>
<!-- Node11 -->
<g id="node11" class="node"><title>Node11</title>
<g id="a_node11"><a xlink:href="$d5/d21/_c_g_l_dot_8h.xhtml" xlink:title="/home/dagal/git/DamierGL\l/DamierGL/src/CGL/CGLDot.h">
<polygon fill="white" stroke="black" points="680.5,-137 680.5,-167 831.5,-167 831.5,-137 680.5,-137"/>
<text text-anchor="start" x="688.5" y="-155" font-family="Helvetica,sans-Serif" font-size="10.00">/home/dagal/git/DamierGL</text>
<text text-anchor="middle" x="756" y="-144" font-family="Helvetica,sans-Serif" font-size="10.00">/DamierGL/src/CGL/CGLDot.h</text>
</a>
</g>
</g>
<!-- Node2&#45;&gt;Node11 -->
<g id="edge11" class="edge"><title>Node2&#45;&gt;Node11</title>
<path fill="none" stroke="midnightblue" d="M1056.97,-204.064C989.094,-192.548 896.22,-176.79 831.665,-165.838"/>
<polygon fill="midnightblue" stroke="midnightblue" points="1056.77,-207.58 1067.21,-205.803 1057.94,-200.679 1056.77,-207.58"/>
</g>
<!-- Node13 -->
<g id="node13" class="node"><title>Node13</title>
<g id="a_node13"><a xlink:href="$da/dcb/_c_g_l_item_8cpp.xhtml" xlink:title="/home/dagal/git/DamierGL\l/DamierGL/src/CGL/CGLItem.cpp">
<polygon fill="white" stroke="black" points="199.5,-137 199.5,-167 364.5,-167 364.5,-137 199.5,-137"/>
<text text-anchor="start" x="207.5" y="-155" font-family="Helvetica,sans-Serif" font-size="10.00">/home/dagal/git/DamierGL</text>
<text text-anchor="middle" x="282" y="-144" font-family="Helvetica,sans-Serif" font-size="10.00">/DamierGL/src/CGL/CGLItem.cpp</text>
</a>
</g>
</g>
<!-- Node2&#45;&gt;Node13 -->
<g id="edge14" class="edge"><title>Node2&#45;&gt;Node13</title>
<path fill="none" stroke="midnightblue" d="M1057.3,-215.929C913.98,-210.298 620.806,-196.218 374,-168 370.945,-167.651 367.837,-167.271 364.7,-166.866"/>
<polygon fill="midnightblue" stroke="midnightblue" points="1057.23,-219.429 1067.35,-216.32 1057.5,-212.434 1057.23,-219.429"/>
</g>
<!-- Node14 -->
<g id="node14" class="node"><title>Node14</title>
<g id="a_node14"><a xlink:href="$df/d4a/_c_g_l_line_8h.xhtml" xlink:title="/home/dagal/git/DamierGL\l/DamierGL/src/CGL/CGLLine.h">
<polygon fill="white" stroke="black" points="893.5,-137 893.5,-167 1046.5,-167 1046.5,-137 893.5,-137"/>
<text text-anchor="start" x="901.5" y="-155" font-family="Helvetica,sans-Serif" font-size="10.00">/home/dagal/git/DamierGL</text>
<text text-anchor="middle" x="970" y="-144" font-family="Helvetica,sans-Serif" font-size="10.00">/DamierGL/src/CGL/CGLLine.h</text>
</a>
</g>
</g>
<!-- Node2&#45;&gt;Node14 -->
<g id="edge15" class="edge"><title>Node2&#45;&gt;Node14</title>
<path fill="none" stroke="midnightblue" d="M1098.1,-201.312C1069.6,-190.563 1033.71,-177.029 1007.18,-167.022"/>
<polygon fill="midnightblue" stroke="midnightblue" points="1096.87,-204.587 1107.46,-204.841 1099.34,-198.038 1096.87,-204.587"/>
</g>
<!-- Node16 -->
<g id="node16" class="node"><title>Node16</title>
<g id="a_node16"><a xlink:href="$d3/dbc/_c_g_l_polygon_8h.xhtml" xlink:title="/home/dagal/git/DamierGL\l/DamierGL/src/CGL/CGLPolygon.h">
<polygon fill="white" stroke="black" points="1244,-137 1244,-167 1414,-167 1414,-137 1244,-137"/>
<text text-anchor="start" x="1252" y="-155" font-family="Helvetica,sans-Serif" font-size="10.00">/home/dagal/git/DamierGL</text>
<text text-anchor="middle" x="1329" y="-144" font-family="Helvetica,sans-Serif" font-size="10.00">/DamierGL/src/CGL/CGLPolygon.h</text>
</a>
</g>
</g>
<!-- Node2&#45;&gt;Node16 -->
<g id="edge18" class="edge"><title>Node2&#45;&gt;Node16</title>
<path fill="none" stroke="midnightblue" d="M1193.92,-201.452C1223.95,-190.68 1261.89,-177.072 1289.91,-167.022"/>
<polygon fill="midnightblue" stroke="midnightblue" points="1192.7,-198.17 1184.47,-204.841 1195.07,-204.759 1192.7,-198.17"/>
</g>
<!-- Node18 -->
<g id="node18" class="node"><title>Node18</title>
<g id="a_node18"><a xlink:href="$d2/d91/_c_g_l_quad_8h.xhtml" xlink:title="/home/dagal/git/DamierGL\l/DamierGL/src/CGL/CGLQuad.h">
<polygon fill="white" stroke="black" points="1475,-137 1475,-167 1633,-167 1633,-137 1475,-137"/>
<text text-anchor="start" x="1483" y="-155" font-family="Helvetica,sans-Serif" font-size="10.00">/home/dagal/git/DamierGL</text>
<text text-anchor="middle" x="1554" y="-144" font-family="Helvetica,sans-Serif" font-size="10.00">/DamierGL/src/CGL/CGLQuad.h</text>
</a>
</g>
</g>
<!-- Node2&#45;&gt;Node18 -->
<g id="edge21" class="edge"><title>Node2&#45;&gt;Node18</title>
<path fill="none" stroke="midnightblue" d="M1232.83,-204.828C1304.63,-193.241 1405.26,-177.002 1474.65,-165.804"/>
<polygon fill="midnightblue" stroke="midnightblue" points="1232.21,-201.382 1222.89,-206.431 1233.32,-208.293 1232.21,-201.382"/>
</g>
<!-- Node20 -->
<g id="node20" class="node"><title>Node20</title>
<g id="a_node20"><a xlink:href="$d8/d51/_c_g_l_triangle_8h.xhtml" xlink:title="/home/dagal/git/DamierGL\l/DamierGL/src/CGL/CGLTriangle.h">
<polygon fill="white" stroke="black" points="1699,-137 1699,-167 1869,-167 1869,-137 1699,-137"/>
<text text-anchor="start" x="1707" y="-155" font-family="Helvetica,sans-Serif" font-size="10.00">/home/dagal/git/DamierGL</text>
<text text-anchor="middle" x="1784" y="-144" font-family="Helvetica,sans-Serif" font-size="10.00">/DamierGL/src/CGL/CGLTriangle.h</text>
</a>
</g>
</g>
<!-- Node2&#45;&gt;Node20 -->
<g id="edge24" class="edge"><title>Node2&#45;&gt;Node20</title>
<path fill="none" stroke="midnightblue" d="M1232.73,-210.035C1331.85,-199.891 1498.03,-182.849 1641,-168 1659.75,-166.053 1679.87,-163.95 1698.94,-161.952"/>
<polygon fill="midnightblue" stroke="midnightblue" points="1232.34,-206.555 1222.75,-211.055 1233.06,-213.519 1232.34,-206.555"/>
</g>
<!-- Node4 -->
<g id="node4" class="node"><title>Node4</title>
<g id="a_node4"><a xlink:href="$da/d3e/_c_g_l_boite_8cpp.xhtml" xlink:title="/home/dagal/git/DamierGL\l/DamierGL/src/CGL/CGLBoite.cpp">
<polygon fill="white" stroke="black" points="189,-69 189,-99 357,-99 357,-69 189,-69"/>
<text text-anchor="start" x="197" y="-87" font-family="Helvetica,sans-Serif" font-size="10.00">/home/dagal/git/DamierGL</text>
<text text-anchor="middle" x="273" y="-76" font-family="Helvetica,sans-Serif" font-size="10.00">/DamierGL/src/CGL/CGLBoite.cpp</text>
</a>
</g>
</g>
<!-- Node3&#45;&gt;Node4 -->
<g id="edge3" class="edge"><title>Node3&#45;&gt;Node4</title>
<path fill="none" stroke="midnightblue" d="M411.749,-133.452C380.903,-122.68 341.934,-109.072 313.153,-99.0218"/>
<polygon fill="midnightblue" stroke="midnightblue" points="410.86,-136.849 421.455,-136.841 413.168,-130.24 410.86,-136.849"/>
</g>
<!-- Node5 -->
<g id="node5" class="node"><title>Node5</title>
<g id="a_node5"><a xlink:href="$d7/df3/_c_g_l_robot1_8h.xhtml" xlink:title="/home/dagal/git/DamierGL\l/DamierGL/src/CGL/CGLRobot1.h">
<polygon fill="white" stroke="black" points="4.5,-69 4.5,-99 171.5,-99 171.5,-69 4.5,-69"/>
<text text-anchor="start" x="12.5" y="-87" font-family="Helvetica,sans-Serif" font-size="10.00">/home/dagal/git/DamierGL</text>
<text text-anchor="middle" x="88" y="-76" font-family="Helvetica,sans-Serif" font-size="10.00">/DamierGL/src/CGL/CGLRobot1.h</text>
</a>
</g>
</g>
<!-- Node3&#45;&gt;Node5 -->
<g id="edge4" class="edge"><title>Node3&#45;&gt;Node5</title>
<path fill="none" stroke="midnightblue" d="M372.459,-135.199C310.07,-124.189 227.595,-109.634 167.523,-99.0335"/>
<polygon fill="midnightblue" stroke="midnightblue" points="372.228,-138.712 382.684,-137.003 373.445,-131.818 372.228,-138.712"/>
</g>
<!-- Node8 -->
<g id="node8" class="node"><title>Node8</title>
<g id="a_node8"><a xlink:href="$d0/d58/_c_g_l_scene_8cpp.xhtml" xlink:title="/home/dagal/git/DamierGL\l/DamierGL/src/CGL/CGLScene.cpp">
<polygon fill="white" stroke="black" points="375.5,-69 375.5,-99 548.5,-99 548.5,-69 375.5,-69"/>
<text text-anchor="start" x="383.5" y="-87" font-family="Helvetica,sans-Serif" font-size="10.00">/home/dagal/git/DamierGL</text>
<text text-anchor="middle" x="462" y="-76" font-family="Helvetica,sans-Serif" font-size="10.00">/DamierGL/src/CGL/CGLScene.cpp</text>
</a>
</g>
</g>
<!-- Node3&#45;&gt;Node8 -->
<g id="edge7" class="edge"><title>Node3&#45;&gt;Node8</title>
<path fill="none" stroke="midnightblue" d="M462,-126.532C462,-117.361 462,-107.245 462,-99.2931"/>
<polygon fill="midnightblue" stroke="midnightblue" points="458.5,-126.679 462,-136.679 465.5,-126.679 458.5,-126.679"/>
</g>
<!-- Node6 -->
<g id="node6" class="node"><title>Node6</title>
<g id="a_node6"><a xlink:href="$dc/d01/_c_g_l_robot1_8cpp.xhtml" xlink:title="/home/dagal/git/DamierGL\l/DamierGL/src/CGL/CGLRobot1.cpp">
<polygon fill="white" stroke="black" points="-0.5,-1 -0.5,-31 176.5,-31 176.5,-1 -0.5,-1"/>
<text text-anchor="start" x="7.5" y="-19" font-family="Helvetica,sans-Serif" font-size="10.00">/home/dagal/git/DamierGL</text>
<text text-anchor="middle" x="88" y="-8" font-family="Helvetica,sans-Serif" font-size="10.00">/DamierGL/src/CGL/CGLRobot1.cpp</text>
</a>
</g>
</g>
<!-- Node5&#45;&gt;Node6 -->
<g id="edge5" class="edge"><title>Node5&#45;&gt;Node6</title>
<path fill="none" stroke="midnightblue" d="M88,-58.5322C88,-49.3606 88,-39.2449 88,-31.2931"/>
<polygon fill="midnightblue" stroke="midnightblue" points="84.5001,-58.6789 88,-68.679 91.5001,-58.679 84.5001,-58.6789"/>
</g>
<!-- Node7 -->
<g id="node7" class="node"><title>Node7</title>
<g id="a_node7"><a xlink:href="$db/dec/_damier_g_l_8cpp.xhtml" xlink:title="/home/dagal/git/DamierGL\l/DamierGL/src/DamierGL.cpp">
<polygon fill="white" stroke="black" points="1711,-1 1711,-31 1857,-31 1857,-1 1711,-1"/>
<text text-anchor="start" x="1719" y="-19" font-family="Helvetica,sans-Serif" font-size="10.00">/home/dagal/git/DamierGL</text>
<text text-anchor="middle" x="1784" y="-8" font-family="Helvetica,sans-Serif" font-size="10.00">/DamierGL/src/DamierGL.cpp</text>
</a>
</g>
</g>
<!-- Node5&#45;&gt;Node7 -->
<g id="edge6" class="edge"><title>Node5&#45;&gt;Node7</title>
<path fill="none" stroke="midnightblue" d="M180.976,-68.024C503.579,-38.2437 1441.27,-22.1736 1710.8,-18.0634"/>
<polygon fill="midnightblue" stroke="midnightblue" points="180.311,-64.5712 170.686,-68.999 180.971,-71.54 180.311,-64.5712"/>
</g>
<!-- Node9&#45;&gt;Node7 -->
<g id="edge10" class="edge"><title>Node9&#45;&gt;Node7</title>
<path fill="none" stroke="midnightblue" d="M1162.61,-128.957C1180.8,-106.84 1208.5,-75.0681 1223,-68 1307.12,-26.9969 1578.98,-18.7972 1710.88,-17.2703"/>
<polygon fill="midnightblue" stroke="midnightblue" points="1159.76,-126.923 1156.16,-136.888 1165.19,-131.342 1159.76,-126.923"/>
</g>
<!-- Node10 -->
<g id="node10" class="node"><title>Node10</title>
<g id="a_node10"><a xlink:href="$dc/d7e/_c_g_l_circle_8cpp.xhtml" xlink:title="/home/dagal/git/DamierGL\l/DamierGL/src/CGL/CGLCircle.cpp">
<polygon fill="white" stroke="black" points="1004.5,-69 1004.5,-99 1175.5,-99 1175.5,-69 1004.5,-69"/>
<text text-anchor="start" x="1012.5" y="-87" font-family="Helvetica,sans-Serif" font-size="10.00">/home/dagal/git/DamierGL</text>
<text text-anchor="middle" x="1090" y="-76" font-family="Helvetica,sans-Serif" font-size="10.00">/DamierGL/src/CGL/CGLCircle.cpp</text>
</a>
</g>
</g>
<!-- Node9&#45;&gt;Node10 -->
<g id="edge9" class="edge"><title>Node9&#45;&gt;Node10</title>
<path fill="none" stroke="midnightblue" d="M1126.58,-128.901C1118.45,-119.136 1109.11,-107.936 1101.91,-99.2931"/>
<polygon fill="midnightblue" stroke="midnightblue" points="1123.98,-131.237 1133.07,-136.679 1129.35,-126.756 1123.98,-131.237"/>
</g>
<!-- Node11&#45;&gt;Node7 -->
<g id="edge13" class="edge"><title>Node11&#45;&gt;Node7</title>
<path fill="none" stroke="midnightblue" d="M754.341,-126.908C754.476,-107.832 758.167,-82.1249 775,-68 810.753,-37.9998 1484.73,-22.6279 1710.79,-18.3002"/>
<polygon fill="midnightblue" stroke="midnightblue" points="750.844,-127.059 754.585,-136.971 757.842,-126.889 750.844,-127.059"/>
</g>
<!-- Node12 -->
<g id="node12" class="node"><title>Node12</title>
<g id="a_node12"><a xlink:href="$d2/d5a/_c_g_l_dot_8cpp.xhtml" xlink:title="/home/dagal/git/DamierGL\l/DamierGL/src/CGL/CGLDot.cpp">
<polygon fill="white" stroke="black" points="566.5,-69 566.5,-99 727.5,-99 727.5,-69 566.5,-69"/>
<text text-anchor="start" x="574.5" y="-87" font-family="Helvetica,sans-Serif" font-size="10.00">/home/dagal/git/DamierGL</text>
<text text-anchor="middle" x="647" y="-76" font-family="Helvetica,sans-Serif" font-size="10.00">/DamierGL/src/CGL/CGLDot.cpp</text>
</a>
</g>
</g>
<!-- Node11&#45;&gt;Node12 -->
<g id="edge12" class="edge"><title>Node11&#45;&gt;Node12</title>
<path fill="none" stroke="midnightblue" d="M724.004,-131.626C706.812,-121.217 685.997,-108.613 670.345,-99.1352"/>
<polygon fill="midnightblue" stroke="midnightblue" points="722.25,-134.656 732.617,-136.841 725.876,-128.668 722.25,-134.656"/>
</g>
<!-- Node14&#45;&gt;Node7 -->
<g id="edge17" class="edge"><title>Node14&#45;&gt;Node7</title>
<path fill="none" stroke="midnightblue" d="M970.261,-126.798C971.881,-107.657 977.484,-81.9165 995,-68 1050.25,-24.1046 1525.78,-17.8212 1710.79,-17.0481"/>
<polygon fill="midnightblue" stroke="midnightblue" points="966.76,-126.725 969.715,-136.9 973.75,-127.104 966.76,-126.725"/>
</g>
<!-- Node15 -->
<g id="node15" class="node"><title>Node15</title>
<g id="a_node15"><a xlink:href="$df/de2/_c_g_l_line_8cpp.xhtml" xlink:title="/home/dagal/git/DamierGL\l/DamierGL/src/CGL/CGLLine.cpp">
<polygon fill="white" stroke="black" points="784,-69 784,-99 948,-99 948,-69 784,-69"/>
<text text-anchor="start" x="792" y="-87" font-family="Helvetica,sans-Serif" font-size="10.00">/home/dagal/git/DamierGL</text>
<text text-anchor="middle" x="866" y="-76" font-family="Helvetica,sans-Serif" font-size="10.00">/DamierGL/src/CGL/CGLLine.cpp</text>
</a>
</g>
</g>
<!-- Node14&#45;&gt;Node15 -->
<g id="edge16" class="edge"><title>Node14&#45;&gt;Node15</title>
<path fill="none" stroke="midnightblue" d="M939.019,-131.339C922.705,-120.986 903.071,-108.526 888.274,-99.1352"/>
<polygon fill="midnightblue" stroke="midnightblue" points="937.371,-134.438 947.689,-136.841 941.121,-128.528 937.371,-134.438"/>
</g>
<!-- Node16&#45;&gt;Node7 -->
<g id="edge20" class="edge"><title>Node16&#45;&gt;Node7</title>
<path fill="none" stroke="midnightblue" d="M1367.54,-132.063C1384.68,-123.09 1404.83,-111.768 1422,-100 1440.21,-87.5193 1439.91,-77.1644 1460,-68 1540.69,-31.1891 1643.12,-20.292 1710.98,-17.4024"/>
<polygon fill="midnightblue" stroke="midnightblue" points="1365.65,-129.101 1358.36,-136.795 1368.86,-135.322 1365.65,-129.101"/>
</g>
<!-- Node17 -->
<g id="node17" class="node"><title>Node17</title>
<g id="a_node17"><a xlink:href="$d4/d36/_c_g_l_polygon_8cpp.xhtml" xlink:title="/home/dagal/git/DamierGL\l/DamierGL/src/CGL/CGLPolygon.cpp">
<polygon fill="white" stroke="black" points="1232.5,-69 1232.5,-99 1413.5,-99 1413.5,-69 1232.5,-69"/>
<text text-anchor="start" x="1240.5" y="-87" font-family="Helvetica,sans-Serif" font-size="10.00">/home/dagal/git/DamierGL</text>
<text text-anchor="middle" x="1323" y="-76" font-family="Helvetica,sans-Serif" font-size="10.00">/DamierGL/src/CGL/CGLPolygon.cpp</text>
</a>
</g>
</g>
<!-- Node16&#45;&gt;Node17 -->
<g id="edge19" class="edge"><title>Node16&#45;&gt;Node17</title>
<path fill="none" stroke="midnightblue" d="M1326.78,-126.532C1325.94,-117.361 1325.02,-107.245 1324.3,-99.2931"/>
<polygon fill="midnightblue" stroke="midnightblue" points="1323.31,-127.037 1327.7,-136.679 1330.28,-126.403 1323.31,-127.037"/>
</g>
<!-- Node18&#45;&gt;Node7 -->
<g id="edge23" class="edge"><title>Node18&#45;&gt;Node7</title>
<path fill="none" stroke="midnightblue" d="M1592.54,-132.063C1609.68,-123.09 1629.83,-111.768 1647,-100 1665.21,-87.5193 1666.63,-80.2437 1685,-68 1706.4,-53.7407 1732.28,-40.5322 1752.22,-31.1313"/>
<polygon fill="midnightblue" stroke="midnightblue" points="1590.65,-129.101 1583.36,-136.795 1593.86,-135.322 1590.65,-129.101"/>
</g>
<!-- Node19 -->
<g id="node19" class="node"><title>Node19</title>
<g id="a_node19"><a xlink:href="$d4/d6e/_c_g_l_quad_8cpp.xhtml" xlink:title="/home/dagal/git/DamierGL\l/DamierGL/src/CGL/CGLQuad.cpp">
<polygon fill="white" stroke="black" points="1469.5,-69 1469.5,-99 1638.5,-99 1638.5,-69 1469.5,-69"/>
<text text-anchor="start" x="1477.5" y="-87" font-family="Helvetica,sans-Serif" font-size="10.00">/home/dagal/git/DamierGL</text>
<text text-anchor="middle" x="1554" y="-76" font-family="Helvetica,sans-Serif" font-size="10.00">/DamierGL/src/CGL/CGLQuad.cpp</text>
</a>
</g>
</g>
<!-- Node18&#45;&gt;Node19 -->
<g id="edge22" class="edge"><title>Node18&#45;&gt;Node19</title>
<path fill="none" stroke="midnightblue" d="M1554,-126.532C1554,-117.361 1554,-107.245 1554,-99.2931"/>
<polygon fill="midnightblue" stroke="midnightblue" points="1550.5,-126.679 1554,-136.679 1557.5,-126.679 1550.5,-126.679"/>
</g>
<!-- Node20&#45;&gt;Node7 -->
<g id="edge26" class="edge"><title>Node20&#45;&gt;Node7</title>
<path fill="none" stroke="midnightblue" d="M1844.83,-132.54C1859.88,-124.94 1874.21,-114.422 1883,-100 1890.4,-87.857 1890.4,-80.143 1883,-68 1872.38,-50.5846 1853.7,-38.8618 1835.41,-31.0973"/>
<polygon fill="midnightblue" stroke="midnightblue" points="1843.01,-129.525 1835.41,-136.903 1845.95,-135.877 1843.01,-129.525"/>
</g>
<!-- Node21 -->
<g id="node21" class="node"><title>Node21</title>
<g id="a_node21"><a xlink:href="$d7/da9/_c_g_l_triangle_8cpp.xhtml" xlink:title="/home/dagal/git/DamierGL\l/DamierGL/src/CGL/CGLTriangle.cpp">
<polygon fill="white" stroke="black" points="1694,-69 1694,-99 1874,-99 1874,-69 1694,-69"/>
<text text-anchor="start" x="1702" y="-87" font-family="Helvetica,sans-Serif" font-size="10.00">/home/dagal/git/DamierGL</text>
<text text-anchor="middle" x="1784" y="-76" font-family="Helvetica,sans-Serif" font-size="10.00">/DamierGL/src/CGL/CGLTriangle.cpp</text>
</a>
</g>
</g>
<!-- Node20&#45;&gt;Node21 -->
<g id="edge25" class="edge"><title>Node20&#45;&gt;Node21</title>
<path fill="none" stroke="midnightblue" d="M1784,-126.532C1784,-117.361 1784,-107.245 1784,-99.2931"/>
<polygon fill="midnightblue" stroke="midnightblue" points="1780.5,-126.679 1784,-136.679 1787.5,-126.679 1780.5,-126.679"/>
</g>
<!-- Node23 -->
<g id="node23" class="node"><title>Node23</title>
<g id="a_node23"><a xlink:href="$df/d5b/_c_g_l_camera_8h.xhtml" xlink:title="/home/dagal/git/DamierGL\l/DamierGL/src/CGL/CGLCamera.h">
<polygon fill="white" stroke="black" points="1767,-341 1767,-371 1937,-371 1937,-341 1767,-341"/>
<text text-anchor="start" x="1775" y="-359" font-family="Helvetica,sans-Serif" font-size="10.00">/home/dagal/git/DamierGL</text>
<text text-anchor="middle" x="1852" y="-348" font-family="Helvetica,sans-Serif" font-size="10.00">/DamierGL/src/CGL/CGLCamera.h</text>
</a>
</g>
</g>
<!-- Node22&#45;&gt;Node23 -->
<g id="edge28" class="edge"><title>Node22&#45;&gt;Node23</title>
<path fill="none" stroke="midnightblue" d="M1910.35,-402.309C1897.26,-392.143 1881.82,-380.156 1870.12,-371.066"/>
<polygon fill="midnightblue" stroke="midnightblue" points="1908.51,-405.31 1918.56,-408.679 1912.8,-399.781 1908.51,-405.31"/>
</g>
<!-- Node32 -->
<g id="node32" class="node"><title>Node32</title>
<g id="a_node32"><a xlink:href="$da/d23/_c_g_l_light_8h.xhtml" xlink:title="/home/dagal/git/DamierGL\l/DamierGL/src/CGL/CGLLight.h">
<polygon fill="white" stroke="black" points="1955,-341 1955,-371 2111,-371 2111,-341 1955,-341"/>
<text text-anchor="start" x="1963" y="-359" font-family="Helvetica,sans-Serif" font-size="10.00">/home/dagal/git/DamierGL</text>
<text text-anchor="middle" x="2033" y="-348" font-family="Helvetica,sans-Serif" font-size="10.00">/DamierGL/src/CGL/CGLLight.h</text>
</a>
</g>
</g>
<!-- Node22&#45;&gt;Node32 -->
<g id="edge39" class="edge"><title>Node22&#45;&gt;Node32</title>
<path fill="none" stroke="midnightblue" d="M1966.25,-402.888C1981.22,-392.6 1999.07,-380.329 2012.54,-371.066"/>
<polygon fill="midnightblue" stroke="midnightblue" points="1964.09,-400.129 1957.83,-408.679 1968.05,-405.898 1964.09,-400.129"/>
</g>
<!-- Node34 -->
<g id="node34" class="node"><title>Node34</title>
<g id="a_node34"><a xlink:href="$d7/dcc/_c_g_l_special_8cpp.xhtml" xlink:title="/home/dagal/git/DamierGL\l/DamierGL/src/CGL/CGLSpecial.cpp">
<polygon fill="white" stroke="black" points="1571,-341 1571,-371 1749,-371 1749,-341 1571,-341"/>
<text text-anchor="start" x="1579" y="-359" font-family="Helvetica,sans-Serif" font-size="10.00">/home/dagal/git/DamierGL</text>
<text text-anchor="middle" x="1660" y="-348" font-family="Helvetica,sans-Serif" font-size="10.00">/DamierGL/src/CGL/CGLSpecial.cpp</text>
</a>
</g>
</g>
<!-- Node22&#45;&gt;Node34 -->
<g id="edge42" class="edge"><title>Node22&#45;&gt;Node34</title>
<path fill="none" stroke="midnightblue" d="M1868.06,-406.574C1822.22,-395.651 1762.64,-381.456 1718.99,-371.056"/>
<polygon fill="midnightblue" stroke="midnightblue" points="1867.38,-410.009 1877.92,-408.922 1869,-403.2 1867.38,-410.009"/>
</g>
<!-- Node24 -->
<g id="node24" class="node"><title>Node24</title>
<g id="a_node24"><a xlink:href="$dd/d43/_c_g_l_camera_8cpp.xhtml" xlink:title="/home/dagal/git/DamierGL\l/DamierGL/src/CGL/CGLCamera.cpp">
<polygon fill="white" stroke="black" points="1762,-273 1762,-303 1942,-303 1942,-273 1762,-273"/>
<text text-anchor="start" x="1770" y="-291" font-family="Helvetica,sans-Serif" font-size="10.00">/home/dagal/git/DamierGL</text>
<text text-anchor="middle" x="1852" y="-280" font-family="Helvetica,sans-Serif" font-size="10.00">/DamierGL/src/CGL/CGLCamera.cpp</text>
</a>
</g>
</g>
<!-- Node23&#45;&gt;Node24 -->
<g id="edge29" class="edge"><title>Node23&#45;&gt;Node24</title>
<path fill="none" stroke="midnightblue" d="M1852,-330.532C1852,-321.361 1852,-311.245 1852,-303.293"/>
<polygon fill="midnightblue" stroke="midnightblue" points="1848.5,-330.679 1852,-340.679 1855.5,-330.679 1848.5,-330.679"/>
</g>
<!-- Node25 -->
<g id="node25" class="node"><title>Node25</title>
<g id="a_node25"><a xlink:href="$d5/d86/_c_g_l_camera_list_8h.xhtml" xlink:title="/home/dagal/git/DamierGL\l/DamierGL/src/CGL/CGLCameraList.h">
<polygon fill="white" stroke="black" points="1558.5,-273 1558.5,-303 1743.5,-303 1743.5,-273 1558.5,-273"/>
<text text-anchor="start" x="1566.5" y="-291" font-family="Helvetica,sans-Serif" font-size="10.00">/home/dagal/git/DamierGL</text>
<text text-anchor="middle" x="1651" y="-280" font-family="Helvetica,sans-Serif" font-size="10.00">/DamierGL/src/CGL/CGLCameraList.h</text>
</a>
</g>
</g>
<!-- Node23&#45;&gt;Node25 -->
<g id="edge30" class="edge"><title>Node23&#45;&gt;Node25</title>
<path fill="none" stroke="midnightblue" d="M1798.98,-337.592C1766.11,-326.798 1724.44,-313.116 1693.7,-303.022"/>
<polygon fill="midnightblue" stroke="midnightblue" points="1798.29,-341.047 1808.88,-340.841 1800.47,-334.396 1798.29,-341.047"/>
</g>
<!-- Node26 -->
<g id="node26" class="node"><title>Node26</title>
<g id="a_node26"><a xlink:href="$df/d1a/_c_g_l_camera_list_8cpp.xhtml" xlink:title="/home/dagal/git/DamierGL\l/DamierGL/src/CGL/CGLCameraList.cpp">
<polygon fill="white" stroke="black" points="1553,-205 1553,-235 1749,-235 1749,-205 1553,-205"/>
<text text-anchor="start" x="1561" y="-223" font-family="Helvetica,sans-Serif" font-size="10.00">/home/dagal/git/DamierGL</text>
<text text-anchor="middle" x="1651" y="-212" font-family="Helvetica,sans-Serif" font-size="10.00">/DamierGL/src/CGL/CGLCameraList.cpp</text>
</a>
</g>
</g>
<!-- Node25&#45;&gt;Node26 -->
<g id="edge31" class="edge"><title>Node25&#45;&gt;Node26</title>
<path fill="none" stroke="midnightblue" d="M1651,-262.532C1651,-253.361 1651,-243.245 1651,-235.293"/>
<polygon fill="midnightblue" stroke="midnightblue" points="1647.5,-262.679 1651,-272.679 1654.5,-262.679 1647.5,-262.679"/>
</g>
<!-- Node27 -->
<g id="node27" class="node"><title>Node27</title>
<g id="a_node27"><a xlink:href="$d0/dc9/_c_g_l_scene_8h.xhtml" xlink:title="/home/dagal/git/DamierGL\l/DamierGL/src/CGL/CGLScene.h">
<polygon fill="white" stroke="black" points="1827.5,-205 1827.5,-235 1990.5,-235 1990.5,-205 1827.5,-205"/>
<text text-anchor="start" x="1835.5" y="-223" font-family="Helvetica,sans-Serif" font-size="10.00">/home/dagal/git/DamierGL</text>
<text text-anchor="middle" x="1909" y="-212" font-family="Helvetica,sans-Serif" font-size="10.00">/DamierGL/src/CGL/CGLScene.h</text>
</a>
</g>
</g>
<!-- Node25&#45;&gt;Node27 -->
<g id="edge32" class="edge"><title>Node25&#45;&gt;Node27</title>
<path fill="none" stroke="midnightblue" d="M1715.75,-270.436C1758.38,-259.532 1813.57,-245.412 1854.05,-235.056"/>
<polygon fill="midnightblue" stroke="midnightblue" points="1714.85,-267.053 1706.03,-272.922 1716.59,-273.835 1714.85,-267.053"/>
</g>
<!-- Node27&#45;&gt;Node8 -->
<g id="edge33" class="edge"><title>Node27&#45;&gt;Node8</title>
<path fill="none" stroke="midnightblue" d="M1817.45,-208.99C1797.54,-207.086 1776.58,-205.289 1757,-204 1516.06,-188.135 907.381,-217.292 671,-168 602.588,-153.734 527.664,-118.839 488.782,-99.1379"/>
<polygon fill="midnightblue" stroke="midnightblue" points="1817.14,-212.477 1827.44,-209.962 1817.82,-205.51 1817.14,-212.477"/>
</g>
<!-- Node28 -->
<g id="node28" class="node"><title>Node28</title>
<g id="a_node28"><a xlink:href="$d6/d37/_c_g_l_world_8h.xhtml" xlink:title="/home/dagal/git/DamierGL\l/DamierGL/src/CGL/CGLWorld.h">
<polygon fill="white" stroke="black" points="1935.5,-137 1935.5,-167 2096.5,-167 2096.5,-137 1935.5,-137"/>
<text text-anchor="start" x="1943.5" y="-155" font-family="Helvetica,sans-Serif" font-size="10.00">/home/dagal/git/DamierGL</text>
<text text-anchor="middle" x="2016" y="-144" font-family="Helvetica,sans-Serif" font-size="10.00">/DamierGL/src/CGL/CGLWorld.h</text>
</a>
</g>
</g>
<!-- Node27&#45;&gt;Node28 -->
<g id="edge34" class="edge"><title>Node27&#45;&gt;Node28</title>
<path fill="none" stroke="midnightblue" d="M1940.87,-199.339C1957.66,-188.986 1977.86,-176.526 1993.08,-167.135"/>
<polygon fill="midnightblue" stroke="midnightblue" points="1938.63,-196.613 1931.95,-204.841 1942.3,-202.57 1938.63,-196.613"/>
</g>
<!-- Node29 -->
<g id="node29" class="node"><title>Node29</title>
<g id="a_node29"><a xlink:href="$de/d96/_c_g_l_window_8h.xhtml" xlink:title="/home/dagal/git/DamierGL\l/DamierGL/src/CGL/CGLWindow.h">
<polygon fill="white" stroke="black" points="2158,-69 2158,-99 2328,-99 2328,-69 2158,-69"/>
<text text-anchor="start" x="2166" y="-87" font-family="Helvetica,sans-Serif" font-size="10.00">/home/dagal/git/DamierGL</text>
<text text-anchor="middle" x="2243" y="-76" font-family="Helvetica,sans-Serif" font-size="10.00">/DamierGL/src/CGL/CGLWindow.h</text>
</a>
</g>
</g>
<!-- Node28&#45;&gt;Node29 -->
<g id="edge35" class="edge"><title>Node28&#45;&gt;Node29</title>
<path fill="none" stroke="midnightblue" d="M2074.16,-134.091C2111.5,-123.235 2159.41,-109.303 2194.66,-99.0561"/>
<polygon fill="midnightblue" stroke="midnightblue" points="2073.04,-130.77 2064.42,-136.922 2075,-137.491 2073.04,-130.77"/>
</g>
<!-- Node31 -->
<g id="node31" class="node"><title>Node31</title>
<g id="a_node31"><a xlink:href="$dd/d05/_c_g_l_world_8cpp.xhtml" xlink:title="/home/dagal/git/DamierGL\l/DamierGL/src/CGL/CGLWorld.cpp">
<polygon fill="white" stroke="black" points="1930.5,-69 1930.5,-99 2101.5,-99 2101.5,-69 1930.5,-69"/>
<text text-anchor="start" x="1938.5" y="-87" font-family="Helvetica,sans-Serif" font-size="10.00">/home/dagal/git/DamierGL</text>
<text text-anchor="middle" x="2016" y="-76" font-family="Helvetica,sans-Serif" font-size="10.00">/DamierGL/src/CGL/CGLWorld.cpp</text>
</a>
</g>
</g>
<!-- Node28&#45;&gt;Node31 -->
<g id="edge38" class="edge"><title>Node28&#45;&gt;Node31</title>
<path fill="none" stroke="midnightblue" d="M2016,-126.532C2016,-117.361 2016,-107.245 2016,-99.2931"/>
<polygon fill="midnightblue" stroke="midnightblue" points="2012.5,-126.679 2016,-136.679 2019.5,-126.679 2012.5,-126.679"/>
</g>
<!-- Node29&#45;&gt;Node7 -->
<g id="edge37" class="edge"><title>Node29&#45;&gt;Node7</title>
<path fill="none" stroke="midnightblue" d="M2147.87,-68.5688C2146.57,-68.3776 2145.28,-68.1879 2144,-68 2044.69,-53.443 1929.87,-37.2949 1857.12,-27.1476"/>
<polygon fill="midnightblue" stroke="midnightblue" points="2147.55,-72.0589 2157.95,-70.0598 2148.57,-65.1342 2147.55,-72.0589"/>
</g>
<!-- Node30 -->
<g id="node30" class="node"><title>Node30</title>
<g id="a_node30"><a xlink:href="$df/d9a/_c_g_l_window_8cpp.xhtml" xlink:title="/home/dagal/git/DamierGL\l/DamierGL/src/CGL/CGLWindow.cpp">
<polygon fill="white" stroke="black" points="2152.5,-1 2152.5,-31 2333.5,-31 2333.5,-1 2152.5,-1"/>
<text text-anchor="start" x="2160.5" y="-19" font-family="Helvetica,sans-Serif" font-size="10.00">/home/dagal/git/DamierGL</text>
<text text-anchor="middle" x="2243" y="-8" font-family="Helvetica,sans-Serif" font-size="10.00">/DamierGL/src/CGL/CGLWindow.cpp</text>
</a>
</g>
</g>
<!-- Node29&#45;&gt;Node30 -->
<g id="edge36" class="edge"><title>Node29&#45;&gt;Node30</title>
<path fill="none" stroke="midnightblue" d="M2243,-58.5322C2243,-49.3606 2243,-39.2449 2243,-31.2931"/>
<polygon fill="midnightblue" stroke="midnightblue" points="2239.5,-58.6789 2243,-68.679 2246.5,-58.679 2239.5,-58.6789"/>
</g>
<!-- Node32&#45;&gt;Node27 -->
<g id="edge41" class="edge"><title>Node32&#45;&gt;Node27</title>
<path fill="none" stroke="midnightblue" d="M2012.7,-333.068C1987.11,-305.408 1943.83,-258.643 1922.17,-235.237"/>
<polygon fill="midnightblue" stroke="midnightblue" points="2010.37,-335.697 2019.73,-340.66 2015.51,-330.943 2010.37,-335.697"/>
</g>
<!-- Node33 -->
<g id="node33" class="node"><title>Node33</title>
<g id="a_node33"><a xlink:href="$de/d39/_c_g_l_light_8cpp.xhtml" xlink:title="/home/dagal/git/DamierGL\l/DamierGL/src/CGL/CGLLight.cpp">
<polygon fill="white" stroke="black" points="1997.5,-273 1997.5,-303 2164.5,-303 2164.5,-273 1997.5,-273"/>
<text text-anchor="start" x="2005.5" y="-291" font-family="Helvetica,sans-Serif" font-size="10.00">/home/dagal/git/DamierGL</text>
<text text-anchor="middle" x="2081" y="-280" font-family="Helvetica,sans-Serif" font-size="10.00">/DamierGL/src/CGL/CGLLight.cpp</text>
</a>
</g>
</g>
<!-- Node32&#45;&gt;Node33 -->
<g id="edge40" class="edge"><title>Node32&#45;&gt;Node33</title>
<path fill="none" stroke="midnightblue" d="M2049.5,-332.314C2056.5,-322.689 2064.44,-311.763 2070.61,-303.293"/>
<polygon fill="midnightblue" stroke="midnightblue" points="2046.47,-330.533 2043.42,-340.679 2052.13,-334.65 2046.47,-330.533"/>
</g>
<!-- Node36 -->
<g id="node36" class="node"><title>Node36</title>
<g id="a_node36"><a xlink:href="$da/de7/_c_g_l_color_8h.xhtml" xlink:title="/home/dagal/git/DamierGL\l/DamierGL/src/CGL/CGLColor.h">
<polygon fill="white" stroke="black" points="2352,-137 2352,-167 2510,-167 2510,-137 2352,-137"/>
<text text-anchor="start" x="2360" y="-155" font-family="Helvetica,sans-Serif" font-size="10.00">/home/dagal/git/DamierGL</text>
<text text-anchor="middle" x="2431" y="-144" font-family="Helvetica,sans-Serif" font-size="10.00">/DamierGL/src/CGL/CGLColor.h</text>
</a>
</g>
</g>
<!-- Node35&#45;&gt;Node36 -->
<g id="edge44" class="edge"><title>Node35&#45;&gt;Node36</title>
<path fill="none" stroke="midnightblue" d="M2654.7,-202.711C2605.46,-191.77 2541.25,-177.499 2494.25,-167.056"/>
<polygon fill="midnightblue" stroke="midnightblue" points="2654.13,-206.17 2664.65,-204.922 2655.65,-199.336 2654.13,-206.17"/>
</g>
<!-- Node38 -->
<g id="node38" class="node"><title>Node38</title>
<g id="a_node38"><a xlink:href="$d7/da1/_c_g_l_effect_8cpp.xhtml" xlink:title="/home/dagal/git/DamierGL\l/DamierGL/src/CGL/CGLEffect.cpp">
<polygon fill="white" stroke="black" points="3150,-137 3150,-167 3322,-167 3322,-137 3150,-137"/>
<text text-anchor="start" x="3158" y="-155" font-family="Helvetica,sans-Serif" font-size="10.00">/home/dagal/git/DamierGL</text>
<text text-anchor="middle" x="3236" y="-144" font-family="Helvetica,sans-Serif" font-size="10.00">/DamierGL/src/CGL/CGLEffect.cpp</text>
</a>
</g>
</g>
<!-- Node35&#45;&gt;Node38 -->
<g id="edge47" class="edge"><title>Node35&#45;&gt;Node38</title>
<path fill="none" stroke="midnightblue" d="M2818.82,-208.677C2902.58,-198.945 3030.32,-183.568 3141,-168 3143.89,-167.593 3146.84,-167.172 3149.81,-166.74"/>
<polygon fill="midnightblue" stroke="midnightblue" points="2818.36,-205.207 2808.83,-209.836 2819.16,-212.161 2818.36,-205.207"/>
</g>
<!-- Node39 -->
<g id="node39" class="node"><title>Node39</title>
<g id="a_node39"><a xlink:href="$db/d5d/_c_g_l_position_8h.xhtml" xlink:title="/home/dagal/git/DamierGL\l/DamierGL/src/CGL/CGLPosition.h">
<polygon fill="white" stroke="black" points="2552,-137 2552,-167 2722,-167 2722,-137 2552,-137"/>
<text text-anchor="start" x="2560" y="-155" font-family="Helvetica,sans-Serif" font-size="10.00">/home/dagal/git/DamierGL</text>
<text text-anchor="middle" x="2637" y="-144" font-family="Helvetica,sans-Serif" font-size="10.00">/DamierGL/src/CGL/CGLPosition.h</text>
</a>
</g>
</g>
<!-- Node35&#45;&gt;Node39 -->
<g id="edge48" class="edge"><title>Node35&#45;&gt;Node39</title>
<path fill="none" stroke="midnightblue" d="M2699.87,-198.599C2685.77,-188.371 2669.05,-176.243 2656.39,-167.066"/>
<polygon fill="midnightblue" stroke="midnightblue" points="2698.1,-201.641 2708.25,-204.679 2702.21,-195.975 2698.1,-201.641"/>
</g>
<!-- Node41 -->
<g id="node41" class="node"><title>Node41</title>
<g id="a_node41"><a xlink:href="$d5/d65/_c_g_l_rotation_8h.xhtml" xlink:title="/home/dagal/git/DamierGL\l/DamierGL/src/CGL/CGLRotation.h">
<polygon fill="white" stroke="black" points="2960,-137 2960,-167 3132,-167 3132,-137 2960,-137"/>
<text text-anchor="start" x="2968" y="-155" font-family="Helvetica,sans-Serif" font-size="10.00">/home/dagal/git/DamierGL</text>
<text text-anchor="middle" x="3046" y="-144" font-family="Helvetica,sans-Serif" font-size="10.00">/DamierGL/src/CGL/CGLRotation.h</text>
</a>
</g>
</g>
<!-- Node35&#45;&gt;Node41 -->
<g id="edge51" class="edge"><title>Node35&#45;&gt;Node41</title>
<path fill="none" stroke="midnightblue" d="M2805.83,-202.848C2858.63,-191.889 2927.75,-177.543 2978.28,-167.056"/>
<polygon fill="midnightblue" stroke="midnightblue" points="2804.91,-199.463 2795.83,-204.922 2806.33,-206.317 2804.91,-199.463"/>
</g>
<!-- Node45 -->
<g id="node45" class="node"><title>Node45</title>
<g id="a_node45"><a xlink:href="$d2/d1b/_c_g_l_scale_8h.xhtml" xlink:title="/home/dagal/git/DamierGL\l/DamierGL/src/CGL/CGLScale.h">
<polygon fill="white" stroke="black" points="2740,-137 2740,-167 2900,-167 2900,-137 2740,-137"/>
<text text-anchor="start" x="2748" y="-155" font-family="Helvetica,sans-Serif" font-size="10.00">/home/dagal/git/DamierGL</text>
<text text-anchor="middle" x="2820" y="-144" font-family="Helvetica,sans-Serif" font-size="10.00">/DamierGL/src/CGL/CGLScale.h</text>
</a>
</g>
</g>
<!-- Node35&#45;&gt;Node45 -->
<g id="edge56" class="edge"><title>Node35&#45;&gt;Node45</title>
<path fill="none" stroke="midnightblue" d="M2756.44,-198.599C2770.69,-188.371 2787.6,-176.243 2800.39,-167.066"/>
<polygon fill="midnightblue" stroke="midnightblue" points="2754.05,-196.006 2747.96,-204.679 2758.13,-201.694 2754.05,-196.006"/>
</g>
<!-- Node36&#45;&gt;Node7 -->
<g id="edge46" class="edge"><title>Node36&#45;&gt;Node7</title>
<path fill="none" stroke="midnightblue" d="M2341.69,-146.407C2284.42,-140.718 2209.71,-128.065 2149,-100 2128.65,-90.5917 2130.46,-77.1662 2110,-68 2028.44,-31.4661 1925.23,-20.5197 1857.04,-17.5424"/>
<polygon fill="midnightblue" stroke="midnightblue" points="2341.52,-149.907 2351.81,-147.358 2342.18,-142.937 2341.52,-149.907"/>
</g>
<!-- Node37 -->
<g id="node37" class="node"><title>Node37</title>
<g id="a_node37"><a xlink:href="$da/d19/_c_g_l_color_8cpp.xhtml" xlink:title="/home/dagal/git/DamierGL\l/DamierGL/src/CGL/CGLColor.cpp">
<polygon fill="white" stroke="black" points="2346.5,-69 2346.5,-99 2515.5,-99 2515.5,-69 2346.5,-69"/>
<text text-anchor="start" x="2354.5" y="-87" font-family="Helvetica,sans-Serif" font-size="10.00">/home/dagal/git/DamierGL</text>
<text text-anchor="middle" x="2431" y="-76" font-family="Helvetica,sans-Serif" font-size="10.00">/DamierGL/src/CGL/CGLColor.cpp</text>
</a>
</g>
</g>
<!-- Node36&#45;&gt;Node37 -->
<g id="edge45" class="edge"><title>Node36&#45;&gt;Node37</title>
<path fill="none" stroke="midnightblue" d="M2431,-126.532C2431,-117.361 2431,-107.245 2431,-99.2931"/>
<polygon fill="midnightblue" stroke="midnightblue" points="2427.5,-126.679 2431,-136.679 2434.5,-126.679 2427.5,-126.679"/>
</g>
<!-- Node39&#45;&gt;Node7 -->
<g id="edge50" class="edge"><title>Node39&#45;&gt;Node7</title>
<path fill="none" stroke="midnightblue" d="M2606.29,-131.148C2592.51,-121.984 2576.21,-110.767 2562,-100 2544.4,-86.6635 2544.47,-76.2789 2524,-68 2493.43,-55.6343 2037.84,-30.397 1857.09,-20.8101"/>
<polygon fill="midnightblue" stroke="midnightblue" points="2604.65,-134.261 2614.92,-136.848 2608.51,-128.419 2604.65,-134.261"/>
</g>
<!-- Node40 -->
<g id="node40" class="node"><title>Node40</title>
<g id="a_node40"><a xlink:href="$db/d18/_c_g_l_position_8cpp.xhtml" xlink:title="/home/dagal/git/DamierGL\l/DamierGL/src/CGL/CGLPosition.cpp">
<polygon fill="white" stroke="black" points="2571.5,-69 2571.5,-99 2752.5,-99 2752.5,-69 2571.5,-69"/>
<text text-anchor="start" x="2579.5" y="-87" font-family="Helvetica,sans-Serif" font-size="10.00">/home/dagal/git/DamierGL</text>
<text text-anchor="middle" x="2662" y="-76" font-family="Helvetica,sans-Serif" font-size="10.00">/DamierGL/src/CGL/CGLPosition.cpp</text>
</a>
</g>
</g>
<!-- Node39&#45;&gt;Node40 -->
<g id="edge49" class="edge"><title>Node39&#45;&gt;Node40</title>
<path fill="none" stroke="midnightblue" d="M2646.04,-127.129C2649.58,-117.801 2653.51,-107.418 2656.59,-99.2931"/>
<polygon fill="midnightblue" stroke="midnightblue" points="2642.69,-126.088 2642.42,-136.679 2649.24,-128.567 2642.69,-126.088"/>
</g>
<!-- Node42 -->
<g id="node42" class="node"><title>Node42</title>
<g id="a_node42"><a xlink:href="$db/d63/_c_g_l_rotation_8cpp.xhtml" xlink:title="/home/dagal/git/DamierGL\l/DamierGL/src/CGL/CGLRotation.cpp">
<polygon fill="white" stroke="black" points="2997,-69 2997,-99 3179,-99 3179,-69 2997,-69"/>
<text text-anchor="start" x="3005" y="-87" font-family="Helvetica,sans-Serif" font-size="10.00">/home/dagal/git/DamierGL</text>
<text text-anchor="middle" x="3088" y="-76" font-family="Helvetica,sans-Serif" font-size="10.00">/DamierGL/src/CGL/CGLRotation.cpp</text>
</a>
</g>
</g>
<!-- Node41&#45;&gt;Node42 -->
<g id="edge52" class="edge"><title>Node41&#45;&gt;Node42</title>
<path fill="none" stroke="midnightblue" d="M3060.62,-128.019C3066.7,-118.467 3073.57,-107.677 3078.9,-99.2931"/>
<polygon fill="midnightblue" stroke="midnightblue" points="3057.53,-126.363 3055.11,-136.679 3063.43,-130.121 3057.53,-126.363"/>
</g>
<!-- Node43 -->
<g id="node43" class="node"><title>Node43</title>
<g id="a_node43"><a xlink:href="$d4/ddd/_c_g_l_rotation_speed_8h.xhtml" xlink:title="/home/dagal/git/DamierGL\l/DamierGL/src/CGL/CGLRotationSpeed.h">
<polygon fill="white" stroke="black" points="3197,-69 3197,-99 3397,-99 3397,-69 3197,-69"/>
<text text-anchor="start" x="3205" y="-87" font-family="Helvetica,sans-Serif" font-size="10.00">/home/dagal/git/DamierGL</text>
<text text-anchor="middle" x="3297" y="-76" font-family="Helvetica,sans-Serif" font-size="10.00">/DamierGL/src/CGL/CGLRotationSpeed.h</text>
</a>
</g>
</g>
<!-- Node41&#45;&gt;Node43 -->
<g id="edge53" class="edge"><title>Node41&#45;&gt;Node43</title>
<path fill="none" stroke="midnightblue" d="M3109.26,-134.367C3150.69,-123.472 3204.24,-109.39 3243.54,-99.0561"/>
<polygon fill="midnightblue" stroke="midnightblue" points="3108.32,-130.994 3099.54,-136.922 3110.1,-137.764 3108.32,-130.994"/>
</g>
<!-- Node43&#45;&gt;Node7 -->
<g id="edge55" class="edge"><title>Node43&#45;&gt;Node7</title>
<path fill="none" stroke="midnightblue" d="M3188.32,-68.0277C3188.21,-68.0184 3188.11,-68.0092 3188,-68 2724.98,-28.2704 2607.38,-49.7003 2143,-32 2044.04,-28.2282 1929.76,-23.3661 1857.22,-20.2164"/>
<polygon fill="midnightblue" stroke="midnightblue" points="3188.14,-71.526 3198.42,-68.9742 3188.79,-64.5565 3188.14,-71.526"/>
</g>
<!-- Node44 -->
<g id="node44" class="node"><title>Node44</title>
<g id="a_node44"><a xlink:href="$df/d6d/_c_g_l_rotation_speed_8cpp.xhtml" xlink:title="/home/dagal/git/DamierGL\l/DamierGL/src/CGL/CGLRotationSpeed.cpp">
<polygon fill="white" stroke="black" points="3192,-1 3192,-31 3402,-31 3402,-1 3192,-1"/>
<text text-anchor="start" x="3200" y="-19" font-family="Helvetica,sans-Serif" font-size="10.00">/home/dagal/git/DamierGL</text>
<text text-anchor="middle" x="3297" y="-8" font-family="Helvetica,sans-Serif" font-size="10.00">/DamierGL/src/CGL/CGLRotationSpeed.cpp</text>
</a>
</g>
</g>
<!-- Node43&#45;&gt;Node44 -->
<g id="edge54" class="edge"><title>Node43&#45;&gt;Node44</title>
<path fill="none" stroke="midnightblue" d="M3297,-58.5322C3297,-49.3606 3297,-39.2449 3297,-31.2931"/>
<polygon fill="midnightblue" stroke="midnightblue" points="3293.5,-58.6789 3297,-68.679 3300.5,-58.679 3293.5,-58.6789"/>
</g>
<!-- Node45&#45;&gt;Node7 -->
<g id="edge58" class="edge"><title>Node45&#45;&gt;Node7</title>
<path fill="none" stroke="midnightblue" d="M2810.41,-127.549C2800.99,-107.873 2784.59,-80.9654 2761,-68 2741.23,-57.1358 2081.1,-29.1674 1857.33,-19.9761"/>
<polygon fill="midnightblue" stroke="midnightblue" points="2807.28,-129.126 2814.59,-136.801 2813.66,-126.246 2807.28,-129.126"/>
</g>
<!-- Node46 -->
<g id="node46" class="node"><title>Node46</title>
<g id="a_node46"><a xlink:href="$dc/d61/_c_g_l_scale_8cpp.xhtml" xlink:title="/home/dagal/git/DamierGL\l/DamierGL/src/CGL/CGLScale.cpp">
<polygon fill="white" stroke="black" points="2809,-69 2809,-99 2979,-99 2979,-69 2809,-69"/>
<text text-anchor="start" x="2817" y="-87" font-family="Helvetica,sans-Serif" font-size="10.00">/home/dagal/git/DamierGL</text>
<text text-anchor="middle" x="2894" y="-76" font-family="Helvetica,sans-Serif" font-size="10.00">/DamierGL/src/CGL/CGLScale.cpp</text>
</a>
</g>
</g>
<!-- Node45&#45;&gt;Node46 -->
<g id="edge57" class="edge"><title>Node45&#45;&gt;Node46</title>
<path fill="none" stroke="midnightblue" d="M2843.52,-130.018C2854.85,-119.915 2868.13,-108.07 2878.23,-99.0663"/>
<polygon fill="midnightblue" stroke="midnightblue" points="2841.19,-127.411 2836.06,-136.679 2845.85,-132.635 2841.19,-127.411"/>
</g>
</g>
</svg>
