<?xml version="1.0" encoding="UTF-8" standalone="no"?>
<!DOCTYPE svg PUBLIC "-//W3C//DTD SVG 1.1//EN"
 "http://www.w3.org/Graphics/SVG/1.1/DTD/svg11.dtd">
<!-- Generated by graphviz version 2.36.0 (20140111.2315)
 -->
<!-- Title: /home/dagal/git/DamierGL/DamierGL/src/CGL/CGLVector2D.h Pages: 1 -->
<svg width="1659pt" height="312pt"
 viewBox="0.00 0.00 1659.00 312.00" xmlns="http://www.w3.org/2000/svg" xmlns:xlink="http://www.w3.org/1999/xlink">
<g id="graph0" class="graph" transform="scale(1 1) rotate(0) translate(4 308)">
<title>/home/dagal/git/DamierGL/DamierGL/src/CGL/CGLVector2D.h</title>
<polygon fill="white" stroke="none" points="-4,4 -4,-308 1655,-308 1655,4 -4,4"/>
<!-- Node1 -->
<g id="node1" class="node"><title>Node1</title>
<polygon fill="#bfbfbf" stroke="black" points="1272,-273 1272,-303 1448,-303 1448,-273 1272,-273"/>
<text text-anchor="start" x="1280" y="-291" font-family="Helvetica,sans-Serif" font-size="10.00">/home/dagal/git/DamierGL</text>
<text text-anchor="middle" x="1360" y="-280" font-family="Helvetica,sans-Serif" font-size="10.00">/DamierGL/src/CGL/CGLVector2D.h</text>
</g>
<!-- Node2 -->
<g id="node2" class="node"><title>Node2</title>
<g id="a_node2"><a xlink:href="$dd/d83/_c_g_l_vector3_d_8h.xhtml" xlink:title="/home/dagal/git/DamierGL\l/DamierGL/src/CGL/CGLVector3D.h">
<polygon fill="white" stroke="black" points="775,-205 775,-235 951,-235 951,-205 775,-205"/>
<text text-anchor="start" x="783" y="-223" font-family="Helvetica,sans-Serif" font-size="10.00">/home/dagal/git/DamierGL</text>
<text text-anchor="middle" x="863" y="-212" font-family="Helvetica,sans-Serif" font-size="10.00">/DamierGL/src/CGL/CGLVector3D.h</text>
</a>
</g>
</g>
<!-- Node1&#45;&gt;Node2 -->
<g id="edge1" class="edge"><title>Node1&#45;&gt;Node2</title>
<path fill="none" stroke="midnightblue" d="M1261.73,-273.951C1171.31,-261.943 1038.41,-244.294 951.294,-232.725"/>
<polygon fill="midnightblue" stroke="midnightblue" points="1261.35,-277.43 1271.72,-275.277 1262.27,-270.491 1261.35,-277.43"/>
</g>
<!-- Node17 -->
<g id="node17" class="node"><title>Node17</title>
<g id="a_node17"><a xlink:href="$d8/d51/_c_g_l_triangle_8h.xhtml" xlink:title="/home/dagal/git/DamierGL\l/DamierGL/src/CGL/CGLTriangle.h">
<polygon fill="white" stroke="black" points="1275,-205 1275,-235 1445,-235 1445,-205 1275,-205"/>
<text text-anchor="start" x="1283" y="-223" font-family="Helvetica,sans-Serif" font-size="10.00">/home/dagal/git/DamierGL</text>
<text text-anchor="middle" x="1360" y="-212" font-family="Helvetica,sans-Serif" font-size="10.00">/DamierGL/src/CGL/CGLTriangle.h</text>
</a>
</g>
</g>
<!-- Node1&#45;&gt;Node17 -->
<g id="edge20" class="edge"><title>Node1&#45;&gt;Node17</title>
<path fill="none" stroke="midnightblue" d="M1360,-262.532C1360,-253.361 1360,-243.245 1360,-235.293"/>
<polygon fill="midnightblue" stroke="midnightblue" points="1356.5,-262.679 1360,-272.679 1363.5,-262.679 1356.5,-262.679"/>
</g>
<!-- Node19 -->
<g id="node19" class="node"><title>Node19</title>
<g id="a_node19"><a xlink:href="$da/d39/_c_g_l_vector2_d_8cpp.xhtml" xlink:title="/home/dagal/git/DamierGL\l/DamierGL/src/CGL/CGLVector2D.cpp">
<polygon fill="white" stroke="black" points="1463.5,-205 1463.5,-235 1650.5,-235 1650.5,-205 1463.5,-205"/>
<text text-anchor="start" x="1471.5" y="-223" font-family="Helvetica,sans-Serif" font-size="10.00">/home/dagal/git/DamierGL</text>
<text text-anchor="middle" x="1557" y="-212" font-family="Helvetica,sans-Serif" font-size="10.00">/DamierGL/src/CGL/CGLVector2D.cpp</text>
</a>
</g>
</g>
<!-- Node1&#45;&gt;Node19 -->
<g id="edge23" class="edge"><title>Node1&#45;&gt;Node19</title>
<path fill="none" stroke="midnightblue" d="M1411.96,-269.592C1444.18,-258.798 1485.02,-245.116 1515.15,-235.022"/>
<polygon fill="midnightblue" stroke="midnightblue" points="1410.63,-266.346 1402.26,-272.841 1412.86,-272.983 1410.63,-266.346"/>
</g>
<!-- Node3 -->
<g id="node3" class="node"><title>Node3</title>
<g id="a_node3"><a xlink:href="$df/dcb/_c_g_l_vector4_d_8h.xhtml" xlink:title="/home/dagal/git/DamierGL\l/DamierGL/src/CGL/CGLVector4D.h">
<polygon fill="white" stroke="black" points="186,-137 186,-167 362,-167 362,-137 186,-137"/>
<text text-anchor="start" x="194" y="-155" font-family="Helvetica,sans-Serif" font-size="10.00">/home/dagal/git/DamierGL</text>
<text text-anchor="middle" x="274" y="-144" font-family="Helvetica,sans-Serif" font-size="10.00">/DamierGL/src/CGL/CGLVector4D.h</text>
</a>
</g>
</g>
<!-- Node2&#45;&gt;Node3 -->
<g id="edge2" class="edge"><title>Node2&#45;&gt;Node3</title>
<path fill="none" stroke="midnightblue" d="M764.848,-208.002C652.553,-195.418 470.296,-174.996 362.3,-162.894"/>
<polygon fill="midnightblue" stroke="midnightblue" points="764.493,-211.484 774.821,-209.119 765.273,-204.527 764.493,-211.484"/>
</g>
<!-- Node8 -->
<g id="node8" class="node"><title>Node8</title>
<g id="a_node8"><a xlink:href="$df/d4a/_c_g_l_line_8h.xhtml" xlink:title="/home/dagal/git/DamierGL\l/DamierGL/src/CGL/CGLLine.h">
<polygon fill="white" stroke="black" points="417.5,-137 417.5,-167 570.5,-167 570.5,-137 417.5,-137"/>
<text text-anchor="start" x="425.5" y="-155" font-family="Helvetica,sans-Serif" font-size="10.00">/home/dagal/git/DamierGL</text>
<text text-anchor="middle" x="494" y="-144" font-family="Helvetica,sans-Serif" font-size="10.00">/DamierGL/src/CGL/CGLLine.h</text>
</a>
</g>
</g>
<!-- Node2&#45;&gt;Node8 -->
<g id="edge7" class="edge"><title>Node2&#45;&gt;Node8</title>
<path fill="none" stroke="midnightblue" d="M774.114,-203.102C712.008,-191.993 629.928,-177.312 570.69,-166.717"/>
<polygon fill="midnightblue" stroke="midnightblue" points="773.833,-206.607 784.293,-204.922 775.065,-199.716 773.833,-206.607"/>
</g>
<!-- Node10 -->
<g id="node10" class="node"><title>Node10</title>
<g id="a_node10"><a xlink:href="$db/d5d/_c_g_l_position_8h.xhtml" xlink:title="/home/dagal/git/DamierGL\l/DamierGL/src/CGL/CGLPosition.h">
<polygon fill="white" stroke="black" points="589,-137 589,-167 759,-167 759,-137 589,-137"/>
<text text-anchor="start" x="597" y="-155" font-family="Helvetica,sans-Serif" font-size="10.00">/home/dagal/git/DamierGL</text>
<text text-anchor="middle" x="674" y="-144" font-family="Helvetica,sans-Serif" font-size="10.00">/DamierGL/src/CGL/CGLPosition.h</text>
</a>
</g>
</g>
<!-- Node2&#45;&gt;Node10 -->
<g id="edge10" class="edge"><title>Node2&#45;&gt;Node10</title>
<path fill="none" stroke="midnightblue" d="M812.749,-201.452C781.903,-190.68 742.934,-177.072 714.153,-167.022"/>
<polygon fill="midnightblue" stroke="midnightblue" points="811.86,-204.849 822.455,-204.841 814.168,-198.24 811.86,-204.849"/>
</g>
<!-- Node12 -->
<g id="node12" class="node"><title>Node12</title>
<g id="a_node12"><a xlink:href="$d5/d65/_c_g_l_rotation_8h.xhtml" xlink:title="/home/dagal/git/DamierGL\l/DamierGL/src/CGL/CGLRotation.h">
<polygon fill="white" stroke="black" points="777,-137 777,-167 949,-167 949,-137 777,-137"/>
<text text-anchor="start" x="785" y="-155" font-family="Helvetica,sans-Serif" font-size="10.00">/home/dagal/git/DamierGL</text>
<text text-anchor="middle" x="863" y="-144" font-family="Helvetica,sans-Serif" font-size="10.00">/DamierGL/src/CGL/CGLRotation.h</text>
</a>
</g>
</g>
<!-- Node2&#45;&gt;Node12 -->
<g id="edge13" class="edge"><title>Node2&#45;&gt;Node12</title>
<path fill="none" stroke="midnightblue" d="M863,-194.532C863,-185.361 863,-175.245 863,-167.293"/>
<polygon fill="midnightblue" stroke="midnightblue" points="859.5,-194.679 863,-204.679 866.5,-194.679 859.5,-194.679"/>
</g>
<!-- Node14 -->
<g id="node14" class="node"><title>Node14</title>
<g id="a_node14"><a xlink:href="$d2/d1b/_c_g_l_scale_8h.xhtml" xlink:title="/home/dagal/git/DamierGL\l/DamierGL/src/CGL/CGLScale.h">
<polygon fill="white" stroke="black" points="967,-137 967,-167 1127,-167 1127,-137 967,-137"/>
<text text-anchor="start" x="975" y="-155" font-family="Helvetica,sans-Serif" font-size="10.00">/home/dagal/git/DamierGL</text>
<text text-anchor="middle" x="1047" y="-144" font-family="Helvetica,sans-Serif" font-size="10.00">/DamierGL/src/CGL/CGLScale.h</text>
</a>
</g>
</g>
<!-- Node2&#45;&gt;Node14 -->
<g id="edge16" class="edge"><title>Node2&#45;&gt;Node14</title>
<path fill="none" stroke="midnightblue" d="M911.922,-201.452C941.951,-190.68 979.89,-177.072 1007.91,-167.022"/>
<polygon fill="midnightblue" stroke="midnightblue" points="910.704,-198.17 902.473,-204.841 913.067,-204.759 910.704,-198.17"/>
</g>
<!-- Node16 -->
<g id="node16" class="node"><title>Node16</title>
<g id="a_node16"><a xlink:href="$d5/d0d/_c_g_l_vector3_d_8cpp.xhtml" xlink:title="/home/dagal/git/DamierGL\l/DamierGL/src/CGL/CGLVector3D.cpp">
<polygon fill="white" stroke="black" points="1145.5,-137 1145.5,-167 1332.5,-167 1332.5,-137 1145.5,-137"/>
<text text-anchor="start" x="1153.5" y="-155" font-family="Helvetica,sans-Serif" font-size="10.00">/home/dagal/git/DamierGL</text>
<text text-anchor="middle" x="1239" y="-144" font-family="Helvetica,sans-Serif" font-size="10.00">/DamierGL/src/CGL/CGLVector3D.cpp</text>
</a>
</g>
</g>
<!-- Node2&#45;&gt;Node16 -->
<g id="edge19" class="edge"><title>Node2&#45;&gt;Node16</title>
<path fill="none" stroke="midnightblue" d="M953.079,-203.188C1015.75,-192.188 1098.56,-177.652 1158.92,-167.056"/>
<polygon fill="midnightblue" stroke="midnightblue" points="952.445,-199.746 943.2,-204.922 953.655,-206.641 952.445,-199.746"/>
</g>
<!-- Node4 -->
<g id="node4" class="node"><title>Node4</title>
<g id="a_node4"><a xlink:href="$da/de7/_c_g_l_color_8h.xhtml" xlink:title="/home/dagal/git/DamierGL\l/DamierGL/src/CGL/CGLColor.h">
<polygon fill="white" stroke="black" points="5,-69 5,-99 163,-99 163,-69 5,-69"/>
<text text-anchor="start" x="13" y="-87" font-family="Helvetica,sans-Serif" font-size="10.00">/home/dagal/git/DamierGL</text>
<text text-anchor="middle" x="84" y="-76" font-family="Helvetica,sans-Serif" font-size="10.00">/DamierGL/src/CGL/CGLColor.h</text>
</a>
</g>
</g>
<!-- Node3&#45;&gt;Node4 -->
<g id="edge3" class="edge"><title>Node3&#45;&gt;Node4</title>
<path fill="none" stroke="midnightblue" d="M223.483,-133.452C192.474,-122.68 153.299,-109.072 124.366,-99.0218"/>
<polygon fill="midnightblue" stroke="midnightblue" points="222.645,-136.866 233.24,-136.841 224.942,-130.254 222.645,-136.866"/>
</g>
<!-- Node7 -->
<g id="node7" class="node"><title>Node7</title>
<g id="a_node7"><a xlink:href="$d1/d00/_c_g_l_vector4_d_8cpp.xhtml" xlink:title="/home/dagal/git/DamierGL\l/DamierGL/src/CGL/CGLVector4D.cpp">
<polygon fill="white" stroke="black" points="180.5,-69 180.5,-99 367.5,-99 367.5,-69 180.5,-69"/>
<text text-anchor="start" x="188.5" y="-87" font-family="Helvetica,sans-Serif" font-size="10.00">/home/dagal/git/DamierGL</text>
<text text-anchor="middle" x="274" y="-76" font-family="Helvetica,sans-Serif" font-size="10.00">/DamierGL/src/CGL/CGLVector4D.cpp</text>
</a>
</g>
</g>
<!-- Node3&#45;&gt;Node7 -->
<g id="edge6" class="edge"><title>Node3&#45;&gt;Node7</title>
<path fill="none" stroke="midnightblue" d="M274,-126.532C274,-117.361 274,-107.245 274,-99.2931"/>
<polygon fill="midnightblue" stroke="midnightblue" points="270.5,-126.679 274,-136.679 277.5,-126.679 270.5,-126.679"/>
</g>
<!-- Node5 -->
<g id="node5" class="node"><title>Node5</title>
<g id="a_node5"><a xlink:href="$da/d19/_c_g_l_color_8cpp.xhtml" xlink:title="/home/dagal/git/DamierGL\l/DamierGL/src/CGL/CGLColor.cpp">
<polygon fill="white" stroke="black" points="-0.5,-1 -0.5,-31 168.5,-31 168.5,-1 -0.5,-1"/>
<text text-anchor="start" x="7.5" y="-19" font-family="Helvetica,sans-Serif" font-size="10.00">/home/dagal/git/DamierGL</text>
<text text-anchor="middle" x="84" y="-8" font-family="Helvetica,sans-Serif" font-size="10.00">/DamierGL/src/CGL/CGLColor.cpp</text>
</a>
</g>
</g>
<!-- Node4&#45;&gt;Node5 -->
<g id="edge4" class="edge"><title>Node4&#45;&gt;Node5</title>
<path fill="none" stroke="midnightblue" d="M84,-58.5322C84,-49.3606 84,-39.2449 84,-31.2931"/>
<polygon fill="midnightblue" stroke="midnightblue" points="80.5001,-58.6789 84,-68.679 87.5001,-58.679 80.5001,-58.6789"/>
</g>
<!-- Node6 -->
<g id="node6" class="node"><title>Node6</title>
<g id="a_node6"><a xlink:href="$db/dec/_damier_g_l_8cpp.xhtml" xlink:title="/home/dagal/git/DamierGL\l/DamierGL/src/DamierGL.cpp">
<polygon fill="white" stroke="black" points="661,-1 661,-31 807,-31 807,-1 661,-1"/>
<text text-anchor="start" x="669" y="-19" font-family="Helvetica,sans-Serif" font-size="10.00">/home/dagal/git/DamierGL</text>
<text text-anchor="middle" x="734" y="-8" font-family="Helvetica,sans-Serif" font-size="10.00">/DamierGL/src/DamierGL.cpp</text>
</a>
</g>
</g>
<!-- Node4&#45;&gt;Node6 -->
<g id="edge5" class="edge"><title>Node4&#45;&gt;Node6</title>
<path fill="none" stroke="midnightblue" d="M173.087,-67.7799C353.608,-44.4342 555.28,-28.9994 660.914,-21.7358"/>
<polygon fill="midnightblue" stroke="midnightblue" points="172.608,-64.3126 163.145,-69.0765 173.514,-71.2538 172.608,-64.3126"/>
</g>
<!-- Node8&#45;&gt;Node6 -->
<g id="edge9" class="edge"><title>Node8&#45;&gt;Node6</title>
<path fill="none" stroke="midnightblue" d="M447.487,-131.95C434.277,-124.113 421.465,-113.611 414,-100 407.161,-87.53 404.769,-78.8191 414,-68 445.084,-31.5703 576.352,-21.0388 660.804,-18.0709"/>
<polygon fill="midnightblue" stroke="midnightblue" points="446.182,-135.226 456.635,-136.955 449.542,-129.085 446.182,-135.226"/>
</g>
<!-- Node9 -->
<g id="node9" class="node"><title>Node9</title>
<g id="a_node9"><a xlink:href="$df/de2/_c_g_l_line_8cpp.xhtml" xlink:title="/home/dagal/git/DamierGL\l/DamierGL/src/CGL/CGLLine.cpp">
<polygon fill="white" stroke="black" points="423,-69 423,-99 587,-99 587,-69 423,-69"/>
<text text-anchor="start" x="431" y="-87" font-family="Helvetica,sans-Serif" font-size="10.00">/home/dagal/git/DamierGL</text>
<text text-anchor="middle" x="505" y="-76" font-family="Helvetica,sans-Serif" font-size="10.00">/DamierGL/src/CGL/CGLLine.cpp</text>
</a>
</g>
</g>
<!-- Node8&#45;&gt;Node9 -->
<g id="edge8" class="edge"><title>Node8&#45;&gt;Node9</title>
<path fill="none" stroke="midnightblue" d="M498.078,-126.532C499.607,-117.361 501.293,-107.245 502.618,-99.2931"/>
<polygon fill="midnightblue" stroke="midnightblue" points="494.579,-126.24 496.387,-136.679 501.483,-127.39 494.579,-126.24"/>
</g>
<!-- Node10&#45;&gt;Node6 -->
<g id="edge12" class="edge"><title>Node10&#45;&gt;Node6</title>
<path fill="none" stroke="midnightblue" d="M651.2,-128.957C636.373,-111.857 621.865,-87.8103 634,-68 644.689,-50.5504 663.432,-38.8353 681.825,-31.0861"/>
<polygon fill="midnightblue" stroke="midnightblue" points="649.034,-131.771 658.388,-136.745 654.177,-127.023 649.034,-131.771"/>
</g>
<!-- Node11 -->
<g id="node11" class="node"><title>Node11</title>
<g id="a_node11"><a xlink:href="$db/d18/_c_g_l_position_8cpp.xhtml" xlink:title="/home/dagal/git/DamierGL\l/DamierGL/src/CGL/CGLPosition.cpp">
<polygon fill="white" stroke="black" points="643.5,-69 643.5,-99 824.5,-99 824.5,-69 643.5,-69"/>
<text text-anchor="start" x="651.5" y="-87" font-family="Helvetica,sans-Serif" font-size="10.00">/home/dagal/git/DamierGL</text>
<text text-anchor="middle" x="734" y="-76" font-family="Helvetica,sans-Serif" font-size="10.00">/DamierGL/src/CGL/CGLPosition.cpp</text>
</a>
</g>
</g>
<!-- Node10&#45;&gt;Node11 -->
<g id="edge11" class="edge"><title>Node10&#45;&gt;Node11</title>
<path fill="none" stroke="midnightblue" d="M693.824,-129.194C702.763,-119.36 713.07,-108.023 721.006,-99.2931"/>
<polygon fill="midnightblue" stroke="midnightblue" points="691.156,-126.925 687.019,-136.679 696.336,-131.634 691.156,-126.925"/>
</g>
<!-- Node12&#45;&gt;Node6 -->
<g id="edge15" class="edge"><title>Node12&#45;&gt;Node6</title>
<path fill="none" stroke="midnightblue" d="M859.156,-126.736C855.23,-108.744 847.559,-84.5669 833,-68 818.259,-51.2258 796.668,-39.2063 777.408,-31.0657"/>
<polygon fill="midnightblue" stroke="midnightblue" points="855.761,-127.612 861.102,-136.762 862.633,-126.279 855.761,-127.612"/>
</g>
<!-- Node13 -->
<g id="node13" class="node"><title>Node13</title>
<g id="a_node13"><a xlink:href="$db/d63/_c_g_l_rotation_8cpp.xhtml" xlink:title="/home/dagal/git/DamierGL\l/DamierGL/src/CGL/CGLRotation.cpp">
<polygon fill="white" stroke="black" points="881,-69 881,-99 1063,-99 1063,-69 881,-69"/>
<text text-anchor="start" x="889" y="-87" font-family="Helvetica,sans-Serif" font-size="10.00">/home/dagal/git/DamierGL</text>
<text text-anchor="middle" x="972" y="-76" font-family="Helvetica,sans-Serif" font-size="10.00">/DamierGL/src/CGL/CGLRotation.cpp</text>
</a>
</g>
</g>
<!-- Node12&#45;&gt;Node13 -->
<g id="edge14" class="edge"><title>Node12&#45;&gt;Node13</title>
<path fill="none" stroke="midnightblue" d="M894.996,-131.626C912.188,-121.217 933.003,-108.613 948.655,-99.1352"/>
<polygon fill="midnightblue" stroke="midnightblue" points="893.124,-128.668 886.383,-136.841 896.75,-134.656 893.124,-128.668"/>
</g>
<!-- Node14&#45;&gt;Node6 -->
<g id="edge18" class="edge"><title>Node14&#45;&gt;Node6</title>
<path fill="none" stroke="midnightblue" d="M1064.19,-128.409C1075.8,-110.214 1086.59,-84.9599 1072,-68 1038.57,-29.1444 896.344,-19.5053 807.378,-17.3451"/>
<polygon fill="midnightblue" stroke="midnightblue" points="1061.28,-126.473 1058.53,-136.707 1067.06,-130.417 1061.28,-126.473"/>
</g>
<!-- Node15 -->
<g id="node15" class="node"><title>Node15</title>
<g id="a_node15"><a xlink:href="$dc/d61/_c_g_l_scale_8cpp.xhtml" xlink:title="/home/dagal/git/DamierGL\l/DamierGL/src/CGL/CGLScale.cpp">
<polygon fill="white" stroke="black" points="1119,-69 1119,-99 1289,-99 1289,-69 1119,-69"/>
<text text-anchor="start" x="1127" y="-87" font-family="Helvetica,sans-Serif" font-size="10.00">/home/dagal/git/DamierGL</text>
<text text-anchor="middle" x="1204" y="-76" font-family="Helvetica,sans-Serif" font-size="10.00">/DamierGL/src/CGL/CGLScale.cpp</text>
</a>
</g>
</g>
<!-- Node14&#45;&gt;Node15 -->
<g id="edge17" class="edge"><title>Node14&#45;&gt;Node15</title>
<path fill="none" stroke="midnightblue" d="M1090.08,-132.89C1115.48,-122.21 1147.15,-108.898 1170.65,-99.0218"/>
<polygon fill="midnightblue" stroke="midnightblue" points="1088.54,-129.739 1080.68,-136.841 1091.26,-136.192 1088.54,-129.739"/>
</g>
<!-- Node17&#45;&gt;Node6 -->
<g id="edge22" class="edge"><title>Node17&#45;&gt;Node6</title>
<path fill="none" stroke="midnightblue" d="M1358.44,-194.747C1354.67,-159.334 1341.83,-94.7842 1298,-68 1257.02,-42.9591 950.091,-26.4349 807.016,-20.0128"/>
<polygon fill="midnightblue" stroke="midnightblue" points="1354.96,-195.082 1359.34,-204.727 1361.93,-194.453 1354.96,-195.082"/>
</g>
<!-- Node18 -->
<g id="node18" class="node"><title>Node18</title>
<g id="a_node18"><a xlink:href="$d7/da9/_c_g_l_triangle_8cpp.xhtml" xlink:title="/home/dagal/git/DamierGL\l/DamierGL/src/CGL/CGLTriangle.cpp">
<polygon fill="white" stroke="black" points="1388,-137 1388,-167 1568,-167 1568,-137 1388,-137"/>
<text text-anchor="start" x="1396" y="-155" font-family="Helvetica,sans-Serif" font-size="10.00">/home/dagal/git/DamierGL</text>
<text text-anchor="middle" x="1478" y="-144" font-family="Helvetica,sans-Serif" font-size="10.00">/DamierGL/src/CGL/CGLTriangle.cpp</text>
</a>
</g>
</g>
<!-- Node17&#45;&gt;Node18 -->
<g id="edge21" class="edge"><title>Node17&#45;&gt;Node18</title>
<path fill="none" stroke="midnightblue" d="M1394.13,-199.912C1412.84,-189.448 1435.63,-176.7 1452.73,-167.135"/>
<polygon fill="midnightblue" stroke="midnightblue" points="1392.33,-196.905 1385.31,-204.841 1395.75,-203.014 1392.33,-196.905"/>
</g>
</g>
</svg>
