<?xml version="1.0" encoding="UTF-8" standalone="no"?>
<!DOCTYPE svg PUBLIC "-//W3C//DTD SVG 1.1//EN"
 "http://www.w3.org/Graphics/SVG/1.1/DTD/svg11.dtd">
<!-- Generated by graphviz version 2.36.0 (20140111.2315)
 -->
<!-- Title: /home/dagal/git/DamierGL/DamierGL/src/CGL/CGLVector2D.h Pages: 1 -->
<svg width="2497pt" height="312pt"
 viewBox="0.00 0.00 2497.00 312.00" xmlns="http://www.w3.org/2000/svg" xmlns:xlink="http://www.w3.org/1999/xlink">
<g id="graph0" class="graph" transform="scale(1 1) rotate(0) translate(4 308)">
<title>/home/dagal/git/DamierGL/DamierGL/src/CGL/CGLVector2D.h</title>
<polygon fill="white" stroke="none" points="-4,4 -4,-308 2493,-308 2493,4 -4,4"/>
<!-- Node1 -->
<g id="node1" class="node"><title>Node1</title>
<polygon fill="#bfbfbf" stroke="black" points="1898,-273 1898,-303 2074,-303 2074,-273 1898,-273"/>
<text text-anchor="start" x="1906" y="-291" font-family="Helvetica,sans-Serif" font-size="10.00">/home/dagal/git/DamierGL</text>
<text text-anchor="middle" x="1986" y="-280" font-family="Helvetica,sans-Serif" font-size="10.00">/DamierGL/src/CGL/CGLVector2D.h</text>
</g>
<!-- Node2 -->
<g id="node2" class="node"><title>Node2</title>
<g id="a_node2"><a xlink:href="$dd/d83/_c_g_l_vector3_d_8h.xhtml" xlink:title="/home/dagal/git/DamierGL\l/DamierGL/src/CGL/CGLVector3D.h">
<polygon fill="white" stroke="black" points="1044,-205 1044,-235 1220,-235 1220,-205 1044,-205"/>
<text text-anchor="start" x="1052" y="-223" font-family="Helvetica,sans-Serif" font-size="10.00">/home/dagal/git/DamierGL</text>
<text text-anchor="middle" x="1132" y="-212" font-family="Helvetica,sans-Serif" font-size="10.00">/DamierGL/src/CGL/CGLVector3D.h</text>
</a>
</g>
</g>
<!-- Node1&#45;&gt;Node2 -->
<g id="edge1" class="edge"><title>Node1&#45;&gt;Node2</title>
<path fill="none" stroke="midnightblue" d="M1887.76,-279.407C1719.92,-266.436 1380.58,-240.211 1220.02,-227.802"/>
<polygon fill="midnightblue" stroke="midnightblue" points="1887.58,-282.904 1897.82,-280.185 1888.12,-275.925 1887.58,-282.904"/>
</g>
<!-- Node21 -->
<g id="node21" class="node"><title>Node21</title>
<g id="a_node21"><a xlink:href="$d3/dbc/_c_g_l_polygon_8h.xhtml" xlink:title="/home/dagal/git/DamierGL\l/DamierGL/src/CGL/CGLPolygon.h">
<polygon fill="white" stroke="black" points="1704,-205 1704,-235 1874,-235 1874,-205 1704,-205"/>
<text text-anchor="start" x="1712" y="-223" font-family="Helvetica,sans-Serif" font-size="10.00">/home/dagal/git/DamierGL</text>
<text text-anchor="middle" x="1789" y="-212" font-family="Helvetica,sans-Serif" font-size="10.00">/DamierGL/src/CGL/CGLPolygon.h</text>
</a>
</g>
</g>
<!-- Node1&#45;&gt;Node21 -->
<g id="edge24" class="edge"><title>Node1&#45;&gt;Node21</title>
<path fill="none" stroke="midnightblue" d="M1934.04,-269.592C1901.82,-258.798 1860.98,-245.116 1830.85,-235.022"/>
<polygon fill="midnightblue" stroke="midnightblue" points="1933.14,-272.983 1943.74,-272.841 1935.37,-266.346 1933.14,-272.983"/>
</g>
<!-- Node23 -->
<g id="node23" class="node"><title>Node23</title>
<g id="a_node23"><a xlink:href="$d2/d91/_c_g_l_quad_8h.xhtml" xlink:title="/home/dagal/git/DamierGL\l/DamierGL/src/CGL/CGLQuad.h">
<polygon fill="white" stroke="black" points="1907,-205 1907,-235 2065,-235 2065,-205 1907,-205"/>
<text text-anchor="start" x="1915" y="-223" font-family="Helvetica,sans-Serif" font-size="10.00">/home/dagal/git/DamierGL</text>
<text text-anchor="middle" x="1986" y="-212" font-family="Helvetica,sans-Serif" font-size="10.00">/DamierGL/src/CGL/CGLQuad.h</text>
</a>
</g>
</g>
<!-- Node1&#45;&gt;Node23 -->
<g id="edge27" class="edge"><title>Node1&#45;&gt;Node23</title>
<path fill="none" stroke="midnightblue" d="M1986,-262.532C1986,-253.361 1986,-243.245 1986,-235.293"/>
<polygon fill="midnightblue" stroke="midnightblue" points="1982.5,-262.679 1986,-272.679 1989.5,-262.679 1982.5,-262.679"/>
</g>
<!-- Node25 -->
<g id="node25" class="node"><title>Node25</title>
<g id="a_node25"><a xlink:href="$d8/d51/_c_g_l_triangle_8h.xhtml" xlink:title="/home/dagal/git/DamierGL\l/DamierGL/src/CGL/CGLTriangle.h">
<polygon fill="white" stroke="black" points="2113,-205 2113,-235 2283,-235 2283,-205 2113,-205"/>
<text text-anchor="start" x="2121" y="-223" font-family="Helvetica,sans-Serif" font-size="10.00">/home/dagal/git/DamierGL</text>
<text text-anchor="middle" x="2198" y="-212" font-family="Helvetica,sans-Serif" font-size="10.00">/DamierGL/src/CGL/CGLTriangle.h</text>
</a>
</g>
</g>
<!-- Node1&#45;&gt;Node25 -->
<g id="edge30" class="edge"><title>Node1&#45;&gt;Node25</title>
<path fill="none" stroke="midnightblue" d="M2041.21,-269.813C2075.95,-258.998 2120.22,-245.216 2152.85,-235.056"/>
<polygon fill="midnightblue" stroke="midnightblue" points="2039.73,-266.608 2031.22,-272.922 2041.81,-273.292 2039.73,-266.608"/>
</g>
<!-- Node27 -->
<g id="node27" class="node"><title>Node27</title>
<g id="a_node27"><a xlink:href="$da/d39/_c_g_l_vector2_d_8cpp.xhtml" xlink:title="/home/dagal/git/DamierGL\l/DamierGL/src/CGL/CGLVector2D.cpp">
<polygon fill="white" stroke="black" points="2301.5,-205 2301.5,-235 2488.5,-235 2488.5,-205 2301.5,-205"/>
<text text-anchor="start" x="2309.5" y="-223" font-family="Helvetica,sans-Serif" font-size="10.00">/home/dagal/git/DamierGL</text>
<text text-anchor="middle" x="2395" y="-212" font-family="Helvetica,sans-Serif" font-size="10.00">/DamierGL/src/CGL/CGLVector2D.cpp</text>
</a>
</g>
</g>
<!-- Node1&#45;&gt;Node27 -->
<g id="edge33" class="edge"><title>Node1&#45;&gt;Node27</title>
<path fill="none" stroke="midnightblue" d="M2082.91,-271.362C2151.29,-260.327 2242.11,-245.671 2308.14,-235.016"/>
<polygon fill="midnightblue" stroke="midnightblue" points="2082.3,-267.914 2072.99,-272.963 2083.42,-274.825 2082.3,-267.914"/>
</g>
<!-- Node3 -->
<g id="node3" class="node"><title>Node3</title>
<g id="a_node3"><a xlink:href="$df/dcb/_c_g_l_vector4_d_8h.xhtml" xlink:title="/home/dagal/git/DamierGL\l/DamierGL/src/CGL/CGLVector4D.h">
<polygon fill="white" stroke="black" points="195,-137 195,-167 371,-167 371,-137 195,-137"/>
<text text-anchor="start" x="203" y="-155" font-family="Helvetica,sans-Serif" font-size="10.00">/home/dagal/git/DamierGL</text>
<text text-anchor="middle" x="283" y="-144" font-family="Helvetica,sans-Serif" font-size="10.00">/DamierGL/src/CGL/CGLVector4D.h</text>
</a>
</g>
</g>
<!-- Node2&#45;&gt;Node3 -->
<g id="edge2" class="edge"><title>Node2&#45;&gt;Node3</title>
<path fill="none" stroke="midnightblue" d="M1033.69,-211.357C866.796,-198.383 530.674,-172.254 371.037,-159.844"/>
<polygon fill="midnightblue" stroke="midnightblue" points="1033.7,-214.869 1043.94,-212.155 1034.24,-207.89 1033.7,-214.869"/>
</g>
<!-- Node8 -->
<g id="node8" class="node"><title>Node8</title>
<g id="a_node8"><a xlink:href="$df/d4a/_c_g_l_line_8h.xhtml" xlink:title="/home/dagal/git/DamierGL\l/DamierGL/src/CGL/CGLLine.h">
<polygon fill="white" stroke="black" points="1243.5,-137 1243.5,-167 1396.5,-167 1396.5,-137 1243.5,-137"/>
<text text-anchor="start" x="1251.5" y="-155" font-family="Helvetica,sans-Serif" font-size="10.00">/home/dagal/git/DamierGL</text>
<text text-anchor="middle" x="1320" y="-144" font-family="Helvetica,sans-Serif" font-size="10.00">/DamierGL/src/CGL/CGLLine.h</text>
</a>
</g>
</g>
<!-- Node2&#45;&gt;Node8 -->
<g id="edge7" class="edge"><title>Node2&#45;&gt;Node8</title>
<path fill="none" stroke="midnightblue" d="M1181.99,-201.452C1212.67,-190.68 1251.43,-177.072 1280.06,-167.022"/>
<polygon fill="midnightblue" stroke="midnightblue" points="1180.61,-198.226 1172.33,-204.841 1182.93,-204.831 1180.61,-198.226"/>
</g>
<!-- Node10 -->
<g id="node10" class="node"><title>Node10</title>
<g id="a_node10"><a xlink:href="$db/d5d/_c_g_l_position_8h.xhtml" xlink:title="/home/dagal/git/DamierGL\l/DamierGL/src/CGL/CGLPosition.h">
<polygon fill="white" stroke="black" points="602,-137 602,-167 772,-167 772,-137 602,-137"/>
<text text-anchor="start" x="610" y="-155" font-family="Helvetica,sans-Serif" font-size="10.00">/home/dagal/git/DamierGL</text>
<text text-anchor="middle" x="687" y="-144" font-family="Helvetica,sans-Serif" font-size="10.00">/DamierGL/src/CGL/CGLPosition.h</text>
</a>
</g>
</g>
<!-- Node2&#45;&gt;Node10 -->
<g id="edge10" class="edge"><title>Node2&#45;&gt;Node10</title>
<path fill="none" stroke="midnightblue" d="M1033.47,-204.386C955.224,-192.782 846.945,-176.722 772.364,-165.661"/>
<polygon fill="midnightblue" stroke="midnightblue" points="1033.41,-207.916 1043.82,-205.921 1034.44,-200.992 1033.41,-207.916"/>
</g>
<!-- Node14 -->
<g id="node14" class="node"><title>Node14</title>
<g id="a_node14"><a xlink:href="$d5/d65/_c_g_l_rotation_8h.xhtml" xlink:title="/home/dagal/git/DamierGL\l/DamierGL/src/CGL/CGLRotation.h">
<polygon fill="white" stroke="black" points="848,-137 848,-167 1020,-167 1020,-137 848,-137"/>
<text text-anchor="start" x="856" y="-155" font-family="Helvetica,sans-Serif" font-size="10.00">/home/dagal/git/DamierGL</text>
<text text-anchor="middle" x="934" y="-144" font-family="Helvetica,sans-Serif" font-size="10.00">/DamierGL/src/CGL/CGLRotation.h</text>
</a>
</g>
</g>
<!-- Node2&#45;&gt;Node14 -->
<g id="edge15" class="edge"><title>Node2&#45;&gt;Node14</title>
<path fill="none" stroke="midnightblue" d="M1079.77,-201.592C1047.4,-190.798 1006.35,-177.116 976.065,-167.022"/>
<polygon fill="midnightblue" stroke="midnightblue" points="1078.93,-204.999 1089.52,-204.841 1081.14,-198.359 1078.93,-204.999"/>
</g>
<!-- Node18 -->
<g id="node18" class="node"><title>Node18</title>
<g id="a_node18"><a xlink:href="$d2/d1b/_c_g_l_scale_8h.xhtml" xlink:title="/home/dagal/git/DamierGL\l/DamierGL/src/CGL/CGLScale.h">
<polygon fill="white" stroke="black" points="1439,-137 1439,-167 1599,-167 1599,-137 1439,-137"/>
<text text-anchor="start" x="1447" y="-155" font-family="Helvetica,sans-Serif" font-size="10.00">/home/dagal/git/DamierGL</text>
<text text-anchor="middle" x="1519" y="-144" font-family="Helvetica,sans-Serif" font-size="10.00">/DamierGL/src/CGL/CGLScale.h</text>
</a>
</g>
</g>
<!-- Node2&#45;&gt;Node18 -->
<g id="edge20" class="edge"><title>Node2&#45;&gt;Node18</title>
<path fill="none" stroke="midnightblue" d="M1224.43,-203.236C1289.78,-192.092 1376.5,-177.303 1438.9,-166.661"/>
<polygon fill="midnightblue" stroke="midnightblue" points="1223.82,-199.791 1214.55,-204.922 1224.99,-206.691 1223.82,-199.791"/>
</g>
<!-- Node20 -->
<g id="node20" class="node"><title>Node20</title>
<g id="a_node20"><a xlink:href="$d5/d0d/_c_g_l_vector3_d_8cpp.xhtml" xlink:title="/home/dagal/git/DamierGL\l/DamierGL/src/CGL/CGLVector3D.cpp">
<polygon fill="white" stroke="black" points="1038.5,-137 1038.5,-167 1225.5,-167 1225.5,-137 1038.5,-137"/>
<text text-anchor="start" x="1046.5" y="-155" font-family="Helvetica,sans-Serif" font-size="10.00">/home/dagal/git/DamierGL</text>
<text text-anchor="middle" x="1132" y="-144" font-family="Helvetica,sans-Serif" font-size="10.00">/DamierGL/src/CGL/CGLVector3D.cpp</text>
</a>
</g>
</g>
<!-- Node2&#45;&gt;Node20 -->
<g id="edge23" class="edge"><title>Node2&#45;&gt;Node20</title>
<path fill="none" stroke="midnightblue" d="M1132,-194.532C1132,-185.361 1132,-175.245 1132,-167.293"/>
<polygon fill="midnightblue" stroke="midnightblue" points="1128.5,-194.679 1132,-204.679 1135.5,-194.679 1128.5,-194.679"/>
</g>
<!-- Node4 -->
<g id="node4" class="node"><title>Node4</title>
<g id="a_node4"><a xlink:href="$da/de7/_c_g_l_color_8h.xhtml" xlink:title="/home/dagal/git/DamierGL\l/DamierGL/src/CGL/CGLColor.h">
<polygon fill="white" stroke="black" points="204,-69 204,-99 362,-99 362,-69 204,-69"/>
<text text-anchor="start" x="212" y="-87" font-family="Helvetica,sans-Serif" font-size="10.00">/home/dagal/git/DamierGL</text>
<text text-anchor="middle" x="283" y="-76" font-family="Helvetica,sans-Serif" font-size="10.00">/DamierGL/src/CGL/CGLColor.h</text>
</a>
</g>
</g>
<!-- Node3&#45;&gt;Node4 -->
<g id="edge3" class="edge"><title>Node3&#45;&gt;Node4</title>
<path fill="none" stroke="midnightblue" d="M283,-126.532C283,-117.361 283,-107.245 283,-99.2931"/>
<polygon fill="midnightblue" stroke="midnightblue" points="279.5,-126.679 283,-136.679 286.5,-126.679 279.5,-126.679"/>
</g>
<!-- Node7 -->
<g id="node7" class="node"><title>Node7</title>
<g id="a_node7"><a xlink:href="$d1/d00/_c_g_l_vector4_d_8cpp.xhtml" xlink:title="/home/dagal/git/DamierGL\l/DamierGL/src/CGL/CGLVector4D.cpp">
<polygon fill="white" stroke="black" points="-0.5,-69 -0.5,-99 186.5,-99 186.5,-69 -0.5,-69"/>
<text text-anchor="start" x="7.5" y="-87" font-family="Helvetica,sans-Serif" font-size="10.00">/home/dagal/git/DamierGL</text>
<text text-anchor="middle" x="93" y="-76" font-family="Helvetica,sans-Serif" font-size="10.00">/DamierGL/src/CGL/CGLVector4D.cpp</text>
</a>
</g>
</g>
<!-- Node3&#45;&gt;Node7 -->
<g id="edge6" class="edge"><title>Node3&#45;&gt;Node7</title>
<path fill="none" stroke="midnightblue" d="M232.483,-133.452C201.474,-122.68 162.299,-109.072 133.366,-99.0218"/>
<polygon fill="midnightblue" stroke="midnightblue" points="231.645,-136.866 242.24,-136.841 233.942,-130.254 231.645,-136.866"/>
</g>
<!-- Node5 -->
<g id="node5" class="node"><title>Node5</title>
<g id="a_node5"><a xlink:href="$da/d19/_c_g_l_color_8cpp.xhtml" xlink:title="/home/dagal/git/DamierGL\l/DamierGL/src/CGL/CGLColor.cpp">
<polygon fill="white" stroke="black" points="193.5,-1 193.5,-31 362.5,-31 362.5,-1 193.5,-1"/>
<text text-anchor="start" x="201.5" y="-19" font-family="Helvetica,sans-Serif" font-size="10.00">/home/dagal/git/DamierGL</text>
<text text-anchor="middle" x="278" y="-8" font-family="Helvetica,sans-Serif" font-size="10.00">/DamierGL/src/CGL/CGLColor.cpp</text>
</a>
</g>
</g>
<!-- Node4&#45;&gt;Node5 -->
<g id="edge4" class="edge"><title>Node4&#45;&gt;Node5</title>
<path fill="none" stroke="midnightblue" d="M281.146,-58.5322C280.452,-49.3606 279.685,-39.2449 279.083,-31.2931"/>
<polygon fill="midnightblue" stroke="midnightblue" points="277.67,-58.972 281.915,-68.679 284.65,-58.4431 277.67,-58.972"/>
</g>
<!-- Node6 -->
<g id="node6" class="node"><title>Node6</title>
<g id="a_node6"><a xlink:href="$db/dec/_damier_g_l_8cpp.xhtml" xlink:title="/home/dagal/git/DamierGL\l/DamierGL/src/DamierGL.cpp">
<polygon fill="white" stroke="black" points="1446,-1 1446,-31 1592,-31 1592,-1 1446,-1"/>
<text text-anchor="start" x="1454" y="-19" font-family="Helvetica,sans-Serif" font-size="10.00">/home/dagal/git/DamierGL</text>
<text text-anchor="middle" x="1519" y="-8" font-family="Helvetica,sans-Serif" font-size="10.00">/DamierGL/src/DamierGL.cpp</text>
</a>
</g>
</g>
<!-- Node4&#45;&gt;Node6 -->
<g id="edge5" class="edge"><title>Node4&#45;&gt;Node6</title>
<path fill="none" stroke="midnightblue" d="M372.305,-67.9775C600.113,-44.9562 1230.06,-25.3123 1445.62,-19.0635"/>
<polygon fill="midnightblue" stroke="midnightblue" points="371.673,-64.5243 362.089,-69.0413 372.398,-71.4866 371.673,-64.5243"/>
</g>
<!-- Node8&#45;&gt;Node6 -->
<g id="edge9" class="edge"><title>Node8&#45;&gt;Node6</title>
<path fill="none" stroke="midnightblue" d="M1347.05,-130.888C1359.35,-121.621 1374.02,-110.394 1387,-100 1404.23,-86.1981 1406.76,-80.4397 1425,-68 1445.55,-53.9829 1470.35,-40.6666 1489.31,-31.158"/>
<polygon fill="midnightblue" stroke="midnightblue" points="1344.86,-128.154 1338.96,-136.956 1349.06,-133.752 1344.86,-128.154"/>
</g>
<!-- Node9 -->
<g id="node9" class="node"><title>Node9</title>
<g id="a_node9"><a xlink:href="$df/de2/_c_g_l_line_8cpp.xhtml" xlink:title="/home/dagal/git/DamierGL\l/DamierGL/src/CGL/CGLLine.cpp">
<polygon fill="white" stroke="black" points="1214,-69 1214,-99 1378,-99 1378,-69 1214,-69"/>
<text text-anchor="start" x="1222" y="-87" font-family="Helvetica,sans-Serif" font-size="10.00">/home/dagal/git/DamierGL</text>
<text text-anchor="middle" x="1296" y="-76" font-family="Helvetica,sans-Serif" font-size="10.00">/DamierGL/src/CGL/CGLLine.cpp</text>
</a>
</g>
</g>
<!-- Node8&#45;&gt;Node9 -->
<g id="edge8" class="edge"><title>Node8&#45;&gt;Node9</title>
<path fill="none" stroke="midnightblue" d="M1311.32,-127.129C1307.93,-117.801 1304.15,-107.418 1301.2,-99.2931"/>
<polygon fill="midnightblue" stroke="midnightblue" points="1308.09,-128.477 1314.79,-136.679 1314.66,-126.085 1308.09,-128.477"/>
</g>
<!-- Node11 -->
<g id="node11" class="node"><title>Node11</title>
<g id="a_node11"><a xlink:href="$db/d18/_c_g_l_position_8cpp.xhtml" xlink:title="/home/dagal/git/DamierGL\l/DamierGL/src/CGL/CGLPosition.cpp">
<polygon fill="white" stroke="black" points="596.5,-69 596.5,-99 777.5,-99 777.5,-69 596.5,-69"/>
<text text-anchor="start" x="604.5" y="-87" font-family="Helvetica,sans-Serif" font-size="10.00">/home/dagal/git/DamierGL</text>
<text text-anchor="middle" x="687" y="-76" font-family="Helvetica,sans-Serif" font-size="10.00">/DamierGL/src/CGL/CGLPosition.cpp</text>
</a>
</g>
</g>
<!-- Node10&#45;&gt;Node11 -->
<g id="edge11" class="edge"><title>Node10&#45;&gt;Node11</title>
<path fill="none" stroke="midnightblue" d="M687,-126.532C687,-117.361 687,-107.245 687,-99.2931"/>
<polygon fill="midnightblue" stroke="midnightblue" points="683.5,-126.679 687,-136.679 690.5,-126.679 683.5,-126.679"/>
</g>
<!-- Node12 -->
<g id="node12" class="node"><title>Node12</title>
<g id="a_node12"><a xlink:href="$d0/d52/_c_g_l_position_speed_8h.xhtml" xlink:title="/home/dagal/git/DamierGL\l/DamierGL/src/CGL/CGLPositionSpeed.h">
<polygon fill="white" stroke="black" points="380,-69 380,-99 578,-99 578,-69 380,-69"/>
<text text-anchor="start" x="388" y="-87" font-family="Helvetica,sans-Serif" font-size="10.00">/home/dagal/git/DamierGL</text>
<text text-anchor="middle" x="479" y="-76" font-family="Helvetica,sans-Serif" font-size="10.00">/DamierGL/src/CGL/CGLPositionSpeed.h</text>
</a>
</g>
</g>
<!-- Node10&#45;&gt;Node12 -->
<g id="edge12" class="edge"><title>Node10&#45;&gt;Node12</title>
<path fill="none" stroke="midnightblue" d="M632.834,-133.813C598.751,-122.998 555.316,-109.216 523.298,-99.0561"/>
<polygon fill="midnightblue" stroke="midnightblue" points="632.044,-137.234 642.634,-136.922 634.161,-130.562 632.044,-137.234"/>
</g>
<!-- Node12&#45;&gt;Node6 -->
<g id="edge14" class="edge"><title>Node12&#45;&gt;Node6</title>
<path fill="none" stroke="midnightblue" d="M587.387,-68.0259C913.78,-36.8982 1289.89,-23.4943 1445.74,-18.9323"/>
<polygon fill="midnightblue" stroke="midnightblue" points="586.878,-64.5585 577.259,-68.999 587.548,-71.5264 586.878,-64.5585"/>
</g>
<!-- Node13 -->
<g id="node13" class="node"><title>Node13</title>
<g id="a_node13"><a xlink:href="$de/d6f/_c_g_l_position_speed_8cpp.xhtml" xlink:title="/home/dagal/git/DamierGL\l/DamierGL/src/CGL/CGLPositionSpeed.cpp">
<polygon fill="white" stroke="black" points="380.5,-1 380.5,-31 589.5,-31 589.5,-1 380.5,-1"/>
<text text-anchor="start" x="388.5" y="-19" font-family="Helvetica,sans-Serif" font-size="10.00">/home/dagal/git/DamierGL</text>
<text text-anchor="middle" x="485" y="-8" font-family="Helvetica,sans-Serif" font-size="10.00">/DamierGL/src/CGL/CGLPositionSpeed.cpp</text>
</a>
</g>
</g>
<!-- Node12&#45;&gt;Node13 -->
<g id="edge13" class="edge"><title>Node12&#45;&gt;Node13</title>
<path fill="none" stroke="midnightblue" d="M481.224,-58.5322C482.058,-49.3606 482.978,-39.2449 483.701,-31.2931"/>
<polygon fill="midnightblue" stroke="midnightblue" points="477.722,-58.4031 480.302,-68.679 484.693,-59.037 477.722,-58.4031"/>
</g>
<!-- Node15 -->
<g id="node15" class="node"><title>Node15</title>
<g id="a_node15"><a xlink:href="$db/d63/_c_g_l_rotation_8cpp.xhtml" xlink:title="/home/dagal/git/DamierGL\l/DamierGL/src/CGL/CGLRotation.cpp">
<polygon fill="white" stroke="black" points="1014,-69 1014,-99 1196,-99 1196,-69 1014,-69"/>
<text text-anchor="start" x="1022" y="-87" font-family="Helvetica,sans-Serif" font-size="10.00">/home/dagal/git/DamierGL</text>
<text text-anchor="middle" x="1105" y="-76" font-family="Helvetica,sans-Serif" font-size="10.00">/DamierGL/src/CGL/CGLRotation.cpp</text>
</a>
</g>
</g>
<!-- Node14&#45;&gt;Node15 -->
<g id="edge16" class="edge"><title>Node14&#45;&gt;Node15</title>
<path fill="none" stroke="midnightblue" d="M980.192,-133.171C1007.98,-122.445 1042.86,-108.985 1068.67,-99.0218"/>
<polygon fill="midnightblue" stroke="midnightblue" points="978.753,-129.975 970.684,-136.841 981.273,-136.506 978.753,-129.975"/>
</g>
<!-- Node16 -->
<g id="node16" class="node"><title>Node16</title>
<g id="a_node16"><a xlink:href="$d4/ddd/_c_g_l_rotation_speed_8h.xhtml" xlink:title="/home/dagal/git/DamierGL\l/DamierGL/src/CGL/CGLRotationSpeed.h">
<polygon fill="white" stroke="black" points="796,-69 796,-99 996,-99 996,-69 796,-69"/>
<text text-anchor="start" x="804" y="-87" font-family="Helvetica,sans-Serif" font-size="10.00">/home/dagal/git/DamierGL</text>
<text text-anchor="middle" x="896" y="-76" font-family="Helvetica,sans-Serif" font-size="10.00">/DamierGL/src/CGL/CGLRotationSpeed.h</text>
</a>
</g>
</g>
<!-- Node14&#45;&gt;Node16 -->
<g id="edge17" class="edge"><title>Node14&#45;&gt;Node16</title>
<path fill="none" stroke="midnightblue" d="M920.598,-127.723C915.141,-118.244 909.007,-107.591 904.229,-99.2931"/>
<polygon fill="midnightblue" stroke="midnightblue" points="917.732,-129.759 925.755,-136.679 923.798,-126.266 917.732,-129.759"/>
</g>
<!-- Node16&#45;&gt;Node6 -->
<g id="edge19" class="edge"><title>Node16&#45;&gt;Node6</title>
<path fill="none" stroke="midnightblue" d="M1006.28,-67.8751C1169.25,-48.7469 1347.95,-32.1161 1445.7,-23.3931"/>
<polygon fill="midnightblue" stroke="midnightblue" points="1005.59,-64.4326 996.065,-69.0799 1006.41,-71.3844 1005.59,-64.4326"/>
</g>
<!-- Node17 -->
<g id="node17" class="node"><title>Node17</title>
<g id="a_node17"><a xlink:href="$df/d6d/_c_g_l_rotation_speed_8cpp.xhtml" xlink:title="/home/dagal/git/DamierGL\l/DamierGL/src/CGL/CGLRotationSpeed.cpp">
<polygon fill="white" stroke="black" points="791,-1 791,-31 1001,-31 1001,-1 791,-1"/>
<text text-anchor="start" x="799" y="-19" font-family="Helvetica,sans-Serif" font-size="10.00">/home/dagal/git/DamierGL</text>
<text text-anchor="middle" x="896" y="-8" font-family="Helvetica,sans-Serif" font-size="10.00">/DamierGL/src/CGL/CGLRotationSpeed.cpp</text>
</a>
</g>
</g>
<!-- Node16&#45;&gt;Node17 -->
<g id="edge18" class="edge"><title>Node16&#45;&gt;Node17</title>
<path fill="none" stroke="midnightblue" d="M896,-58.5322C896,-49.3606 896,-39.2449 896,-31.2931"/>
<polygon fill="midnightblue" stroke="midnightblue" points="892.5,-58.6789 896,-68.679 899.5,-58.679 892.5,-58.6789"/>
</g>
<!-- Node18&#45;&gt;Node6 -->
<g id="edge22" class="edge"><title>Node18&#45;&gt;Node6</title>
<path fill="none" stroke="midnightblue" d="M1575.81,-132.447C1590.48,-124.793 1604.51,-114.27 1613,-100 1620.27,-87.7785 1620.27,-80.2215 1613,-68 1602.74,-50.7688 1584.41,-38.9995 1566.64,-31.1504"/>
<polygon fill="midnightblue" stroke="midnightblue" points="1574.14,-129.366 1566.64,-136.85 1577.17,-135.676 1574.14,-129.366"/>
</g>
<!-- Node19 -->
<g id="node19" class="node"><title>Node19</title>
<g id="a_node19"><a xlink:href="$dc/d61/_c_g_l_scale_8cpp.xhtml" xlink:title="/home/dagal/git/DamierGL\l/DamierGL/src/CGL/CGLScale.cpp">
<polygon fill="white" stroke="black" points="1434,-69 1434,-99 1604,-99 1604,-69 1434,-69"/>
<text text-anchor="start" x="1442" y="-87" font-family="Helvetica,sans-Serif" font-size="10.00">/home/dagal/git/DamierGL</text>
<text text-anchor="middle" x="1519" y="-76" font-family="Helvetica,sans-Serif" font-size="10.00">/DamierGL/src/CGL/CGLScale.cpp</text>
</a>
</g>
</g>
<!-- Node18&#45;&gt;Node19 -->
<g id="edge21" class="edge"><title>Node18&#45;&gt;Node19</title>
<path fill="none" stroke="midnightblue" d="M1519,-126.532C1519,-117.361 1519,-107.245 1519,-99.2931"/>
<polygon fill="midnightblue" stroke="midnightblue" points="1515.5,-126.679 1519,-136.679 1522.5,-126.679 1515.5,-126.679"/>
</g>
<!-- Node21&#45;&gt;Node6 -->
<g id="edge26" class="edge"><title>Node21&#45;&gt;Node6</title>
<path fill="none" stroke="midnightblue" d="M1739.74,-200.644C1722.33,-192.5 1703.49,-181.63 1689,-168 1651.41,-132.648 1668.31,-102.575 1630,-68 1611.58,-51.375 1586.81,-39.2936 1565.35,-31.0752"/>
<polygon fill="midnightblue" stroke="midnightblue" points="1738.68,-204 1749.23,-204.888 1741.53,-197.61 1738.68,-204"/>
</g>
<!-- Node22 -->
<g id="node22" class="node"><title>Node22</title>
<g id="a_node22"><a xlink:href="$d4/d36/_c_g_l_polygon_8cpp.xhtml" xlink:title="/home/dagal/git/DamierGL\l/DamierGL/src/CGL/CGLPolygon.cpp">
<polygon fill="white" stroke="black" points="1698.5,-137 1698.5,-167 1879.5,-167 1879.5,-137 1698.5,-137"/>
<text text-anchor="start" x="1706.5" y="-155" font-family="Helvetica,sans-Serif" font-size="10.00">/home/dagal/git/DamierGL</text>
<text text-anchor="middle" x="1789" y="-144" font-family="Helvetica,sans-Serif" font-size="10.00">/DamierGL/src/CGL/CGLPolygon.cpp</text>
</a>
</g>
</g>
<!-- Node21&#45;&gt;Node22 -->
<g id="edge25" class="edge"><title>Node21&#45;&gt;Node22</title>
<path fill="none" stroke="midnightblue" d="M1789,-194.532C1789,-185.361 1789,-175.245 1789,-167.293"/>
<polygon fill="midnightblue" stroke="midnightblue" points="1785.5,-194.679 1789,-204.679 1792.5,-194.679 1785.5,-194.679"/>
</g>
<!-- Node23&#45;&gt;Node6 -->
<g id="edge29" class="edge"><title>Node23&#45;&gt;Node6</title>
<path fill="none" stroke="midnightblue" d="M1961.53,-198.177C1932.85,-173.782 1889.05,-136.582 1888,-136 1791.07,-82.1211 1666.08,-48.3049 1589.28,-31.0431"/>
<polygon fill="midnightblue" stroke="midnightblue" points="1959.29,-200.864 1969.17,-204.677 1963.82,-195.532 1959.29,-200.864"/>
</g>
<!-- Node24 -->
<g id="node24" class="node"><title>Node24</title>
<g id="a_node24"><a xlink:href="$d4/d6e/_c_g_l_quad_8cpp.xhtml" xlink:title="/home/dagal/git/DamierGL\l/DamierGL/src/CGL/CGLQuad.cpp">
<polygon fill="white" stroke="black" points="1935.5,-137 1935.5,-167 2104.5,-167 2104.5,-137 1935.5,-137"/>
<text text-anchor="start" x="1943.5" y="-155" font-family="Helvetica,sans-Serif" font-size="10.00">/home/dagal/git/DamierGL</text>
<text text-anchor="middle" x="2020" y="-144" font-family="Helvetica,sans-Serif" font-size="10.00">/DamierGL/src/CGL/CGLQuad.cpp</text>
</a>
</g>
</g>
<!-- Node23&#45;&gt;Node24 -->
<g id="edge28" class="edge"><title>Node23&#45;&gt;Node24</title>
<path fill="none" stroke="midnightblue" d="M1997.99,-195.723C2002.87,-186.244 2008.36,-175.591 2012.64,-167.293"/>
<polygon fill="midnightblue" stroke="midnightblue" points="1994.85,-194.186 1993.38,-204.679 2001.07,-197.392 1994.85,-194.186"/>
</g>
<!-- Node25&#45;&gt;Node6 -->
<g id="edge32" class="edge"><title>Node25&#45;&gt;Node6</title>
<path fill="none" stroke="midnightblue" d="M2255.51,-201.375C2294.64,-186.456 2335.42,-163.192 2312,-136 2219.28,-28.3325 1770.24,-16.7064 1592.07,-16.4157"/>
<polygon fill="midnightblue" stroke="midnightblue" points="2253.83,-198.264 2245.64,-204.986 2256.23,-204.838 2253.83,-198.264"/>
</g>
<!-- Node26 -->
<g id="node26" class="node"><title>Node26</title>
<g id="a_node26"><a xlink:href="$d7/da9/_c_g_l_triangle_8cpp.xhtml" xlink:title="/home/dagal/git/DamierGL\l/DamierGL/src/CGL/CGLTriangle.cpp">
<polygon fill="white" stroke="black" points="2123,-137 2123,-167 2303,-167 2303,-137 2123,-137"/>
<text text-anchor="start" x="2131" y="-155" font-family="Helvetica,sans-Serif" font-size="10.00">/home/dagal/git/DamierGL</text>
<text text-anchor="middle" x="2213" y="-144" font-family="Helvetica,sans-Serif" font-size="10.00">/DamierGL/src/CGL/CGLTriangle.cpp</text>
</a>
</g>
</g>
<!-- Node25&#45;&gt;Node26 -->
<g id="edge31" class="edge"><title>Node25&#45;&gt;Node26</title>
<path fill="none" stroke="midnightblue" d="M2203.49,-194.831C2205.6,-185.581 2207.92,-175.331 2209.75,-167.293"/>
<polygon fill="midnightblue" stroke="midnightblue" points="2200.06,-194.152 2201.25,-204.679 2206.88,-195.703 2200.06,-194.152"/>
</g>
</g>
</svg>
