<?xml version="1.0" encoding="UTF-8" standalone="no"?>
<!DOCTYPE svg PUBLIC "-//W3C//DTD SVG 1.1//EN"
 "http://www.w3.org/Graphics/SVG/1.1/DTD/svg11.dtd">
<!-- Generated by graphviz version 2.36.0 (20140111.2315)
 -->
<!-- Title: /home/dagal/git/DamierGL/DamierGL/src/CGL/CGLVector2D.h Pages: 1 -->
<svg width="2280pt" height="312pt"
 viewBox="0.00 0.00 2280.00 312.00" xmlns="http://www.w3.org/2000/svg" xmlns:xlink="http://www.w3.org/1999/xlink">
<g id="graph0" class="graph" transform="scale(1 1) rotate(0) translate(4 308)">
<title>/home/dagal/git/DamierGL/DamierGL/src/CGL/CGLVector2D.h</title>
<polygon fill="white" stroke="none" points="-4,4 -4,-308 2276,-308 2276,4 -4,4"/>
<!-- Node1 -->
<g id="node1" class="node"><title>Node1</title>
<polygon fill="#bfbfbf" stroke="black" points="1711,-273 1711,-303 1887,-303 1887,-273 1711,-273"/>
<text text-anchor="start" x="1719" y="-291" font-family="Helvetica,sans-Serif" font-size="10.00">/home/dagal/git/DamierGL</text>
<text text-anchor="middle" x="1799" y="-280" font-family="Helvetica,sans-Serif" font-size="10.00">/DamierGL/src/CGL/CGLVector2D.h</text>
</g>
<!-- Node2 -->
<g id="node2" class="node"><title>Node2</title>
<g id="a_node2"><a xlink:href="$dd/d83/_c_g_l_vector3_d_8h.xhtml" xlink:title="/home/dagal/git/DamierGL\l/DamierGL/src/CGL/CGLVector3D.h">
<polygon fill="white" stroke="black" points="933,-205 933,-235 1109,-235 1109,-205 933,-205"/>
<text text-anchor="start" x="941" y="-223" font-family="Helvetica,sans-Serif" font-size="10.00">/home/dagal/git/DamierGL</text>
<text text-anchor="middle" x="1021" y="-212" font-family="Helvetica,sans-Serif" font-size="10.00">/DamierGL/src/CGL/CGLVector3D.h</text>
</a>
</g>
</g>
<!-- Node1&#45;&gt;Node2 -->
<g id="edge1" class="edge"><title>Node1&#45;&gt;Node2</title>
<path fill="none" stroke="midnightblue" d="M1700.58,-278.65C1547.7,-265.682 1255.59,-240.901 1109.21,-228.483"/>
<polygon fill="midnightblue" stroke="midnightblue" points="1700.63,-282.167 1710.89,-279.525 1701.22,-275.192 1700.63,-282.167"/>
</g>
<!-- Node19 -->
<g id="node19" class="node"><title>Node19</title>
<g id="a_node19"><a xlink:href="$d3/dbc/_c_g_l_polygon_8h.xhtml" xlink:title="/home/dagal/git/DamierGL\l/DamierGL/src/CGL/CGLPolygon.h">
<polygon fill="white" stroke="black" points="1532,-205 1532,-235 1702,-235 1702,-205 1532,-205"/>
<text text-anchor="start" x="1540" y="-223" font-family="Helvetica,sans-Serif" font-size="10.00">/home/dagal/git/DamierGL</text>
<text text-anchor="middle" x="1617" y="-212" font-family="Helvetica,sans-Serif" font-size="10.00">/DamierGL/src/CGL/CGLPolygon.h</text>
</a>
</g>
</g>
<!-- Node1&#45;&gt;Node19 -->
<g id="edge22" class="edge"><title>Node1&#45;&gt;Node19</title>
<path fill="none" stroke="midnightblue" d="M1750.22,-269.312C1720.58,-258.563 1683.26,-245.029 1655.67,-235.022"/>
<polygon fill="midnightblue" stroke="midnightblue" points="1749.36,-272.722 1759.96,-272.841 1751.75,-266.142 1749.36,-272.722"/>
</g>
<!-- Node21 -->
<g id="node21" class="node"><title>Node21</title>
<g id="a_node21"><a xlink:href="$d2/d91/_c_g_l_quad_8h.xhtml" xlink:title="/home/dagal/git/DamierGL\l/DamierGL/src/CGL/CGLQuad.h">
<polygon fill="white" stroke="black" points="1720,-205 1720,-235 1878,-235 1878,-205 1720,-205"/>
<text text-anchor="start" x="1728" y="-223" font-family="Helvetica,sans-Serif" font-size="10.00">/home/dagal/git/DamierGL</text>
<text text-anchor="middle" x="1799" y="-212" font-family="Helvetica,sans-Serif" font-size="10.00">/DamierGL/src/CGL/CGLQuad.h</text>
</a>
</g>
</g>
<!-- Node1&#45;&gt;Node21 -->
<g id="edge25" class="edge"><title>Node1&#45;&gt;Node21</title>
<path fill="none" stroke="midnightblue" d="M1799,-262.532C1799,-253.361 1799,-243.245 1799,-235.293"/>
<polygon fill="midnightblue" stroke="midnightblue" points="1795.5,-262.679 1799,-272.679 1802.5,-262.679 1795.5,-262.679"/>
</g>
<!-- Node23 -->
<g id="node23" class="node"><title>Node23</title>
<g id="a_node23"><a xlink:href="$d8/d51/_c_g_l_triangle_8h.xhtml" xlink:title="/home/dagal/git/DamierGL\l/DamierGL/src/CGL/CGLTriangle.h">
<polygon fill="white" stroke="black" points="1896,-205 1896,-235 2066,-235 2066,-205 1896,-205"/>
<text text-anchor="start" x="1904" y="-223" font-family="Helvetica,sans-Serif" font-size="10.00">/home/dagal/git/DamierGL</text>
<text text-anchor="middle" x="1981" y="-212" font-family="Helvetica,sans-Serif" font-size="10.00">/DamierGL/src/CGL/CGLTriangle.h</text>
</a>
</g>
</g>
<!-- Node1&#45;&gt;Node23 -->
<g id="edge28" class="edge"><title>Node1&#45;&gt;Node23</title>
<path fill="none" stroke="midnightblue" d="M1847.78,-269.312C1877.42,-258.563 1914.74,-245.029 1942.33,-235.022"/>
<polygon fill="midnightblue" stroke="midnightblue" points="1846.25,-266.142 1838.04,-272.841 1848.64,-272.722 1846.25,-266.142"/>
</g>
<!-- Node25 -->
<g id="node25" class="node"><title>Node25</title>
<g id="a_node25"><a xlink:href="$da/d39/_c_g_l_vector2_d_8cpp.xhtml" xlink:title="/home/dagal/git/DamierGL\l/DamierGL/src/CGL/CGLVector2D.cpp">
<polygon fill="white" stroke="black" points="2084.5,-205 2084.5,-235 2271.5,-235 2271.5,-205 2084.5,-205"/>
<text text-anchor="start" x="2092.5" y="-223" font-family="Helvetica,sans-Serif" font-size="10.00">/home/dagal/git/DamierGL</text>
<text text-anchor="middle" x="2178" y="-212" font-family="Helvetica,sans-Serif" font-size="10.00">/DamierGL/src/CGL/CGLVector2D.cpp</text>
</a>
</g>
</g>
<!-- Node1&#45;&gt;Node25 -->
<g id="edge31" class="edge"><title>Node1&#45;&gt;Node25</title>
<path fill="none" stroke="midnightblue" d="M1889.8,-271.188C1952.97,-260.188 2036.44,-245.652 2097.28,-235.056"/>
<polygon fill="midnightblue" stroke="midnightblue" points="1889.09,-267.759 1879.84,-272.922 1890.29,-274.655 1889.09,-267.759"/>
</g>
<!-- Node3 -->
<g id="node3" class="node"><title>Node3</title>
<g id="a_node3"><a xlink:href="$df/dcb/_c_g_l_vector4_d_8h.xhtml" xlink:title="/home/dagal/git/DamierGL\l/DamierGL/src/CGL/CGLVector4D.h">
<polygon fill="white" stroke="black" points="195,-137 195,-167 371,-167 371,-137 195,-137"/>
<text text-anchor="start" x="203" y="-155" font-family="Helvetica,sans-Serif" font-size="10.00">/home/dagal/git/DamierGL</text>
<text text-anchor="middle" x="283" y="-144" font-family="Helvetica,sans-Serif" font-size="10.00">/DamierGL/src/CGL/CGLVector4D.h</text>
</a>
</g>
</g>
<!-- Node2&#45;&gt;Node3 -->
<g id="edge2" class="edge"><title>Node2&#45;&gt;Node3</title>
<path fill="none" stroke="midnightblue" d="M922.506,-210.192C777.734,-197.245 509.696,-173.274 371.102,-160.879"/>
<polygon fill="midnightblue" stroke="midnightblue" points="922.441,-213.7 932.713,-211.104 923.065,-206.727 922.441,-213.7"/>
</g>
<!-- Node8 -->
<g id="node8" class="node"><title>Node8</title>
<g id="a_node8"><a xlink:href="$df/d4a/_c_g_l_line_8h.xhtml" xlink:title="/home/dagal/git/DamierGL\l/DamierGL/src/CGL/CGLLine.h">
<polygon fill="white" stroke="black" points="944.5,-137 944.5,-167 1097.5,-167 1097.5,-137 944.5,-137"/>
<text text-anchor="start" x="952.5" y="-155" font-family="Helvetica,sans-Serif" font-size="10.00">/home/dagal/git/DamierGL</text>
<text text-anchor="middle" x="1021" y="-144" font-family="Helvetica,sans-Serif" font-size="10.00">/DamierGL/src/CGL/CGLLine.h</text>
</a>
</g>
</g>
<!-- Node2&#45;&gt;Node8 -->
<g id="edge7" class="edge"><title>Node2&#45;&gt;Node8</title>
<path fill="none" stroke="midnightblue" d="M1021,-194.532C1021,-185.361 1021,-175.245 1021,-167.293"/>
<polygon fill="midnightblue" stroke="midnightblue" points="1017.5,-194.679 1021,-204.679 1024.5,-194.679 1017.5,-194.679"/>
</g>
<!-- Node10 -->
<g id="node10" class="node"><title>Node10</title>
<g id="a_node10"><a xlink:href="$db/d5d/_c_g_l_position_8h.xhtml" xlink:title="/home/dagal/git/DamierGL\l/DamierGL/src/CGL/CGLPosition.h">
<polygon fill="white" stroke="black" points="1116,-137 1116,-167 1286,-167 1286,-137 1116,-137"/>
<text text-anchor="start" x="1124" y="-155" font-family="Helvetica,sans-Serif" font-size="10.00">/home/dagal/git/DamierGL</text>
<text text-anchor="middle" x="1201" y="-144" font-family="Helvetica,sans-Serif" font-size="10.00">/DamierGL/src/CGL/CGLPosition.h</text>
</a>
</g>
</g>
<!-- Node2&#45;&gt;Node10 -->
<g id="edge10" class="edge"><title>Node2&#45;&gt;Node10</title>
<path fill="none" stroke="midnightblue" d="M1069.24,-201.312C1098.56,-190.563 1135.47,-177.029 1162.76,-167.022"/>
<polygon fill="midnightblue" stroke="midnightblue" points="1067.8,-198.113 1059.61,-204.841 1070.21,-204.685 1067.8,-198.113"/>
</g>
<!-- Node12 -->
<g id="node12" class="node"><title>Node12</title>
<g id="a_node12"><a xlink:href="$d5/d65/_c_g_l_rotation_8h.xhtml" xlink:title="/home/dagal/git/DamierGL\l/DamierGL/src/CGL/CGLRotation.h">
<polygon fill="white" stroke="black" points="576,-137 576,-167 748,-167 748,-137 576,-137"/>
<text text-anchor="start" x="584" y="-155" font-family="Helvetica,sans-Serif" font-size="10.00">/home/dagal/git/DamierGL</text>
<text text-anchor="middle" x="662" y="-144" font-family="Helvetica,sans-Serif" font-size="10.00">/DamierGL/src/CGL/CGLRotation.h</text>
</a>
</g>
</g>
<!-- Node2&#45;&gt;Node12 -->
<g id="edge13" class="edge"><title>Node2&#45;&gt;Node12</title>
<path fill="none" stroke="midnightblue" d="M934.254,-203.052C874.506,-192.068 795.854,-177.608 738.456,-167.056"/>
<polygon fill="midnightblue" stroke="midnightblue" points="933.958,-206.556 944.426,-204.922 935.224,-199.672 933.958,-206.556"/>
</g>
<!-- Node16 -->
<g id="node16" class="node"><title>Node16</title>
<g id="a_node16"><a xlink:href="$d2/d1b/_c_g_l_scale_8h.xhtml" xlink:title="/home/dagal/git/DamierGL\l/DamierGL/src/CGL/CGLScale.h">
<polygon fill="white" stroke="black" points="766,-137 766,-167 926,-167 926,-137 766,-137"/>
<text text-anchor="start" x="774" y="-155" font-family="Helvetica,sans-Serif" font-size="10.00">/home/dagal/git/DamierGL</text>
<text text-anchor="middle" x="846" y="-144" font-family="Helvetica,sans-Serif" font-size="10.00">/DamierGL/src/CGL/CGLScale.h</text>
</a>
</g>
</g>
<!-- Node2&#45;&gt;Node16 -->
<g id="edge18" class="edge"><title>Node2&#45;&gt;Node16</title>
<path fill="none" stroke="midnightblue" d="M974.1,-201.312C945.598,-190.563 909.712,-177.029 883.179,-167.022"/>
<polygon fill="midnightblue" stroke="midnightblue" points="972.866,-204.587 983.458,-204.841 975.337,-198.038 972.866,-204.587"/>
</g>
<!-- Node18 -->
<g id="node18" class="node"><title>Node18</title>
<g id="a_node18"><a xlink:href="$d5/d0d/_c_g_l_vector3_d_8cpp.xhtml" xlink:title="/home/dagal/git/DamierGL\l/DamierGL/src/CGL/CGLVector3D.cpp">
<polygon fill="white" stroke="black" points="1304.5,-137 1304.5,-167 1491.5,-167 1491.5,-137 1304.5,-137"/>
<text text-anchor="start" x="1312.5" y="-155" font-family="Helvetica,sans-Serif" font-size="10.00">/home/dagal/git/DamierGL</text>
<text text-anchor="middle" x="1398" y="-144" font-family="Helvetica,sans-Serif" font-size="10.00">/DamierGL/src/CGL/CGLVector3D.cpp</text>
</a>
</g>
</g>
<!-- Node2&#45;&gt;Node18 -->
<g id="edge21" class="edge"><title>Node2&#45;&gt;Node18</title>
<path fill="none" stroke="midnightblue" d="M1111.32,-203.188C1174.16,-192.188 1257.19,-177.652 1317.71,-167.056"/>
<polygon fill="midnightblue" stroke="midnightblue" points="1110.66,-199.75 1101.41,-204.922 1111.87,-206.645 1110.66,-199.75"/>
</g>
<!-- Node4 -->
<g id="node4" class="node"><title>Node4</title>
<g id="a_node4"><a xlink:href="$da/de7/_c_g_l_color_8h.xhtml" xlink:title="/home/dagal/git/DamierGL\l/DamierGL/src/CGL/CGLColor.h">
<polygon fill="white" stroke="black" points="204,-69 204,-99 362,-99 362,-69 204,-69"/>
<text text-anchor="start" x="212" y="-87" font-family="Helvetica,sans-Serif" font-size="10.00">/home/dagal/git/DamierGL</text>
<text text-anchor="middle" x="283" y="-76" font-family="Helvetica,sans-Serif" font-size="10.00">/DamierGL/src/CGL/CGLColor.h</text>
</a>
</g>
</g>
<!-- Node3&#45;&gt;Node4 -->
<g id="edge3" class="edge"><title>Node3&#45;&gt;Node4</title>
<path fill="none" stroke="midnightblue" d="M283,-126.532C283,-117.361 283,-107.245 283,-99.2931"/>
<polygon fill="midnightblue" stroke="midnightblue" points="279.5,-126.679 283,-136.679 286.5,-126.679 279.5,-126.679"/>
</g>
<!-- Node7 -->
<g id="node7" class="node"><title>Node7</title>
<g id="a_node7"><a xlink:href="$d1/d00/_c_g_l_vector4_d_8cpp.xhtml" xlink:title="/home/dagal/git/DamierGL\l/DamierGL/src/CGL/CGLVector4D.cpp">
<polygon fill="white" stroke="black" points="-0.5,-69 -0.5,-99 186.5,-99 186.5,-69 -0.5,-69"/>
<text text-anchor="start" x="7.5" y="-87" font-family="Helvetica,sans-Serif" font-size="10.00">/home/dagal/git/DamierGL</text>
<text text-anchor="middle" x="93" y="-76" font-family="Helvetica,sans-Serif" font-size="10.00">/DamierGL/src/CGL/CGLVector4D.cpp</text>
</a>
</g>
</g>
<!-- Node3&#45;&gt;Node7 -->
<g id="edge6" class="edge"><title>Node3&#45;&gt;Node7</title>
<path fill="none" stroke="midnightblue" d="M232.483,-133.452C201.474,-122.68 162.299,-109.072 133.366,-99.0218"/>
<polygon fill="midnightblue" stroke="midnightblue" points="231.645,-136.866 242.24,-136.841 233.942,-130.254 231.645,-136.866"/>
</g>
<!-- Node5 -->
<g id="node5" class="node"><title>Node5</title>
<g id="a_node5"><a xlink:href="$da/d19/_c_g_l_color_8cpp.xhtml" xlink:title="/home/dagal/git/DamierGL\l/DamierGL/src/CGL/CGLColor.cpp">
<polygon fill="white" stroke="black" points="193.5,-1 193.5,-31 362.5,-31 362.5,-1 193.5,-1"/>
<text text-anchor="start" x="201.5" y="-19" font-family="Helvetica,sans-Serif" font-size="10.00">/home/dagal/git/DamierGL</text>
<text text-anchor="middle" x="278" y="-8" font-family="Helvetica,sans-Serif" font-size="10.00">/DamierGL/src/CGL/CGLColor.cpp</text>
</a>
</g>
</g>
<!-- Node4&#45;&gt;Node5 -->
<g id="edge4" class="edge"><title>Node4&#45;&gt;Node5</title>
<path fill="none" stroke="midnightblue" d="M281.146,-58.5322C280.452,-49.3606 279.685,-39.2449 279.083,-31.2931"/>
<polygon fill="midnightblue" stroke="midnightblue" points="277.67,-58.972 281.915,-68.679 284.65,-58.4431 277.67,-58.972"/>
</g>
<!-- Node6 -->
<g id="node6" class="node"><title>Node6</title>
<g id="a_node6"><a xlink:href="$db/dec/_damier_g_l_8cpp.xhtml" xlink:title="/home/dagal/git/DamierGL\l/DamierGL/src/DamierGL.cpp">
<polygon fill="white" stroke="black" points="1162,-1 1162,-31 1308,-31 1308,-1 1162,-1"/>
<text text-anchor="start" x="1170" y="-19" font-family="Helvetica,sans-Serif" font-size="10.00">/home/dagal/git/DamierGL</text>
<text text-anchor="middle" x="1235" y="-8" font-family="Helvetica,sans-Serif" font-size="10.00">/DamierGL/src/DamierGL.cpp</text>
</a>
</g>
</g>
<!-- Node4&#45;&gt;Node6 -->
<g id="edge5" class="edge"><title>Node4&#45;&gt;Node6</title>
<path fill="none" stroke="midnightblue" d="M372.247,-67.9428C670.692,-34.3427 1014.5,-22.4336 1161.94,-18.605"/>
<polygon fill="midnightblue" stroke="midnightblue" points="371.636,-64.4895 362.095,-69.0961 372.427,-71.4448 371.636,-64.4895"/>
</g>
<!-- Node8&#45;&gt;Node6 -->
<g id="edge9" class="edge"><title>Node8&#45;&gt;Node6</title>
<path fill="none" stroke="midnightblue" d="M1100.78,-134.683C1140,-125.341 1182.01,-112.93 1197,-100 1218,-81.8851 1228.05,-49.7508 1232.3,-31.2292"/>
<polygon fill="midnightblue" stroke="midnightblue" points="1099.83,-131.31 1090.89,-136.99 1101.42,-138.127 1099.83,-131.31"/>
</g>
<!-- Node9 -->
<g id="node9" class="node"><title>Node9</title>
<g id="a_node9"><a xlink:href="$df/de2/_c_g_l_line_8cpp.xhtml" xlink:title="/home/dagal/git/DamierGL\l/DamierGL/src/CGL/CGLLine.cpp">
<polygon fill="white" stroke="black" points="1024,-69 1024,-99 1188,-99 1188,-69 1024,-69"/>
<text text-anchor="start" x="1032" y="-87" font-family="Helvetica,sans-Serif" font-size="10.00">/home/dagal/git/DamierGL</text>
<text text-anchor="middle" x="1106" y="-76" font-family="Helvetica,sans-Serif" font-size="10.00">/DamierGL/src/CGL/CGLLine.cpp</text>
</a>
</g>
</g>
<!-- Node8&#45;&gt;Node9 -->
<g id="edge8" class="edge"><title>Node8&#45;&gt;Node9</title>
<path fill="none" stroke="midnightblue" d="M1047.65,-130.309C1060.74,-120.143 1076.18,-108.156 1087.88,-99.0663"/>
<polygon fill="midnightblue" stroke="midnightblue" points="1045.2,-127.781 1039.44,-136.679 1049.49,-133.31 1045.2,-127.781"/>
</g>
<!-- Node10&#45;&gt;Node6 -->
<g id="edge12" class="edge"><title>Node10&#45;&gt;Node6</title>
<path fill="none" stroke="midnightblue" d="M1216.97,-128.112C1222.05,-119.657 1227.1,-109.752 1230,-100 1236.94,-76.6124 1236.9,-47.9318 1236.07,-31.1391"/>
<polygon fill="midnightblue" stroke="midnightblue" points="1213.96,-126.325 1211.54,-136.641 1219.87,-130.084 1213.96,-126.325"/>
</g>
<!-- Node11 -->
<g id="node11" class="node"><title>Node11</title>
<g id="a_node11"><a xlink:href="$db/d18/_c_g_l_position_8cpp.xhtml" xlink:title="/home/dagal/git/DamierGL\l/DamierGL/src/CGL/CGLPosition.cpp">
<polygon fill="white" stroke="black" points="1282.5,-69 1282.5,-99 1463.5,-99 1463.5,-69 1282.5,-69"/>
<text text-anchor="start" x="1290.5" y="-87" font-family="Helvetica,sans-Serif" font-size="10.00">/home/dagal/git/DamierGL</text>
<text text-anchor="middle" x="1373" y="-76" font-family="Helvetica,sans-Serif" font-size="10.00">/DamierGL/src/CGL/CGLPosition.cpp</text>
</a>
</g>
</g>
<!-- Node10&#45;&gt;Node11 -->
<g id="edge11" class="edge"><title>Node10&#45;&gt;Node11</title>
<path fill="none" stroke="midnightblue" d="M1247.46,-133.171C1275.42,-122.445 1310.49,-108.985 1336.46,-99.0218"/>
<polygon fill="midnightblue" stroke="midnightblue" points="1245.98,-129.991 1237.9,-136.841 1248.49,-136.526 1245.98,-129.991"/>
</g>
<!-- Node13 -->
<g id="node13" class="node"><title>Node13</title>
<g id="a_node13"><a xlink:href="$db/d63/_c_g_l_rotation_8cpp.xhtml" xlink:title="/home/dagal/git/DamierGL\l/DamierGL/src/CGL/CGLRotation.cpp">
<polygon fill="white" stroke="black" points="598,-69 598,-99 780,-99 780,-69 598,-69"/>
<text text-anchor="start" x="606" y="-87" font-family="Helvetica,sans-Serif" font-size="10.00">/home/dagal/git/DamierGL</text>
<text text-anchor="middle" x="689" y="-76" font-family="Helvetica,sans-Serif" font-size="10.00">/DamierGL/src/CGL/CGLRotation.cpp</text>
</a>
</g>
</g>
<!-- Node12&#45;&gt;Node13 -->
<g id="edge14" class="edge"><title>Node12&#45;&gt;Node13</title>
<path fill="none" stroke="midnightblue" d="M671.765,-127.129C675.581,-117.801 679.829,-107.418 683.153,-99.2931"/>
<polygon fill="midnightblue" stroke="midnightblue" points="668.406,-126.098 667.859,-136.679 674.884,-128.749 668.406,-126.098"/>
</g>
<!-- Node14 -->
<g id="node14" class="node"><title>Node14</title>
<g id="a_node14"><a xlink:href="$d4/ddd/_c_g_l_rotation_speed_8h.xhtml" xlink:title="/home/dagal/git/DamierGL\l/DamierGL/src/CGL/CGLRotationSpeed.h">
<polygon fill="white" stroke="black" points="380,-69 380,-99 580,-99 580,-69 380,-69"/>
<text text-anchor="start" x="388" y="-87" font-family="Helvetica,sans-Serif" font-size="10.00">/home/dagal/git/DamierGL</text>
<text text-anchor="middle" x="480" y="-76" font-family="Helvetica,sans-Serif" font-size="10.00">/DamierGL/src/CGL/CGLRotationSpeed.h</text>
</a>
</g>
</g>
<!-- Node12&#45;&gt;Node14 -->
<g id="edge15" class="edge"><title>Node12&#45;&gt;Node14</title>
<path fill="none" stroke="midnightblue" d="M613.224,-133.312C583.582,-122.563 546.261,-109.029 518.666,-99.0218"/>
<polygon fill="midnightblue" stroke="midnightblue" points="612.362,-136.722 622.956,-136.841 614.749,-130.142 612.362,-136.722"/>
</g>
<!-- Node14&#45;&gt;Node6 -->
<g id="edge17" class="edge"><title>Node14&#45;&gt;Node6</title>
<path fill="none" stroke="midnightblue" d="M590.209,-67.9087C803.845,-45.0642 1043.67,-28.7863 1161.73,-21.3964"/>
<polygon fill="midnightblue" stroke="midnightblue" points="589.624,-64.4514 580.056,-69.0015 590.373,-71.4112 589.624,-64.4514"/>
</g>
<!-- Node15 -->
<g id="node15" class="node"><title>Node15</title>
<g id="a_node15"><a xlink:href="$df/d6d/_c_g_l_rotation_speed_8cpp.xhtml" xlink:title="/home/dagal/git/DamierGL\l/DamierGL/src/CGL/CGLRotationSpeed.cpp">
<polygon fill="white" stroke="black" points="381,-1 381,-31 591,-31 591,-1 381,-1"/>
<text text-anchor="start" x="389" y="-19" font-family="Helvetica,sans-Serif" font-size="10.00">/home/dagal/git/DamierGL</text>
<text text-anchor="middle" x="486" y="-8" font-family="Helvetica,sans-Serif" font-size="10.00">/DamierGL/src/CGL/CGLRotationSpeed.cpp</text>
</a>
</g>
</g>
<!-- Node14&#45;&gt;Node15 -->
<g id="edge16" class="edge"><title>Node14&#45;&gt;Node15</title>
<path fill="none" stroke="midnightblue" d="M482.224,-58.5322C483.058,-49.3606 483.978,-39.2449 484.701,-31.2931"/>
<polygon fill="midnightblue" stroke="midnightblue" points="478.722,-58.4031 481.302,-68.679 485.693,-59.037 478.722,-58.4031"/>
</g>
<!-- Node16&#45;&gt;Node6 -->
<g id="edge20" class="edge"><title>Node16&#45;&gt;Node6</title>
<path fill="none" stroke="midnightblue" d="M831.012,-127.969C821.154,-109.638 812.504,-84.4205 827,-68 848.761,-43.3494 1050.54,-27.7639 1161.94,-20.9638"/>
<polygon fill="midnightblue" stroke="midnightblue" points="828.115,-129.95 836.161,-136.843 834.17,-126.437 828.115,-129.95"/>
</g>
<!-- Node17 -->
<g id="node17" class="node"><title>Node17</title>
<g id="a_node17"><a xlink:href="$dc/d61/_c_g_l_scale_8cpp.xhtml" xlink:title="/home/dagal/git/DamierGL\l/DamierGL/src/CGL/CGLScale.cpp">
<polygon fill="white" stroke="black" points="836,-69 836,-99 1006,-99 1006,-69 836,-69"/>
<text text-anchor="start" x="844" y="-87" font-family="Helvetica,sans-Serif" font-size="10.00">/home/dagal/git/DamierGL</text>
<text text-anchor="middle" x="921" y="-76" font-family="Helvetica,sans-Serif" font-size="10.00">/DamierGL/src/CGL/CGLScale.cpp</text>
</a>
</g>
</g>
<!-- Node16&#45;&gt;Node17 -->
<g id="edge19" class="edge"><title>Node16&#45;&gt;Node17</title>
<path fill="none" stroke="midnightblue" d="M869.843,-130.018C881.324,-119.915 894.785,-108.07 905.016,-99.0663"/>
<polygon fill="midnightblue" stroke="midnightblue" points="867.469,-127.445 862.274,-136.679 872.093,-132.7 867.469,-127.445"/>
</g>
<!-- Node19&#45;&gt;Node6 -->
<g id="edge24" class="edge"><title>Node19&#45;&gt;Node6</title>
<path fill="none" stroke="midnightblue" d="M1580.34,-199.684C1566.15,-191.141 1550.37,-180.248 1538,-168 1500.16,-130.536 1515.96,-98.0546 1472,-68 1423.79,-35.0417 1358.22,-22.8281 1308.27,-18.554"/>
<polygon fill="midnightblue" stroke="midnightblue" points="1578.98,-202.944 1589.39,-204.948 1582.5,-196.894 1578.98,-202.944"/>
</g>
<!-- Node20 -->
<g id="node20" class="node"><title>Node20</title>
<g id="a_node20"><a xlink:href="$d4/d36/_c_g_l_polygon_8cpp.xhtml" xlink:title="/home/dagal/git/DamierGL\l/DamierGL/src/CGL/CGLPolygon.cpp">
<polygon fill="white" stroke="black" points="1547.5,-137 1547.5,-167 1728.5,-167 1728.5,-137 1547.5,-137"/>
<text text-anchor="start" x="1555.5" y="-155" font-family="Helvetica,sans-Serif" font-size="10.00">/home/dagal/git/DamierGL</text>
<text text-anchor="middle" x="1638" y="-144" font-family="Helvetica,sans-Serif" font-size="10.00">/DamierGL/src/CGL/CGLPolygon.cpp</text>
</a>
</g>
</g>
<!-- Node19&#45;&gt;Node20 -->
<g id="edge23" class="edge"><title>Node19&#45;&gt;Node20</title>
<path fill="none" stroke="midnightblue" d="M1624.6,-195.129C1627.56,-185.801 1630.87,-175.418 1633.45,-167.293"/>
<polygon fill="midnightblue" stroke="midnightblue" points="1621.25,-194.088 1621.56,-204.679 1627.92,-196.211 1621.25,-194.088"/>
</g>
<!-- Node21&#45;&gt;Node6 -->
<g id="edge27" class="edge"><title>Node21&#45;&gt;Node6</title>
<path fill="none" stroke="midnightblue" d="M1787.27,-195.875C1776.6,-177.1 1759.15,-151.312 1737,-136 1605.12,-44.8279 1412.23,-22.9744 1308.13,-18.0764"/>
<polygon fill="midnightblue" stroke="midnightblue" points="1784.22,-197.603 1792.08,-204.706 1790.37,-194.251 1784.22,-197.603"/>
</g>
<!-- Node22 -->
<g id="node22" class="node"><title>Node22</title>
<g id="a_node22"><a xlink:href="$d4/d6e/_c_g_l_quad_8cpp.xhtml" xlink:title="/home/dagal/git/DamierGL\l/DamierGL/src/CGL/CGLQuad.cpp">
<polygon fill="white" stroke="black" points="1784.5,-137 1784.5,-167 1953.5,-167 1953.5,-137 1784.5,-137"/>
<text text-anchor="start" x="1792.5" y="-155" font-family="Helvetica,sans-Serif" font-size="10.00">/home/dagal/git/DamierGL</text>
<text text-anchor="middle" x="1869" y="-144" font-family="Helvetica,sans-Serif" font-size="10.00">/DamierGL/src/CGL/CGLQuad.cpp</text>
</a>
</g>
</g>
<!-- Node21&#45;&gt;Node22 -->
<g id="edge26" class="edge"><title>Node21&#45;&gt;Node22</title>
<path fill="none" stroke="midnightblue" d="M1821.51,-197.776C1832.08,-187.81 1844.4,-176.196 1853.84,-167.293"/>
<polygon fill="midnightblue" stroke="midnightblue" points="1819.06,-195.272 1814.19,-204.679 1823.87,-200.365 1819.06,-195.272"/>
</g>
<!-- Node23&#45;&gt;Node6 -->
<g id="edge30" class="edge"><title>Node23&#45;&gt;Node6</title>
<path fill="none" stroke="midnightblue" d="M1981.99,-194.715C1981.38,-176.141 1977.37,-151.211 1962,-136 1870.58,-45.5321 1474.08,-23.7642 1308.29,-18.5889"/>
<polygon fill="midnightblue" stroke="midnightblue" points="1978.49,-194.805 1982.02,-204.795 1985.49,-194.785 1978.49,-194.805"/>
</g>
<!-- Node24 -->
<g id="node24" class="node"><title>Node24</title>
<g id="a_node24"><a xlink:href="$d7/da9/_c_g_l_triangle_8cpp.xhtml" xlink:title="/home/dagal/git/DamierGL\l/DamierGL/src/CGL/CGLTriangle.cpp">
<polygon fill="white" stroke="black" points="2009,-137 2009,-167 2189,-167 2189,-137 2009,-137"/>
<text text-anchor="start" x="2017" y="-155" font-family="Helvetica,sans-Serif" font-size="10.00">/home/dagal/git/DamierGL</text>
<text text-anchor="middle" x="2099" y="-144" font-family="Helvetica,sans-Serif" font-size="10.00">/DamierGL/src/CGL/CGLTriangle.cpp</text>
</a>
</g>
</g>
<!-- Node23&#45;&gt;Node24 -->
<g id="edge29" class="edge"><title>Node23&#45;&gt;Node24</title>
<path fill="none" stroke="midnightblue" d="M2015.13,-199.912C2033.84,-189.448 2056.63,-176.7 2073.73,-167.135"/>
<polygon fill="midnightblue" stroke="midnightblue" points="2013.33,-196.905 2006.31,-204.841 2016.75,-203.014 2013.33,-196.905"/>
</g>
</g>
</svg>
