<?xml version="1.0" encoding="UTF-8" standalone="no"?>
<!DOCTYPE svg PUBLIC "-//W3C//DTD SVG 1.1//EN"
 "http://www.w3.org/Graphics/SVG/1.1/DTD/svg11.dtd">
<!-- Generated by graphviz version 2.36.0 (20140111.2315)
 -->
<!-- Title: /home/dagal/git/DamierGL/DamierGL/src/CGL/CGLVector2D.h Pages: 1 -->
<svg width="2311pt" height="312pt"
 viewBox="0.00 0.00 2311.00 312.00" xmlns="http://www.w3.org/2000/svg" xmlns:xlink="http://www.w3.org/1999/xlink">
<g id="graph0" class="graph" transform="scale(1 1) rotate(0) translate(4 308)">
<title>/home/dagal/git/DamierGL/DamierGL/src/CGL/CGLVector2D.h</title>
<polygon fill="white" stroke="none" points="-4,4 -4,-308 2307,-308 2307,4 -4,4"/>
<!-- Node1 -->
<g id="node1" class="node"><title>Node1</title>
<polygon fill="#bfbfbf" stroke="black" points="1742,-273 1742,-303 1918,-303 1918,-273 1742,-273"/>
<text text-anchor="start" x="1750" y="-291" font-family="Helvetica,sans-Serif" font-size="10.00">/home/dagal/git/DamierGL</text>
<text text-anchor="middle" x="1830" y="-280" font-family="Helvetica,sans-Serif" font-size="10.00">/DamierGL/src/CGL/CGLVector2D.h</text>
</g>
<!-- Node2 -->
<g id="node2" class="node"><title>Node2</title>
<g id="a_node2"><a xlink:href="$dd/d83/_c_g_l_vector3_d_8h.xhtml" xlink:title="/home/dagal/git/DamierGL\l/DamierGL/src/CGL/CGLVector3D.h">
<polygon fill="white" stroke="black" points="965,-205 965,-235 1141,-235 1141,-205 965,-205"/>
<text text-anchor="start" x="973" y="-223" font-family="Helvetica,sans-Serif" font-size="10.00">/home/dagal/git/DamierGL</text>
<text text-anchor="middle" x="1053" y="-212" font-family="Helvetica,sans-Serif" font-size="10.00">/DamierGL/src/CGL/CGLVector3D.h</text>
</a>
</g>
</g>
<!-- Node1&#45;&gt;Node2 -->
<g id="edge1" class="edge"><title>Node1&#45;&gt;Node2</title>
<path fill="none" stroke="midnightblue" d="M1731.32,-278.618C1578.61,-265.647 1287.44,-240.913 1141.29,-228.5"/>
<polygon fill="midnightblue" stroke="midnightblue" points="1731.36,-282.134 1741.62,-279.493 1731.96,-275.159 1731.36,-282.134"/>
</g>
<!-- Node19 -->
<g id="node19" class="node"><title>Node19</title>
<g id="a_node19"><a xlink:href="$d3/dbc/_c_g_l_polygon_8h.xhtml" xlink:title="/home/dagal/git/DamierGL\l/DamierGL/src/CGL/CGLPolygon.h">
<polygon fill="white" stroke="black" points="1563,-205 1563,-235 1733,-235 1733,-205 1563,-205"/>
<text text-anchor="start" x="1571" y="-223" font-family="Helvetica,sans-Serif" font-size="10.00">/home/dagal/git/DamierGL</text>
<text text-anchor="middle" x="1648" y="-212" font-family="Helvetica,sans-Serif" font-size="10.00">/DamierGL/src/CGL/CGLPolygon.h</text>
</a>
</g>
</g>
<!-- Node1&#45;&gt;Node19 -->
<g id="edge23" class="edge"><title>Node1&#45;&gt;Node19</title>
<path fill="none" stroke="midnightblue" d="M1781.22,-269.312C1751.58,-258.563 1714.26,-245.029 1686.67,-235.022"/>
<polygon fill="midnightblue" stroke="midnightblue" points="1780.36,-272.722 1790.96,-272.841 1782.75,-266.142 1780.36,-272.722"/>
</g>
<!-- Node21 -->
<g id="node21" class="node"><title>Node21</title>
<g id="a_node21"><a xlink:href="$d2/d91/_c_g_l_quad_8h.xhtml" xlink:title="/home/dagal/git/DamierGL\l/DamierGL/src/CGL/CGLQuad.h">
<polygon fill="white" stroke="black" points="1751,-205 1751,-235 1909,-235 1909,-205 1751,-205"/>
<text text-anchor="start" x="1759" y="-223" font-family="Helvetica,sans-Serif" font-size="10.00">/home/dagal/git/DamierGL</text>
<text text-anchor="middle" x="1830" y="-212" font-family="Helvetica,sans-Serif" font-size="10.00">/DamierGL/src/CGL/CGLQuad.h</text>
</a>
</g>
</g>
<!-- Node1&#45;&gt;Node21 -->
<g id="edge26" class="edge"><title>Node1&#45;&gt;Node21</title>
<path fill="none" stroke="midnightblue" d="M1830,-262.532C1830,-253.361 1830,-243.245 1830,-235.293"/>
<polygon fill="midnightblue" stroke="midnightblue" points="1826.5,-262.679 1830,-272.679 1833.5,-262.679 1826.5,-262.679"/>
</g>
<!-- Node23 -->
<g id="node23" class="node"><title>Node23</title>
<g id="a_node23"><a xlink:href="$d8/d51/_c_g_l_triangle_8h.xhtml" xlink:title="/home/dagal/git/DamierGL\l/DamierGL/src/CGL/CGLTriangle.h">
<polygon fill="white" stroke="black" points="1927,-205 1927,-235 2097,-235 2097,-205 1927,-205"/>
<text text-anchor="start" x="1935" y="-223" font-family="Helvetica,sans-Serif" font-size="10.00">/home/dagal/git/DamierGL</text>
<text text-anchor="middle" x="2012" y="-212" font-family="Helvetica,sans-Serif" font-size="10.00">/DamierGL/src/CGL/CGLTriangle.h</text>
</a>
</g>
</g>
<!-- Node1&#45;&gt;Node23 -->
<g id="edge29" class="edge"><title>Node1&#45;&gt;Node23</title>
<path fill="none" stroke="midnightblue" d="M1878.78,-269.312C1908.42,-258.563 1945.74,-245.029 1973.33,-235.022"/>
<polygon fill="midnightblue" stroke="midnightblue" points="1877.25,-266.142 1869.04,-272.841 1879.64,-272.722 1877.25,-266.142"/>
</g>
<!-- Node25 -->
<g id="node25" class="node"><title>Node25</title>
<g id="a_node25"><a xlink:href="$da/d39/_c_g_l_vector2_d_8cpp.xhtml" xlink:title="/home/dagal/git/DamierGL\l/DamierGL/src/CGL/CGLVector2D.cpp">
<polygon fill="white" stroke="black" points="2115.5,-205 2115.5,-235 2302.5,-235 2302.5,-205 2115.5,-205"/>
<text text-anchor="start" x="2123.5" y="-223" font-family="Helvetica,sans-Serif" font-size="10.00">/home/dagal/git/DamierGL</text>
<text text-anchor="middle" x="2209" y="-212" font-family="Helvetica,sans-Serif" font-size="10.00">/DamierGL/src/CGL/CGLVector2D.cpp</text>
</a>
</g>
</g>
<!-- Node1&#45;&gt;Node25 -->
<g id="edge32" class="edge"><title>Node1&#45;&gt;Node25</title>
<path fill="none" stroke="midnightblue" d="M1920.8,-271.188C1983.97,-260.188 2067.44,-245.652 2128.28,-235.056"/>
<polygon fill="midnightblue" stroke="midnightblue" points="1920.09,-267.759 1910.84,-272.922 1921.29,-274.655 1920.09,-267.759"/>
</g>
<!-- Node3 -->
<g id="node3" class="node"><title>Node3</title>
<g id="a_node3"><a xlink:href="$df/dcb/_c_g_l_vector4_d_8h.xhtml" xlink:title="/home/dagal/git/DamierGL\l/DamierGL/src/CGL/CGLVector4D.h">
<polygon fill="white" stroke="black" points="186,-137 186,-167 362,-167 362,-137 186,-137"/>
<text text-anchor="start" x="194" y="-155" font-family="Helvetica,sans-Serif" font-size="10.00">/home/dagal/git/DamierGL</text>
<text text-anchor="middle" x="274" y="-144" font-family="Helvetica,sans-Serif" font-size="10.00">/DamierGL/src/CGL/CGLVector4D.h</text>
</a>
</g>
</g>
<!-- Node2&#45;&gt;Node3 -->
<g id="edge2" class="edge"><title>Node2&#45;&gt;Node3</title>
<path fill="none" stroke="midnightblue" d="M954.442,-210.65C801.268,-197.672 508.497,-172.867 362.023,-160.458"/>
<polygon fill="midnightblue" stroke="midnightblue" points="954.516,-214.168 964.775,-211.525 955.107,-207.193 954.516,-214.168"/>
</g>
<!-- Node8 -->
<g id="node8" class="node"><title>Node8</title>
<g id="a_node8"><a xlink:href="$df/d4a/_c_g_l_line_8h.xhtml" xlink:title="/home/dagal/git/DamierGL\l/DamierGL/src/CGL/CGLLine.h">
<polygon fill="white" stroke="black" points="501.5,-137 501.5,-167 654.5,-167 654.5,-137 501.5,-137"/>
<text text-anchor="start" x="509.5" y="-155" font-family="Helvetica,sans-Serif" font-size="10.00">/home/dagal/git/DamierGL</text>
<text text-anchor="middle" x="578" y="-144" font-family="Helvetica,sans-Serif" font-size="10.00">/DamierGL/src/CGL/CGLLine.h</text>
</a>
</g>
</g>
<!-- Node2&#45;&gt;Node8 -->
<g id="edge7" class="edge"><title>Node2&#45;&gt;Node8</title>
<path fill="none" stroke="midnightblue" d="M954.663,-205.336C865.659,-192.97 736.369,-175.005 654.771,-163.667"/>
<polygon fill="midnightblue" stroke="midnightblue" points="954.383,-208.831 964.769,-206.741 955.346,-201.898 954.383,-208.831"/>
</g>
<!-- Node10 -->
<g id="node10" class="node"><title>Node10</title>
<g id="a_node10"><a xlink:href="$db/d5d/_c_g_l_position_8h.xhtml" xlink:title="/home/dagal/git/DamierGL\l/DamierGL/src/CGL/CGLPosition.h">
<polygon fill="white" stroke="black" points="779,-137 779,-167 949,-167 949,-137 779,-137"/>
<text text-anchor="start" x="787" y="-155" font-family="Helvetica,sans-Serif" font-size="10.00">/home/dagal/git/DamierGL</text>
<text text-anchor="middle" x="864" y="-144" font-family="Helvetica,sans-Serif" font-size="10.00">/DamierGL/src/CGL/CGLPosition.h</text>
</a>
</g>
</g>
<!-- Node2&#45;&gt;Node10 -->
<g id="edge10" class="edge"><title>Node2&#45;&gt;Node10</title>
<path fill="none" stroke="midnightblue" d="M1002.75,-201.452C971.903,-190.68 932.934,-177.072 904.153,-167.022"/>
<polygon fill="midnightblue" stroke="midnightblue" points="1001.86,-204.849 1012.45,-204.841 1004.17,-198.24 1001.86,-204.849"/>
</g>
<!-- Node14 -->
<g id="node14" class="node"><title>Node14</title>
<g id="a_node14"><a xlink:href="$d5/d65/_c_g_l_rotation_8h.xhtml" xlink:title="/home/dagal/git/DamierGL\l/DamierGL/src/CGL/CGLRotation.h">
<polygon fill="white" stroke="black" points="967,-137 967,-167 1139,-167 1139,-137 967,-137"/>
<text text-anchor="start" x="975" y="-155" font-family="Helvetica,sans-Serif" font-size="10.00">/home/dagal/git/DamierGL</text>
<text text-anchor="middle" x="1053" y="-144" font-family="Helvetica,sans-Serif" font-size="10.00">/DamierGL/src/CGL/CGLRotation.h</text>
</a>
</g>
</g>
<!-- Node2&#45;&gt;Node14 -->
<g id="edge16" class="edge"><title>Node2&#45;&gt;Node14</title>
<path fill="none" stroke="midnightblue" d="M1053,-194.532C1053,-185.361 1053,-175.245 1053,-167.293"/>
<polygon fill="midnightblue" stroke="midnightblue" points="1049.5,-194.679 1053,-204.679 1056.5,-194.679 1049.5,-194.679"/>
</g>
<!-- Node16 -->
<g id="node16" class="node"><title>Node16</title>
<g id="a_node16"><a xlink:href="$d2/d1b/_c_g_l_scale_8h.xhtml" xlink:title="/home/dagal/git/DamierGL\l/DamierGL/src/CGL/CGLScale.h">
<polygon fill="white" stroke="black" points="1157,-137 1157,-167 1317,-167 1317,-137 1157,-137"/>
<text text-anchor="start" x="1165" y="-155" font-family="Helvetica,sans-Serif" font-size="10.00">/home/dagal/git/DamierGL</text>
<text text-anchor="middle" x="1237" y="-144" font-family="Helvetica,sans-Serif" font-size="10.00">/DamierGL/src/CGL/CGLScale.h</text>
</a>
</g>
</g>
<!-- Node2&#45;&gt;Node16 -->
<g id="edge19" class="edge"><title>Node2&#45;&gt;Node16</title>
<path fill="none" stroke="midnightblue" d="M1101.92,-201.452C1131.95,-190.68 1169.89,-177.072 1197.91,-167.022"/>
<polygon fill="midnightblue" stroke="midnightblue" points="1100.7,-198.17 1092.47,-204.841 1103.07,-204.759 1100.7,-198.17"/>
</g>
<!-- Node18 -->
<g id="node18" class="node"><title>Node18</title>
<g id="a_node18"><a xlink:href="$d5/d0d/_c_g_l_vector3_d_8cpp.xhtml" xlink:title="/home/dagal/git/DamierGL\l/DamierGL/src/CGL/CGLVector3D.cpp">
<polygon fill="white" stroke="black" points="1335.5,-137 1335.5,-167 1522.5,-167 1522.5,-137 1335.5,-137"/>
<text text-anchor="start" x="1343.5" y="-155" font-family="Helvetica,sans-Serif" font-size="10.00">/home/dagal/git/DamierGL</text>
<text text-anchor="middle" x="1429" y="-144" font-family="Helvetica,sans-Serif" font-size="10.00">/DamierGL/src/CGL/CGLVector3D.cpp</text>
</a>
</g>
</g>
<!-- Node2&#45;&gt;Node18 -->
<g id="edge22" class="edge"><title>Node2&#45;&gt;Node18</title>
<path fill="none" stroke="midnightblue" d="M1143.08,-203.188C1205.75,-192.188 1288.56,-177.652 1348.92,-167.056"/>
<polygon fill="midnightblue" stroke="midnightblue" points="1142.44,-199.746 1133.2,-204.922 1143.65,-206.641 1142.44,-199.746"/>
</g>
<!-- Node4 -->
<g id="node4" class="node"><title>Node4</title>
<g id="a_node4"><a xlink:href="$da/de7/_c_g_l_color_8h.xhtml" xlink:title="/home/dagal/git/DamierGL\l/DamierGL/src/CGL/CGLColor.h">
<polygon fill="white" stroke="black" points="5,-69 5,-99 163,-99 163,-69 5,-69"/>
<text text-anchor="start" x="13" y="-87" font-family="Helvetica,sans-Serif" font-size="10.00">/home/dagal/git/DamierGL</text>
<text text-anchor="middle" x="84" y="-76" font-family="Helvetica,sans-Serif" font-size="10.00">/DamierGL/src/CGL/CGLColor.h</text>
</a>
</g>
</g>
<!-- Node3&#45;&gt;Node4 -->
<g id="edge3" class="edge"><title>Node3&#45;&gt;Node4</title>
<path fill="none" stroke="midnightblue" d="M223.483,-133.452C192.474,-122.68 153.299,-109.072 124.366,-99.0218"/>
<polygon fill="midnightblue" stroke="midnightblue" points="222.645,-136.866 233.24,-136.841 224.942,-130.254 222.645,-136.866"/>
</g>
<!-- Node7 -->
<g id="node7" class="node"><title>Node7</title>
<g id="a_node7"><a xlink:href="$d1/d00/_c_g_l_vector4_d_8cpp.xhtml" xlink:title="/home/dagal/git/DamierGL\l/DamierGL/src/CGL/CGLVector4D.cpp">
<polygon fill="white" stroke="black" points="180.5,-69 180.5,-99 367.5,-99 367.5,-69 180.5,-69"/>
<text text-anchor="start" x="188.5" y="-87" font-family="Helvetica,sans-Serif" font-size="10.00">/home/dagal/git/DamierGL</text>
<text text-anchor="middle" x="274" y="-76" font-family="Helvetica,sans-Serif" font-size="10.00">/DamierGL/src/CGL/CGLVector4D.cpp</text>
</a>
</g>
</g>
<!-- Node3&#45;&gt;Node7 -->
<g id="edge6" class="edge"><title>Node3&#45;&gt;Node7</title>
<path fill="none" stroke="midnightblue" d="M274,-126.532C274,-117.361 274,-107.245 274,-99.2931"/>
<polygon fill="midnightblue" stroke="midnightblue" points="270.5,-126.679 274,-136.679 277.5,-126.679 270.5,-126.679"/>
</g>
<!-- Node5 -->
<g id="node5" class="node"><title>Node5</title>
<g id="a_node5"><a xlink:href="$da/d19/_c_g_l_color_8cpp.xhtml" xlink:title="/home/dagal/git/DamierGL\l/DamierGL/src/CGL/CGLColor.cpp">
<polygon fill="white" stroke="black" points="-0.5,-1 -0.5,-31 168.5,-31 168.5,-1 -0.5,-1"/>
<text text-anchor="start" x="7.5" y="-19" font-family="Helvetica,sans-Serif" font-size="10.00">/home/dagal/git/DamierGL</text>
<text text-anchor="middle" x="84" y="-8" font-family="Helvetica,sans-Serif" font-size="10.00">/DamierGL/src/CGL/CGLColor.cpp</text>
</a>
</g>
</g>
<!-- Node4&#45;&gt;Node5 -->
<g id="edge4" class="edge"><title>Node4&#45;&gt;Node5</title>
<path fill="none" stroke="midnightblue" d="M84,-58.5322C84,-49.3606 84,-39.2449 84,-31.2931"/>
<polygon fill="midnightblue" stroke="midnightblue" points="80.5001,-58.6789 84,-68.679 87.5001,-58.679 80.5001,-58.6789"/>
</g>
<!-- Node6 -->
<g id="node6" class="node"><title>Node6</title>
<g id="a_node6"><a xlink:href="$db/dec/_damier_g_l_8cpp.xhtml" xlink:title="/home/dagal/git/DamierGL\l/DamierGL/src/DamierGL.cpp">
<polygon fill="white" stroke="black" points="997,-1 997,-31 1143,-31 1143,-1 997,-1"/>
<text text-anchor="start" x="1005" y="-19" font-family="Helvetica,sans-Serif" font-size="10.00">/home/dagal/git/DamierGL</text>
<text text-anchor="middle" x="1070" y="-8" font-family="Helvetica,sans-Serif" font-size="10.00">/DamierGL/src/DamierGL.cpp</text>
</a>
</g>
</g>
<!-- Node4&#45;&gt;Node6 -->
<g id="edge5" class="edge"><title>Node4&#45;&gt;Node6</title>
<path fill="none" stroke="midnightblue" d="M173.377,-67.801C458.906,-35.7819 533.845,-48.3623 818,-32 878.272,-28.5294 946.645,-24.4507 996.949,-21.4232"/>
<polygon fill="midnightblue" stroke="midnightblue" points="172.674,-64.3581 163.13,-68.959 173.46,-71.3138 172.674,-64.3581"/>
</g>
<!-- Node8&#45;&gt;Node6 -->
<g id="edge9" class="edge"><title>Node8&#45;&gt;Node6</title>
<path fill="none" stroke="midnightblue" d="M576.566,-126.572C576.897,-107.703 580.744,-82.4481 597,-68 611.739,-54.9001 867.783,-32.9582 996.855,-22.6604"/>
<polygon fill="midnightblue" stroke="midnightblue" points="573.069,-126.863 576.71,-136.813 580.069,-126.765 573.069,-126.863"/>
</g>
<!-- Node9 -->
<g id="node9" class="node"><title>Node9</title>
<g id="a_node9"><a xlink:href="$df/de2/_c_g_l_line_8cpp.xhtml" xlink:title="/home/dagal/git/DamierGL\l/DamierGL/src/CGL/CGLLine.cpp">
<polygon fill="white" stroke="black" points="386,-69 386,-99 550,-99 550,-69 386,-69"/>
<text text-anchor="start" x="394" y="-87" font-family="Helvetica,sans-Serif" font-size="10.00">/home/dagal/git/DamierGL</text>
<text text-anchor="middle" x="468" y="-76" font-family="Helvetica,sans-Serif" font-size="10.00">/DamierGL/src/CGL/CGLLine.cpp</text>
</a>
</g>
</g>
<!-- Node8&#45;&gt;Node9 -->
<g id="edge8" class="edge"><title>Node8&#45;&gt;Node9</title>
<path fill="none" stroke="midnightblue" d="M545.71,-131.626C528.361,-121.217 507.355,-108.613 491.559,-99.1352"/>
<polygon fill="midnightblue" stroke="midnightblue" points="544.027,-134.698 554.402,-136.841 547.628,-128.695 544.027,-134.698"/>
</g>
<!-- Node10&#45;&gt;Node6 -->
<g id="edge15" class="edge"><title>Node10&#45;&gt;Node6</title>
<path fill="none" stroke="midnightblue" d="M942.594,-133.966C966.449,-126.257 991.693,-115.322 1012,-100 1036.56,-81.4713 1054.64,-49.4888 1063.63,-31.1049"/>
<polygon fill="midnightblue" stroke="midnightblue" points="941.358,-130.684 932.83,-136.971 943.417,-137.374 941.358,-130.684"/>
</g>
<!-- Node11 -->
<g id="node11" class="node"><title>Node11</title>
<g id="a_node11"><a xlink:href="$db/d18/_c_g_l_position_8cpp.xhtml" xlink:title="/home/dagal/git/DamierGL\l/DamierGL/src/CGL/CGLPosition.cpp">
<polygon fill="white" stroke="black" points="822.5,-69 822.5,-99 1003.5,-99 1003.5,-69 822.5,-69"/>
<text text-anchor="start" x="830.5" y="-87" font-family="Helvetica,sans-Serif" font-size="10.00">/home/dagal/git/DamierGL</text>
<text text-anchor="middle" x="913" y="-76" font-family="Helvetica,sans-Serif" font-size="10.00">/DamierGL/src/CGL/CGLPosition.cpp</text>
</a>
</g>
</g>
<!-- Node10&#45;&gt;Node11 -->
<g id="edge11" class="edge"><title>Node10&#45;&gt;Node11</title>
<path fill="none" stroke="midnightblue" d="M880.624,-128.608C887.823,-118.912 896.036,-107.85 902.388,-99.2931"/>
<polygon fill="midnightblue" stroke="midnightblue" points="877.783,-126.563 874.632,-136.679 883.404,-130.736 877.783,-126.563"/>
</g>
<!-- Node12 -->
<g id="node12" class="node"><title>Node12</title>
<g id="a_node12"><a xlink:href="$d0/d52/_c_g_l_position_speed_8h.xhtml" xlink:title="/home/dagal/git/DamierGL\l/DamierGL/src/CGL/CGLPositionSpeed.h">
<polygon fill="white" stroke="black" points="606,-69 606,-99 804,-99 804,-69 606,-69"/>
<text text-anchor="start" x="614" y="-87" font-family="Helvetica,sans-Serif" font-size="10.00">/home/dagal/git/DamierGL</text>
<text text-anchor="middle" x="705" y="-76" font-family="Helvetica,sans-Serif" font-size="10.00">/DamierGL/src/CGL/CGLPositionSpeed.h</text>
</a>
</g>
</g>
<!-- Node10&#45;&gt;Node12 -->
<g id="edge12" class="edge"><title>Node10&#45;&gt;Node12</title>
<path fill="none" stroke="midnightblue" d="M820.371,-132.89C794.643,-122.21 762.573,-108.898 738.78,-99.0218"/>
<polygon fill="midnightblue" stroke="midnightblue" points="819.313,-136.24 829.891,-136.841 821.996,-129.775 819.313,-136.24"/>
</g>
<!-- Node12&#45;&gt;Node6 -->
<g id="edge14" class="edge"><title>Node12&#45;&gt;Node6</title>
<path fill="none" stroke="midnightblue" d="M793.078,-67.0736C855.472,-55.7914 938.188,-40.8346 996.926,-30.2133"/>
<polygon fill="midnightblue" stroke="midnightblue" points="792.072,-63.6987 782.854,-68.9223 793.317,-70.587 792.072,-63.6987"/>
</g>
<!-- Node13 -->
<g id="node13" class="node"><title>Node13</title>
<g id="a_node13"><a xlink:href="$de/d6f/_c_g_l_position_speed_8cpp.xhtml" xlink:title="/home/dagal/git/DamierGL\l/DamierGL/src/CGL/CGLPositionSpeed.cpp">
<polygon fill="white" stroke="black" points="600.5,-1 600.5,-31 809.5,-31 809.5,-1 600.5,-1"/>
<text text-anchor="start" x="608.5" y="-19" font-family="Helvetica,sans-Serif" font-size="10.00">/home/dagal/git/DamierGL</text>
<text text-anchor="middle" x="705" y="-8" font-family="Helvetica,sans-Serif" font-size="10.00">/DamierGL/src/CGL/CGLPositionSpeed.cpp</text>
</a>
</g>
</g>
<!-- Node12&#45;&gt;Node13 -->
<g id="edge13" class="edge"><title>Node12&#45;&gt;Node13</title>
<path fill="none" stroke="midnightblue" d="M705,-58.5322C705,-49.3606 705,-39.2449 705,-31.2931"/>
<polygon fill="midnightblue" stroke="midnightblue" points="701.5,-58.6789 705,-68.679 708.5,-58.679 701.5,-58.6789"/>
</g>
<!-- Node14&#45;&gt;Node6 -->
<g id="edge18" class="edge"><title>Node14&#45;&gt;Node6</title>
<path fill="none" stroke="midnightblue" d="M1056.11,-126.524C1059.65,-98.6193 1065.31,-53.9397 1068.19,-31.2372"/>
<polygon fill="midnightblue" stroke="midnightblue" points="1052.61,-126.299 1054.82,-136.66 1059.55,-127.18 1052.61,-126.299"/>
</g>
<!-- Node15 -->
<g id="node15" class="node"><title>Node15</title>
<g id="a_node15"><a xlink:href="$db/d63/_c_g_l_rotation_8cpp.xhtml" xlink:title="/home/dagal/git/DamierGL\l/DamierGL/src/CGL/CGLRotation.cpp">
<polygon fill="white" stroke="black" points="1098,-69 1098,-99 1280,-99 1280,-69 1098,-69"/>
<text text-anchor="start" x="1106" y="-87" font-family="Helvetica,sans-Serif" font-size="10.00">/home/dagal/git/DamierGL</text>
<text text-anchor="middle" x="1189" y="-76" font-family="Helvetica,sans-Serif" font-size="10.00">/DamierGL/src/CGL/CGLRotation.cpp</text>
</a>
</g>
</g>
<!-- Node14&#45;&gt;Node15 -->
<g id="edge17" class="edge"><title>Node14&#45;&gt;Node15</title>
<path fill="none" stroke="midnightblue" d="M1091.45,-132.339C1113.18,-121.796 1139.9,-108.83 1159.87,-99.1352"/>
<polygon fill="midnightblue" stroke="midnightblue" points="1089.64,-129.327 1082.18,-136.841 1092.7,-135.624 1089.64,-129.327"/>
</g>
<!-- Node16&#45;&gt;Node6 -->
<g id="edge21" class="edge"><title>Node16&#45;&gt;Node6</title>
<path fill="none" stroke="midnightblue" d="M1264.49,-130.396C1284.26,-113.065 1304.87,-87.9869 1289,-68 1270.89,-45.1836 1199.46,-31.6367 1143.03,-24.3061"/>
<polygon fill="midnightblue" stroke="midnightblue" points="1262.18,-127.763 1256.75,-136.858 1266.67,-133.136 1262.18,-127.763"/>
</g>
<!-- Node17 -->
<g id="node17" class="node"><title>Node17</title>
<g id="a_node17"><a xlink:href="$dc/d61/_c_g_l_scale_8cpp.xhtml" xlink:title="/home/dagal/git/DamierGL\l/DamierGL/src/CGL/CGLScale.cpp">
<polygon fill="white" stroke="black" points="1336,-69 1336,-99 1506,-99 1506,-69 1336,-69"/>
<text text-anchor="start" x="1344" y="-87" font-family="Helvetica,sans-Serif" font-size="10.00">/home/dagal/git/DamierGL</text>
<text text-anchor="middle" x="1421" y="-76" font-family="Helvetica,sans-Serif" font-size="10.00">/DamierGL/src/CGL/CGLScale.cpp</text>
</a>
</g>
</g>
<!-- Node16&#45;&gt;Node17 -->
<g id="edge20" class="edge"><title>Node16&#45;&gt;Node17</title>
<path fill="none" stroke="midnightblue" d="M1285.92,-133.452C1315.95,-122.68 1353.89,-109.072 1381.91,-99.0218"/>
<polygon fill="midnightblue" stroke="midnightblue" points="1284.7,-130.17 1276.47,-136.841 1287.07,-136.759 1284.7,-130.17"/>
</g>
<!-- Node19&#45;&gt;Node6 -->
<g id="edge25" class="edge"><title>Node19&#45;&gt;Node6</title>
<path fill="none" stroke="midnightblue" d="M1609.78,-199.639C1595.78,-191.256 1580.55,-180.486 1569,-168 1534.71,-130.916 1556.83,-96.3068 1515,-68 1455.99,-28.0705 1253.44,-19.1733 1143.09,-17.3412"/>
<polygon fill="midnightblue" stroke="midnightblue" points="1608.35,-202.849 1618.76,-204.796 1611.83,-196.779 1608.35,-202.849"/>
</g>
<!-- Node20 -->
<g id="node20" class="node"><title>Node20</title>
<g id="a_node20"><a xlink:href="$d4/d36/_c_g_l_polygon_8cpp.xhtml" xlink:title="/home/dagal/git/DamierGL\l/DamierGL/src/CGL/CGLPolygon.cpp">
<polygon fill="white" stroke="black" points="1578.5,-137 1578.5,-167 1759.5,-167 1759.5,-137 1578.5,-137"/>
<text text-anchor="start" x="1586.5" y="-155" font-family="Helvetica,sans-Serif" font-size="10.00">/home/dagal/git/DamierGL</text>
<text text-anchor="middle" x="1669" y="-144" font-family="Helvetica,sans-Serif" font-size="10.00">/DamierGL/src/CGL/CGLPolygon.cpp</text>
</a>
</g>
</g>
<!-- Node19&#45;&gt;Node20 -->
<g id="edge24" class="edge"><title>Node19&#45;&gt;Node20</title>
<path fill="none" stroke="midnightblue" d="M1655.6,-195.129C1658.56,-185.801 1661.87,-175.418 1664.45,-167.293"/>
<polygon fill="midnightblue" stroke="midnightblue" points="1652.25,-194.088 1652.56,-204.679 1658.92,-196.211 1652.25,-194.088"/>
</g>
<!-- Node21&#45;&gt;Node6 -->
<g id="edge28" class="edge"><title>Node21&#45;&gt;Node6</title>
<path fill="none" stroke="midnightblue" d="M1818.22,-195.942C1807.52,-177.208 1790.06,-151.442 1768,-136 1667.73,-65.8111 1301.14,-32.8149 1143.2,-21.6179"/>
<polygon fill="midnightblue" stroke="midnightblue" points="1815.17,-197.667 1823.05,-204.751 1821.31,-194.301 1815.17,-197.667"/>
</g>
<!-- Node22 -->
<g id="node22" class="node"><title>Node22</title>
<g id="a_node22"><a xlink:href="$d4/d6e/_c_g_l_quad_8cpp.xhtml" xlink:title="/home/dagal/git/DamierGL\l/DamierGL/src/CGL/CGLQuad.cpp">
<polygon fill="white" stroke="black" points="1815.5,-137 1815.5,-167 1984.5,-167 1984.5,-137 1815.5,-137"/>
<text text-anchor="start" x="1823.5" y="-155" font-family="Helvetica,sans-Serif" font-size="10.00">/home/dagal/git/DamierGL</text>
<text text-anchor="middle" x="1900" y="-144" font-family="Helvetica,sans-Serif" font-size="10.00">/DamierGL/src/CGL/CGLQuad.cpp</text>
</a>
</g>
</g>
<!-- Node21&#45;&gt;Node22 -->
<g id="edge27" class="edge"><title>Node21&#45;&gt;Node22</title>
<path fill="none" stroke="midnightblue" d="M1852.51,-197.776C1863.08,-187.81 1875.4,-176.196 1884.84,-167.293"/>
<polygon fill="midnightblue" stroke="midnightblue" points="1850.06,-195.272 1845.19,-204.679 1854.87,-200.365 1850.06,-195.272"/>
</g>
<!-- Node23&#45;&gt;Node6 -->
<g id="edge31" class="edge"><title>Node23&#45;&gt;Node6</title>
<path fill="none" stroke="midnightblue" d="M2013.12,-194.583C2012.58,-175.936 2008.6,-150.972 1993,-136 1931.83,-77.3079 1350.6,-34.8689 1143.14,-21.4813"/>
<polygon fill="midnightblue" stroke="midnightblue" points="2009.62,-194.704 2013.1,-204.709 2016.62,-194.715 2009.62,-194.704"/>
</g>
<!-- Node24 -->
<g id="node24" class="node"><title>Node24</title>
<g id="a_node24"><a xlink:href="$d7/da9/_c_g_l_triangle_8cpp.xhtml" xlink:title="/home/dagal/git/DamierGL\l/DamierGL/src/CGL/CGLTriangle.cpp">
<polygon fill="white" stroke="black" points="2040,-137 2040,-167 2220,-167 2220,-137 2040,-137"/>
<text text-anchor="start" x="2048" y="-155" font-family="Helvetica,sans-Serif" font-size="10.00">/home/dagal/git/DamierGL</text>
<text text-anchor="middle" x="2130" y="-144" font-family="Helvetica,sans-Serif" font-size="10.00">/DamierGL/src/CGL/CGLTriangle.cpp</text>
</a>
</g>
</g>
<!-- Node23&#45;&gt;Node24 -->
<g id="edge30" class="edge"><title>Node23&#45;&gt;Node24</title>
<path fill="none" stroke="midnightblue" d="M2046.13,-199.912C2064.84,-189.448 2087.63,-176.7 2104.73,-167.135"/>
<polygon fill="midnightblue" stroke="midnightblue" points="2044.33,-196.905 2037.31,-204.841 2047.75,-203.014 2044.33,-196.905"/>
</g>
</g>
</svg>
