<?xml version="1.0" encoding="UTF-8" standalone="no"?>
<!DOCTYPE svg PUBLIC "-//W3C//DTD SVG 1.1//EN"
 "http://www.w3.org/Graphics/SVG/1.1/DTD/svg11.dtd">
<!-- Generated by graphviz version 2.36.0 (20140111.2315)
 -->
<!-- Title: CGLVector3D::getY Pages: 1 -->
<svg width="376pt" height="66pt"
 viewBox="0.00 0.00 376.00 66.00" xmlns="http://www.w3.org/2000/svg" xmlns:xlink="http://www.w3.org/1999/xlink">
<g id="graph0" class="graph" transform="scale(1 1) rotate(0) translate(4 62)">
<title>CGLVector3D::getY</title>
<polygon fill="white" stroke="none" points="-4,4 -4,-62 372,-62 372,4 -4,4"/>
<!-- Node1 -->
<g id="node1" class="node"><title>Node1</title>
<polygon fill="#bfbfbf" stroke="black" points="0,-19.5 0,-38.5 104,-38.5 104,-19.5 0,-19.5"/>
<text text-anchor="middle" x="52" y="-26.5" font-family="Helvetica,sans-Serif" font-size="10.00">CGLVector3D::getY</text>
</g>
<!-- Node2 -->
<g id="node2" class="node"><title>Node2</title>
<g id="a_node2"><a xlink:href="$d9/dfe/class_c_g_l_line.xhtml#a9621fa37a8b87f06e2a67aa8bf17d957" xlink:title="CGLLine::drawObject">
<polygon fill="white" stroke="black" points="149,-38.5 149,-57.5 259,-57.5 259,-38.5 149,-38.5"/>
<text text-anchor="middle" x="204" y="-45.5" font-family="Helvetica,sans-Serif" font-size="10.00">CGLLine::drawObject</text>
</a>
</g>
</g>
<!-- Node1&#45;&gt;Node2 -->
<g id="edge1" class="edge"><title>Node1&#45;&gt;Node2</title>
<path fill="none" stroke="midnightblue" d="M114.182,-36.7497C125.703,-38.209 137.674,-39.7254 148.958,-41.1546"/>
<polygon fill="midnightblue" stroke="midnightblue" points="114.563,-33.27 104.202,-35.4856 113.683,-40.2145 114.563,-33.27"/>
</g>
<!-- Node3 -->
<g id="node3" class="node"><title>Node3</title>
<g id="a_node3"><a xlink:href="$d6/df9/class_c_g_l_vector3_d.xhtml#a339da32afa5a535aec027aba6b92e9b5" xlink:title="CGLVector3D::isEqualTo">
<polygon fill="white" stroke="black" points="140,-0.5 140,-19.5 268,-19.5 268,-0.5 140,-0.5"/>
<text text-anchor="middle" x="204" y="-7.5" font-family="Helvetica,sans-Serif" font-size="10.00">CGLVector3D::isEqualTo</text>
</a>
</g>
</g>
<!-- Node1&#45;&gt;Node3 -->
<g id="edge2" class="edge"><title>Node1&#45;&gt;Node3</title>
<path fill="none" stroke="midnightblue" d="M114.315,-21.2334C122.727,-20.1679 131.377,-19.0722 139.822,-18.0025"/>
<polygon fill="midnightblue" stroke="midnightblue" points="113.683,-17.7855 104.202,-22.5144 114.563,-24.73 113.683,-17.7855"/>
</g>
<!-- Node4 -->
<g id="node4" class="node"><title>Node4</title>
<g id="a_node4"><a xlink:href="$dd/d83/_c_g_l_vector3_d_8h.xhtml#a2f5d20f2c4f87eb1c2e00a7b9537c13e" xlink:title="operator==">
<polygon fill="white" stroke="black" points="304,-0.5 304,-19.5 368,-19.5 368,-0.5 304,-0.5"/>
<text text-anchor="middle" x="336" y="-7.5" font-family="Helvetica,sans-Serif" font-size="10.00">operator==</text>
</a>
</g>
</g>
<!-- Node3&#45;&gt;Node4 -->
<g id="edge3" class="edge"><title>Node3&#45;&gt;Node4</title>
<path fill="none" stroke="midnightblue" d="M278.269,-10C287.231,-10 295.981,-10 303.82,-10"/>
<polygon fill="midnightblue" stroke="midnightblue" points="278.096,-6.5001 268.096,-10 278.096,-13.5001 278.096,-6.5001"/>
</g>
</g>
</svg>
