<?xml version="1.0" encoding="UTF-8" standalone="no"?>
<!DOCTYPE svg PUBLIC "-//W3C//DTD SVG 1.1//EN"
 "http://www.w3.org/Graphics/SVG/1.1/DTD/svg11.dtd">
<!-- Generated by graphviz version 2.36.0 (20140111.2315)
 -->
<!-- Title: CGLVector3D::isEqualTo Pages: 1 -->
<svg width="276pt" height="104pt"
 viewBox="0.00 0.00 276.00 104.00" xmlns="http://www.w3.org/2000/svg" xmlns:xlink="http://www.w3.org/1999/xlink">
<g id="graph0" class="graph" transform="scale(1 1) rotate(0) translate(4 100)">
<title>CGLVector3D::isEqualTo</title>
<polygon fill="white" stroke="none" points="-4,4 -4,-100 272,-100 272,4 -4,4"/>
<!-- Node1 -->
<g id="node1" class="node"><title>Node1</title>
<polygon fill="#bfbfbf" stroke="black" points="0,-38.5 0,-57.5 128,-57.5 128,-38.5 0,-38.5"/>
<text text-anchor="middle" x="64" y="-45.5" font-family="Helvetica,sans-Serif" font-size="10.00">CGLVector3D::isEqualTo</text>
</g>
<!-- Node2 -->
<g id="node2" class="node"><title>Node2</title>
<g id="a_node2"><a xlink:href="$d6/df9/class_c_g_l_vector3_d.xhtml#ae470e77a525525e5e51b67324c1b1dea" xlink:title="CGLVector3D::getX">
<polygon fill="white" stroke="black" points="164,-76.5 164,-95.5 268,-95.5 268,-76.5 164,-76.5"/>
<text text-anchor="middle" x="216" y="-83.5" font-family="Helvetica,sans-Serif" font-size="10.00">CGLVector3D::getX</text>
</a>
</g>
</g>
<!-- Node1&#45;&gt;Node2 -->
<g id="edge1" class="edge"><title>Node1&#45;&gt;Node2</title>
<path fill="none" stroke="midnightblue" d="M102.851,-57.589C122.467,-62.5583 146.619,-68.6767 167.479,-73.9613"/>
<polygon fill="midnightblue" stroke="midnightblue" points="166.868,-77.4169 177.421,-76.4799 168.587,-70.6313 166.868,-77.4169"/>
</g>
<!-- Node3 -->
<g id="node3" class="node"><title>Node3</title>
<g id="a_node3"><a xlink:href="$d6/df9/class_c_g_l_vector3_d.xhtml#aee1aa1bba3345d1e1c3983330b66fe4a" xlink:title="CGLVector3D::getY">
<polygon fill="white" stroke="black" points="164,-38.5 164,-57.5 268,-57.5 268,-38.5 164,-38.5"/>
<text text-anchor="middle" x="216" y="-45.5" font-family="Helvetica,sans-Serif" font-size="10.00">CGLVector3D::getY</text>
</a>
</g>
</g>
<!-- Node1&#45;&gt;Node3 -->
<g id="edge2" class="edge"><title>Node1&#45;&gt;Node3</title>
<path fill="none" stroke="midnightblue" d="M128.179,-48C136.603,-48 145.232,-48 153.625,-48"/>
<polygon fill="midnightblue" stroke="midnightblue" points="153.716,-51.5001 163.716,-48 153.716,-44.5001 153.716,-51.5001"/>
</g>
<!-- Node4 -->
<g id="node4" class="node"><title>Node4</title>
<g id="a_node4"><a xlink:href="$d6/df9/class_c_g_l_vector3_d.xhtml#a374bca193aae71220f1349a6ab0778ee" xlink:title="CGLVector3D::getZ">
<polygon fill="white" stroke="black" points="164,-0.5 164,-19.5 268,-19.5 268,-0.5 164,-0.5"/>
<text text-anchor="middle" x="216" y="-7.5" font-family="Helvetica,sans-Serif" font-size="10.00">CGLVector3D::getZ</text>
</a>
</g>
</g>
<!-- Node1&#45;&gt;Node4 -->
<g id="edge3" class="edge"><title>Node1&#45;&gt;Node4</title>
<path fill="none" stroke="midnightblue" d="M102.851,-38.411C122.467,-33.4417 146.619,-27.3233 167.479,-22.0387"/>
<polygon fill="midnightblue" stroke="midnightblue" points="168.587,-25.3687 177.421,-19.5201 166.868,-18.5831 168.587,-25.3687"/>
</g>
</g>
</svg>
