<?xml version="1.0" encoding="UTF-8" standalone="no"?>
<!DOCTYPE svg PUBLIC "-//W3C//DTD SVG 1.1//EN"
 "http://www.w3.org/Graphics/SVG/1.1/DTD/svg11.dtd">
<!-- Generated by graphviz version 2.36.0 (20140111.2315)
 -->
<!-- Title: CGLVector3D::setZ Pages: 1 -->
<svg width="538pt" height="264pt"
 viewBox="0.00 0.00 538.00 263.55" xmlns="http://www.w3.org/2000/svg" xmlns:xlink="http://www.w3.org/1999/xlink">
<g id="graph0" class="graph" transform="scale(1 1) rotate(0) translate(4 259.546)">
<title>CGLVector3D::setZ</title>
<polygon fill="white" stroke="none" points="-4,4 -4,-259.546 534,-259.546 534,4 -4,4"/>
<!-- Node1 -->
<g id="node1" class="node"><title>Node1</title>
<polygon fill="#bfbfbf" stroke="black" points="0,-160.046 0,-179.046 104,-179.046 104,-160.046 0,-160.046"/>
<text text-anchor="middle" x="52" y="-167.046" font-family="Helvetica,sans-Serif" font-size="10.00">CGLVector3D::setZ</text>
</g>
<!-- Node2 -->
<g id="node2" class="node"><title>Node2</title>
<g id="a_node2"><a xlink:href="$d7/dd6/class_c_g_l_color.xhtml#ac898e4d49846a3b3788daeb535c5bccc" xlink:title="CGLColor::setB">
<polygon fill="white" stroke="black" points="170,-236.046 170,-255.046 256,-255.046 256,-236.046 170,-236.046"/>
<text text-anchor="middle" x="213" y="-243.046" font-family="Helvetica,sans-Serif" font-size="10.00">CGLColor::setB</text>
</a>
</g>
</g>
<!-- Node1&#45;&gt;Node2 -->
<g id="edge1" class="edge"><title>Node1&#45;&gt;Node2</title>
<path fill="none" stroke="midnightblue" d="M73.0019,-185.353C89.9743,-198.081 115.418,-215.598 140,-226.546 149.33,-230.702 159.758,-234.102 169.718,-236.817"/>
<polygon fill="midnightblue" stroke="midnightblue" points="75.0176,-182.488 64.948,-179.193 70.7651,-188.048 75.0176,-182.488"/>
</g>
<!-- Node3 -->
<g id="node3" class="node"><title>Node3</title>
<g id="a_node3"><a xlink:href="$d4/dd5/class_c_g_l_rotation.xhtml#a2b767e088f36ceef91e7259c76f7390e" xlink:title="CGLRotation::set">
<polygon fill="white" stroke="black" points="166.5,-198.046 166.5,-217.046 259.5,-217.046 259.5,-198.046 166.5,-198.046"/>
<text text-anchor="middle" x="213" y="-205.046" font-family="Helvetica,sans-Serif" font-size="10.00">CGLRotation::set</text>
</a>
</g>
</g>
<!-- Node1&#45;&gt;Node3 -->
<g id="edge2" class="edge"><title>Node1&#45;&gt;Node3</title>
<path fill="none" stroke="midnightblue" d="M103.077,-181.514C125.358,-186.839 151.229,-193.023 172.166,-198.026"/>
<polygon fill="midnightblue" stroke="midnightblue" points="103.662,-178.056 93.1224,-179.135 102.035,-184.864 103.662,-178.056"/>
</g>
<!-- Node5 -->
<g id="node5" class="node"><title>Node5</title>
<g id="a_node5"><a xlink:href="$d6/df9/class_c_g_l_vector3_d.xhtml#a23c221e455e1b5e4733c0e9baf68c1f3" xlink:title="CGLVector3D::CGLVector3D">
<polygon fill="white" stroke="black" points="140,-160.046 140,-179.046 286,-179.046 286,-160.046 140,-160.046"/>
<text text-anchor="middle" x="213" y="-167.046" font-family="Helvetica,sans-Serif" font-size="10.00">CGLVector3D::CGLVector3D</text>
</a>
</g>
</g>
<!-- Node1&#45;&gt;Node5 -->
<g id="edge4" class="edge"><title>Node1&#45;&gt;Node5</title>
<path fill="none" stroke="midnightblue" d="M114.22,-169.546C122.585,-169.546 131.237,-169.546 139.775,-169.546"/>
<polygon fill="midnightblue" stroke="midnightblue" points="114.184,-166.046 104.184,-169.546 114.184,-173.046 114.184,-166.046"/>
</g>
<!-- Node6 -->
<g id="node6" class="node"><title>Node6</title>
<g id="a_node6"><a xlink:href="$d6/df9/class_c_g_l_vector3_d.xhtml#a15014f4427c214f64699590591cacc8f" xlink:title="CGLVector3D::set">
<polygon fill="white" stroke="black" points="164,-122.046 164,-141.046 262,-141.046 262,-122.046 164,-122.046"/>
<text text-anchor="middle" x="213" y="-129.046" font-family="Helvetica,sans-Serif" font-size="10.00">CGLVector3D::set</text>
</a>
</g>
</g>
<!-- Node1&#45;&gt;Node6 -->
<g id="edge5" class="edge"><title>Node1&#45;&gt;Node6</title>
<path fill="none" stroke="midnightblue" d="M103.077,-157.578C125.358,-152.253 151.229,-146.07 172.166,-141.066"/>
<polygon fill="midnightblue" stroke="midnightblue" points="102.035,-154.229 93.1224,-159.957 103.662,-161.037 102.035,-154.229"/>
</g>
<!-- Node12 -->
<g id="node12" class="node"><title>Node12</title>
<g id="a_node12"><a xlink:href="$db/d79/class_c_g_l_vector4_d.xhtml#a9f4c89b5e30ad2cfb18327e5e17257ab" xlink:title="CGLVector4D::set">
<polygon fill="white" stroke="black" points="164,-46.0464 164,-65.0464 262,-65.0464 262,-46.0464 164,-46.0464"/>
<text text-anchor="middle" x="213" y="-53.0464" font-family="Helvetica,sans-Serif" font-size="10.00">CGLVector4D::set</text>
</a>
</g>
</g>
<!-- Node1&#45;&gt;Node12 -->
<g id="edge14" class="edge"><title>Node1&#45;&gt;Node12</title>
<path fill="none" stroke="midnightblue" d="M74.437,-154.176C107.691,-130.334 170.755,-85.1183 198.418,-65.2844"/>
<polygon fill="midnightblue" stroke="midnightblue" points="72.3703,-151.352 66.2828,-160.023 76.4492,-157.04 72.3703,-151.352"/>
</g>
<!-- Node4 -->
<g id="node4" class="node"><title>Node4</title>
<g id="a_node4"><a xlink:href="$db/dec/_damier_g_l_8cpp.xhtml#a0ddf1224851353fc92bfbff6f499fa97" xlink:title="main">
<polygon fill="white" stroke="black" points="492,-103.046 492,-122.046 530,-122.046 530,-103.046 492,-103.046"/>
<text text-anchor="middle" x="511" y="-110.046" font-family="Helvetica,sans-Serif" font-size="10.00">main</text>
</a>
</g>
</g>
<!-- Node3&#45;&gt;Node4 -->
<g id="edge3" class="edge"><title>Node3&#45;&gt;Node4</title>
<path fill="none" stroke="midnightblue" d="M260.933,-219.517C284.332,-225.261 310.121,-231.189 322,-232.546 381.171,-239.305 405.988,-264.883 456,-232.546 495.137,-207.241 506.19,-146.065 509.065,-122.256"/>
<polygon fill="midnightblue" stroke="midnightblue" points="261.648,-216.089 251.099,-217.081 259.964,-222.883 261.648,-216.089"/>
</g>
<!-- Node6&#45;&gt;Node4 -->
<g id="edge13" class="edge"><title>Node6&#45;&gt;Node4</title>
<path fill="none" stroke="midnightblue" d="M272.069,-142.635C277.014,-144.816 281.744,-147.425 286,-150.546 310.162,-168.265 295.759,-193.083 322,-207.546 374.158,-236.294 404.524,-237.497 456,-207.546 488.467,-188.656 503.015,-142.157 507.94,-122.057"/>
<polygon fill="midnightblue" stroke="midnightblue" points="272.956,-139.228 262.365,-138.948 270.469,-145.772 272.956,-139.228"/>
</g>
<!-- Node7 -->
<g id="node7" class="node"><title>Node7</title>
<g id="a_node7"><a xlink:href="$d9/dfe/class_c_g_l_line.xhtml#ab220112ce9d381cc057e6cff09fd95a7" xlink:title="CGLLine::CGLLine">
<polygon fill="white" stroke="black" points="339.5,-179.046 339.5,-198.046 438.5,-198.046 438.5,-179.046 339.5,-179.046"/>
<text text-anchor="middle" x="389" y="-186.046" font-family="Helvetica,sans-Serif" font-size="10.00">CGLLine::CGLLine</text>
</a>
</g>
</g>
<!-- Node6&#45;&gt;Node7 -->
<g id="edge6" class="edge"><title>Node6&#45;&gt;Node7</title>
<path fill="none" stroke="midnightblue" d="M266.466,-143.891C273.116,-145.893 279.769,-148.117 286,-150.546 302.855,-157.119 305.219,-162.786 322,-169.546 330.848,-173.111 340.611,-176.303 349.854,-179.007"/>
<polygon fill="midnightblue" stroke="midnightblue" points="267.351,-140.504 256.774,-141.119 265.426,-147.234 267.351,-140.504"/>
</g>
<!-- Node8 -->
<g id="node8" class="node"><title>Node8</title>
<g id="a_node8"><a xlink:href="$de/d31/class_c_g_l_position.xhtml#ab32bdd49fc31414e874917568e5d37d2" xlink:title="CGLPosition::CGLPosition">
<polygon fill="white" stroke="black" points="322,-141.046 322,-160.046 456,-160.046 456,-141.046 322,-141.046"/>
<text text-anchor="middle" x="389" y="-148.046" font-family="Helvetica,sans-Serif" font-size="10.00">CGLPosition::CGLPosition</text>
</a>
</g>
</g>
<!-- Node6&#45;&gt;Node8 -->
<g id="edge7" class="edge"><title>Node6&#45;&gt;Node8</title>
<path fill="none" stroke="midnightblue" d="M272.246,-137.907C288.184,-139.647 305.573,-141.546 321.916,-143.33"/>
<polygon fill="midnightblue" stroke="midnightblue" points="272.328,-134.395 262.007,-136.789 271.568,-141.353 272.328,-134.395"/>
</g>
<!-- Node9 -->
<g id="node9" class="node"><title>Node9</title>
<g id="a_node9"><a xlink:href="$de/d31/class_c_g_l_position.xhtml#a729e7b3f01b8c735d60d8c51b6610eef" xlink:title="CGLPosition::setSpeed">
<polygon fill="white" stroke="black" points="329.5,-103.046 329.5,-122.046 448.5,-122.046 448.5,-103.046 329.5,-103.046"/>
<text text-anchor="middle" x="389" y="-110.046" font-family="Helvetica,sans-Serif" font-size="10.00">CGLPosition::setSpeed</text>
</a>
</g>
</g>
<!-- Node6&#45;&gt;Node9 -->
<g id="edge8" class="edge"><title>Node6&#45;&gt;Node9</title>
<path fill="none" stroke="midnightblue" d="M272.018,-125.211C290.445,-123.199 310.83,-120.973 329.305,-118.956"/>
<polygon fill="midnightblue" stroke="midnightblue" points="271.568,-121.739 262.007,-126.304 272.328,-128.698 271.568,-121.739"/>
</g>
<!-- Node10 -->
<g id="node10" class="node"><title>Node10</title>
<g id="a_node10"><a xlink:href="$de/d31/class_c_g_l_position.xhtml#a5a43a8991d3d8ca645edbcfb0e97db20" xlink:title="CGLPosition::setAccel">
<polygon fill="white" stroke="black" points="331,-65.0464 331,-84.0464 447,-84.0464 447,-65.0464 331,-65.0464"/>
<text text-anchor="middle" x="389" y="-72.0464" font-family="Helvetica,sans-Serif" font-size="10.00">CGLPosition::setAccel</text>
</a>
</g>
</g>
<!-- Node6&#45;&gt;Node10 -->
<g id="edge10" class="edge"><title>Node6&#45;&gt;Node10</title>
<path fill="none" stroke="midnightblue" d="M249.516,-118.466C270.5,-110.884 297.646,-101.329 322,-93.5464 332.108,-90.316 343.165,-87.0354 353.29,-84.1298"/>
<polygon fill="midnightblue" stroke="midnightblue" points="248.25,-115.202 240.045,-121.905 250.639,-121.782 248.25,-115.202"/>
</g>
<!-- Node11 -->
<g id="node11" class="node"><title>Node11</title>
<g id="a_node11"><a xlink:href="$de/d31/class_c_g_l_position.xhtml#a439ae873ba7ef56826a27eb7b15b0b6f" xlink:title="CGLPosition::drawObject">
<polygon fill="white" stroke="black" points="325,-27.0464 325,-46.0464 453,-46.0464 453,-27.0464 325,-27.0464"/>
<text text-anchor="middle" x="389" y="-34.0464" font-family="Helvetica,sans-Serif" font-size="10.00">CGLPosition::drawObject</text>
</a>
</g>
</g>
<!-- Node6&#45;&gt;Node11 -->
<g id="edge12" class="edge"><title>Node6&#45;&gt;Node11</title>
<path fill="none" stroke="midnightblue" d="M232.547,-115.56C253.153,-98.5283 288.016,-71.8266 322,-55.5464 329.742,-51.8373 338.351,-48.7116 346.725,-46.1346"/>
<polygon fill="midnightblue" stroke="midnightblue" points="230.289,-112.885 224.881,-121.996 234.79,-118.246 230.289,-112.885"/>
</g>
<!-- Node9&#45;&gt;Node4 -->
<g id="edge9" class="edge"><title>Node9&#45;&gt;Node4</title>
<path fill="none" stroke="midnightblue" d="M458.875,-112.546C471.028,-112.546 482.685,-112.546 491.791,-112.546"/>
<polygon fill="midnightblue" stroke="midnightblue" points="458.594,-109.046 448.594,-112.546 458.594,-116.046 458.594,-109.046"/>
</g>
<!-- Node10&#45;&gt;Node4 -->
<g id="edge11" class="edge"><title>Node10&#45;&gt;Node4</title>
<path fill="none" stroke="midnightblue" d="M434.418,-86.9507C441.653,-89.0809 449.05,-91.3255 456,-93.5464 467.928,-97.3582 481.196,-102.021 491.595,-105.773"/>
<polygon fill="midnightblue" stroke="midnightblue" points="435.29,-83.5594 424.71,-84.1298 433.336,-90.2813 435.29,-83.5594"/>
</g>
<!-- Node12&#45;&gt;Node4 -->
<g id="edge15" class="edge"><title>Node12&#45;&gt;Node4</title>
<path fill="none" stroke="midnightblue" d="M240.045,-41.1632C286.698,-17.519 386.162,23.088 456,-17.5464 488.467,-36.4373 503.015,-82.9358 507.94,-103.036"/>
<polygon fill="midnightblue" stroke="midnightblue" points="238.173,-38.1919 230.921,-45.9158 241.407,-44.4002 238.173,-38.1919"/>
</g>
</g>
</svg>
