<?xml version="1.0" encoding="UTF-8" standalone="no"?>
<!DOCTYPE svg PUBLIC "-//W3C//DTD SVG 1.1//EN"
 "http://www.w3.org/Graphics/SVG/1.1/DTD/svg11.dtd">
<!-- Generated by graphviz version 2.36.0 (20140111.2315)
 -->
<!-- Title: CGLQuad Pages: 1 -->
<svg width="216pt" height="534pt"
 viewBox="0.00 0.00 216.00 534.00" xmlns="http://www.w3.org/2000/svg" xmlns:xlink="http://www.w3.org/1999/xlink">
<g id="graph0" class="graph" transform="scale(1 1) rotate(0) translate(4 530)">
<title>CGLQuad</title>
<polygon fill="white" stroke="none" points="-4,4 -4,-530 212,-530 212,4 -4,4"/>
<!-- Node1 -->
<g id="node1" class="node"><title>Node1</title>
<polygon fill="#bfbfbf" stroke="black" points="91.5,-0.5 91.5,-79.5 172.5,-79.5 172.5,-0.5 91.5,-0.5"/>
<text text-anchor="middle" x="132" y="-67.5" font-family="Helvetica,sans-Serif" font-size="10.00">CGLQuad</text>
<polyline fill="none" stroke="black" points="91.5,-60.5 172.5,-60.5 "/>
<text text-anchor="middle" x="132" y="-48.5" font-family="Helvetica,sans-Serif" font-size="10.00"> </text>
<polyline fill="none" stroke="black" points="91.5,-41.5 172.5,-41.5 "/>
<text text-anchor="start" x="99.5" y="-29.5" font-family="Helvetica,sans-Serif" font-size="10.00">+ CGLQuad()</text>
<text text-anchor="start" x="99.5" y="-18.5" font-family="Helvetica,sans-Serif" font-size="10.00">+ ~CGLQuad()</text>
<text text-anchor="start" x="99.5" y="-7.5" font-family="Helvetica,sans-Serif" font-size="10.00">+ drawObject()</text>
</g>
<!-- Node2 -->
<g id="node2" class="node"><title>Node2</title>
<g id="a_node2"><a xlink:href="../../d7/d2f/class_c_g_l_item.xhtml" target="_top" xlink:title="{CGLItem\n||+ CGLItem()\l+ ~CGLItem()\l}">
<polygon fill="white" stroke="black" points="14.5,-162 14.5,-230 91.5,-230 91.5,-162 14.5,-162"/>
<text text-anchor="middle" x="53" y="-218" font-family="Helvetica,sans-Serif" font-size="10.00">CGLItem</text>
<polyline fill="none" stroke="black" points="14.5,-211 91.5,-211 "/>
<text text-anchor="middle" x="53" y="-199" font-family="Helvetica,sans-Serif" font-size="10.00"> </text>
<polyline fill="none" stroke="black" points="14.5,-192 91.5,-192 "/>
<text text-anchor="start" x="22.5" y="-180" font-family="Helvetica,sans-Serif" font-size="10.00">+ CGLItem()</text>
<text text-anchor="start" x="22.5" y="-169" font-family="Helvetica,sans-Serif" font-size="10.00">+ ~CGLItem()</text>
</a>
</g>
</g>
<!-- Node2&#45;&gt;Node1 -->
<g id="edge1" class="edge"><title>Node2&#45;&gt;Node1</title>
<path fill="none" stroke="midnightblue" d="M74.6246,-152.846C86.3423,-130.004 100.72,-101.977 112.151,-79.6937"/>
<polygon fill="none" stroke="midnightblue" points="71.3977,-151.468 69.9475,-161.963 77.626,-154.663 71.3977,-151.468"/>
</g>
<!-- Node3 -->
<g id="node3" class="node"><title>Node3</title>
<g id="a_node3"><a xlink:href="../../d2/d76/class_c_g_l_object.xhtml" target="_top" xlink:title="{CGLObject\n|# objectType\l# name\l# matrixSaved\l# children\l# iterCurrentObject\l|+ addObject()\l+ setName()\l+ getName()\l+ getCurrentObject()\l+ isChild()\l+ draw()\l+ drawObject()\l+ drawChildren()\l+ drawCenter()\l+ CGLObject()\l+ ~CGLObject()\l+ init()\l}">
<polygon fill="white" stroke="black" points="0,-303 0,-525 106,-525 106,-303 0,-303"/>
<text text-anchor="middle" x="53" y="-513" font-family="Helvetica,sans-Serif" font-size="10.00">CGLObject</text>
<polyline fill="none" stroke="black" points="0,-506 106,-506 "/>
<text text-anchor="start" x="8" y="-494" font-family="Helvetica,sans-Serif" font-size="10.00"># objectType</text>
<text text-anchor="start" x="8" y="-483" font-family="Helvetica,sans-Serif" font-size="10.00"># name</text>
<text text-anchor="start" x="8" y="-472" font-family="Helvetica,sans-Serif" font-size="10.00"># matrixSaved</text>
<text text-anchor="start" x="8" y="-461" font-family="Helvetica,sans-Serif" font-size="10.00"># children</text>
<text text-anchor="start" x="8" y="-450" font-family="Helvetica,sans-Serif" font-size="10.00"># iterCurrentObject</text>
<polyline fill="none" stroke="black" points="0,-443 106,-443 "/>
<text text-anchor="start" x="8" y="-431" font-family="Helvetica,sans-Serif" font-size="10.00">+ addObject()</text>
<text text-anchor="start" x="8" y="-420" font-family="Helvetica,sans-Serif" font-size="10.00">+ setName()</text>
<text text-anchor="start" x="8" y="-409" font-family="Helvetica,sans-Serif" font-size="10.00">+ getName()</text>
<text text-anchor="start" x="8" y="-398" font-family="Helvetica,sans-Serif" font-size="10.00">+ getCurrentObject()</text>
<text text-anchor="start" x="8" y="-387" font-family="Helvetica,sans-Serif" font-size="10.00">+ isChild()</text>
<text text-anchor="start" x="8" y="-376" font-family="Helvetica,sans-Serif" font-size="10.00">+ draw()</text>
<text text-anchor="start" x="8" y="-365" font-family="Helvetica,sans-Serif" font-size="10.00">+ drawObject()</text>
<text text-anchor="start" x="8" y="-354" font-family="Helvetica,sans-Serif" font-size="10.00">+ drawChildren()</text>
<text text-anchor="start" x="8" y="-343" font-family="Helvetica,sans-Serif" font-size="10.00">+ drawCenter()</text>
<text text-anchor="start" x="8" y="-332" font-family="Helvetica,sans-Serif" font-size="10.00">+ CGLObject()</text>
<text text-anchor="start" x="8" y="-321" font-family="Helvetica,sans-Serif" font-size="10.00">+ ~CGLObject()</text>
<text text-anchor="start" x="8" y="-310" font-family="Helvetica,sans-Serif" font-size="10.00">+ init()</text>
</a>
</g>
</g>
<!-- Node3&#45;&gt;Node2 -->
<g id="edge2" class="edge"><title>Node3&#45;&gt;Node2</title>
<path fill="none" stroke="midnightblue" d="M53,-292.591C53,-269.71 53,-247.582 53,-230.388"/>
<polygon fill="none" stroke="midnightblue" points="49.5001,-292.785 53,-302.785 56.5001,-292.785 49.5001,-292.785"/>
</g>
<!-- Node3&#45;&gt;Node3 -->
<g id="edge3" class="edge"><title>Node3&#45;&gt;Node3</title>
<path fill="none" stroke="#404040" d="M106.111,-437.124C116.021,-434.276 123,-426.568 123,-414 123,-406.734 120.667,-401.092 116.784,-397.075"/>
<polygon fill="none" stroke="#404040" points="116.488,-396.903 109.291,-397.349 106.111,-390.876 113.309,-390.431 116.488,-396.903"/>
<text text-anchor="middle" x="155" y="-422.5" font-family="Helvetica,sans-Serif" font-size="10.00"> +garbage</text>
<text text-anchor="middle" x="155" y="-411.5" font-family="Helvetica,sans-Serif" font-size="10.00">#currentObject</text>
<text text-anchor="middle" x="155" y="-400.5" font-family="Helvetica,sans-Serif" font-size="10.00">#parentObject</text>
</g>
<!-- Node4 -->
<g id="node4" class="node"><title>Node4</title>
<g id="a_node4"><a xlink:href="../../d8/d97/class_c_g_l_vector2_d.xhtml" target="_top" xlink:title="{CGLVector2D\n|# x\l# y\l|+ CGLVector2D()\l+ ~CGLVector2D()\l+ set()\l+ setX()\l+ getX()\l+ setY()\l+ getY()\l}">
<polygon fill="white" stroke="black" points="109.5,-129 109.5,-263 208.5,-263 208.5,-129 109.5,-129"/>
<text text-anchor="middle" x="159" y="-251" font-family="Helvetica,sans-Serif" font-size="10.00">CGLVector2D</text>
<polyline fill="none" stroke="black" points="109.5,-244 208.5,-244 "/>
<text text-anchor="start" x="117.5" y="-232" font-family="Helvetica,sans-Serif" font-size="10.00"># x</text>
<text text-anchor="start" x="117.5" y="-221" font-family="Helvetica,sans-Serif" font-size="10.00"># y</text>
<polyline fill="none" stroke="black" points="109.5,-214 208.5,-214 "/>
<text text-anchor="start" x="117.5" y="-202" font-family="Helvetica,sans-Serif" font-size="10.00">+ CGLVector2D()</text>
<text text-anchor="start" x="117.5" y="-191" font-family="Helvetica,sans-Serif" font-size="10.00">+ ~CGLVector2D()</text>
<text text-anchor="start" x="117.5" y="-180" font-family="Helvetica,sans-Serif" font-size="10.00">+ set()</text>
<text text-anchor="start" x="117.5" y="-169" font-family="Helvetica,sans-Serif" font-size="10.00">+ setX()</text>
<text text-anchor="start" x="117.5" y="-158" font-family="Helvetica,sans-Serif" font-size="10.00">+ getX()</text>
<text text-anchor="start" x="117.5" y="-147" font-family="Helvetica,sans-Serif" font-size="10.00">+ setY()</text>
<text text-anchor="start" x="117.5" y="-136" font-family="Helvetica,sans-Serif" font-size="10.00">+ getY()</text>
</a>
</g>
</g>
<!-- Node4&#45;&gt;Node1 -->
<g id="edge4" class="edge"><title>Node4&#45;&gt;Node1</title>
<path fill="none" stroke="#404040" d="M147.393,-128.796C145.208,-116.332 142.955,-103.483 140.87,-91.5908"/>
<polygon fill="none" stroke="#404040" points="140.84,-91.4196 135.864,-86.2005 138.768,-79.5999 143.744,-84.8189 140.84,-91.4196"/>
<text text-anchor="middle" x="160.5" y="-101.5" font-family="Helvetica,sans-Serif" font-size="10.00"> #points</text>
</g>
</g>
</svg>
