<?xml version="1.0" encoding="UTF-8" standalone="no"?>
<!DOCTYPE svg PUBLIC "-//W3C//DTD SVG 1.1//EN"
 "http://www.w3.org/Graphics/SVG/1.1/DTD/svg11.dtd">
<!-- Generated by graphviz version 2.36.0 (20140111.2315)
 -->
<!-- Title: main Pages: 1 -->
<svg width="202pt" height="104pt"
 viewBox="0.00 0.00 202.00 104.00" xmlns="http://www.w3.org/2000/svg" xmlns:xlink="http://www.w3.org/1999/xlink">
<g id="graph0" class="graph" transform="scale(1 1) rotate(0) translate(4 100)">
<title>main</title>
<polygon fill="white" stroke="none" points="-4,4 -4,-100 198,-100 198,4 -4,4"/>
<!-- Node1 -->
<g id="node1" class="node"><title>Node1</title>
<polygon fill="#bfbfbf" stroke="black" points="0,-38.5 0,-57.5 38,-57.5 38,-38.5 0,-38.5"/>
<text text-anchor="middle" x="19" y="-45.5" font-family="Helvetica,sans-Serif" font-size="10.00">main</text>
</g>
<!-- Node2 -->
<g id="node2" class="node"><title>Node2</title>
<g id="a_node2"><a xlink:href="../../de/d31/class_c_g_l_position.xhtml#a729e7b3f01b8c735d60d8c51b6610eef" target="_top" xlink:title="CGLPosition::setSpeed">
<polygon fill="white" stroke="black" points="74.5,-76.5 74.5,-95.5 193.5,-95.5 193.5,-76.5 74.5,-76.5"/>
<text text-anchor="middle" x="134" y="-83.5" font-family="Helvetica,sans-Serif" font-size="10.00">CGLPosition::setSpeed</text>
</a>
</g>
</g>
<!-- Node1&#45;&gt;Node2 -->
<g id="edge1" class="edge"><title>Node1&#45;&gt;Node2</title>
<path fill="none" stroke="midnightblue" d="M38.4521,-54.6299C48.8661,-58.3371 62.1329,-63.0023 74,-67 80.157,-69.0742 86.6915,-71.2268 93.083,-73.3054"/>
<polygon fill="midnightblue" stroke="midnightblue" points="92.3424,-76.7443 102.934,-76.4892 94.4951,-70.0835 92.3424,-76.7443"/>
</g>
<!-- Node3 -->
<g id="node3" class="node"><title>Node3</title>
<g id="a_node3"><a xlink:href="../../de/d31/class_c_g_l_position.xhtml#a5a43a8991d3d8ca645edbcfb0e97db20" target="_top" xlink:title="CGLPosition::setAccel">
<polygon fill="white" stroke="black" points="76,-38.5 76,-57.5 192,-57.5 192,-38.5 76,-38.5"/>
<text text-anchor="middle" x="134" y="-45.5" font-family="Helvetica,sans-Serif" font-size="10.00">CGLPosition::setAccel</text>
</a>
</g>
</g>
<!-- Node1&#45;&gt;Node3 -->
<g id="edge2" class="edge"><title>Node1&#45;&gt;Node3</title>
<path fill="none" stroke="midnightblue" d="M38.1554,-48C45.9227,-48 55.5205,-48 65.5995,-48"/>
<polygon fill="midnightblue" stroke="midnightblue" points="65.7888,-51.5001 75.7888,-48 65.7887,-44.5001 65.7888,-51.5001"/>
</g>
<!-- Node4 -->
<g id="node4" class="node"><title>Node4</title>
<g id="a_node4"><a xlink:href="../../d4/dd5/class_c_g_l_rotation.xhtml#a2b767e088f36ceef91e7259c76f7390e" target="_top" xlink:title="CGLRotation::set">
<polygon fill="white" stroke="black" points="87.5,-0.5 87.5,-19.5 180.5,-19.5 180.5,-0.5 87.5,-0.5"/>
<text text-anchor="middle" x="134" y="-7.5" font-family="Helvetica,sans-Serif" font-size="10.00">CGLRotation::set</text>
</a>
</g>
</g>
<!-- Node1&#45;&gt;Node4 -->
<g id="edge3" class="edge"><title>Node1&#45;&gt;Node4</title>
<path fill="none" stroke="midnightblue" d="M38.4521,-41.3701C48.8661,-37.6629 62.1329,-32.9977 74,-29 80.157,-26.9258 86.6915,-24.7732 93.083,-22.6946"/>
<polygon fill="midnightblue" stroke="midnightblue" points="94.4951,-25.9165 102.934,-19.5108 92.3424,-19.2557 94.4951,-25.9165"/>
</g>
</g>
</svg>
