<?xml version="1.0" encoding="UTF-8" standalone="no"?>
<!DOCTYPE svg PUBLIC "-//W3C//DTD SVG 1.1//EN"
 "http://www.w3.org/Graphics/SVG/1.1/DTD/svg11.dtd">
<!-- Generated by graphviz version 2.36.0 (20140111.2315)
 -->
<!-- Title: main Pages: 1 -->
<svg width="724pt" height="465pt"
 viewBox="0.00 0.00 724.00 465.00" xmlns="http://www.w3.org/2000/svg" xmlns:xlink="http://www.w3.org/1999/xlink">
<g id="graph0" class="graph" transform="scale(1 1) rotate(0) translate(4 461)">
<title>main</title>
<polygon fill="white" stroke="none" points="-4,4 -4,-461 720,-461 720,4 -4,4"/>
<!-- Node1 -->
<g id="node1" class="node"><title>Node1</title>
<polygon fill="#bfbfbf" stroke="black" points="0,-266.5 0,-285.5 38,-285.5 38,-266.5 0,-266.5"/>
<text text-anchor="middle" x="19" y="-273.5" font-family="Helvetica,sans-Serif" font-size="10.00">main</text>
</g>
<!-- Node2 -->
<g id="node2" class="node"><title>Node2</title>
<g id="a_node2"><a xlink:href="../../d2/d76/class_c_g_l_object.xhtml#aa08cbbe873bf264dbb34f233bd21844b" target="_top" xlink:title="CGLObject::init">
<polygon fill="white" stroke="black" points="88,-437.5 88,-456.5 172,-456.5 172,-437.5 88,-437.5"/>
<text text-anchor="middle" x="130" y="-444.5" font-family="Helvetica,sans-Serif" font-size="10.00">CGLObject::init</text>
</a>
</g>
</g>
<!-- Node1&#45;&gt;Node2 -->
<g id="edge1" class="edge"><title>Node1&#45;&gt;Node2</title>
<path fill="none" stroke="midnightblue" d="M20.9357,-285.593C23.9184,-311.208 35.4037,-382.04 74,-423 77.5701,-426.789 81.842,-430.013 86.4056,-432.748"/>
<polygon fill="midnightblue" stroke="midnightblue" points="84.9445,-435.933 95.4336,-437.427 88.1652,-429.718 84.9445,-435.933"/>
</g>
<!-- Node4 -->
<g id="node4" class="node"><title>Node4</title>
<g id="a_node4"><a xlink:href="../../d2/d76/class_c_g_l_object.xhtml#a83b8918905a5449c94e4447791b61abd" target="_top" xlink:title="CGLObject::addObject">
<polygon fill="white" stroke="black" points="396,-399.5 396,-418.5 512,-418.5 512,-399.5 396,-399.5"/>
<text text-anchor="middle" x="454" y="-406.5" font-family="Helvetica,sans-Serif" font-size="10.00">CGLObject::addObject</text>
</a>
</g>
</g>
<!-- Node1&#45;&gt;Node4 -->
<g id="edge11" class="edge"><title>Node1&#45;&gt;Node4</title>
<path fill="none" stroke="midnightblue" d="M22.0868,-285.64C27.0645,-306.06 41.7078,-353.555 74,-375 170.646,-439.183 313.048,-431.307 392.949,-420.033"/>
<polygon fill="midnightblue" stroke="midnightblue" points="393.942,-423.425 403.323,-418.5 392.919,-416.5 393.942,-423.425"/>
</g>
<!-- Node6 -->
<g id="node6" class="node"><title>Node6</title>
<g id="a_node6"><a xlink:href="../../dd/d40/class_c_g_l_window.xhtml#a8875c26fc11c333f7bbf2b517a2befd0" target="_top" xlink:title="CGLWindow::getCurrentWorld">
<polygon fill="white" stroke="black" points="566.5,-76.5 566.5,-95.5 715.5,-95.5 715.5,-76.5 566.5,-76.5"/>
<text text-anchor="middle" x="641" y="-83.5" font-family="Helvetica,sans-Serif" font-size="10.00">CGLWindow::getCurrentWorld</text>
</a>
</g>
</g>
<!-- Node1&#45;&gt;Node6 -->
<g id="edge6" class="edge"><title>Node1&#45;&gt;Node6</title>
<path fill="none" stroke="midnightblue" d="M29.7089,-285.688C39.7915,-295.004 56.5136,-308.464 74,-314 121.456,-329.024 136.673,-320.686 186,-314 343.175,-292.696 396.86,-305.206 530,-219 576.325,-189.005 612.93,-133.328 629.823,-104.448"/>
<polygon fill="midnightblue" stroke="midnightblue" points="632.866,-106.178 634.782,-95.7573 626.786,-102.708 632.866,-106.178"/>
</g>
<!-- Node7 -->
<g id="node7" class="node"><title>Node7</title>
<g id="a_node7"><a xlink:href="../../db/da4/class_c_g_l_world.xhtml#a266821b98f90eae32b670ff4def8b948" target="_top" xlink:title="CGLWorld::getCurrentScene">
<polygon fill="white" stroke="black" points="383,-190.5 383,-209.5 525,-209.5 525,-190.5 383,-190.5"/>
<text text-anchor="middle" x="454" y="-197.5" font-family="Helvetica,sans-Serif" font-size="10.00">CGLWorld::getCurrentScene</text>
</a>
</g>
</g>
<!-- Node1&#45;&gt;Node7 -->
<g id="edge7" class="edge"><title>Node1&#45;&gt;Node7</title>
<path fill="none" stroke="midnightblue" d="M23.4679,-266.263C30.1639,-249.138 46.6728,-214.106 74,-200 124.137,-174.12 277.193,-182.915 372.771,-191.541"/>
<polygon fill="midnightblue" stroke="midnightblue" points="372.703,-195.05 382.982,-192.482 373.345,-188.079 372.703,-195.05"/>
</g>
<!-- Node8 -->
<g id="node8" class="node"><title>Node8</title>
<g id="a_node8"><a xlink:href="../../d2/d76/class_c_g_l_object.xhtml#aacbe6a176989b2cef7bc2be472d5c512" target="_top" xlink:title="CGLObject::setName">
<polygon fill="white" stroke="black" points="74.5,-285.5 74.5,-304.5 185.5,-304.5 185.5,-285.5 74.5,-285.5"/>
<text text-anchor="middle" x="130" y="-292.5" font-family="Helvetica,sans-Serif" font-size="10.00">CGLObject::setName</text>
</a>
</g>
</g>
<!-- Node1&#45;&gt;Node8 -->
<g id="edge8" class="edge"><title>Node1&#45;&gt;Node8</title>
<path fill="none" stroke="midnightblue" d="M38.4904,-279.223C45.8834,-280.512 54.8766,-282.079 64.2913,-283.721"/>
<polygon fill="midnightblue" stroke="midnightblue" points="63.7531,-287.179 74.2056,-285.449 64.9552,-280.283 63.7531,-287.179"/>
</g>
<!-- Node9 -->
<g id="node9" class="node"><title>Node9</title>
<g id="a_node9"><a xlink:href="../../d6/df9/class_c_g_l_vector3_d.xhtml#a15014f4427c214f64699590591cacc8f" target="_top" xlink:title="CGLVector3D::set">
<polygon fill="white" stroke="black" points="81,-247.5 81,-266.5 179,-266.5 179,-247.5 81,-247.5"/>
<text text-anchor="middle" x="130" y="-254.5" font-family="Helvetica,sans-Serif" font-size="10.00">CGLVector3D::set</text>
</a>
</g>
</g>
<!-- Node1&#45;&gt;Node9 -->
<g id="edge9" class="edge"><title>Node1&#45;&gt;Node9</title>
<path fill="none" stroke="midnightblue" d="M38.4904,-272.777C47.6012,-271.189 59.1421,-269.177 70.9073,-267.126"/>
<polygon fill="midnightblue" stroke="midnightblue" points="71.544,-270.568 80.7944,-265.403 70.3419,-263.672 71.544,-270.568"/>
</g>
<!-- Node10 -->
<g id="node10" class="node"><title>Node10</title>
<g id="a_node10"><a xlink:href="../../d7/dd6/class_c_g_l_color.xhtml#ae493568c85c39e3573ad8ef9600b720a" target="_top" xlink:title="CGLColor::set">
<polygon fill="white" stroke="black" points="90,-209.5 90,-228.5 170,-228.5 170,-209.5 90,-209.5"/>
<text text-anchor="middle" x="130" y="-216.5" font-family="Helvetica,sans-Serif" font-size="10.00">CGLColor::set</text>
</a>
</g>
</g>
<!-- Node1&#45;&gt;Node10 -->
<g id="edge10" class="edge"><title>Node1&#45;&gt;Node10</title>
<path fill="none" stroke="midnightblue" d="M31.8149,-266.211C42.3592,-257.845 58.4878,-245.937 74,-238 78.0555,-235.925 82.3888,-233.992 86.7763,-232.214"/>
<polygon fill="midnightblue" stroke="midnightblue" points="88.2678,-235.392 96.3806,-228.578 85.7892,-228.845 88.2678,-235.392"/>
</g>
<!-- Node11 -->
<g id="node11" class="node"><title>Node11</title>
<g id="a_node11"><a xlink:href="../../d9/d85/class_c_g_l_scene.xhtml#aca6d85a7e345751c7fa58ca68bde3ea2" target="_top" xlink:title="CGLScene::addItem">
<polygon fill="white" stroke="black" points="229,-361.5 229,-380.5 335,-380.5 335,-361.5 229,-361.5"/>
<text text-anchor="middle" x="282" y="-368.5" font-family="Helvetica,sans-Serif" font-size="10.00">CGLScene::addItem</text>
</a>
</g>
</g>
<!-- Node1&#45;&gt;Node11 -->
<g id="edge12" class="edge"><title>Node1&#45;&gt;Node11</title>
<path fill="none" stroke="midnightblue" d="M24.1706,-285.568C31.6233,-301.386 48.8395,-332.661 74,-347 117.794,-371.959 175.235,-376.859 218.495,-376.141"/>
<polygon fill="midnightblue" stroke="midnightblue" points="218.709,-379.637 228.611,-375.867 218.52,-372.639 218.709,-379.637"/>
</g>
<!-- Node12 -->
<g id="node12" class="node"><title>Node12</title>
<g id="a_node12"><a xlink:href="../../d4/dd5/class_c_g_l_rotation.xhtml#a2b767e088f36ceef91e7259c76f7390e" target="_top" xlink:title="CGLRotation::set">
<polygon fill="white" stroke="black" points="83.5,-133.5 83.5,-152.5 176.5,-152.5 176.5,-133.5 83.5,-133.5"/>
<text text-anchor="middle" x="130" y="-140.5" font-family="Helvetica,sans-Serif" font-size="10.00">CGLRotation::set</text>
</a>
</g>
</g>
<!-- Node1&#45;&gt;Node12 -->
<g id="edge14" class="edge"><title>Node1&#45;&gt;Node12</title>
<path fill="none" stroke="midnightblue" d="M22.3973,-266.192C27.9781,-245.273 43.724,-195.842 74,-167 78.0545,-163.138 82.831,-159.839 87.8476,-157.038"/>
<polygon fill="midnightblue" stroke="midnightblue" points="89.6052,-160.074 97.0327,-152.519 86.5148,-153.793 89.6052,-160.074"/>
</g>
<!-- Node13 -->
<g id="node13" class="node"><title>Node13</title>
<g id="a_node13"><a xlink:href="../../dd/d40/class_c_g_l_window.xhtml#acee59c3d1b3a12c43fccf7f225c98dd6" target="_top" xlink:title="CGLWindow::exec">
<polygon fill="white" stroke="black" points="80.5,-95.5 80.5,-114.5 179.5,-114.5 179.5,-95.5 80.5,-95.5"/>
<text text-anchor="middle" x="130" y="-102.5" font-family="Helvetica,sans-Serif" font-size="10.00">CGLWindow::exec</text>
</a>
</g>
</g>
<!-- Node1&#45;&gt;Node13 -->
<g id="edge15" class="edge"><title>Node1&#45;&gt;Node13</title>
<path fill="none" stroke="midnightblue" d="M20.6203,-266.298C22.8384,-239.722 32.6316,-165.009 74,-124 75.6031,-122.411 77.3453,-120.954 79.1901,-119.62"/>
<polygon fill="midnightblue" stroke="midnightblue" points="80.999,-122.616 87.823,-114.512 77.4343,-116.592 80.999,-122.616"/>
</g>
<!-- Node3 -->
<g id="node3" class="node"><title>Node3</title>
<g id="a_node3"><a xlink:href="../../d2/d76/class_c_g_l_object.xhtml#add00987cd4a5ee06cc4436766392434b" target="_top" xlink:title="CGLObject::CGLObject">
<polygon fill="white" stroke="black" points="222,-437.5 222,-456.5 342,-456.5 342,-437.5 222,-437.5"/>
<text text-anchor="middle" x="282" y="-444.5" font-family="Helvetica,sans-Serif" font-size="10.00">CGLObject::CGLObject</text>
</a>
</g>
</g>
<!-- Node2&#45;&gt;Node3 -->
<g id="edge2" class="edge"><title>Node2&#45;&gt;Node3</title>
<path fill="none" stroke="midnightblue" d="M172.385,-447C184.547,-447 198.196,-447 211.605,-447"/>
<polygon fill="midnightblue" stroke="midnightblue" points="211.783,-450.5 221.783,-447 211.783,-443.5 211.783,-450.5"/>
</g>
<!-- Node3&#45;&gt;Node4 -->
<g id="edge3" class="edge"><title>Node3&#45;&gt;Node4</title>
<path fill="none" stroke="midnightblue" d="M325.898,-437.411C348.534,-432.351 376.498,-426.1 400.429,-420.751"/>
<polygon fill="midnightblue" stroke="midnightblue" points="401.415,-424.117 410.41,-418.52 399.888,-417.286 401.415,-424.117"/>
</g>
<!-- Node4&#45;&gt;Node4 -->
<g id="edge5" class="edge"><title>Node4&#45;&gt;Node4</title>
<path fill="none" stroke="midnightblue" d="M427.49,-418.757C414.593,-427.565 423.43,-437 454,-437 474.539,-437 485.268,-432.741 486.186,-427.275"/>
<polygon fill="midnightblue" stroke="midnightblue" points="488.968,-425.138 480.51,-418.757 483.143,-429.02 488.968,-425.138"/>
</g>
<!-- Node5 -->
<g id="node5" class="node"><title>Node5</title>
<g id="a_node5"><a xlink:href="../../d2/d76/class_c_g_l_object.xhtml#a80d01439776edc9443b47a7a9e5b9e94" target="_top" xlink:title="CGLObject::isChild">
<polygon fill="white" stroke="black" points="590.5,-399.5 590.5,-418.5 691.5,-418.5 691.5,-399.5 590.5,-399.5"/>
<text text-anchor="middle" x="641" y="-406.5" font-family="Helvetica,sans-Serif" font-size="10.00">CGLObject::isChild</text>
</a>
</g>
</g>
<!-- Node4&#45;&gt;Node5 -->
<g id="edge4" class="edge"><title>Node4&#45;&gt;Node5</title>
<path fill="none" stroke="midnightblue" d="M512.016,-409C533.645,-409 558.326,-409 580.205,-409"/>
<polygon fill="midnightblue" stroke="midnightblue" points="580.366,-412.5 590.366,-409 580.366,-405.5 580.366,-412.5"/>
</g>
<!-- Node11&#45;&gt;Node4 -->
<g id="edge13" class="edge"><title>Node11&#45;&gt;Node4</title>
<path fill="none" stroke="midnightblue" d="M325.898,-380.589C348.534,-385.649 376.498,-391.9 400.429,-397.249"/>
<polygon fill="midnightblue" stroke="midnightblue" points="399.888,-400.714 410.41,-399.48 401.415,-393.883 399.888,-400.714"/>
</g>
<!-- Node14 -->
<g id="node14" class="node"><title>Node14</title>
<g id="a_node14"><a xlink:href="../../dd/d40/class_c_g_l_window.xhtml#a87ea72d63fe563266178e72a19722e5d" target="_top" xlink:title="CGLWindow::loop">
<polygon fill="white" stroke="black" points="234,-95.5 234,-114.5 330,-114.5 330,-95.5 234,-95.5"/>
<text text-anchor="middle" x="282" y="-102.5" font-family="Helvetica,sans-Serif" font-size="10.00">CGLWindow::loop</text>
</a>
</g>
</g>
<!-- Node13&#45;&gt;Node14 -->
<g id="edge16" class="edge"><title>Node13&#45;&gt;Node14</title>
<path fill="none" stroke="midnightblue" d="M179.701,-105C193.675,-105 209.043,-105 223.494,-105"/>
<polygon fill="midnightblue" stroke="midnightblue" points="223.821,-108.5 233.821,-105 223.821,-101.5 223.821,-108.5"/>
</g>
<!-- Node14&#45;&gt;Node6 -->
<g id="edge17" class="edge"><title>Node14&#45;&gt;Node6</title>
<path fill="none" stroke="midnightblue" d="M330.039,-102.497C387.516,-99.4375 485.8,-94.2067 556.296,-90.4548"/>
<polygon fill="midnightblue" stroke="midnightblue" points="556.687,-93.9391 566.487,-89.9124 556.315,-86.9489 556.687,-93.9391"/>
</g>
<!-- Node14&#45;&gt;Node7 -->
<g id="edge18" class="edge"><title>Node14&#45;&gt;Node7</title>
<path fill="none" stroke="midnightblue" d="M292.276,-114.755C308.245,-130.968 342.634,-163.415 378,-181 382.691,-183.332 387.693,-185.395 392.803,-187.216"/>
<polygon fill="midnightblue" stroke="midnightblue" points="392.116,-190.673 402.708,-190.428 394.275,-184.014 392.116,-190.673"/>
</g>
<!-- Node15 -->
<g id="node15" class="node"><title>Node15</title>
<g id="a_node15"><a xlink:href="../../d9/d85/class_c_g_l_scene.xhtml#afa2e2794f2f8c6b80b293703e411f7fe" target="_top" xlink:title="CGLScene::getCurrentCamera">
<polygon fill="white" stroke="black" points="378.5,-0.5 378.5,-19.5 529.5,-19.5 529.5,-0.5 378.5,-0.5"/>
<text text-anchor="middle" x="454" y="-7.5" font-family="Helvetica,sans-Serif" font-size="10.00">CGLScene::getCurrentCamera</text>
</a>
</g>
</g>
<!-- Node14&#45;&gt;Node15 -->
<g id="edge19" class="edge"><title>Node14&#45;&gt;Node15</title>
<path fill="none" stroke="midnightblue" d="M292.276,-95.2452C308.245,-79.0319 342.634,-46.5851 378,-29 382.691,-26.6677 387.693,-24.605 392.803,-22.784"/>
<polygon fill="midnightblue" stroke="midnightblue" points="394.275,-25.986 402.708,-19.5725 392.116,-19.3272 394.275,-25.986"/>
</g>
<!-- Node17 -->
<g id="node17" class="node"><title>Node17</title>
<g id="a_node17"><a xlink:href="../../de/dee/class_c_g_l_camera.xhtml#ad0f4898351c8df558a627102f233ded8" target="_top" xlink:title="CGLCamera::onMouseButton">
<polygon fill="white" stroke="black" points="381,-152.5 381,-171.5 527,-171.5 527,-152.5 381,-152.5"/>
<text text-anchor="middle" x="454" y="-159.5" font-family="Helvetica,sans-Serif" font-size="10.00">CGLCamera::onMouseButton</text>
</a>
</g>
</g>
<!-- Node14&#45;&gt;Node17 -->
<g id="edge21" class="edge"><title>Node14&#45;&gt;Node17</title>
<path fill="none" stroke="midnightblue" d="M304.584,-114.586C323.646,-122.821 352.322,-134.652 378,-143 385.455,-145.423 393.409,-147.729 401.246,-149.845"/>
<polygon fill="midnightblue" stroke="midnightblue" points="400.505,-153.269 411.065,-152.419 402.279,-146.498 400.505,-153.269"/>
</g>
<!-- Node18 -->
<g id="node18" class="node"><title>Node18</title>
<g id="a_node18"><a xlink:href="../../dd/d40/class_c_g_l_window.xhtml#a480062f802f92f94e8b737a96171012c" target="_top" xlink:title="CGLWindow::onResize">
<polygon fill="white" stroke="black" points="394.5,-114.5 394.5,-133.5 513.5,-133.5 513.5,-114.5 394.5,-114.5"/>
<text text-anchor="middle" x="454" y="-121.5" font-family="Helvetica,sans-Serif" font-size="10.00">CGLWindow::onResize</text>
</a>
</g>
</g>
<!-- Node14&#45;&gt;Node18 -->
<g id="edge22" class="edge"><title>Node14&#45;&gt;Node18</title>
<path fill="none" stroke="midnightblue" d="M330.354,-110.293C347.099,-112.164 366.286,-114.308 384.435,-116.337"/>
<polygon fill="midnightblue" stroke="midnightblue" points="384.061,-119.817 394.388,-117.449 384.838,-112.86 384.061,-119.817"/>
</g>
<!-- Node19 -->
<g id="node19" class="node"><title>Node19</title>
<g id="a_node19"><a xlink:href="../../dd/d40/class_c_g_l_window.xhtml#adf4d06d51db7221820cb7f22080d51f2" target="_top" xlink:title="CGLWindow::draw">
<polygon fill="white" stroke="black" points="404.5,-38.5 404.5,-57.5 503.5,-57.5 503.5,-38.5 404.5,-38.5"/>
<text text-anchor="middle" x="454" y="-45.5" font-family="Helvetica,sans-Serif" font-size="10.00">CGLWindow::draw</text>
</a>
</g>
</g>
<!-- Node14&#45;&gt;Node19 -->
<g id="edge23" class="edge"><title>Node14&#45;&gt;Node19</title>
<path fill="none" stroke="midnightblue" d="M309.966,-95.4347C328.949,-88.7495 354.978,-79.6807 378,-72 389.334,-68.2186 401.671,-64.2218 413.005,-60.5975"/>
<polygon fill="midnightblue" stroke="midnightblue" points="414.19,-63.8932 422.656,-57.5231 412.066,-57.2234 414.19,-63.8932"/>
</g>
<!-- Node16 -->
<g id="node16" class="node"><title>Node16</title>
<g id="a_node16"><a xlink:href="../../d2/d76/class_c_g_l_object.xhtml#a17159bf8a16301adca577be4311806d1" target="_top" xlink:title="CGLObject::getCurrentObject">
<polygon fill="white" stroke="black" points="568,-0.5 568,-19.5 714,-19.5 714,-0.5 568,-0.5"/>
<text text-anchor="middle" x="641" y="-7.5" font-family="Helvetica,sans-Serif" font-size="10.00">CGLObject::getCurrentObject</text>
</a>
</g>
</g>
<!-- Node15&#45;&gt;Node16 -->
<g id="edge20" class="edge"><title>Node15&#45;&gt;Node16</title>
<path fill="none" stroke="midnightblue" d="M529.713,-10C538.919,-10 548.369,-10 557.679,-10"/>
<polygon fill="midnightblue" stroke="midnightblue" points="557.709,-13.5001 567.709,-10 557.709,-6.5001 557.709,-13.5001"/>
</g>
<!-- Node19&#45;&gt;Node6 -->
<g id="edge24" class="edge"><title>Node19&#45;&gt;Node6</title>
<path fill="none" stroke="midnightblue" d="M501.683,-57.589C526.646,-62.7165 557.564,-69.0672 583.834,-74.4632"/>
<polygon fill="midnightblue" stroke="midnightblue" points="583.153,-77.8962 593.652,-76.4799 584.561,-71.0394 583.153,-77.8962"/>
</g>
<!-- Node20 -->
<g id="node20" class="node"><title>Node20</title>
<g id="a_node20"><a xlink:href="../../db/da4/class_c_g_l_world.xhtml#a7dd174b6096cb7c798f7b4518e4842dc" target="_top" xlink:title="CGLWorld::draw">
<polygon fill="white" stroke="black" points="596.5,-38.5 596.5,-57.5 685.5,-57.5 685.5,-38.5 596.5,-38.5"/>
<text text-anchor="middle" x="641" y="-45.5" font-family="Helvetica,sans-Serif" font-size="10.00">CGLWorld::draw</text>
</a>
</g>
</g>
<!-- Node19&#45;&gt;Node20 -->
<g id="edge25" class="edge"><title>Node19&#45;&gt;Node20</title>
<path fill="none" stroke="midnightblue" d="M503.607,-48C529.03,-48 560.212,-48 586.341,-48"/>
<polygon fill="midnightblue" stroke="midnightblue" points="586.454,-51.5001 596.454,-48 586.454,-44.5001 586.454,-51.5001"/>
</g>
</g>
</svg>
