<?xml version="1.0" encoding="UTF-8" standalone="no"?>
<!DOCTYPE svg PUBLIC "-//W3C//DTD SVG 1.1//EN"
 "http://www.w3.org/Graphics/SVG/1.1/DTD/svg11.dtd">
<!-- Generated by graphviz version 2.36.0 (20140111.2315)
 -->
<!-- Title: main Pages: 1 -->
<svg width="772pt" height="654pt"
 viewBox="0.00 0.00 772.00 654.00" xmlns="http://www.w3.org/2000/svg" xmlns:xlink="http://www.w3.org/1999/xlink">
<g id="graph0" class="graph" transform="scale(1 1) rotate(0) translate(4 650)">
<title>main</title>
<polygon fill="white" stroke="none" points="-4,4 -4,-650 768,-650 768,4 -4,4"/>
<!-- Node1 -->
<g id="node1" class="node"><title>Node1</title>
<polygon fill="#bfbfbf" stroke="black" points="0,-304.5 0,-323.5 38,-323.5 38,-304.5 0,-304.5"/>
<text text-anchor="middle" x="19" y="-311.5" font-family="Helvetica,sans-Serif" font-size="10.00">main</text>
</g>
<!-- Node2 -->
<g id="node2" class="node"><title>Node2</title>
<g id="a_node2"><a xlink:href="../../dd/d66/class_d_g_l_1_1_object.xhtml#ab9a27795dbf6f5abc66863a90fd76ad0" target="_top" xlink:title="DGL::Object::init">
<polygon fill="white" stroke="black" points="98,-536.5 98,-555.5 188,-555.5 188,-536.5 98,-536.5"/>
<text text-anchor="middle" x="143" y="-543.5" font-family="Helvetica,sans-Serif" font-size="10.00">DGL::Object::init</text>
</a>
</g>
</g>
<!-- Node1&#45;&gt;Node2 -->
<g id="edge1" class="edge"><title>Node1&#45;&gt;Node2</title>
<path fill="none" stroke="midnightblue" d="M19.8029,-323.763C19.6836,-355.485 23.4655,-456.999 74,-516 79.7937,-522.764 87.4066,-528.062 95.4364,-532.192"/>
<polygon fill="midnightblue" stroke="midnightblue" points="94.0541,-535.408 104.605,-536.375 96.9596,-529.04 94.0541,-535.408"/>
</g>
<!-- Node4 -->
<g id="node4" class="node"><title>Node4</title>
<g id="a_node4"><a xlink:href="../../dd/d66/class_d_g_l_1_1_object.xhtml#ac38a523c5a7cb552b15ed3d043788781" target="_top" xlink:title="DGL::Object::addObject">
<polygon fill="white" stroke="black" points="432,-608.5 432,-627.5 554,-627.5 554,-608.5 432,-608.5"/>
<text text-anchor="middle" x="493" y="-615.5" font-family="Helvetica,sans-Serif" font-size="10.00">DGL::Object::addObject</text>
</a>
</g>
</g>
<!-- Node1&#45;&gt;Node4 -->
<g id="edge18" class="edge"><title>Node1&#45;&gt;Node4</title>
<path fill="none" stroke="midnightblue" d="M20.6352,-323.762C23.5841,-365.877 37.3826,-531.397 74,-565 173.64,-656.438 347.364,-643.45 436.206,-629.175"/>
<polygon fill="midnightblue" stroke="midnightblue" points="436.803,-632.623 446.09,-627.524 435.65,-625.719 436.803,-632.623"/>
</g>
<!-- Node6 -->
<g id="node6" class="node"><title>Node6</title>
<g id="a_node6"><a xlink:href="../../d1/d91/class_d_g_l_1_1_window.xhtml#a402519892596a41cf2a59574e427331b" target="_top" xlink:title="DGL::Window::getCurrentWorld">
<polygon fill="white" stroke="black" points="608.5,-456.5 608.5,-475.5 763.5,-475.5 763.5,-456.5 608.5,-456.5"/>
<text text-anchor="middle" x="686" y="-463.5" font-family="Helvetica,sans-Serif" font-size="10.00">DGL::Window::getCurrentWorld</text>
</a>
</g>
</g>
<!-- Node1&#45;&gt;Node6 -->
<g id="edge6" class="edge"><title>Node1&#45;&gt;Node6</title>
<path fill="none" stroke="midnightblue" d="M38.1525,-321.729C48.4727,-325.78 61.7456,-330.423 74,-333 291.227,-378.674 366.491,-287.097 572,-371 613.45,-387.923 650.947,-425.984 670.586,-448.456"/>
<polygon fill="midnightblue" stroke="midnightblue" points="668.059,-450.888 677.209,-456.229 673.387,-446.347 668.059,-450.888"/>
</g>
<!-- Node7 -->
<g id="node7" class="node"><title>Node7</title>
<g id="a_node7"><a xlink:href="../../d2/df1/class_d_g_l_1_1_world.xhtml#a27ad7af14f7fa4ea173cc9a81ff5b4f2" target="_top" xlink:title="DGL::World::getCurrentScene">
<polygon fill="white" stroke="black" points="419,-380.5 419,-399.5 567,-399.5 567,-380.5 419,-380.5"/>
<text text-anchor="middle" x="493" y="-387.5" font-family="Helvetica,sans-Serif" font-size="10.00">DGL::World::getCurrentScene</text>
</a>
</g>
</g>
<!-- Node1&#45;&gt;Node7 -->
<g id="edge7" class="edge"><title>Node1&#45;&gt;Node7</title>
<path fill="none" stroke="midnightblue" d="M26.6845,-323.797C35.7593,-336.169 53.2483,-356.933 74,-366 186.445,-415.132 332.36,-409.902 418.704,-400.641"/>
<polygon fill="midnightblue" stroke="midnightblue" points="419.126,-404.115 428.674,-399.525 418.347,-397.159 419.126,-404.115"/>
</g>
<!-- Node8 -->
<g id="node8" class="node"><title>Node8</title>
<g id="a_node8"><a xlink:href="../../dd/d66/class_d_g_l_1_1_object.xhtml#a4b753d3ce4dc5ee917161f8dfe521406" target="_top" xlink:title="DGL::Object::setName">
<polygon fill="white" stroke="black" points="84.5,-304.5 84.5,-323.5 201.5,-323.5 201.5,-304.5 84.5,-304.5"/>
<text text-anchor="middle" x="143" y="-311.5" font-family="Helvetica,sans-Serif" font-size="10.00">DGL::Object::setName</text>
</a>
</g>
</g>
<!-- Node1&#45;&gt;Node8 -->
<g id="edge8" class="edge"><title>Node1&#45;&gt;Node8</title>
<path fill="none" stroke="midnightblue" d="M38.0015,-314C47.8786,-314 60.8157,-314 74.1951,-314"/>
<polygon fill="midnightblue" stroke="midnightblue" points="74.4693,-317.5 84.4692,-314 74.4692,-310.5 74.4693,-317.5"/>
</g>
<!-- Node9 -->
<g id="node9" class="node"><title>Node9</title>
<g id="a_node9"><a xlink:href="../../dc/db6/class_d_g_l_1_1_vector3_d.xhtml#a16e4352f8e4284fc36491d1d2845ca94" target="_top" xlink:title="DGL::Vector3D::set">
<polygon fill="white" stroke="black" points="261,-190.5 261,-209.5 365,-209.5 365,-190.5 261,-190.5"/>
<text text-anchor="middle" x="313" y="-197.5" font-family="Helvetica,sans-Serif" font-size="10.00">DGL::Vector3D::set</text>
</a>
</g>
</g>
<!-- Node1&#45;&gt;Node9 -->
<g id="edge9" class="edge"><title>Node1&#45;&gt;Node9</title>
<path fill="none" stroke="midnightblue" d="M22.2586,-304.385C27.4893,-284.507 42.4706,-239.067 74,-219 126.618,-185.511 199.604,-184.826 250.836,-189.952"/>
<polygon fill="midnightblue" stroke="midnightblue" points="250.457,-193.431 260.78,-191.046 251.223,-186.473 250.457,-193.431"/>
</g>
<!-- Node13 -->
<g id="node13" class="node"><title>Node13</title>
<g id="a_node13"><a xlink:href="../../d9/d48/class_d_g_l_1_1_vector4_d.xhtml#a4cec07d690686331f7f70a2dc5aa0315" target="_top" xlink:title="DGL::Vector4D::set">
<polygon fill="white" stroke="black" points="261,-152.5 261,-171.5 365,-171.5 365,-152.5 261,-152.5"/>
<text text-anchor="middle" x="313" y="-159.5" font-family="Helvetica,sans-Serif" font-size="10.00">DGL::Vector4D::set</text>
</a>
</g>
</g>
<!-- Node1&#45;&gt;Node13 -->
<g id="edge13" class="edge"><title>Node1&#45;&gt;Node13</title>
<path fill="none" stroke="midnightblue" d="M19.5317,-304.465C18.6491,-274.548 20.514,-182.199 74,-143 102.741,-121.936 200.225,-137.735 261.154,-150.383"/>
<polygon fill="midnightblue" stroke="midnightblue" points="260.464,-153.815 270.972,-152.46 261.912,-146.966 260.464,-153.815"/>
</g>
<!-- Node15 -->
<g id="node15" class="node"><title>Node15</title>
<g id="a_node15"><a xlink:href="../../df/dac/class_d_g_l_1_1_scene.xhtml#a1c1705a8f7ddf8790d4c5444a16731de" target="_top" xlink:title="DGL::Scene::addItem">
<polygon fill="white" stroke="black" points="87,-487.5 87,-506.5 199,-506.5 199,-487.5 87,-487.5"/>
<text text-anchor="middle" x="143" y="-494.5" font-family="Helvetica,sans-Serif" font-size="10.00">DGL::Scene::addItem</text>
</a>
</g>
</g>
<!-- Node1&#45;&gt;Node15 -->
<g id="edge19" class="edge"><title>Node1&#45;&gt;Node15</title>
<path fill="none" stroke="midnightblue" d="M20.8712,-323.879C23.6939,-350.264 34.8172,-423.278 74,-466 80.6389,-473.239 89.2978,-478.907 98.2014,-483.301"/>
<polygon fill="midnightblue" stroke="midnightblue" points="96.9345,-486.568 107.494,-487.431 99.7773,-480.171 96.9345,-486.568"/>
</g>
<!-- Node16 -->
<g id="node16" class="node"><title>Node16</title>
<g id="a_node16"><a xlink:href="../../d4/df5/class_d_g_l_1_1_vector2_d.xhtml#af0c2f7613c8bbea39118480f5465e051" target="_top" xlink:title="DGL::Vector2D::setMinMax">
<polygon fill="white" stroke="black" points="74,-76.5 74,-95.5 212,-95.5 212,-76.5 74,-76.5"/>
<text text-anchor="middle" x="143" y="-83.5" font-family="Helvetica,sans-Serif" font-size="10.00">DGL::Vector2D::setMinMax</text>
</a>
</g>
</g>
<!-- Node1&#45;&gt;Node16 -->
<g id="edge21" class="edge"><title>Node1&#45;&gt;Node16</title>
<path fill="none" stroke="midnightblue" d="M19.6017,-304.433C18.8037,-272.433 20.5893,-167.894 74,-110 77.5694,-106.131 81.8006,-102.886 86.3801,-100.163"/>
<polygon fill="midnightblue" stroke="midnightblue" points="88.1812,-103.175 95.5333,-95.5459 85.0285,-96.9248 88.1812,-103.175"/>
</g>
<!-- Node21 -->
<g id="node21" class="node"><title>Node21</title>
<g id="a_node21"><a xlink:href="../../d6/def/class_d_g_l_1_1_position.xhtml#ab4db4ca4aea7142ca33d4c4f2d3cbbe9" target="_top" xlink:title="DGL::Position::setSpeed">
<polygon fill="white" stroke="black" points="80.5,-152.5 80.5,-171.5 205.5,-171.5 205.5,-152.5 80.5,-152.5"/>
<text text-anchor="middle" x="143" y="-159.5" font-family="Helvetica,sans-Serif" font-size="10.00">DGL::Position::setSpeed</text>
</a>
</g>
</g>
<!-- Node1&#45;&gt;Node21 -->
<g id="edge26" class="edge"><title>Node1&#45;&gt;Node21</title>
<path fill="none" stroke="midnightblue" d="M21.3454,-304.477C25.1584,-280.985 38.1819,-219.733 74,-186 78.3205,-181.931 83.3726,-178.546 88.7374,-175.731"/>
<polygon fill="midnightblue" stroke="midnightblue" points="90.3411,-178.847 97.9869,-171.512 87.4362,-172.478 90.3411,-178.847"/>
</g>
<!-- Node22 -->
<g id="node22" class="node"><title>Node22</title>
<g id="a_node22"><a xlink:href="../../d6/def/class_d_g_l_1_1_position.xhtml#a4ae8675c7193f0d15061311c931313aa" target="_top" xlink:title="DGL::Position::setAccel">
<polygon fill="white" stroke="black" points="82,-228.5 82,-247.5 204,-247.5 204,-228.5 82,-228.5"/>
<text text-anchor="middle" x="143" y="-235.5" font-family="Helvetica,sans-Serif" font-size="10.00">DGL::Position::setAccel</text>
</a>
</g>
</g>
<!-- Node1&#45;&gt;Node22 -->
<g id="edge28" class="edge"><title>Node1&#45;&gt;Node22</title>
<path fill="none" stroke="midnightblue" d="M27.8131,-304.272C37.5365,-292.738 55.1712,-273.62 74,-262 80.8168,-257.793 88.474,-254.19 96.1256,-251.152"/>
<polygon fill="midnightblue" stroke="midnightblue" points="97.5797,-254.346 105.751,-247.602 95.1576,-247.778 97.5797,-254.346"/>
</g>
<!-- Node23 -->
<g id="node23" class="node"><title>Node23</title>
<g id="a_node23"><a xlink:href="../../d7/de2/class_d_g_l_1_1_rotation.xhtml#a83f45a12d43800d3e4bbd04162e10802" target="_top" xlink:title="DGL::Rotation::set">
<polygon fill="white" stroke="black" points="263.5,-228.5 263.5,-247.5 362.5,-247.5 362.5,-228.5 263.5,-228.5"/>
<text text-anchor="middle" x="313" y="-235.5" font-family="Helvetica,sans-Serif" font-size="10.00">DGL::Rotation::set</text>
</a>
</g>
</g>
<!-- Node1&#45;&gt;Node23 -->
<g id="edge30" class="edge"><title>Node1&#45;&gt;Node23</title>
<path fill="none" stroke="midnightblue" d="M38.3406,-307.017C48.7197,-303.199 61.9888,-298.541 74,-295 135.637,-276.828 207.515,-260.233 256.02,-249.694"/>
<polygon fill="midnightblue" stroke="midnightblue" points="256.967,-253.07 266.003,-247.539 255.49,-246.228 256.967,-253.07"/>
</g>
<!-- Node24 -->
<g id="node24" class="node"><title>Node24</title>
<g id="a_node24"><a xlink:href="../../d1/d91/class_d_g_l_1_1_window.xhtml#a0fd7145d62df1007e97918c9ae517e0f" target="_top" xlink:title="DGL::Window::exec">
<polygon fill="white" stroke="black" points="90.5,-437.5 90.5,-456.5 195.5,-456.5 195.5,-437.5 90.5,-437.5"/>
<text text-anchor="middle" x="143" y="-444.5" font-family="Helvetica,sans-Serif" font-size="10.00">DGL::Window::exec</text>
</a>
</g>
</g>
<!-- Node1&#45;&gt;Node24 -->
<g id="edge34" class="edge"><title>Node1&#45;&gt;Node24</title>
<path fill="none" stroke="midnightblue" d="M23.9725,-323.645C31.5908,-341.258 49.6804,-379.103 74,-404 85.1527,-415.417 99.8969,-425.209 112.805,-432.552"/>
<polygon fill="midnightblue" stroke="midnightblue" points="111.345,-435.743 121.801,-437.454 114.695,-429.596 111.345,-435.743"/>
</g>
<!-- Node3 -->
<g id="node3" class="node"><title>Node3</title>
<g id="a_node3"><a xlink:href="../../dd/d66/class_d_g_l_1_1_object.xhtml#aafedb89134c30e1d3b748b15d077135b" target="_top" xlink:title="DGL::Object::Object">
<polygon fill="white" stroke="black" points="260,-546.5 260,-565.5 366,-565.5 366,-546.5 260,-546.5"/>
<text text-anchor="middle" x="313" y="-553.5" font-family="Helvetica,sans-Serif" font-size="10.00">DGL::Object::Object</text>
</a>
</g>
</g>
<!-- Node2&#45;&gt;Node3 -->
<g id="edge2" class="edge"><title>Node2&#45;&gt;Node3</title>
<path fill="none" stroke="midnightblue" d="M188.14,-548.627C206.936,-549.746 229.198,-551.071 249.628,-552.287"/>
<polygon fill="midnightblue" stroke="midnightblue" points="249.61,-555.792 259.801,-552.893 250.026,-548.805 249.61,-555.792"/>
</g>
<!-- Node3&#45;&gt;Node4 -->
<g id="edge3" class="edge"><title>Node3&#45;&gt;Node4</title>
<path fill="none" stroke="midnightblue" d="M333.542,-565.562C353.429,-575.015 385.322,-589.416 414,-599 421.436,-601.485 429.37,-603.795 437.224,-605.887"/>
<polygon fill="midnightblue" stroke="midnightblue" points="436.53,-609.323 447.086,-608.418 438.27,-602.542 436.53,-609.323"/>
</g>
<!-- Node4&#45;&gt;Node4 -->
<g id="edge5" class="edge"><title>Node4&#45;&gt;Node4</title>
<path fill="none" stroke="midnightblue" d="M465.257,-627.757C451.76,-636.565 461.008,-646 493,-646 514.995,-646 526.239,-641.541 526.733,-635.891"/>
<polygon fill="midnightblue" stroke="midnightblue" points="529.491,-633.734 520.743,-627.757 523.854,-637.885 529.491,-633.734"/>
</g>
<!-- Node5 -->
<g id="node5" class="node"><title>Node5</title>
<g id="a_node5"><a xlink:href="../../dd/d66/class_d_g_l_1_1_object.xhtml#a6d3f6fc4aea801990e4adfeb8c9428f4" target="_top" xlink:title="DGL::Object::isChild">
<polygon fill="white" stroke="black" points="632.5,-608.5 632.5,-627.5 739.5,-627.5 739.5,-608.5 632.5,-608.5"/>
<text text-anchor="middle" x="686" y="-615.5" font-family="Helvetica,sans-Serif" font-size="10.00">DGL::Object::isChild</text>
</a>
</g>
</g>
<!-- Node4&#45;&gt;Node5 -->
<g id="edge4" class="edge"><title>Node4&#45;&gt;Node5</title>
<path fill="none" stroke="midnightblue" d="M554.171,-618C575.788,-618 600.217,-618 622.063,-618"/>
<polygon fill="midnightblue" stroke="midnightblue" points="622.226,-621.5 632.226,-618 622.226,-614.5 622.226,-621.5"/>
</g>
<!-- Node10 -->
<g id="node10" class="node"><title>Node10</title>
<g id="a_node10"><a xlink:href="../../d4/df5/class_d_g_l_1_1_vector2_d.xhtml#a68466d09c201494c7160b497bf4dff2c" target="_top" xlink:title="DGL::Vector2D::setX">
<polygon fill="white" stroke="black" points="438,-228.5 438,-247.5 548,-247.5 548,-228.5 438,-228.5"/>
<text text-anchor="middle" x="493" y="-235.5" font-family="Helvetica,sans-Serif" font-size="10.00">DGL::Vector2D::setX</text>
</a>
</g>
</g>
<!-- Node9&#45;&gt;Node10 -->
<g id="edge10" class="edge"><title>Node9&#45;&gt;Node10</title>
<path fill="none" stroke="midnightblue" d="M358.917,-209.589C382.829,-214.694 412.421,-221.011 437.625,-226.392"/>
<polygon fill="midnightblue" stroke="midnightblue" points="436.896,-229.815 447.406,-228.48 438.357,-222.969 436.896,-229.815"/>
</g>
<!-- Node11 -->
<g id="node11" class="node"><title>Node11</title>
<g id="a_node11"><a xlink:href="../../d4/df5/class_d_g_l_1_1_vector2_d.xhtml#a0834a14acf7f5e2539270351cd312d35" target="_top" xlink:title="DGL::Vector2D::setY">
<polygon fill="white" stroke="black" points="438,-190.5 438,-209.5 548,-209.5 548,-190.5 438,-190.5"/>
<text text-anchor="middle" x="493" y="-197.5" font-family="Helvetica,sans-Serif" font-size="10.00">DGL::Vector2D::setY</text>
</a>
</g>
</g>
<!-- Node9&#45;&gt;Node11 -->
<g id="edge11" class="edge"><title>Node9&#45;&gt;Node11</title>
<path fill="none" stroke="midnightblue" d="M365.008,-200C384.518,-200 407.027,-200 427.625,-200"/>
<polygon fill="midnightblue" stroke="midnightblue" points="427.879,-203.5 437.879,-200 427.879,-196.5 427.879,-203.5"/>
</g>
<!-- Node12 -->
<g id="node12" class="node"><title>Node12</title>
<g id="a_node12"><a xlink:href="../../dc/db6/class_d_g_l_1_1_vector3_d.xhtml#ab75a761737c7e67d907ad4b5f99dbf36" target="_top" xlink:title="DGL::Vector3D::setZ">
<polygon fill="white" stroke="black" points="438,-152.5 438,-171.5 548,-171.5 548,-152.5 438,-152.5"/>
<text text-anchor="middle" x="493" y="-159.5" font-family="Helvetica,sans-Serif" font-size="10.00">DGL::Vector3D::setZ</text>
</a>
</g>
</g>
<!-- Node9&#45;&gt;Node12 -->
<g id="edge12" class="edge"><title>Node9&#45;&gt;Node12</title>
<path fill="none" stroke="midnightblue" d="M358.917,-190.411C382.829,-185.306 412.421,-178.989 437.625,-173.608"/>
<polygon fill="midnightblue" stroke="midnightblue" points="438.357,-177.031 447.406,-171.52 436.896,-170.185 438.357,-177.031"/>
</g>
<!-- Node13&#45;&gt;Node10 -->
<g id="edge14" class="edge"><title>Node13&#45;&gt;Node10</title>
<path fill="none" stroke="midnightblue" d="M357.668,-171.601C364.741,-174.09 371.777,-177.18 378,-181 397.827,-193.17 393.877,-207.326 414,-219 418.481,-221.6 423.306,-223.845 428.279,-225.784"/>
<polygon fill="midnightblue" stroke="midnightblue" points="427.382,-229.177 437.976,-229.148 429.676,-222.564 427.382,-229.177"/>
</g>
<!-- Node13&#45;&gt;Node11 -->
<g id="edge15" class="edge"><title>Node13&#45;&gt;Node11</title>
<path fill="none" stroke="midnightblue" d="M358.917,-171.589C382.829,-176.694 412.421,-183.011 437.625,-188.392"/>
<polygon fill="midnightblue" stroke="midnightblue" points="436.896,-191.815 447.406,-190.48 438.357,-184.969 436.896,-191.815"/>
</g>
<!-- Node13&#45;&gt;Node12 -->
<g id="edge16" class="edge"><title>Node13&#45;&gt;Node12</title>
<path fill="none" stroke="midnightblue" d="M365.008,-162C384.518,-162 407.027,-162 427.625,-162"/>
<polygon fill="midnightblue" stroke="midnightblue" points="427.879,-165.5 437.879,-162 427.879,-158.5 427.879,-165.5"/>
</g>
<!-- Node14 -->
<g id="node14" class="node"><title>Node14</title>
<g id="a_node14"><a xlink:href="../../d9/d48/class_d_g_l_1_1_vector4_d.xhtml#ad083fe2d941faa6452f5c6f28d1317b6" target="_top" xlink:title="DGL::Vector4D::setW">
<polygon fill="white" stroke="black" points="436.5,-114.5 436.5,-133.5 549.5,-133.5 549.5,-114.5 436.5,-114.5"/>
<text text-anchor="middle" x="493" y="-121.5" font-family="Helvetica,sans-Serif" font-size="10.00">DGL::Vector4D::setW</text>
</a>
</g>
</g>
<!-- Node13&#45;&gt;Node14 -->
<g id="edge17" class="edge"><title>Node13&#45;&gt;Node14</title>
<path fill="none" stroke="midnightblue" d="M358.917,-152.411C382.829,-147.306 412.421,-140.989 437.625,-135.608"/>
<polygon fill="midnightblue" stroke="midnightblue" points="438.357,-139.031 447.406,-133.52 436.896,-132.185 438.357,-139.031"/>
</g>
<!-- Node15&#45;&gt;Node4 -->
<g id="edge20" class="edge"><title>Node15&#45;&gt;Node4</title>
<path fill="none" stroke="midnightblue" d="M199.048,-493.754C249.85,-493.494 325.192,-500.325 378,-537 404.172,-555.176 388.477,-579.924 414,-599 416.679,-601.003 419.542,-602.797 422.53,-604.404"/>
<polygon fill="midnightblue" stroke="midnightblue" points="421.265,-607.674 431.811,-608.685 424.197,-601.318 421.265,-607.674"/>
</g>
<!-- Node17 -->
<g id="node17" class="node"><title>Node17</title>
<g id="a_node17"><a xlink:href="../../d4/df5/class_d_g_l_1_1_vector2_d.xhtml#af2f374378abd75e38f68b5b19f45b91e" target="_top" xlink:title="DGL::Vector2D::setMinX">
<polygon fill="white" stroke="black" points="250,-0.5 250,-19.5 376,-19.5 376,-0.5 250,-0.5"/>
<text text-anchor="middle" x="313" y="-7.5" font-family="Helvetica,sans-Serif" font-size="10.00">DGL::Vector2D::setMinX</text>
</a>
</g>
</g>
<!-- Node16&#45;&gt;Node17 -->
<g id="edge22" class="edge"><title>Node16&#45;&gt;Node17</title>
<path fill="none" stroke="midnightblue" d="M158.997,-76.445C178.771,-64.1638 214.933,-42.7853 248,-29 253.483,-26.7143 259.335,-24.5823 265.19,-22.6341"/>
<polygon fill="midnightblue" stroke="midnightblue" points="266.502,-25.8898 274.979,-19.5341 264.389,-19.2164 266.502,-25.8898"/>
</g>
<!-- Node18 -->
<g id="node18" class="node"><title>Node18</title>
<g id="a_node18"><a xlink:href="../../d4/df5/class_d_g_l_1_1_vector2_d.xhtml#a418c616f09b62bd523740922b068d740" target="_top" xlink:title="DGL::Vector2D::setMaxX">
<polygon fill="white" stroke="black" points="248.5,-114.5 248.5,-133.5 377.5,-133.5 377.5,-114.5 248.5,-114.5"/>
<text text-anchor="middle" x="313" y="-121.5" font-family="Helvetica,sans-Serif" font-size="10.00">DGL::Vector2D::setMaxX</text>
</a>
</g>
</g>
<!-- Node16&#45;&gt;Node18 -->
<g id="edge23" class="edge"><title>Node16&#45;&gt;Node18</title>
<path fill="none" stroke="midnightblue" d="M186.393,-95.589C208.763,-100.649 236.398,-106.9 260.047,-112.249"/>
<polygon fill="midnightblue" stroke="midnightblue" points="259.386,-115.687 269.911,-114.48 260.93,-108.86 259.386,-115.687"/>
</g>
<!-- Node19 -->
<g id="node19" class="node"><title>Node19</title>
<g id="a_node19"><a xlink:href="../../d4/df5/class_d_g_l_1_1_vector2_d.xhtml#a6c20bf9b02269a10acdb291b8c067c6a" target="_top" xlink:title="DGL::Vector2D::setMinY">
<polygon fill="white" stroke="black" points="250,-76.5 250,-95.5 376,-95.5 376,-76.5 250,-76.5"/>
<text text-anchor="middle" x="313" y="-83.5" font-family="Helvetica,sans-Serif" font-size="10.00">DGL::Vector2D::setMinY</text>
</a>
</g>
</g>
<!-- Node16&#45;&gt;Node19 -->
<g id="edge24" class="edge"><title>Node16&#45;&gt;Node19</title>
<path fill="none" stroke="midnightblue" d="M212.332,-86C221.374,-86 230.668,-86 239.773,-86"/>
<polygon fill="midnightblue" stroke="midnightblue" points="239.95,-89.5001 249.95,-86 239.95,-82.5001 239.95,-89.5001"/>
</g>
<!-- Node20 -->
<g id="node20" class="node"><title>Node20</title>
<g id="a_node20"><a xlink:href="../../d4/df5/class_d_g_l_1_1_vector2_d.xhtml#abc31d070360de4eed33de230c92de604" target="_top" xlink:title="DGL::Vector2D::setMaxY">
<polygon fill="white" stroke="black" points="248.5,-38.5 248.5,-57.5 377.5,-57.5 377.5,-38.5 248.5,-38.5"/>
<text text-anchor="middle" x="313" y="-45.5" font-family="Helvetica,sans-Serif" font-size="10.00">DGL::Vector2D::setMaxY</text>
</a>
</g>
</g>
<!-- Node16&#45;&gt;Node20 -->
<g id="edge25" class="edge"><title>Node16&#45;&gt;Node20</title>
<path fill="none" stroke="midnightblue" d="M186.393,-76.411C208.763,-71.3513 236.398,-65.1004 260.047,-59.7512"/>
<polygon fill="midnightblue" stroke="midnightblue" points="260.93,-63.1401 269.911,-57.5201 259.386,-56.3125 260.93,-63.1401"/>
</g>
<!-- Node21&#45;&gt;Node9 -->
<g id="edge27" class="edge"><title>Node21&#45;&gt;Node9</title>
<path fill="none" stroke="midnightblue" d="M186.393,-171.589C208.763,-176.649 236.398,-182.9 260.047,-188.249"/>
<polygon fill="midnightblue" stroke="midnightblue" points="259.386,-191.687 269.911,-190.48 260.93,-184.86 259.386,-191.687"/>
</g>
<!-- Node22&#45;&gt;Node9 -->
<g id="edge29" class="edge"><title>Node22&#45;&gt;Node9</title>
<path fill="none" stroke="midnightblue" d="M186.393,-228.411C208.763,-223.351 236.398,-217.1 260.047,-211.751"/>
<polygon fill="midnightblue" stroke="midnightblue" points="260.93,-215.14 269.911,-209.52 259.386,-208.313 260.93,-215.14"/>
</g>
<!-- Node23&#45;&gt;Node10 -->
<g id="edge31" class="edge"><title>Node23&#45;&gt;Node10</title>
<path fill="none" stroke="midnightblue" d="M362.639,-238C382.722,-238 406.283,-238 427.756,-238"/>
<polygon fill="midnightblue" stroke="midnightblue" points="427.778,-241.5 437.778,-238 427.778,-234.5 427.778,-241.5"/>
</g>
<!-- Node23&#45;&gt;Node11 -->
<g id="edge32" class="edge"><title>Node23&#45;&gt;Node11</title>
<path fill="none" stroke="midnightblue" d="M358.917,-228.411C382.829,-223.306 412.421,-216.989 437.625,-211.608"/>
<polygon fill="midnightblue" stroke="midnightblue" points="438.357,-215.031 447.406,-209.52 436.896,-208.185 438.357,-215.031"/>
</g>
<!-- Node23&#45;&gt;Node12 -->
<g id="edge33" class="edge"><title>Node23&#45;&gt;Node12</title>
<path fill="none" stroke="midnightblue" d="M357.668,-228.399C364.741,-225.91 371.777,-222.82 378,-219 397.827,-206.83 393.877,-192.674 414,-181 418.481,-178.4 423.306,-176.155 428.279,-174.216"/>
<polygon fill="midnightblue" stroke="midnightblue" points="429.676,-177.436 437.976,-170.852 427.382,-170.823 429.676,-177.436"/>
</g>
<!-- Node25 -->
<g id="node25" class="node"><title>Node25</title>
<g id="a_node25"><a xlink:href="../../d1/d91/class_d_g_l_1_1_window.xhtml#adab9a04cf63d7a98abb609cc095eeb4c" target="_top" xlink:title="DGL::Window::loop">
<polygon fill="white" stroke="black" points="262,-456.5 262,-475.5 364,-475.5 364,-456.5 262,-456.5"/>
<text text-anchor="middle" x="313" y="-463.5" font-family="Helvetica,sans-Serif" font-size="10.00">DGL::Window::loop</text>
</a>
</g>
</g>
<!-- Node24&#45;&gt;Node25 -->
<g id="edge35" class="edge"><title>Node24&#45;&gt;Node25</title>
<path fill="none" stroke="midnightblue" d="M195.776,-452.856C213.51,-454.861 233.502,-457.122 251.841,-459.196"/>
<polygon fill="midnightblue" stroke="midnightblue" points="251.504,-462.68 261.834,-460.327 252.291,-455.725 251.504,-462.68"/>
</g>
<!-- Node25&#45;&gt;Node6 -->
<g id="edge36" class="edge"><title>Node25&#45;&gt;Node6</title>
<path fill="none" stroke="midnightblue" d="M364.035,-466C424.011,-466 525.53,-466 598.345,-466"/>
<polygon fill="midnightblue" stroke="midnightblue" points="598.422,-469.5 608.422,-466 598.422,-462.5 598.422,-469.5"/>
</g>
<!-- Node25&#45;&gt;Node7 -->
<g id="edge37" class="edge"><title>Node25&#45;&gt;Node7</title>
<path fill="none" stroke="midnightblue" d="M327.939,-456.373C346.706,-443.814 381.504,-421.923 414,-409 420.265,-406.509 426.948,-404.28 433.666,-402.305"/>
<polygon fill="midnightblue" stroke="midnightblue" points="434.784,-405.627 443.491,-399.59 432.92,-398.88 434.784,-405.627"/>
</g>
<!-- Node26 -->
<g id="node26" class="node"><title>Node26</title>
<g id="a_node26"><a xlink:href="../../df/dac/class_d_g_l_1_1_scene.xhtml#a721fec6f102c512d11d968b68e83b735" target="_top" xlink:title="DGL::Scene::getCurrentCamera">
<polygon fill="white" stroke="black" points="414.5,-570.5 414.5,-589.5 571.5,-589.5 571.5,-570.5 414.5,-570.5"/>
<text text-anchor="middle" x="493" y="-577.5" font-family="Helvetica,sans-Serif" font-size="10.00">DGL::Scene::getCurrentCamera</text>
</a>
</g>
</g>
<!-- Node25&#45;&gt;Node26 -->
<g id="edge38" class="edge"><title>Node25&#45;&gt;Node26</title>
<path fill="none" stroke="midnightblue" d="M345.39,-475.532C356.635,-480.085 368.793,-486.45 378,-495 402.483,-517.738 387.506,-540.641 414,-561 416.331,-562.791 418.808,-564.417 421.39,-565.891"/>
<polygon fill="midnightblue" stroke="midnightblue" points="419.996,-569.105 430.519,-570.343 423.065,-562.814 419.996,-569.105"/>
</g>
<!-- Node28 -->
<g id="node28" class="node"><title>Node28</title>
<g id="a_node28"><a xlink:href="../../dd/d5a/class_d_g_l_1_1_camera.xhtml#ac0bc172a05ece226fe7f1aa1f19c2b07" target="_top" xlink:title="DGL::Camera::onMouseButton">
<polygon fill="white" stroke="black" points="417,-418.5 417,-437.5 569,-437.5 569,-418.5 417,-418.5"/>
<text text-anchor="middle" x="493" y="-425.5" font-family="Helvetica,sans-Serif" font-size="10.00">DGL::Camera::onMouseButton</text>
</a>
</g>
</g>
<!-- Node25&#45;&gt;Node28 -->
<g id="edge40" class="edge"><title>Node25&#45;&gt;Node28</title>
<path fill="none" stroke="midnightblue" d="M358.917,-456.411C382.829,-451.306 412.421,-444.989 437.625,-439.608"/>
<polygon fill="midnightblue" stroke="midnightblue" points="438.357,-443.031 447.406,-437.52 436.896,-436.185 438.357,-443.031"/>
</g>
<!-- Node29 -->
<g id="node29" class="node"><title>Node29</title>
<g id="a_node29"><a xlink:href="../../d1/d91/class_d_g_l_1_1_window.xhtml#a1fb8aa99bba991ea319338fcd05ed1a9" target="_top" xlink:title="DGL::Window::onResize">
<polygon fill="white" stroke="black" points="430.5,-532.5 430.5,-551.5 555.5,-551.5 555.5,-532.5 430.5,-532.5"/>
<text text-anchor="middle" x="493" y="-539.5" font-family="Helvetica,sans-Serif" font-size="10.00">DGL::Window::onResize</text>
</a>
</g>
</g>
<!-- Node25&#45;&gt;Node29 -->
<g id="edge41" class="edge"><title>Node25&#45;&gt;Node29</title>
<path fill="none" stroke="midnightblue" d="M338.693,-475.58C350.871,-480.702 365.574,-487.496 378,-495 395.352,-505.478 395.748,-514.184 414,-523 418.942,-525.387 424.208,-527.489 429.583,-529.338"/>
<polygon fill="midnightblue" stroke="midnightblue" points="428.739,-532.741 439.328,-532.398 430.836,-526.063 428.739,-532.741"/>
</g>
<!-- Node30 -->
<g id="node30" class="node"><title>Node30</title>
<g id="a_node30"><a xlink:href="../../d1/d91/class_d_g_l_1_1_window.xhtml#ab6f9b7d1314fdb6fe8ba24ca1220ea77" target="_top" xlink:title="DGL::Window::draw">
<polygon fill="white" stroke="black" points="440.5,-494.5 440.5,-513.5 545.5,-513.5 545.5,-494.5 440.5,-494.5"/>
<text text-anchor="middle" x="493" y="-501.5" font-family="Helvetica,sans-Serif" font-size="10.00">DGL::Window::draw</text>
</a>
</g>
</g>
<!-- Node25&#45;&gt;Node30 -->
<g id="edge42" class="edge"><title>Node25&#45;&gt;Node30</title>
<path fill="none" stroke="midnightblue" d="M358.917,-475.589C382.829,-480.694 412.421,-487.011 437.625,-492.392"/>
<polygon fill="midnightblue" stroke="midnightblue" points="436.896,-495.815 447.406,-494.48 438.357,-488.969 436.896,-495.815"/>
</g>
<!-- Node27 -->
<g id="node27" class="node"><title>Node27</title>
<g id="a_node27"><a xlink:href="../../dd/d66/class_d_g_l_1_1_object.xhtml#ac0206b6e1bf48aca64c0c9aabf2a6f57" target="_top" xlink:title="DGL::Object::getCurrentObject">
<polygon fill="white" stroke="black" points="610,-570.5 610,-589.5 762,-589.5 762,-570.5 610,-570.5"/>
<text text-anchor="middle" x="686" y="-577.5" font-family="Helvetica,sans-Serif" font-size="10.00">DGL::Object::getCurrentObject</text>
</a>
</g>
</g>
<!-- Node26&#45;&gt;Node27 -->
<g id="edge39" class="edge"><title>Node26&#45;&gt;Node27</title>
<path fill="none" stroke="midnightblue" d="M571.687,-580C580.94,-580 590.425,-580 599.776,-580"/>
<polygon fill="midnightblue" stroke="midnightblue" points="599.854,-583.5 609.854,-580 599.854,-576.5 599.854,-583.5"/>
</g>
<!-- Node30&#45;&gt;Node6 -->
<g id="edge43" class="edge"><title>Node30&#45;&gt;Node6</title>
<path fill="none" stroke="midnightblue" d="M542.197,-494.411C567.97,-489.284 599.891,-482.933 627.012,-477.537"/>
<polygon fill="midnightblue" stroke="midnightblue" points="628.024,-480.904 637.149,-475.52 626.658,-474.039 628.024,-480.904"/>
</g>
<!-- Node31 -->
<g id="node31" class="node"><title>Node31</title>
<g id="a_node31"><a xlink:href="../../d2/df1/class_d_g_l_1_1_world.xhtml#a784371e7114e6e10b772117d36c19aed" target="_top" xlink:title="DGL::World::draw">
<polygon fill="white" stroke="black" points="638.5,-494.5 638.5,-513.5 733.5,-513.5 733.5,-494.5 638.5,-494.5"/>
<text text-anchor="middle" x="686" y="-501.5" font-family="Helvetica,sans-Serif" font-size="10.00">DGL::World::draw</text>
</a>
</g>
</g>
<!-- Node30&#45;&gt;Node31 -->
<g id="edge44" class="edge"><title>Node30&#45;&gt;Node31</title>
<path fill="none" stroke="midnightblue" d="M545.687,-504C571.241,-504 602.138,-504 628.335,-504"/>
<polygon fill="midnightblue" stroke="midnightblue" points="628.496,-507.5 638.496,-504 628.496,-500.5 628.496,-507.5"/>
</g>
</g>
</svg>
