<?xml version="1.0" encoding="UTF-8" standalone="no"?>
<!DOCTYPE svg PUBLIC "-//W3C//DTD SVG 1.1//EN"
 "http://www.w3.org/Graphics/SVG/1.1/DTD/svg11.dtd">
<!-- Generated by graphviz version 2.36.0 (20140111.2315)
 -->
<!-- Title: CGLScene::addItem Pages: 1 -->
<svg width="404pt" height="46pt"
 viewBox="0.00 0.00 404.00 46.00" xmlns="http://www.w3.org/2000/svg" xmlns:xlink="http://www.w3.org/1999/xlink">
<g id="graph0" class="graph" transform="scale(1 1) rotate(0) translate(4 42)">
<title>CGLScene::addItem</title>
<polygon fill="white" stroke="none" points="-4,4 -4,-42 400,-42 400,4 -4,4"/>
<!-- Node1 -->
<g id="node1" class="node"><title>Node1</title>
<polygon fill="#bfbfbf" stroke="black" points="0,-0.5 0,-19.5 106,-19.5 106,-0.5 0,-0.5"/>
<text text-anchor="middle" x="53" y="-7.5" font-family="Helvetica,sans-Serif" font-size="10.00">CGLScene::addItem</text>
</g>
<!-- Node2 -->
<g id="node2" class="node"><title>Node2</title>
<g id="a_node2"><a xlink:href="../../d2/d76/class_c_g_l_object.xhtml#a83b8918905a5449c94e4447791b61abd" target="_top" xlink:title="CGLObject::addObject">
<polygon fill="white" stroke="black" points="142,-0.5 142,-19.5 258,-19.5 258,-0.5 142,-0.5"/>
<text text-anchor="middle" x="200" y="-7.5" font-family="Helvetica,sans-Serif" font-size="10.00">CGLObject::addObject</text>
</a>
</g>
</g>
<!-- Node1&#45;&gt;Node2 -->
<g id="edge1" class="edge"><title>Node1&#45;&gt;Node2</title>
<path fill="none" stroke="midnightblue" d="M106.348,-10C114.538,-10 123.1,-10 131.569,-10"/>
<polygon fill="midnightblue" stroke="midnightblue" points="131.822,-13.5001 141.822,-10 131.822,-6.5001 131.822,-13.5001"/>
</g>
<!-- Node2&#45;&gt;Node2 -->
<g id="edge3" class="edge"><title>Node2&#45;&gt;Node2</title>
<path fill="none" stroke="midnightblue" d="M177.805,-19.7571C167.008,-28.5653 174.406,-38 200,-38 216.796,-38 225.756,-33.9368 226.879,-28.6539"/>
<polygon fill="midnightblue" stroke="midnightblue" points="229.951,-26.9747 222.195,-19.7571 223.757,-30.2361 229.951,-26.9747"/>
</g>
<!-- Node3 -->
<g id="node3" class="node"><title>Node3</title>
<g id="a_node3"><a xlink:href="../../d2/d76/class_c_g_l_object.xhtml#a80d01439776edc9443b47a7a9e5b9e94" target="_top" xlink:title="CGLObject::isChild">
<polygon fill="white" stroke="black" points="294.5,-0.5 294.5,-19.5 395.5,-19.5 395.5,-0.5 294.5,-0.5"/>
<text text-anchor="middle" x="345" y="-7.5" font-family="Helvetica,sans-Serif" font-size="10.00">CGLObject::isChild</text>
</a>
</g>
</g>
<!-- Node2&#45;&gt;Node3 -->
<g id="edge2" class="edge"><title>Node2&#45;&gt;Node3</title>
<path fill="none" stroke="midnightblue" d="M258.34,-10C266.94,-10 275.826,-10 284.471,-10"/>
<polygon fill="midnightblue" stroke="midnightblue" points="284.478,-13.5001 294.478,-10 284.478,-6.5001 284.478,-13.5001"/>
</g>
</g>
</svg>
