<?xml version="1.0" encoding="UTF-8" standalone="no"?>
<!DOCTYPE svg PUBLIC "-//W3C//DTD SVG 1.1//EN"
 "http://www.w3.org/Graphics/SVG/1.1/DTD/svg11.dtd">
<!-- Generated by graphviz version 2.36.0 (20140111.2315)
 -->
<!-- Title: CGLScene::draw Pages: 1 -->
<svg width="446pt" height="104pt"
 viewBox="0.00 0.00 446.00 104.00" xmlns="http://www.w3.org/2000/svg" xmlns:xlink="http://www.w3.org/1999/xlink">
<g id="graph0" class="graph" transform="scale(1 1) rotate(0) translate(4 100)">
<title>CGLScene::draw</title>
<polygon fill="white" stroke="none" points="-4,4 -4,-100 442,-100 442,4 -4,4"/>
<!-- Node1 -->
<g id="node1" class="node"><title>Node1</title>
<polygon fill="#bfbfbf" stroke="black" points="0,-38.5 0,-57.5 92,-57.5 92,-38.5 0,-38.5"/>
<text text-anchor="middle" x="46" y="-45.5" font-family="Helvetica,sans-Serif" font-size="10.00">CGLScene::draw</text>
</g>
<!-- Node2 -->
<g id="node2" class="node"><title>Node2</title>
<g id="a_node2"><a xlink:href="../../d2/d76/class_c_g_l_object.xhtml#a17159bf8a16301adca577be4311806d1" target="_top" xlink:title="CGLObject::getCurrentObject">
<polygon fill="white" stroke="black" points="128,-76.5 128,-95.5 274,-95.5 274,-76.5 128,-76.5"/>
<text text-anchor="middle" x="201" y="-83.5" font-family="Helvetica,sans-Serif" font-size="10.00">CGLObject::getCurrentObject</text>
</a>
</g>
</g>
<!-- Node1&#45;&gt;Node2 -->
<g id="edge1" class="edge"><title>Node1&#45;&gt;Node2</title>
<path fill="none" stroke="midnightblue" d="M85.6084,-57.589C105.707,-62.5809 130.475,-68.7324 151.819,-74.0334"/>
<polygon fill="midnightblue" stroke="midnightblue" points="151.12,-77.4662 161.669,-76.4799 152.808,-70.6726 151.12,-77.4662"/>
</g>
<!-- Node3 -->
<g id="node3" class="node"><title>Node3</title>
<g id="a_node3"><a xlink:href="../../d2/d76/class_c_g_l_object.xhtml#a39c4cde56d18140384842d074407c5c4" target="_top" xlink:title="CGLObject::draw">
<polygon fill="white" stroke="black" points="155,-0.5 155,-19.5 247,-19.5 247,-0.5 155,-0.5"/>
<text text-anchor="middle" x="201" y="-7.5" font-family="Helvetica,sans-Serif" font-size="10.00">CGLObject::draw</text>
</a>
</g>
</g>
<!-- Node1&#45;&gt;Node3 -->
<g id="edge2" class="edge"><title>Node1&#45;&gt;Node3</title>
<path fill="none" stroke="midnightblue" d="M85.6084,-38.411C105.707,-33.4191 130.475,-27.2676 151.819,-21.9666"/>
<polygon fill="midnightblue" stroke="midnightblue" points="152.808,-25.3274 161.669,-19.5201 151.12,-18.5338 152.808,-25.3274"/>
</g>
<!-- Node4 -->
<g id="node4" class="node"><title>Node4</title>
<g id="a_node4"><a xlink:href="../../d2/d76/class_c_g_l_object.xhtml#a6c23675f91b2adc88a95d6da869652d4" target="_top" xlink:title="CGLObject::drawChildren">
<polygon fill="white" stroke="black" points="310,-38.5 310,-57.5 438,-57.5 438,-38.5 310,-38.5"/>
<text text-anchor="middle" x="374" y="-45.5" font-family="Helvetica,sans-Serif" font-size="10.00">CGLObject::drawChildren</text>
</a>
</g>
</g>
<!-- Node1&#45;&gt;Node4 -->
<g id="edge5" class="edge"><title>Node1&#45;&gt;Node4</title>
<path fill="none" stroke="midnightblue" d="M92.3289,-48C145.942,-48 235.921,-48 299.529,-48"/>
<polygon fill="midnightblue" stroke="midnightblue" points="299.896,-51.5001 309.896,-48 299.896,-44.5001 299.896,-51.5001"/>
</g>
<!-- Node3&#45;&gt;Node4 -->
<g id="edge3" class="edge"><title>Node3&#45;&gt;Node4</title>
<path fill="none" stroke="midnightblue" d="M245.151,-19.589C267.919,-24.6487 296.048,-30.8996 320.119,-36.2488"/>
<polygon fill="midnightblue" stroke="midnightblue" points="319.639,-39.7272 330.16,-38.4799 321.157,-32.8939 319.639,-39.7272"/>
</g>
<!-- Node5 -->
<g id="node5" class="node"><title>Node5</title>
<g id="a_node5"><a xlink:href="../../d2/d76/class_c_g_l_object.xhtml#a2781ec98c37bd209f2382c5130a365b9" target="_top" xlink:title="CGLObject::drawObject">
<polygon fill="white" stroke="black" points="313.5,-0.5 313.5,-19.5 434.5,-19.5 434.5,-0.5 313.5,-0.5"/>
<text text-anchor="middle" x="374" y="-7.5" font-family="Helvetica,sans-Serif" font-size="10.00">CGLObject::drawObject</text>
</a>
</g>
</g>
<!-- Node3&#45;&gt;Node5 -->
<g id="edge4" class="edge"><title>Node3&#45;&gt;Node5</title>
<path fill="none" stroke="midnightblue" d="M247.376,-10C264.486,-10 284.368,-10 303.198,-10"/>
<polygon fill="midnightblue" stroke="midnightblue" points="303.226,-13.5001 313.226,-10 303.226,-6.5001 303.226,-13.5001"/>
</g>
</g>
</svg>
