<?xml version="1.0" encoding="UTF-8" standalone="no"?>
<!DOCTYPE svg PUBLIC "-//W3C//DTD SVG 1.1//EN"
 "http://www.w3.org/Graphics/SVG/1.1/DTD/svg11.dtd">
<!-- Generated by graphviz version 2.36.0 (20140111.2315)
 -->
<!-- Title: CGLScene::getCurrentCamera Pages: 1 -->
<svg width="502pt" height="28pt"
 viewBox="0.00 0.00 502.00 28.00" xmlns="http://www.w3.org/2000/svg" xmlns:xlink="http://www.w3.org/1999/xlink">
<g id="graph0" class="graph" transform="scale(1 1) rotate(0) translate(4 24)">
<title>CGLScene::getCurrentCamera</title>
<polygon fill="white" stroke="none" points="-4,4 -4,-24 498,-24 498,4 -4,4"/>
<!-- Node1 -->
<g id="node1" class="node"><title>Node1</title>
<polygon fill="#bfbfbf" stroke="black" points="0.5,-0.5 0.5,-19.5 151.5,-19.5 151.5,-0.5 0.5,-0.5"/>
<text text-anchor="middle" x="76" y="-7.5" font-family="Helvetica,sans-Serif" font-size="10.00">CGLScene::getCurrentCamera</text>
</g>
<!-- Node2 -->
<g id="node2" class="node"><title>Node2</title>
<g id="a_node2"><a xlink:href="../../dd/d40/class_c_g_l_window.xhtml#a87ea72d63fe563266178e72a19722e5d" target="_top" xlink:title="CGLWindow::loop">
<polygon fill="white" stroke="black" points="188,-0.5 188,-19.5 284,-19.5 284,-0.5 188,-0.5"/>
<text text-anchor="middle" x="236" y="-7.5" font-family="Helvetica,sans-Serif" font-size="10.00">CGLWindow::loop</text>
</a>
</g>
</g>
<!-- Node1&#45;&gt;Node2 -->
<g id="edge1" class="edge"><title>Node1&#45;&gt;Node2</title>
<path fill="none" stroke="midnightblue" d="M161.918,-10C170.831,-10 179.643,-10 187.897,-10"/>
<polygon fill="midnightblue" stroke="midnightblue" points="161.836,-6.5001 151.836,-10 161.836,-13.5001 161.836,-6.5001"/>
</g>
<!-- Node3 -->
<g id="node3" class="node"><title>Node3</title>
<g id="a_node3"><a xlink:href="../../dd/d40/class_c_g_l_window.xhtml#acee59c3d1b3a12c43fccf7f225c98dd6" target="_top" xlink:title="CGLWindow::exec">
<polygon fill="white" stroke="black" points="320.5,-0.5 320.5,-19.5 419.5,-19.5 419.5,-0.5 320.5,-0.5"/>
<text text-anchor="middle" x="370" y="-7.5" font-family="Helvetica,sans-Serif" font-size="10.00">CGLWindow::exec</text>
</a>
</g>
</g>
<!-- Node2&#45;&gt;Node3 -->
<g id="edge2" class="edge"><title>Node2&#45;&gt;Node3</title>
<path fill="none" stroke="midnightblue" d="M294.31,-10C302.963,-10 311.819,-10 320.268,-10"/>
<polygon fill="midnightblue" stroke="midnightblue" points="294.282,-6.5001 284.282,-10 294.282,-13.5001 294.282,-6.5001"/>
</g>
<!-- Node4 -->
<g id="node4" class="node"><title>Node4</title>
<g id="a_node4"><a xlink:href="../../db/dec/_damier_g_l_8cpp.xhtml#a0ddf1224851353fc92bfbff6f499fa97" target="_top" xlink:title="main">
<polygon fill="white" stroke="black" points="456,-0.5 456,-19.5 494,-19.5 494,-0.5 456,-0.5"/>
<text text-anchor="middle" x="475" y="-7.5" font-family="Helvetica,sans-Serif" font-size="10.00">main</text>
</a>
</g>
</g>
<!-- Node3&#45;&gt;Node4 -->
<g id="edge3" class="edge"><title>Node3&#45;&gt;Node4</title>
<path fill="none" stroke="midnightblue" d="M430.048,-10C439.439,-10 448.487,-10 455.908,-10"/>
<polygon fill="midnightblue" stroke="midnightblue" points="429.785,-6.5001 419.785,-10 429.785,-13.5001 429.785,-6.5001"/>
</g>
</g>
</svg>
