<?xml version="1.0" encoding="UTF-8" standalone="no"?>
<!DOCTYPE svg PUBLIC "-//W3C//DTD SVG 1.1//EN"
 "http://www.w3.org/Graphics/SVG/1.1/DTD/svg11.dtd">
<!-- Generated by graphviz version 2.36.0 (20140111.2315)
 -->
<!-- Title: /home/dagal/git/DamierGL/DamierGL/src/CGL/CGLVector3D.h Pages: 1 -->
<svg width="1661pt" height="244pt"
 viewBox="0.00 0.00 1661.00 244.00" xmlns="http://www.w3.org/2000/svg" xmlns:xlink="http://www.w3.org/1999/xlink">
<g id="graph0" class="graph" transform="scale(1 1) rotate(0) translate(4 240)">
<title>/home/dagal/git/DamierGL/DamierGL/src/CGL/CGLVector3D.h</title>
<polygon fill="white" stroke="none" points="-4,4 -4,-240 1657,-240 1657,4 -4,4"/>
<!-- Node1 -->
<g id="node1" class="node"><title>Node1</title>
<polygon fill="#bfbfbf" stroke="black" points="907,-205 907,-235 1083,-235 1083,-205 907,-205"/>
<text text-anchor="start" x="915" y="-223" font-family="Helvetica,sans-Serif" font-size="10.00">/home/dagal/git/DamierGL</text>
<text text-anchor="middle" x="995" y="-212" font-family="Helvetica,sans-Serif" font-size="10.00">/DamierGL/src/CGL/CGLVector3D.h</text>
</g>
<!-- Node2 -->
<g id="node2" class="node"><title>Node2</title>
<g id="a_node2"><a xlink:href="$df/dcb/_c_g_l_vector4_d_8h.xhtml" xlink:title="/home/dagal/git/DamierGL\l/DamierGL/src/CGL/CGLVector4D.h">
<polygon fill="white" stroke="black" points="186,-137 186,-167 362,-167 362,-137 186,-137"/>
<text text-anchor="start" x="194" y="-155" font-family="Helvetica,sans-Serif" font-size="10.00">/home/dagal/git/DamierGL</text>
<text text-anchor="middle" x="274" y="-144" font-family="Helvetica,sans-Serif" font-size="10.00">/DamierGL/src/CGL/CGLVector4D.h</text>
</a>
</g>
</g>
<!-- Node1&#45;&gt;Node2 -->
<g id="edge1" class="edge"><title>Node1&#45;&gt;Node2</title>
<path fill="none" stroke="midnightblue" d="M896.572,-209.99C755.345,-197.062 497.372,-173.447 362.104,-161.065"/>
<polygon fill="midnightblue" stroke="midnightblue" points="896.674,-213.514 906.952,-210.94 897.313,-206.543 896.674,-213.514"/>
</g>
<!-- Node7 -->
<g id="node7" class="node"><title>Node7</title>
<g id="a_node7"><a xlink:href="$df/d4a/_c_g_l_line_8h.xhtml" xlink:title="/home/dagal/git/DamierGL\l/DamierGL/src/CGL/CGLLine.h">
<polygon fill="white" stroke="black" points="831.5,-137 831.5,-167 984.5,-167 984.5,-137 831.5,-137"/>
<text text-anchor="start" x="839.5" y="-155" font-family="Helvetica,sans-Serif" font-size="10.00">/home/dagal/git/DamierGL</text>
<text text-anchor="middle" x="908" y="-144" font-family="Helvetica,sans-Serif" font-size="10.00">/DamierGL/src/CGL/CGLLine.h</text>
</a>
</g>
</g>
<!-- Node1&#45;&gt;Node7 -->
<g id="edge6" class="edge"><title>Node1&#45;&gt;Node7</title>
<path fill="none" stroke="midnightblue" d="M968.108,-198.599C954.626,-188.371 938.638,-176.243 926.542,-167.066"/>
<polygon fill="midnightblue" stroke="midnightblue" points="966.04,-201.424 976.122,-204.679 970.271,-195.847 966.04,-201.424"/>
</g>
<!-- Node9 -->
<g id="node9" class="node"><title>Node9</title>
<g id="a_node9"><a xlink:href="$db/d5d/_c_g_l_position_8h.xhtml" xlink:title="/home/dagal/git/DamierGL\l/DamierGL/src/CGL/CGLPosition.h">
<polygon fill="white" stroke="black" points="608,-137 608,-167 778,-167 778,-137 608,-137"/>
<text text-anchor="start" x="616" y="-155" font-family="Helvetica,sans-Serif" font-size="10.00">/home/dagal/git/DamierGL</text>
<text text-anchor="middle" x="693" y="-144" font-family="Helvetica,sans-Serif" font-size="10.00">/DamierGL/src/CGL/CGLPosition.h</text>
</a>
</g>
</g>
<!-- Node1&#45;&gt;Node9 -->
<g id="edge9" class="edge"><title>Node1&#45;&gt;Node9</title>
<path fill="none" stroke="midnightblue" d="M920.778,-202.779C870.673,-191.829 805.202,-177.521 757.317,-167.056"/>
<polygon fill="midnightblue" stroke="midnightblue" points="920.067,-206.206 930.584,-204.922 921.562,-199.368 920.067,-206.206"/>
</g>
<!-- Node13 -->
<g id="node13" class="node"><title>Node13</title>
<g id="a_node13"><a xlink:href="$d5/d65/_c_g_l_rotation_8h.xhtml" xlink:title="/home/dagal/git/DamierGL\l/DamierGL/src/CGL/CGLRotation.h">
<polygon fill="white" stroke="black" points="1229,-137 1229,-167 1401,-167 1401,-137 1229,-137"/>
<text text-anchor="start" x="1237" y="-155" font-family="Helvetica,sans-Serif" font-size="10.00">/home/dagal/git/DamierGL</text>
<text text-anchor="middle" x="1315" y="-144" font-family="Helvetica,sans-Serif" font-size="10.00">/DamierGL/src/CGL/CGLRotation.h</text>
</a>
</g>
</g>
<!-- Node1&#45;&gt;Node13 -->
<g id="edge14" class="edge"><title>Node1&#45;&gt;Node13</title>
<path fill="none" stroke="midnightblue" d="M1073.31,-202.848C1126.45,-191.889 1196,-177.543 1246.85,-167.056"/>
<polygon fill="midnightblue" stroke="midnightblue" points="1072.34,-199.474 1063.26,-204.922 1073.76,-206.33 1072.34,-199.474"/>
</g>
<!-- Node17 -->
<g id="node17" class="node"><title>Node17</title>
<g id="a_node17"><a xlink:href="$d2/d1b/_c_g_l_scale_8h.xhtml" xlink:title="/home/dagal/git/DamierGL\l/DamierGL/src/CGL/CGLScale.h">
<polygon fill="white" stroke="black" points="1003,-137 1003,-167 1163,-167 1163,-137 1003,-137"/>
<text text-anchor="start" x="1011" y="-155" font-family="Helvetica,sans-Serif" font-size="10.00">/home/dagal/git/DamierGL</text>
<text text-anchor="middle" x="1083" y="-144" font-family="Helvetica,sans-Serif" font-size="10.00">/DamierGL/src/CGL/CGLScale.h</text>
</a>
</g>
</g>
<!-- Node1&#45;&gt;Node17 -->
<g id="edge19" class="edge"><title>Node1&#45;&gt;Node17</title>
<path fill="none" stroke="midnightblue" d="M1022.2,-198.599C1035.84,-188.371 1052.01,-176.243 1064.24,-167.066"/>
<polygon fill="midnightblue" stroke="midnightblue" points="1019.99,-195.879 1014.09,-204.679 1024.19,-201.479 1019.99,-195.879"/>
</g>
<!-- Node19 -->
<g id="node19" class="node"><title>Node19</title>
<g id="a_node19"><a xlink:href="$d5/d0d/_c_g_l_vector3_d_8cpp.xhtml" xlink:title="/home/dagal/git/DamierGL\l/DamierGL/src/CGL/CGLVector3D.cpp">
<polygon fill="white" stroke="black" points="1419.5,-137 1419.5,-167 1606.5,-167 1606.5,-137 1419.5,-137"/>
<text text-anchor="start" x="1427.5" y="-155" font-family="Helvetica,sans-Serif" font-size="10.00">/home/dagal/git/DamierGL</text>
<text text-anchor="middle" x="1513" y="-144" font-family="Helvetica,sans-Serif" font-size="10.00">/DamierGL/src/CGL/CGLVector3D.cpp</text>
</a>
</g>
</g>
<!-- Node1&#45;&gt;Node19 -->
<g id="edge22" class="edge"><title>Node1&#45;&gt;Node19</title>
<path fill="none" stroke="midnightblue" d="M1093.37,-207.538C1177.51,-197.584 1301.8,-182.525 1410,-168 1413.04,-167.591 1416.14,-167.171 1419.26,-166.742"/>
<polygon fill="midnightblue" stroke="midnightblue" points="1092.84,-204.077 1083.32,-208.726 1093.66,-211.029 1092.84,-204.077"/>
</g>
<!-- Node3 -->
<g id="node3" class="node"><title>Node3</title>
<g id="a_node3"><a xlink:href="$da/de7/_c_g_l_color_8h.xhtml" xlink:title="/home/dagal/git/DamierGL\l/DamierGL/src/CGL/CGLColor.h">
<polygon fill="white" stroke="black" points="5,-69 5,-99 163,-99 163,-69 5,-69"/>
<text text-anchor="start" x="13" y="-87" font-family="Helvetica,sans-Serif" font-size="10.00">/home/dagal/git/DamierGL</text>
<text text-anchor="middle" x="84" y="-76" font-family="Helvetica,sans-Serif" font-size="10.00">/DamierGL/src/CGL/CGLColor.h</text>
</a>
</g>
</g>
<!-- Node2&#45;&gt;Node3 -->
<g id="edge2" class="edge"><title>Node2&#45;&gt;Node3</title>
<path fill="none" stroke="midnightblue" d="M223.483,-133.452C192.474,-122.68 153.299,-109.072 124.366,-99.0218"/>
<polygon fill="midnightblue" stroke="midnightblue" points="222.645,-136.866 233.24,-136.841 224.942,-130.254 222.645,-136.866"/>
</g>
<!-- Node6 -->
<g id="node6" class="node"><title>Node6</title>
<g id="a_node6"><a xlink:href="$d1/d00/_c_g_l_vector4_d_8cpp.xhtml" xlink:title="/home/dagal/git/DamierGL\l/DamierGL/src/CGL/CGLVector4D.cpp">
<polygon fill="white" stroke="black" points="180.5,-69 180.5,-99 367.5,-99 367.5,-69 180.5,-69"/>
<text text-anchor="start" x="188.5" y="-87" font-family="Helvetica,sans-Serif" font-size="10.00">/home/dagal/git/DamierGL</text>
<text text-anchor="middle" x="274" y="-76" font-family="Helvetica,sans-Serif" font-size="10.00">/DamierGL/src/CGL/CGLVector4D.cpp</text>
</a>
</g>
</g>
<!-- Node2&#45;&gt;Node6 -->
<g id="edge5" class="edge"><title>Node2&#45;&gt;Node6</title>
<path fill="none" stroke="midnightblue" d="M274,-126.532C274,-117.361 274,-107.245 274,-99.2931"/>
<polygon fill="midnightblue" stroke="midnightblue" points="270.5,-126.679 274,-136.679 277.5,-126.679 270.5,-126.679"/>
</g>
<!-- Node4 -->
<g id="node4" class="node"><title>Node4</title>
<g id="a_node4"><a xlink:href="$da/d19/_c_g_l_color_8cpp.xhtml" xlink:title="/home/dagal/git/DamierGL\l/DamierGL/src/CGL/CGLColor.cpp">
<polygon fill="white" stroke="black" points="-0.5,-1 -0.5,-31 168.5,-31 168.5,-1 -0.5,-1"/>
<text text-anchor="start" x="7.5" y="-19" font-family="Helvetica,sans-Serif" font-size="10.00">/home/dagal/git/DamierGL</text>
<text text-anchor="middle" x="84" y="-8" font-family="Helvetica,sans-Serif" font-size="10.00">/DamierGL/src/CGL/CGLColor.cpp</text>
</a>
</g>
</g>
<!-- Node3&#45;&gt;Node4 -->
<g id="edge3" class="edge"><title>Node3&#45;&gt;Node4</title>
<path fill="none" stroke="midnightblue" d="M84,-58.5322C84,-49.3606 84,-39.2449 84,-31.2931"/>
<polygon fill="midnightblue" stroke="midnightblue" points="80.5001,-58.6789 84,-68.679 87.5001,-58.679 80.5001,-58.6789"/>
</g>
<!-- Node5 -->
<g id="node5" class="node"><title>Node5</title>
<g id="a_node5"><a xlink:href="$db/dec/_damier_g_l_8cpp.xhtml" xlink:title="/home/dagal/git/DamierGL\l/DamierGL/src/DamierGL.cpp">
<polygon fill="white" stroke="black" points="921,-1 921,-31 1067,-31 1067,-1 921,-1"/>
<text text-anchor="start" x="929" y="-19" font-family="Helvetica,sans-Serif" font-size="10.00">/home/dagal/git/DamierGL</text>
<text text-anchor="middle" x="994" y="-8" font-family="Helvetica,sans-Serif" font-size="10.00">/DamierGL/src/DamierGL.cpp</text>
</a>
</g>
</g>
<!-- Node3&#45;&gt;Node5 -->
<g id="edge4" class="edge"><title>Node3&#45;&gt;Node5</title>
<path fill="none" stroke="midnightblue" d="M173.12,-67.8219C454.381,-35.4951 778.507,-23.0669 920.824,-18.8622"/>
<polygon fill="midnightblue" stroke="midnightblue" points="172.663,-64.3514 163.133,-68.9803 173.47,-71.3047 172.663,-64.3514"/>
</g>
<!-- Node7&#45;&gt;Node5 -->
<g id="edge8" class="edge"><title>Node7&#45;&gt;Node5</title>
<path fill="none" stroke="midnightblue" d="M943.008,-131.294C954.79,-123.047 966.969,-112.458 975,-100 988.776,-78.6298 992.618,-48.5083 993.655,-31.0419"/>
<polygon fill="midnightblue" stroke="midnightblue" points="940.974,-128.443 934.564,-136.879 944.836,-134.282 940.974,-128.443"/>
</g>
<!-- Node8 -->
<g id="node8" class="node"><title>Node8</title>
<g id="a_node8"><a xlink:href="$df/de2/_c_g_l_line_8cpp.xhtml" xlink:title="/home/dagal/git/DamierGL\l/DamierGL/src/CGL/CGLLine.cpp">
<polygon fill="white" stroke="black" points="802,-69 802,-99 966,-99 966,-69 802,-69"/>
<text text-anchor="start" x="810" y="-87" font-family="Helvetica,sans-Serif" font-size="10.00">/home/dagal/git/DamierGL</text>
<text text-anchor="middle" x="884" y="-76" font-family="Helvetica,sans-Serif" font-size="10.00">/DamierGL/src/CGL/CGLLine.cpp</text>
</a>
</g>
</g>
<!-- Node7&#45;&gt;Node8 -->
<g id="edge7" class="edge"><title>Node7&#45;&gt;Node8</title>
<path fill="none" stroke="midnightblue" d="M899.32,-127.129C895.928,-117.801 892.152,-107.418 889.197,-99.2931"/>
<polygon fill="midnightblue" stroke="midnightblue" points="896.086,-128.477 902.792,-136.679 902.664,-126.085 896.086,-128.477"/>
</g>
<!-- Node10 -->
<g id="node10" class="node"><title>Node10</title>
<g id="a_node10"><a xlink:href="$db/d18/_c_g_l_position_8cpp.xhtml" xlink:title="/home/dagal/git/DamierGL\l/DamierGL/src/CGL/CGLPosition.cpp">
<polygon fill="white" stroke="black" points="602.5,-69 602.5,-99 783.5,-99 783.5,-69 602.5,-69"/>
<text text-anchor="start" x="610.5" y="-87" font-family="Helvetica,sans-Serif" font-size="10.00">/home/dagal/git/DamierGL</text>
<text text-anchor="middle" x="693" y="-76" font-family="Helvetica,sans-Serif" font-size="10.00">/DamierGL/src/CGL/CGLPosition.cpp</text>
</a>
</g>
</g>
<!-- Node9&#45;&gt;Node10 -->
<g id="edge10" class="edge"><title>Node9&#45;&gt;Node10</title>
<path fill="none" stroke="midnightblue" d="M693,-126.532C693,-117.361 693,-107.245 693,-99.2931"/>
<polygon fill="midnightblue" stroke="midnightblue" points="689.5,-126.679 693,-136.679 696.5,-126.679 689.5,-126.679"/>
</g>
<!-- Node11 -->
<g id="node11" class="node"><title>Node11</title>
<g id="a_node11"><a xlink:href="$d0/d52/_c_g_l_position_speed_8h.xhtml" xlink:title="/home/dagal/git/DamierGL\l/DamierGL/src/CGL/CGLPositionSpeed.h">
<polygon fill="white" stroke="black" points="386,-69 386,-99 584,-99 584,-69 386,-69"/>
<text text-anchor="start" x="394" y="-87" font-family="Helvetica,sans-Serif" font-size="10.00">/home/dagal/git/DamierGL</text>
<text text-anchor="middle" x="485" y="-76" font-family="Helvetica,sans-Serif" font-size="10.00">/DamierGL/src/CGL/CGLPositionSpeed.h</text>
</a>
</g>
</g>
<!-- Node9&#45;&gt;Node11 -->
<g id="edge11" class="edge"><title>Node9&#45;&gt;Node11</title>
<path fill="none" stroke="midnightblue" d="M638.834,-133.813C604.751,-122.998 561.316,-109.216 529.298,-99.0561"/>
<polygon fill="midnightblue" stroke="midnightblue" points="638.044,-137.234 648.634,-136.922 640.161,-130.562 638.044,-137.234"/>
</g>
<!-- Node11&#45;&gt;Node5 -->
<g id="edge13" class="edge"><title>Node11&#45;&gt;Node5</title>
<path fill="none" stroke="midnightblue" d="M594.292,-67.8364C714.667,-51.8673 842.578,-35.7857 920.794,-26.054"/>
<polygon fill="midnightblue" stroke="midnightblue" points="593.611,-64.396 584.159,-69.1828 594.533,-71.3351 593.611,-64.396"/>
</g>
<!-- Node12 -->
<g id="node12" class="node"><title>Node12</title>
<g id="a_node12"><a xlink:href="$de/d6f/_c_g_l_position_speed_8cpp.xhtml" xlink:title="/home/dagal/git/DamierGL\l/DamierGL/src/CGL/CGLPositionSpeed.cpp">
<polygon fill="white" stroke="black" points="380.5,-1 380.5,-31 589.5,-31 589.5,-1 380.5,-1"/>
<text text-anchor="start" x="388.5" y="-19" font-family="Helvetica,sans-Serif" font-size="10.00">/home/dagal/git/DamierGL</text>
<text text-anchor="middle" x="485" y="-8" font-family="Helvetica,sans-Serif" font-size="10.00">/DamierGL/src/CGL/CGLPositionSpeed.cpp</text>
</a>
</g>
</g>
<!-- Node11&#45;&gt;Node12 -->
<g id="edge12" class="edge"><title>Node11&#45;&gt;Node12</title>
<path fill="none" stroke="midnightblue" d="M485,-58.5322C485,-49.3606 485,-39.2449 485,-31.2931"/>
<polygon fill="midnightblue" stroke="midnightblue" points="481.5,-58.6789 485,-68.679 488.5,-58.679 481.5,-58.6789"/>
</g>
<!-- Node14 -->
<g id="node14" class="node"><title>Node14</title>
<g id="a_node14"><a xlink:href="$db/d63/_c_g_l_rotation_8cpp.xhtml" xlink:title="/home/dagal/git/DamierGL\l/DamierGL/src/CGL/CGLRotation.cpp">
<polygon fill="white" stroke="black" points="1248,-69 1248,-99 1430,-99 1430,-69 1248,-69"/>
<text text-anchor="start" x="1256" y="-87" font-family="Helvetica,sans-Serif" font-size="10.00">/home/dagal/git/DamierGL</text>
<text text-anchor="middle" x="1339" y="-76" font-family="Helvetica,sans-Serif" font-size="10.00">/DamierGL/src/CGL/CGLRotation.cpp</text>
</a>
</g>
</g>
<!-- Node13&#45;&gt;Node14 -->
<g id="edge15" class="edge"><title>Node13&#45;&gt;Node14</title>
<path fill="none" stroke="midnightblue" d="M1323.68,-127.129C1327.07,-117.801 1330.85,-107.418 1333.8,-99.2931"/>
<polygon fill="midnightblue" stroke="midnightblue" points="1320.34,-126.085 1320.21,-136.679 1326.91,-128.477 1320.34,-126.085"/>
</g>
<!-- Node15 -->
<g id="node15" class="node"><title>Node15</title>
<g id="a_node15"><a xlink:href="$d4/ddd/_c_g_l_rotation_speed_8h.xhtml" xlink:title="/home/dagal/git/DamierGL\l/DamierGL/src/CGL/CGLRotationSpeed.h">
<polygon fill="white" stroke="black" points="1448,-69 1448,-99 1648,-99 1648,-69 1448,-69"/>
<text text-anchor="start" x="1456" y="-87" font-family="Helvetica,sans-Serif" font-size="10.00">/home/dagal/git/DamierGL</text>
<text text-anchor="middle" x="1548" y="-76" font-family="Helvetica,sans-Serif" font-size="10.00">/DamierGL/src/CGL/CGLRotationSpeed.h</text>
</a>
</g>
</g>
<!-- Node13&#45;&gt;Node15 -->
<g id="edge16" class="edge"><title>Node13&#45;&gt;Node15</title>
<path fill="none" stroke="midnightblue" d="M1374.7,-134.091C1413.02,-123.235 1462.2,-109.303 1498.38,-99.0561"/>
<polygon fill="midnightblue" stroke="midnightblue" points="1373.37,-130.829 1364.7,-136.922 1375.27,-137.564 1373.37,-130.829"/>
</g>
<!-- Node15&#45;&gt;Node5 -->
<g id="edge18" class="edge"><title>Node15&#45;&gt;Node5</title>
<path fill="none" stroke="midnightblue" d="M1437.67,-67.8491C1300.81,-50.6841 1153.39,-34.2641 1067.29,-24.8853"/>
<polygon fill="midnightblue" stroke="midnightblue" points="1437.57,-71.3634 1447.93,-69.139 1438.44,-64.4182 1437.57,-71.3634"/>
</g>
<!-- Node16 -->
<g id="node16" class="node"><title>Node16</title>
<g id="a_node16"><a xlink:href="$df/d6d/_c_g_l_rotation_speed_8cpp.xhtml" xlink:title="/home/dagal/git/DamierGL\l/DamierGL/src/CGL/CGLRotationSpeed.cpp">
<polygon fill="white" stroke="black" points="1443,-1 1443,-31 1653,-31 1653,-1 1443,-1"/>
<text text-anchor="start" x="1451" y="-19" font-family="Helvetica,sans-Serif" font-size="10.00">/home/dagal/git/DamierGL</text>
<text text-anchor="middle" x="1548" y="-8" font-family="Helvetica,sans-Serif" font-size="10.00">/DamierGL/src/CGL/CGLRotationSpeed.cpp</text>
</a>
</g>
</g>
<!-- Node15&#45;&gt;Node16 -->
<g id="edge17" class="edge"><title>Node15&#45;&gt;Node16</title>
<path fill="none" stroke="midnightblue" d="M1548,-58.5322C1548,-49.3606 1548,-39.2449 1548,-31.2931"/>
<polygon fill="midnightblue" stroke="midnightblue" points="1544.5,-58.6789 1548,-68.679 1551.5,-58.679 1544.5,-58.6789"/>
</g>
<!-- Node17&#45;&gt;Node5 -->
<g id="edge21" class="edge"><title>Node17&#45;&gt;Node5</title>
<path fill="none" stroke="midnightblue" d="M1067.72,-127.99C1049.26,-100.208 1018.8,-54.3415 1003.46,-31.2372"/>
<polygon fill="midnightblue" stroke="midnightblue" points="1065.03,-130.266 1073.48,-136.66 1070.86,-126.393 1065.03,-130.266"/>
</g>
<!-- Node18 -->
<g id="node18" class="node"><title>Node18</title>
<g id="a_node18"><a xlink:href="$dc/d61/_c_g_l_scale_8cpp.xhtml" xlink:title="/home/dagal/git/DamierGL\l/DamierGL/src/CGL/CGLScale.cpp">
<polygon fill="white" stroke="black" points="1060,-69 1060,-99 1230,-99 1230,-69 1060,-69"/>
<text text-anchor="start" x="1068" y="-87" font-family="Helvetica,sans-Serif" font-size="10.00">/home/dagal/git/DamierGL</text>
<text text-anchor="middle" x="1145" y="-76" font-family="Helvetica,sans-Serif" font-size="10.00">/DamierGL/src/CGL/CGLScale.cpp</text>
</a>
</g>
</g>
<!-- Node17&#45;&gt;Node18 -->
<g id="edge20" class="edge"><title>Node17&#45;&gt;Node18</title>
<path fill="none" stroke="midnightblue" d="M1103.48,-129.194C1112.72,-119.36 1123.37,-108.023 1131.57,-99.2931"/>
<polygon fill="midnightblue" stroke="midnightblue" points="1100.75,-126.994 1096.45,-136.679 1105.85,-131.787 1100.75,-126.994"/>
</g>
</g>
</svg>
