<?xml version="1.0" encoding="UTF-8" standalone="no"?>
<!DOCTYPE svg PUBLIC "-//W3C//DTD SVG 1.1//EN"
 "http://www.w3.org/Graphics/SVG/1.1/DTD/svg11.dtd">
<!-- Generated by graphviz version 2.36.0 (20140111.2315)
 -->
<!-- Title: /home/dagal/git/DamierGL/DamierGL/src/CGL/CGLVector3D.h Pages: 1 -->
<svg width="1519pt" height="244pt"
 viewBox="0.00 0.00 1519.00 244.00" xmlns="http://www.w3.org/2000/svg" xmlns:xlink="http://www.w3.org/1999/xlink">
<g id="graph0" class="graph" transform="scale(1 1) rotate(0) translate(4 240)">
<title>/home/dagal/git/DamierGL/DamierGL/src/CGL/CGLVector3D.h</title>
<polygon fill="white" stroke="none" points="-4,4 -4,-240 1515,-240 1515,4 -4,4"/>
<!-- Node1 -->
<g id="node1" class="node"><title>Node1</title>
<polygon fill="#bfbfbf" stroke="black" points="748,-205 748,-235 924,-235 924,-205 748,-205"/>
<text text-anchor="start" x="756" y="-223" font-family="Helvetica,sans-Serif" font-size="10.00">/home/dagal/git/DamierGL</text>
<text text-anchor="middle" x="836" y="-212" font-family="Helvetica,sans-Serif" font-size="10.00">/DamierGL/src/CGL/CGLVector3D.h</text>
</g>
<!-- Node2 -->
<g id="node2" class="node"><title>Node2</title>
<g id="a_node2"><a xlink:href="$df/dcb/_c_g_l_vector4_d_8h.xhtml" xlink:title="/home/dagal/git/DamierGL\l/DamierGL/src/CGL/CGLVector4D.h">
<polygon fill="white" stroke="black" points="186,-137 186,-167 362,-167 362,-137 186,-137"/>
<text text-anchor="start" x="194" y="-155" font-family="Helvetica,sans-Serif" font-size="10.00">/home/dagal/git/DamierGL</text>
<text text-anchor="middle" x="274" y="-144" font-family="Helvetica,sans-Serif" font-size="10.00">/DamierGL/src/CGL/CGLVector4D.h</text>
</a>
</g>
</g>
<!-- Node1&#45;&gt;Node2 -->
<g id="edge1" class="edge"><title>Node1&#45;&gt;Node2</title>
<path fill="none" stroke="midnightblue" d="M737.802,-207.468C631.655,-195.002 464.022,-175.316 362.018,-163.337"/>
<polygon fill="midnightblue" stroke="midnightblue" points="737.539,-210.961 747.879,-208.651 738.355,-204.009 737.539,-210.961"/>
</g>
<!-- Node7 -->
<g id="node7" class="node"><title>Node7</title>
<g id="a_node7"><a xlink:href="$df/d4a/_c_g_l_line_8h.xhtml" xlink:title="/home/dagal/git/DamierGL\l/DamierGL/src/CGL/CGLLine.h">
<polygon fill="white" stroke="black" points="672.5,-137 672.5,-167 825.5,-167 825.5,-137 672.5,-137"/>
<text text-anchor="start" x="680.5" y="-155" font-family="Helvetica,sans-Serif" font-size="10.00">/home/dagal/git/DamierGL</text>
<text text-anchor="middle" x="749" y="-144" font-family="Helvetica,sans-Serif" font-size="10.00">/DamierGL/src/CGL/CGLLine.h</text>
</a>
</g>
</g>
<!-- Node1&#45;&gt;Node7 -->
<g id="edge6" class="edge"><title>Node1&#45;&gt;Node7</title>
<path fill="none" stroke="midnightblue" d="M809.108,-198.599C795.626,-188.371 779.638,-176.243 767.542,-167.066"/>
<polygon fill="midnightblue" stroke="midnightblue" points="807.04,-201.424 817.122,-204.679 811.271,-195.847 807.04,-201.424"/>
</g>
<!-- Node9 -->
<g id="node9" class="node"><title>Node9</title>
<g id="a_node9"><a xlink:href="$db/d5d/_c_g_l_position_8h.xhtml" xlink:title="/home/dagal/git/DamierGL\l/DamierGL/src/CGL/CGLPosition.h">
<polygon fill="white" stroke="black" points="1022,-137 1022,-167 1192,-167 1192,-137 1022,-137"/>
<text text-anchor="start" x="1030" y="-155" font-family="Helvetica,sans-Serif" font-size="10.00">/home/dagal/git/DamierGL</text>
<text text-anchor="middle" x="1107" y="-144" font-family="Helvetica,sans-Serif" font-size="10.00">/DamierGL/src/CGL/CGLPosition.h</text>
</a>
</g>
</g>
<!-- Node1&#45;&gt;Node9 -->
<g id="edge9" class="edge"><title>Node1&#45;&gt;Node9</title>
<path fill="none" stroke="midnightblue" d="M903.73,-202.505C948.543,-191.591 1006.67,-177.434 1049.28,-167.056"/>
<polygon fill="midnightblue" stroke="midnightblue" points="902.692,-199.155 893.804,-204.922 904.348,-205.957 902.692,-199.155"/>
</g>
<!-- Node13 -->
<g id="node13" class="node"><title>Node13</title>
<g id="a_node13"><a xlink:href="$d5/d65/_c_g_l_rotation_8h.xhtml" xlink:title="/home/dagal/git/DamierGL\l/DamierGL/src/CGL/CGLRotation.h">
<polygon fill="white" stroke="black" points="482,-137 482,-167 654,-167 654,-137 482,-137"/>
<text text-anchor="start" x="490" y="-155" font-family="Helvetica,sans-Serif" font-size="10.00">/home/dagal/git/DamierGL</text>
<text text-anchor="middle" x="568" y="-144" font-family="Helvetica,sans-Serif" font-size="10.00">/DamierGL/src/CGL/CGLRotation.h</text>
</a>
</g>
</g>
<!-- Node1&#45;&gt;Node13 -->
<g id="edge15" class="edge"><title>Node1&#45;&gt;Node13</title>
<path fill="none" stroke="midnightblue" d="M769.019,-202.505C724.703,-191.591 667.216,-177.434 625.076,-167.056"/>
<polygon fill="midnightblue" stroke="midnightblue" points="768.289,-205.929 778.836,-204.922 769.963,-199.133 768.289,-205.929"/>
</g>
<!-- Node15 -->
<g id="node15" class="node"><title>Node15</title>
<g id="a_node15"><a xlink:href="$d2/d1b/_c_g_l_scale_8h.xhtml" xlink:title="/home/dagal/git/DamierGL\l/DamierGL/src/CGL/CGLScale.h">
<polygon fill="white" stroke="black" points="844,-137 844,-167 1004,-167 1004,-137 844,-137"/>
<text text-anchor="start" x="852" y="-155" font-family="Helvetica,sans-Serif" font-size="10.00">/home/dagal/git/DamierGL</text>
<text text-anchor="middle" x="924" y="-144" font-family="Helvetica,sans-Serif" font-size="10.00">/DamierGL/src/CGL/CGLScale.h</text>
</a>
</g>
</g>
<!-- Node1&#45;&gt;Node15 -->
<g id="edge18" class="edge"><title>Node1&#45;&gt;Node15</title>
<path fill="none" stroke="midnightblue" d="M863.201,-198.599C876.838,-188.371 893.01,-176.243 905.245,-167.066"/>
<polygon fill="midnightblue" stroke="midnightblue" points="860.995,-195.879 855.095,-204.679 865.195,-201.479 860.995,-195.879"/>
</g>
<!-- Node17 -->
<g id="node17" class="node"><title>Node17</title>
<g id="a_node17"><a xlink:href="$d5/d0d/_c_g_l_vector3_d_8cpp.xhtml" xlink:title="/home/dagal/git/DamierGL\l/DamierGL/src/CGL/CGLVector3D.cpp">
<polygon fill="white" stroke="black" points="1210.5,-137 1210.5,-167 1397.5,-167 1397.5,-137 1210.5,-137"/>
<text text-anchor="start" x="1218.5" y="-155" font-family="Helvetica,sans-Serif" font-size="10.00">/home/dagal/git/DamierGL</text>
<text text-anchor="middle" x="1304" y="-144" font-family="Helvetica,sans-Serif" font-size="10.00">/DamierGL/src/CGL/CGLVector3D.cpp</text>
</a>
</g>
</g>
<!-- Node1&#45;&gt;Node17 -->
<g id="edge21" class="edge"><title>Node1&#45;&gt;Node17</title>
<path fill="none" stroke="midnightblue" d="M934.324,-205.419C1007.8,-195.231 1110.71,-180.883 1201,-168 1204.04,-167.566 1207.13,-167.124 1210.25,-166.676"/>
<polygon fill="midnightblue" stroke="midnightblue" points="933.58,-201.988 924.155,-206.828 934.541,-208.922 933.58,-201.988"/>
</g>
<!-- Node3 -->
<g id="node3" class="node"><title>Node3</title>
<g id="a_node3"><a xlink:href="$da/de7/_c_g_l_color_8h.xhtml" xlink:title="/home/dagal/git/DamierGL\l/DamierGL/src/CGL/CGLColor.h">
<polygon fill="white" stroke="black" points="5,-69 5,-99 163,-99 163,-69 5,-69"/>
<text text-anchor="start" x="13" y="-87" font-family="Helvetica,sans-Serif" font-size="10.00">/home/dagal/git/DamierGL</text>
<text text-anchor="middle" x="84" y="-76" font-family="Helvetica,sans-Serif" font-size="10.00">/DamierGL/src/CGL/CGLColor.h</text>
</a>
</g>
</g>
<!-- Node2&#45;&gt;Node3 -->
<g id="edge2" class="edge"><title>Node2&#45;&gt;Node3</title>
<path fill="none" stroke="midnightblue" d="M223.483,-133.452C192.474,-122.68 153.299,-109.072 124.366,-99.0218"/>
<polygon fill="midnightblue" stroke="midnightblue" points="222.645,-136.866 233.24,-136.841 224.942,-130.254 222.645,-136.866"/>
</g>
<!-- Node6 -->
<g id="node6" class="node"><title>Node6</title>
<g id="a_node6"><a xlink:href="$d1/d00/_c_g_l_vector4_d_8cpp.xhtml" xlink:title="/home/dagal/git/DamierGL\l/DamierGL/src/CGL/CGLVector4D.cpp">
<polygon fill="white" stroke="black" points="180.5,-69 180.5,-99 367.5,-99 367.5,-69 180.5,-69"/>
<text text-anchor="start" x="188.5" y="-87" font-family="Helvetica,sans-Serif" font-size="10.00">/home/dagal/git/DamierGL</text>
<text text-anchor="middle" x="274" y="-76" font-family="Helvetica,sans-Serif" font-size="10.00">/DamierGL/src/CGL/CGLVector4D.cpp</text>
</a>
</g>
</g>
<!-- Node2&#45;&gt;Node6 -->
<g id="edge5" class="edge"><title>Node2&#45;&gt;Node6</title>
<path fill="none" stroke="midnightblue" d="M274,-126.532C274,-117.361 274,-107.245 274,-99.2931"/>
<polygon fill="midnightblue" stroke="midnightblue" points="270.5,-126.679 274,-136.679 277.5,-126.679 270.5,-126.679"/>
</g>
<!-- Node4 -->
<g id="node4" class="node"><title>Node4</title>
<g id="a_node4"><a xlink:href="$da/d19/_c_g_l_color_8cpp.xhtml" xlink:title="/home/dagal/git/DamierGL\l/DamierGL/src/CGL/CGLColor.cpp">
<polygon fill="white" stroke="black" points="-0.5,-1 -0.5,-31 168.5,-31 168.5,-1 -0.5,-1"/>
<text text-anchor="start" x="7.5" y="-19" font-family="Helvetica,sans-Serif" font-size="10.00">/home/dagal/git/DamierGL</text>
<text text-anchor="middle" x="84" y="-8" font-family="Helvetica,sans-Serif" font-size="10.00">/DamierGL/src/CGL/CGLColor.cpp</text>
</a>
</g>
</g>
<!-- Node3&#45;&gt;Node4 -->
<g id="edge3" class="edge"><title>Node3&#45;&gt;Node4</title>
<path fill="none" stroke="midnightblue" d="M84,-58.5322C84,-49.3606 84,-39.2449 84,-31.2931"/>
<polygon fill="midnightblue" stroke="midnightblue" points="80.5001,-58.6789 84,-68.679 87.5001,-58.679 80.5001,-58.6789"/>
</g>
<!-- Node5 -->
<g id="node5" class="node"><title>Node5</title>
<g id="a_node5"><a xlink:href="$db/dec/_damier_g_l_8cpp.xhtml" xlink:title="/home/dagal/git/DamierGL\l/DamierGL/src/DamierGL.cpp">
<polygon fill="white" stroke="black" points="762,-1 762,-31 908,-31 908,-1 762,-1"/>
<text text-anchor="start" x="770" y="-19" font-family="Helvetica,sans-Serif" font-size="10.00">/home/dagal/git/DamierGL</text>
<text text-anchor="middle" x="835" y="-8" font-family="Helvetica,sans-Serif" font-size="10.00">/DamierGL/src/DamierGL.cpp</text>
</a>
</g>
</g>
<!-- Node3&#45;&gt;Node5 -->
<g id="edge4" class="edge"><title>Node3&#45;&gt;Node5</title>
<path fill="none" stroke="midnightblue" d="M173.222,-67.7857C392.358,-40.9823 640.766,-26.4342 761.574,-20.378"/>
<polygon fill="midnightblue" stroke="midnightblue" points="172.635,-64.3315 163.139,-69.0303 173.492,-71.2788 172.635,-64.3315"/>
</g>
<!-- Node7&#45;&gt;Node5 -->
<g id="edge8" class="edge"><title>Node7&#45;&gt;Node5</title>
<path fill="none" stroke="midnightblue" d="M771.915,-129.804C780.484,-121.113 789.861,-110.612 797,-100 812.039,-77.6464 823.862,-48.3799 830.108,-31.2392"/>
<polygon fill="midnightblue" stroke="midnightblue" points="769.343,-127.424 764.668,-136.932 774.252,-132.414 769.343,-127.424"/>
</g>
<!-- Node8 -->
<g id="node8" class="node"><title>Node8</title>
<g id="a_node8"><a xlink:href="$df/de2/_c_g_l_line_8cpp.xhtml" xlink:title="/home/dagal/git/DamierGL\l/DamierGL/src/CGL/CGLLine.cpp">
<polygon fill="white" stroke="black" points="624,-69 624,-99 788,-99 788,-69 624,-69"/>
<text text-anchor="start" x="632" y="-87" font-family="Helvetica,sans-Serif" font-size="10.00">/home/dagal/git/DamierGL</text>
<text text-anchor="middle" x="706" y="-76" font-family="Helvetica,sans-Serif" font-size="10.00">/DamierGL/src/CGL/CGLLine.cpp</text>
</a>
</g>
</g>
<!-- Node7&#45;&gt;Node8 -->
<g id="edge7" class="edge"><title>Node7&#45;&gt;Node8</title>
<path fill="none" stroke="midnightblue" d="M734.027,-128.019C727.804,-118.467 720.774,-107.677 715.312,-99.2931"/>
<polygon fill="midnightblue" stroke="midnightblue" points="731.278,-130.211 739.67,-136.679 737.143,-126.39 731.278,-130.211"/>
</g>
<!-- Node9&#45;&gt;Node5 -->
<g id="edge14" class="edge"><title>Node9&#45;&gt;Node5</title>
<path fill="none" stroke="midnightblue" d="M1099.83,-127.148C1092.92,-108.254 1080.57,-82.6757 1061,-68 1017.07,-35.0649 955.735,-22.7524 908.045,-18.4341"/>
<polygon fill="midnightblue" stroke="midnightblue" points="1096.6,-128.503 1103.13,-136.845 1103.22,-126.251 1096.6,-128.503"/>
</g>
<!-- Node10 -->
<g id="node10" class="node"><title>Node10</title>
<g id="a_node10"><a xlink:href="$db/d18/_c_g_l_position_8cpp.xhtml" xlink:title="/home/dagal/git/DamierGL\l/DamierGL/src/CGL/CGLPosition.cpp">
<polygon fill="white" stroke="black" points="1108.5,-69 1108.5,-99 1289.5,-99 1289.5,-69 1108.5,-69"/>
<text text-anchor="start" x="1116.5" y="-87" font-family="Helvetica,sans-Serif" font-size="10.00">/home/dagal/git/DamierGL</text>
<text text-anchor="middle" x="1199" y="-76" font-family="Helvetica,sans-Serif" font-size="10.00">/DamierGL/src/CGL/CGLPosition.cpp</text>
</a>
</g>
</g>
<!-- Node9&#45;&gt;Node10 -->
<g id="edge10" class="edge"><title>Node9&#45;&gt;Node10</title>
<path fill="none" stroke="midnightblue" d="M1135.44,-130.599C1149.69,-120.371 1166.6,-108.243 1179.39,-99.0663"/>
<polygon fill="midnightblue" stroke="midnightblue" points="1133.05,-128.006 1126.96,-136.679 1137.13,-133.694 1133.05,-128.006"/>
</g>
<!-- Node11 -->
<g id="node11" class="node"><title>Node11</title>
<g id="a_node11"><a xlink:href="$d0/d52/_c_g_l_position_speed_8h.xhtml" xlink:title="/home/dagal/git/DamierGL\l/DamierGL/src/CGL/CGLPositionSpeed.h">
<polygon fill="white" stroke="black" points="1308,-69 1308,-99 1506,-99 1506,-69 1308,-69"/>
<text text-anchor="start" x="1316" y="-87" font-family="Helvetica,sans-Serif" font-size="10.00">/home/dagal/git/DamierGL</text>
<text text-anchor="middle" x="1407" y="-76" font-family="Helvetica,sans-Serif" font-size="10.00">/DamierGL/src/CGL/CGLPositionSpeed.h</text>
</a>
</g>
</g>
<!-- Node9&#45;&gt;Node11 -->
<g id="edge11" class="edge"><title>Node9&#45;&gt;Node11</title>
<path fill="none" stroke="midnightblue" d="M1181.04,-134.711C1230.77,-123.77 1295.64,-109.499 1343.11,-99.0561"/>
<polygon fill="midnightblue" stroke="midnightblue" points="1180,-131.355 1170.99,-136.922 1181.51,-138.192 1180,-131.355"/>
</g>
<!-- Node11&#45;&gt;Node5 -->
<g id="edge13" class="edge"><title>Node11&#45;&gt;Node5</title>
<path fill="none" stroke="midnightblue" d="M1297.85,-68.0034C1153.16,-50.1882 997.295,-33.6455 908.045,-24.4293"/>
<polygon fill="midnightblue" stroke="midnightblue" points="1297.45,-71.4806 1307.8,-69.2334 1298.31,-64.5335 1297.45,-71.4806"/>
</g>
<!-- Node12 -->
<g id="node12" class="node"><title>Node12</title>
<g id="a_node12"><a xlink:href="$de/d6f/_c_g_l_position_speed_8cpp.xhtml" xlink:title="/home/dagal/git/DamierGL\l/DamierGL/src/CGL/CGLPositionSpeed.cpp">
<polygon fill="white" stroke="black" points="1302.5,-1 1302.5,-31 1511.5,-31 1511.5,-1 1302.5,-1"/>
<text text-anchor="start" x="1310.5" y="-19" font-family="Helvetica,sans-Serif" font-size="10.00">/home/dagal/git/DamierGL</text>
<text text-anchor="middle" x="1407" y="-8" font-family="Helvetica,sans-Serif" font-size="10.00">/DamierGL/src/CGL/CGLPositionSpeed.cpp</text>
</a>
</g>
</g>
<!-- Node11&#45;&gt;Node12 -->
<g id="edge12" class="edge"><title>Node11&#45;&gt;Node12</title>
<path fill="none" stroke="midnightblue" d="M1407,-58.5322C1407,-49.3606 1407,-39.2449 1407,-31.2931"/>
<polygon fill="midnightblue" stroke="midnightblue" points="1403.5,-58.6789 1407,-68.679 1410.5,-58.679 1403.5,-58.6789"/>
</g>
<!-- Node13&#45;&gt;Node5 -->
<g id="edge17" class="edge"><title>Node13&#45;&gt;Node5</title>
<path fill="none" stroke="midnightblue" d="M575.482,-127.171C582.64,-108.29 595.3,-82.7186 615,-68 657.245,-36.4369 715.827,-23.9619 761.919,-19.2301"/>
<polygon fill="midnightblue" stroke="midnightblue" points="572.089,-126.265 572.061,-136.86 578.69,-128.596 572.089,-126.265"/>
</g>
<!-- Node14 -->
<g id="node14" class="node"><title>Node14</title>
<g id="a_node14"><a xlink:href="$db/d63/_c_g_l_rotation_8cpp.xhtml" xlink:title="/home/dagal/git/DamierGL\l/DamierGL/src/CGL/CGLRotation.cpp">
<polygon fill="white" stroke="black" points="386,-69 386,-99 568,-99 568,-69 386,-69"/>
<text text-anchor="start" x="394" y="-87" font-family="Helvetica,sans-Serif" font-size="10.00">/home/dagal/git/DamierGL</text>
<text text-anchor="middle" x="477" y="-76" font-family="Helvetica,sans-Serif" font-size="10.00">/DamierGL/src/CGL/CGLRotation.cpp</text>
</a>
</g>
</g>
<!-- Node13&#45;&gt;Node14 -->
<g id="edge16" class="edge"><title>Node13&#45;&gt;Node14</title>
<path fill="none" stroke="midnightblue" d="M539.872,-130.599C525.769,-120.371 509.047,-108.243 496.394,-99.0663"/>
<polygon fill="midnightblue" stroke="midnightblue" points="538.104,-133.641 548.254,-136.679 542.214,-127.975 538.104,-133.641"/>
</g>
<!-- Node15&#45;&gt;Node5 -->
<g id="edge20" class="edge"><title>Node15&#45;&gt;Node5</title>
<path fill="none" stroke="midnightblue" d="M899.451,-129.892C890.372,-121.253 880.481,-110.764 873,-100 857.534,-77.7466 845.774,-48.1892 839.671,-31.0146"/>
<polygon fill="midnightblue" stroke="midnightblue" points="897.091,-132.476 906.816,-136.679 901.834,-127.329 897.091,-132.476"/>
</g>
<!-- Node16 -->
<g id="node16" class="node"><title>Node16</title>
<g id="a_node16"><a xlink:href="$dc/d61/_c_g_l_scale_8cpp.xhtml" xlink:title="/home/dagal/git/DamierGL\l/DamierGL/src/CGL/CGLScale.cpp">
<polygon fill="white" stroke="black" points="882,-69 882,-99 1052,-99 1052,-69 882,-69"/>
<text text-anchor="start" x="890" y="-87" font-family="Helvetica,sans-Serif" font-size="10.00">/home/dagal/git/DamierGL</text>
<text text-anchor="middle" x="967" y="-76" font-family="Helvetica,sans-Serif" font-size="10.00">/DamierGL/src/CGL/CGLScale.cpp</text>
</a>
</g>
</g>
<!-- Node15&#45;&gt;Node16 -->
<g id="edge19" class="edge"><title>Node15&#45;&gt;Node16</title>
<path fill="none" stroke="midnightblue" d="M938.973,-128.019C945.196,-118.467 952.226,-107.677 957.688,-99.2931"/>
<polygon fill="midnightblue" stroke="midnightblue" points="935.857,-126.39 933.33,-136.679 941.722,-130.211 935.857,-126.39"/>
</g>
</g>
</svg>
