<?xml version="1.0" encoding="UTF-8" standalone="no"?>
<!DOCTYPE svg PUBLIC "-//W3C//DTD SVG 1.1//EN"
 "http://www.w3.org/Graphics/SVG/1.1/DTD/svg11.dtd">
<!-- Generated by graphviz version 2.36.0 (20140111.2315)
 -->
<!-- Title: CGLVector3D Pages: 1 -->
<svg width="445pt" height="660pt"
 viewBox="0.00 0.00 445.00 660.00" xmlns="http://www.w3.org/2000/svg" xmlns:xlink="http://www.w3.org/1999/xlink">
<g id="graph0" class="graph" transform="scale(1 1) rotate(0) translate(4 656)">
<title>CGLVector3D</title>
<polygon fill="white" stroke="none" points="-4,4 -4,-656 441,-656 441,4 -4,4"/>
<!-- Node1 -->
<g id="node1" class="node"><title>Node1</title>
<polygon fill="#bfbfbf" stroke="black" points="175.5,-367 175.5,-479 274.5,-479 274.5,-367 175.5,-367"/>
<text text-anchor="middle" x="225" y="-467" font-family="Helvetica,sans-Serif" font-size="10.00">CGLVector3D</text>
<polyline fill="none" stroke="black" points="175.5,-460 274.5,-460 "/>
<text text-anchor="start" x="183.5" y="-448" font-family="Helvetica,sans-Serif" font-size="10.00"># z</text>
<polyline fill="none" stroke="black" points="175.5,-441 274.5,-441 "/>
<text text-anchor="start" x="183.5" y="-429" font-family="Helvetica,sans-Serif" font-size="10.00">+ CGLVector3D()</text>
<text text-anchor="start" x="183.5" y="-418" font-family="Helvetica,sans-Serif" font-size="10.00">+ ~CGLVector3D()</text>
<text text-anchor="start" x="183.5" y="-407" font-family="Helvetica,sans-Serif" font-size="10.00">+ isEqualTo()</text>
<text text-anchor="start" x="183.5" y="-396" font-family="Helvetica,sans-Serif" font-size="10.00">+ getZ()</text>
<text text-anchor="start" x="183.5" y="-385" font-family="Helvetica,sans-Serif" font-size="10.00">+ set()</text>
<text text-anchor="start" x="183.5" y="-374" font-family="Helvetica,sans-Serif" font-size="10.00">+ setZ()</text>
</g>
<!-- Node3 -->
<g id="node3" class="node"><title>Node3</title>
<g id="a_node3"><a xlink:href="$de/d31/class_c_g_l_position.xhtml" xlink:title="{CGLPosition\n||+ CGLPosition()\l+ ~CGLPosition()\l+ drawObject()\l}">
<polygon fill="white" stroke="black" points="13.5,-233.5 13.5,-312.5 106.5,-312.5 106.5,-233.5 13.5,-233.5"/>
<text text-anchor="middle" x="60" y="-300.5" font-family="Helvetica,sans-Serif" font-size="10.00">CGLPosition</text>
<polyline fill="none" stroke="black" points="13.5,-293.5 106.5,-293.5 "/>
<text text-anchor="middle" x="60" y="-281.5" font-family="Helvetica,sans-Serif" font-size="10.00"> </text>
<polyline fill="none" stroke="black" points="13.5,-274.5 106.5,-274.5 "/>
<text text-anchor="start" x="21.5" y="-262.5" font-family="Helvetica,sans-Serif" font-size="10.00">+ CGLPosition()</text>
<text text-anchor="start" x="21.5" y="-251.5" font-family="Helvetica,sans-Serif" font-size="10.00">+ ~CGLPosition()</text>
<text text-anchor="start" x="21.5" y="-240.5" font-family="Helvetica,sans-Serif" font-size="10.00">+ drawObject()</text>
</a>
</g>
</g>
<!-- Node1&#45;&gt;Node3 -->
<g id="edge2" class="edge"><title>Node1&#45;&gt;Node3</title>
<path fill="none" stroke="midnightblue" d="M167.594,-375.788C150.38,-361.454 131.657,-345.377 115,-330 109.092,-324.546 102.987,-318.632 97.0875,-312.759"/>
<polygon fill="none" stroke="midnightblue" points="165.45,-378.557 175.383,-382.242 169.916,-373.167 165.45,-378.557"/>
</g>
<!-- Node5 -->
<g id="node5" class="node"><title>Node5</title>
<g id="a_node5"><a xlink:href="$d4/dd5/class_c_g_l_rotation.xhtml" xlink:title="{CGLRotation\n||+ CGLRotation()\l+ ~CGLRotation()\l+ setA()\l+ getA()\l+ set()\l+ drawObject()\l}">
<polygon fill="white" stroke="black" points="124.5,-217 124.5,-329 219.5,-329 219.5,-217 124.5,-217"/>
<text text-anchor="middle" x="172" y="-317" font-family="Helvetica,sans-Serif" font-size="10.00">CGLRotation</text>
<polyline fill="none" stroke="black" points="124.5,-310 219.5,-310 "/>
<text text-anchor="middle" x="172" y="-298" font-family="Helvetica,sans-Serif" font-size="10.00"> </text>
<polyline fill="none" stroke="black" points="124.5,-291 219.5,-291 "/>
<text text-anchor="start" x="132.5" y="-279" font-family="Helvetica,sans-Serif" font-size="10.00">+ CGLRotation()</text>
<text text-anchor="start" x="132.5" y="-268" font-family="Helvetica,sans-Serif" font-size="10.00">+ ~CGLRotation()</text>
<text text-anchor="start" x="132.5" y="-257" font-family="Helvetica,sans-Serif" font-size="10.00">+ setA()</text>
<text text-anchor="start" x="132.5" y="-246" font-family="Helvetica,sans-Serif" font-size="10.00">+ getA()</text>
<text text-anchor="start" x="132.5" y="-235" font-family="Helvetica,sans-Serif" font-size="10.00">+ set()</text>
<text text-anchor="start" x="132.5" y="-224" font-family="Helvetica,sans-Serif" font-size="10.00">+ drawObject()</text>
</a>
</g>
</g>
<!-- Node1&#45;&gt;Node5 -->
<g id="edge4" class="edge"><title>Node1&#45;&gt;Node5</title>
<path fill="none" stroke="midnightblue" d="M201.806,-357.232C198.453,-347.869 195.029,-338.307 191.752,-329.156"/>
<polygon fill="none" stroke="midnightblue" points="198.598,-358.656 205.265,-366.89 205.188,-356.296 198.598,-358.656"/>
</g>
<!-- Node6 -->
<g id="node6" class="node"><title>Node6</title>
<g id="a_node6"><a xlink:href="$dd/dd7/class_c_g_l_scale.xhtml" xlink:title="{CGLScale\n||+ CGLScale()\l+ ~CGLScale()\l+ drawObject()\l}">
<polygon fill="white" stroke="black" points="237.5,-233.5 237.5,-312.5 320.5,-312.5 320.5,-233.5 237.5,-233.5"/>
<text text-anchor="middle" x="279" y="-300.5" font-family="Helvetica,sans-Serif" font-size="10.00">CGLScale</text>
<polyline fill="none" stroke="black" points="237.5,-293.5 320.5,-293.5 "/>
<text text-anchor="middle" x="279" y="-281.5" font-family="Helvetica,sans-Serif" font-size="10.00"> </text>
<polyline fill="none" stroke="black" points="237.5,-274.5 320.5,-274.5 "/>
<text text-anchor="start" x="245.5" y="-262.5" font-family="Helvetica,sans-Serif" font-size="10.00">+ CGLScale()</text>
<text text-anchor="start" x="245.5" y="-251.5" font-family="Helvetica,sans-Serif" font-size="10.00">+ ~CGLScale()</text>
<text text-anchor="start" x="245.5" y="-240.5" font-family="Helvetica,sans-Serif" font-size="10.00">+ drawObject()</text>
</a>
</g>
</g>
<!-- Node1&#45;&gt;Node6 -->
<g id="edge5" class="edge"><title>Node1&#45;&gt;Node6</title>
<path fill="none" stroke="midnightblue" d="M248.553,-357.449C254.141,-342.132 259.93,-326.267 264.94,-312.535"/>
<polygon fill="none" stroke="midnightblue" points="245.247,-356.296 245.108,-366.89 251.823,-358.696 245.247,-356.296"/>
</g>
<!-- Node7 -->
<g id="node7" class="node"><title>Node7</title>
<g id="a_node7"><a xlink:href="$db/d79/class_c_g_l_vector4_d.xhtml" xlink:title="{CGLVector4D\n|# w\l|+ CGLVector4D()\l+ ~CGLVector4D()\l+ getW()\l+ setW()\l+ set()\l}">
<polygon fill="white" stroke="black" points="338.5,-222.5 338.5,-323.5 437.5,-323.5 437.5,-222.5 338.5,-222.5"/>
<text text-anchor="middle" x="388" y="-311.5" font-family="Helvetica,sans-Serif" font-size="10.00">CGLVector4D</text>
<polyline fill="none" stroke="black" points="338.5,-304.5 437.5,-304.5 "/>
<text text-anchor="start" x="346.5" y="-292.5" font-family="Helvetica,sans-Serif" font-size="10.00"># w</text>
<polyline fill="none" stroke="black" points="338.5,-285.5 437.5,-285.5 "/>
<text text-anchor="start" x="346.5" y="-273.5" font-family="Helvetica,sans-Serif" font-size="10.00">+ CGLVector4D()</text>
<text text-anchor="start" x="346.5" y="-262.5" font-family="Helvetica,sans-Serif" font-size="10.00">+ ~CGLVector4D()</text>
<text text-anchor="start" x="346.5" y="-251.5" font-family="Helvetica,sans-Serif" font-size="10.00">+ getW()</text>
<text text-anchor="start" x="346.5" y="-240.5" font-family="Helvetica,sans-Serif" font-size="10.00">+ setW()</text>
<text text-anchor="start" x="346.5" y="-229.5" font-family="Helvetica,sans-Serif" font-size="10.00">+ set()</text>
</a>
</g>
</g>
<!-- Node1&#45;&gt;Node7 -->
<g id="edge6" class="edge"><title>Node1&#45;&gt;Node7</title>
<path fill="none" stroke="midnightblue" d="M282.373,-371.889C297.623,-358.394 314.017,-343.73 329,-330 332.019,-327.233 335.112,-324.374 338.222,-321.48"/>
<polygon fill="none" stroke="midnightblue" points="279.695,-369.584 274.516,-378.827 284.329,-374.831 279.695,-369.584"/>
</g>
<!-- Node2 -->
<g id="node2" class="node"><title>Node2</title>
<g id="a_node2"><a xlink:href="$d8/d97/class_c_g_l_vector2_d.xhtml" xlink:title="{CGLVector2D\n|# x\l# y\l|+ CGLVector2D()\l+ ~CGLVector2D()\l+ set()\l+ setX()\l+ getX()\l+ setY()\l+ getY()\l}">
<polygon fill="white" stroke="black" points="175.5,-517 175.5,-651 274.5,-651 274.5,-517 175.5,-517"/>
<text text-anchor="middle" x="225" y="-639" font-family="Helvetica,sans-Serif" font-size="10.00">CGLVector2D</text>
<polyline fill="none" stroke="black" points="175.5,-632 274.5,-632 "/>
<text text-anchor="start" x="183.5" y="-620" font-family="Helvetica,sans-Serif" font-size="10.00"># x</text>
<text text-anchor="start" x="183.5" y="-609" font-family="Helvetica,sans-Serif" font-size="10.00"># y</text>
<polyline fill="none" stroke="black" points="175.5,-602 274.5,-602 "/>
<text text-anchor="start" x="183.5" y="-590" font-family="Helvetica,sans-Serif" font-size="10.00">+ CGLVector2D()</text>
<text text-anchor="start" x="183.5" y="-579" font-family="Helvetica,sans-Serif" font-size="10.00">+ ~CGLVector2D()</text>
<text text-anchor="start" x="183.5" y="-568" font-family="Helvetica,sans-Serif" font-size="10.00">+ set()</text>
<text text-anchor="start" x="183.5" y="-557" font-family="Helvetica,sans-Serif" font-size="10.00">+ setX()</text>
<text text-anchor="start" x="183.5" y="-546" font-family="Helvetica,sans-Serif" font-size="10.00">+ getX()</text>
<text text-anchor="start" x="183.5" y="-535" font-family="Helvetica,sans-Serif" font-size="10.00">+ setY()</text>
<text text-anchor="start" x="183.5" y="-524" font-family="Helvetica,sans-Serif" font-size="10.00">+ getY()</text>
</a>
</g>
</g>
<!-- Node2&#45;&gt;Node1 -->
<g id="edge1" class="edge"><title>Node2&#45;&gt;Node1</title>
<path fill="none" stroke="midnightblue" d="M225,-506.657C225,-497.494 225,-488.276 225,-479.49"/>
<polygon fill="none" stroke="midnightblue" points="221.5,-506.951 225,-516.951 228.5,-506.951 221.5,-506.951"/>
</g>
<!-- Node4 -->
<g id="node4" class="node"><title>Node4</title>
<g id="a_node4"><a xlink:href="$d7/dc4/class_c_g_l_position_speed.xhtml" xlink:title="{CGLPositionSpeed\n|# speed\l|+ CGLPositionSpeed()\l+ ~CGLPositionSpeed()\l+ drawObject()\l}">
<polygon fill="white" stroke="black" points="-0.5,-50.5 -0.5,-129.5 120.5,-129.5 120.5,-50.5 -0.5,-50.5"/>
<text text-anchor="middle" x="60" y="-117.5" font-family="Helvetica,sans-Serif" font-size="10.00">CGLPositionSpeed</text>
<polyline fill="none" stroke="black" points="-0.5,-110.5 120.5,-110.5 "/>
<text text-anchor="start" x="7.5" y="-98.5" font-family="Helvetica,sans-Serif" font-size="10.00"># speed</text>
<polyline fill="none" stroke="black" points="-0.5,-91.5 120.5,-91.5 "/>
<text text-anchor="start" x="7.5" y="-79.5" font-family="Helvetica,sans-Serif" font-size="10.00">+ CGLPositionSpeed()</text>
<text text-anchor="start" x="7.5" y="-68.5" font-family="Helvetica,sans-Serif" font-size="10.00">+ ~CGLPositionSpeed()</text>
<text text-anchor="start" x="7.5" y="-57.5" font-family="Helvetica,sans-Serif" font-size="10.00">+ drawObject()</text>
</a>
</g>
</g>
<!-- Node3&#45;&gt;Node4 -->
<g id="edge3" class="edge"><title>Node3&#45;&gt;Node4</title>
<path fill="none" stroke="midnightblue" d="M60,-223.142C60,-193.831 60,-157.068 60,-129.765"/>
<polygon fill="none" stroke="midnightblue" points="56.5001,-223.171 60,-233.171 63.5001,-223.171 56.5001,-223.171"/>
</g>
<!-- Node8 -->
<g id="node8" class="node"><title>Node8</title>
<g id="a_node8"><a xlink:href="$d7/dd6/class_c_g_l_color.xhtml" xlink:title="{CGLColor\n||+ CGLColor()\l+ ~CGLColor()\l+ set()\l+ setR()\l+ setG()\l+ setB()\l+ setA()\l+ getR()\l+ getG()\l+ getB()\l+ getA()\l+ drawObject()\l}">
<polygon fill="white" stroke="black" points="347.5,-1 347.5,-179 428.5,-179 428.5,-1 347.5,-1"/>
<text text-anchor="middle" x="388" y="-167" font-family="Helvetica,sans-Serif" font-size="10.00">CGLColor</text>
<polyline fill="none" stroke="black" points="347.5,-160 428.5,-160 "/>
<text text-anchor="middle" x="388" y="-148" font-family="Helvetica,sans-Serif" font-size="10.00"> </text>
<polyline fill="none" stroke="black" points="347.5,-141 428.5,-141 "/>
<text text-anchor="start" x="355.5" y="-129" font-family="Helvetica,sans-Serif" font-size="10.00">+ CGLColor()</text>
<text text-anchor="start" x="355.5" y="-118" font-family="Helvetica,sans-Serif" font-size="10.00">+ ~CGLColor()</text>
<text text-anchor="start" x="355.5" y="-107" font-family="Helvetica,sans-Serif" font-size="10.00">+ set()</text>
<text text-anchor="start" x="355.5" y="-96" font-family="Helvetica,sans-Serif" font-size="10.00">+ setR()</text>
<text text-anchor="start" x="355.5" y="-85" font-family="Helvetica,sans-Serif" font-size="10.00">+ setG()</text>
<text text-anchor="start" x="355.5" y="-74" font-family="Helvetica,sans-Serif" font-size="10.00">+ setB()</text>
<text text-anchor="start" x="355.5" y="-63" font-family="Helvetica,sans-Serif" font-size="10.00">+ setA()</text>
<text text-anchor="start" x="355.5" y="-52" font-family="Helvetica,sans-Serif" font-size="10.00">+ getR()</text>
<text text-anchor="start" x="355.5" y="-41" font-family="Helvetica,sans-Serif" font-size="10.00">+ getG()</text>
<text text-anchor="start" x="355.5" y="-30" font-family="Helvetica,sans-Serif" font-size="10.00">+ getB()</text>
<text text-anchor="start" x="355.5" y="-19" font-family="Helvetica,sans-Serif" font-size="10.00">+ getA()</text>
<text text-anchor="start" x="355.5" y="-8" font-family="Helvetica,sans-Serif" font-size="10.00">+ drawObject()</text>
</a>
</g>
</g>
<!-- Node7&#45;&gt;Node8 -->
<g id="edge7" class="edge"><title>Node7&#45;&gt;Node8</title>
<path fill="none" stroke="midnightblue" d="M388,-211.843C388,-201.397 388,-190.341 388,-179.328"/>
<polygon fill="none" stroke="midnightblue" points="384.5,-212.062 388,-222.062 391.5,-212.062 384.5,-212.062"/>
</g>
</g>
</svg>
